{
  "id": "beethoven-symphony-no-5",
  "title": "Symphony No. 5",
  "source": "L. V. Beethoven; Breitkopf and Härtel, 1862-1865; Mutopia Project",
  "sourceInfo": {
    "provider": "Mutopia Project",
    "sourceUrl": "https://www.mutopiaproject.org/cgibin/piece-info.cgi?id=941",
    "midiUrl": "https://www.mutopiaproject.org/ftp/BeethovenLv/O67/Symphony5_1/Symphony5_1.mid",
    "license": "Public Domain",
    "composer": "L. V. Beethoven",
    "editor": "Stelios Samelis; Johannes Heinecke",
    "mutopiaId": "941"
  },
  "bpm": 192,
  "beatsPerBar": 2,
  "defaultSecondsPerBeat": 0.3125,
  "createdAt": "2026-05-25T23:03:31.643Z",
  "updatedAt": "2026-05-25T23:03:31.643Z",
  "notes": [
    {
      "id": "n-00001",
      "pitch": "G2",
      "midi": 43,
      "start": 0.156,
      "duration": 0.156,
      "velocity": 0.71
    },
    {
      "id": "n-00002",
      "pitch": "G3",
      "midi": 55,
      "start": 0.156,
      "duration": 0.156,
      "velocity": 0.71
    },
    {
      "id": "n-00003",
      "pitch": "G3",
      "midi": 55,
      "start": 0.156,
      "duration": 0.156,
      "velocity": 0.71
    },
    {
      "id": "n-00004",
      "pitch": "G4",
      "midi": 67,
      "start": 0.156,
      "duration": 0.156,
      "velocity": 0.71
    },
    {
      "id": "n-00005",
      "pitch": "G4",
      "midi": 67,
      "start": 0.156,
      "duration": 0.156,
      "velocity": 0.71
    },
    {
      "id": "n-00006",
      "pitch": "G4",
      "midi": 67,
      "start": 0.156,
      "duration": 0.156,
      "velocity": 0.71
    },
    {
      "id": "n-00007",
      "pitch": "G2",
      "midi": 43,
      "start": 0.313,
      "duration": 0.156,
      "velocity": 0.71
    },
    {
      "id": "n-00008",
      "pitch": "G3",
      "midi": 55,
      "start": 0.313,
      "duration": 0.156,
      "velocity": 0.71
    },
    {
      "id": "n-00009",
      "pitch": "G3",
      "midi": 55,
      "start": 0.313,
      "duration": 0.156,
      "velocity": 0.71
    },
    {
      "id": "n-00010",
      "pitch": "G4",
      "midi": 67,
      "start": 0.313,
      "duration": 0.156,
      "velocity": 0.71
    },
    {
      "id": "n-00011",
      "pitch": "G4",
      "midi": 67,
      "start": 0.313,
      "duration": 0.156,
      "velocity": 0.71
    },
    {
      "id": "n-00012",
      "pitch": "G4",
      "midi": 67,
      "start": 0.313,
      "duration": 0.156,
      "velocity": 0.71
    },
    {
      "id": "n-00013",
      "pitch": "G2",
      "midi": 43,
      "start": 0.469,
      "duration": 0.156,
      "velocity": 0.71
    },
    {
      "id": "n-00014",
      "pitch": "G3",
      "midi": 55,
      "start": 0.469,
      "duration": 0.156,
      "velocity": 0.71
    },
    {
      "id": "n-00015",
      "pitch": "G3",
      "midi": 55,
      "start": 0.469,
      "duration": 0.156,
      "velocity": 0.71
    },
    {
      "id": "n-00016",
      "pitch": "G4",
      "midi": 67,
      "start": 0.469,
      "duration": 0.156,
      "velocity": 0.71
    },
    {
      "id": "n-00017",
      "pitch": "G4",
      "midi": 67,
      "start": 0.469,
      "duration": 0.156,
      "velocity": 0.71
    },
    {
      "id": "n-00018",
      "pitch": "G4",
      "midi": 67,
      "start": 0.469,
      "duration": 0.156,
      "velocity": 0.71
    },
    {
      "id": "n-00019",
      "pitch": "D#2",
      "midi": 39,
      "start": 0.625,
      "duration": 0.625,
      "velocity": 0.71
    },
    {
      "id": "n-00020",
      "pitch": "D#3",
      "midi": 51,
      "start": 0.625,
      "duration": 0.625,
      "velocity": 0.71
    },
    {
      "id": "n-00021",
      "pitch": "D#3",
      "midi": 51,
      "start": 0.625,
      "duration": 0.625,
      "velocity": 0.71
    },
    {
      "id": "n-00022",
      "pitch": "D#4",
      "midi": 63,
      "start": 0.625,
      "duration": 0.625,
      "velocity": 0.71
    },
    {
      "id": "n-00023",
      "pitch": "D#4",
      "midi": 63,
      "start": 0.625,
      "duration": 0.625,
      "velocity": 0.71
    },
    {
      "id": "n-00024",
      "pitch": "D#4",
      "midi": 63,
      "start": 0.625,
      "duration": 0.625,
      "velocity": 0.71
    },
    {
      "id": "n-00025",
      "pitch": "F2",
      "midi": 41,
      "start": 1.406,
      "duration": 0.156,
      "velocity": 0.71
    },
    {
      "id": "n-00026",
      "pitch": "F3",
      "midi": 53,
      "start": 1.406,
      "duration": 0.156,
      "velocity": 0.71
    },
    {
      "id": "n-00027",
      "pitch": "F3",
      "midi": 53,
      "start": 1.406,
      "duration": 0.156,
      "velocity": 0.71
    },
    {
      "id": "n-00028",
      "pitch": "F4",
      "midi": 65,
      "start": 1.406,
      "duration": 0.156,
      "velocity": 0.71
    },
    {
      "id": "n-00029",
      "pitch": "F4",
      "midi": 65,
      "start": 1.406,
      "duration": 0.156,
      "velocity": 0.71
    },
    {
      "id": "n-00030",
      "pitch": "F4",
      "midi": 65,
      "start": 1.406,
      "duration": 0.156,
      "velocity": 0.71
    },
    {
      "id": "n-00031",
      "pitch": "F2",
      "midi": 41,
      "start": 1.563,
      "duration": 0.156,
      "velocity": 0.71
    },
    {
      "id": "n-00032",
      "pitch": "F3",
      "midi": 53,
      "start": 1.563,
      "duration": 0.156,
      "velocity": 0.71
    },
    {
      "id": "n-00033",
      "pitch": "F3",
      "midi": 53,
      "start": 1.563,
      "duration": 0.156,
      "velocity": 0.71
    },
    {
      "id": "n-00034",
      "pitch": "F4",
      "midi": 65,
      "start": 1.563,
      "duration": 0.156,
      "velocity": 0.71
    },
    {
      "id": "n-00035",
      "pitch": "F4",
      "midi": 65,
      "start": 1.563,
      "duration": 0.156,
      "velocity": 0.71
    },
    {
      "id": "n-00036",
      "pitch": "F4",
      "midi": 65,
      "start": 1.563,
      "duration": 0.156,
      "velocity": 0.71
    },
    {
      "id": "n-00037",
      "pitch": "F2",
      "midi": 41,
      "start": 1.719,
      "duration": 0.156,
      "velocity": 0.71
    },
    {
      "id": "n-00038",
      "pitch": "F3",
      "midi": 53,
      "start": 1.719,
      "duration": 0.156,
      "velocity": 0.71
    },
    {
      "id": "n-00039",
      "pitch": "F3",
      "midi": 53,
      "start": 1.719,
      "duration": 0.156,
      "velocity": 0.71
    },
    {
      "id": "n-00040",
      "pitch": "F4",
      "midi": 65,
      "start": 1.719,
      "duration": 0.156,
      "velocity": 0.71
    },
    {
      "id": "n-00041",
      "pitch": "F4",
      "midi": 65,
      "start": 1.719,
      "duration": 0.156,
      "velocity": 0.71
    },
    {
      "id": "n-00042",
      "pitch": "F4",
      "midi": 65,
      "start": 1.719,
      "duration": 0.156,
      "velocity": 0.71
    },
    {
      "id": "n-00043",
      "pitch": "D2",
      "midi": 38,
      "start": 1.875,
      "duration": 1.25,
      "velocity": 0.71
    },
    {
      "id": "n-00044",
      "pitch": "D3",
      "midi": 50,
      "start": 1.875,
      "duration": 1.25,
      "velocity": 0.71
    },
    {
      "id": "n-00045",
      "pitch": "D3",
      "midi": 50,
      "start": 1.875,
      "duration": 1.25,
      "velocity": 0.71
    },
    {
      "id": "n-00046",
      "pitch": "D4",
      "midi": 62,
      "start": 1.875,
      "duration": 1.25,
      "velocity": 0.71
    },
    {
      "id": "n-00047",
      "pitch": "D4",
      "midi": 62,
      "start": 1.875,
      "duration": 1.25,
      "velocity": 0.71
    },
    {
      "id": "n-00048",
      "pitch": "D4",
      "midi": 62,
      "start": 1.875,
      "duration": 1.25,
      "velocity": 0.71
    },
    {
      "id": "n-00049",
      "pitch": "G4",
      "midi": 67,
      "start": 3.281,
      "duration": 0.156,
      "velocity": 0.71
    },
    {
      "id": "n-00050",
      "pitch": "G4",
      "midi": 67,
      "start": 3.438,
      "duration": 0.156,
      "velocity": 0.71
    },
    {
      "id": "n-00051",
      "pitch": "G4",
      "midi": 67,
      "start": 3.594,
      "duration": 0.156,
      "velocity": 0.71
    },
    {
      "id": "n-00052",
      "pitch": "C4",
      "midi": 60,
      "start": 3.75,
      "duration": 2.5,
      "velocity": 0.71
    },
    {
      "id": "n-00053",
      "pitch": "C4",
      "midi": 60,
      "start": 3.75,
      "duration": 2.5,
      "velocity": 0.71
    },
    {
      "id": "n-00054",
      "pitch": "D#4",
      "midi": 63,
      "start": 3.75,
      "duration": 2.031,
      "velocity": 0.71
    },
    {
      "id": "n-00055",
      "pitch": "G#4",
      "midi": 68,
      "start": 3.906,
      "duration": 0.156,
      "velocity": 0.71
    },
    {
      "id": "n-00056",
      "pitch": "G#4",
      "midi": 68,
      "start": 4.063,
      "duration": 0.156,
      "velocity": 0.71
    },
    {
      "id": "n-00057",
      "pitch": "G#4",
      "midi": 68,
      "start": 4.219,
      "duration": 0.156,
      "velocity": 0.71
    },
    {
      "id": "n-00058",
      "pitch": "G4",
      "midi": 67,
      "start": 4.375,
      "duration": 1.563,
      "velocity": 0.71
    },
    {
      "id": "n-00059",
      "pitch": "D#5",
      "midi": 75,
      "start": 4.531,
      "duration": 0.156,
      "velocity": 0.71
    },
    {
      "id": "n-00060",
      "pitch": "D#5",
      "midi": 75,
      "start": 4.688,
      "duration": 0.156,
      "velocity": 0.71
    },
    {
      "id": "n-00061",
      "pitch": "D#5",
      "midi": 75,
      "start": 4.844,
      "duration": 0.156,
      "velocity": 0.71
    },
    {
      "id": "n-00062",
      "pitch": "C5",
      "midi": 72,
      "start": 5,
      "duration": 0.938,
      "velocity": 0.71
    },
    {
      "id": "n-00063",
      "pitch": "G4",
      "midi": 67,
      "start": 5.781,
      "duration": 0.156,
      "velocity": 0.71
    },
    {
      "id": "n-00064",
      "pitch": "G4",
      "midi": 67,
      "start": 5.938,
      "duration": 0.156,
      "velocity": 0.71
    },
    {
      "id": "n-00065",
      "pitch": "G4",
      "midi": 67,
      "start": 6.094,
      "duration": 0.156,
      "velocity": 0.71
    },
    {
      "id": "n-00066",
      "pitch": "B3",
      "midi": 59,
      "start": 6.25,
      "duration": 2.5,
      "velocity": 0.71
    },
    {
      "id": "n-00067",
      "pitch": "B3",
      "midi": 59,
      "start": 6.25,
      "duration": 2.5,
      "velocity": 0.71
    },
    {
      "id": "n-00068",
      "pitch": "D4",
      "midi": 62,
      "start": 6.25,
      "duration": 1.25,
      "velocity": 0.71
    },
    {
      "id": "n-00069",
      "pitch": "G#4",
      "midi": 68,
      "start": 6.406,
      "duration": 0.156,
      "velocity": 0.71
    },
    {
      "id": "n-00070",
      "pitch": "G#4",
      "midi": 68,
      "start": 6.563,
      "duration": 0.156,
      "velocity": 0.71
    },
    {
      "id": "n-00071",
      "pitch": "G#4",
      "midi": 68,
      "start": 6.719,
      "duration": 0.156,
      "velocity": 0.71
    },
    {
      "id": "n-00072",
      "pitch": "G4",
      "midi": 67,
      "start": 6.875,
      "duration": 0.625,
      "velocity": 0.71
    },
    {
      "id": "n-00073",
      "pitch": "F5",
      "midi": 77,
      "start": 7.031,
      "duration": 0.156,
      "velocity": 0.71
    },
    {
      "id": "n-00074",
      "pitch": "F5",
      "midi": 77,
      "start": 7.188,
      "duration": 0.156,
      "velocity": 0.71
    },
    {
      "id": "n-00075",
      "pitch": "F5",
      "midi": 77,
      "start": 7.344,
      "duration": 0.156,
      "velocity": 0.71
    },
    {
      "id": "n-00076",
      "pitch": "D4",
      "midi": 62,
      "start": 7.5,
      "duration": 1.25,
      "velocity": 0.71
    },
    {
      "id": "n-00077",
      "pitch": "G4",
      "midi": 67,
      "start": 7.5,
      "duration": 1.406,
      "velocity": 0.71
    },
    {
      "id": "n-00078",
      "pitch": "D5",
      "midi": 74,
      "start": 7.5,
      "duration": 0.781,
      "velocity": 0.71
    },
    {
      "id": "n-00079",
      "pitch": "G5",
      "midi": 79,
      "start": 8.281,
      "duration": 0.156,
      "velocity": 0.71
    },
    {
      "id": "n-00080",
      "pitch": "G5",
      "midi": 79,
      "start": 8.438,
      "duration": 0.156,
      "velocity": 0.71
    },
    {
      "id": "n-00081",
      "pitch": "F5",
      "midi": 77,
      "start": 8.594,
      "duration": 0.156,
      "velocity": 0.71
    },
    {
      "id": "n-00082",
      "pitch": "C4",
      "midi": 60,
      "start": 8.75,
      "duration": 0.625,
      "velocity": 0.71
    },
    {
      "id": "n-00083",
      "pitch": "C4",
      "midi": 60,
      "start": 8.75,
      "duration": 0.625,
      "velocity": 0.71
    },
    {
      "id": "n-00084",
      "pitch": "D#4",
      "midi": 63,
      "start": 8.75,
      "duration": 0.156,
      "velocity": 0.71
    },
    {
      "id": "n-00085",
      "pitch": "D#5",
      "midi": 75,
      "start": 8.75,
      "duration": 0.625,
      "velocity": 0.71
    },
    {
      "id": "n-00086",
      "pitch": "D#4",
      "midi": 63,
      "start": 8.906,
      "duration": 0.156,
      "velocity": 0.71
    },
    {
      "id": "n-00087",
      "pitch": "D#4",
      "midi": 63,
      "start": 8.906,
      "duration": 0.156,
      "velocity": 0.71
    },
    {
      "id": "n-00088",
      "pitch": "D#4",
      "midi": 63,
      "start": 9.063,
      "duration": 0.156,
      "velocity": 0.71
    },
    {
      "id": "n-00089",
      "pitch": "D#4",
      "midi": 63,
      "start": 9.063,
      "duration": 0.156,
      "velocity": 0.71
    },
    {
      "id": "n-00090",
      "pitch": "F4",
      "midi": 65,
      "start": 9.219,
      "duration": 0.156,
      "velocity": 0.71
    },
    {
      "id": "n-00091",
      "pitch": "F4",
      "midi": 65,
      "start": 9.219,
      "duration": 0.156,
      "velocity": 0.71
    },
    {
      "id": "n-00092",
      "pitch": "B3",
      "midi": 59,
      "start": 9.375,
      "duration": 0.625,
      "velocity": 0.71
    },
    {
      "id": "n-00093",
      "pitch": "B3",
      "midi": 59,
      "start": 9.375,
      "duration": 0.625,
      "velocity": 0.71
    },
    {
      "id": "n-00094",
      "pitch": "G4",
      "midi": 67,
      "start": 9.375,
      "duration": 0.781,
      "velocity": 0.71
    },
    {
      "id": "n-00095",
      "pitch": "G4",
      "midi": 67,
      "start": 9.375,
      "duration": 0.781,
      "velocity": 0.71
    },
    {
      "id": "n-00096",
      "pitch": "D5",
      "midi": 74,
      "start": 9.375,
      "duration": 0.156,
      "velocity": 0.71
    },
    {
      "id": "n-00097",
      "pitch": "G5",
      "midi": 79,
      "start": 9.531,
      "duration": 0.156,
      "velocity": 0.71
    },
    {
      "id": "n-00098",
      "pitch": "G5",
      "midi": 79,
      "start": 9.688,
      "duration": 0.156,
      "velocity": 0.71
    },
    {
      "id": "n-00099",
      "pitch": "F5",
      "midi": 77,
      "start": 9.844,
      "duration": 0.156,
      "velocity": 0.71
    },
    {
      "id": "n-00100",
      "pitch": "C4",
      "midi": 60,
      "start": 10,
      "duration": 0.625,
      "velocity": 0.71
    },
    {
      "id": "n-00101",
      "pitch": "C4",
      "midi": 60,
      "start": 10,
      "duration": 0.625,
      "velocity": 0.71
    },
    {
      "id": "n-00102",
      "pitch": "D#5",
      "midi": 75,
      "start": 10,
      "duration": 0.625,
      "velocity": 0.71
    },
    {
      "id": "n-00103",
      "pitch": "D#4",
      "midi": 63,
      "start": 10.156,
      "duration": 0.156,
      "velocity": 0.71
    },
    {
      "id": "n-00104",
      "pitch": "D#4",
      "midi": 63,
      "start": 10.156,
      "duration": 0.156,
      "velocity": 0.71
    },
    {
      "id": "n-00105",
      "pitch": "D#4",
      "midi": 63,
      "start": 10.313,
      "duration": 0.156,
      "velocity": 0.71
    },
    {
      "id": "n-00106",
      "pitch": "D#4",
      "midi": 63,
      "start": 10.313,
      "duration": 0.156,
      "velocity": 0.71
    },
    {
      "id": "n-00107",
      "pitch": "F4",
      "midi": 65,
      "start": 10.469,
      "duration": 0.156,
      "velocity": 0.71
    },
    {
      "id": "n-00108",
      "pitch": "F4",
      "midi": 65,
      "start": 10.469,
      "duration": 0.156,
      "velocity": 0.71
    },
    {
      "id": "n-00109",
      "pitch": "B3",
      "midi": 59,
      "start": 10.625,
      "duration": 0.156,
      "velocity": 0.71
    },
    {
      "id": "n-00110",
      "pitch": "B3",
      "midi": 59,
      "start": 10.625,
      "duration": 0.156,
      "velocity": 0.71
    },
    {
      "id": "n-00111",
      "pitch": "G4",
      "midi": 67,
      "start": 10.625,
      "duration": 0.469,
      "velocity": 0.71
    },
    {
      "id": "n-00112",
      "pitch": "G4",
      "midi": 67,
      "start": 10.625,
      "duration": 0.156,
      "velocity": 0.71
    },
    {
      "id": "n-00113",
      "pitch": "D5",
      "midi": 74,
      "start": 10.625,
      "duration": 0.156,
      "velocity": 0.71
    },
    {
      "id": "n-00114",
      "pitch": "G2",
      "midi": 43,
      "start": 10.781,
      "duration": 0.156,
      "velocity": 0.71
    },
    {
      "id": "n-00115",
      "pitch": "B2",
      "midi": 47,
      "start": 10.781,
      "duration": 0.156,
      "velocity": 0.71
    },
    {
      "id": "n-00116",
      "pitch": "G3",
      "midi": 55,
      "start": 10.781,
      "duration": 0.156,
      "velocity": 0.71
    },
    {
      "id": "n-00117",
      "pitch": "G3",
      "midi": 55,
      "start": 10.781,
      "duration": 0.156,
      "velocity": 0.71
    },
    {
      "id": "n-00118",
      "pitch": "B3",
      "midi": 59,
      "start": 10.781,
      "duration": 0.156,
      "velocity": 0.71
    },
    {
      "id": "n-00119",
      "pitch": "B3",
      "midi": 59,
      "start": 10.781,
      "duration": 0.156,
      "velocity": 0.71
    },
    {
      "id": "n-00120",
      "pitch": "B3",
      "midi": 59,
      "start": 10.781,
      "duration": 0.156,
      "velocity": 0.71
    },
    {
      "id": "n-00121",
      "pitch": "G4",
      "midi": 67,
      "start": 10.781,
      "duration": 0.156,
      "velocity": 0.71
    },
    {
      "id": "n-00122",
      "pitch": "G4",
      "midi": 67,
      "start": 10.781,
      "duration": 0.156,
      "velocity": 0.71
    },
    {
      "id": "n-00123",
      "pitch": "D5",
      "midi": 74,
      "start": 10.781,
      "duration": 0.156,
      "velocity": 0.71
    },
    {
      "id": "n-00124",
      "pitch": "D5",
      "midi": 74,
      "start": 10.781,
      "duration": 0.156,
      "velocity": 0.71
    },
    {
      "id": "n-00125",
      "pitch": "G5",
      "midi": 79,
      "start": 10.781,
      "duration": 0.156,
      "velocity": 0.71
    },
    {
      "id": "n-00126",
      "pitch": "G5",
      "midi": 79,
      "start": 10.781,
      "duration": 0.156,
      "velocity": 0.71
    },
    {
      "id": "n-00127",
      "pitch": "D6",
      "midi": 86,
      "start": 10.781,
      "duration": 0.156,
      "velocity": 0.71
    },
    {
      "id": "n-00128",
      "pitch": "G6",
      "midi": 91,
      "start": 10.781,
      "duration": 0.156,
      "velocity": 0.71
    },
    {
      "id": "n-00129",
      "pitch": "G2",
      "midi": 43,
      "start": 10.938,
      "duration": 0.156,
      "velocity": 0.71
    },
    {
      "id": "n-00130",
      "pitch": "B2",
      "midi": 47,
      "start": 10.938,
      "duration": 0.156,
      "velocity": 0.71
    },
    {
      "id": "n-00131",
      "pitch": "G3",
      "midi": 55,
      "start": 10.938,
      "duration": 0.156,
      "velocity": 0.71
    },
    {
      "id": "n-00132",
      "pitch": "B3",
      "midi": 59,
      "start": 10.938,
      "duration": 0.156,
      "velocity": 0.71
    },
    {
      "id": "n-00133",
      "pitch": "B3",
      "midi": 59,
      "start": 10.938,
      "duration": 0.156,
      "velocity": 0.71
    },
    {
      "id": "n-00134",
      "pitch": "B3",
      "midi": 59,
      "start": 10.938,
      "duration": 0.156,
      "velocity": 0.71
    },
    {
      "id": "n-00135",
      "pitch": "D4",
      "midi": 62,
      "start": 10.938,
      "duration": 0.156,
      "velocity": 0.71
    },
    {
      "id": "n-00136",
      "pitch": "G4",
      "midi": 67,
      "start": 10.938,
      "duration": 0.156,
      "velocity": 0.71
    },
    {
      "id": "n-00137",
      "pitch": "G4",
      "midi": 67,
      "start": 10.938,
      "duration": 0.156,
      "velocity": 0.71
    },
    {
      "id": "n-00138",
      "pitch": "D5",
      "midi": 74,
      "start": 10.938,
      "duration": 0.156,
      "velocity": 0.71
    },
    {
      "id": "n-00139",
      "pitch": "D5",
      "midi": 74,
      "start": 10.938,
      "duration": 0.156,
      "velocity": 0.71
    },
    {
      "id": "n-00140",
      "pitch": "G5",
      "midi": 79,
      "start": 10.938,
      "duration": 0.156,
      "velocity": 0.71
    },
    {
      "id": "n-00141",
      "pitch": "G5",
      "midi": 79,
      "start": 10.938,
      "duration": 0.156,
      "velocity": 0.71
    },
    {
      "id": "n-00142",
      "pitch": "D6",
      "midi": 86,
      "start": 10.938,
      "duration": 0.156,
      "velocity": 0.71
    },
    {
      "id": "n-00143",
      "pitch": "G6",
      "midi": 91,
      "start": 10.938,
      "duration": 0.156,
      "velocity": 0.71
    },
    {
      "id": "n-00144",
      "pitch": "G2",
      "midi": 43,
      "start": 11.094,
      "duration": 0.156,
      "velocity": 0.71
    },
    {
      "id": "n-00145",
      "pitch": "B2",
      "midi": 47,
      "start": 11.094,
      "duration": 0.156,
      "velocity": 0.71
    },
    {
      "id": "n-00146",
      "pitch": "G3",
      "midi": 55,
      "start": 11.094,
      "duration": 0.156,
      "velocity": 0.71
    },
    {
      "id": "n-00147",
      "pitch": "B3",
      "midi": 59,
      "start": 11.094,
      "duration": 0.156,
      "velocity": 0.71
    },
    {
      "id": "n-00148",
      "pitch": "B3",
      "midi": 59,
      "start": 11.094,
      "duration": 0.156,
      "velocity": 0.71
    },
    {
      "id": "n-00149",
      "pitch": "D4",
      "midi": 62,
      "start": 11.094,
      "duration": 0.156,
      "velocity": 0.71
    },
    {
      "id": "n-00150",
      "pitch": "D4",
      "midi": 62,
      "start": 11.094,
      "duration": 0.156,
      "velocity": 0.71
    },
    {
      "id": "n-00151",
      "pitch": "G4",
      "midi": 67,
      "start": 11.094,
      "duration": 0.156,
      "velocity": 0.71
    },
    {
      "id": "n-00152",
      "pitch": "G4",
      "midi": 67,
      "start": 11.094,
      "duration": 0.156,
      "velocity": 0.71
    },
    {
      "id": "n-00153",
      "pitch": "G4",
      "midi": 67,
      "start": 11.094,
      "duration": 0.156,
      "velocity": 0.71
    },
    {
      "id": "n-00154",
      "pitch": "G4",
      "midi": 67,
      "start": 11.094,
      "duration": 0.156,
      "velocity": 0.71
    },
    {
      "id": "n-00155",
      "pitch": "D5",
      "midi": 74,
      "start": 11.094,
      "duration": 0.156,
      "velocity": 0.71
    },
    {
      "id": "n-00156",
      "pitch": "F5",
      "midi": 77,
      "start": 11.094,
      "duration": 0.156,
      "velocity": 0.71
    },
    {
      "id": "n-00157",
      "pitch": "F5",
      "midi": 77,
      "start": 11.094,
      "duration": 0.156,
      "velocity": 0.71
    },
    {
      "id": "n-00158",
      "pitch": "D6",
      "midi": 86,
      "start": 11.094,
      "duration": 0.156,
      "velocity": 0.71
    },
    {
      "id": "n-00159",
      "pitch": "F6",
      "midi": 89,
      "start": 11.094,
      "duration": 0.156,
      "velocity": 0.71
    },
    {
      "id": "n-00160",
      "pitch": "C3",
      "midi": 48,
      "start": 11.25,
      "duration": 0.313,
      "velocity": 0.71
    },
    {
      "id": "n-00161",
      "pitch": "C3",
      "midi": 48,
      "start": 11.25,
      "duration": 0.313,
      "velocity": 0.71
    },
    {
      "id": "n-00162",
      "pitch": "C4",
      "midi": 60,
      "start": 11.25,
      "duration": 0.313,
      "velocity": 0.71
    },
    {
      "id": "n-00163",
      "pitch": "C4",
      "midi": 60,
      "start": 11.25,
      "duration": 0.313,
      "velocity": 0.71
    },
    {
      "id": "n-00164",
      "pitch": "C4",
      "midi": 60,
      "start": 11.25,
      "duration": 0.313,
      "velocity": 0.71
    },
    {
      "id": "n-00165",
      "pitch": "C4",
      "midi": 60,
      "start": 11.25,
      "duration": 0.313,
      "velocity": 0.71
    },
    {
      "id": "n-00166",
      "pitch": "D#4",
      "midi": 63,
      "start": 11.25,
      "duration": 0.313,
      "velocity": 0.71
    },
    {
      "id": "n-00167",
      "pitch": "D#4",
      "midi": 63,
      "start": 11.25,
      "duration": 0.313,
      "velocity": 0.71
    },
    {
      "id": "n-00168",
      "pitch": "G4",
      "midi": 67,
      "start": 11.25,
      "duration": 0.313,
      "velocity": 0.71
    },
    {
      "id": "n-00169",
      "pitch": "G4",
      "midi": 67,
      "start": 11.25,
      "duration": 0.313,
      "velocity": 0.71
    },
    {
      "id": "n-00170",
      "pitch": "G4",
      "midi": 67,
      "start": 11.25,
      "duration": 0.313,
      "velocity": 0.71
    },
    {
      "id": "n-00171",
      "pitch": "C5",
      "midi": 72,
      "start": 11.25,
      "duration": 0.313,
      "velocity": 0.71
    },
    {
      "id": "n-00172",
      "pitch": "C5",
      "midi": 72,
      "start": 11.25,
      "duration": 0.313,
      "velocity": 0.71
    },
    {
      "id": "n-00173",
      "pitch": "D#5",
      "midi": 75,
      "start": 11.25,
      "duration": 0.313,
      "velocity": 0.71
    },
    {
      "id": "n-00174",
      "pitch": "D#5",
      "midi": 75,
      "start": 11.25,
      "duration": 0.313,
      "velocity": 0.71
    },
    {
      "id": "n-00175",
      "pitch": "D#5",
      "midi": 75,
      "start": 11.25,
      "duration": 0.313,
      "velocity": 0.71
    },
    {
      "id": "n-00176",
      "pitch": "C6",
      "midi": 84,
      "start": 11.25,
      "duration": 0.313,
      "velocity": 0.71
    },
    {
      "id": "n-00177",
      "pitch": "D#6",
      "midi": 87,
      "start": 11.25,
      "duration": 0.313,
      "velocity": 0.71
    },
    {
      "id": "n-00178",
      "pitch": "G#2",
      "midi": 44,
      "start": 11.875,
      "duration": 0.313,
      "velocity": 0.71
    },
    {
      "id": "n-00179",
      "pitch": "G#2",
      "midi": 44,
      "start": 11.875,
      "duration": 0.313,
      "velocity": 0.71
    },
    {
      "id": "n-00180",
      "pitch": "G#2",
      "midi": 44,
      "start": 11.875,
      "duration": 0.313,
      "velocity": 0.71
    },
    {
      "id": "n-00181",
      "pitch": "C3",
      "midi": 48,
      "start": 11.875,
      "duration": 0.313,
      "velocity": 0.71
    },
    {
      "id": "n-00182",
      "pitch": "D#3",
      "midi": 51,
      "start": 11.875,
      "duration": 0.313,
      "velocity": 0.71
    },
    {
      "id": "n-00183",
      "pitch": "G#3",
      "midi": 56,
      "start": 11.875,
      "duration": 0.313,
      "velocity": 0.71
    },
    {
      "id": "n-00184",
      "pitch": "A3",
      "midi": 57,
      "start": 11.875,
      "duration": 0.313,
      "velocity": 0.71
    },
    {
      "id": "n-00185",
      "pitch": "A3",
      "midi": 57,
      "start": 11.875,
      "duration": 0.313,
      "velocity": 0.71
    },
    {
      "id": "n-00186",
      "pitch": "C4",
      "midi": 60,
      "start": 11.875,
      "duration": 0.313,
      "velocity": 0.71
    },
    {
      "id": "n-00187",
      "pitch": "C4",
      "midi": 60,
      "start": 11.875,
      "duration": 0.313,
      "velocity": 0.71
    },
    {
      "id": "n-00188",
      "pitch": "D#4",
      "midi": 63,
      "start": 11.875,
      "duration": 0.313,
      "velocity": 0.71
    },
    {
      "id": "n-00189",
      "pitch": "F#4",
      "midi": 66,
      "start": 11.875,
      "duration": 0.313,
      "velocity": 0.71
    },
    {
      "id": "n-00190",
      "pitch": "F#4",
      "midi": 66,
      "start": 11.875,
      "duration": 0.313,
      "velocity": 0.71
    },
    {
      "id": "n-00191",
      "pitch": "F#4",
      "midi": 66,
      "start": 11.875,
      "duration": 0.313,
      "velocity": 0.71
    },
    {
      "id": "n-00192",
      "pitch": "C5",
      "midi": 72,
      "start": 11.875,
      "duration": 0.313,
      "velocity": 0.71
    },
    {
      "id": "n-00193",
      "pitch": "C5",
      "midi": 72,
      "start": 11.875,
      "duration": 0.313,
      "velocity": 0.71
    },
    {
      "id": "n-00194",
      "pitch": "C5",
      "midi": 72,
      "start": 11.875,
      "duration": 0.313,
      "velocity": 0.71
    },
    {
      "id": "n-00195",
      "pitch": "C5",
      "midi": 72,
      "start": 11.875,
      "duration": 0.313,
      "velocity": 0.71
    },
    {
      "id": "n-00196",
      "pitch": "F#5",
      "midi": 78,
      "start": 11.875,
      "duration": 0.313,
      "velocity": 0.71
    },
    {
      "id": "n-00197",
      "pitch": "C6",
      "midi": 84,
      "start": 11.875,
      "duration": 0.313,
      "velocity": 0.71
    },
    {
      "id": "n-00198",
      "pitch": "G2",
      "midi": 43,
      "start": 12.5,
      "duration": 0.313,
      "velocity": 0.71
    },
    {
      "id": "n-00199",
      "pitch": "G2",
      "midi": 43,
      "start": 12.5,
      "duration": 0.313,
      "velocity": 0.71
    },
    {
      "id": "n-00200",
      "pitch": "G2",
      "midi": 43,
      "start": 12.5,
      "duration": 0.313,
      "velocity": 0.71
    },
    {
      "id": "n-00201",
      "pitch": "G2",
      "midi": 43,
      "start": 12.5,
      "duration": 0.313,
      "velocity": 0.71
    },
    {
      "id": "n-00202",
      "pitch": "G3",
      "midi": 55,
      "start": 12.5,
      "duration": 0.313,
      "velocity": 0.71
    },
    {
      "id": "n-00203",
      "pitch": "G3",
      "midi": 55,
      "start": 12.5,
      "duration": 0.313,
      "velocity": 0.71
    },
    {
      "id": "n-00204",
      "pitch": "G3",
      "midi": 55,
      "start": 12.5,
      "duration": 0.313,
      "velocity": 0.71
    },
    {
      "id": "n-00205",
      "pitch": "G3",
      "midi": 55,
      "start": 12.5,
      "duration": 0.313,
      "velocity": 0.71
    },
    {
      "id": "n-00206",
      "pitch": "G3",
      "midi": 55,
      "start": 12.5,
      "duration": 0.313,
      "velocity": 0.71
    },
    {
      "id": "n-00207",
      "pitch": "B3",
      "midi": 59,
      "start": 12.5,
      "duration": 0.313,
      "velocity": 0.71
    },
    {
      "id": "n-00208",
      "pitch": "D4",
      "midi": 62,
      "start": 12.5,
      "duration": 0.313,
      "velocity": 0.71
    },
    {
      "id": "n-00209",
      "pitch": "D4",
      "midi": 62,
      "start": 12.5,
      "duration": 0.313,
      "velocity": 0.71
    },
    {
      "id": "n-00210",
      "pitch": "D4",
      "midi": 62,
      "start": 12.5,
      "duration": 0.313,
      "velocity": 0.71
    },
    {
      "id": "n-00211",
      "pitch": "G4",
      "midi": 67,
      "start": 12.5,
      "duration": 0.313,
      "velocity": 0.71
    },
    {
      "id": "n-00212",
      "pitch": "G4",
      "midi": 67,
      "start": 12.5,
      "duration": 0.313,
      "velocity": 0.71
    },
    {
      "id": "n-00213",
      "pitch": "B4",
      "midi": 71,
      "start": 12.5,
      "duration": 0.313,
      "velocity": 0.71
    },
    {
      "id": "n-00214",
      "pitch": "B4",
      "midi": 71,
      "start": 12.5,
      "duration": 0.313,
      "velocity": 0.71
    },
    {
      "id": "n-00215",
      "pitch": "B4",
      "midi": 71,
      "start": 12.5,
      "duration": 0.313,
      "velocity": 0.71
    },
    {
      "id": "n-00216",
      "pitch": "G5",
      "midi": 79,
      "start": 12.5,
      "duration": 0.625,
      "velocity": 0.71
    },
    {
      "id": "n-00217",
      "pitch": "G5",
      "midi": 79,
      "start": 12.5,
      "duration": 0.313,
      "velocity": 0.71
    },
    {
      "id": "n-00218",
      "pitch": "B5",
      "midi": 83,
      "start": 12.5,
      "duration": 0.313,
      "velocity": 0.71
    },
    {
      "id": "n-00219",
      "pitch": "G6",
      "midi": 91,
      "start": 12.5,
      "duration": 0.313,
      "velocity": 0.71
    },
    {
      "id": "n-00220",
      "pitch": "G#2",
      "midi": 44,
      "start": 13.281,
      "duration": 0.156,
      "velocity": 0.71
    },
    {
      "id": "n-00221",
      "pitch": "G#2",
      "midi": 44,
      "start": 13.281,
      "duration": 0.156,
      "velocity": 0.71
    },
    {
      "id": "n-00222",
      "pitch": "G#2",
      "midi": 44,
      "start": 13.281,
      "duration": 0.156,
      "velocity": 0.71
    },
    {
      "id": "n-00223",
      "pitch": "G#3",
      "midi": 56,
      "start": 13.281,
      "duration": 0.156,
      "velocity": 0.71
    },
    {
      "id": "n-00224",
      "pitch": "G#4",
      "midi": 68,
      "start": 13.281,
      "duration": 0.156,
      "velocity": 0.71
    },
    {
      "id": "n-00225",
      "pitch": "G#4",
      "midi": 68,
      "start": 13.281,
      "duration": 0.156,
      "velocity": 0.71
    },
    {
      "id": "n-00226",
      "pitch": "G#4",
      "midi": 68,
      "start": 13.281,
      "duration": 0.156,
      "velocity": 0.71
    },
    {
      "id": "n-00227",
      "pitch": "G#4",
      "midi": 68,
      "start": 13.281,
      "duration": 0.156,
      "velocity": 0.71
    },
    {
      "id": "n-00228",
      "pitch": "G#5",
      "midi": 80,
      "start": 13.281,
      "duration": 0.156,
      "velocity": 0.71
    },
    {
      "id": "n-00229",
      "pitch": "G#5",
      "midi": 80,
      "start": 13.281,
      "duration": 0.156,
      "velocity": 0.71
    },
    {
      "id": "n-00230",
      "pitch": "G#2",
      "midi": 44,
      "start": 13.438,
      "duration": 0.156,
      "velocity": 0.71
    },
    {
      "id": "n-00231",
      "pitch": "G#2",
      "midi": 44,
      "start": 13.438,
      "duration": 0.156,
      "velocity": 0.71
    },
    {
      "id": "n-00232",
      "pitch": "G#2",
      "midi": 44,
      "start": 13.438,
      "duration": 0.156,
      "velocity": 0.71
    },
    {
      "id": "n-00233",
      "pitch": "G#3",
      "midi": 56,
      "start": 13.438,
      "duration": 0.156,
      "velocity": 0.71
    },
    {
      "id": "n-00234",
      "pitch": "G#4",
      "midi": 68,
      "start": 13.438,
      "duration": 0.156,
      "velocity": 0.71
    },
    {
      "id": "n-00235",
      "pitch": "G#4",
      "midi": 68,
      "start": 13.438,
      "duration": 0.156,
      "velocity": 0.71
    },
    {
      "id": "n-00236",
      "pitch": "G#4",
      "midi": 68,
      "start": 13.438,
      "duration": 0.156,
      "velocity": 0.71
    },
    {
      "id": "n-00237",
      "pitch": "G#4",
      "midi": 68,
      "start": 13.438,
      "duration": 0.156,
      "velocity": 0.71
    },
    {
      "id": "n-00238",
      "pitch": "G#5",
      "midi": 80,
      "start": 13.438,
      "duration": 0.156,
      "velocity": 0.71
    },
    {
      "id": "n-00239",
      "pitch": "G#5",
      "midi": 80,
      "start": 13.438,
      "duration": 0.156,
      "velocity": 0.71
    },
    {
      "id": "n-00240",
      "pitch": "G#2",
      "midi": 44,
      "start": 13.594,
      "duration": 0.156,
      "velocity": 0.71
    },
    {
      "id": "n-00241",
      "pitch": "G#2",
      "midi": 44,
      "start": 13.594,
      "duration": 0.156,
      "velocity": 0.71
    },
    {
      "id": "n-00242",
      "pitch": "G#2",
      "midi": 44,
      "start": 13.594,
      "duration": 0.156,
      "velocity": 0.71
    },
    {
      "id": "n-00243",
      "pitch": "G#3",
      "midi": 56,
      "start": 13.594,
      "duration": 0.156,
      "velocity": 0.71
    },
    {
      "id": "n-00244",
      "pitch": "G#4",
      "midi": 68,
      "start": 13.594,
      "duration": 0.156,
      "velocity": 0.71
    },
    {
      "id": "n-00245",
      "pitch": "G#4",
      "midi": 68,
      "start": 13.594,
      "duration": 0.156,
      "velocity": 0.71
    },
    {
      "id": "n-00246",
      "pitch": "G#4",
      "midi": 68,
      "start": 13.594,
      "duration": 0.156,
      "velocity": 0.71
    },
    {
      "id": "n-00247",
      "pitch": "G#4",
      "midi": 68,
      "start": 13.594,
      "duration": 0.156,
      "velocity": 0.71
    },
    {
      "id": "n-00248",
      "pitch": "G#5",
      "midi": 80,
      "start": 13.594,
      "duration": 0.156,
      "velocity": 0.71
    },
    {
      "id": "n-00249",
      "pitch": "G#5",
      "midi": 80,
      "start": 13.594,
      "duration": 0.156,
      "velocity": 0.71
    },
    {
      "id": "n-00250",
      "pitch": "F2",
      "midi": 41,
      "start": 13.75,
      "duration": 1.25,
      "velocity": 0.71
    },
    {
      "id": "n-00251",
      "pitch": "F2",
      "midi": 41,
      "start": 13.75,
      "duration": 1.25,
      "velocity": 0.71
    },
    {
      "id": "n-00252",
      "pitch": "F2",
      "midi": 41,
      "start": 13.75,
      "duration": 1.25,
      "velocity": 0.71
    },
    {
      "id": "n-00253",
      "pitch": "F3",
      "midi": 53,
      "start": 13.75,
      "duration": 1.25,
      "velocity": 0.71
    },
    {
      "id": "n-00254",
      "pitch": "F4",
      "midi": 65,
      "start": 13.75,
      "duration": 1.25,
      "velocity": 0.71
    },
    {
      "id": "n-00255",
      "pitch": "F4",
      "midi": 65,
      "start": 13.75,
      "duration": 1.25,
      "velocity": 0.71
    },
    {
      "id": "n-00256",
      "pitch": "F4",
      "midi": 65,
      "start": 13.75,
      "duration": 1.25,
      "velocity": 0.71
    },
    {
      "id": "n-00257",
      "pitch": "F4",
      "midi": 65,
      "start": 13.75,
      "duration": 1.25,
      "velocity": 0.71
    },
    {
      "id": "n-00258",
      "pitch": "F5",
      "midi": 77,
      "start": 13.75,
      "duration": 1.25,
      "velocity": 0.71
    },
    {
      "id": "n-00259",
      "pitch": "F5",
      "midi": 77,
      "start": 13.75,
      "duration": 1.25,
      "velocity": 0.71
    },
    {
      "id": "n-00260",
      "pitch": "G#4",
      "midi": 68,
      "start": 15.156,
      "duration": 0.156,
      "velocity": 0.71
    },
    {
      "id": "n-00261",
      "pitch": "G#4",
      "midi": 68,
      "start": 15.313,
      "duration": 0.156,
      "velocity": 0.71
    },
    {
      "id": "n-00262",
      "pitch": "G#4",
      "midi": 68,
      "start": 15.469,
      "duration": 0.156,
      "velocity": 0.71
    },
    {
      "id": "n-00263",
      "pitch": "F4",
      "midi": 65,
      "start": 15.625,
      "duration": 1.875,
      "velocity": 0.71
    },
    {
      "id": "n-00264",
      "pitch": "D4",
      "midi": 62,
      "start": 15.781,
      "duration": 0.156,
      "velocity": 0.71
    },
    {
      "id": "n-00265",
      "pitch": "D4",
      "midi": 62,
      "start": 15.938,
      "duration": 0.156,
      "velocity": 0.71
    },
    {
      "id": "n-00266",
      "pitch": "D4",
      "midi": 62,
      "start": 16.094,
      "duration": 0.156,
      "velocity": 0.71
    },
    {
      "id": "n-00267",
      "pitch": "B3",
      "midi": 59,
      "start": 16.25,
      "duration": 1.25,
      "velocity": 0.71
    },
    {
      "id": "n-00268",
      "pitch": "G#3",
      "midi": 56,
      "start": 16.406,
      "duration": 0.156,
      "velocity": 0.71
    },
    {
      "id": "n-00269",
      "pitch": "G#3",
      "midi": 56,
      "start": 16.563,
      "duration": 0.156,
      "velocity": 0.71
    },
    {
      "id": "n-00270",
      "pitch": "G#3",
      "midi": 56,
      "start": 16.719,
      "duration": 0.156,
      "velocity": 0.71
    },
    {
      "id": "n-00271",
      "pitch": "G3",
      "midi": 55,
      "start": 16.875,
      "duration": 0.938,
      "velocity": 0.71
    },
    {
      "id": "n-00272",
      "pitch": "G2",
      "midi": 43,
      "start": 17.031,
      "duration": 0.156,
      "velocity": 0.71
    },
    {
      "id": "n-00273",
      "pitch": "G2",
      "midi": 43,
      "start": 17.031,
      "duration": 0.156,
      "velocity": 0.71
    },
    {
      "id": "n-00274",
      "pitch": "G2",
      "midi": 43,
      "start": 17.188,
      "duration": 0.156,
      "velocity": 0.71
    },
    {
      "id": "n-00275",
      "pitch": "G2",
      "midi": 43,
      "start": 17.188,
      "duration": 0.156,
      "velocity": 0.71
    },
    {
      "id": "n-00276",
      "pitch": "G2",
      "midi": 43,
      "start": 17.344,
      "duration": 0.156,
      "velocity": 0.71
    },
    {
      "id": "n-00277",
      "pitch": "G2",
      "midi": 43,
      "start": 17.344,
      "duration": 0.156,
      "velocity": 0.71
    },
    {
      "id": "n-00278",
      "pitch": "C3",
      "midi": 48,
      "start": 17.5,
      "duration": 0.313,
      "velocity": 0.71
    },
    {
      "id": "n-00279",
      "pitch": "C3",
      "midi": 48,
      "start": 17.5,
      "duration": 0.313,
      "velocity": 0.71
    },
    {
      "id": "n-00280",
      "pitch": "C4",
      "midi": 60,
      "start": 17.5,
      "duration": 0.313,
      "velocity": 0.71
    },
    {
      "id": "n-00281",
      "pitch": "D#4",
      "midi": 63,
      "start": 17.5,
      "duration": 0.156,
      "velocity": 0.71
    },
    {
      "id": "n-00282",
      "pitch": "G#4",
      "midi": 68,
      "start": 17.656,
      "duration": 0.156,
      "velocity": 0.71
    },
    {
      "id": "n-00283",
      "pitch": "G#4",
      "midi": 68,
      "start": 17.813,
      "duration": 0.156,
      "velocity": 0.71
    },
    {
      "id": "n-00284",
      "pitch": "G#4",
      "midi": 68,
      "start": 17.969,
      "duration": 0.156,
      "velocity": 0.71
    },
    {
      "id": "n-00285",
      "pitch": "F4",
      "midi": 65,
      "start": 18.125,
      "duration": 1.875,
      "velocity": 0.71
    },
    {
      "id": "n-00286",
      "pitch": "D4",
      "midi": 62,
      "start": 18.281,
      "duration": 0.156,
      "velocity": 0.71
    },
    {
      "id": "n-00287",
      "pitch": "D4",
      "midi": 62,
      "start": 18.438,
      "duration": 0.156,
      "velocity": 0.71
    },
    {
      "id": "n-00288",
      "pitch": "D4",
      "midi": 62,
      "start": 18.594,
      "duration": 0.156,
      "velocity": 0.71
    },
    {
      "id": "n-00289",
      "pitch": "B3",
      "midi": 59,
      "start": 18.75,
      "duration": 1.25,
      "velocity": 0.71
    },
    {
      "id": "n-00290",
      "pitch": "G#3",
      "midi": 56,
      "start": 18.906,
      "duration": 0.156,
      "velocity": 0.71
    },
    {
      "id": "n-00291",
      "pitch": "G#3",
      "midi": 56,
      "start": 19.063,
      "duration": 0.156,
      "velocity": 0.71
    },
    {
      "id": "n-00292",
      "pitch": "G#3",
      "midi": 56,
      "start": 19.219,
      "duration": 0.156,
      "velocity": 0.71
    },
    {
      "id": "n-00293",
      "pitch": "G3",
      "midi": 55,
      "start": 19.375,
      "duration": 0.781,
      "velocity": 0.71
    },
    {
      "id": "n-00294",
      "pitch": "G2",
      "midi": 43,
      "start": 19.531,
      "duration": 0.156,
      "velocity": 0.71
    },
    {
      "id": "n-00295",
      "pitch": "G2",
      "midi": 43,
      "start": 19.531,
      "duration": 0.156,
      "velocity": 0.71
    },
    {
      "id": "n-00296",
      "pitch": "G3",
      "midi": 55,
      "start": 19.531,
      "duration": 0.156,
      "velocity": 0.71
    },
    {
      "id": "n-00297",
      "pitch": "G4",
      "midi": 67,
      "start": 19.531,
      "duration": 0.156,
      "velocity": 0.71
    },
    {
      "id": "n-00298",
      "pitch": "D5",
      "midi": 74,
      "start": 19.531,
      "duration": 0.156,
      "velocity": 0.71
    },
    {
      "id": "n-00299",
      "pitch": "F5",
      "midi": 77,
      "start": 19.531,
      "duration": 0.156,
      "velocity": 0.71
    },
    {
      "id": "n-00300",
      "pitch": "G2",
      "midi": 43,
      "start": 19.688,
      "duration": 0.156,
      "velocity": 0.71
    },
    {
      "id": "n-00301",
      "pitch": "G2",
      "midi": 43,
      "start": 19.688,
      "duration": 0.156,
      "velocity": 0.71
    },
    {
      "id": "n-00302",
      "pitch": "G3",
      "midi": 55,
      "start": 19.688,
      "duration": 0.156,
      "velocity": 0.71
    },
    {
      "id": "n-00303",
      "pitch": "G4",
      "midi": 67,
      "start": 19.688,
      "duration": 0.156,
      "velocity": 0.71
    },
    {
      "id": "n-00304",
      "pitch": "D5",
      "midi": 74,
      "start": 19.688,
      "duration": 0.156,
      "velocity": 0.71
    },
    {
      "id": "n-00305",
      "pitch": "F5",
      "midi": 77,
      "start": 19.688,
      "duration": 0.156,
      "velocity": 0.71
    },
    {
      "id": "n-00306",
      "pitch": "G2",
      "midi": 43,
      "start": 19.844,
      "duration": 0.156,
      "velocity": 0.71
    },
    {
      "id": "n-00307",
      "pitch": "G2",
      "midi": 43,
      "start": 19.844,
      "duration": 0.156,
      "velocity": 0.71
    },
    {
      "id": "n-00308",
      "pitch": "G3",
      "midi": 55,
      "start": 19.844,
      "duration": 0.156,
      "velocity": 0.71
    },
    {
      "id": "n-00309",
      "pitch": "G4",
      "midi": 67,
      "start": 19.844,
      "duration": 0.156,
      "velocity": 0.71
    },
    {
      "id": "n-00310",
      "pitch": "D5",
      "midi": 74,
      "start": 19.844,
      "duration": 0.156,
      "velocity": 0.71
    },
    {
      "id": "n-00311",
      "pitch": "F5",
      "midi": 77,
      "start": 19.844,
      "duration": 0.156,
      "velocity": 0.71
    },
    {
      "id": "n-00312",
      "pitch": "C3",
      "midi": 48,
      "start": 20,
      "duration": 0.313,
      "velocity": 0.71
    },
    {
      "id": "n-00313",
      "pitch": "C3",
      "midi": 48,
      "start": 20,
      "duration": 0.313,
      "velocity": 0.71
    },
    {
      "id": "n-00314",
      "pitch": "G3",
      "midi": 55,
      "start": 20,
      "duration": 0.313,
      "velocity": 0.71
    },
    {
      "id": "n-00315",
      "pitch": "C4",
      "midi": 60,
      "start": 20,
      "duration": 0.156,
      "velocity": 0.71
    },
    {
      "id": "n-00316",
      "pitch": "D#4",
      "midi": 63,
      "start": 20,
      "duration": 0.156,
      "velocity": 0.71
    },
    {
      "id": "n-00317",
      "pitch": "G4",
      "midi": 67,
      "start": 20,
      "duration": 0.313,
      "velocity": 0.71
    },
    {
      "id": "n-00318",
      "pitch": "C5",
      "midi": 72,
      "start": 20,
      "duration": 0.313,
      "velocity": 0.71
    },
    {
      "id": "n-00319",
      "pitch": "D#5",
      "midi": 75,
      "start": 20,
      "duration": 0.313,
      "velocity": 0.71
    },
    {
      "id": "n-00320",
      "pitch": "D#4",
      "midi": 63,
      "start": 20.156,
      "duration": 0.156,
      "velocity": 0.71
    },
    {
      "id": "n-00321",
      "pitch": "G4",
      "midi": 67,
      "start": 20.156,
      "duration": 0.156,
      "velocity": 0.71
    },
    {
      "id": "n-00322",
      "pitch": "G4",
      "midi": 67,
      "start": 20.156,
      "duration": 0.156,
      "velocity": 0.71
    },
    {
      "id": "n-00323",
      "pitch": "D#4",
      "midi": 63,
      "start": 20.313,
      "duration": 0.156,
      "velocity": 0.71
    },
    {
      "id": "n-00324",
      "pitch": "G4",
      "midi": 67,
      "start": 20.313,
      "duration": 0.156,
      "velocity": 0.71
    },
    {
      "id": "n-00325",
      "pitch": "C5",
      "midi": 72,
      "start": 20.313,
      "duration": 0.156,
      "velocity": 0.71
    },
    {
      "id": "n-00326",
      "pitch": "C4",
      "midi": 60,
      "start": 20.469,
      "duration": 0.156,
      "velocity": 0.71
    },
    {
      "id": "n-00327",
      "pitch": "D#4",
      "midi": 63,
      "start": 20.469,
      "duration": 0.156,
      "velocity": 0.71
    },
    {
      "id": "n-00328",
      "pitch": "C5",
      "midi": 72,
      "start": 20.469,
      "duration": 0.156,
      "velocity": 0.71
    },
    {
      "id": "n-00329",
      "pitch": "D4",
      "midi": 62,
      "start": 20.625,
      "duration": 0.781,
      "velocity": 0.71
    },
    {
      "id": "n-00330",
      "pitch": "F4",
      "midi": 65,
      "start": 20.625,
      "duration": 0.938,
      "velocity": 0.71
    },
    {
      "id": "n-00331",
      "pitch": "F4",
      "midi": 65,
      "start": 20.625,
      "duration": 0.781,
      "velocity": 0.71
    },
    {
      "id": "n-00332",
      "pitch": "G#4",
      "midi": 68,
      "start": 20.625,
      "duration": 0.938,
      "velocity": 0.71
    },
    {
      "id": "n-00333",
      "pitch": "C5",
      "midi": 72,
      "start": 20.625,
      "duration": 0.625,
      "velocity": 0.71
    },
    {
      "id": "n-00334",
      "pitch": "C3",
      "midi": 48,
      "start": 20.781,
      "duration": 0.156,
      "velocity": 0.71
    },
    {
      "id": "n-00335",
      "pitch": "C3",
      "midi": 48,
      "start": 20.781,
      "duration": 0.156,
      "velocity": 0.71
    },
    {
      "id": "n-00336",
      "pitch": "C3",
      "midi": 48,
      "start": 20.938,
      "duration": 0.156,
      "velocity": 0.71
    },
    {
      "id": "n-00337",
      "pitch": "C3",
      "midi": 48,
      "start": 20.938,
      "duration": 0.156,
      "velocity": 0.71
    },
    {
      "id": "n-00338",
      "pitch": "C3",
      "midi": 48,
      "start": 21.094,
      "duration": 0.156,
      "velocity": 0.71
    },
    {
      "id": "n-00339",
      "pitch": "C3",
      "midi": 48,
      "start": 21.094,
      "duration": 0.156,
      "velocity": 0.71
    },
    {
      "id": "n-00340",
      "pitch": "C3",
      "midi": 48,
      "start": 21.25,
      "duration": 0.313,
      "velocity": 0.71
    },
    {
      "id": "n-00341",
      "pitch": "C3",
      "midi": 48,
      "start": 21.25,
      "duration": 0.313,
      "velocity": 0.71
    },
    {
      "id": "n-00342",
      "pitch": "B4",
      "midi": 71,
      "start": 21.25,
      "duration": 0.156,
      "velocity": 0.71
    },
    {
      "id": "n-00343",
      "pitch": "F4",
      "midi": 65,
      "start": 21.406,
      "duration": 0.156,
      "velocity": 0.71
    },
    {
      "id": "n-00344",
      "pitch": "G#4",
      "midi": 68,
      "start": 21.406,
      "duration": 0.156,
      "velocity": 0.71
    },
    {
      "id": "n-00345",
      "pitch": "B4",
      "midi": 71,
      "start": 21.406,
      "duration": 0.156,
      "velocity": 0.71
    },
    {
      "id": "n-00346",
      "pitch": "F4",
      "midi": 65,
      "start": 21.563,
      "duration": 0.156,
      "velocity": 0.71
    },
    {
      "id": "n-00347",
      "pitch": "G#4",
      "midi": 68,
      "start": 21.563,
      "duration": 0.156,
      "velocity": 0.71
    },
    {
      "id": "n-00348",
      "pitch": "B4",
      "midi": 71,
      "start": 21.563,
      "duration": 0.156,
      "velocity": 0.71
    },
    {
      "id": "n-00349",
      "pitch": "D4",
      "midi": 62,
      "start": 21.719,
      "duration": 0.156,
      "velocity": 0.71
    },
    {
      "id": "n-00350",
      "pitch": "F4",
      "midi": 65,
      "start": 21.719,
      "duration": 0.156,
      "velocity": 0.71
    },
    {
      "id": "n-00351",
      "pitch": "D5",
      "midi": 74,
      "start": 21.719,
      "duration": 0.156,
      "velocity": 0.71
    },
    {
      "id": "n-00352",
      "pitch": "D#4",
      "midi": 63,
      "start": 21.875,
      "duration": 0.938,
      "velocity": 0.71
    },
    {
      "id": "n-00353",
      "pitch": "D#4",
      "midi": 63,
      "start": 21.875,
      "duration": 0.781,
      "velocity": 0.71
    },
    {
      "id": "n-00354",
      "pitch": "G4",
      "midi": 67,
      "start": 21.875,
      "duration": 0.938,
      "velocity": 0.71
    },
    {
      "id": "n-00355",
      "pitch": "G4",
      "midi": 67,
      "start": 21.875,
      "duration": 0.781,
      "velocity": 0.71
    },
    {
      "id": "n-00356",
      "pitch": "D5",
      "midi": 74,
      "start": 21.875,
      "duration": 0.625,
      "velocity": 0.71
    },
    {
      "id": "n-00357",
      "pitch": "D#5",
      "midi": 75,
      "start": 21.875,
      "duration": 0.938,
      "velocity": 0.71
    },
    {
      "id": "n-00358",
      "pitch": "G5",
      "midi": 79,
      "start": 21.875,
      "duration": 0.938,
      "velocity": 0.71
    },
    {
      "id": "n-00359",
      "pitch": "C3",
      "midi": 48,
      "start": 22.031,
      "duration": 0.156,
      "velocity": 0.71
    },
    {
      "id": "n-00360",
      "pitch": "C3",
      "midi": 48,
      "start": 22.031,
      "duration": 0.156,
      "velocity": 0.71
    },
    {
      "id": "n-00361",
      "pitch": "C3",
      "midi": 48,
      "start": 22.188,
      "duration": 0.156,
      "velocity": 0.71
    },
    {
      "id": "n-00362",
      "pitch": "C3",
      "midi": 48,
      "start": 22.188,
      "duration": 0.156,
      "velocity": 0.71
    },
    {
      "id": "n-00363",
      "pitch": "C3",
      "midi": 48,
      "start": 22.344,
      "duration": 0.156,
      "velocity": 0.71
    },
    {
      "id": "n-00364",
      "pitch": "C3",
      "midi": 48,
      "start": 22.344,
      "duration": 0.156,
      "velocity": 0.71
    },
    {
      "id": "n-00365",
      "pitch": "C3",
      "midi": 48,
      "start": 22.5,
      "duration": 0.313,
      "velocity": 0.71
    },
    {
      "id": "n-00366",
      "pitch": "C3",
      "midi": 48,
      "start": 22.5,
      "duration": 0.313,
      "velocity": 0.71
    },
    {
      "id": "n-00367",
      "pitch": "C5",
      "midi": 72,
      "start": 22.5,
      "duration": 0.156,
      "velocity": 0.71
    },
    {
      "id": "n-00368",
      "pitch": "D#4",
      "midi": 63,
      "start": 22.656,
      "duration": 0.156,
      "velocity": 0.71
    },
    {
      "id": "n-00369",
      "pitch": "G4",
      "midi": 67,
      "start": 22.656,
      "duration": 0.156,
      "velocity": 0.71
    },
    {
      "id": "n-00370",
      "pitch": "C5",
      "midi": 72,
      "start": 22.656,
      "duration": 0.156,
      "velocity": 0.71
    },
    {
      "id": "n-00371",
      "pitch": "D#4",
      "midi": 63,
      "start": 22.813,
      "duration": 0.156,
      "velocity": 0.71
    },
    {
      "id": "n-00372",
      "pitch": "G4",
      "midi": 67,
      "start": 22.813,
      "duration": 0.156,
      "velocity": 0.71
    },
    {
      "id": "n-00373",
      "pitch": "C5",
      "midi": 72,
      "start": 22.813,
      "duration": 0.156,
      "velocity": 0.71
    },
    {
      "id": "n-00374",
      "pitch": "C4",
      "midi": 60,
      "start": 22.969,
      "duration": 0.156,
      "velocity": 0.71
    },
    {
      "id": "n-00375",
      "pitch": "D#4",
      "midi": 63,
      "start": 22.969,
      "duration": 0.156,
      "velocity": 0.71
    },
    {
      "id": "n-00376",
      "pitch": "D#5",
      "midi": 75,
      "start": 22.969,
      "duration": 0.156,
      "velocity": 0.71
    },
    {
      "id": "n-00377",
      "pitch": "C3",
      "midi": 48,
      "start": 23.125,
      "duration": 0.313,
      "velocity": 0.71
    },
    {
      "id": "n-00378",
      "pitch": "C3",
      "midi": 48,
      "start": 23.125,
      "duration": 0.313,
      "velocity": 0.71
    },
    {
      "id": "n-00379",
      "pitch": "B3",
      "midi": 59,
      "start": 23.125,
      "duration": 0.313,
      "velocity": 0.71
    },
    {
      "id": "n-00380",
      "pitch": "F4",
      "midi": 65,
      "start": 23.125,
      "duration": 0.313,
      "velocity": 0.71
    },
    {
      "id": "n-00381",
      "pitch": "F4",
      "midi": 65,
      "start": 23.125,
      "duration": 0.156,
      "velocity": 0.71
    },
    {
      "id": "n-00382",
      "pitch": "G#4",
      "midi": 68,
      "start": 23.125,
      "duration": 0.313,
      "velocity": 0.71
    },
    {
      "id": "n-00383",
      "pitch": "G#4",
      "midi": 68,
      "start": 23.125,
      "duration": 0.156,
      "velocity": 0.71
    },
    {
      "id": "n-00384",
      "pitch": "D#5",
      "midi": 75,
      "start": 23.125,
      "duration": 0.156,
      "velocity": 0.71
    },
    {
      "id": "n-00385",
      "pitch": "F5",
      "midi": 77,
      "start": 23.125,
      "duration": 0.313,
      "velocity": 0.71
    },
    {
      "id": "n-00386",
      "pitch": "G#5",
      "midi": 80,
      "start": 23.125,
      "duration": 0.313,
      "velocity": 0.71
    },
    {
      "id": "n-00387",
      "pitch": "F4",
      "midi": 65,
      "start": 23.281,
      "duration": 0.156,
      "velocity": 0.71
    },
    {
      "id": "n-00388",
      "pitch": "G#4",
      "midi": 68,
      "start": 23.281,
      "duration": 0.156,
      "velocity": 0.71
    },
    {
      "id": "n-00389",
      "pitch": "D5",
      "midi": 74,
      "start": 23.281,
      "duration": 0.156,
      "velocity": 0.71
    },
    {
      "id": "n-00390",
      "pitch": "F4",
      "midi": 65,
      "start": 23.438,
      "duration": 0.156,
      "velocity": 0.71
    },
    {
      "id": "n-00391",
      "pitch": "G#4",
      "midi": 68,
      "start": 23.438,
      "duration": 0.156,
      "velocity": 0.71
    },
    {
      "id": "n-00392",
      "pitch": "D5",
      "midi": 74,
      "start": 23.438,
      "duration": 0.156,
      "velocity": 0.71
    },
    {
      "id": "n-00393",
      "pitch": "B3",
      "midi": 59,
      "start": 23.594,
      "duration": 0.156,
      "velocity": 0.71
    },
    {
      "id": "n-00394",
      "pitch": "F4",
      "midi": 65,
      "start": 23.594,
      "duration": 0.156,
      "velocity": 0.71
    },
    {
      "id": "n-00395",
      "pitch": "F5",
      "midi": 77,
      "start": 23.594,
      "duration": 0.156,
      "velocity": 0.71
    },
    {
      "id": "n-00396",
      "pitch": "C3",
      "midi": 48,
      "start": 23.75,
      "duration": 0.313,
      "velocity": 0.71
    },
    {
      "id": "n-00397",
      "pitch": "C3",
      "midi": 48,
      "start": 23.75,
      "duration": 0.313,
      "velocity": 0.71
    },
    {
      "id": "n-00398",
      "pitch": "C3",
      "midi": 48,
      "start": 23.75,
      "duration": 0.313,
      "velocity": 0.71
    },
    {
      "id": "n-00399",
      "pitch": "A#3",
      "midi": 58,
      "start": 23.75,
      "duration": 0.313,
      "velocity": 0.71
    },
    {
      "id": "n-00400",
      "pitch": "E4",
      "midi": 64,
      "start": 23.75,
      "duration": 0.313,
      "velocity": 0.71
    },
    {
      "id": "n-00401",
      "pitch": "G4",
      "midi": 67,
      "start": 23.75,
      "duration": 0.313,
      "velocity": 0.71
    },
    {
      "id": "n-00402",
      "pitch": "G4",
      "midi": 67,
      "start": 23.75,
      "duration": 0.156,
      "velocity": 0.71
    },
    {
      "id": "n-00403",
      "pitch": "A#4",
      "midi": 70,
      "start": 23.75,
      "duration": 0.156,
      "velocity": 0.71
    },
    {
      "id": "n-00404",
      "pitch": "E5",
      "midi": 76,
      "start": 23.75,
      "duration": 0.313,
      "velocity": 0.71
    },
    {
      "id": "n-00405",
      "pitch": "F5",
      "midi": 77,
      "start": 23.75,
      "duration": 0.156,
      "velocity": 0.71
    },
    {
      "id": "n-00406",
      "pitch": "G5",
      "midi": 79,
      "start": 23.75,
      "duration": 0.313,
      "velocity": 0.71
    },
    {
      "id": "n-00407",
      "pitch": "C6",
      "midi": 84,
      "start": 23.75,
      "duration": 0.313,
      "velocity": 0.71
    },
    {
      "id": "n-00408",
      "pitch": "G4",
      "midi": 67,
      "start": 23.906,
      "duration": 0.156,
      "velocity": 0.71
    },
    {
      "id": "n-00409",
      "pitch": "A#4",
      "midi": 70,
      "start": 23.906,
      "duration": 0.156,
      "velocity": 0.71
    },
    {
      "id": "n-00410",
      "pitch": "E5",
      "midi": 76,
      "start": 23.906,
      "duration": 0.156,
      "velocity": 0.71
    },
    {
      "id": "n-00411",
      "pitch": "G4",
      "midi": 67,
      "start": 24.063,
      "duration": 0.156,
      "velocity": 0.71
    },
    {
      "id": "n-00412",
      "pitch": "A#4",
      "midi": 70,
      "start": 24.063,
      "duration": 0.156,
      "velocity": 0.71
    },
    {
      "id": "n-00413",
      "pitch": "E5",
      "midi": 76,
      "start": 24.063,
      "duration": 0.156,
      "velocity": 0.71
    },
    {
      "id": "n-00414",
      "pitch": "A#3",
      "midi": 58,
      "start": 24.219,
      "duration": 0.156,
      "velocity": 0.71
    },
    {
      "id": "n-00415",
      "pitch": "G4",
      "midi": 67,
      "start": 24.219,
      "duration": 0.156,
      "velocity": 0.71
    },
    {
      "id": "n-00416",
      "pitch": "G5",
      "midi": 79,
      "start": 24.219,
      "duration": 0.156,
      "velocity": 0.71
    },
    {
      "id": "n-00417",
      "pitch": "C3",
      "midi": 48,
      "start": 24.375,
      "duration": 0.313,
      "velocity": 0.71
    },
    {
      "id": "n-00418",
      "pitch": "C3",
      "midi": 48,
      "start": 24.375,
      "duration": 0.313,
      "velocity": 0.71
    },
    {
      "id": "n-00419",
      "pitch": "C3",
      "midi": 48,
      "start": 24.375,
      "duration": 0.313,
      "velocity": 0.71
    },
    {
      "id": "n-00420",
      "pitch": "G#3",
      "midi": 56,
      "start": 24.375,
      "duration": 0.313,
      "velocity": 0.71
    },
    {
      "id": "n-00421",
      "pitch": "F4",
      "midi": 65,
      "start": 24.375,
      "duration": 0.313,
      "velocity": 0.71
    },
    {
      "id": "n-00422",
      "pitch": "G#4",
      "midi": 68,
      "start": 24.375,
      "duration": 0.313,
      "velocity": 0.71
    },
    {
      "id": "n-00423",
      "pitch": "G#4",
      "midi": 68,
      "start": 24.375,
      "duration": 0.156,
      "velocity": 0.71
    },
    {
      "id": "n-00424",
      "pitch": "C5",
      "midi": 72,
      "start": 24.375,
      "duration": 0.156,
      "velocity": 0.71
    },
    {
      "id": "n-00425",
      "pitch": "F5",
      "midi": 77,
      "start": 24.375,
      "duration": 0.313,
      "velocity": 0.71
    },
    {
      "id": "n-00426",
      "pitch": "G5",
      "midi": 79,
      "start": 24.375,
      "duration": 0.156,
      "velocity": 0.71
    },
    {
      "id": "n-00427",
      "pitch": "G#5",
      "midi": 80,
      "start": 24.375,
      "duration": 0.313,
      "velocity": 0.71
    },
    {
      "id": "n-00428",
      "pitch": "C6",
      "midi": 84,
      "start": 24.375,
      "duration": 0.313,
      "velocity": 0.71
    },
    {
      "id": "n-00429",
      "pitch": "G#3",
      "midi": 56,
      "start": 24.531,
      "duration": 0.156,
      "velocity": 0.71
    },
    {
      "id": "n-00430",
      "pitch": "C4",
      "midi": 60,
      "start": 24.531,
      "duration": 0.156,
      "velocity": 0.71
    },
    {
      "id": "n-00431",
      "pitch": "F5",
      "midi": 77,
      "start": 24.531,
      "duration": 0.156,
      "velocity": 0.71
    },
    {
      "id": "n-00432",
      "pitch": "G#3",
      "midi": 56,
      "start": 24.688,
      "duration": 0.156,
      "velocity": 0.71
    },
    {
      "id": "n-00433",
      "pitch": "C4",
      "midi": 60,
      "start": 24.688,
      "duration": 0.156,
      "velocity": 0.71
    },
    {
      "id": "n-00434",
      "pitch": "F5",
      "midi": 77,
      "start": 24.688,
      "duration": 0.156,
      "velocity": 0.71
    },
    {
      "id": "n-00435",
      "pitch": "F3",
      "midi": 53,
      "start": 24.844,
      "duration": 0.156,
      "velocity": 0.71
    },
    {
      "id": "n-00436",
      "pitch": "G#3",
      "midi": 56,
      "start": 24.844,
      "duration": 0.156,
      "velocity": 0.71
    },
    {
      "id": "n-00437",
      "pitch": "G#5",
      "midi": 80,
      "start": 24.844,
      "duration": 0.156,
      "velocity": 0.71
    },
    {
      "id": "n-00438",
      "pitch": "C3",
      "midi": 48,
      "start": 25,
      "duration": 0.313,
      "velocity": 0.71
    },
    {
      "id": "n-00439",
      "pitch": "C3",
      "midi": 48,
      "start": 25,
      "duration": 0.313,
      "velocity": 0.71
    },
    {
      "id": "n-00440",
      "pitch": "C3",
      "midi": 48,
      "start": 25,
      "duration": 0.313,
      "velocity": 0.71
    },
    {
      "id": "n-00441",
      "pitch": "E3",
      "midi": 52,
      "start": 25,
      "duration": 0.313,
      "velocity": 0.71
    },
    {
      "id": "n-00442",
      "pitch": "A#3",
      "midi": 58,
      "start": 25,
      "duration": 0.156,
      "velocity": 0.71
    },
    {
      "id": "n-00443",
      "pitch": "E4",
      "midi": 64,
      "start": 25,
      "duration": 0.156,
      "velocity": 0.71
    },
    {
      "id": "n-00444",
      "pitch": "G4",
      "midi": 67,
      "start": 25,
      "duration": 0.313,
      "velocity": 0.71
    },
    {
      "id": "n-00445",
      "pitch": "A#4",
      "midi": 70,
      "start": 25,
      "duration": 0.313,
      "velocity": 0.71
    },
    {
      "id": "n-00446",
      "pitch": "G5",
      "midi": 79,
      "start": 25,
      "duration": 0.313,
      "velocity": 0.71
    },
    {
      "id": "n-00447",
      "pitch": "G#5",
      "midi": 80,
      "start": 25,
      "duration": 0.156,
      "velocity": 0.71
    },
    {
      "id": "n-00448",
      "pitch": "A#5",
      "midi": 82,
      "start": 25,
      "duration": 0.313,
      "velocity": 0.71
    },
    {
      "id": "n-00449",
      "pitch": "C6",
      "midi": 84,
      "start": 25,
      "duration": 0.313,
      "velocity": 0.71
    },
    {
      "id": "n-00450",
      "pitch": "A#3",
      "midi": 58,
      "start": 25.156,
      "duration": 0.156,
      "velocity": 0.71
    },
    {
      "id": "n-00451",
      "pitch": "E4",
      "midi": 64,
      "start": 25.156,
      "duration": 0.156,
      "velocity": 0.71
    },
    {
      "id": "n-00452",
      "pitch": "G5",
      "midi": 79,
      "start": 25.156,
      "duration": 0.156,
      "velocity": 0.71
    },
    {
      "id": "n-00453",
      "pitch": "A#3",
      "midi": 58,
      "start": 25.313,
      "duration": 0.156,
      "velocity": 0.71
    },
    {
      "id": "n-00454",
      "pitch": "E4",
      "midi": 64,
      "start": 25.313,
      "duration": 0.156,
      "velocity": 0.71
    },
    {
      "id": "n-00455",
      "pitch": "G5",
      "midi": 79,
      "start": 25.313,
      "duration": 0.156,
      "velocity": 0.71
    },
    {
      "id": "n-00456",
      "pitch": "G3",
      "midi": 55,
      "start": 25.469,
      "duration": 0.156,
      "velocity": 0.71
    },
    {
      "id": "n-00457",
      "pitch": "A#3",
      "midi": 58,
      "start": 25.469,
      "duration": 0.156,
      "velocity": 0.71
    },
    {
      "id": "n-00458",
      "pitch": "A#5",
      "midi": 82,
      "start": 25.469,
      "duration": 0.156,
      "velocity": 0.71
    },
    {
      "id": "n-00459",
      "pitch": "C3",
      "midi": 48,
      "start": 25.625,
      "duration": 0.313,
      "velocity": 0.71
    },
    {
      "id": "n-00460",
      "pitch": "C3",
      "midi": 48,
      "start": 25.625,
      "duration": 0.313,
      "velocity": 0.71
    },
    {
      "id": "n-00461",
      "pitch": "C3",
      "midi": 48,
      "start": 25.625,
      "duration": 0.313,
      "velocity": 0.71
    },
    {
      "id": "n-00462",
      "pitch": "F3",
      "midi": 53,
      "start": 25.625,
      "duration": 0.313,
      "velocity": 0.71
    },
    {
      "id": "n-00463",
      "pitch": "C4",
      "midi": 60,
      "start": 25.625,
      "duration": 0.156,
      "velocity": 0.71
    },
    {
      "id": "n-00464",
      "pitch": "F4",
      "midi": 65,
      "start": 25.625,
      "duration": 0.313,
      "velocity": 0.71
    },
    {
      "id": "n-00465",
      "pitch": "F4",
      "midi": 65,
      "start": 25.625,
      "duration": 0.156,
      "velocity": 0.71
    },
    {
      "id": "n-00466",
      "pitch": "G#4",
      "midi": 68,
      "start": 25.625,
      "duration": 0.313,
      "velocity": 0.71
    },
    {
      "id": "n-00467",
      "pitch": "F5",
      "midi": 77,
      "start": 25.625,
      "duration": 0.313,
      "velocity": 0.71
    },
    {
      "id": "n-00468",
      "pitch": "G#5",
      "midi": 80,
      "start": 25.625,
      "duration": 0.313,
      "velocity": 0.71
    },
    {
      "id": "n-00469",
      "pitch": "A#5",
      "midi": 82,
      "start": 25.625,
      "duration": 0.156,
      "velocity": 0.71
    },
    {
      "id": "n-00470",
      "pitch": "C6",
      "midi": 84,
      "start": 25.625,
      "duration": 0.313,
      "velocity": 0.71
    },
    {
      "id": "n-00471",
      "pitch": "C4",
      "midi": 60,
      "start": 25.781,
      "duration": 0.156,
      "velocity": 0.71
    },
    {
      "id": "n-00472",
      "pitch": "F4",
      "midi": 65,
      "start": 25.781,
      "duration": 0.156,
      "velocity": 0.71
    },
    {
      "id": "n-00473",
      "pitch": "G#5",
      "midi": 80,
      "start": 25.781,
      "duration": 0.156,
      "velocity": 0.71
    },
    {
      "id": "n-00474",
      "pitch": "C4",
      "midi": 60,
      "start": 25.938,
      "duration": 0.156,
      "velocity": 0.71
    },
    {
      "id": "n-00475",
      "pitch": "F4",
      "midi": 65,
      "start": 25.938,
      "duration": 0.156,
      "velocity": 0.71
    },
    {
      "id": "n-00476",
      "pitch": "G#5",
      "midi": 80,
      "start": 25.938,
      "duration": 0.156,
      "velocity": 0.71
    },
    {
      "id": "n-00477",
      "pitch": "G#3",
      "midi": 56,
      "start": 26.094,
      "duration": 0.156,
      "velocity": 0.71
    },
    {
      "id": "n-00478",
      "pitch": "C4",
      "midi": 60,
      "start": 26.094,
      "duration": 0.156,
      "velocity": 0.71
    },
    {
      "id": "n-00479",
      "pitch": "C6",
      "midi": 84,
      "start": 26.094,
      "duration": 0.156,
      "velocity": 0.71
    },
    {
      "id": "n-00480",
      "pitch": "C3",
      "midi": 48,
      "start": 26.25,
      "duration": 0.313,
      "velocity": 0.71
    },
    {
      "id": "n-00481",
      "pitch": "C3",
      "midi": 48,
      "start": 26.25,
      "duration": 0.313,
      "velocity": 0.71
    },
    {
      "id": "n-00482",
      "pitch": "C3",
      "midi": 48,
      "start": 26.25,
      "duration": 0.313,
      "velocity": 0.71
    },
    {
      "id": "n-00483",
      "pitch": "C3",
      "midi": 48,
      "start": 26.25,
      "duration": 0.313,
      "velocity": 0.71
    },
    {
      "id": "n-00484",
      "pitch": "C4",
      "midi": 60,
      "start": 26.25,
      "duration": 0.313,
      "velocity": 0.71
    },
    {
      "id": "n-00485",
      "pitch": "C4",
      "midi": 60,
      "start": 26.25,
      "duration": 0.313,
      "velocity": 0.71
    },
    {
      "id": "n-00486",
      "pitch": "D4",
      "midi": 62,
      "start": 26.25,
      "duration": 0.313,
      "velocity": 0.71
    },
    {
      "id": "n-00487",
      "pitch": "F4",
      "midi": 65,
      "start": 26.25,
      "duration": 0.313,
      "velocity": 0.71
    },
    {
      "id": "n-00488",
      "pitch": "F4",
      "midi": 65,
      "start": 26.25,
      "duration": 0.313,
      "velocity": 0.71
    },
    {
      "id": "n-00489",
      "pitch": "F4",
      "midi": 65,
      "start": 26.25,
      "duration": 0.156,
      "velocity": 0.71
    },
    {
      "id": "n-00490",
      "pitch": "G#4",
      "midi": 68,
      "start": 26.25,
      "duration": 0.313,
      "velocity": 0.71
    },
    {
      "id": "n-00491",
      "pitch": "G#4",
      "midi": 68,
      "start": 26.25,
      "duration": 0.156,
      "velocity": 0.71
    },
    {
      "id": "n-00492",
      "pitch": "C5",
      "midi": 72,
      "start": 26.25,
      "duration": 0.313,
      "velocity": 0.71
    },
    {
      "id": "n-00493",
      "pitch": "F5",
      "midi": 77,
      "start": 26.25,
      "duration": 0.313,
      "velocity": 0.71
    },
    {
      "id": "n-00494",
      "pitch": "G#5",
      "midi": 80,
      "start": 26.25,
      "duration": 0.313,
      "velocity": 0.71
    },
    {
      "id": "n-00495",
      "pitch": "B5",
      "midi": 83,
      "start": 26.25,
      "duration": 0.313,
      "velocity": 0.71
    },
    {
      "id": "n-00496",
      "pitch": "C6",
      "midi": 84,
      "start": 26.25,
      "duration": 0.156,
      "velocity": 0.71
    },
    {
      "id": "n-00497",
      "pitch": "D6",
      "midi": 86,
      "start": 26.25,
      "duration": 0.313,
      "velocity": 0.71
    },
    {
      "id": "n-00498",
      "pitch": "F4",
      "midi": 65,
      "start": 26.406,
      "duration": 0.156,
      "velocity": 0.71
    },
    {
      "id": "n-00499",
      "pitch": "G#4",
      "midi": 68,
      "start": 26.406,
      "duration": 0.156,
      "velocity": 0.71
    },
    {
      "id": "n-00500",
      "pitch": "B5",
      "midi": 83,
      "start": 26.406,
      "duration": 0.156,
      "velocity": 0.71
    },
    {
      "id": "n-00501",
      "pitch": "F4",
      "midi": 65,
      "start": 26.563,
      "duration": 0.156,
      "velocity": 0.71
    },
    {
      "id": "n-00502",
      "pitch": "G#4",
      "midi": 68,
      "start": 26.563,
      "duration": 0.156,
      "velocity": 0.71
    },
    {
      "id": "n-00503",
      "pitch": "B5",
      "midi": 83,
      "start": 26.563,
      "duration": 0.156,
      "velocity": 0.71
    },
    {
      "id": "n-00504",
      "pitch": "D4",
      "midi": 62,
      "start": 26.719,
      "duration": 0.156,
      "velocity": 0.71
    },
    {
      "id": "n-00505",
      "pitch": "F4",
      "midi": 65,
      "start": 26.719,
      "duration": 0.156,
      "velocity": 0.71
    },
    {
      "id": "n-00506",
      "pitch": "D6",
      "midi": 86,
      "start": 26.719,
      "duration": 0.156,
      "velocity": 0.71
    },
    {
      "id": "n-00507",
      "pitch": "C3",
      "midi": 48,
      "start": 26.875,
      "duration": 2.5,
      "velocity": 0.71
    },
    {
      "id": "n-00508",
      "pitch": "C3",
      "midi": 48,
      "start": 26.875,
      "duration": 2.031,
      "velocity": 0.71
    },
    {
      "id": "n-00509",
      "pitch": "C3",
      "midi": 48,
      "start": 26.875,
      "duration": 2.031,
      "velocity": 0.71
    },
    {
      "id": "n-00510",
      "pitch": "C3",
      "midi": 48,
      "start": 26.875,
      "duration": 0.313,
      "velocity": 0.71
    },
    {
      "id": "n-00511",
      "pitch": "D#3",
      "midi": 51,
      "start": 26.875,
      "duration": 2.5,
      "velocity": 0.71
    },
    {
      "id": "n-00512",
      "pitch": "C4",
      "midi": 60,
      "start": 26.875,
      "duration": 0.313,
      "velocity": 0.71
    },
    {
      "id": "n-00513",
      "pitch": "D#4",
      "midi": 63,
      "start": 26.875,
      "duration": 2.5,
      "velocity": 0.71
    },
    {
      "id": "n-00514",
      "pitch": "D#4",
      "midi": 63,
      "start": 26.875,
      "duration": 2.5,
      "velocity": 0.71
    },
    {
      "id": "n-00515",
      "pitch": "D#4",
      "midi": 63,
      "start": 26.875,
      "duration": 0.156,
      "velocity": 0.71
    },
    {
      "id": "n-00516",
      "pitch": "G4",
      "midi": 67,
      "start": 26.875,
      "duration": 2.5,
      "velocity": 0.71
    },
    {
      "id": "n-00517",
      "pitch": "G4",
      "midi": 67,
      "start": 26.875,
      "duration": 2.5,
      "velocity": 0.71
    },
    {
      "id": "n-00518",
      "pitch": "G4",
      "midi": 67,
      "start": 26.875,
      "duration": 0.156,
      "velocity": 0.71
    },
    {
      "id": "n-00519",
      "pitch": "C5",
      "midi": 72,
      "start": 26.875,
      "duration": 0.313,
      "velocity": 0.71
    },
    {
      "id": "n-00520",
      "pitch": "D#5",
      "midi": 75,
      "start": 26.875,
      "duration": 2.5,
      "velocity": 0.71
    },
    {
      "id": "n-00521",
      "pitch": "G5",
      "midi": 79,
      "start": 26.875,
      "duration": 2.5,
      "velocity": 0.71
    },
    {
      "id": "n-00522",
      "pitch": "C6",
      "midi": 84,
      "start": 26.875,
      "duration": 2.5,
      "velocity": 0.71
    },
    {
      "id": "n-00523",
      "pitch": "C6",
      "midi": 84,
      "start": 26.875,
      "duration": 0.156,
      "velocity": 0.71
    },
    {
      "id": "n-00524",
      "pitch": "D#6",
      "midi": 87,
      "start": 26.875,
      "duration": 2.5,
      "velocity": 0.71
    },
    {
      "id": "n-00525",
      "pitch": "C3",
      "midi": 48,
      "start": 27.031,
      "duration": 0.156,
      "velocity": 0.71
    },
    {
      "id": "n-00526",
      "pitch": "D#3",
      "midi": 51,
      "start": 27.031,
      "duration": 0.156,
      "velocity": 0.71
    },
    {
      "id": "n-00527",
      "pitch": "D#4",
      "midi": 63,
      "start": 27.031,
      "duration": 0.156,
      "velocity": 0.71
    },
    {
      "id": "n-00528",
      "pitch": "C5",
      "midi": 72,
      "start": 27.031,
      "duration": 0.156,
      "velocity": 0.71
    },
    {
      "id": "n-00529",
      "pitch": "D#6",
      "midi": 87,
      "start": 27.031,
      "duration": 0.156,
      "velocity": 0.71
    },
    {
      "id": "n-00530",
      "pitch": "C3",
      "midi": 48,
      "start": 27.188,
      "duration": 0.156,
      "velocity": 0.71
    },
    {
      "id": "n-00531",
      "pitch": "D#3",
      "midi": 51,
      "start": 27.188,
      "duration": 0.156,
      "velocity": 0.71
    },
    {
      "id": "n-00532",
      "pitch": "D#4",
      "midi": 63,
      "start": 27.188,
      "duration": 0.156,
      "velocity": 0.71
    },
    {
      "id": "n-00533",
      "pitch": "C5",
      "midi": 72,
      "start": 27.188,
      "duration": 0.156,
      "velocity": 0.71
    },
    {
      "id": "n-00534",
      "pitch": "D#6",
      "midi": 87,
      "start": 27.188,
      "duration": 0.156,
      "velocity": 0.71
    },
    {
      "id": "n-00535",
      "pitch": "C3",
      "midi": 48,
      "start": 27.344,
      "duration": 0.156,
      "velocity": 0.71
    },
    {
      "id": "n-00536",
      "pitch": "D#3",
      "midi": 51,
      "start": 27.344,
      "duration": 0.156,
      "velocity": 0.71
    },
    {
      "id": "n-00537",
      "pitch": "D#4",
      "midi": 63,
      "start": 27.344,
      "duration": 0.156,
      "velocity": 0.71
    },
    {
      "id": "n-00538",
      "pitch": "C5",
      "midi": 72,
      "start": 27.344,
      "duration": 0.156,
      "velocity": 0.71
    },
    {
      "id": "n-00539",
      "pitch": "D#6",
      "midi": 87,
      "start": 27.344,
      "duration": 0.156,
      "velocity": 0.71
    },
    {
      "id": "n-00540",
      "pitch": "C3",
      "midi": 48,
      "start": 27.5,
      "duration": 0.625,
      "velocity": 0.71
    },
    {
      "id": "n-00541",
      "pitch": "D#3",
      "midi": 51,
      "start": 27.5,
      "duration": 0.625,
      "velocity": 0.71
    },
    {
      "id": "n-00542",
      "pitch": "D#4",
      "midi": 63,
      "start": 27.5,
      "duration": 0.625,
      "velocity": 0.71
    },
    {
      "id": "n-00543",
      "pitch": "C5",
      "midi": 72,
      "start": 27.5,
      "duration": 0.625,
      "velocity": 0.71
    },
    {
      "id": "n-00544",
      "pitch": "C6",
      "midi": 84,
      "start": 27.5,
      "duration": 0.156,
      "velocity": 0.71
    },
    {
      "id": "n-00545",
      "pitch": "G5",
      "midi": 79,
      "start": 27.656,
      "duration": 0.156,
      "velocity": 0.71
    },
    {
      "id": "n-00546",
      "pitch": "G5",
      "midi": 79,
      "start": 27.813,
      "duration": 0.156,
      "velocity": 0.71
    },
    {
      "id": "n-00547",
      "pitch": "G5",
      "midi": 79,
      "start": 27.969,
      "duration": 0.156,
      "velocity": 0.71
    },
    {
      "id": "n-00548",
      "pitch": "C3",
      "midi": 48,
      "start": 28.125,
      "duration": 0.625,
      "velocity": 0.71
    },
    {
      "id": "n-00549",
      "pitch": "D#3",
      "midi": 51,
      "start": 28.125,
      "duration": 0.625,
      "velocity": 0.71
    },
    {
      "id": "n-00550",
      "pitch": "D#4",
      "midi": 63,
      "start": 28.125,
      "duration": 0.625,
      "velocity": 0.71
    },
    {
      "id": "n-00551",
      "pitch": "C5",
      "midi": 72,
      "start": 28.125,
      "duration": 0.625,
      "velocity": 0.71
    },
    {
      "id": "n-00552",
      "pitch": "D#5",
      "midi": 75,
      "start": 28.125,
      "duration": 0.156,
      "velocity": 0.71
    },
    {
      "id": "n-00553",
      "pitch": "C5",
      "midi": 72,
      "start": 28.281,
      "duration": 0.156,
      "velocity": 0.71
    },
    {
      "id": "n-00554",
      "pitch": "G4",
      "midi": 67,
      "start": 28.438,
      "duration": 0.156,
      "velocity": 0.71
    },
    {
      "id": "n-00555",
      "pitch": "G4",
      "midi": 67,
      "start": 28.594,
      "duration": 0.156,
      "velocity": 0.71
    },
    {
      "id": "n-00556",
      "pitch": "C3",
      "midi": 48,
      "start": 28.75,
      "duration": 0.625,
      "velocity": 0.71
    },
    {
      "id": "n-00557",
      "pitch": "D#3",
      "midi": 51,
      "start": 28.75,
      "duration": 0.625,
      "velocity": 0.71
    },
    {
      "id": "n-00558",
      "pitch": "D#4",
      "midi": 63,
      "start": 28.75,
      "duration": 0.625,
      "velocity": 0.71
    },
    {
      "id": "n-00559",
      "pitch": "D#4",
      "midi": 63,
      "start": 28.75,
      "duration": 0.156,
      "velocity": 0.71
    },
    {
      "id": "n-00560",
      "pitch": "C5",
      "midi": 72,
      "start": 28.75,
      "duration": 0.625,
      "velocity": 0.71
    },
    {
      "id": "n-00561",
      "pitch": "C3",
      "midi": 48,
      "start": 28.906,
      "duration": 0.156,
      "velocity": 0.71
    },
    {
      "id": "n-00562",
      "pitch": "C3",
      "midi": 48,
      "start": 28.906,
      "duration": 0.156,
      "velocity": 0.71
    },
    {
      "id": "n-00563",
      "pitch": "C4",
      "midi": 60,
      "start": 28.906,
      "duration": 0.156,
      "velocity": 0.71
    },
    {
      "id": "n-00564",
      "pitch": "C3",
      "midi": 48,
      "start": 29.063,
      "duration": 0.156,
      "velocity": 0.71
    },
    {
      "id": "n-00565",
      "pitch": "C3",
      "midi": 48,
      "start": 29.063,
      "duration": 0.156,
      "velocity": 0.71
    },
    {
      "id": "n-00566",
      "pitch": "C3",
      "midi": 48,
      "start": 29.063,
      "duration": 0.156,
      "velocity": 0.71
    },
    {
      "id": "n-00567",
      "pitch": "C4",
      "midi": 60,
      "start": 29.063,
      "duration": 0.156,
      "velocity": 0.71
    },
    {
      "id": "n-00568",
      "pitch": "C4",
      "midi": 60,
      "start": 29.063,
      "duration": 0.156,
      "velocity": 0.71
    },
    {
      "id": "n-00569",
      "pitch": "C5",
      "midi": 72,
      "start": 29.063,
      "duration": 0.156,
      "velocity": 0.71
    },
    {
      "id": "n-00570",
      "pitch": "C3",
      "midi": 48,
      "start": 29.219,
      "duration": 0.156,
      "velocity": 0.71
    },
    {
      "id": "n-00571",
      "pitch": "C3",
      "midi": 48,
      "start": 29.219,
      "duration": 0.156,
      "velocity": 0.71
    },
    {
      "id": "n-00572",
      "pitch": "C3",
      "midi": 48,
      "start": 29.219,
      "duration": 0.156,
      "velocity": 0.71
    },
    {
      "id": "n-00573",
      "pitch": "C4",
      "midi": 60,
      "start": 29.219,
      "duration": 0.156,
      "velocity": 0.71
    },
    {
      "id": "n-00574",
      "pitch": "C4",
      "midi": 60,
      "start": 29.219,
      "duration": 0.156,
      "velocity": 0.71
    },
    {
      "id": "n-00575",
      "pitch": "C5",
      "midi": 72,
      "start": 29.219,
      "duration": 0.156,
      "velocity": 0.71
    },
    {
      "id": "n-00576",
      "pitch": "G2",
      "midi": 43,
      "start": 29.375,
      "duration": 2.031,
      "velocity": 0.71
    },
    {
      "id": "n-00577",
      "pitch": "G2",
      "midi": 43,
      "start": 29.375,
      "duration": 2.031,
      "velocity": 0.71
    },
    {
      "id": "n-00578",
      "pitch": "G2",
      "midi": 43,
      "start": 29.375,
      "duration": 0.313,
      "velocity": 0.71
    },
    {
      "id": "n-00579",
      "pitch": "B2",
      "midi": 47,
      "start": 29.375,
      "duration": 2.188,
      "velocity": 0.71
    },
    {
      "id": "n-00580",
      "pitch": "D3",
      "midi": 50,
      "start": 29.375,
      "duration": 2.188,
      "velocity": 0.71
    },
    {
      "id": "n-00581",
      "pitch": "D3",
      "midi": 50,
      "start": 29.375,
      "duration": 0.625,
      "velocity": 0.71
    },
    {
      "id": "n-00582",
      "pitch": "F3",
      "midi": 53,
      "start": 29.375,
      "duration": 0.625,
      "velocity": 0.71
    },
    {
      "id": "n-00583",
      "pitch": "G3",
      "midi": 55,
      "start": 29.375,
      "duration": 0.313,
      "velocity": 0.71
    },
    {
      "id": "n-00584",
      "pitch": "B3",
      "midi": 59,
      "start": 29.375,
      "duration": 0.156,
      "velocity": 0.71
    },
    {
      "id": "n-00585",
      "pitch": "D4",
      "midi": 62,
      "start": 29.375,
      "duration": 2.188,
      "velocity": 0.71
    },
    {
      "id": "n-00586",
      "pitch": "D4",
      "midi": 62,
      "start": 29.375,
      "duration": 0.156,
      "velocity": 0.71
    },
    {
      "id": "n-00587",
      "pitch": "F4",
      "midi": 65,
      "start": 29.375,
      "duration": 2.188,
      "velocity": 0.71
    },
    {
      "id": "n-00588",
      "pitch": "F4",
      "midi": 65,
      "start": 29.375,
      "duration": 2.188,
      "velocity": 0.71
    },
    {
      "id": "n-00589",
      "pitch": "G4",
      "midi": 67,
      "start": 29.375,
      "duration": 2.188,
      "velocity": 0.71
    },
    {
      "id": "n-00590",
      "pitch": "G4",
      "midi": 67,
      "start": 29.375,
      "duration": 0.313,
      "velocity": 0.71
    },
    {
      "id": "n-00591",
      "pitch": "B4",
      "midi": 71,
      "start": 29.375,
      "duration": 0.156,
      "velocity": 0.71
    },
    {
      "id": "n-00592",
      "pitch": "F5",
      "midi": 77,
      "start": 29.375,
      "duration": 2.188,
      "velocity": 0.71
    },
    {
      "id": "n-00593",
      "pitch": "G5",
      "midi": 79,
      "start": 29.375,
      "duration": 2.188,
      "velocity": 0.71
    },
    {
      "id": "n-00594",
      "pitch": "D6",
      "midi": 86,
      "start": 29.375,
      "duration": 2.188,
      "velocity": 0.71
    },
    {
      "id": "n-00595",
      "pitch": "F6",
      "midi": 89,
      "start": 29.375,
      "duration": 2.188,
      "velocity": 0.71
    },
    {
      "id": "n-00596",
      "pitch": "F5",
      "midi": 77,
      "start": 29.531,
      "duration": 0.156,
      "velocity": 0.71
    },
    {
      "id": "n-00597",
      "pitch": "F6",
      "midi": 89,
      "start": 29.531,
      "duration": 0.156,
      "velocity": 0.71
    },
    {
      "id": "n-00598",
      "pitch": "D5",
      "midi": 74,
      "start": 29.688,
      "duration": 0.156,
      "velocity": 0.71
    },
    {
      "id": "n-00599",
      "pitch": "D6",
      "midi": 86,
      "start": 29.688,
      "duration": 0.156,
      "velocity": 0.71
    },
    {
      "id": "n-00600",
      "pitch": "D5",
      "midi": 74,
      "start": 29.844,
      "duration": 0.156,
      "velocity": 0.71
    },
    {
      "id": "n-00601",
      "pitch": "D6",
      "midi": 86,
      "start": 29.844,
      "duration": 0.156,
      "velocity": 0.71
    },
    {
      "id": "n-00602",
      "pitch": "D3",
      "midi": 50,
      "start": 30,
      "duration": 0.625,
      "velocity": 0.71
    },
    {
      "id": "n-00603",
      "pitch": "F3",
      "midi": 53,
      "start": 30,
      "duration": 0.625,
      "velocity": 0.71
    },
    {
      "id": "n-00604",
      "pitch": "B4",
      "midi": 71,
      "start": 30,
      "duration": 0.156,
      "velocity": 0.71
    },
    {
      "id": "n-00605",
      "pitch": "B5",
      "midi": 83,
      "start": 30,
      "duration": 0.156,
      "velocity": 0.71
    },
    {
      "id": "n-00606",
      "pitch": "G4",
      "midi": 67,
      "start": 30.156,
      "duration": 0.156,
      "velocity": 0.71
    },
    {
      "id": "n-00607",
      "pitch": "G5",
      "midi": 79,
      "start": 30.156,
      "duration": 0.156,
      "velocity": 0.71
    },
    {
      "id": "n-00608",
      "pitch": "F4",
      "midi": 65,
      "start": 30.313,
      "duration": 0.156,
      "velocity": 0.71
    },
    {
      "id": "n-00609",
      "pitch": "F5",
      "midi": 77,
      "start": 30.313,
      "duration": 0.156,
      "velocity": 0.71
    },
    {
      "id": "n-00610",
      "pitch": "F4",
      "midi": 65,
      "start": 30.469,
      "duration": 0.156,
      "velocity": 0.71
    },
    {
      "id": "n-00611",
      "pitch": "F5",
      "midi": 77,
      "start": 30.469,
      "duration": 0.156,
      "velocity": 0.71
    },
    {
      "id": "n-00612",
      "pitch": "D3",
      "midi": 50,
      "start": 30.625,
      "duration": 0.625,
      "velocity": 0.71
    },
    {
      "id": "n-00613",
      "pitch": "F3",
      "midi": 53,
      "start": 30.625,
      "duration": 0.625,
      "velocity": 0.71
    },
    {
      "id": "n-00614",
      "pitch": "D4",
      "midi": 62,
      "start": 30.625,
      "duration": 0.156,
      "velocity": 0.71
    },
    {
      "id": "n-00615",
      "pitch": "D5",
      "midi": 74,
      "start": 30.625,
      "duration": 0.156,
      "velocity": 0.71
    },
    {
      "id": "n-00616",
      "pitch": "B3",
      "midi": 59,
      "start": 30.781,
      "duration": 0.156,
      "velocity": 0.71
    },
    {
      "id": "n-00617",
      "pitch": "B4",
      "midi": 71,
      "start": 30.781,
      "duration": 0.156,
      "velocity": 0.71
    },
    {
      "id": "n-00618",
      "pitch": "G3",
      "midi": 55,
      "start": 30.938,
      "duration": 0.156,
      "velocity": 0.71
    },
    {
      "id": "n-00619",
      "pitch": "G4",
      "midi": 67,
      "start": 30.938,
      "duration": 0.156,
      "velocity": 0.71
    },
    {
      "id": "n-00620",
      "pitch": "F4",
      "midi": 65,
      "start": 31.094,
      "duration": 0.156,
      "velocity": 0.71
    },
    {
      "id": "n-00621",
      "pitch": "F4",
      "midi": 65,
      "start": 31.094,
      "duration": 0.156,
      "velocity": 0.71
    },
    {
      "id": "n-00622",
      "pitch": "D3",
      "midi": 50,
      "start": 31.25,
      "duration": 0.156,
      "velocity": 0.71
    },
    {
      "id": "n-00623",
      "pitch": "F3",
      "midi": 53,
      "start": 31.25,
      "duration": 0.156,
      "velocity": 0.71
    },
    {
      "id": "n-00624",
      "pitch": "D4",
      "midi": 62,
      "start": 31.25,
      "duration": 0.156,
      "velocity": 0.71
    },
    {
      "id": "n-00625",
      "pitch": "D4",
      "midi": 62,
      "start": 31.25,
      "duration": 0.156,
      "velocity": 0.71
    },
    {
      "id": "n-00626",
      "pitch": "G2",
      "midi": 43,
      "start": 31.406,
      "duration": 0.156,
      "velocity": 0.71
    },
    {
      "id": "n-00627",
      "pitch": "G2",
      "midi": 43,
      "start": 31.406,
      "duration": 0.156,
      "velocity": 0.71
    },
    {
      "id": "n-00628",
      "pitch": "D3",
      "midi": 50,
      "start": 31.406,
      "duration": 0.156,
      "velocity": 0.71
    },
    {
      "id": "n-00629",
      "pitch": "F3",
      "midi": 53,
      "start": 31.406,
      "duration": 0.156,
      "velocity": 0.71
    },
    {
      "id": "n-00630",
      "pitch": "B3",
      "midi": 59,
      "start": 31.406,
      "duration": 0.156,
      "velocity": 0.71
    },
    {
      "id": "n-00631",
      "pitch": "B3",
      "midi": 59,
      "start": 31.406,
      "duration": 0.156,
      "velocity": 0.71
    },
    {
      "id": "n-00632",
      "pitch": "C3",
      "midi": 48,
      "start": 31.563,
      "duration": 0.313,
      "velocity": 0.71
    },
    {
      "id": "n-00633",
      "pitch": "C3",
      "midi": 48,
      "start": 31.563,
      "duration": 0.156,
      "velocity": 0.71
    },
    {
      "id": "n-00634",
      "pitch": "C3",
      "midi": 48,
      "start": 31.563,
      "duration": 0.156,
      "velocity": 0.71
    },
    {
      "id": "n-00635",
      "pitch": "C3",
      "midi": 48,
      "start": 31.563,
      "duration": 0.156,
      "velocity": 0.71
    },
    {
      "id": "n-00636",
      "pitch": "C3",
      "midi": 48,
      "start": 31.563,
      "duration": 0.156,
      "velocity": 0.71
    },
    {
      "id": "n-00637",
      "pitch": "D#3",
      "midi": 51,
      "start": 31.563,
      "duration": 0.313,
      "velocity": 0.71
    },
    {
      "id": "n-00638",
      "pitch": "D#3",
      "midi": 51,
      "start": 31.563,
      "duration": 0.156,
      "velocity": 0.71
    },
    {
      "id": "n-00639",
      "pitch": "C4",
      "midi": 60,
      "start": 31.563,
      "duration": 0.313,
      "velocity": 0.71
    },
    {
      "id": "n-00640",
      "pitch": "C4",
      "midi": 60,
      "start": 31.563,
      "duration": 0.156,
      "velocity": 0.71
    },
    {
      "id": "n-00641",
      "pitch": "C4",
      "midi": 60,
      "start": 31.563,
      "duration": 0.156,
      "velocity": 0.71
    },
    {
      "id": "n-00642",
      "pitch": "C4",
      "midi": 60,
      "start": 31.563,
      "duration": 0.156,
      "velocity": 0.71
    },
    {
      "id": "n-00643",
      "pitch": "D#4",
      "midi": 63,
      "start": 31.563,
      "duration": 0.313,
      "velocity": 0.71
    },
    {
      "id": "n-00644",
      "pitch": "D#4",
      "midi": 63,
      "start": 31.563,
      "duration": 0.313,
      "velocity": 0.71
    },
    {
      "id": "n-00645",
      "pitch": "G4",
      "midi": 67,
      "start": 31.563,
      "duration": 0.313,
      "velocity": 0.71
    },
    {
      "id": "n-00646",
      "pitch": "C5",
      "midi": 72,
      "start": 31.563,
      "duration": 0.156,
      "velocity": 0.71
    },
    {
      "id": "n-00647",
      "pitch": "D#5",
      "midi": 75,
      "start": 31.563,
      "duration": 0.313,
      "velocity": 0.71
    },
    {
      "id": "n-00648",
      "pitch": "G5",
      "midi": 79,
      "start": 31.563,
      "duration": 0.313,
      "velocity": 0.71
    },
    {
      "id": "n-00649",
      "pitch": "C6",
      "midi": 84,
      "start": 31.563,
      "duration": 0.313,
      "velocity": 0.71
    },
    {
      "id": "n-00650",
      "pitch": "D#6",
      "midi": 87,
      "start": 31.563,
      "duration": 0.313,
      "velocity": 0.71
    },
    {
      "id": "n-00651",
      "pitch": "C3",
      "midi": 48,
      "start": 31.719,
      "duration": 0.156,
      "velocity": 0.71
    },
    {
      "id": "n-00652",
      "pitch": "C3",
      "midi": 48,
      "start": 31.719,
      "duration": 0.156,
      "velocity": 0.71
    },
    {
      "id": "n-00653",
      "pitch": "C3",
      "midi": 48,
      "start": 31.719,
      "duration": 0.156,
      "velocity": 0.71
    },
    {
      "id": "n-00654",
      "pitch": "C3",
      "midi": 48,
      "start": 31.719,
      "duration": 0.156,
      "velocity": 0.71
    },
    {
      "id": "n-00655",
      "pitch": "D#3",
      "midi": 51,
      "start": 31.719,
      "duration": 0.156,
      "velocity": 0.71
    },
    {
      "id": "n-00656",
      "pitch": "C4",
      "midi": 60,
      "start": 31.719,
      "duration": 0.156,
      "velocity": 0.71
    },
    {
      "id": "n-00657",
      "pitch": "C4",
      "midi": 60,
      "start": 31.719,
      "duration": 0.156,
      "velocity": 0.71
    },
    {
      "id": "n-00658",
      "pitch": "C4",
      "midi": 60,
      "start": 31.719,
      "duration": 0.156,
      "velocity": 0.71
    },
    {
      "id": "n-00659",
      "pitch": "C5",
      "midi": 72,
      "start": 31.719,
      "duration": 0.156,
      "velocity": 0.71
    },
    {
      "id": "n-00660",
      "pitch": "C3",
      "midi": 48,
      "start": 31.875,
      "duration": 0.625,
      "velocity": 0.71
    },
    {
      "id": "n-00661",
      "pitch": "C3",
      "midi": 48,
      "start": 31.875,
      "duration": 0.625,
      "velocity": 0.71
    },
    {
      "id": "n-00662",
      "pitch": "C3",
      "midi": 48,
      "start": 31.875,
      "duration": 0.625,
      "velocity": 0.71
    },
    {
      "id": "n-00663",
      "pitch": "C3",
      "midi": 48,
      "start": 31.875,
      "duration": 0.156,
      "velocity": 0.71
    },
    {
      "id": "n-00664",
      "pitch": "D#3",
      "midi": 51,
      "start": 31.875,
      "duration": 2.5,
      "velocity": 0.71
    },
    {
      "id": "n-00665",
      "pitch": "D#3",
      "midi": 51,
      "start": 31.875,
      "duration": 0.156,
      "velocity": 0.71
    },
    {
      "id": "n-00666",
      "pitch": "A3",
      "midi": 57,
      "start": 31.875,
      "duration": 2.5,
      "velocity": 0.71
    },
    {
      "id": "n-00667",
      "pitch": "C4",
      "midi": 60,
      "start": 31.875,
      "duration": 2.5,
      "velocity": 0.71
    },
    {
      "id": "n-00668",
      "pitch": "C4",
      "midi": 60,
      "start": 31.875,
      "duration": 0.156,
      "velocity": 0.71
    },
    {
      "id": "n-00669",
      "pitch": "D#4",
      "midi": 63,
      "start": 31.875,
      "duration": 2.5,
      "velocity": 0.71
    },
    {
      "id": "n-00670",
      "pitch": "F#4",
      "midi": 66,
      "start": 31.875,
      "duration": 2.5,
      "velocity": 0.71
    },
    {
      "id": "n-00671",
      "pitch": "F#4",
      "midi": 66,
      "start": 31.875,
      "duration": 2.5,
      "velocity": 0.71
    },
    {
      "id": "n-00672",
      "pitch": "C5",
      "midi": 72,
      "start": 31.875,
      "duration": 2.5,
      "velocity": 0.71
    },
    {
      "id": "n-00673",
      "pitch": "C5",
      "midi": 72,
      "start": 31.875,
      "duration": 0.156,
      "velocity": 0.71
    },
    {
      "id": "n-00674",
      "pitch": "D#5",
      "midi": 75,
      "start": 31.875,
      "duration": 2.5,
      "velocity": 0.71
    },
    {
      "id": "n-00675",
      "pitch": "D#5",
      "midi": 75,
      "start": 31.875,
      "duration": 2.5,
      "velocity": 0.71
    },
    {
      "id": "n-00676",
      "pitch": "F#5",
      "midi": 78,
      "start": 31.875,
      "duration": 2.5,
      "velocity": 0.71
    },
    {
      "id": "n-00677",
      "pitch": "C6",
      "midi": 84,
      "start": 31.875,
      "duration": 2.5,
      "velocity": 0.71
    },
    {
      "id": "n-00678",
      "pitch": "D#6",
      "midi": 87,
      "start": 31.875,
      "duration": 2.5,
      "velocity": 0.71
    },
    {
      "id": "n-00679",
      "pitch": "D#3",
      "midi": 51,
      "start": 32.031,
      "duration": 0.156,
      "velocity": 0.71
    },
    {
      "id": "n-00680",
      "pitch": "F#3",
      "midi": 54,
      "start": 32.031,
      "duration": 0.156,
      "velocity": 0.71
    },
    {
      "id": "n-00681",
      "pitch": "D#5",
      "midi": 75,
      "start": 32.031,
      "duration": 0.156,
      "velocity": 0.71
    },
    {
      "id": "n-00682",
      "pitch": "D#6",
      "midi": 87,
      "start": 32.031,
      "duration": 0.156,
      "velocity": 0.71
    },
    {
      "id": "n-00683",
      "pitch": "D#3",
      "midi": 51,
      "start": 32.188,
      "duration": 0.156,
      "velocity": 0.71
    },
    {
      "id": "n-00684",
      "pitch": "F#3",
      "midi": 54,
      "start": 32.188,
      "duration": 0.156,
      "velocity": 0.71
    },
    {
      "id": "n-00685",
      "pitch": "D#5",
      "midi": 75,
      "start": 32.188,
      "duration": 0.156,
      "velocity": 0.71
    },
    {
      "id": "n-00686",
      "pitch": "D#6",
      "midi": 87,
      "start": 32.188,
      "duration": 0.156,
      "velocity": 0.71
    },
    {
      "id": "n-00687",
      "pitch": "D#3",
      "midi": 51,
      "start": 32.344,
      "duration": 0.156,
      "velocity": 0.71
    },
    {
      "id": "n-00688",
      "pitch": "F#3",
      "midi": 54,
      "start": 32.344,
      "duration": 0.156,
      "velocity": 0.71
    },
    {
      "id": "n-00689",
      "pitch": "D#5",
      "midi": 75,
      "start": 32.344,
      "duration": 0.156,
      "velocity": 0.71
    },
    {
      "id": "n-00690",
      "pitch": "D#6",
      "midi": 87,
      "start": 32.344,
      "duration": 0.156,
      "velocity": 0.71
    },
    {
      "id": "n-00691",
      "pitch": "C3",
      "midi": 48,
      "start": 32.5,
      "duration": 0.625,
      "velocity": 0.71
    },
    {
      "id": "n-00692",
      "pitch": "C3",
      "midi": 48,
      "start": 32.5,
      "duration": 0.625,
      "velocity": 0.71
    },
    {
      "id": "n-00693",
      "pitch": "C3",
      "midi": 48,
      "start": 32.5,
      "duration": 0.625,
      "velocity": 0.71
    },
    {
      "id": "n-00694",
      "pitch": "D#3",
      "midi": 51,
      "start": 32.5,
      "duration": 0.625,
      "velocity": 0.71
    },
    {
      "id": "n-00695",
      "pitch": "F#3",
      "midi": 54,
      "start": 32.5,
      "duration": 0.625,
      "velocity": 0.71
    },
    {
      "id": "n-00696",
      "pitch": "C5",
      "midi": 72,
      "start": 32.5,
      "duration": 0.156,
      "velocity": 0.71
    },
    {
      "id": "n-00697",
      "pitch": "C6",
      "midi": 84,
      "start": 32.5,
      "duration": 0.156,
      "velocity": 0.71
    },
    {
      "id": "n-00698",
      "pitch": "A4",
      "midi": 69,
      "start": 32.656,
      "duration": 0.156,
      "velocity": 0.71
    },
    {
      "id": "n-00699",
      "pitch": "A5",
      "midi": 81,
      "start": 32.656,
      "duration": 0.156,
      "velocity": 0.71
    },
    {
      "id": "n-00700",
      "pitch": "A4",
      "midi": 69,
      "start": 32.813,
      "duration": 0.156,
      "velocity": 0.71
    },
    {
      "id": "n-00701",
      "pitch": "A5",
      "midi": 81,
      "start": 32.813,
      "duration": 0.156,
      "velocity": 0.71
    },
    {
      "id": "n-00702",
      "pitch": "A4",
      "midi": 69,
      "start": 32.969,
      "duration": 0.156,
      "velocity": 0.71
    },
    {
      "id": "n-00703",
      "pitch": "A5",
      "midi": 81,
      "start": 32.969,
      "duration": 0.156,
      "velocity": 0.71
    },
    {
      "id": "n-00704",
      "pitch": "C3",
      "midi": 48,
      "start": 33.125,
      "duration": 0.625,
      "velocity": 0.71
    },
    {
      "id": "n-00705",
      "pitch": "C3",
      "midi": 48,
      "start": 33.125,
      "duration": 0.625,
      "velocity": 0.71
    },
    {
      "id": "n-00706",
      "pitch": "C3",
      "midi": 48,
      "start": 33.125,
      "duration": 0.625,
      "velocity": 0.71
    },
    {
      "id": "n-00707",
      "pitch": "D#3",
      "midi": 51,
      "start": 33.125,
      "duration": 0.625,
      "velocity": 0.71
    },
    {
      "id": "n-00708",
      "pitch": "F#3",
      "midi": 54,
      "start": 33.125,
      "duration": 0.625,
      "velocity": 0.71
    },
    {
      "id": "n-00709",
      "pitch": "F#4",
      "midi": 66,
      "start": 33.125,
      "duration": 0.156,
      "velocity": 0.71
    },
    {
      "id": "n-00710",
      "pitch": "F#5",
      "midi": 78,
      "start": 33.125,
      "duration": 0.156,
      "velocity": 0.71
    },
    {
      "id": "n-00711",
      "pitch": "D#4",
      "midi": 63,
      "start": 33.281,
      "duration": 0.156,
      "velocity": 0.71
    },
    {
      "id": "n-00712",
      "pitch": "D#5",
      "midi": 75,
      "start": 33.281,
      "duration": 0.156,
      "velocity": 0.71
    },
    {
      "id": "n-00713",
      "pitch": "D#4",
      "midi": 63,
      "start": 33.438,
      "duration": 0.156,
      "velocity": 0.71
    },
    {
      "id": "n-00714",
      "pitch": "D#5",
      "midi": 75,
      "start": 33.438,
      "duration": 0.156,
      "velocity": 0.71
    },
    {
      "id": "n-00715",
      "pitch": "D#4",
      "midi": 63,
      "start": 33.594,
      "duration": 0.156,
      "velocity": 0.71
    },
    {
      "id": "n-00716",
      "pitch": "D#5",
      "midi": 75,
      "start": 33.594,
      "duration": 0.156,
      "velocity": 0.71
    },
    {
      "id": "n-00717",
      "pitch": "C3",
      "midi": 48,
      "start": 33.75,
      "duration": 0.625,
      "velocity": 0.71
    },
    {
      "id": "n-00718",
      "pitch": "C3",
      "midi": 48,
      "start": 33.75,
      "duration": 0.625,
      "velocity": 0.71
    },
    {
      "id": "n-00719",
      "pitch": "C3",
      "midi": 48,
      "start": 33.75,
      "duration": 0.625,
      "velocity": 0.71
    },
    {
      "id": "n-00720",
      "pitch": "D#3",
      "midi": 51,
      "start": 33.75,
      "duration": 0.625,
      "velocity": 0.71
    },
    {
      "id": "n-00721",
      "pitch": "F#3",
      "midi": 54,
      "start": 33.75,
      "duration": 0.625,
      "velocity": 0.71
    },
    {
      "id": "n-00722",
      "pitch": "C4",
      "midi": 60,
      "start": 33.75,
      "duration": 0.156,
      "velocity": 0.71
    },
    {
      "id": "n-00723",
      "pitch": "C5",
      "midi": 72,
      "start": 33.75,
      "duration": 0.156,
      "velocity": 0.71
    },
    {
      "id": "n-00724",
      "pitch": "A3",
      "midi": 57,
      "start": 33.906,
      "duration": 0.156,
      "velocity": 0.71
    },
    {
      "id": "n-00725",
      "pitch": "A3",
      "midi": 57,
      "start": 33.906,
      "duration": 0.156,
      "velocity": 0.71
    },
    {
      "id": "n-00726",
      "pitch": "A4",
      "midi": 69,
      "start": 33.906,
      "duration": 0.156,
      "velocity": 0.71
    },
    {
      "id": "n-00727",
      "pitch": "A4",
      "midi": 69,
      "start": 33.906,
      "duration": 0.156,
      "velocity": 0.71
    },
    {
      "id": "n-00728",
      "pitch": "A3",
      "midi": 57,
      "start": 34.063,
      "duration": 0.156,
      "velocity": 0.71
    },
    {
      "id": "n-00729",
      "pitch": "A3",
      "midi": 57,
      "start": 34.063,
      "duration": 0.156,
      "velocity": 0.71
    },
    {
      "id": "n-00730",
      "pitch": "A4",
      "midi": 69,
      "start": 34.063,
      "duration": 0.156,
      "velocity": 0.71
    },
    {
      "id": "n-00731",
      "pitch": "A4",
      "midi": 69,
      "start": 34.063,
      "duration": 0.156,
      "velocity": 0.71
    },
    {
      "id": "n-00732",
      "pitch": "A3",
      "midi": 57,
      "start": 34.219,
      "duration": 0.156,
      "velocity": 0.71
    },
    {
      "id": "n-00733",
      "pitch": "A3",
      "midi": 57,
      "start": 34.219,
      "duration": 0.156,
      "velocity": 0.71
    },
    {
      "id": "n-00734",
      "pitch": "A4",
      "midi": 69,
      "start": 34.219,
      "duration": 0.156,
      "velocity": 0.71
    },
    {
      "id": "n-00735",
      "pitch": "A4",
      "midi": 69,
      "start": 34.219,
      "duration": 0.156,
      "velocity": 0.71
    },
    {
      "id": "n-00736",
      "pitch": "C3",
      "midi": 48,
      "start": 34.375,
      "duration": 0.313,
      "velocity": 0.71
    },
    {
      "id": "n-00737",
      "pitch": "C3",
      "midi": 48,
      "start": 34.375,
      "duration": 0.313,
      "velocity": 0.71
    },
    {
      "id": "n-00738",
      "pitch": "C3",
      "midi": 48,
      "start": 34.375,
      "duration": 0.313,
      "velocity": 0.71
    },
    {
      "id": "n-00739",
      "pitch": "D#3",
      "midi": 51,
      "start": 34.375,
      "duration": 0.313,
      "velocity": 0.71
    },
    {
      "id": "n-00740",
      "pitch": "D#3",
      "midi": 51,
      "start": 34.375,
      "duration": 0.313,
      "velocity": 0.71
    },
    {
      "id": "n-00741",
      "pitch": "F#3",
      "midi": 54,
      "start": 34.375,
      "duration": 0.313,
      "velocity": 0.71
    },
    {
      "id": "n-00742",
      "pitch": "A3",
      "midi": 57,
      "start": 34.375,
      "duration": 0.313,
      "velocity": 0.71
    },
    {
      "id": "n-00743",
      "pitch": "A3",
      "midi": 57,
      "start": 34.375,
      "duration": 0.313,
      "velocity": 0.71
    },
    {
      "id": "n-00744",
      "pitch": "A3",
      "midi": 57,
      "start": 34.375,
      "duration": 0.313,
      "velocity": 0.71
    },
    {
      "id": "n-00745",
      "pitch": "C4",
      "midi": 60,
      "start": 34.375,
      "duration": 0.313,
      "velocity": 0.71
    },
    {
      "id": "n-00746",
      "pitch": "D#4",
      "midi": 63,
      "start": 34.375,
      "duration": 0.313,
      "velocity": 0.71
    },
    {
      "id": "n-00747",
      "pitch": "F#4",
      "midi": 66,
      "start": 34.375,
      "duration": 0.313,
      "velocity": 0.71
    },
    {
      "id": "n-00748",
      "pitch": "F#4",
      "midi": 66,
      "start": 34.375,
      "duration": 0.313,
      "velocity": 0.71
    },
    {
      "id": "n-00749",
      "pitch": "A4",
      "midi": 69,
      "start": 34.375,
      "duration": 0.313,
      "velocity": 0.71
    },
    {
      "id": "n-00750",
      "pitch": "A4",
      "midi": 69,
      "start": 34.375,
      "duration": 0.313,
      "velocity": 0.71
    },
    {
      "id": "n-00751",
      "pitch": "C5",
      "midi": 72,
      "start": 34.375,
      "duration": 0.313,
      "velocity": 0.71
    },
    {
      "id": "n-00752",
      "pitch": "D#5",
      "midi": 75,
      "start": 34.375,
      "duration": 0.313,
      "velocity": 0.71
    },
    {
      "id": "n-00753",
      "pitch": "D#5",
      "midi": 75,
      "start": 34.375,
      "duration": 0.313,
      "velocity": 0.71
    },
    {
      "id": "n-00754",
      "pitch": "F#5",
      "midi": 78,
      "start": 34.375,
      "duration": 0.313,
      "velocity": 0.71
    },
    {
      "id": "n-00755",
      "pitch": "A5",
      "midi": 81,
      "start": 34.375,
      "duration": 0.313,
      "velocity": 0.71
    },
    {
      "id": "n-00756",
      "pitch": "F#6",
      "midi": 90,
      "start": 34.375,
      "duration": 0.313,
      "velocity": 0.71
    },
    {
      "id": "n-00757",
      "pitch": "D3",
      "midi": 50,
      "start": 35.625,
      "duration": 0.313,
      "velocity": 0.71
    },
    {
      "id": "n-00758",
      "pitch": "D3",
      "midi": 50,
      "start": 35.625,
      "duration": 0.313,
      "velocity": 0.71
    },
    {
      "id": "n-00759",
      "pitch": "D3",
      "midi": 50,
      "start": 35.625,
      "duration": 0.313,
      "velocity": 0.71
    },
    {
      "id": "n-00760",
      "pitch": "F3",
      "midi": 53,
      "start": 35.625,
      "duration": 0.313,
      "velocity": 0.71
    },
    {
      "id": "n-00761",
      "pitch": "F3",
      "midi": 53,
      "start": 35.625,
      "duration": 0.313,
      "velocity": 0.71
    },
    {
      "id": "n-00762",
      "pitch": "A#3",
      "midi": 58,
      "start": 35.625,
      "duration": 0.313,
      "velocity": 0.71
    },
    {
      "id": "n-00763",
      "pitch": "A#3",
      "midi": 58,
      "start": 35.625,
      "duration": 0.313,
      "velocity": 0.71
    },
    {
      "id": "n-00764",
      "pitch": "A#3",
      "midi": 58,
      "start": 35.625,
      "duration": 0.313,
      "velocity": 0.71
    },
    {
      "id": "n-00765",
      "pitch": "F4",
      "midi": 65,
      "start": 35.625,
      "duration": 0.313,
      "velocity": 0.71
    },
    {
      "id": "n-00766",
      "pitch": "F4",
      "midi": 65,
      "start": 35.625,
      "duration": 0.313,
      "velocity": 0.71
    },
    {
      "id": "n-00767",
      "pitch": "F4",
      "midi": 65,
      "start": 35.625,
      "duration": 0.313,
      "velocity": 0.71
    },
    {
      "id": "n-00768",
      "pitch": "A#4",
      "midi": 70,
      "start": 35.625,
      "duration": 0.313,
      "velocity": 0.71
    },
    {
      "id": "n-00769",
      "pitch": "A#4",
      "midi": 70,
      "start": 35.625,
      "duration": 0.313,
      "velocity": 0.71
    },
    {
      "id": "n-00770",
      "pitch": "A#4",
      "midi": 70,
      "start": 35.625,
      "duration": 0.313,
      "velocity": 0.71
    },
    {
      "id": "n-00771",
      "pitch": "A#4",
      "midi": 70,
      "start": 35.625,
      "duration": 0.313,
      "velocity": 0.71
    },
    {
      "id": "n-00772",
      "pitch": "F5",
      "midi": 77,
      "start": 35.625,
      "duration": 0.313,
      "velocity": 0.71
    },
    {
      "id": "n-00773",
      "pitch": "A#5",
      "midi": 82,
      "start": 35.625,
      "duration": 0.313,
      "velocity": 0.71
    },
    {
      "id": "n-00774",
      "pitch": "A#4",
      "midi": 70,
      "start": 36.406,
      "duration": 0.156,
      "velocity": 0.71
    },
    {
      "id": "n-00775",
      "pitch": "A#4",
      "midi": 70,
      "start": 36.563,
      "duration": 0.156,
      "velocity": 0.71
    },
    {
      "id": "n-00776",
      "pitch": "A#4",
      "midi": 70,
      "start": 36.719,
      "duration": 0.156,
      "velocity": 0.71
    },
    {
      "id": "n-00777",
      "pitch": "D#4",
      "midi": 63,
      "start": 36.875,
      "duration": 0.625,
      "velocity": 0.71
    },
    {
      "id": "n-00778",
      "pitch": "F4",
      "midi": 65,
      "start": 37.5,
      "duration": 0.625,
      "velocity": 0.71
    },
    {
      "id": "n-00779",
      "pitch": "A#3",
      "midi": 58,
      "start": 38.125,
      "duration": 8.125,
      "velocity": 0.71
    },
    {
      "id": "n-00780",
      "pitch": "D#4",
      "midi": 63,
      "start": 38.75,
      "duration": 0.625,
      "velocity": 0.71
    },
    {
      "id": "n-00781",
      "pitch": "G4",
      "midi": 67,
      "start": 38.75,
      "duration": 0.625,
      "velocity": 0.71
    },
    {
      "id": "n-00782",
      "pitch": "A#4",
      "midi": 70,
      "start": 38.75,
      "duration": 0.313,
      "velocity": 0.71
    },
    {
      "id": "n-00783",
      "pitch": "D#5",
      "midi": 75,
      "start": 39.063,
      "duration": 0.313,
      "velocity": 0.71
    },
    {
      "id": "n-00784",
      "pitch": "F4",
      "midi": 65,
      "start": 39.375,
      "duration": 0.625,
      "velocity": 0.71
    },
    {
      "id": "n-00785",
      "pitch": "G#4",
      "midi": 68,
      "start": 39.375,
      "duration": 0.625,
      "velocity": 0.71
    },
    {
      "id": "n-00786",
      "pitch": "D5",
      "midi": 74,
      "start": 39.375,
      "duration": 0.313,
      "velocity": 0.71
    },
    {
      "id": "n-00787",
      "pitch": "D#5",
      "midi": 75,
      "start": 39.688,
      "duration": 0.313,
      "velocity": 0.71
    },
    {
      "id": "n-00788",
      "pitch": "D4",
      "midi": 62,
      "start": 40,
      "duration": 0.625,
      "velocity": 0.71
    },
    {
      "id": "n-00789",
      "pitch": "G#4",
      "midi": 68,
      "start": 40,
      "duration": 0.625,
      "velocity": 0.71
    },
    {
      "id": "n-00790",
      "pitch": "F5",
      "midi": 77,
      "start": 40,
      "duration": 0.313,
      "velocity": 0.71
    },
    {
      "id": "n-00791",
      "pitch": "A#2",
      "midi": 46,
      "start": 40.156,
      "duration": 0.156,
      "velocity": 0.71
    },
    {
      "id": "n-00792",
      "pitch": "A#2",
      "midi": 46,
      "start": 40.156,
      "duration": 0.156,
      "velocity": 0.71
    },
    {
      "id": "n-00793",
      "pitch": "A#2",
      "midi": 46,
      "start": 40.313,
      "duration": 0.156,
      "velocity": 0.71
    },
    {
      "id": "n-00794",
      "pitch": "A#2",
      "midi": 46,
      "start": 40.313,
      "duration": 0.156,
      "velocity": 0.71
    },
    {
      "id": "n-00795",
      "pitch": "C5",
      "midi": 72,
      "start": 40.313,
      "duration": 0.313,
      "velocity": 0.71
    },
    {
      "id": "n-00796",
      "pitch": "A#2",
      "midi": 46,
      "start": 40.469,
      "duration": 0.156,
      "velocity": 0.71
    },
    {
      "id": "n-00797",
      "pitch": "A#2",
      "midi": 46,
      "start": 40.469,
      "duration": 0.156,
      "velocity": 0.71
    },
    {
      "id": "n-00798",
      "pitch": "D#3",
      "midi": 51,
      "start": 40.625,
      "duration": 0.313,
      "velocity": 0.71
    },
    {
      "id": "n-00799",
      "pitch": "D#3",
      "midi": 51,
      "start": 40.625,
      "duration": 0.313,
      "velocity": 0.71
    },
    {
      "id": "n-00800",
      "pitch": "D#4",
      "midi": 63,
      "start": 40.625,
      "duration": 0.625,
      "velocity": 0.71
    },
    {
      "id": "n-00801",
      "pitch": "G4",
      "midi": 67,
      "start": 40.625,
      "duration": 0.625,
      "velocity": 0.71
    },
    {
      "id": "n-00802",
      "pitch": "C5",
      "midi": 72,
      "start": 40.625,
      "duration": 0.313,
      "velocity": 0.71
    },
    {
      "id": "n-00803",
      "pitch": "A#4",
      "midi": 70,
      "start": 40.938,
      "duration": 0.313,
      "velocity": 0.71
    },
    {
      "id": "n-00804",
      "pitch": "G3",
      "midi": 55,
      "start": 41.25,
      "duration": 0.625,
      "velocity": 0.71
    },
    {
      "id": "n-00805",
      "pitch": "A#3",
      "midi": 58,
      "start": 41.25,
      "duration": 0.625,
      "velocity": 0.71
    },
    {
      "id": "n-00806",
      "pitch": "D#4",
      "midi": 63,
      "start": 41.25,
      "duration": 0.625,
      "velocity": 0.71
    },
    {
      "id": "n-00807",
      "pitch": "G4",
      "midi": 67,
      "start": 41.25,
      "duration": 0.625,
      "velocity": 0.71
    },
    {
      "id": "n-00808",
      "pitch": "A#4",
      "midi": 70,
      "start": 41.25,
      "duration": 0.313,
      "velocity": 0.71
    },
    {
      "id": "n-00809",
      "pitch": "D#5",
      "midi": 75,
      "start": 41.563,
      "duration": 0.313,
      "velocity": 0.71
    },
    {
      "id": "n-00810",
      "pitch": "F3",
      "midi": 53,
      "start": 41.875,
      "duration": 0.625,
      "velocity": 0.71
    },
    {
      "id": "n-00811",
      "pitch": "G#3",
      "midi": 56,
      "start": 41.875,
      "duration": 0.625,
      "velocity": 0.71
    },
    {
      "id": "n-00812",
      "pitch": "F4",
      "midi": 65,
      "start": 41.875,
      "duration": 0.625,
      "velocity": 0.71
    },
    {
      "id": "n-00813",
      "pitch": "G#4",
      "midi": 68,
      "start": 41.875,
      "duration": 0.625,
      "velocity": 0.71
    },
    {
      "id": "n-00814",
      "pitch": "D5",
      "midi": 74,
      "start": 41.875,
      "duration": 0.313,
      "velocity": 0.71
    },
    {
      "id": "n-00815",
      "pitch": "D#5",
      "midi": 75,
      "start": 42.188,
      "duration": 0.313,
      "velocity": 0.71
    },
    {
      "id": "n-00816",
      "pitch": "A#2",
      "midi": 46,
      "start": 42.5,
      "duration": 0.625,
      "velocity": 0.71
    },
    {
      "id": "n-00817",
      "pitch": "F3",
      "midi": 53,
      "start": 42.5,
      "duration": 0.625,
      "velocity": 0.71
    },
    {
      "id": "n-00818",
      "pitch": "D4",
      "midi": 62,
      "start": 42.5,
      "duration": 0.625,
      "velocity": 0.71
    },
    {
      "id": "n-00819",
      "pitch": "G#4",
      "midi": 68,
      "start": 42.5,
      "duration": 0.625,
      "velocity": 0.71
    },
    {
      "id": "n-00820",
      "pitch": "F5",
      "midi": 77,
      "start": 42.5,
      "duration": 0.313,
      "velocity": 0.71
    },
    {
      "id": "n-00821",
      "pitch": "A#2",
      "midi": 46,
      "start": 42.656,
      "duration": 0.156,
      "velocity": 0.71
    },
    {
      "id": "n-00822",
      "pitch": "A#2",
      "midi": 46,
      "start": 42.656,
      "duration": 0.156,
      "velocity": 0.71
    },
    {
      "id": "n-00823",
      "pitch": "A#2",
      "midi": 46,
      "start": 42.813,
      "duration": 0.156,
      "velocity": 0.71
    },
    {
      "id": "n-00824",
      "pitch": "A#2",
      "midi": 46,
      "start": 42.813,
      "duration": 0.156,
      "velocity": 0.71
    },
    {
      "id": "n-00825",
      "pitch": "C5",
      "midi": 72,
      "start": 42.813,
      "duration": 0.313,
      "velocity": 0.71
    },
    {
      "id": "n-00826",
      "pitch": "A#2",
      "midi": 46,
      "start": 42.969,
      "duration": 0.156,
      "velocity": 0.71
    },
    {
      "id": "n-00827",
      "pitch": "A#2",
      "midi": 46,
      "start": 42.969,
      "duration": 0.156,
      "velocity": 0.71
    },
    {
      "id": "n-00828",
      "pitch": "D#3",
      "midi": 51,
      "start": 43.125,
      "duration": 0.625,
      "velocity": 0.71
    },
    {
      "id": "n-00829",
      "pitch": "D#3",
      "midi": 51,
      "start": 43.125,
      "duration": 0.313,
      "velocity": 0.71
    },
    {
      "id": "n-00830",
      "pitch": "D#3",
      "midi": 51,
      "start": 43.125,
      "duration": 0.313,
      "velocity": 0.71
    },
    {
      "id": "n-00831",
      "pitch": "G3",
      "midi": 55,
      "start": 43.125,
      "duration": 0.625,
      "velocity": 0.71
    },
    {
      "id": "n-00832",
      "pitch": "D#4",
      "midi": 63,
      "start": 43.125,
      "duration": 0.625,
      "velocity": 0.71
    },
    {
      "id": "n-00833",
      "pitch": "G4",
      "midi": 67,
      "start": 43.125,
      "duration": 0.625,
      "velocity": 0.71
    },
    {
      "id": "n-00834",
      "pitch": "C5",
      "midi": 72,
      "start": 43.125,
      "duration": 0.313,
      "velocity": 0.71
    },
    {
      "id": "n-00835",
      "pitch": "A#4",
      "midi": 70,
      "start": 43.438,
      "duration": 0.313,
      "velocity": 0.71
    },
    {
      "id": "n-00836",
      "pitch": "G3",
      "midi": 55,
      "start": 43.75,
      "duration": 0.625,
      "velocity": 0.71
    },
    {
      "id": "n-00837",
      "pitch": "A#3",
      "midi": 58,
      "start": 43.75,
      "duration": 0.625,
      "velocity": 0.71
    },
    {
      "id": "n-00838",
      "pitch": "D#4",
      "midi": 63,
      "start": 43.75,
      "duration": 0.625,
      "velocity": 0.71
    },
    {
      "id": "n-00839",
      "pitch": "G4",
      "midi": 67,
      "start": 43.75,
      "duration": 0.625,
      "velocity": 0.71
    },
    {
      "id": "n-00840",
      "pitch": "A#4",
      "midi": 70,
      "start": 43.75,
      "duration": 0.313,
      "velocity": 0.71
    },
    {
      "id": "n-00841",
      "pitch": "A#5",
      "midi": 82,
      "start": 43.75,
      "duration": 0.313,
      "velocity": 0.71
    },
    {
      "id": "n-00842",
      "pitch": "D#5",
      "midi": 75,
      "start": 44.063,
      "duration": 0.313,
      "velocity": 0.71
    },
    {
      "id": "n-00843",
      "pitch": "D#6",
      "midi": 87,
      "start": 44.063,
      "duration": 0.313,
      "velocity": 0.71
    },
    {
      "id": "n-00844",
      "pitch": "F3",
      "midi": 53,
      "start": 44.375,
      "duration": 0.625,
      "velocity": 0.71
    },
    {
      "id": "n-00845",
      "pitch": "G#3",
      "midi": 56,
      "start": 44.375,
      "duration": 0.625,
      "velocity": 0.71
    },
    {
      "id": "n-00846",
      "pitch": "F4",
      "midi": 65,
      "start": 44.375,
      "duration": 0.625,
      "velocity": 0.71
    },
    {
      "id": "n-00847",
      "pitch": "G#4",
      "midi": 68,
      "start": 44.375,
      "duration": 0.625,
      "velocity": 0.71
    },
    {
      "id": "n-00848",
      "pitch": "D5",
      "midi": 74,
      "start": 44.375,
      "duration": 0.313,
      "velocity": 0.71
    },
    {
      "id": "n-00849",
      "pitch": "D6",
      "midi": 86,
      "start": 44.375,
      "duration": 0.313,
      "velocity": 0.71
    },
    {
      "id": "n-00850",
      "pitch": "D#5",
      "midi": 75,
      "start": 44.688,
      "duration": 0.313,
      "velocity": 0.71
    },
    {
      "id": "n-00851",
      "pitch": "D#6",
      "midi": 87,
      "start": 44.688,
      "duration": 0.313,
      "velocity": 0.71
    },
    {
      "id": "n-00852",
      "pitch": "A#2",
      "midi": 46,
      "start": 45,
      "duration": 0.625,
      "velocity": 0.71
    },
    {
      "id": "n-00853",
      "pitch": "F3",
      "midi": 53,
      "start": 45,
      "duration": 0.625,
      "velocity": 0.71
    },
    {
      "id": "n-00854",
      "pitch": "D4",
      "midi": 62,
      "start": 45,
      "duration": 0.625,
      "velocity": 0.71
    },
    {
      "id": "n-00855",
      "pitch": "G#4",
      "midi": 68,
      "start": 45,
      "duration": 0.625,
      "velocity": 0.71
    },
    {
      "id": "n-00856",
      "pitch": "F5",
      "midi": 77,
      "start": 45,
      "duration": 0.313,
      "velocity": 0.71
    },
    {
      "id": "n-00857",
      "pitch": "F6",
      "midi": 89,
      "start": 45,
      "duration": 0.313,
      "velocity": 0.71
    },
    {
      "id": "n-00858",
      "pitch": "A#2",
      "midi": 46,
      "start": 45.156,
      "duration": 0.156,
      "velocity": 0.71
    },
    {
      "id": "n-00859",
      "pitch": "A#2",
      "midi": 46,
      "start": 45.156,
      "duration": 0.156,
      "velocity": 0.71
    },
    {
      "id": "n-00860",
      "pitch": "A#2",
      "midi": 46,
      "start": 45.313,
      "duration": 0.156,
      "velocity": 0.71
    },
    {
      "id": "n-00861",
      "pitch": "A#2",
      "midi": 46,
      "start": 45.313,
      "duration": 0.156,
      "velocity": 0.71
    },
    {
      "id": "n-00862",
      "pitch": "C5",
      "midi": 72,
      "start": 45.313,
      "duration": 0.313,
      "velocity": 0.71
    },
    {
      "id": "n-00863",
      "pitch": "C6",
      "midi": 84,
      "start": 45.313,
      "duration": 0.313,
      "velocity": 0.71
    },
    {
      "id": "n-00864",
      "pitch": "A#2",
      "midi": 46,
      "start": 45.469,
      "duration": 0.156,
      "velocity": 0.71
    },
    {
      "id": "n-00865",
      "pitch": "A#2",
      "midi": 46,
      "start": 45.469,
      "duration": 0.156,
      "velocity": 0.71
    },
    {
      "id": "n-00866",
      "pitch": "D#3",
      "midi": 51,
      "start": 45.625,
      "duration": 0.625,
      "velocity": 0.71
    },
    {
      "id": "n-00867",
      "pitch": "D#3",
      "midi": 51,
      "start": 45.625,
      "duration": 0.313,
      "velocity": 0.71
    },
    {
      "id": "n-00868",
      "pitch": "D#3",
      "midi": 51,
      "start": 45.625,
      "duration": 0.313,
      "velocity": 0.71
    },
    {
      "id": "n-00869",
      "pitch": "G3",
      "midi": 55,
      "start": 45.625,
      "duration": 0.625,
      "velocity": 0.71
    },
    {
      "id": "n-00870",
      "pitch": "D#4",
      "midi": 63,
      "start": 45.625,
      "duration": 0.625,
      "velocity": 0.71
    },
    {
      "id": "n-00871",
      "pitch": "G4",
      "midi": 67,
      "start": 45.625,
      "duration": 0.625,
      "velocity": 0.71
    },
    {
      "id": "n-00872",
      "pitch": "C5",
      "midi": 72,
      "start": 45.625,
      "duration": 0.313,
      "velocity": 0.71
    },
    {
      "id": "n-00873",
      "pitch": "C6",
      "midi": 84,
      "start": 45.625,
      "duration": 0.313,
      "velocity": 0.71
    },
    {
      "id": "n-00874",
      "pitch": "A#4",
      "midi": 70,
      "start": 45.938,
      "duration": 0.313,
      "velocity": 0.71
    },
    {
      "id": "n-00875",
      "pitch": "A#5",
      "midi": 82,
      "start": 45.938,
      "duration": 0.313,
      "velocity": 0.71
    },
    {
      "id": "n-00876",
      "pitch": "G3",
      "midi": 55,
      "start": 46.25,
      "duration": 0.625,
      "velocity": 0.71
    },
    {
      "id": "n-00877",
      "pitch": "A#3",
      "midi": 58,
      "start": 46.25,
      "duration": 0.625,
      "velocity": 0.71
    },
    {
      "id": "n-00878",
      "pitch": "D#4",
      "midi": 63,
      "start": 46.25,
      "duration": 0.625,
      "velocity": 0.71
    },
    {
      "id": "n-00879",
      "pitch": "G4",
      "midi": 67,
      "start": 46.25,
      "duration": 1.25,
      "velocity": 0.71
    },
    {
      "id": "n-00880",
      "pitch": "A#4",
      "midi": 70,
      "start": 46.25,
      "duration": 0.313,
      "velocity": 0.71
    },
    {
      "id": "n-00881",
      "pitch": "C5",
      "midi": 72,
      "start": 46.563,
      "duration": 0.313,
      "velocity": 0.71
    },
    {
      "id": "n-00882",
      "pitch": "E3",
      "midi": 52,
      "start": 46.875,
      "duration": 0.625,
      "velocity": 0.71
    },
    {
      "id": "n-00883",
      "pitch": "G3",
      "midi": 55,
      "start": 46.875,
      "duration": 0.625,
      "velocity": 0.71
    },
    {
      "id": "n-00884",
      "pitch": "E4",
      "midi": 64,
      "start": 46.875,
      "duration": 0.625,
      "velocity": 0.71
    },
    {
      "id": "n-00885",
      "pitch": "C#5",
      "midi": 73,
      "start": 46.875,
      "duration": 0.313,
      "velocity": 0.71
    },
    {
      "id": "n-00886",
      "pitch": "C5",
      "midi": 72,
      "start": 47.188,
      "duration": 0.313,
      "velocity": 0.71
    },
    {
      "id": "n-00887",
      "pitch": "C3",
      "midi": 48,
      "start": 47.5,
      "duration": 0.625,
      "velocity": 0.71
    },
    {
      "id": "n-00888",
      "pitch": "E3",
      "midi": 52,
      "start": 47.5,
      "duration": 0.625,
      "velocity": 0.71
    },
    {
      "id": "n-00889",
      "pitch": "E4",
      "midi": 64,
      "start": 47.5,
      "duration": 0.625,
      "velocity": 0.71
    },
    {
      "id": "n-00890",
      "pitch": "G4",
      "midi": 67,
      "start": 47.5,
      "duration": 0.625,
      "velocity": 0.71
    },
    {
      "id": "n-00891",
      "pitch": "A#4",
      "midi": 70,
      "start": 47.5,
      "duration": 0.313,
      "velocity": 0.71
    },
    {
      "id": "n-00892",
      "pitch": "C3",
      "midi": 48,
      "start": 47.656,
      "duration": 0.156,
      "velocity": 0.71
    },
    {
      "id": "n-00893",
      "pitch": "C3",
      "midi": 48,
      "start": 47.656,
      "duration": 0.156,
      "velocity": 0.71
    },
    {
      "id": "n-00894",
      "pitch": "C3",
      "midi": 48,
      "start": 47.813,
      "duration": 0.156,
      "velocity": 0.71
    },
    {
      "id": "n-00895",
      "pitch": "C3",
      "midi": 48,
      "start": 47.813,
      "duration": 0.156,
      "velocity": 0.71
    },
    {
      "id": "n-00896",
      "pitch": "C5",
      "midi": 72,
      "start": 47.813,
      "duration": 0.313,
      "velocity": 0.71
    },
    {
      "id": "n-00897",
      "pitch": "C3",
      "midi": 48,
      "start": 47.969,
      "duration": 0.156,
      "velocity": 0.71
    },
    {
      "id": "n-00898",
      "pitch": "C3",
      "midi": 48,
      "start": 47.969,
      "duration": 0.156,
      "velocity": 0.71
    },
    {
      "id": "n-00899",
      "pitch": "F3",
      "midi": 53,
      "start": 48.125,
      "duration": 0.625,
      "velocity": 0.71
    },
    {
      "id": "n-00900",
      "pitch": "F3",
      "midi": 53,
      "start": 48.125,
      "duration": 0.313,
      "velocity": 0.71
    },
    {
      "id": "n-00901",
      "pitch": "F3",
      "midi": 53,
      "start": 48.125,
      "duration": 0.313,
      "velocity": 0.71
    },
    {
      "id": "n-00902",
      "pitch": "G#3",
      "midi": 56,
      "start": 48.125,
      "duration": 0.625,
      "velocity": 0.71
    },
    {
      "id": "n-00903",
      "pitch": "C4",
      "midi": 60,
      "start": 48.125,
      "duration": 0.625,
      "velocity": 0.71
    },
    {
      "id": "n-00904",
      "pitch": "F4",
      "midi": 65,
      "start": 48.125,
      "duration": 0.625,
      "velocity": 0.71
    },
    {
      "id": "n-00905",
      "pitch": "A#4",
      "midi": 70,
      "start": 48.125,
      "duration": 0.313,
      "velocity": 0.71
    },
    {
      "id": "n-00906",
      "pitch": "G#4",
      "midi": 68,
      "start": 48.438,
      "duration": 0.313,
      "velocity": 0.71
    },
    {
      "id": "n-00907",
      "pitch": "G#3",
      "midi": 56,
      "start": 48.75,
      "duration": 0.625,
      "velocity": 0.71
    },
    {
      "id": "n-00908",
      "pitch": "C#4",
      "midi": 61,
      "start": 48.75,
      "duration": 0.625,
      "velocity": 0.71
    },
    {
      "id": "n-00909",
      "pitch": "F4",
      "midi": 65,
      "start": 48.75,
      "duration": 0.625,
      "velocity": 0.71
    },
    {
      "id": "n-00910",
      "pitch": "G#4",
      "midi": 68,
      "start": 48.75,
      "duration": 0.625,
      "velocity": 0.71
    },
    {
      "id": "n-00911",
      "pitch": "C#5",
      "midi": 73,
      "start": 48.75,
      "duration": 0.313,
      "velocity": 0.71
    },
    {
      "id": "n-00912",
      "pitch": "D#5",
      "midi": 75,
      "start": 49.063,
      "duration": 0.313,
      "velocity": 0.71
    },
    {
      "id": "n-00913",
      "pitch": "G3",
      "midi": 55,
      "start": 49.375,
      "duration": 0.625,
      "velocity": 0.71
    },
    {
      "id": "n-00914",
      "pitch": "A#3",
      "midi": 58,
      "start": 49.375,
      "duration": 0.625,
      "velocity": 0.71
    },
    {
      "id": "n-00915",
      "pitch": "G4",
      "midi": 67,
      "start": 49.375,
      "duration": 0.625,
      "velocity": 0.71
    },
    {
      "id": "n-00916",
      "pitch": "A#4",
      "midi": 70,
      "start": 49.375,
      "duration": 0.625,
      "velocity": 0.71
    },
    {
      "id": "n-00917",
      "pitch": "F5",
      "midi": 77,
      "start": 49.375,
      "duration": 0.313,
      "velocity": 0.71
    },
    {
      "id": "n-00918",
      "pitch": "D#5",
      "midi": 75,
      "start": 49.688,
      "duration": 0.313,
      "velocity": 0.71
    },
    {
      "id": "n-00919",
      "pitch": "D#3",
      "midi": 51,
      "start": 50,
      "duration": 0.625,
      "velocity": 0.71
    },
    {
      "id": "n-00920",
      "pitch": "G3",
      "midi": 55,
      "start": 50,
      "duration": 0.625,
      "velocity": 0.71
    },
    {
      "id": "n-00921",
      "pitch": "G4",
      "midi": 67,
      "start": 50,
      "duration": 0.625,
      "velocity": 0.71
    },
    {
      "id": "n-00922",
      "pitch": "A#4",
      "midi": 70,
      "start": 50,
      "duration": 0.625,
      "velocity": 0.71
    },
    {
      "id": "n-00923",
      "pitch": "C#5",
      "midi": 73,
      "start": 50,
      "duration": 0.313,
      "velocity": 0.71
    },
    {
      "id": "n-00924",
      "pitch": "D#3",
      "midi": 51,
      "start": 50.156,
      "duration": 0.156,
      "velocity": 0.71
    },
    {
      "id": "n-00925",
      "pitch": "D#3",
      "midi": 51,
      "start": 50.156,
      "duration": 0.156,
      "velocity": 0.71
    },
    {
      "id": "n-00926",
      "pitch": "D#3",
      "midi": 51,
      "start": 50.313,
      "duration": 0.156,
      "velocity": 0.71
    },
    {
      "id": "n-00927",
      "pitch": "D#3",
      "midi": 51,
      "start": 50.313,
      "duration": 0.156,
      "velocity": 0.71
    },
    {
      "id": "n-00928",
      "pitch": "D#5",
      "midi": 75,
      "start": 50.313,
      "duration": 0.313,
      "velocity": 0.71
    },
    {
      "id": "n-00929",
      "pitch": "D#3",
      "midi": 51,
      "start": 50.469,
      "duration": 0.156,
      "velocity": 0.71
    },
    {
      "id": "n-00930",
      "pitch": "D#3",
      "midi": 51,
      "start": 50.469,
      "duration": 0.156,
      "velocity": 0.71
    },
    {
      "id": "n-00931",
      "pitch": "G#3",
      "midi": 56,
      "start": 50.625,
      "duration": 0.625,
      "velocity": 0.71
    },
    {
      "id": "n-00932",
      "pitch": "G#3",
      "midi": 56,
      "start": 50.625,
      "duration": 0.313,
      "velocity": 0.71
    },
    {
      "id": "n-00933",
      "pitch": "G#3",
      "midi": 56,
      "start": 50.625,
      "duration": 0.313,
      "velocity": 0.71
    },
    {
      "id": "n-00934",
      "pitch": "C4",
      "midi": 60,
      "start": 50.625,
      "duration": 0.625,
      "velocity": 0.71
    },
    {
      "id": "n-00935",
      "pitch": "D4",
      "midi": 62,
      "start": 50.625,
      "duration": 0.625,
      "velocity": 0.71
    },
    {
      "id": "n-00936",
      "pitch": "G#4",
      "midi": 68,
      "start": 50.625,
      "duration": 0.625,
      "velocity": 0.71
    },
    {
      "id": "n-00937",
      "pitch": "C#5",
      "midi": 73,
      "start": 50.625,
      "duration": 0.313,
      "velocity": 0.71
    },
    {
      "id": "n-00938",
      "pitch": "C5",
      "midi": 72,
      "start": 50.938,
      "duration": 0.313,
      "velocity": 0.71
    },
    {
      "id": "n-00939",
      "pitch": "G#2",
      "midi": 44,
      "start": 51.25,
      "duration": 0.625,
      "velocity": 0.71
    },
    {
      "id": "n-00940",
      "pitch": "D#3",
      "midi": 51,
      "start": 51.25,
      "duration": 5.938,
      "velocity": 0.71
    },
    {
      "id": "n-00941",
      "pitch": "G#3",
      "midi": 56,
      "start": 51.25,
      "duration": 0.625,
      "velocity": 0.71
    },
    {
      "id": "n-00942",
      "pitch": "D#4",
      "midi": 63,
      "start": 51.25,
      "duration": 5.938,
      "velocity": 0.71
    },
    {
      "id": "n-00943",
      "pitch": "D#4",
      "midi": 63,
      "start": 51.25,
      "duration": 0.313,
      "velocity": 0.71
    },
    {
      "id": "n-00944",
      "pitch": "D#4",
      "midi": 63,
      "start": 51.25,
      "duration": 0.313,
      "velocity": 0.71
    },
    {
      "id": "n-00945",
      "pitch": "C5",
      "midi": 72,
      "start": 51.25,
      "duration": 1.875,
      "velocity": 0.71
    },
    {
      "id": "n-00946",
      "pitch": "D#5",
      "midi": 75,
      "start": 51.25,
      "duration": 1.875,
      "velocity": 0.71
    },
    {
      "id": "n-00947",
      "pitch": "D#5",
      "midi": 75,
      "start": 51.25,
      "duration": 0.313,
      "velocity": 0.71
    },
    {
      "id": "n-00948",
      "pitch": "F4",
      "midi": 65,
      "start": 51.563,
      "duration": 0.313,
      "velocity": 0.71
    },
    {
      "id": "n-00949",
      "pitch": "F4",
      "midi": 65,
      "start": 51.563,
      "duration": 0.313,
      "velocity": 0.71
    },
    {
      "id": "n-00950",
      "pitch": "F5",
      "midi": 77,
      "start": 51.563,
      "duration": 0.313,
      "velocity": 0.71
    },
    {
      "id": "n-00951",
      "pitch": "A2",
      "midi": 45,
      "start": 51.875,
      "duration": 1.25,
      "velocity": 0.71
    },
    {
      "id": "n-00952",
      "pitch": "A3",
      "midi": 57,
      "start": 51.875,
      "duration": 1.25,
      "velocity": 0.71
    },
    {
      "id": "n-00953",
      "pitch": "F#4",
      "midi": 66,
      "start": 51.875,
      "duration": 0.313,
      "velocity": 0.71
    },
    {
      "id": "n-00954",
      "pitch": "F#4",
      "midi": 66,
      "start": 51.875,
      "duration": 0.313,
      "velocity": 0.71
    },
    {
      "id": "n-00955",
      "pitch": "F#5",
      "midi": 78,
      "start": 51.875,
      "duration": 0.313,
      "velocity": 0.71
    },
    {
      "id": "n-00956",
      "pitch": "C6",
      "midi": 84,
      "start": 51.875,
      "duration": 1.25,
      "velocity": 0.71
    },
    {
      "id": "n-00957",
      "pitch": "A3",
      "midi": 57,
      "start": 52.031,
      "duration": 0.156,
      "velocity": 0.71
    },
    {
      "id": "n-00958",
      "pitch": "A3",
      "midi": 57,
      "start": 52.031,
      "duration": 0.156,
      "velocity": 0.71
    },
    {
      "id": "n-00959",
      "pitch": "A3",
      "midi": 57,
      "start": 52.188,
      "duration": 0.156,
      "velocity": 0.71
    },
    {
      "id": "n-00960",
      "pitch": "A3",
      "midi": 57,
      "start": 52.188,
      "duration": 0.156,
      "velocity": 0.71
    },
    {
      "id": "n-00961",
      "pitch": "F4",
      "midi": 65,
      "start": 52.188,
      "duration": 0.313,
      "velocity": 0.71
    },
    {
      "id": "n-00962",
      "pitch": "F4",
      "midi": 65,
      "start": 52.188,
      "duration": 0.313,
      "velocity": 0.71
    },
    {
      "id": "n-00963",
      "pitch": "F5",
      "midi": 77,
      "start": 52.188,
      "duration": 0.313,
      "velocity": 0.71
    },
    {
      "id": "n-00964",
      "pitch": "A3",
      "midi": 57,
      "start": 52.344,
      "duration": 0.156,
      "velocity": 0.71
    },
    {
      "id": "n-00965",
      "pitch": "A3",
      "midi": 57,
      "start": 52.344,
      "duration": 0.156,
      "velocity": 0.71
    },
    {
      "id": "n-00966",
      "pitch": "A3",
      "midi": 57,
      "start": 52.5,
      "duration": 0.313,
      "velocity": 0.71
    },
    {
      "id": "n-00967",
      "pitch": "A3",
      "midi": 57,
      "start": 52.5,
      "duration": 0.313,
      "velocity": 0.71
    },
    {
      "id": "n-00968",
      "pitch": "D#4",
      "midi": 63,
      "start": 52.5,
      "duration": 0.313,
      "velocity": 0.71
    },
    {
      "id": "n-00969",
      "pitch": "D#4",
      "midi": 63,
      "start": 52.5,
      "duration": 0.313,
      "velocity": 0.71
    },
    {
      "id": "n-00970",
      "pitch": "D#5",
      "midi": 75,
      "start": 52.5,
      "duration": 0.313,
      "velocity": 0.71
    },
    {
      "id": "n-00971",
      "pitch": "F4",
      "midi": 65,
      "start": 52.813,
      "duration": 0.313,
      "velocity": 0.71
    },
    {
      "id": "n-00972",
      "pitch": "F4",
      "midi": 65,
      "start": 52.813,
      "duration": 0.313,
      "velocity": 0.71
    },
    {
      "id": "n-00973",
      "pitch": "F5",
      "midi": 77,
      "start": 52.813,
      "duration": 0.313,
      "velocity": 0.71
    },
    {
      "id": "n-00974",
      "pitch": "A#2",
      "midi": 46,
      "start": 53.125,
      "duration": 1.25,
      "velocity": 0.71
    },
    {
      "id": "n-00975",
      "pitch": "A#3",
      "midi": 58,
      "start": 53.125,
      "duration": 1.25,
      "velocity": 0.71
    },
    {
      "id": "n-00976",
      "pitch": "F#4",
      "midi": 66,
      "start": 53.125,
      "duration": 0.313,
      "velocity": 0.71
    },
    {
      "id": "n-00977",
      "pitch": "F#4",
      "midi": 66,
      "start": 53.125,
      "duration": 0.313,
      "velocity": 0.71
    },
    {
      "id": "n-00978",
      "pitch": "A#4",
      "midi": 70,
      "start": 53.125,
      "duration": 1.25,
      "velocity": 0.71
    },
    {
      "id": "n-00979",
      "pitch": "D#5",
      "midi": 75,
      "start": 53.125,
      "duration": 1.25,
      "velocity": 0.71
    },
    {
      "id": "n-00980",
      "pitch": "F#5",
      "midi": 78,
      "start": 53.125,
      "duration": 0.313,
      "velocity": 0.71
    },
    {
      "id": "n-00981",
      "pitch": "A#5",
      "midi": 82,
      "start": 53.125,
      "duration": 1.25,
      "velocity": 0.71
    },
    {
      "id": "n-00982",
      "pitch": "A#3",
      "midi": 58,
      "start": 53.281,
      "duration": 0.156,
      "velocity": 0.71
    },
    {
      "id": "n-00983",
      "pitch": "A#3",
      "midi": 58,
      "start": 53.281,
      "duration": 0.156,
      "velocity": 0.71
    },
    {
      "id": "n-00984",
      "pitch": "A#3",
      "midi": 58,
      "start": 53.438,
      "duration": 0.156,
      "velocity": 0.71
    },
    {
      "id": "n-00985",
      "pitch": "A#3",
      "midi": 58,
      "start": 53.438,
      "duration": 0.156,
      "velocity": 0.71
    },
    {
      "id": "n-00986",
      "pitch": "F4",
      "midi": 65,
      "start": 53.438,
      "duration": 0.313,
      "velocity": 0.71
    },
    {
      "id": "n-00987",
      "pitch": "F4",
      "midi": 65,
      "start": 53.438,
      "duration": 0.313,
      "velocity": 0.71
    },
    {
      "id": "n-00988",
      "pitch": "F5",
      "midi": 77,
      "start": 53.438,
      "duration": 0.313,
      "velocity": 0.71
    },
    {
      "id": "n-00989",
      "pitch": "A#3",
      "midi": 58,
      "start": 53.594,
      "duration": 0.156,
      "velocity": 0.71
    },
    {
      "id": "n-00990",
      "pitch": "A#3",
      "midi": 58,
      "start": 53.594,
      "duration": 0.156,
      "velocity": 0.71
    },
    {
      "id": "n-00991",
      "pitch": "A#3",
      "midi": 58,
      "start": 53.75,
      "duration": 0.313,
      "velocity": 0.71
    },
    {
      "id": "n-00992",
      "pitch": "A#3",
      "midi": 58,
      "start": 53.75,
      "duration": 0.313,
      "velocity": 0.71
    },
    {
      "id": "n-00993",
      "pitch": "D#4",
      "midi": 63,
      "start": 53.75,
      "duration": 0.313,
      "velocity": 0.71
    },
    {
      "id": "n-00994",
      "pitch": "D#4",
      "midi": 63,
      "start": 53.75,
      "duration": 0.313,
      "velocity": 0.71
    },
    {
      "id": "n-00995",
      "pitch": "D#5",
      "midi": 75,
      "start": 53.75,
      "duration": 0.313,
      "velocity": 0.71
    },
    {
      "id": "n-00996",
      "pitch": "F4",
      "midi": 65,
      "start": 54.063,
      "duration": 0.313,
      "velocity": 0.71
    },
    {
      "id": "n-00997",
      "pitch": "F4",
      "midi": 65,
      "start": 54.063,
      "duration": 0.313,
      "velocity": 0.71
    },
    {
      "id": "n-00998",
      "pitch": "F5",
      "midi": 77,
      "start": 54.063,
      "duration": 0.313,
      "velocity": 0.71
    },
    {
      "id": "n-00999",
      "pitch": "B2",
      "midi": 47,
      "start": 54.375,
      "duration": 1.25,
      "velocity": 0.71
    },
    {
      "id": "n-01000",
      "pitch": "B3",
      "midi": 59,
      "start": 54.375,
      "duration": 1.25,
      "velocity": 0.71
    },
    {
      "id": "n-01001",
      "pitch": "F#4",
      "midi": 66,
      "start": 54.375,
      "duration": 0.313,
      "velocity": 0.71
    },
    {
      "id": "n-01002",
      "pitch": "F#4",
      "midi": 66,
      "start": 54.375,
      "duration": 0.313,
      "velocity": 0.71
    },
    {
      "id": "n-01003",
      "pitch": "A4",
      "midi": 69,
      "start": 54.375,
      "duration": 2.813,
      "velocity": 0.71
    },
    {
      "id": "n-01004",
      "pitch": "D#5",
      "midi": 75,
      "start": 54.375,
      "duration": 2.813,
      "velocity": 0.71
    },
    {
      "id": "n-01005",
      "pitch": "F#5",
      "midi": 78,
      "start": 54.375,
      "duration": 0.313,
      "velocity": 0.71
    },
    {
      "id": "n-01006",
      "pitch": "A5",
      "midi": 81,
      "start": 54.375,
      "duration": 2.813,
      "velocity": 0.71
    },
    {
      "id": "n-01007",
      "pitch": "B3",
      "midi": 59,
      "start": 54.531,
      "duration": 0.156,
      "velocity": 0.71
    },
    {
      "id": "n-01008",
      "pitch": "B3",
      "midi": 59,
      "start": 54.531,
      "duration": 0.156,
      "velocity": 0.71
    },
    {
      "id": "n-01009",
      "pitch": "B3",
      "midi": 59,
      "start": 54.688,
      "duration": 0.156,
      "velocity": 0.71
    },
    {
      "id": "n-01010",
      "pitch": "B3",
      "midi": 59,
      "start": 54.688,
      "duration": 0.156,
      "velocity": 0.71
    },
    {
      "id": "n-01011",
      "pitch": "F4",
      "midi": 65,
      "start": 54.688,
      "duration": 0.313,
      "velocity": 0.71
    },
    {
      "id": "n-01012",
      "pitch": "F4",
      "midi": 65,
      "start": 54.688,
      "duration": 0.313,
      "velocity": 0.71
    },
    {
      "id": "n-01013",
      "pitch": "F5",
      "midi": 77,
      "start": 54.688,
      "duration": 0.313,
      "velocity": 0.71
    },
    {
      "id": "n-01014",
      "pitch": "B3",
      "midi": 59,
      "start": 54.844,
      "duration": 0.156,
      "velocity": 0.71
    },
    {
      "id": "n-01015",
      "pitch": "B3",
      "midi": 59,
      "start": 54.844,
      "duration": 0.156,
      "velocity": 0.71
    },
    {
      "id": "n-01016",
      "pitch": "B3",
      "midi": 59,
      "start": 55,
      "duration": 0.313,
      "velocity": 0.71
    },
    {
      "id": "n-01017",
      "pitch": "B3",
      "midi": 59,
      "start": 55,
      "duration": 0.313,
      "velocity": 0.71
    },
    {
      "id": "n-01018",
      "pitch": "D#4",
      "midi": 63,
      "start": 55,
      "duration": 0.313,
      "velocity": 0.71
    },
    {
      "id": "n-01019",
      "pitch": "D#4",
      "midi": 63,
      "start": 55,
      "duration": 0.313,
      "velocity": 0.71
    },
    {
      "id": "n-01020",
      "pitch": "D#5",
      "midi": 75,
      "start": 55,
      "duration": 0.313,
      "velocity": 0.71
    },
    {
      "id": "n-01021",
      "pitch": "F4",
      "midi": 65,
      "start": 55.313,
      "duration": 0.313,
      "velocity": 0.71
    },
    {
      "id": "n-01022",
      "pitch": "F4",
      "midi": 65,
      "start": 55.313,
      "duration": 0.313,
      "velocity": 0.71
    },
    {
      "id": "n-01023",
      "pitch": "F5",
      "midi": 77,
      "start": 55.313,
      "duration": 0.313,
      "velocity": 0.71
    },
    {
      "id": "n-01024",
      "pitch": "C3",
      "midi": 48,
      "start": 55.625,
      "duration": 1.563,
      "velocity": 0.71
    },
    {
      "id": "n-01025",
      "pitch": "C4",
      "midi": 60,
      "start": 55.625,
      "duration": 1.563,
      "velocity": 0.71
    },
    {
      "id": "n-01026",
      "pitch": "F#4",
      "midi": 66,
      "start": 55.625,
      "duration": 0.313,
      "velocity": 0.71
    },
    {
      "id": "n-01027",
      "pitch": "F#4",
      "midi": 66,
      "start": 55.625,
      "duration": 0.313,
      "velocity": 0.71
    },
    {
      "id": "n-01028",
      "pitch": "F#5",
      "midi": 78,
      "start": 55.625,
      "duration": 0.313,
      "velocity": 0.71
    },
    {
      "id": "n-01029",
      "pitch": "C4",
      "midi": 60,
      "start": 55.781,
      "duration": 0.156,
      "velocity": 0.71
    },
    {
      "id": "n-01030",
      "pitch": "C4",
      "midi": 60,
      "start": 55.781,
      "duration": 0.156,
      "velocity": 0.71
    },
    {
      "id": "n-01031",
      "pitch": "C4",
      "midi": 60,
      "start": 55.938,
      "duration": 0.156,
      "velocity": 0.71
    },
    {
      "id": "n-01032",
      "pitch": "C4",
      "midi": 60,
      "start": 55.938,
      "duration": 0.156,
      "velocity": 0.71
    },
    {
      "id": "n-01033",
      "pitch": "F4",
      "midi": 65,
      "start": 55.938,
      "duration": 0.313,
      "velocity": 0.71
    },
    {
      "id": "n-01034",
      "pitch": "F4",
      "midi": 65,
      "start": 55.938,
      "duration": 0.313,
      "velocity": 0.71
    },
    {
      "id": "n-01035",
      "pitch": "F5",
      "midi": 77,
      "start": 55.938,
      "duration": 0.313,
      "velocity": 0.71
    },
    {
      "id": "n-01036",
      "pitch": "C4",
      "midi": 60,
      "start": 56.094,
      "duration": 0.156,
      "velocity": 0.71
    },
    {
      "id": "n-01037",
      "pitch": "C4",
      "midi": 60,
      "start": 56.094,
      "duration": 0.156,
      "velocity": 0.71
    },
    {
      "id": "n-01038",
      "pitch": "C4",
      "midi": 60,
      "start": 56.25,
      "duration": 0.313,
      "velocity": 0.71
    },
    {
      "id": "n-01039",
      "pitch": "C4",
      "midi": 60,
      "start": 56.25,
      "duration": 0.313,
      "velocity": 0.71
    },
    {
      "id": "n-01040",
      "pitch": "D#4",
      "midi": 63,
      "start": 56.25,
      "duration": 0.313,
      "velocity": 0.71
    },
    {
      "id": "n-01041",
      "pitch": "D#4",
      "midi": 63,
      "start": 56.25,
      "duration": 0.313,
      "velocity": 0.71
    },
    {
      "id": "n-01042",
      "pitch": "D#5",
      "midi": 75,
      "start": 56.25,
      "duration": 0.313,
      "velocity": 0.71
    },
    {
      "id": "n-01043",
      "pitch": "D#6",
      "midi": 87,
      "start": 56.25,
      "duration": 0.313,
      "velocity": 0.71
    },
    {
      "id": "n-01044",
      "pitch": "F4",
      "midi": 65,
      "start": 56.563,
      "duration": 0.313,
      "velocity": 0.71
    },
    {
      "id": "n-01045",
      "pitch": "F4",
      "midi": 65,
      "start": 56.563,
      "duration": 0.313,
      "velocity": 0.71
    },
    {
      "id": "n-01046",
      "pitch": "F5",
      "midi": 77,
      "start": 56.563,
      "duration": 0.313,
      "velocity": 0.71
    },
    {
      "id": "n-01047",
      "pitch": "F6",
      "midi": 89,
      "start": 56.563,
      "duration": 0.313,
      "velocity": 0.71
    },
    {
      "id": "n-01048",
      "pitch": "F#4",
      "midi": 66,
      "start": 56.875,
      "duration": 0.313,
      "velocity": 0.71
    },
    {
      "id": "n-01049",
      "pitch": "F#4",
      "midi": 66,
      "start": 56.875,
      "duration": 0.313,
      "velocity": 0.71
    },
    {
      "id": "n-01050",
      "pitch": "F#5",
      "midi": 78,
      "start": 56.875,
      "duration": 0.313,
      "velocity": 0.71
    },
    {
      "id": "n-01051",
      "pitch": "F#6",
      "midi": 90,
      "start": 56.875,
      "duration": 0.313,
      "velocity": 0.71
    },
    {
      "id": "n-01052",
      "pitch": "C4",
      "midi": 60,
      "start": 57.031,
      "duration": 0.156,
      "velocity": 0.71
    },
    {
      "id": "n-01053",
      "pitch": "C4",
      "midi": 60,
      "start": 57.031,
      "duration": 0.156,
      "velocity": 0.71
    },
    {
      "id": "n-01054",
      "pitch": "C3",
      "midi": 48,
      "start": 57.188,
      "duration": 0.313,
      "velocity": 0.71
    },
    {
      "id": "n-01055",
      "pitch": "D#3",
      "midi": 51,
      "start": 57.188,
      "duration": 0.313,
      "velocity": 0.71
    },
    {
      "id": "n-01056",
      "pitch": "C4",
      "midi": 60,
      "start": 57.188,
      "duration": 0.313,
      "velocity": 0.71
    },
    {
      "id": "n-01057",
      "pitch": "C4",
      "midi": 60,
      "start": 57.188,
      "duration": 0.156,
      "velocity": 0.71
    },
    {
      "id": "n-01058",
      "pitch": "C4",
      "midi": 60,
      "start": 57.188,
      "duration": 0.156,
      "velocity": 0.71
    },
    {
      "id": "n-01059",
      "pitch": "D#4",
      "midi": 63,
      "start": 57.188,
      "duration": 0.313,
      "velocity": 0.71
    },
    {
      "id": "n-01060",
      "pitch": "F4",
      "midi": 65,
      "start": 57.188,
      "duration": 0.313,
      "velocity": 0.71
    },
    {
      "id": "n-01061",
      "pitch": "F4",
      "midi": 65,
      "start": 57.188,
      "duration": 0.313,
      "velocity": 0.71
    },
    {
      "id": "n-01062",
      "pitch": "A4",
      "midi": 69,
      "start": 57.188,
      "duration": 0.313,
      "velocity": 0.71
    },
    {
      "id": "n-01063",
      "pitch": "D#5",
      "midi": 75,
      "start": 57.188,
      "duration": 0.313,
      "velocity": 0.71
    },
    {
      "id": "n-01064",
      "pitch": "F5",
      "midi": 77,
      "start": 57.188,
      "duration": 0.313,
      "velocity": 0.71
    },
    {
      "id": "n-01065",
      "pitch": "A5",
      "midi": 81,
      "start": 57.188,
      "duration": 0.313,
      "velocity": 0.71
    },
    {
      "id": "n-01066",
      "pitch": "F6",
      "midi": 89,
      "start": 57.188,
      "duration": 0.313,
      "velocity": 0.71
    },
    {
      "id": "n-01067",
      "pitch": "C4",
      "midi": 60,
      "start": 57.344,
      "duration": 0.156,
      "velocity": 0.71
    },
    {
      "id": "n-01068",
      "pitch": "C4",
      "midi": 60,
      "start": 57.344,
      "duration": 0.156,
      "velocity": 0.71
    },
    {
      "id": "n-01069",
      "pitch": "C3",
      "midi": 48,
      "start": 57.5,
      "duration": 0.313,
      "velocity": 0.71
    },
    {
      "id": "n-01070",
      "pitch": "D#3",
      "midi": 51,
      "start": 57.5,
      "duration": 0.313,
      "velocity": 0.71
    },
    {
      "id": "n-01071",
      "pitch": "C4",
      "midi": 60,
      "start": 57.5,
      "duration": 0.313,
      "velocity": 0.71
    },
    {
      "id": "n-01072",
      "pitch": "C4",
      "midi": 60,
      "start": 57.5,
      "duration": 0.313,
      "velocity": 0.71
    },
    {
      "id": "n-01073",
      "pitch": "C4",
      "midi": 60,
      "start": 57.5,
      "duration": 0.313,
      "velocity": 0.71
    },
    {
      "id": "n-01074",
      "pitch": "D#4",
      "midi": 63,
      "start": 57.5,
      "duration": 0.313,
      "velocity": 0.71
    },
    {
      "id": "n-01075",
      "pitch": "F#4",
      "midi": 66,
      "start": 57.5,
      "duration": 0.313,
      "velocity": 0.71
    },
    {
      "id": "n-01076",
      "pitch": "F#4",
      "midi": 66,
      "start": 57.5,
      "duration": 0.313,
      "velocity": 0.71
    },
    {
      "id": "n-01077",
      "pitch": "A4",
      "midi": 69,
      "start": 57.5,
      "duration": 0.313,
      "velocity": 0.71
    },
    {
      "id": "n-01078",
      "pitch": "D#5",
      "midi": 75,
      "start": 57.5,
      "duration": 0.313,
      "velocity": 0.71
    },
    {
      "id": "n-01079",
      "pitch": "F#5",
      "midi": 78,
      "start": 57.5,
      "duration": 0.313,
      "velocity": 0.71
    },
    {
      "id": "n-01080",
      "pitch": "A5",
      "midi": 81,
      "start": 57.5,
      "duration": 0.313,
      "velocity": 0.71
    },
    {
      "id": "n-01081",
      "pitch": "F#6",
      "midi": 90,
      "start": 57.5,
      "duration": 0.313,
      "velocity": 0.71
    },
    {
      "id": "n-01082",
      "pitch": "C3",
      "midi": 48,
      "start": 57.813,
      "duration": 0.313,
      "velocity": 0.71
    },
    {
      "id": "n-01083",
      "pitch": "D#3",
      "midi": 51,
      "start": 57.813,
      "duration": 0.313,
      "velocity": 0.71
    },
    {
      "id": "n-01084",
      "pitch": "C4",
      "midi": 60,
      "start": 57.813,
      "duration": 0.313,
      "velocity": 0.71
    },
    {
      "id": "n-01085",
      "pitch": "C4",
      "midi": 60,
      "start": 57.813,
      "duration": 0.313,
      "velocity": 0.71
    },
    {
      "id": "n-01086",
      "pitch": "C4",
      "midi": 60,
      "start": 57.813,
      "duration": 0.156,
      "velocity": 0.71
    },
    {
      "id": "n-01087",
      "pitch": "C4",
      "midi": 60,
      "start": 57.813,
      "duration": 0.156,
      "velocity": 0.71
    },
    {
      "id": "n-01088",
      "pitch": "D#4",
      "midi": 63,
      "start": 57.813,
      "duration": 0.313,
      "velocity": 0.71
    },
    {
      "id": "n-01089",
      "pitch": "A4",
      "midi": 69,
      "start": 57.813,
      "duration": 0.313,
      "velocity": 0.71
    },
    {
      "id": "n-01090",
      "pitch": "A4",
      "midi": 69,
      "start": 57.813,
      "duration": 0.313,
      "velocity": 0.71
    },
    {
      "id": "n-01091",
      "pitch": "D#5",
      "midi": 75,
      "start": 57.813,
      "duration": 0.313,
      "velocity": 0.71
    },
    {
      "id": "n-01092",
      "pitch": "A5",
      "midi": 81,
      "start": 57.813,
      "duration": 0.313,
      "velocity": 0.71
    },
    {
      "id": "n-01093",
      "pitch": "A5",
      "midi": 81,
      "start": 57.813,
      "duration": 0.313,
      "velocity": 0.71
    },
    {
      "id": "n-01094",
      "pitch": "G#6",
      "midi": 92,
      "start": 57.813,
      "duration": 0.313,
      "velocity": 0.71
    },
    {
      "id": "n-01095",
      "pitch": "C4",
      "midi": 60,
      "start": 57.969,
      "duration": 0.156,
      "velocity": 0.71
    },
    {
      "id": "n-01096",
      "pitch": "C4",
      "midi": 60,
      "start": 57.969,
      "duration": 0.156,
      "velocity": 0.71
    },
    {
      "id": "n-01097",
      "pitch": "D3",
      "midi": 50,
      "start": 58.125,
      "duration": 0.938,
      "velocity": 0.71
    },
    {
      "id": "n-01098",
      "pitch": "A#3",
      "midi": 58,
      "start": 58.125,
      "duration": 0.938,
      "velocity": 0.71
    },
    {
      "id": "n-01099",
      "pitch": "D4",
      "midi": 62,
      "start": 58.125,
      "duration": 0.938,
      "velocity": 0.71
    },
    {
      "id": "n-01100",
      "pitch": "D4",
      "midi": 62,
      "start": 58.125,
      "duration": 0.938,
      "velocity": 0.71
    },
    {
      "id": "n-01101",
      "pitch": "D4",
      "midi": 62,
      "start": 58.125,
      "duration": 0.938,
      "velocity": 0.71
    },
    {
      "id": "n-01102",
      "pitch": "D4",
      "midi": 62,
      "start": 58.125,
      "duration": 0.938,
      "velocity": 0.71
    },
    {
      "id": "n-01103",
      "pitch": "F4",
      "midi": 65,
      "start": 58.125,
      "duration": 0.938,
      "velocity": 0.71
    },
    {
      "id": "n-01104",
      "pitch": "G#4",
      "midi": 68,
      "start": 58.125,
      "duration": 0.938,
      "velocity": 0.71
    },
    {
      "id": "n-01105",
      "pitch": "A#4",
      "midi": 70,
      "start": 58.125,
      "duration": 0.938,
      "velocity": 0.71
    },
    {
      "id": "n-01106",
      "pitch": "A#4",
      "midi": 70,
      "start": 58.125,
      "duration": 0.781,
      "velocity": 0.71
    },
    {
      "id": "n-01107",
      "pitch": "A#4",
      "midi": 70,
      "start": 58.125,
      "duration": 0.781,
      "velocity": 0.71
    },
    {
      "id": "n-01108",
      "pitch": "F5",
      "midi": 77,
      "start": 58.125,
      "duration": 0.938,
      "velocity": 0.71
    },
    {
      "id": "n-01109",
      "pitch": "F5",
      "midi": 77,
      "start": 58.125,
      "duration": 0.938,
      "velocity": 0.71
    },
    {
      "id": "n-01110",
      "pitch": "G#5",
      "midi": 80,
      "start": 58.125,
      "duration": 0.938,
      "velocity": 0.71
    },
    {
      "id": "n-01111",
      "pitch": "A#5",
      "midi": 82,
      "start": 58.125,
      "duration": 0.938,
      "velocity": 0.71
    },
    {
      "id": "n-01112",
      "pitch": "A#5",
      "midi": 82,
      "start": 58.125,
      "duration": 0.781,
      "velocity": 0.71
    },
    {
      "id": "n-01113",
      "pitch": "A#5",
      "midi": 82,
      "start": 58.125,
      "duration": 0.781,
      "velocity": 0.71
    },
    {
      "id": "n-01114",
      "pitch": "F6",
      "midi": 89,
      "start": 58.125,
      "duration": 0.938,
      "velocity": 0.71
    },
    {
      "id": "n-01115",
      "pitch": "C6",
      "midi": 84,
      "start": 58.906,
      "duration": 0.156,
      "velocity": 0.71
    },
    {
      "id": "n-01116",
      "pitch": "C6",
      "midi": 84,
      "start": 58.906,
      "duration": 0.156,
      "velocity": 0.71
    },
    {
      "id": "n-01117",
      "pitch": "A#2",
      "midi": 46,
      "start": 59.063,
      "duration": 0.313,
      "velocity": 0.71
    },
    {
      "id": "n-01118",
      "pitch": "D3",
      "midi": 50,
      "start": 59.063,
      "duration": 0.313,
      "velocity": 0.71
    },
    {
      "id": "n-01119",
      "pitch": "D3",
      "midi": 50,
      "start": 59.063,
      "duration": 0.313,
      "velocity": 0.71
    },
    {
      "id": "n-01120",
      "pitch": "D3",
      "midi": 50,
      "start": 59.063,
      "duration": 0.313,
      "velocity": 0.71
    },
    {
      "id": "n-01121",
      "pitch": "D3",
      "midi": 50,
      "start": 59.063,
      "duration": 0.313,
      "velocity": 0.71
    },
    {
      "id": "n-01122",
      "pitch": "F3",
      "midi": 53,
      "start": 59.063,
      "duration": 0.313,
      "velocity": 0.71
    },
    {
      "id": "n-01123",
      "pitch": "A#3",
      "midi": 58,
      "start": 59.063,
      "duration": 0.313,
      "velocity": 0.71
    },
    {
      "id": "n-01124",
      "pitch": "F4",
      "midi": 65,
      "start": 59.063,
      "duration": 0.313,
      "velocity": 0.71
    },
    {
      "id": "n-01125",
      "pitch": "A#4",
      "midi": 70,
      "start": 59.063,
      "duration": 0.313,
      "velocity": 0.71
    },
    {
      "id": "n-01126",
      "pitch": "F5",
      "midi": 77,
      "start": 59.063,
      "duration": 0.313,
      "velocity": 0.71
    },
    {
      "id": "n-01127",
      "pitch": "G#5",
      "midi": 80,
      "start": 59.063,
      "duration": 0.313,
      "velocity": 0.71
    },
    {
      "id": "n-01128",
      "pitch": "A#5",
      "midi": 82,
      "start": 59.063,
      "duration": 0.313,
      "velocity": 0.71
    },
    {
      "id": "n-01129",
      "pitch": "A#5",
      "midi": 82,
      "start": 59.063,
      "duration": 0.156,
      "velocity": 0.71
    },
    {
      "id": "n-01130",
      "pitch": "A#5",
      "midi": 82,
      "start": 59.063,
      "duration": 0.156,
      "velocity": 0.71
    },
    {
      "id": "n-01131",
      "pitch": "F6",
      "midi": 89,
      "start": 59.063,
      "duration": 0.313,
      "velocity": 0.71
    },
    {
      "id": "n-01132",
      "pitch": "G#5",
      "midi": 80,
      "start": 59.219,
      "duration": 0.156,
      "velocity": 0.71
    },
    {
      "id": "n-01133",
      "pitch": "G#5",
      "midi": 80,
      "start": 59.219,
      "duration": 0.156,
      "velocity": 0.71
    },
    {
      "id": "n-01134",
      "pitch": "A#2",
      "midi": 46,
      "start": 59.375,
      "duration": 0.313,
      "velocity": 0.71
    },
    {
      "id": "n-01135",
      "pitch": "D#3",
      "midi": 51,
      "start": 59.375,
      "duration": 0.313,
      "velocity": 0.71
    },
    {
      "id": "n-01136",
      "pitch": "D#3",
      "midi": 51,
      "start": 59.375,
      "duration": 0.313,
      "velocity": 0.71
    },
    {
      "id": "n-01137",
      "pitch": "D#3",
      "midi": 51,
      "start": 59.375,
      "duration": 0.313,
      "velocity": 0.71
    },
    {
      "id": "n-01138",
      "pitch": "D#3",
      "midi": 51,
      "start": 59.375,
      "duration": 0.313,
      "velocity": 0.71
    },
    {
      "id": "n-01139",
      "pitch": "G3",
      "midi": 55,
      "start": 59.375,
      "duration": 0.313,
      "velocity": 0.71
    },
    {
      "id": "n-01140",
      "pitch": "A#3",
      "midi": 58,
      "start": 59.375,
      "duration": 0.313,
      "velocity": 0.71
    },
    {
      "id": "n-01141",
      "pitch": "G4",
      "midi": 67,
      "start": 59.375,
      "duration": 0.313,
      "velocity": 0.71
    },
    {
      "id": "n-01142",
      "pitch": "A#4",
      "midi": 70,
      "start": 59.375,
      "duration": 0.313,
      "velocity": 0.71
    },
    {
      "id": "n-01143",
      "pitch": "D#5",
      "midi": 75,
      "start": 59.375,
      "duration": 0.313,
      "velocity": 0.71
    },
    {
      "id": "n-01144",
      "pitch": "G5",
      "midi": 79,
      "start": 59.375,
      "duration": 0.313,
      "velocity": 0.71
    },
    {
      "id": "n-01145",
      "pitch": "G#5",
      "midi": 80,
      "start": 59.375,
      "duration": 0.156,
      "velocity": 0.71
    },
    {
      "id": "n-01146",
      "pitch": "G#5",
      "midi": 80,
      "start": 59.375,
      "duration": 0.156,
      "velocity": 0.71
    },
    {
      "id": "n-01147",
      "pitch": "A#5",
      "midi": 82,
      "start": 59.375,
      "duration": 0.313,
      "velocity": 0.71
    },
    {
      "id": "n-01148",
      "pitch": "G6",
      "midi": 91,
      "start": 59.375,
      "duration": 0.313,
      "velocity": 0.71
    },
    {
      "id": "n-01149",
      "pitch": "G5",
      "midi": 79,
      "start": 59.531,
      "duration": 0.156,
      "velocity": 0.71
    },
    {
      "id": "n-01150",
      "pitch": "G5",
      "midi": 79,
      "start": 59.531,
      "duration": 0.156,
      "velocity": 0.71
    },
    {
      "id": "n-01151",
      "pitch": "F5",
      "midi": 77,
      "start": 59.688,
      "duration": 0.156,
      "velocity": 0.71
    },
    {
      "id": "n-01152",
      "pitch": "F5",
      "midi": 77,
      "start": 59.688,
      "duration": 0.156,
      "velocity": 0.71
    },
    {
      "id": "n-01153",
      "pitch": "D#5",
      "midi": 75,
      "start": 59.844,
      "duration": 0.156,
      "velocity": 0.71
    },
    {
      "id": "n-01154",
      "pitch": "D#5",
      "midi": 75,
      "start": 59.844,
      "duration": 0.156,
      "velocity": 0.71
    },
    {
      "id": "n-01155",
      "pitch": "A#2",
      "midi": 46,
      "start": 60,
      "duration": 0.313,
      "velocity": 0.71
    },
    {
      "id": "n-01156",
      "pitch": "F3",
      "midi": 53,
      "start": 60,
      "duration": 0.313,
      "velocity": 0.71
    },
    {
      "id": "n-01157",
      "pitch": "F3",
      "midi": 53,
      "start": 60,
      "duration": 0.313,
      "velocity": 0.71
    },
    {
      "id": "n-01158",
      "pitch": "F3",
      "midi": 53,
      "start": 60,
      "duration": 0.313,
      "velocity": 0.71
    },
    {
      "id": "n-01159",
      "pitch": "F3",
      "midi": 53,
      "start": 60,
      "duration": 0.313,
      "velocity": 0.71
    },
    {
      "id": "n-01160",
      "pitch": "G#3",
      "midi": 56,
      "start": 60,
      "duration": 0.313,
      "velocity": 0.71
    },
    {
      "id": "n-01161",
      "pitch": "A#3",
      "midi": 58,
      "start": 60,
      "duration": 0.313,
      "velocity": 0.71
    },
    {
      "id": "n-01162",
      "pitch": "G#4",
      "midi": 68,
      "start": 60,
      "duration": 0.313,
      "velocity": 0.71
    },
    {
      "id": "n-01163",
      "pitch": "A#4",
      "midi": 70,
      "start": 60,
      "duration": 0.313,
      "velocity": 0.71
    },
    {
      "id": "n-01164",
      "pitch": "D#5",
      "midi": 75,
      "start": 60,
      "duration": 0.156,
      "velocity": 0.71
    },
    {
      "id": "n-01165",
      "pitch": "D#5",
      "midi": 75,
      "start": 60,
      "duration": 0.156,
      "velocity": 0.71
    },
    {
      "id": "n-01166",
      "pitch": "G#5",
      "midi": 80,
      "start": 60,
      "duration": 0.313,
      "velocity": 0.71
    },
    {
      "id": "n-01167",
      "pitch": "A#5",
      "midi": 82,
      "start": 60,
      "duration": 0.313,
      "velocity": 0.71
    },
    {
      "id": "n-01168",
      "pitch": "F6",
      "midi": 89,
      "start": 60,
      "duration": 0.313,
      "velocity": 0.71
    },
    {
      "id": "n-01169",
      "pitch": "D5",
      "midi": 74,
      "start": 60.156,
      "duration": 0.156,
      "velocity": 0.71
    },
    {
      "id": "n-01170",
      "pitch": "D5",
      "midi": 74,
      "start": 60.156,
      "duration": 0.156,
      "velocity": 0.71
    },
    {
      "id": "n-01171",
      "pitch": "C5",
      "midi": 72,
      "start": 60.313,
      "duration": 0.156,
      "velocity": 0.71
    },
    {
      "id": "n-01172",
      "pitch": "C5",
      "midi": 72,
      "start": 60.313,
      "duration": 0.156,
      "velocity": 0.71
    },
    {
      "id": "n-01173",
      "pitch": "D5",
      "midi": 74,
      "start": 60.469,
      "duration": 0.156,
      "velocity": 0.71
    },
    {
      "id": "n-01174",
      "pitch": "D5",
      "midi": 74,
      "start": 60.469,
      "duration": 0.156,
      "velocity": 0.71
    },
    {
      "id": "n-01175",
      "pitch": "G2",
      "midi": 43,
      "start": 60.625,
      "duration": 0.313,
      "velocity": 0.71
    },
    {
      "id": "n-01176",
      "pitch": "A#2",
      "midi": 46,
      "start": 60.625,
      "duration": 0.313,
      "velocity": 0.71
    },
    {
      "id": "n-01177",
      "pitch": "G3",
      "midi": 55,
      "start": 60.625,
      "duration": 0.313,
      "velocity": 0.71
    },
    {
      "id": "n-01178",
      "pitch": "G3",
      "midi": 55,
      "start": 60.625,
      "duration": 0.313,
      "velocity": 0.71
    },
    {
      "id": "n-01179",
      "pitch": "G3",
      "midi": 55,
      "start": 60.625,
      "duration": 0.313,
      "velocity": 0.71
    },
    {
      "id": "n-01180",
      "pitch": "G3",
      "midi": 55,
      "start": 60.625,
      "duration": 0.313,
      "velocity": 0.71
    },
    {
      "id": "n-01181",
      "pitch": "G3",
      "midi": 55,
      "start": 60.625,
      "duration": 0.313,
      "velocity": 0.71
    },
    {
      "id": "n-01182",
      "pitch": "A#3",
      "midi": 58,
      "start": 60.625,
      "duration": 0.313,
      "velocity": 0.71
    },
    {
      "id": "n-01183",
      "pitch": "A#3",
      "midi": 58,
      "start": 60.625,
      "duration": 0.313,
      "velocity": 0.71
    },
    {
      "id": "n-01184",
      "pitch": "G4",
      "midi": 67,
      "start": 60.625,
      "duration": 0.313,
      "velocity": 0.71
    },
    {
      "id": "n-01185",
      "pitch": "G4",
      "midi": 67,
      "start": 60.625,
      "duration": 0.313,
      "velocity": 0.71
    },
    {
      "id": "n-01186",
      "pitch": "A#4",
      "midi": 70,
      "start": 60.625,
      "duration": 0.313,
      "velocity": 0.71
    },
    {
      "id": "n-01187",
      "pitch": "D#5",
      "midi": 75,
      "start": 60.625,
      "duration": 0.313,
      "velocity": 0.71
    },
    {
      "id": "n-01188",
      "pitch": "F5",
      "midi": 77,
      "start": 60.625,
      "duration": 0.156,
      "velocity": 0.71
    },
    {
      "id": "n-01189",
      "pitch": "F5",
      "midi": 77,
      "start": 60.625,
      "duration": 0.156,
      "velocity": 0.71
    },
    {
      "id": "n-01190",
      "pitch": "A#5",
      "midi": 82,
      "start": 60.625,
      "duration": 0.313,
      "velocity": 0.71
    },
    {
      "id": "n-01191",
      "pitch": "A#5",
      "midi": 82,
      "start": 60.625,
      "duration": 0.313,
      "velocity": 0.71
    },
    {
      "id": "n-01192",
      "pitch": "D#6",
      "midi": 87,
      "start": 60.625,
      "duration": 0.313,
      "velocity": 0.71
    },
    {
      "id": "n-01193",
      "pitch": "D#5",
      "midi": 75,
      "start": 60.781,
      "duration": 0.156,
      "velocity": 0.71
    },
    {
      "id": "n-01194",
      "pitch": "D#5",
      "midi": 75,
      "start": 60.781,
      "duration": 0.156,
      "velocity": 0.71
    },
    {
      "id": "n-01195",
      "pitch": "A#4",
      "midi": 70,
      "start": 60.938,
      "duration": 0.156,
      "velocity": 0.71
    },
    {
      "id": "n-01196",
      "pitch": "A#4",
      "midi": 70,
      "start": 60.938,
      "duration": 0.156,
      "velocity": 0.71
    },
    {
      "id": "n-01197",
      "pitch": "G4",
      "midi": 67,
      "start": 61.094,
      "duration": 0.156,
      "velocity": 0.71
    },
    {
      "id": "n-01198",
      "pitch": "G4",
      "midi": 67,
      "start": 61.094,
      "duration": 0.156,
      "velocity": 0.71
    },
    {
      "id": "n-01199",
      "pitch": "C3",
      "midi": 48,
      "start": 61.25,
      "duration": 0.313,
      "velocity": 0.71
    },
    {
      "id": "n-01200",
      "pitch": "D#3",
      "midi": 51,
      "start": 61.25,
      "duration": 0.313,
      "velocity": 0.71
    },
    {
      "id": "n-01201",
      "pitch": "G#3",
      "midi": 56,
      "start": 61.25,
      "duration": 0.313,
      "velocity": 0.71
    },
    {
      "id": "n-01202",
      "pitch": "G#3",
      "midi": 56,
      "start": 61.25,
      "duration": 0.313,
      "velocity": 0.71
    },
    {
      "id": "n-01203",
      "pitch": "G#3",
      "midi": 56,
      "start": 61.25,
      "duration": 0.313,
      "velocity": 0.71
    },
    {
      "id": "n-01204",
      "pitch": "G#3",
      "midi": 56,
      "start": 61.25,
      "duration": 0.313,
      "velocity": 0.71
    },
    {
      "id": "n-01205",
      "pitch": "C4",
      "midi": 60,
      "start": 61.25,
      "duration": 0.313,
      "velocity": 0.71
    },
    {
      "id": "n-01206",
      "pitch": "C4",
      "midi": 60,
      "start": 61.25,
      "duration": 0.313,
      "velocity": 0.71
    },
    {
      "id": "n-01207",
      "pitch": "D#4",
      "midi": 63,
      "start": 61.25,
      "duration": 0.313,
      "velocity": 0.71
    },
    {
      "id": "n-01208",
      "pitch": "F4",
      "midi": 65,
      "start": 61.25,
      "duration": 0.313,
      "velocity": 0.71
    },
    {
      "id": "n-01209",
      "pitch": "C5",
      "midi": 72,
      "start": 61.25,
      "duration": 0.313,
      "velocity": 0.71
    },
    {
      "id": "n-01210",
      "pitch": "C5",
      "midi": 72,
      "start": 61.25,
      "duration": 0.313,
      "velocity": 0.71
    },
    {
      "id": "n-01211",
      "pitch": "D5",
      "midi": 74,
      "start": 61.25,
      "duration": 0.156,
      "velocity": 0.71
    },
    {
      "id": "n-01212",
      "pitch": "D5",
      "midi": 74,
      "start": 61.25,
      "duration": 0.156,
      "velocity": 0.71
    },
    {
      "id": "n-01213",
      "pitch": "D#5",
      "midi": 75,
      "start": 61.25,
      "duration": 0.313,
      "velocity": 0.71
    },
    {
      "id": "n-01214",
      "pitch": "C6",
      "midi": 84,
      "start": 61.25,
      "duration": 0.313,
      "velocity": 0.71
    },
    {
      "id": "n-01215",
      "pitch": "C6",
      "midi": 84,
      "start": 61.25,
      "duration": 0.313,
      "velocity": 0.71
    },
    {
      "id": "n-01216",
      "pitch": "D#6",
      "midi": 87,
      "start": 61.25,
      "duration": 0.313,
      "velocity": 0.71
    },
    {
      "id": "n-01217",
      "pitch": "C5",
      "midi": 72,
      "start": 61.406,
      "duration": 0.156,
      "velocity": 0.71
    },
    {
      "id": "n-01218",
      "pitch": "C5",
      "midi": 72,
      "start": 61.406,
      "duration": 0.156,
      "velocity": 0.71
    },
    {
      "id": "n-01219",
      "pitch": "G#4",
      "midi": 68,
      "start": 61.563,
      "duration": 0.156,
      "velocity": 0.71
    },
    {
      "id": "n-01220",
      "pitch": "G#4",
      "midi": 68,
      "start": 61.563,
      "duration": 0.156,
      "velocity": 0.71
    },
    {
      "id": "n-01221",
      "pitch": "F4",
      "midi": 65,
      "start": 61.719,
      "duration": 0.156,
      "velocity": 0.71
    },
    {
      "id": "n-01222",
      "pitch": "F4",
      "midi": 65,
      "start": 61.719,
      "duration": 0.156,
      "velocity": 0.71
    },
    {
      "id": "n-01223",
      "pitch": "A#3",
      "midi": 58,
      "start": 61.875,
      "duration": 0.313,
      "velocity": 0.71
    },
    {
      "id": "n-01224",
      "pitch": "A#3",
      "midi": 58,
      "start": 61.875,
      "duration": 0.313,
      "velocity": 0.71
    },
    {
      "id": "n-01225",
      "pitch": "A#3",
      "midi": 58,
      "start": 61.875,
      "duration": 0.313,
      "velocity": 0.71
    },
    {
      "id": "n-01226",
      "pitch": "A#3",
      "midi": 58,
      "start": 61.875,
      "duration": 0.313,
      "velocity": 0.71
    },
    {
      "id": "n-01227",
      "pitch": "D#4",
      "midi": 63,
      "start": 61.875,
      "duration": 0.313,
      "velocity": 0.71
    },
    {
      "id": "n-01228",
      "pitch": "G4",
      "midi": 67,
      "start": 61.875,
      "duration": 0.313,
      "velocity": 0.71
    },
    {
      "id": "n-01229",
      "pitch": "G4",
      "midi": 67,
      "start": 61.875,
      "duration": 0.313,
      "velocity": 0.71
    },
    {
      "id": "n-01230",
      "pitch": "A#4",
      "midi": 70,
      "start": 61.875,
      "duration": 0.313,
      "velocity": 0.71
    },
    {
      "id": "n-01231",
      "pitch": "C5",
      "midi": 72,
      "start": 61.875,
      "duration": 0.156,
      "velocity": 0.71
    },
    {
      "id": "n-01232",
      "pitch": "C5",
      "midi": 72,
      "start": 61.875,
      "duration": 0.156,
      "velocity": 0.71
    },
    {
      "id": "n-01233",
      "pitch": "D#5",
      "midi": 75,
      "start": 61.875,
      "duration": 0.313,
      "velocity": 0.71
    },
    {
      "id": "n-01234",
      "pitch": "G5",
      "midi": 79,
      "start": 61.875,
      "duration": 0.313,
      "velocity": 0.71
    },
    {
      "id": "n-01235",
      "pitch": "A#5",
      "midi": 82,
      "start": 61.875,
      "duration": 0.313,
      "velocity": 0.71
    },
    {
      "id": "n-01236",
      "pitch": "D#6",
      "midi": 87,
      "start": 61.875,
      "duration": 0.313,
      "velocity": 0.71
    },
    {
      "id": "n-01237",
      "pitch": "A#4",
      "midi": 70,
      "start": 62.031,
      "duration": 0.156,
      "velocity": 0.71
    },
    {
      "id": "n-01238",
      "pitch": "A#4",
      "midi": 70,
      "start": 62.031,
      "duration": 0.156,
      "velocity": 0.71
    },
    {
      "id": "n-01239",
      "pitch": "G4",
      "midi": 67,
      "start": 62.188,
      "duration": 0.156,
      "velocity": 0.71
    },
    {
      "id": "n-01240",
      "pitch": "G4",
      "midi": 67,
      "start": 62.188,
      "duration": 0.156,
      "velocity": 0.71
    },
    {
      "id": "n-01241",
      "pitch": "D#4",
      "midi": 63,
      "start": 62.344,
      "duration": 0.156,
      "velocity": 0.71
    },
    {
      "id": "n-01242",
      "pitch": "D#4",
      "midi": 63,
      "start": 62.344,
      "duration": 0.156,
      "velocity": 0.71
    },
    {
      "id": "n-01243",
      "pitch": "A#2",
      "midi": 46,
      "start": 62.5,
      "duration": 0.313,
      "velocity": 0.71
    },
    {
      "id": "n-01244",
      "pitch": "A#2",
      "midi": 46,
      "start": 62.5,
      "duration": 0.313,
      "velocity": 0.71
    },
    {
      "id": "n-01245",
      "pitch": "A#2",
      "midi": 46,
      "start": 62.5,
      "duration": 0.313,
      "velocity": 0.71
    },
    {
      "id": "n-01246",
      "pitch": "A#3",
      "midi": 58,
      "start": 62.5,
      "duration": 0.313,
      "velocity": 0.71
    },
    {
      "id": "n-01247",
      "pitch": "A#3",
      "midi": 58,
      "start": 62.5,
      "duration": 0.313,
      "velocity": 0.71
    },
    {
      "id": "n-01248",
      "pitch": "A#3",
      "midi": 58,
      "start": 62.5,
      "duration": 0.156,
      "velocity": 0.71
    },
    {
      "id": "n-01249",
      "pitch": "A#3",
      "midi": 58,
      "start": 62.5,
      "duration": 0.156,
      "velocity": 0.71
    },
    {
      "id": "n-01250",
      "pitch": "F4",
      "midi": 65,
      "start": 62.5,
      "duration": 0.313,
      "velocity": 0.71
    },
    {
      "id": "n-01251",
      "pitch": "F4",
      "midi": 65,
      "start": 62.5,
      "duration": 0.156,
      "velocity": 0.71
    },
    {
      "id": "n-01252",
      "pitch": "A#4",
      "midi": 70,
      "start": 62.5,
      "duration": 0.156,
      "velocity": 0.71
    },
    {
      "id": "n-01253",
      "pitch": "D5",
      "midi": 74,
      "start": 62.5,
      "duration": 0.313,
      "velocity": 0.71
    },
    {
      "id": "n-01254",
      "pitch": "F5",
      "midi": 77,
      "start": 62.5,
      "duration": 0.313,
      "velocity": 0.71
    },
    {
      "id": "n-01255",
      "pitch": "A#5",
      "midi": 82,
      "start": 62.5,
      "duration": 0.313,
      "velocity": 0.71
    },
    {
      "id": "n-01256",
      "pitch": "D6",
      "midi": 86,
      "start": 62.5,
      "duration": 0.313,
      "velocity": 0.71
    },
    {
      "id": "n-01257",
      "pitch": "A4",
      "midi": 69,
      "start": 62.656,
      "duration": 0.156,
      "velocity": 0.71
    },
    {
      "id": "n-01258",
      "pitch": "A4",
      "midi": 69,
      "start": 62.656,
      "duration": 0.156,
      "velocity": 0.71
    },
    {
      "id": "n-01259",
      "pitch": "A5",
      "midi": 81,
      "start": 62.656,
      "duration": 0.156,
      "velocity": 0.71
    },
    {
      "id": "n-01260",
      "pitch": "A5",
      "midi": 81,
      "start": 62.656,
      "duration": 0.156,
      "velocity": 0.71
    },
    {
      "id": "n-01261",
      "pitch": "A#2",
      "midi": 46,
      "start": 62.813,
      "duration": 1.875,
      "velocity": 0.71
    },
    {
      "id": "n-01262",
      "pitch": "A#3",
      "midi": 58,
      "start": 62.813,
      "duration": 1.875,
      "velocity": 0.71
    },
    {
      "id": "n-01263",
      "pitch": "A#4",
      "midi": 70,
      "start": 62.813,
      "duration": 0.156,
      "velocity": 0.71
    },
    {
      "id": "n-01264",
      "pitch": "A#4",
      "midi": 70,
      "start": 62.813,
      "duration": 0.156,
      "velocity": 0.71
    },
    {
      "id": "n-01265",
      "pitch": "A#5",
      "midi": 82,
      "start": 62.813,
      "duration": 0.156,
      "velocity": 0.71
    },
    {
      "id": "n-01266",
      "pitch": "A#5",
      "midi": 82,
      "start": 62.813,
      "duration": 0.156,
      "velocity": 0.71
    },
    {
      "id": "n-01267",
      "pitch": "A4",
      "midi": 69,
      "start": 62.969,
      "duration": 0.156,
      "velocity": 0.71
    },
    {
      "id": "n-01268",
      "pitch": "A4",
      "midi": 69,
      "start": 62.969,
      "duration": 0.156,
      "velocity": 0.71
    },
    {
      "id": "n-01269",
      "pitch": "A5",
      "midi": 81,
      "start": 62.969,
      "duration": 0.156,
      "velocity": 0.71
    },
    {
      "id": "n-01270",
      "pitch": "A5",
      "midi": 81,
      "start": 62.969,
      "duration": 0.156,
      "velocity": 0.71
    },
    {
      "id": "n-01271",
      "pitch": "D3",
      "midi": 50,
      "start": 63.125,
      "duration": 0.313,
      "velocity": 0.71
    },
    {
      "id": "n-01272",
      "pitch": "D3",
      "midi": 50,
      "start": 63.125,
      "duration": 0.313,
      "velocity": 0.71
    },
    {
      "id": "n-01273",
      "pitch": "F3",
      "midi": 53,
      "start": 63.125,
      "duration": 0.156,
      "velocity": 0.71
    },
    {
      "id": "n-01274",
      "pitch": "F4",
      "midi": 65,
      "start": 63.125,
      "duration": 0.938,
      "velocity": 0.71
    },
    {
      "id": "n-01275",
      "pitch": "G#4",
      "midi": 68,
      "start": 63.125,
      "duration": 0.938,
      "velocity": 0.71
    },
    {
      "id": "n-01276",
      "pitch": "A#4",
      "midi": 70,
      "start": 63.125,
      "duration": 0.156,
      "velocity": 0.71
    },
    {
      "id": "n-01277",
      "pitch": "A#4",
      "midi": 70,
      "start": 63.125,
      "duration": 0.156,
      "velocity": 0.71
    },
    {
      "id": "n-01278",
      "pitch": "F5",
      "midi": 77,
      "start": 63.125,
      "duration": 1.25,
      "velocity": 0.71
    },
    {
      "id": "n-01279",
      "pitch": "F5",
      "midi": 77,
      "start": 63.125,
      "duration": 1.25,
      "velocity": 0.71
    },
    {
      "id": "n-01280",
      "pitch": "G#5",
      "midi": 80,
      "start": 63.125,
      "duration": 1.25,
      "velocity": 0.71
    },
    {
      "id": "n-01281",
      "pitch": "A#5",
      "midi": 82,
      "start": 63.125,
      "duration": 1.25,
      "velocity": 0.71
    },
    {
      "id": "n-01282",
      "pitch": "A#5",
      "midi": 82,
      "start": 63.125,
      "duration": 0.156,
      "velocity": 0.71
    },
    {
      "id": "n-01283",
      "pitch": "A#5",
      "midi": 82,
      "start": 63.125,
      "duration": 0.156,
      "velocity": 0.71
    },
    {
      "id": "n-01284",
      "pitch": "F6",
      "midi": 89,
      "start": 63.125,
      "duration": 1.25,
      "velocity": 0.71
    },
    {
      "id": "n-01285",
      "pitch": "F3",
      "midi": 53,
      "start": 63.281,
      "duration": 0.156,
      "velocity": 0.71
    },
    {
      "id": "n-01286",
      "pitch": "A4",
      "midi": 69,
      "start": 63.281,
      "duration": 0.156,
      "velocity": 0.71
    },
    {
      "id": "n-01287",
      "pitch": "A4",
      "midi": 69,
      "start": 63.281,
      "duration": 0.156,
      "velocity": 0.71
    },
    {
      "id": "n-01288",
      "pitch": "A5",
      "midi": 81,
      "start": 63.281,
      "duration": 0.156,
      "velocity": 0.71
    },
    {
      "id": "n-01289",
      "pitch": "A5",
      "midi": 81,
      "start": 63.281,
      "duration": 0.156,
      "velocity": 0.71
    },
    {
      "id": "n-01290",
      "pitch": "F3",
      "midi": 53,
      "start": 63.438,
      "duration": 0.313,
      "velocity": 0.71
    },
    {
      "id": "n-01291",
      "pitch": "F3",
      "midi": 53,
      "start": 63.438,
      "duration": 0.313,
      "velocity": 0.71
    },
    {
      "id": "n-01292",
      "pitch": "A#3",
      "midi": 58,
      "start": 63.438,
      "duration": 0.156,
      "velocity": 0.71
    },
    {
      "id": "n-01293",
      "pitch": "A#4",
      "midi": 70,
      "start": 63.438,
      "duration": 0.156,
      "velocity": 0.71
    },
    {
      "id": "n-01294",
      "pitch": "A#4",
      "midi": 70,
      "start": 63.438,
      "duration": 0.156,
      "velocity": 0.71
    },
    {
      "id": "n-01295",
      "pitch": "A#5",
      "midi": 82,
      "start": 63.438,
      "duration": 0.156,
      "velocity": 0.71
    },
    {
      "id": "n-01296",
      "pitch": "A#5",
      "midi": 82,
      "start": 63.438,
      "duration": 0.156,
      "velocity": 0.71
    },
    {
      "id": "n-01297",
      "pitch": "A#3",
      "midi": 58,
      "start": 63.594,
      "duration": 0.156,
      "velocity": 0.71
    },
    {
      "id": "n-01298",
      "pitch": "A4",
      "midi": 69,
      "start": 63.594,
      "duration": 0.156,
      "velocity": 0.71
    },
    {
      "id": "n-01299",
      "pitch": "A4",
      "midi": 69,
      "start": 63.594,
      "duration": 0.156,
      "velocity": 0.71
    },
    {
      "id": "n-01300",
      "pitch": "A5",
      "midi": 81,
      "start": 63.594,
      "duration": 0.156,
      "velocity": 0.71
    },
    {
      "id": "n-01301",
      "pitch": "A5",
      "midi": 81,
      "start": 63.594,
      "duration": 0.156,
      "velocity": 0.71
    },
    {
      "id": "n-01302",
      "pitch": "D3",
      "midi": 50,
      "start": 63.75,
      "duration": 0.313,
      "velocity": 0.71
    },
    {
      "id": "n-01303",
      "pitch": "D3",
      "midi": 50,
      "start": 63.75,
      "duration": 0.313,
      "velocity": 0.71
    },
    {
      "id": "n-01304",
      "pitch": "F3",
      "midi": 53,
      "start": 63.75,
      "duration": 0.156,
      "velocity": 0.71
    },
    {
      "id": "n-01305",
      "pitch": "A#4",
      "midi": 70,
      "start": 63.75,
      "duration": 0.156,
      "velocity": 0.71
    },
    {
      "id": "n-01306",
      "pitch": "A#4",
      "midi": 70,
      "start": 63.75,
      "duration": 0.156,
      "velocity": 0.71
    },
    {
      "id": "n-01307",
      "pitch": "A#5",
      "midi": 82,
      "start": 63.75,
      "duration": 0.156,
      "velocity": 0.71
    },
    {
      "id": "n-01308",
      "pitch": "A#5",
      "midi": 82,
      "start": 63.75,
      "duration": 0.156,
      "velocity": 0.71
    },
    {
      "id": "n-01309",
      "pitch": "F3",
      "midi": 53,
      "start": 63.906,
      "duration": 0.156,
      "velocity": 0.71
    },
    {
      "id": "n-01310",
      "pitch": "C5",
      "midi": 72,
      "start": 63.906,
      "duration": 0.156,
      "velocity": 0.71
    },
    {
      "id": "n-01311",
      "pitch": "C6",
      "midi": 84,
      "start": 63.906,
      "duration": 0.156,
      "velocity": 0.71
    },
    {
      "id": "n-01312",
      "pitch": "C6",
      "midi": 84,
      "start": 63.906,
      "duration": 0.156,
      "velocity": 0.71
    },
    {
      "id": "n-01313",
      "pitch": "C6",
      "midi": 84,
      "start": 63.906,
      "duration": 0.156,
      "velocity": 0.71
    },
    {
      "id": "n-01314",
      "pitch": "F3",
      "midi": 53,
      "start": 64.063,
      "duration": 0.313,
      "velocity": 0.71
    },
    {
      "id": "n-01315",
      "pitch": "F3",
      "midi": 53,
      "start": 64.063,
      "duration": 0.313,
      "velocity": 0.71
    },
    {
      "id": "n-01316",
      "pitch": "A#3",
      "midi": 58,
      "start": 64.063,
      "duration": 0.313,
      "velocity": 0.71
    },
    {
      "id": "n-01317",
      "pitch": "A#3",
      "midi": 58,
      "start": 64.063,
      "duration": 0.156,
      "velocity": 0.71
    },
    {
      "id": "n-01318",
      "pitch": "F4",
      "midi": 65,
      "start": 64.063,
      "duration": 0.313,
      "velocity": 0.71
    },
    {
      "id": "n-01319",
      "pitch": "A#4",
      "midi": 70,
      "start": 64.063,
      "duration": 0.156,
      "velocity": 0.71
    },
    {
      "id": "n-01320",
      "pitch": "A#5",
      "midi": 82,
      "start": 64.063,
      "duration": 0.156,
      "velocity": 0.71
    },
    {
      "id": "n-01321",
      "pitch": "A#5",
      "midi": 82,
      "start": 64.063,
      "duration": 0.156,
      "velocity": 0.71
    },
    {
      "id": "n-01322",
      "pitch": "A#5",
      "midi": 82,
      "start": 64.063,
      "duration": 0.156,
      "velocity": 0.71
    },
    {
      "id": "n-01323",
      "pitch": "A#3",
      "midi": 58,
      "start": 64.219,
      "duration": 0.156,
      "velocity": 0.71
    },
    {
      "id": "n-01324",
      "pitch": "G#4",
      "midi": 68,
      "start": 64.219,
      "duration": 0.156,
      "velocity": 0.71
    },
    {
      "id": "n-01325",
      "pitch": "G#5",
      "midi": 80,
      "start": 64.219,
      "duration": 0.156,
      "velocity": 0.71
    },
    {
      "id": "n-01326",
      "pitch": "G#5",
      "midi": 80,
      "start": 64.219,
      "duration": 0.156,
      "velocity": 0.71
    },
    {
      "id": "n-01327",
      "pitch": "G#5",
      "midi": 80,
      "start": 64.219,
      "duration": 0.156,
      "velocity": 0.71
    },
    {
      "id": "n-01328",
      "pitch": "D#3",
      "midi": 51,
      "start": 64.375,
      "duration": 0.313,
      "velocity": 0.71
    },
    {
      "id": "n-01329",
      "pitch": "D#3",
      "midi": 51,
      "start": 64.375,
      "duration": 0.313,
      "velocity": 0.71
    },
    {
      "id": "n-01330",
      "pitch": "G3",
      "midi": 55,
      "start": 64.375,
      "duration": 0.156,
      "velocity": 0.71
    },
    {
      "id": "n-01331",
      "pitch": "D#4",
      "midi": 63,
      "start": 64.375,
      "duration": 0.313,
      "velocity": 0.71
    },
    {
      "id": "n-01332",
      "pitch": "G4",
      "midi": 67,
      "start": 64.375,
      "duration": 0.313,
      "velocity": 0.71
    },
    {
      "id": "n-01333",
      "pitch": "G4",
      "midi": 67,
      "start": 64.375,
      "duration": 0.313,
      "velocity": 0.71
    },
    {
      "id": "n-01334",
      "pitch": "D#5",
      "midi": 75,
      "start": 64.375,
      "duration": 0.313,
      "velocity": 0.71
    },
    {
      "id": "n-01335",
      "pitch": "G5",
      "midi": 79,
      "start": 64.375,
      "duration": 0.313,
      "velocity": 0.71
    },
    {
      "id": "n-01336",
      "pitch": "G5",
      "midi": 79,
      "start": 64.375,
      "duration": 0.313,
      "velocity": 0.71
    },
    {
      "id": "n-01337",
      "pitch": "G5",
      "midi": 79,
      "start": 64.375,
      "duration": 0.313,
      "velocity": 0.71
    },
    {
      "id": "n-01338",
      "pitch": "G#5",
      "midi": 80,
      "start": 64.375,
      "duration": 0.156,
      "velocity": 0.71
    },
    {
      "id": "n-01339",
      "pitch": "G#5",
      "midi": 80,
      "start": 64.375,
      "duration": 0.156,
      "velocity": 0.71
    },
    {
      "id": "n-01340",
      "pitch": "A#5",
      "midi": 82,
      "start": 64.375,
      "duration": 0.313,
      "velocity": 0.71
    },
    {
      "id": "n-01341",
      "pitch": "G6",
      "midi": 91,
      "start": 64.375,
      "duration": 0.313,
      "velocity": 0.71
    },
    {
      "id": "n-01342",
      "pitch": "G3",
      "midi": 55,
      "start": 64.531,
      "duration": 0.156,
      "velocity": 0.71
    },
    {
      "id": "n-01343",
      "pitch": "G5",
      "midi": 79,
      "start": 64.531,
      "duration": 0.156,
      "velocity": 0.71
    },
    {
      "id": "n-01344",
      "pitch": "G5",
      "midi": 79,
      "start": 64.531,
      "duration": 0.156,
      "velocity": 0.71
    },
    {
      "id": "n-01345",
      "pitch": "G2",
      "midi": 43,
      "start": 64.688,
      "duration": 0.313,
      "velocity": 0.71
    },
    {
      "id": "n-01346",
      "pitch": "A#2",
      "midi": 46,
      "start": 64.688,
      "duration": 0.313,
      "velocity": 0.71
    },
    {
      "id": "n-01347",
      "pitch": "G3",
      "midi": 55,
      "start": 64.688,
      "duration": 0.313,
      "velocity": 0.71
    },
    {
      "id": "n-01348",
      "pitch": "G3",
      "midi": 55,
      "start": 64.688,
      "duration": 0.313,
      "velocity": 0.71
    },
    {
      "id": "n-01349",
      "pitch": "A#3",
      "midi": 58,
      "start": 64.688,
      "duration": 0.313,
      "velocity": 0.71
    },
    {
      "id": "n-01350",
      "pitch": "A#3",
      "midi": 58,
      "start": 64.688,
      "duration": 0.156,
      "velocity": 0.71
    },
    {
      "id": "n-01351",
      "pitch": "D#4",
      "midi": 63,
      "start": 64.688,
      "duration": 0.313,
      "velocity": 0.71
    },
    {
      "id": "n-01352",
      "pitch": "G4",
      "midi": 67,
      "start": 64.688,
      "duration": 0.313,
      "velocity": 0.71
    },
    {
      "id": "n-01353",
      "pitch": "G4",
      "midi": 67,
      "start": 64.688,
      "duration": 0.313,
      "velocity": 0.71
    },
    {
      "id": "n-01354",
      "pitch": "G4",
      "midi": 67,
      "start": 64.688,
      "duration": 0.313,
      "velocity": 0.71
    },
    {
      "id": "n-01355",
      "pitch": "D#5",
      "midi": 75,
      "start": 64.688,
      "duration": 0.313,
      "velocity": 0.71
    },
    {
      "id": "n-01356",
      "pitch": "F5",
      "midi": 77,
      "start": 64.688,
      "duration": 0.156,
      "velocity": 0.71
    },
    {
      "id": "n-01357",
      "pitch": "F5",
      "midi": 77,
      "start": 64.688,
      "duration": 0.156,
      "velocity": 0.71
    },
    {
      "id": "n-01358",
      "pitch": "G5",
      "midi": 79,
      "start": 64.688,
      "duration": 0.313,
      "velocity": 0.71
    },
    {
      "id": "n-01359",
      "pitch": "G5",
      "midi": 79,
      "start": 64.688,
      "duration": 0.313,
      "velocity": 0.71
    },
    {
      "id": "n-01360",
      "pitch": "G5",
      "midi": 79,
      "start": 64.688,
      "duration": 0.313,
      "velocity": 0.71
    },
    {
      "id": "n-01361",
      "pitch": "A#5",
      "midi": 82,
      "start": 64.688,
      "duration": 0.313,
      "velocity": 0.71
    },
    {
      "id": "n-01362",
      "pitch": "G6",
      "midi": 91,
      "start": 64.688,
      "duration": 0.313,
      "velocity": 0.71
    },
    {
      "id": "n-01363",
      "pitch": "A#3",
      "midi": 58,
      "start": 64.844,
      "duration": 0.156,
      "velocity": 0.71
    },
    {
      "id": "n-01364",
      "pitch": "D#5",
      "midi": 75,
      "start": 64.844,
      "duration": 0.156,
      "velocity": 0.71
    },
    {
      "id": "n-01365",
      "pitch": "D#5",
      "midi": 75,
      "start": 64.844,
      "duration": 0.156,
      "velocity": 0.71
    },
    {
      "id": "n-01366",
      "pitch": "F3",
      "midi": 53,
      "start": 65,
      "duration": 0.313,
      "velocity": 0.71
    },
    {
      "id": "n-01367",
      "pitch": "F3",
      "midi": 53,
      "start": 65,
      "duration": 0.313,
      "velocity": 0.71
    },
    {
      "id": "n-01368",
      "pitch": "G#3",
      "midi": 56,
      "start": 65,
      "duration": 0.156,
      "velocity": 0.71
    },
    {
      "id": "n-01369",
      "pitch": "D#5",
      "midi": 75,
      "start": 65,
      "duration": 0.156,
      "velocity": 0.71
    },
    {
      "id": "n-01370",
      "pitch": "D#5",
      "midi": 75,
      "start": 65,
      "duration": 0.156,
      "velocity": 0.71
    },
    {
      "id": "n-01371",
      "pitch": "G#3",
      "midi": 56,
      "start": 65.156,
      "duration": 0.156,
      "velocity": 0.71
    },
    {
      "id": "n-01372",
      "pitch": "D5",
      "midi": 74,
      "start": 65.156,
      "duration": 0.156,
      "velocity": 0.71
    },
    {
      "id": "n-01373",
      "pitch": "D5",
      "midi": 74,
      "start": 65.156,
      "duration": 0.156,
      "velocity": 0.71
    },
    {
      "id": "n-01374",
      "pitch": "A#2",
      "midi": 46,
      "start": 65.313,
      "duration": 0.313,
      "velocity": 0.71
    },
    {
      "id": "n-01375",
      "pitch": "G#3",
      "midi": 56,
      "start": 65.313,
      "duration": 0.313,
      "velocity": 0.71
    },
    {
      "id": "n-01376",
      "pitch": "G#3",
      "midi": 56,
      "start": 65.313,
      "duration": 0.313,
      "velocity": 0.71
    },
    {
      "id": "n-01377",
      "pitch": "A#3",
      "midi": 58,
      "start": 65.313,
      "duration": 0.313,
      "velocity": 0.71
    },
    {
      "id": "n-01378",
      "pitch": "A#3",
      "midi": 58,
      "start": 65.313,
      "duration": 0.313,
      "velocity": 0.71
    },
    {
      "id": "n-01379",
      "pitch": "A#3",
      "midi": 58,
      "start": 65.313,
      "duration": 0.156,
      "velocity": 0.71
    },
    {
      "id": "n-01380",
      "pitch": "F4",
      "midi": 65,
      "start": 65.313,
      "duration": 0.313,
      "velocity": 0.71
    },
    {
      "id": "n-01381",
      "pitch": "F4",
      "midi": 65,
      "start": 65.313,
      "duration": 0.313,
      "velocity": 0.71
    },
    {
      "id": "n-01382",
      "pitch": "C5",
      "midi": 72,
      "start": 65.313,
      "duration": 0.156,
      "velocity": 0.71
    },
    {
      "id": "n-01383",
      "pitch": "C5",
      "midi": 72,
      "start": 65.313,
      "duration": 0.156,
      "velocity": 0.71
    },
    {
      "id": "n-01384",
      "pitch": "D5",
      "midi": 74,
      "start": 65.313,
      "duration": 0.313,
      "velocity": 0.71
    },
    {
      "id": "n-01385",
      "pitch": "D5",
      "midi": 74,
      "start": 65.313,
      "duration": 0.313,
      "velocity": 0.71
    },
    {
      "id": "n-01386",
      "pitch": "F5",
      "midi": 77,
      "start": 65.313,
      "duration": 0.313,
      "velocity": 0.71
    },
    {
      "id": "n-01387",
      "pitch": "A#5",
      "midi": 82,
      "start": 65.313,
      "duration": 0.313,
      "velocity": 0.71
    },
    {
      "id": "n-01388",
      "pitch": "D6",
      "midi": 86,
      "start": 65.313,
      "duration": 0.313,
      "velocity": 0.71
    },
    {
      "id": "n-01389",
      "pitch": "A#3",
      "midi": 58,
      "start": 65.469,
      "duration": 0.156,
      "velocity": 0.71
    },
    {
      "id": "n-01390",
      "pitch": "D5",
      "midi": 74,
      "start": 65.469,
      "duration": 0.156,
      "velocity": 0.71
    },
    {
      "id": "n-01391",
      "pitch": "D5",
      "midi": 74,
      "start": 65.469,
      "duration": 0.156,
      "velocity": 0.71
    },
    {
      "id": "n-01392",
      "pitch": "G3",
      "midi": 55,
      "start": 65.625,
      "duration": 0.313,
      "velocity": 0.71
    },
    {
      "id": "n-01393",
      "pitch": "G3",
      "midi": 55,
      "start": 65.625,
      "duration": 0.313,
      "velocity": 0.71
    },
    {
      "id": "n-01394",
      "pitch": "F4",
      "midi": 65,
      "start": 65.625,
      "duration": 0.156,
      "velocity": 0.71
    },
    {
      "id": "n-01395",
      "pitch": "F5",
      "midi": 77,
      "start": 65.625,
      "duration": 0.156,
      "velocity": 0.71
    },
    {
      "id": "n-01396",
      "pitch": "F5",
      "midi": 77,
      "start": 65.625,
      "duration": 0.156,
      "velocity": 0.71
    },
    {
      "id": "n-01397",
      "pitch": "D#4",
      "midi": 63,
      "start": 65.781,
      "duration": 0.156,
      "velocity": 0.71
    },
    {
      "id": "n-01398",
      "pitch": "D#5",
      "midi": 75,
      "start": 65.781,
      "duration": 0.156,
      "velocity": 0.71
    },
    {
      "id": "n-01399",
      "pitch": "D#5",
      "midi": 75,
      "start": 65.781,
      "duration": 0.156,
      "velocity": 0.71
    },
    {
      "id": "n-01400",
      "pitch": "G2",
      "midi": 43,
      "start": 65.938,
      "duration": 0.313,
      "velocity": 0.71
    },
    {
      "id": "n-01401",
      "pitch": "D#3",
      "midi": 51,
      "start": 65.938,
      "duration": 0.313,
      "velocity": 0.71
    },
    {
      "id": "n-01402",
      "pitch": "G3",
      "midi": 55,
      "start": 65.938,
      "duration": 0.313,
      "velocity": 0.71
    },
    {
      "id": "n-01403",
      "pitch": "A#3",
      "midi": 58,
      "start": 65.938,
      "duration": 0.313,
      "velocity": 0.71
    },
    {
      "id": "n-01404",
      "pitch": "A#3",
      "midi": 58,
      "start": 65.938,
      "duration": 0.313,
      "velocity": 0.71
    },
    {
      "id": "n-01405",
      "pitch": "A#3",
      "midi": 58,
      "start": 65.938,
      "duration": 0.313,
      "velocity": 0.71
    },
    {
      "id": "n-01406",
      "pitch": "A#3",
      "midi": 58,
      "start": 65.938,
      "duration": 0.156,
      "velocity": 0.71
    },
    {
      "id": "n-01407",
      "pitch": "D#4",
      "midi": 63,
      "start": 65.938,
      "duration": 0.313,
      "velocity": 0.71
    },
    {
      "id": "n-01408",
      "pitch": "D#4",
      "midi": 63,
      "start": 65.938,
      "duration": 0.313,
      "velocity": 0.71
    },
    {
      "id": "n-01409",
      "pitch": "G4",
      "midi": 67,
      "start": 65.938,
      "duration": 0.313,
      "velocity": 0.71
    },
    {
      "id": "n-01410",
      "pitch": "G4",
      "midi": 67,
      "start": 65.938,
      "duration": 0.313,
      "velocity": 0.71
    },
    {
      "id": "n-01411",
      "pitch": "A#4",
      "midi": 70,
      "start": 65.938,
      "duration": 0.156,
      "velocity": 0.71
    },
    {
      "id": "n-01412",
      "pitch": "A#4",
      "midi": 70,
      "start": 65.938,
      "duration": 0.156,
      "velocity": 0.71
    },
    {
      "id": "n-01413",
      "pitch": "D#5",
      "midi": 75,
      "start": 65.938,
      "duration": 0.313,
      "velocity": 0.71
    },
    {
      "id": "n-01414",
      "pitch": "D#5",
      "midi": 75,
      "start": 65.938,
      "duration": 0.313,
      "velocity": 0.71
    },
    {
      "id": "n-01415",
      "pitch": "G5",
      "midi": 79,
      "start": 65.938,
      "duration": 0.313,
      "velocity": 0.71
    },
    {
      "id": "n-01416",
      "pitch": "A#5",
      "midi": 82,
      "start": 65.938,
      "duration": 0.313,
      "velocity": 0.71
    },
    {
      "id": "n-01417",
      "pitch": "D#6",
      "midi": 87,
      "start": 65.938,
      "duration": 0.313,
      "velocity": 0.71
    },
    {
      "id": "n-01418",
      "pitch": "G3",
      "midi": 55,
      "start": 66.094,
      "duration": 0.156,
      "velocity": 0.71
    },
    {
      "id": "n-01419",
      "pitch": "G4",
      "midi": 67,
      "start": 66.094,
      "duration": 0.156,
      "velocity": 0.71
    },
    {
      "id": "n-01420",
      "pitch": "G4",
      "midi": 67,
      "start": 66.094,
      "duration": 0.156,
      "velocity": 0.71
    },
    {
      "id": "n-01421",
      "pitch": "G#3",
      "midi": 56,
      "start": 66.25,
      "duration": 0.313,
      "velocity": 0.71
    },
    {
      "id": "n-01422",
      "pitch": "G#3",
      "midi": 56,
      "start": 66.25,
      "duration": 0.313,
      "velocity": 0.71
    },
    {
      "id": "n-01423",
      "pitch": "D4",
      "midi": 62,
      "start": 66.25,
      "duration": 0.156,
      "velocity": 0.71
    },
    {
      "id": "n-01424",
      "pitch": "D5",
      "midi": 74,
      "start": 66.25,
      "duration": 0.156,
      "velocity": 0.71
    },
    {
      "id": "n-01425",
      "pitch": "D5",
      "midi": 74,
      "start": 66.25,
      "duration": 0.156,
      "velocity": 0.71
    },
    {
      "id": "n-01426",
      "pitch": "C4",
      "midi": 60,
      "start": 66.406,
      "duration": 0.156,
      "velocity": 0.71
    },
    {
      "id": "n-01427",
      "pitch": "C5",
      "midi": 72,
      "start": 66.406,
      "duration": 0.156,
      "velocity": 0.71
    },
    {
      "id": "n-01428",
      "pitch": "C5",
      "midi": 72,
      "start": 66.406,
      "duration": 0.156,
      "velocity": 0.71
    },
    {
      "id": "n-01429",
      "pitch": "C3",
      "midi": 48,
      "start": 66.563,
      "duration": 0.313,
      "velocity": 0.71
    },
    {
      "id": "n-01430",
      "pitch": "D#3",
      "midi": 51,
      "start": 66.563,
      "duration": 0.313,
      "velocity": 0.71
    },
    {
      "id": "n-01431",
      "pitch": "G#3",
      "midi": 56,
      "start": 66.563,
      "duration": 0.313,
      "velocity": 0.71
    },
    {
      "id": "n-01432",
      "pitch": "G#3",
      "midi": 56,
      "start": 66.563,
      "duration": 0.156,
      "velocity": 0.71
    },
    {
      "id": "n-01433",
      "pitch": "C4",
      "midi": 60,
      "start": 66.563,
      "duration": 0.313,
      "velocity": 0.71
    },
    {
      "id": "n-01434",
      "pitch": "C4",
      "midi": 60,
      "start": 66.563,
      "duration": 0.313,
      "velocity": 0.71
    },
    {
      "id": "n-01435",
      "pitch": "C4",
      "midi": 60,
      "start": 66.563,
      "duration": 0.313,
      "velocity": 0.71
    },
    {
      "id": "n-01436",
      "pitch": "C4",
      "midi": 60,
      "start": 66.563,
      "duration": 0.313,
      "velocity": 0.71
    },
    {
      "id": "n-01437",
      "pitch": "D#4",
      "midi": 63,
      "start": 66.563,
      "duration": 0.313,
      "velocity": 0.71
    },
    {
      "id": "n-01438",
      "pitch": "F4",
      "midi": 65,
      "start": 66.563,
      "duration": 0.313,
      "velocity": 0.71
    },
    {
      "id": "n-01439",
      "pitch": "G#4",
      "midi": 68,
      "start": 66.563,
      "duration": 0.313,
      "velocity": 0.71
    },
    {
      "id": "n-01440",
      "pitch": "G#4",
      "midi": 68,
      "start": 66.563,
      "duration": 0.156,
      "velocity": 0.71
    },
    {
      "id": "n-01441",
      "pitch": "G#4",
      "midi": 68,
      "start": 66.563,
      "duration": 0.156,
      "velocity": 0.71
    },
    {
      "id": "n-01442",
      "pitch": "C5",
      "midi": 72,
      "start": 66.563,
      "duration": 0.313,
      "velocity": 0.71
    },
    {
      "id": "n-01443",
      "pitch": "D#5",
      "midi": 75,
      "start": 66.563,
      "duration": 0.313,
      "velocity": 0.71
    },
    {
      "id": "n-01444",
      "pitch": "F5",
      "midi": 77,
      "start": 66.563,
      "duration": 0.313,
      "velocity": 0.71
    },
    {
      "id": "n-01445",
      "pitch": "G#5",
      "midi": 80,
      "start": 66.563,
      "duration": 0.313,
      "velocity": 0.71
    },
    {
      "id": "n-01446",
      "pitch": "D#6",
      "midi": 87,
      "start": 66.563,
      "duration": 0.313,
      "velocity": 0.71
    },
    {
      "id": "n-01447",
      "pitch": "F3",
      "midi": 53,
      "start": 66.719,
      "duration": 0.156,
      "velocity": 0.71
    },
    {
      "id": "n-01448",
      "pitch": "F4",
      "midi": 65,
      "start": 66.719,
      "duration": 0.156,
      "velocity": 0.71
    },
    {
      "id": "n-01449",
      "pitch": "F4",
      "midi": 65,
      "start": 66.719,
      "duration": 0.156,
      "velocity": 0.71
    },
    {
      "id": "n-01450",
      "pitch": "A#3",
      "midi": 58,
      "start": 66.875,
      "duration": 0.313,
      "velocity": 0.71
    },
    {
      "id": "n-01451",
      "pitch": "A#3",
      "midi": 58,
      "start": 66.875,
      "duration": 0.313,
      "velocity": 0.71
    },
    {
      "id": "n-01452",
      "pitch": "C4",
      "midi": 60,
      "start": 66.875,
      "duration": 0.156,
      "velocity": 0.71
    },
    {
      "id": "n-01453",
      "pitch": "C5",
      "midi": 72,
      "start": 66.875,
      "duration": 0.156,
      "velocity": 0.71
    },
    {
      "id": "n-01454",
      "pitch": "C5",
      "midi": 72,
      "start": 66.875,
      "duration": 0.156,
      "velocity": 0.71
    },
    {
      "id": "n-01455",
      "pitch": "A#3",
      "midi": 58,
      "start": 67.031,
      "duration": 0.156,
      "velocity": 0.71
    },
    {
      "id": "n-01456",
      "pitch": "A#4",
      "midi": 70,
      "start": 67.031,
      "duration": 0.156,
      "velocity": 0.71
    },
    {
      "id": "n-01457",
      "pitch": "A#4",
      "midi": 70,
      "start": 67.031,
      "duration": 0.156,
      "velocity": 0.71
    },
    {
      "id": "n-01458",
      "pitch": "A#2",
      "midi": 46,
      "start": 67.188,
      "duration": 0.313,
      "velocity": 0.71
    },
    {
      "id": "n-01459",
      "pitch": "A#2",
      "midi": 46,
      "start": 67.188,
      "duration": 0.313,
      "velocity": 0.71
    },
    {
      "id": "n-01460",
      "pitch": "D#3",
      "midi": 51,
      "start": 67.188,
      "duration": 0.313,
      "velocity": 0.71
    },
    {
      "id": "n-01461",
      "pitch": "G3",
      "midi": 55,
      "start": 67.188,
      "duration": 0.313,
      "velocity": 0.71
    },
    {
      "id": "n-01462",
      "pitch": "G3",
      "midi": 55,
      "start": 67.188,
      "duration": 0.156,
      "velocity": 0.71
    },
    {
      "id": "n-01463",
      "pitch": "A#3",
      "midi": 58,
      "start": 67.188,
      "duration": 0.313,
      "velocity": 0.71
    },
    {
      "id": "n-01464",
      "pitch": "D#4",
      "midi": 63,
      "start": 67.188,
      "duration": 0.313,
      "velocity": 0.71
    },
    {
      "id": "n-01465",
      "pitch": "D#4",
      "midi": 63,
      "start": 67.188,
      "duration": 0.313,
      "velocity": 0.71
    },
    {
      "id": "n-01466",
      "pitch": "G4",
      "midi": 67,
      "start": 67.188,
      "duration": 0.313,
      "velocity": 0.71
    },
    {
      "id": "n-01467",
      "pitch": "G4",
      "midi": 67,
      "start": 67.188,
      "duration": 0.156,
      "velocity": 0.71
    },
    {
      "id": "n-01468",
      "pitch": "G4",
      "midi": 67,
      "start": 67.188,
      "duration": 0.156,
      "velocity": 0.71
    },
    {
      "id": "n-01469",
      "pitch": "D#5",
      "midi": 75,
      "start": 67.188,
      "duration": 0.313,
      "velocity": 0.71
    },
    {
      "id": "n-01470",
      "pitch": "G5",
      "midi": 79,
      "start": 67.188,
      "duration": 0.313,
      "velocity": 0.71
    },
    {
      "id": "n-01471",
      "pitch": "A#5",
      "midi": 82,
      "start": 67.188,
      "duration": 0.313,
      "velocity": 0.71
    },
    {
      "id": "n-01472",
      "pitch": "D#6",
      "midi": 87,
      "start": 67.188,
      "duration": 0.313,
      "velocity": 0.71
    },
    {
      "id": "n-01473",
      "pitch": "D#3",
      "midi": 51,
      "start": 67.344,
      "duration": 0.156,
      "velocity": 0.71
    },
    {
      "id": "n-01474",
      "pitch": "D#4",
      "midi": 63,
      "start": 67.344,
      "duration": 0.156,
      "velocity": 0.71
    },
    {
      "id": "n-01475",
      "pitch": "D#4",
      "midi": 63,
      "start": 67.344,
      "duration": 0.156,
      "velocity": 0.71
    },
    {
      "id": "n-01476",
      "pitch": "D3",
      "midi": 50,
      "start": 67.5,
      "duration": 0.156,
      "velocity": 0.71
    },
    {
      "id": "n-01477",
      "pitch": "A#3",
      "midi": 58,
      "start": 67.5,
      "duration": 0.313,
      "velocity": 0.71
    },
    {
      "id": "n-01478",
      "pitch": "A#3",
      "midi": 58,
      "start": 67.5,
      "duration": 0.313,
      "velocity": 0.71
    },
    {
      "id": "n-01479",
      "pitch": "A#3",
      "midi": 58,
      "start": 67.5,
      "duration": 0.156,
      "velocity": 0.71
    },
    {
      "id": "n-01480",
      "pitch": "A#3",
      "midi": 58,
      "start": 67.5,
      "duration": 0.156,
      "velocity": 0.71
    },
    {
      "id": "n-01481",
      "pitch": "F3",
      "midi": 53,
      "start": 67.656,
      "duration": 0.156,
      "velocity": 0.71
    },
    {
      "id": "n-01482",
      "pitch": "D4",
      "midi": 62,
      "start": 67.656,
      "duration": 0.156,
      "velocity": 0.71
    },
    {
      "id": "n-01483",
      "pitch": "A#4",
      "midi": 70,
      "start": 67.656,
      "duration": 0.156,
      "velocity": 0.71
    },
    {
      "id": "n-01484",
      "pitch": "A#4",
      "midi": 70,
      "start": 67.656,
      "duration": 0.156,
      "velocity": 0.71
    },
    {
      "id": "n-01485",
      "pitch": "A#2",
      "midi": 46,
      "start": 67.813,
      "duration": 0.313,
      "velocity": 0.71
    },
    {
      "id": "n-01486",
      "pitch": "A#2",
      "midi": 46,
      "start": 67.813,
      "duration": 0.313,
      "velocity": 0.71
    },
    {
      "id": "n-01487",
      "pitch": "A#2",
      "midi": 46,
      "start": 67.813,
      "duration": 0.313,
      "velocity": 0.71
    },
    {
      "id": "n-01488",
      "pitch": "A#2",
      "midi": 46,
      "start": 67.813,
      "duration": 0.313,
      "velocity": 0.71
    },
    {
      "id": "n-01489",
      "pitch": "G#3",
      "midi": 56,
      "start": 67.813,
      "duration": 0.156,
      "velocity": 0.71
    },
    {
      "id": "n-01490",
      "pitch": "A#3",
      "midi": 58,
      "start": 67.813,
      "duration": 0.313,
      "velocity": 0.71
    },
    {
      "id": "n-01491",
      "pitch": "A#3",
      "midi": 58,
      "start": 67.813,
      "duration": 0.313,
      "velocity": 0.71
    },
    {
      "id": "n-01492",
      "pitch": "F4",
      "midi": 65,
      "start": 67.813,
      "duration": 0.313,
      "velocity": 0.71
    },
    {
      "id": "n-01493",
      "pitch": "F4",
      "midi": 65,
      "start": 67.813,
      "duration": 0.156,
      "velocity": 0.71
    },
    {
      "id": "n-01494",
      "pitch": "D5",
      "midi": 74,
      "start": 67.813,
      "duration": 0.313,
      "velocity": 0.71
    },
    {
      "id": "n-01495",
      "pitch": "D5",
      "midi": 74,
      "start": 67.813,
      "duration": 0.313,
      "velocity": 0.71
    },
    {
      "id": "n-01496",
      "pitch": "F5",
      "midi": 77,
      "start": 67.813,
      "duration": 0.313,
      "velocity": 0.71
    },
    {
      "id": "n-01497",
      "pitch": "A#5",
      "midi": 82,
      "start": 67.813,
      "duration": 0.313,
      "velocity": 0.71
    },
    {
      "id": "n-01498",
      "pitch": "A#5",
      "midi": 82,
      "start": 67.813,
      "duration": 0.156,
      "velocity": 0.71
    },
    {
      "id": "n-01499",
      "pitch": "A#5",
      "midi": 82,
      "start": 67.813,
      "duration": 0.156,
      "velocity": 0.71
    },
    {
      "id": "n-01500",
      "pitch": "D6",
      "midi": 86,
      "start": 67.813,
      "duration": 0.313,
      "velocity": 0.71
    },
    {
      "id": "n-01501",
      "pitch": "F3",
      "midi": 53,
      "start": 67.969,
      "duration": 0.156,
      "velocity": 0.71
    },
    {
      "id": "n-01502",
      "pitch": "D4",
      "midi": 62,
      "start": 67.969,
      "duration": 0.156,
      "velocity": 0.71
    },
    {
      "id": "n-01503",
      "pitch": "A#5",
      "midi": 82,
      "start": 67.969,
      "duration": 0.156,
      "velocity": 0.71
    },
    {
      "id": "n-01504",
      "pitch": "A#5",
      "midi": 82,
      "start": 67.969,
      "duration": 0.156,
      "velocity": 0.71
    },
    {
      "id": "n-01505",
      "pitch": "D#3",
      "midi": 51,
      "start": 68.125,
      "duration": 2.031,
      "velocity": 0.71
    },
    {
      "id": "n-01506",
      "pitch": "D#3",
      "midi": 51,
      "start": 68.125,
      "duration": 2.031,
      "velocity": 0.71
    },
    {
      "id": "n-01507",
      "pitch": "D#3",
      "midi": 51,
      "start": 68.125,
      "duration": 0.313,
      "velocity": 0.71
    },
    {
      "id": "n-01508",
      "pitch": "D#3",
      "midi": 51,
      "start": 68.125,
      "duration": 0.156,
      "velocity": 0.71
    },
    {
      "id": "n-01509",
      "pitch": "G3",
      "midi": 55,
      "start": 68.125,
      "duration": 2.031,
      "velocity": 0.71
    },
    {
      "id": "n-01510",
      "pitch": "D#4",
      "midi": 63,
      "start": 68.125,
      "duration": 2.031,
      "velocity": 0.71
    },
    {
      "id": "n-01511",
      "pitch": "D#4",
      "midi": 63,
      "start": 68.125,
      "duration": 0.313,
      "velocity": 0.71
    },
    {
      "id": "n-01512",
      "pitch": "D#4",
      "midi": 63,
      "start": 68.125,
      "duration": 0.156,
      "velocity": 0.71
    },
    {
      "id": "n-01513",
      "pitch": "G4",
      "midi": 67,
      "start": 68.125,
      "duration": 0.156,
      "velocity": 0.71
    },
    {
      "id": "n-01514",
      "pitch": "D#5",
      "midi": 75,
      "start": 68.125,
      "duration": 2.031,
      "velocity": 0.71
    },
    {
      "id": "n-01515",
      "pitch": "D#5",
      "midi": 75,
      "start": 68.125,
      "duration": 0.156,
      "velocity": 0.71
    },
    {
      "id": "n-01516",
      "pitch": "D#5",
      "midi": 75,
      "start": 68.125,
      "duration": 0.156,
      "velocity": 0.71
    },
    {
      "id": "n-01517",
      "pitch": "G5",
      "midi": 79,
      "start": 68.125,
      "duration": 0.156,
      "velocity": 0.71
    },
    {
      "id": "n-01518",
      "pitch": "A#5",
      "midi": 82,
      "start": 68.125,
      "duration": 0.156,
      "velocity": 0.71
    },
    {
      "id": "n-01519",
      "pitch": "D#6",
      "midi": 87,
      "start": 68.125,
      "duration": 0.156,
      "velocity": 0.71
    },
    {
      "id": "n-01520",
      "pitch": "G4",
      "midi": 67,
      "start": 68.281,
      "duration": 0.156,
      "velocity": 0.71
    },
    {
      "id": "n-01521",
      "pitch": "G5",
      "midi": 79,
      "start": 68.281,
      "duration": 0.156,
      "velocity": 0.71
    },
    {
      "id": "n-01522",
      "pitch": "G5",
      "midi": 79,
      "start": 68.281,
      "duration": 0.156,
      "velocity": 0.71
    },
    {
      "id": "n-01523",
      "pitch": "G6",
      "midi": 91,
      "start": 68.281,
      "duration": 0.156,
      "velocity": 0.71
    },
    {
      "id": "n-01524",
      "pitch": "G4",
      "midi": 67,
      "start": 68.438,
      "duration": 0.156,
      "velocity": 0.71
    },
    {
      "id": "n-01525",
      "pitch": "G5",
      "midi": 79,
      "start": 68.438,
      "duration": 0.156,
      "velocity": 0.71
    },
    {
      "id": "n-01526",
      "pitch": "G5",
      "midi": 79,
      "start": 68.438,
      "duration": 0.156,
      "velocity": 0.71
    },
    {
      "id": "n-01527",
      "pitch": "G6",
      "midi": 91,
      "start": 68.438,
      "duration": 0.156,
      "velocity": 0.71
    },
    {
      "id": "n-01528",
      "pitch": "G4",
      "midi": 67,
      "start": 68.594,
      "duration": 0.156,
      "velocity": 0.71
    },
    {
      "id": "n-01529",
      "pitch": "G5",
      "midi": 79,
      "start": 68.594,
      "duration": 0.156,
      "velocity": 0.71
    },
    {
      "id": "n-01530",
      "pitch": "G5",
      "midi": 79,
      "start": 68.594,
      "duration": 0.156,
      "velocity": 0.71
    },
    {
      "id": "n-01531",
      "pitch": "G6",
      "midi": 91,
      "start": 68.594,
      "duration": 0.156,
      "velocity": 0.71
    },
    {
      "id": "n-01532",
      "pitch": "D#4",
      "midi": 63,
      "start": 68.75,
      "duration": 0.156,
      "velocity": 0.71
    },
    {
      "id": "n-01533",
      "pitch": "D5",
      "midi": 74,
      "start": 68.75,
      "duration": 0.156,
      "velocity": 0.71
    },
    {
      "id": "n-01534",
      "pitch": "D#5",
      "midi": 75,
      "start": 68.75,
      "duration": 0.156,
      "velocity": 0.71
    },
    {
      "id": "n-01535",
      "pitch": "D#6",
      "midi": 87,
      "start": 68.75,
      "duration": 0.156,
      "velocity": 0.71
    },
    {
      "id": "n-01536",
      "pitch": "A#3",
      "midi": 58,
      "start": 68.906,
      "duration": 0.156,
      "velocity": 0.71
    },
    {
      "id": "n-01537",
      "pitch": "A#3",
      "midi": 58,
      "start": 68.906,
      "duration": 0.156,
      "velocity": 0.71
    },
    {
      "id": "n-01538",
      "pitch": "A#4",
      "midi": 70,
      "start": 68.906,
      "duration": 0.156,
      "velocity": 0.71
    },
    {
      "id": "n-01539",
      "pitch": "A#4",
      "midi": 70,
      "start": 68.906,
      "duration": 0.156,
      "velocity": 0.71
    },
    {
      "id": "n-01540",
      "pitch": "A#5",
      "midi": 82,
      "start": 68.906,
      "duration": 0.156,
      "velocity": 0.71
    },
    {
      "id": "n-01541",
      "pitch": "A#5",
      "midi": 82,
      "start": 68.906,
      "duration": 0.156,
      "velocity": 0.71
    },
    {
      "id": "n-01542",
      "pitch": "A#5",
      "midi": 82,
      "start": 68.906,
      "duration": 0.156,
      "velocity": 0.71
    },
    {
      "id": "n-01543",
      "pitch": "A#3",
      "midi": 58,
      "start": 69.063,
      "duration": 0.156,
      "velocity": 0.71
    },
    {
      "id": "n-01544",
      "pitch": "A#3",
      "midi": 58,
      "start": 69.063,
      "duration": 0.156,
      "velocity": 0.71
    },
    {
      "id": "n-01545",
      "pitch": "A#4",
      "midi": 70,
      "start": 69.063,
      "duration": 0.156,
      "velocity": 0.71
    },
    {
      "id": "n-01546",
      "pitch": "A#4",
      "midi": 70,
      "start": 69.063,
      "duration": 0.156,
      "velocity": 0.71
    },
    {
      "id": "n-01547",
      "pitch": "A#5",
      "midi": 82,
      "start": 69.063,
      "duration": 0.156,
      "velocity": 0.71
    },
    {
      "id": "n-01548",
      "pitch": "A#5",
      "midi": 82,
      "start": 69.063,
      "duration": 0.156,
      "velocity": 0.71
    },
    {
      "id": "n-01549",
      "pitch": "A#5",
      "midi": 82,
      "start": 69.063,
      "duration": 0.156,
      "velocity": 0.71
    },
    {
      "id": "n-01550",
      "pitch": "A#3",
      "midi": 58,
      "start": 69.219,
      "duration": 0.156,
      "velocity": 0.71
    },
    {
      "id": "n-01551",
      "pitch": "A#3",
      "midi": 58,
      "start": 69.219,
      "duration": 0.156,
      "velocity": 0.71
    },
    {
      "id": "n-01552",
      "pitch": "A#4",
      "midi": 70,
      "start": 69.219,
      "duration": 0.156,
      "velocity": 0.71
    },
    {
      "id": "n-01553",
      "pitch": "A#4",
      "midi": 70,
      "start": 69.219,
      "duration": 0.156,
      "velocity": 0.71
    },
    {
      "id": "n-01554",
      "pitch": "A#5",
      "midi": 82,
      "start": 69.219,
      "duration": 0.156,
      "velocity": 0.71
    },
    {
      "id": "n-01555",
      "pitch": "A#5",
      "midi": 82,
      "start": 69.219,
      "duration": 0.156,
      "velocity": 0.71
    },
    {
      "id": "n-01556",
      "pitch": "A#5",
      "midi": 82,
      "start": 69.219,
      "duration": 0.156,
      "velocity": 0.71
    },
    {
      "id": "n-01557",
      "pitch": "G3",
      "midi": 55,
      "start": 69.375,
      "duration": 0.156,
      "velocity": 0.71
    },
    {
      "id": "n-01558",
      "pitch": "G3",
      "midi": 55,
      "start": 69.375,
      "duration": 0.156,
      "velocity": 0.71
    },
    {
      "id": "n-01559",
      "pitch": "G4",
      "midi": 67,
      "start": 69.375,
      "duration": 0.156,
      "velocity": 0.71
    },
    {
      "id": "n-01560",
      "pitch": "G4",
      "midi": 67,
      "start": 69.375,
      "duration": 0.156,
      "velocity": 0.71
    },
    {
      "id": "n-01561",
      "pitch": "G5",
      "midi": 79,
      "start": 69.375,
      "duration": 0.156,
      "velocity": 0.71
    },
    {
      "id": "n-01562",
      "pitch": "G5",
      "midi": 79,
      "start": 69.375,
      "duration": 0.156,
      "velocity": 0.71
    },
    {
      "id": "n-01563",
      "pitch": "G5",
      "midi": 79,
      "start": 69.375,
      "duration": 0.156,
      "velocity": 0.71
    },
    {
      "id": "n-01564",
      "pitch": "D#3",
      "midi": 51,
      "start": 69.531,
      "duration": 0.156,
      "velocity": 0.71
    },
    {
      "id": "n-01565",
      "pitch": "D#3",
      "midi": 51,
      "start": 69.531,
      "duration": 0.156,
      "velocity": 0.71
    },
    {
      "id": "n-01566",
      "pitch": "D#4",
      "midi": 63,
      "start": 69.531,
      "duration": 0.156,
      "velocity": 0.71
    },
    {
      "id": "n-01567",
      "pitch": "D#4",
      "midi": 63,
      "start": 69.531,
      "duration": 0.156,
      "velocity": 0.71
    },
    {
      "id": "n-01568",
      "pitch": "D#5",
      "midi": 75,
      "start": 69.531,
      "duration": 0.156,
      "velocity": 0.71
    },
    {
      "id": "n-01569",
      "pitch": "D#5",
      "midi": 75,
      "start": 69.531,
      "duration": 0.156,
      "velocity": 0.71
    },
    {
      "id": "n-01570",
      "pitch": "D#5",
      "midi": 75,
      "start": 69.531,
      "duration": 0.156,
      "velocity": 0.71
    },
    {
      "id": "n-01571",
      "pitch": "D#3",
      "midi": 51,
      "start": 69.688,
      "duration": 0.156,
      "velocity": 0.71
    },
    {
      "id": "n-01572",
      "pitch": "D#3",
      "midi": 51,
      "start": 69.688,
      "duration": 0.156,
      "velocity": 0.71
    },
    {
      "id": "n-01573",
      "pitch": "D#4",
      "midi": 63,
      "start": 69.688,
      "duration": 0.156,
      "velocity": 0.71
    },
    {
      "id": "n-01574",
      "pitch": "D#4",
      "midi": 63,
      "start": 69.688,
      "duration": 0.156,
      "velocity": 0.71
    },
    {
      "id": "n-01575",
      "pitch": "D#5",
      "midi": 75,
      "start": 69.688,
      "duration": 0.156,
      "velocity": 0.71
    },
    {
      "id": "n-01576",
      "pitch": "D#5",
      "midi": 75,
      "start": 69.688,
      "duration": 0.156,
      "velocity": 0.71
    },
    {
      "id": "n-01577",
      "pitch": "D#5",
      "midi": 75,
      "start": 69.688,
      "duration": 0.156,
      "velocity": 0.71
    },
    {
      "id": "n-01578",
      "pitch": "D#3",
      "midi": 51,
      "start": 69.844,
      "duration": 0.156,
      "velocity": 0.71
    },
    {
      "id": "n-01579",
      "pitch": "D#3",
      "midi": 51,
      "start": 69.844,
      "duration": 0.156,
      "velocity": 0.71
    },
    {
      "id": "n-01580",
      "pitch": "D#4",
      "midi": 63,
      "start": 69.844,
      "duration": 0.156,
      "velocity": 0.71
    },
    {
      "id": "n-01581",
      "pitch": "D#4",
      "midi": 63,
      "start": 69.844,
      "duration": 0.156,
      "velocity": 0.71
    },
    {
      "id": "n-01582",
      "pitch": "D#5",
      "midi": 75,
      "start": 69.844,
      "duration": 0.156,
      "velocity": 0.71
    },
    {
      "id": "n-01583",
      "pitch": "D#5",
      "midi": 75,
      "start": 69.844,
      "duration": 0.156,
      "velocity": 0.71
    },
    {
      "id": "n-01584",
      "pitch": "D#5",
      "midi": 75,
      "start": 69.844,
      "duration": 0.156,
      "velocity": 0.71
    },
    {
      "id": "n-01585",
      "pitch": "A#2",
      "midi": 46,
      "start": 70,
      "duration": 0.938,
      "velocity": 0.71
    },
    {
      "id": "n-01586",
      "pitch": "A#2",
      "midi": 46,
      "start": 70,
      "duration": 0.781,
      "velocity": 0.71
    },
    {
      "id": "n-01587",
      "pitch": "A#3",
      "midi": 58,
      "start": 70,
      "duration": 0.938,
      "velocity": 0.71
    },
    {
      "id": "n-01588",
      "pitch": "A#3",
      "midi": 58,
      "start": 70,
      "duration": 0.781,
      "velocity": 0.71
    },
    {
      "id": "n-01589",
      "pitch": "A#4",
      "midi": 70,
      "start": 70,
      "duration": 0.781,
      "velocity": 0.71
    },
    {
      "id": "n-01590",
      "pitch": "A#4",
      "midi": 70,
      "start": 70,
      "duration": 0.781,
      "velocity": 0.71
    },
    {
      "id": "n-01591",
      "pitch": "A#4",
      "midi": 70,
      "start": 70,
      "duration": 0.781,
      "velocity": 0.71
    },
    {
      "id": "n-01592",
      "pitch": "A#2",
      "midi": 46,
      "start": 70.156,
      "duration": 0.156,
      "velocity": 0.71
    },
    {
      "id": "n-01593",
      "pitch": "A#2",
      "midi": 46,
      "start": 70.156,
      "duration": 0.156,
      "velocity": 0.71
    },
    {
      "id": "n-01594",
      "pitch": "A#3",
      "midi": 58,
      "start": 70.156,
      "duration": 0.156,
      "velocity": 0.71
    },
    {
      "id": "n-01595",
      "pitch": "D4",
      "midi": 62,
      "start": 70.156,
      "duration": 0.156,
      "velocity": 0.71
    },
    {
      "id": "n-01596",
      "pitch": "F5",
      "midi": 77,
      "start": 70.156,
      "duration": 0.156,
      "velocity": 0.71
    },
    {
      "id": "n-01597",
      "pitch": "A#2",
      "midi": 46,
      "start": 70.313,
      "duration": 0.156,
      "velocity": 0.71
    },
    {
      "id": "n-01598",
      "pitch": "A#2",
      "midi": 46,
      "start": 70.313,
      "duration": 0.156,
      "velocity": 0.71
    },
    {
      "id": "n-01599",
      "pitch": "A#3",
      "midi": 58,
      "start": 70.313,
      "duration": 0.156,
      "velocity": 0.71
    },
    {
      "id": "n-01600",
      "pitch": "D4",
      "midi": 62,
      "start": 70.313,
      "duration": 0.156,
      "velocity": 0.71
    },
    {
      "id": "n-01601",
      "pitch": "F5",
      "midi": 77,
      "start": 70.313,
      "duration": 0.156,
      "velocity": 0.71
    },
    {
      "id": "n-01602",
      "pitch": "A#2",
      "midi": 46,
      "start": 70.469,
      "duration": 0.156,
      "velocity": 0.71
    },
    {
      "id": "n-01603",
      "pitch": "A#2",
      "midi": 46,
      "start": 70.469,
      "duration": 0.156,
      "velocity": 0.71
    },
    {
      "id": "n-01604",
      "pitch": "A#3",
      "midi": 58,
      "start": 70.469,
      "duration": 0.156,
      "velocity": 0.71
    },
    {
      "id": "n-01605",
      "pitch": "D4",
      "midi": 62,
      "start": 70.469,
      "duration": 0.156,
      "velocity": 0.71
    },
    {
      "id": "n-01606",
      "pitch": "F5",
      "midi": 77,
      "start": 70.469,
      "duration": 0.156,
      "velocity": 0.71
    },
    {
      "id": "n-01607",
      "pitch": "D#3",
      "midi": 51,
      "start": 70.625,
      "duration": 2.031,
      "velocity": 0.71
    },
    {
      "id": "n-01608",
      "pitch": "D#3",
      "midi": 51,
      "start": 70.625,
      "duration": 2.031,
      "velocity": 0.71
    },
    {
      "id": "n-01609",
      "pitch": "A#3",
      "midi": 58,
      "start": 70.625,
      "duration": 2.031,
      "velocity": 0.71
    },
    {
      "id": "n-01610",
      "pitch": "D#4",
      "midi": 63,
      "start": 70.625,
      "duration": 2.031,
      "velocity": 0.71
    },
    {
      "id": "n-01611",
      "pitch": "G5",
      "midi": 79,
      "start": 70.625,
      "duration": 2.031,
      "velocity": 0.71
    },
    {
      "id": "n-01612",
      "pitch": "G4",
      "midi": 67,
      "start": 70.781,
      "duration": 0.156,
      "velocity": 0.71
    },
    {
      "id": "n-01613",
      "pitch": "G5",
      "midi": 79,
      "start": 70.781,
      "duration": 0.156,
      "velocity": 0.71
    },
    {
      "id": "n-01614",
      "pitch": "G5",
      "midi": 79,
      "start": 70.781,
      "duration": 0.156,
      "velocity": 0.71
    },
    {
      "id": "n-01615",
      "pitch": "G6",
      "midi": 91,
      "start": 70.781,
      "duration": 0.156,
      "velocity": 0.71
    },
    {
      "id": "n-01616",
      "pitch": "G4",
      "midi": 67,
      "start": 70.938,
      "duration": 0.156,
      "velocity": 0.71
    },
    {
      "id": "n-01617",
      "pitch": "G5",
      "midi": 79,
      "start": 70.938,
      "duration": 0.156,
      "velocity": 0.71
    },
    {
      "id": "n-01618",
      "pitch": "G5",
      "midi": 79,
      "start": 70.938,
      "duration": 0.156,
      "velocity": 0.71
    },
    {
      "id": "n-01619",
      "pitch": "G6",
      "midi": 91,
      "start": 70.938,
      "duration": 0.156,
      "velocity": 0.71
    },
    {
      "id": "n-01620",
      "pitch": "G4",
      "midi": 67,
      "start": 71.094,
      "duration": 0.156,
      "velocity": 0.71
    },
    {
      "id": "n-01621",
      "pitch": "G5",
      "midi": 79,
      "start": 71.094,
      "duration": 0.156,
      "velocity": 0.71
    },
    {
      "id": "n-01622",
      "pitch": "G5",
      "midi": 79,
      "start": 71.094,
      "duration": 0.156,
      "velocity": 0.71
    },
    {
      "id": "n-01623",
      "pitch": "G6",
      "midi": 91,
      "start": 71.094,
      "duration": 0.156,
      "velocity": 0.71
    },
    {
      "id": "n-01624",
      "pitch": "D#4",
      "midi": 63,
      "start": 71.25,
      "duration": 0.156,
      "velocity": 0.71
    },
    {
      "id": "n-01625",
      "pitch": "D5",
      "midi": 74,
      "start": 71.25,
      "duration": 0.156,
      "velocity": 0.71
    },
    {
      "id": "n-01626",
      "pitch": "D#5",
      "midi": 75,
      "start": 71.25,
      "duration": 0.156,
      "velocity": 0.71
    },
    {
      "id": "n-01627",
      "pitch": "D#6",
      "midi": 87,
      "start": 71.25,
      "duration": 0.156,
      "velocity": 0.71
    },
    {
      "id": "n-01628",
      "pitch": "A#3",
      "midi": 58,
      "start": 71.406,
      "duration": 0.156,
      "velocity": 0.71
    },
    {
      "id": "n-01629",
      "pitch": "A#3",
      "midi": 58,
      "start": 71.406,
      "duration": 0.156,
      "velocity": 0.71
    },
    {
      "id": "n-01630",
      "pitch": "A#4",
      "midi": 70,
      "start": 71.406,
      "duration": 0.156,
      "velocity": 0.71
    },
    {
      "id": "n-01631",
      "pitch": "A#4",
      "midi": 70,
      "start": 71.406,
      "duration": 0.156,
      "velocity": 0.71
    },
    {
      "id": "n-01632",
      "pitch": "A#5",
      "midi": 82,
      "start": 71.406,
      "duration": 0.156,
      "velocity": 0.71
    },
    {
      "id": "n-01633",
      "pitch": "A#5",
      "midi": 82,
      "start": 71.406,
      "duration": 0.156,
      "velocity": 0.71
    },
    {
      "id": "n-01634",
      "pitch": "A#5",
      "midi": 82,
      "start": 71.406,
      "duration": 0.156,
      "velocity": 0.71
    },
    {
      "id": "n-01635",
      "pitch": "A#3",
      "midi": 58,
      "start": 71.563,
      "duration": 0.156,
      "velocity": 0.71
    },
    {
      "id": "n-01636",
      "pitch": "A#3",
      "midi": 58,
      "start": 71.563,
      "duration": 0.156,
      "velocity": 0.71
    },
    {
      "id": "n-01637",
      "pitch": "A#4",
      "midi": 70,
      "start": 71.563,
      "duration": 0.156,
      "velocity": 0.71
    },
    {
      "id": "n-01638",
      "pitch": "A#4",
      "midi": 70,
      "start": 71.563,
      "duration": 0.156,
      "velocity": 0.71
    },
    {
      "id": "n-01639",
      "pitch": "A#5",
      "midi": 82,
      "start": 71.563,
      "duration": 0.156,
      "velocity": 0.71
    },
    {
      "id": "n-01640",
      "pitch": "A#5",
      "midi": 82,
      "start": 71.563,
      "duration": 0.156,
      "velocity": 0.71
    },
    {
      "id": "n-01641",
      "pitch": "A#5",
      "midi": 82,
      "start": 71.563,
      "duration": 0.156,
      "velocity": 0.71
    },
    {
      "id": "n-01642",
      "pitch": "A#3",
      "midi": 58,
      "start": 71.719,
      "duration": 0.156,
      "velocity": 0.71
    },
    {
      "id": "n-01643",
      "pitch": "A#3",
      "midi": 58,
      "start": 71.719,
      "duration": 0.156,
      "velocity": 0.71
    },
    {
      "id": "n-01644",
      "pitch": "A#4",
      "midi": 70,
      "start": 71.719,
      "duration": 0.156,
      "velocity": 0.71
    },
    {
      "id": "n-01645",
      "pitch": "A#4",
      "midi": 70,
      "start": 71.719,
      "duration": 0.156,
      "velocity": 0.71
    },
    {
      "id": "n-01646",
      "pitch": "A#5",
      "midi": 82,
      "start": 71.719,
      "duration": 0.156,
      "velocity": 0.71
    },
    {
      "id": "n-01647",
      "pitch": "A#5",
      "midi": 82,
      "start": 71.719,
      "duration": 0.156,
      "velocity": 0.71
    },
    {
      "id": "n-01648",
      "pitch": "A#5",
      "midi": 82,
      "start": 71.719,
      "duration": 0.156,
      "velocity": 0.71
    },
    {
      "id": "n-01649",
      "pitch": "G3",
      "midi": 55,
      "start": 71.875,
      "duration": 0.156,
      "velocity": 0.71
    },
    {
      "id": "n-01650",
      "pitch": "G3",
      "midi": 55,
      "start": 71.875,
      "duration": 0.156,
      "velocity": 0.71
    },
    {
      "id": "n-01651",
      "pitch": "G4",
      "midi": 67,
      "start": 71.875,
      "duration": 0.156,
      "velocity": 0.71
    },
    {
      "id": "n-01652",
      "pitch": "G4",
      "midi": 67,
      "start": 71.875,
      "duration": 0.156,
      "velocity": 0.71
    },
    {
      "id": "n-01653",
      "pitch": "G5",
      "midi": 79,
      "start": 71.875,
      "duration": 0.156,
      "velocity": 0.71
    },
    {
      "id": "n-01654",
      "pitch": "G5",
      "midi": 79,
      "start": 71.875,
      "duration": 0.156,
      "velocity": 0.71
    },
    {
      "id": "n-01655",
      "pitch": "G5",
      "midi": 79,
      "start": 71.875,
      "duration": 0.156,
      "velocity": 0.71
    },
    {
      "id": "n-01656",
      "pitch": "D#3",
      "midi": 51,
      "start": 72.031,
      "duration": 0.156,
      "velocity": 0.71
    },
    {
      "id": "n-01657",
      "pitch": "D#3",
      "midi": 51,
      "start": 72.031,
      "duration": 0.156,
      "velocity": 0.71
    },
    {
      "id": "n-01658",
      "pitch": "D#4",
      "midi": 63,
      "start": 72.031,
      "duration": 0.156,
      "velocity": 0.71
    },
    {
      "id": "n-01659",
      "pitch": "D#4",
      "midi": 63,
      "start": 72.031,
      "duration": 0.156,
      "velocity": 0.71
    },
    {
      "id": "n-01660",
      "pitch": "D#5",
      "midi": 75,
      "start": 72.031,
      "duration": 0.156,
      "velocity": 0.71
    },
    {
      "id": "n-01661",
      "pitch": "D#5",
      "midi": 75,
      "start": 72.031,
      "duration": 0.156,
      "velocity": 0.71
    },
    {
      "id": "n-01662",
      "pitch": "D#5",
      "midi": 75,
      "start": 72.031,
      "duration": 0.156,
      "velocity": 0.71
    },
    {
      "id": "n-01663",
      "pitch": "D#3",
      "midi": 51,
      "start": 72.188,
      "duration": 0.156,
      "velocity": 0.71
    },
    {
      "id": "n-01664",
      "pitch": "D#3",
      "midi": 51,
      "start": 72.188,
      "duration": 0.156,
      "velocity": 0.71
    },
    {
      "id": "n-01665",
      "pitch": "D#4",
      "midi": 63,
      "start": 72.188,
      "duration": 0.156,
      "velocity": 0.71
    },
    {
      "id": "n-01666",
      "pitch": "D#4",
      "midi": 63,
      "start": 72.188,
      "duration": 0.156,
      "velocity": 0.71
    },
    {
      "id": "n-01667",
      "pitch": "D#5",
      "midi": 75,
      "start": 72.188,
      "duration": 0.156,
      "velocity": 0.71
    },
    {
      "id": "n-01668",
      "pitch": "D#5",
      "midi": 75,
      "start": 72.188,
      "duration": 0.156,
      "velocity": 0.71
    },
    {
      "id": "n-01669",
      "pitch": "D#5",
      "midi": 75,
      "start": 72.188,
      "duration": 0.156,
      "velocity": 0.71
    },
    {
      "id": "n-01670",
      "pitch": "D#3",
      "midi": 51,
      "start": 72.344,
      "duration": 0.156,
      "velocity": 0.71
    },
    {
      "id": "n-01671",
      "pitch": "D#3",
      "midi": 51,
      "start": 72.344,
      "duration": 0.156,
      "velocity": 0.71
    },
    {
      "id": "n-01672",
      "pitch": "D#4",
      "midi": 63,
      "start": 72.344,
      "duration": 0.156,
      "velocity": 0.71
    },
    {
      "id": "n-01673",
      "pitch": "D#4",
      "midi": 63,
      "start": 72.344,
      "duration": 0.156,
      "velocity": 0.71
    },
    {
      "id": "n-01674",
      "pitch": "D#5",
      "midi": 75,
      "start": 72.344,
      "duration": 0.156,
      "velocity": 0.71
    },
    {
      "id": "n-01675",
      "pitch": "D#5",
      "midi": 75,
      "start": 72.344,
      "duration": 0.156,
      "velocity": 0.71
    },
    {
      "id": "n-01676",
      "pitch": "D#5",
      "midi": 75,
      "start": 72.344,
      "duration": 0.156,
      "velocity": 0.71
    },
    {
      "id": "n-01677",
      "pitch": "A#2",
      "midi": 46,
      "start": 72.5,
      "duration": 0.938,
      "velocity": 0.71
    },
    {
      "id": "n-01678",
      "pitch": "A#2",
      "midi": 46,
      "start": 72.5,
      "duration": 0.938,
      "velocity": 0.71
    },
    {
      "id": "n-01679",
      "pitch": "A#3",
      "midi": 58,
      "start": 72.5,
      "duration": 0.938,
      "velocity": 0.71
    },
    {
      "id": "n-01680",
      "pitch": "A#3",
      "midi": 58,
      "start": 72.5,
      "duration": 0.938,
      "velocity": 0.71
    },
    {
      "id": "n-01681",
      "pitch": "A#4",
      "midi": 70,
      "start": 72.5,
      "duration": 0.938,
      "velocity": 0.71
    },
    {
      "id": "n-01682",
      "pitch": "A#4",
      "midi": 70,
      "start": 72.5,
      "duration": 0.938,
      "velocity": 0.71
    },
    {
      "id": "n-01683",
      "pitch": "A#4",
      "midi": 70,
      "start": 72.5,
      "duration": 0.938,
      "velocity": 0.71
    },
    {
      "id": "n-01684",
      "pitch": "A#2",
      "midi": 46,
      "start": 72.656,
      "duration": 0.156,
      "velocity": 0.71
    },
    {
      "id": "n-01685",
      "pitch": "A#2",
      "midi": 46,
      "start": 72.656,
      "duration": 0.156,
      "velocity": 0.71
    },
    {
      "id": "n-01686",
      "pitch": "A#3",
      "midi": 58,
      "start": 72.656,
      "duration": 0.156,
      "velocity": 0.71
    },
    {
      "id": "n-01687",
      "pitch": "F4",
      "midi": 65,
      "start": 72.656,
      "duration": 0.156,
      "velocity": 0.71
    },
    {
      "id": "n-01688",
      "pitch": "A#4",
      "midi": 70,
      "start": 72.656,
      "duration": 0.156,
      "velocity": 0.71
    },
    {
      "id": "n-01689",
      "pitch": "D5",
      "midi": 74,
      "start": 72.656,
      "duration": 0.156,
      "velocity": 0.71
    },
    {
      "id": "n-01690",
      "pitch": "A#5",
      "midi": 82,
      "start": 72.656,
      "duration": 0.156,
      "velocity": 0.71
    },
    {
      "id": "n-01691",
      "pitch": "A#2",
      "midi": 46,
      "start": 72.813,
      "duration": 0.156,
      "velocity": 0.71
    },
    {
      "id": "n-01692",
      "pitch": "A#2",
      "midi": 46,
      "start": 72.813,
      "duration": 0.156,
      "velocity": 0.71
    },
    {
      "id": "n-01693",
      "pitch": "A#3",
      "midi": 58,
      "start": 72.813,
      "duration": 0.156,
      "velocity": 0.71
    },
    {
      "id": "n-01694",
      "pitch": "F4",
      "midi": 65,
      "start": 72.813,
      "duration": 0.156,
      "velocity": 0.71
    },
    {
      "id": "n-01695",
      "pitch": "A#4",
      "midi": 70,
      "start": 72.813,
      "duration": 0.156,
      "velocity": 0.71
    },
    {
      "id": "n-01696",
      "pitch": "D5",
      "midi": 74,
      "start": 72.813,
      "duration": 0.156,
      "velocity": 0.71
    },
    {
      "id": "n-01697",
      "pitch": "A#5",
      "midi": 82,
      "start": 72.813,
      "duration": 0.156,
      "velocity": 0.71
    },
    {
      "id": "n-01698",
      "pitch": "A#2",
      "midi": 46,
      "start": 72.969,
      "duration": 0.156,
      "velocity": 0.71
    },
    {
      "id": "n-01699",
      "pitch": "A#2",
      "midi": 46,
      "start": 72.969,
      "duration": 0.156,
      "velocity": 0.71
    },
    {
      "id": "n-01700",
      "pitch": "A#3",
      "midi": 58,
      "start": 72.969,
      "duration": 0.156,
      "velocity": 0.71
    },
    {
      "id": "n-01701",
      "pitch": "F4",
      "midi": 65,
      "start": 72.969,
      "duration": 0.156,
      "velocity": 0.71
    },
    {
      "id": "n-01702",
      "pitch": "A#4",
      "midi": 70,
      "start": 72.969,
      "duration": 0.156,
      "velocity": 0.71
    },
    {
      "id": "n-01703",
      "pitch": "D5",
      "midi": 74,
      "start": 72.969,
      "duration": 0.156,
      "velocity": 0.71
    },
    {
      "id": "n-01704",
      "pitch": "A#5",
      "midi": 82,
      "start": 72.969,
      "duration": 0.156,
      "velocity": 0.71
    },
    {
      "id": "n-01705",
      "pitch": "D#3",
      "midi": 51,
      "start": 73.125,
      "duration": 0.313,
      "velocity": 0.71
    },
    {
      "id": "n-01706",
      "pitch": "D#3",
      "midi": 51,
      "start": 73.125,
      "duration": 0.313,
      "velocity": 0.71
    },
    {
      "id": "n-01707",
      "pitch": "A#3",
      "midi": 58,
      "start": 73.125,
      "duration": 0.313,
      "velocity": 0.71
    },
    {
      "id": "n-01708",
      "pitch": "G4",
      "midi": 67,
      "start": 73.125,
      "duration": 0.313,
      "velocity": 0.71
    },
    {
      "id": "n-01709",
      "pitch": "A#4",
      "midi": 70,
      "start": 73.125,
      "duration": 0.313,
      "velocity": 0.71
    },
    {
      "id": "n-01710",
      "pitch": "D#5",
      "midi": 75,
      "start": 73.125,
      "duration": 0.313,
      "velocity": 0.71
    },
    {
      "id": "n-01711",
      "pitch": "A#5",
      "midi": 82,
      "start": 73.125,
      "duration": 0.313,
      "velocity": 0.71
    },
    {
      "id": "n-01712",
      "pitch": "A#2",
      "midi": 46,
      "start": 73.906,
      "duration": 0.156,
      "velocity": 0.71
    },
    {
      "id": "n-01713",
      "pitch": "A#2",
      "midi": 46,
      "start": 73.906,
      "duration": 0.156,
      "velocity": 0.71
    },
    {
      "id": "n-01714",
      "pitch": "A#2",
      "midi": 46,
      "start": 73.906,
      "duration": 0.156,
      "velocity": 0.71
    },
    {
      "id": "n-01715",
      "pitch": "A#3",
      "midi": 58,
      "start": 73.906,
      "duration": 0.156,
      "velocity": 0.71
    },
    {
      "id": "n-01716",
      "pitch": "A#3",
      "midi": 58,
      "start": 73.906,
      "duration": 0.156,
      "velocity": 0.71
    },
    {
      "id": "n-01717",
      "pitch": "A#3",
      "midi": 58,
      "start": 73.906,
      "duration": 0.156,
      "velocity": 0.71
    },
    {
      "id": "n-01718",
      "pitch": "D4",
      "midi": 62,
      "start": 73.906,
      "duration": 0.156,
      "velocity": 0.71
    },
    {
      "id": "n-01719",
      "pitch": "F4",
      "midi": 65,
      "start": 73.906,
      "duration": 0.156,
      "velocity": 0.71
    },
    {
      "id": "n-01720",
      "pitch": "F4",
      "midi": 65,
      "start": 73.906,
      "duration": 0.156,
      "velocity": 0.71
    },
    {
      "id": "n-01721",
      "pitch": "A#4",
      "midi": 70,
      "start": 73.906,
      "duration": 0.156,
      "velocity": 0.71
    },
    {
      "id": "n-01722",
      "pitch": "D5",
      "midi": 74,
      "start": 73.906,
      "duration": 0.156,
      "velocity": 0.71
    },
    {
      "id": "n-01723",
      "pitch": "D5",
      "midi": 74,
      "start": 73.906,
      "duration": 0.156,
      "velocity": 0.71
    },
    {
      "id": "n-01724",
      "pitch": "D5",
      "midi": 74,
      "start": 73.906,
      "duration": 0.156,
      "velocity": 0.71
    },
    {
      "id": "n-01725",
      "pitch": "F5",
      "midi": 77,
      "start": 73.906,
      "duration": 0.156,
      "velocity": 0.71
    },
    {
      "id": "n-01726",
      "pitch": "A#5",
      "midi": 82,
      "start": 73.906,
      "duration": 0.156,
      "velocity": 0.71
    },
    {
      "id": "n-01727",
      "pitch": "A#5",
      "midi": 82,
      "start": 73.906,
      "duration": 0.156,
      "velocity": 0.71
    },
    {
      "id": "n-01728",
      "pitch": "A#2",
      "midi": 46,
      "start": 74.063,
      "duration": 0.156,
      "velocity": 0.71
    },
    {
      "id": "n-01729",
      "pitch": "A#2",
      "midi": 46,
      "start": 74.063,
      "duration": 0.156,
      "velocity": 0.71
    },
    {
      "id": "n-01730",
      "pitch": "A#2",
      "midi": 46,
      "start": 74.063,
      "duration": 0.156,
      "velocity": 0.71
    },
    {
      "id": "n-01731",
      "pitch": "A#3",
      "midi": 58,
      "start": 74.063,
      "duration": 0.156,
      "velocity": 0.71
    },
    {
      "id": "n-01732",
      "pitch": "A#3",
      "midi": 58,
      "start": 74.063,
      "duration": 0.156,
      "velocity": 0.71
    },
    {
      "id": "n-01733",
      "pitch": "A#3",
      "midi": 58,
      "start": 74.063,
      "duration": 0.156,
      "velocity": 0.71
    },
    {
      "id": "n-01734",
      "pitch": "D4",
      "midi": 62,
      "start": 74.063,
      "duration": 0.156,
      "velocity": 0.71
    },
    {
      "id": "n-01735",
      "pitch": "F4",
      "midi": 65,
      "start": 74.063,
      "duration": 0.156,
      "velocity": 0.71
    },
    {
      "id": "n-01736",
      "pitch": "F4",
      "midi": 65,
      "start": 74.063,
      "duration": 0.156,
      "velocity": 0.71
    },
    {
      "id": "n-01737",
      "pitch": "A#4",
      "midi": 70,
      "start": 74.063,
      "duration": 0.156,
      "velocity": 0.71
    },
    {
      "id": "n-01738",
      "pitch": "D5",
      "midi": 74,
      "start": 74.063,
      "duration": 0.156,
      "velocity": 0.71
    },
    {
      "id": "n-01739",
      "pitch": "D5",
      "midi": 74,
      "start": 74.063,
      "duration": 0.156,
      "velocity": 0.71
    },
    {
      "id": "n-01740",
      "pitch": "D5",
      "midi": 74,
      "start": 74.063,
      "duration": 0.156,
      "velocity": 0.71
    },
    {
      "id": "n-01741",
      "pitch": "F5",
      "midi": 77,
      "start": 74.063,
      "duration": 0.156,
      "velocity": 0.71
    },
    {
      "id": "n-01742",
      "pitch": "A#5",
      "midi": 82,
      "start": 74.063,
      "duration": 0.156,
      "velocity": 0.71
    },
    {
      "id": "n-01743",
      "pitch": "A#5",
      "midi": 82,
      "start": 74.063,
      "duration": 0.156,
      "velocity": 0.71
    },
    {
      "id": "n-01744",
      "pitch": "A#2",
      "midi": 46,
      "start": 74.219,
      "duration": 0.156,
      "velocity": 0.71
    },
    {
      "id": "n-01745",
      "pitch": "A#2",
      "midi": 46,
      "start": 74.219,
      "duration": 0.156,
      "velocity": 0.71
    },
    {
      "id": "n-01746",
      "pitch": "A#2",
      "midi": 46,
      "start": 74.219,
      "duration": 0.156,
      "velocity": 0.71
    },
    {
      "id": "n-01747",
      "pitch": "A#3",
      "midi": 58,
      "start": 74.219,
      "duration": 0.156,
      "velocity": 0.71
    },
    {
      "id": "n-01748",
      "pitch": "A#3",
      "midi": 58,
      "start": 74.219,
      "duration": 0.156,
      "velocity": 0.71
    },
    {
      "id": "n-01749",
      "pitch": "A#3",
      "midi": 58,
      "start": 74.219,
      "duration": 0.156,
      "velocity": 0.71
    },
    {
      "id": "n-01750",
      "pitch": "D4",
      "midi": 62,
      "start": 74.219,
      "duration": 0.156,
      "velocity": 0.71
    },
    {
      "id": "n-01751",
      "pitch": "F4",
      "midi": 65,
      "start": 74.219,
      "duration": 0.156,
      "velocity": 0.71
    },
    {
      "id": "n-01752",
      "pitch": "F4",
      "midi": 65,
      "start": 74.219,
      "duration": 0.156,
      "velocity": 0.71
    },
    {
      "id": "n-01753",
      "pitch": "A#4",
      "midi": 70,
      "start": 74.219,
      "duration": 0.156,
      "velocity": 0.71
    },
    {
      "id": "n-01754",
      "pitch": "D5",
      "midi": 74,
      "start": 74.219,
      "duration": 0.156,
      "velocity": 0.71
    },
    {
      "id": "n-01755",
      "pitch": "D5",
      "midi": 74,
      "start": 74.219,
      "duration": 0.156,
      "velocity": 0.71
    },
    {
      "id": "n-01756",
      "pitch": "D5",
      "midi": 74,
      "start": 74.219,
      "duration": 0.156,
      "velocity": 0.71
    },
    {
      "id": "n-01757",
      "pitch": "F5",
      "midi": 77,
      "start": 74.219,
      "duration": 0.156,
      "velocity": 0.71
    },
    {
      "id": "n-01758",
      "pitch": "A#5",
      "midi": 82,
      "start": 74.219,
      "duration": 0.156,
      "velocity": 0.71
    },
    {
      "id": "n-01759",
      "pitch": "A#5",
      "midi": 82,
      "start": 74.219,
      "duration": 0.156,
      "velocity": 0.71
    },
    {
      "id": "n-01760",
      "pitch": "D#3",
      "midi": 51,
      "start": 74.375,
      "duration": 0.313,
      "velocity": 0.71
    },
    {
      "id": "n-01761",
      "pitch": "D#3",
      "midi": 51,
      "start": 74.375,
      "duration": 0.313,
      "velocity": 0.71
    },
    {
      "id": "n-01762",
      "pitch": "D#3",
      "midi": 51,
      "start": 74.375,
      "duration": 0.313,
      "velocity": 0.71
    },
    {
      "id": "n-01763",
      "pitch": "A#3",
      "midi": 58,
      "start": 74.375,
      "duration": 0.313,
      "velocity": 0.71
    },
    {
      "id": "n-01764",
      "pitch": "A#3",
      "midi": 58,
      "start": 74.375,
      "duration": 0.313,
      "velocity": 0.71
    },
    {
      "id": "n-01765",
      "pitch": "D#4",
      "midi": 63,
      "start": 74.375,
      "duration": 0.313,
      "velocity": 0.71
    },
    {
      "id": "n-01766",
      "pitch": "D#4",
      "midi": 63,
      "start": 74.375,
      "duration": 0.313,
      "velocity": 0.71
    },
    {
      "id": "n-01767",
      "pitch": "G4",
      "midi": 67,
      "start": 74.375,
      "duration": 0.313,
      "velocity": 0.71
    },
    {
      "id": "n-01768",
      "pitch": "G4",
      "midi": 67,
      "start": 74.375,
      "duration": 0.313,
      "velocity": 0.71
    },
    {
      "id": "n-01769",
      "pitch": "A#4",
      "midi": 70,
      "start": 74.375,
      "duration": 0.313,
      "velocity": 0.71
    },
    {
      "id": "n-01770",
      "pitch": "D#5",
      "midi": 75,
      "start": 74.375,
      "duration": 0.313,
      "velocity": 0.71
    },
    {
      "id": "n-01771",
      "pitch": "D#5",
      "midi": 75,
      "start": 74.375,
      "duration": 0.313,
      "velocity": 0.71
    },
    {
      "id": "n-01772",
      "pitch": "D#5",
      "midi": 75,
      "start": 74.375,
      "duration": 0.313,
      "velocity": 0.71
    },
    {
      "id": "n-01773",
      "pitch": "G5",
      "midi": 79,
      "start": 74.375,
      "duration": 0.313,
      "velocity": 0.71
    },
    {
      "id": "n-01774",
      "pitch": "A#5",
      "midi": 82,
      "start": 74.375,
      "duration": 0.313,
      "velocity": 0.71
    },
    {
      "id": "n-01775",
      "pitch": "A#5",
      "midi": 82,
      "start": 74.375,
      "duration": 0.313,
      "velocity": 0.71
    },
    {
      "id": "n-01776",
      "pitch": "A#2",
      "midi": 46,
      "start": 75.156,
      "duration": 0.156,
      "velocity": 0.71
    },
    {
      "id": "n-01777",
      "pitch": "A#2",
      "midi": 46,
      "start": 75.156,
      "duration": 0.156,
      "velocity": 0.71
    },
    {
      "id": "n-01778",
      "pitch": "A#2",
      "midi": 46,
      "start": 75.156,
      "duration": 0.156,
      "velocity": 0.71
    },
    {
      "id": "n-01779",
      "pitch": "A#3",
      "midi": 58,
      "start": 75.156,
      "duration": 0.156,
      "velocity": 0.71
    },
    {
      "id": "n-01780",
      "pitch": "A#3",
      "midi": 58,
      "start": 75.156,
      "duration": 0.156,
      "velocity": 0.71
    },
    {
      "id": "n-01781",
      "pitch": "F4",
      "midi": 65,
      "start": 75.156,
      "duration": 0.156,
      "velocity": 0.71
    },
    {
      "id": "n-01782",
      "pitch": "A#4",
      "midi": 70,
      "start": 75.156,
      "duration": 0.156,
      "velocity": 0.71
    },
    {
      "id": "n-01783",
      "pitch": "D5",
      "midi": 74,
      "start": 75.156,
      "duration": 0.156,
      "velocity": 0.71
    },
    {
      "id": "n-01784",
      "pitch": "F5",
      "midi": 77,
      "start": 75.156,
      "duration": 0.156,
      "velocity": 0.71
    },
    {
      "id": "n-01785",
      "pitch": "F5",
      "midi": 77,
      "start": 75.156,
      "duration": 0.156,
      "velocity": 0.71
    },
    {
      "id": "n-01786",
      "pitch": "F5",
      "midi": 77,
      "start": 75.156,
      "duration": 0.156,
      "velocity": 0.71
    },
    {
      "id": "n-01787",
      "pitch": "F5",
      "midi": 77,
      "start": 75.156,
      "duration": 0.156,
      "velocity": 0.71
    },
    {
      "id": "n-01788",
      "pitch": "F5",
      "midi": 77,
      "start": 75.156,
      "duration": 0.156,
      "velocity": 0.71
    },
    {
      "id": "n-01789",
      "pitch": "A#5",
      "midi": 82,
      "start": 75.156,
      "duration": 0.156,
      "velocity": 0.71
    },
    {
      "id": "n-01790",
      "pitch": "D6",
      "midi": 86,
      "start": 75.156,
      "duration": 0.156,
      "velocity": 0.71
    },
    {
      "id": "n-01791",
      "pitch": "D6",
      "midi": 86,
      "start": 75.156,
      "duration": 0.156,
      "velocity": 0.71
    },
    {
      "id": "n-01792",
      "pitch": "A#2",
      "midi": 46,
      "start": 75.313,
      "duration": 0.156,
      "velocity": 0.71
    },
    {
      "id": "n-01793",
      "pitch": "A#2",
      "midi": 46,
      "start": 75.313,
      "duration": 0.156,
      "velocity": 0.71
    },
    {
      "id": "n-01794",
      "pitch": "A#2",
      "midi": 46,
      "start": 75.313,
      "duration": 0.156,
      "velocity": 0.71
    },
    {
      "id": "n-01795",
      "pitch": "A#3",
      "midi": 58,
      "start": 75.313,
      "duration": 0.156,
      "velocity": 0.71
    },
    {
      "id": "n-01796",
      "pitch": "A#3",
      "midi": 58,
      "start": 75.313,
      "duration": 0.156,
      "velocity": 0.71
    },
    {
      "id": "n-01797",
      "pitch": "F4",
      "midi": 65,
      "start": 75.313,
      "duration": 0.156,
      "velocity": 0.71
    },
    {
      "id": "n-01798",
      "pitch": "A#4",
      "midi": 70,
      "start": 75.313,
      "duration": 0.156,
      "velocity": 0.71
    },
    {
      "id": "n-01799",
      "pitch": "D5",
      "midi": 74,
      "start": 75.313,
      "duration": 0.156,
      "velocity": 0.71
    },
    {
      "id": "n-01800",
      "pitch": "F5",
      "midi": 77,
      "start": 75.313,
      "duration": 0.156,
      "velocity": 0.71
    },
    {
      "id": "n-01801",
      "pitch": "F5",
      "midi": 77,
      "start": 75.313,
      "duration": 0.156,
      "velocity": 0.71
    },
    {
      "id": "n-01802",
      "pitch": "F5",
      "midi": 77,
      "start": 75.313,
      "duration": 0.156,
      "velocity": 0.71
    },
    {
      "id": "n-01803",
      "pitch": "F5",
      "midi": 77,
      "start": 75.313,
      "duration": 0.156,
      "velocity": 0.71
    },
    {
      "id": "n-01804",
      "pitch": "F5",
      "midi": 77,
      "start": 75.313,
      "duration": 0.156,
      "velocity": 0.71
    },
    {
      "id": "n-01805",
      "pitch": "A#5",
      "midi": 82,
      "start": 75.313,
      "duration": 0.156,
      "velocity": 0.71
    },
    {
      "id": "n-01806",
      "pitch": "D6",
      "midi": 86,
      "start": 75.313,
      "duration": 0.156,
      "velocity": 0.71
    },
    {
      "id": "n-01807",
      "pitch": "D6",
      "midi": 86,
      "start": 75.313,
      "duration": 0.156,
      "velocity": 0.71
    },
    {
      "id": "n-01808",
      "pitch": "A#2",
      "midi": 46,
      "start": 75.469,
      "duration": 0.156,
      "velocity": 0.71
    },
    {
      "id": "n-01809",
      "pitch": "A#2",
      "midi": 46,
      "start": 75.469,
      "duration": 0.156,
      "velocity": 0.71
    },
    {
      "id": "n-01810",
      "pitch": "A#2",
      "midi": 46,
      "start": 75.469,
      "duration": 0.156,
      "velocity": 0.71
    },
    {
      "id": "n-01811",
      "pitch": "A#3",
      "midi": 58,
      "start": 75.469,
      "duration": 0.156,
      "velocity": 0.71
    },
    {
      "id": "n-01812",
      "pitch": "A#3",
      "midi": 58,
      "start": 75.469,
      "duration": 0.156,
      "velocity": 0.71
    },
    {
      "id": "n-01813",
      "pitch": "F4",
      "midi": 65,
      "start": 75.469,
      "duration": 0.156,
      "velocity": 0.71
    },
    {
      "id": "n-01814",
      "pitch": "A#4",
      "midi": 70,
      "start": 75.469,
      "duration": 0.156,
      "velocity": 0.71
    },
    {
      "id": "n-01815",
      "pitch": "D5",
      "midi": 74,
      "start": 75.469,
      "duration": 0.156,
      "velocity": 0.71
    },
    {
      "id": "n-01816",
      "pitch": "F5",
      "midi": 77,
      "start": 75.469,
      "duration": 0.156,
      "velocity": 0.71
    },
    {
      "id": "n-01817",
      "pitch": "F5",
      "midi": 77,
      "start": 75.469,
      "duration": 0.156,
      "velocity": 0.71
    },
    {
      "id": "n-01818",
      "pitch": "F5",
      "midi": 77,
      "start": 75.469,
      "duration": 0.156,
      "velocity": 0.71
    },
    {
      "id": "n-01819",
      "pitch": "F5",
      "midi": 77,
      "start": 75.469,
      "duration": 0.156,
      "velocity": 0.71
    },
    {
      "id": "n-01820",
      "pitch": "F5",
      "midi": 77,
      "start": 75.469,
      "duration": 0.156,
      "velocity": 0.71
    },
    {
      "id": "n-01821",
      "pitch": "A#5",
      "midi": 82,
      "start": 75.469,
      "duration": 0.156,
      "velocity": 0.71
    },
    {
      "id": "n-01822",
      "pitch": "D6",
      "midi": 86,
      "start": 75.469,
      "duration": 0.156,
      "velocity": 0.71
    },
    {
      "id": "n-01823",
      "pitch": "D6",
      "midi": 86,
      "start": 75.469,
      "duration": 0.156,
      "velocity": 0.71
    },
    {
      "id": "n-01824",
      "pitch": "D#3",
      "midi": 51,
      "start": 75.625,
      "duration": 0.313,
      "velocity": 0.71
    },
    {
      "id": "n-01825",
      "pitch": "D#3",
      "midi": 51,
      "start": 75.625,
      "duration": 0.313,
      "velocity": 0.71
    },
    {
      "id": "n-01826",
      "pitch": "D#3",
      "midi": 51,
      "start": 75.625,
      "duration": 0.313,
      "velocity": 0.71
    },
    {
      "id": "n-01827",
      "pitch": "D#3",
      "midi": 51,
      "start": 75.625,
      "duration": 0.313,
      "velocity": 0.71
    },
    {
      "id": "n-01828",
      "pitch": "D#4",
      "midi": 63,
      "start": 75.625,
      "duration": 0.313,
      "velocity": 0.71
    },
    {
      "id": "n-01829",
      "pitch": "D#4",
      "midi": 63,
      "start": 75.625,
      "duration": 0.313,
      "velocity": 0.71
    },
    {
      "id": "n-01830",
      "pitch": "D#4",
      "midi": 63,
      "start": 75.625,
      "duration": 0.313,
      "velocity": 0.71
    },
    {
      "id": "n-01831",
      "pitch": "G4",
      "midi": 67,
      "start": 75.625,
      "duration": 0.313,
      "velocity": 0.71
    },
    {
      "id": "n-01832",
      "pitch": "A#4",
      "midi": 70,
      "start": 75.625,
      "duration": 0.313,
      "velocity": 0.71
    },
    {
      "id": "n-01833",
      "pitch": "D#5",
      "midi": 75,
      "start": 75.625,
      "duration": 0.313,
      "velocity": 0.71
    },
    {
      "id": "n-01834",
      "pitch": "D#5",
      "midi": 75,
      "start": 75.625,
      "duration": 0.313,
      "velocity": 0.71
    },
    {
      "id": "n-01835",
      "pitch": "G5",
      "midi": 79,
      "start": 75.625,
      "duration": 0.313,
      "velocity": 0.71
    },
    {
      "id": "n-01836",
      "pitch": "G5",
      "midi": 79,
      "start": 75.625,
      "duration": 0.313,
      "velocity": 0.71
    },
    {
      "id": "n-01837",
      "pitch": "G5",
      "midi": 79,
      "start": 75.625,
      "duration": 0.313,
      "velocity": 0.71
    },
    {
      "id": "n-01838",
      "pitch": "G5",
      "midi": 79,
      "start": 75.625,
      "duration": 0.313,
      "velocity": 0.71
    },
    {
      "id": "n-01839",
      "pitch": "D#6",
      "midi": 87,
      "start": 75.625,
      "duration": 0.313,
      "velocity": 0.71
    },
    {
      "id": "n-01840",
      "pitch": "D#6",
      "midi": 87,
      "start": 75.625,
      "duration": 0.313,
      "velocity": 0.71
    },
    {
      "id": "n-01841",
      "pitch": "A#4",
      "midi": 70,
      "start": 77.656,
      "duration": 0.156,
      "velocity": 0.71
    },
    {
      "id": "n-01842",
      "pitch": "A#4",
      "midi": 70,
      "start": 77.656,
      "duration": 0.156,
      "velocity": 0.71
    },
    {
      "id": "n-01843",
      "pitch": "A#4",
      "midi": 70,
      "start": 77.813,
      "duration": 0.156,
      "velocity": 0.71
    },
    {
      "id": "n-01844",
      "pitch": "A#4",
      "midi": 70,
      "start": 77.813,
      "duration": 0.156,
      "velocity": 0.71
    },
    {
      "id": "n-01845",
      "pitch": "A#4",
      "midi": 70,
      "start": 77.969,
      "duration": 0.156,
      "velocity": 0.71
    },
    {
      "id": "n-01846",
      "pitch": "A#4",
      "midi": 70,
      "start": 77.969,
      "duration": 0.156,
      "velocity": 0.71
    },
    {
      "id": "n-01847",
      "pitch": "G4",
      "midi": 67,
      "start": 78.125,
      "duration": 1.875,
      "velocity": 0.71
    },
    {
      "id": "n-01848",
      "pitch": "G4",
      "midi": 67,
      "start": 78.125,
      "duration": 1.875,
      "velocity": 0.71
    },
    {
      "id": "n-01849",
      "pitch": "G4",
      "midi": 67,
      "start": 78.125,
      "duration": 1.875,
      "velocity": 0.71
    },
    {
      "id": "n-01850",
      "pitch": "C#3",
      "midi": 49,
      "start": 78.281,
      "duration": 0.156,
      "velocity": 0.71
    },
    {
      "id": "n-01851",
      "pitch": "C#3",
      "midi": 49,
      "start": 78.281,
      "duration": 0.156,
      "velocity": 0.71
    },
    {
      "id": "n-01852",
      "pitch": "C#3",
      "midi": 49,
      "start": 78.281,
      "duration": 0.156,
      "velocity": 0.71
    },
    {
      "id": "n-01853",
      "pitch": "C#4",
      "midi": 61,
      "start": 78.281,
      "duration": 0.156,
      "velocity": 0.71
    },
    {
      "id": "n-01854",
      "pitch": "C#4",
      "midi": 61,
      "start": 78.281,
      "duration": 0.156,
      "velocity": 0.71
    },
    {
      "id": "n-01855",
      "pitch": "C#3",
      "midi": 49,
      "start": 78.438,
      "duration": 0.156,
      "velocity": 0.71
    },
    {
      "id": "n-01856",
      "pitch": "C#3",
      "midi": 49,
      "start": 78.438,
      "duration": 0.156,
      "velocity": 0.71
    },
    {
      "id": "n-01857",
      "pitch": "C#3",
      "midi": 49,
      "start": 78.438,
      "duration": 0.156,
      "velocity": 0.71
    },
    {
      "id": "n-01858",
      "pitch": "C#4",
      "midi": 61,
      "start": 78.438,
      "duration": 0.156,
      "velocity": 0.71
    },
    {
      "id": "n-01859",
      "pitch": "C#4",
      "midi": 61,
      "start": 78.438,
      "duration": 0.156,
      "velocity": 0.71
    },
    {
      "id": "n-01860",
      "pitch": "C#3",
      "midi": 49,
      "start": 78.594,
      "duration": 0.156,
      "velocity": 0.71
    },
    {
      "id": "n-01861",
      "pitch": "C#3",
      "midi": 49,
      "start": 78.594,
      "duration": 0.156,
      "velocity": 0.71
    },
    {
      "id": "n-01862",
      "pitch": "C#3",
      "midi": 49,
      "start": 78.594,
      "duration": 0.156,
      "velocity": 0.71
    },
    {
      "id": "n-01863",
      "pitch": "C#4",
      "midi": 61,
      "start": 78.594,
      "duration": 0.156,
      "velocity": 0.71
    },
    {
      "id": "n-01864",
      "pitch": "C#4",
      "midi": 61,
      "start": 78.594,
      "duration": 0.156,
      "velocity": 0.71
    },
    {
      "id": "n-01865",
      "pitch": "C3",
      "midi": 48,
      "start": 78.75,
      "duration": 1.25,
      "velocity": 0.71
    },
    {
      "id": "n-01866",
      "pitch": "C3",
      "midi": 48,
      "start": 78.75,
      "duration": 1.25,
      "velocity": 0.71
    },
    {
      "id": "n-01867",
      "pitch": "C3",
      "midi": 48,
      "start": 78.75,
      "duration": 1.25,
      "velocity": 0.71
    },
    {
      "id": "n-01868",
      "pitch": "C4",
      "midi": 60,
      "start": 78.75,
      "duration": 1.25,
      "velocity": 0.71
    },
    {
      "id": "n-01869",
      "pitch": "C4",
      "midi": 60,
      "start": 78.75,
      "duration": 1.25,
      "velocity": 0.71
    },
    {
      "id": "n-01870",
      "pitch": "C5",
      "midi": 72,
      "start": 80.156,
      "duration": 0.156,
      "velocity": 0.71
    },
    {
      "id": "n-01871",
      "pitch": "C5",
      "midi": 72,
      "start": 80.313,
      "duration": 0.156,
      "velocity": 0.71
    },
    {
      "id": "n-01872",
      "pitch": "C5",
      "midi": 72,
      "start": 80.469,
      "duration": 0.156,
      "velocity": 0.71
    },
    {
      "id": "n-01873",
      "pitch": "F3",
      "midi": 53,
      "start": 80.625,
      "duration": 2.5,
      "velocity": 0.71
    },
    {
      "id": "n-01874",
      "pitch": "C4",
      "midi": 60,
      "start": 80.625,
      "duration": 1.406,
      "velocity": 0.71
    },
    {
      "id": "n-01875",
      "pitch": "C4",
      "midi": 60,
      "start": 80.625,
      "duration": 1.406,
      "velocity": 0.71
    },
    {
      "id": "n-01876",
      "pitch": "F4",
      "midi": 65,
      "start": 80.625,
      "duration": 2.5,
      "velocity": 0.71
    },
    {
      "id": "n-01877",
      "pitch": "G#4",
      "midi": 68,
      "start": 80.625,
      "duration": 2.031,
      "velocity": 0.71
    },
    {
      "id": "n-01878",
      "pitch": "C#5",
      "midi": 73,
      "start": 80.781,
      "duration": 0.156,
      "velocity": 0.71
    },
    {
      "id": "n-01879",
      "pitch": "C#5",
      "midi": 73,
      "start": 80.938,
      "duration": 0.156,
      "velocity": 0.71
    },
    {
      "id": "n-01880",
      "pitch": "C#5",
      "midi": 73,
      "start": 81.094,
      "duration": 0.156,
      "velocity": 0.71
    },
    {
      "id": "n-01881",
      "pitch": "C5",
      "midi": 72,
      "start": 81.25,
      "duration": 2.031,
      "velocity": 0.71
    },
    {
      "id": "n-01882",
      "pitch": "G#5",
      "midi": 80,
      "start": 81.406,
      "duration": 0.156,
      "velocity": 0.71
    },
    {
      "id": "n-01883",
      "pitch": "G#5",
      "midi": 80,
      "start": 81.563,
      "duration": 0.156,
      "velocity": 0.71
    },
    {
      "id": "n-01884",
      "pitch": "G#5",
      "midi": 80,
      "start": 81.719,
      "duration": 0.156,
      "velocity": 0.71
    },
    {
      "id": "n-01885",
      "pitch": "F5",
      "midi": 77,
      "start": 81.875,
      "duration": 0.938,
      "velocity": 0.71
    },
    {
      "id": "n-01886",
      "pitch": "C#4",
      "midi": 61,
      "start": 82.031,
      "duration": 0.156,
      "velocity": 0.71
    },
    {
      "id": "n-01887",
      "pitch": "C#4",
      "midi": 61,
      "start": 82.031,
      "duration": 0.156,
      "velocity": 0.71
    },
    {
      "id": "n-01888",
      "pitch": "C#4",
      "midi": 61,
      "start": 82.188,
      "duration": 0.156,
      "velocity": 0.71
    },
    {
      "id": "n-01889",
      "pitch": "C#4",
      "midi": 61,
      "start": 82.188,
      "duration": 0.156,
      "velocity": 0.71
    },
    {
      "id": "n-01890",
      "pitch": "C#4",
      "midi": 61,
      "start": 82.344,
      "duration": 0.156,
      "velocity": 0.71
    },
    {
      "id": "n-01891",
      "pitch": "C#4",
      "midi": 61,
      "start": 82.344,
      "duration": 0.156,
      "velocity": 0.71
    },
    {
      "id": "n-01892",
      "pitch": "C4",
      "midi": 60,
      "start": 82.5,
      "duration": 2.031,
      "velocity": 0.71
    },
    {
      "id": "n-01893",
      "pitch": "C4",
      "midi": 60,
      "start": 82.5,
      "duration": 2.031,
      "velocity": 0.71
    },
    {
      "id": "n-01894",
      "pitch": "C5",
      "midi": 72,
      "start": 82.656,
      "duration": 0.156,
      "velocity": 0.71
    },
    {
      "id": "n-01895",
      "pitch": "C5",
      "midi": 72,
      "start": 82.813,
      "duration": 0.156,
      "velocity": 0.71
    },
    {
      "id": "n-01896",
      "pitch": "C5",
      "midi": 72,
      "start": 82.969,
      "duration": 0.156,
      "velocity": 0.71
    },
    {
      "id": "n-01897",
      "pitch": "E3",
      "midi": 52,
      "start": 83.125,
      "duration": 2.5,
      "velocity": 0.71
    },
    {
      "id": "n-01898",
      "pitch": "E4",
      "midi": 64,
      "start": 83.125,
      "duration": 2.5,
      "velocity": 0.71
    },
    {
      "id": "n-01899",
      "pitch": "G4",
      "midi": 67,
      "start": 83.125,
      "duration": 2.5,
      "velocity": 0.71
    },
    {
      "id": "n-01900",
      "pitch": "C#5",
      "midi": 73,
      "start": 83.281,
      "duration": 0.156,
      "velocity": 0.71
    },
    {
      "id": "n-01901",
      "pitch": "C#5",
      "midi": 73,
      "start": 83.438,
      "duration": 0.156,
      "velocity": 0.71
    },
    {
      "id": "n-01902",
      "pitch": "C#5",
      "midi": 73,
      "start": 83.594,
      "duration": 0.156,
      "velocity": 0.71
    },
    {
      "id": "n-01903",
      "pitch": "C5",
      "midi": 72,
      "start": 83.75,
      "duration": 1.875,
      "velocity": 0.71
    },
    {
      "id": "n-01904",
      "pitch": "A#5",
      "midi": 82,
      "start": 83.906,
      "duration": 0.156,
      "velocity": 0.71
    },
    {
      "id": "n-01905",
      "pitch": "A#5",
      "midi": 82,
      "start": 84.063,
      "duration": 0.156,
      "velocity": 0.71
    },
    {
      "id": "n-01906",
      "pitch": "A#5",
      "midi": 82,
      "start": 84.219,
      "duration": 0.156,
      "velocity": 0.71
    },
    {
      "id": "n-01907",
      "pitch": "G5",
      "midi": 79,
      "start": 84.375,
      "duration": 0.781,
      "velocity": 0.71
    },
    {
      "id": "n-01908",
      "pitch": "C#4",
      "midi": 61,
      "start": 84.531,
      "duration": 0.156,
      "velocity": 0.71
    },
    {
      "id": "n-01909",
      "pitch": "C#4",
      "midi": 61,
      "start": 84.531,
      "duration": 0.156,
      "velocity": 0.71
    },
    {
      "id": "n-01910",
      "pitch": "C#4",
      "midi": 61,
      "start": 84.688,
      "duration": 0.156,
      "velocity": 0.71
    },
    {
      "id": "n-01911",
      "pitch": "C#4",
      "midi": 61,
      "start": 84.688,
      "duration": 0.156,
      "velocity": 0.71
    },
    {
      "id": "n-01912",
      "pitch": "C#4",
      "midi": 61,
      "start": 84.844,
      "duration": 0.156,
      "velocity": 0.71
    },
    {
      "id": "n-01913",
      "pitch": "C#4",
      "midi": 61,
      "start": 84.844,
      "duration": 0.156,
      "velocity": 0.71
    },
    {
      "id": "n-01914",
      "pitch": "C4",
      "midi": 60,
      "start": 85,
      "duration": 3.75,
      "velocity": 0.71
    },
    {
      "id": "n-01915",
      "pitch": "C4",
      "midi": 60,
      "start": 85,
      "duration": 3.75,
      "velocity": 0.71
    },
    {
      "id": "n-01916",
      "pitch": "C6",
      "midi": 84,
      "start": 85.156,
      "duration": 0.156,
      "velocity": 0.71
    },
    {
      "id": "n-01917",
      "pitch": "C6",
      "midi": 84,
      "start": 85.313,
      "duration": 0.156,
      "velocity": 0.71
    },
    {
      "id": "n-01918",
      "pitch": "A#5",
      "midi": 82,
      "start": 85.469,
      "duration": 0.156,
      "velocity": 0.71
    },
    {
      "id": "n-01919",
      "pitch": "F3",
      "midi": 53,
      "start": 85.625,
      "duration": 0.625,
      "velocity": 0.71
    },
    {
      "id": "n-01920",
      "pitch": "F4",
      "midi": 65,
      "start": 85.625,
      "duration": 0.625,
      "velocity": 0.71
    },
    {
      "id": "n-01921",
      "pitch": "G#4",
      "midi": 68,
      "start": 85.625,
      "duration": 0.625,
      "velocity": 0.71
    },
    {
      "id": "n-01922",
      "pitch": "G#4",
      "midi": 68,
      "start": 85.625,
      "duration": 0.156,
      "velocity": 0.71
    },
    {
      "id": "n-01923",
      "pitch": "C5",
      "midi": 72,
      "start": 85.625,
      "duration": 2.813,
      "velocity": 0.71
    },
    {
      "id": "n-01924",
      "pitch": "G#5",
      "midi": 80,
      "start": 85.625,
      "duration": 0.625,
      "velocity": 0.71
    },
    {
      "id": "n-01925",
      "pitch": "G#4",
      "midi": 68,
      "start": 85.781,
      "duration": 0.156,
      "velocity": 0.71
    },
    {
      "id": "n-01926",
      "pitch": "G#4",
      "midi": 68,
      "start": 85.938,
      "duration": 0.156,
      "velocity": 0.71
    },
    {
      "id": "n-01927",
      "pitch": "A#4",
      "midi": 70,
      "start": 86.094,
      "duration": 0.156,
      "velocity": 0.71
    },
    {
      "id": "n-01928",
      "pitch": "E3",
      "midi": 52,
      "start": 86.25,
      "duration": 0.625,
      "velocity": 0.71
    },
    {
      "id": "n-01929",
      "pitch": "E4",
      "midi": 64,
      "start": 86.25,
      "duration": 0.625,
      "velocity": 0.71
    },
    {
      "id": "n-01930",
      "pitch": "G4",
      "midi": 67,
      "start": 86.25,
      "duration": 0.625,
      "velocity": 0.71
    },
    {
      "id": "n-01931",
      "pitch": "C5",
      "midi": 72,
      "start": 86.25,
      "duration": 0.781,
      "velocity": 0.71
    },
    {
      "id": "n-01932",
      "pitch": "G5",
      "midi": 79,
      "start": 86.25,
      "duration": 0.156,
      "velocity": 0.71
    },
    {
      "id": "n-01933",
      "pitch": "C6",
      "midi": 84,
      "start": 86.406,
      "duration": 0.156,
      "velocity": 0.71
    },
    {
      "id": "n-01934",
      "pitch": "C6",
      "midi": 84,
      "start": 86.563,
      "duration": 0.156,
      "velocity": 0.71
    },
    {
      "id": "n-01935",
      "pitch": "A#5",
      "midi": 82,
      "start": 86.719,
      "duration": 0.156,
      "velocity": 0.71
    },
    {
      "id": "n-01936",
      "pitch": "F3",
      "midi": 53,
      "start": 86.875,
      "duration": 0.625,
      "velocity": 0.71
    },
    {
      "id": "n-01937",
      "pitch": "F4",
      "midi": 65,
      "start": 86.875,
      "duration": 0.625,
      "velocity": 0.71
    },
    {
      "id": "n-01938",
      "pitch": "G#4",
      "midi": 68,
      "start": 86.875,
      "duration": 0.625,
      "velocity": 0.71
    },
    {
      "id": "n-01939",
      "pitch": "G#5",
      "midi": 80,
      "start": 86.875,
      "duration": 0.625,
      "velocity": 0.71
    },
    {
      "id": "n-01940",
      "pitch": "G#4",
      "midi": 68,
      "start": 87.031,
      "duration": 0.156,
      "velocity": 0.71
    },
    {
      "id": "n-01941",
      "pitch": "G#4",
      "midi": 68,
      "start": 87.188,
      "duration": 0.156,
      "velocity": 0.71
    },
    {
      "id": "n-01942",
      "pitch": "A#4",
      "midi": 70,
      "start": 87.344,
      "duration": 0.156,
      "velocity": 0.71
    },
    {
      "id": "n-01943",
      "pitch": "E3",
      "midi": 52,
      "start": 87.5,
      "duration": 0.625,
      "velocity": 0.71
    },
    {
      "id": "n-01944",
      "pitch": "E4",
      "midi": 64,
      "start": 87.5,
      "duration": 0.625,
      "velocity": 0.71
    },
    {
      "id": "n-01945",
      "pitch": "G4",
      "midi": 67,
      "start": 87.5,
      "duration": 0.625,
      "velocity": 0.71
    },
    {
      "id": "n-01946",
      "pitch": "C5",
      "midi": 72,
      "start": 87.5,
      "duration": 0.938,
      "velocity": 0.71
    },
    {
      "id": "n-01947",
      "pitch": "G5",
      "midi": 79,
      "start": 87.5,
      "duration": 0.156,
      "velocity": 0.71
    },
    {
      "id": "n-01948",
      "pitch": "C6",
      "midi": 84,
      "start": 87.656,
      "duration": 0.156,
      "velocity": 0.71
    },
    {
      "id": "n-01949",
      "pitch": "C6",
      "midi": 84,
      "start": 87.813,
      "duration": 0.156,
      "velocity": 0.71
    },
    {
      "id": "n-01950",
      "pitch": "A#5",
      "midi": 82,
      "start": 87.969,
      "duration": 0.156,
      "velocity": 0.71
    },
    {
      "id": "n-01951",
      "pitch": "F3",
      "midi": 53,
      "start": 88.125,
      "duration": 0.313,
      "velocity": 0.71
    },
    {
      "id": "n-01952",
      "pitch": "F4",
      "midi": 65,
      "start": 88.125,
      "duration": 0.313,
      "velocity": 0.71
    },
    {
      "id": "n-01953",
      "pitch": "G#4",
      "midi": 68,
      "start": 88.125,
      "duration": 0.313,
      "velocity": 0.71
    },
    {
      "id": "n-01954",
      "pitch": "G#5",
      "midi": 80,
      "start": 88.125,
      "duration": 0.156,
      "velocity": 0.71
    },
    {
      "id": "n-01955",
      "pitch": "G#5",
      "midi": 80,
      "start": 88.281,
      "duration": 0.156,
      "velocity": 0.71
    },
    {
      "id": "n-01956",
      "pitch": "G#5",
      "midi": 80,
      "start": 88.438,
      "duration": 0.156,
      "velocity": 0.71
    },
    {
      "id": "n-01957",
      "pitch": "G5",
      "midi": 79,
      "start": 88.594,
      "duration": 0.156,
      "velocity": 0.71
    },
    {
      "id": "n-01958",
      "pitch": "D4",
      "midi": 62,
      "start": 88.75,
      "duration": 0.313,
      "velocity": 0.71
    },
    {
      "id": "n-01959",
      "pitch": "D4",
      "midi": 62,
      "start": 88.75,
      "duration": 0.313,
      "velocity": 0.71
    },
    {
      "id": "n-01960",
      "pitch": "F5",
      "midi": 77,
      "start": 88.75,
      "duration": 0.156,
      "velocity": 0.71
    },
    {
      "id": "n-01961",
      "pitch": "F5",
      "midi": 77,
      "start": 88.906,
      "duration": 0.156,
      "velocity": 0.71
    },
    {
      "id": "n-01962",
      "pitch": "D#4",
      "midi": 63,
      "start": 89.063,
      "duration": 0.313,
      "velocity": 0.71
    },
    {
      "id": "n-01963",
      "pitch": "D#4",
      "midi": 63,
      "start": 89.063,
      "duration": 0.313,
      "velocity": 0.71
    },
    {
      "id": "n-01964",
      "pitch": "D#4",
      "midi": 63,
      "start": 89.063,
      "duration": 0.313,
      "velocity": 0.71
    },
    {
      "id": "n-01965",
      "pitch": "F5",
      "midi": 77,
      "start": 89.063,
      "duration": 0.156,
      "velocity": 0.71
    },
    {
      "id": "n-01966",
      "pitch": "D#5",
      "midi": 75,
      "start": 89.219,
      "duration": 0.156,
      "velocity": 0.71
    },
    {
      "id": "n-01967",
      "pitch": "F4",
      "midi": 65,
      "start": 89.375,
      "duration": 0.313,
      "velocity": 0.71
    },
    {
      "id": "n-01968",
      "pitch": "F4",
      "midi": 65,
      "start": 89.375,
      "duration": 0.313,
      "velocity": 0.71
    },
    {
      "id": "n-01969",
      "pitch": "F4",
      "midi": 65,
      "start": 89.375,
      "duration": 0.313,
      "velocity": 0.71
    },
    {
      "id": "n-01970",
      "pitch": "D5",
      "midi": 74,
      "start": 89.375,
      "duration": 0.156,
      "velocity": 0.71
    },
    {
      "id": "n-01971",
      "pitch": "D5",
      "midi": 74,
      "start": 89.531,
      "duration": 0.156,
      "velocity": 0.71
    },
    {
      "id": "n-01972",
      "pitch": "F#4",
      "midi": 66,
      "start": 89.688,
      "duration": 0.313,
      "velocity": 0.71
    },
    {
      "id": "n-01973",
      "pitch": "F#4",
      "midi": 66,
      "start": 89.688,
      "duration": 0.313,
      "velocity": 0.71
    },
    {
      "id": "n-01974",
      "pitch": "F#4",
      "midi": 66,
      "start": 89.688,
      "duration": 0.313,
      "velocity": 0.71
    },
    {
      "id": "n-01975",
      "pitch": "D5",
      "midi": 74,
      "start": 89.688,
      "duration": 0.156,
      "velocity": 0.71
    },
    {
      "id": "n-01976",
      "pitch": "C5",
      "midi": 72,
      "start": 89.844,
      "duration": 0.156,
      "velocity": 0.71
    },
    {
      "id": "n-01977",
      "pitch": "G3",
      "midi": 55,
      "start": 90,
      "duration": 3.438,
      "velocity": 0.71
    },
    {
      "id": "n-01978",
      "pitch": "G4",
      "midi": 67,
      "start": 90,
      "duration": 3.438,
      "velocity": 0.71
    },
    {
      "id": "n-01979",
      "pitch": "G4",
      "midi": 67,
      "start": 90,
      "duration": 0.156,
      "velocity": 0.71
    },
    {
      "id": "n-01980",
      "pitch": "G4",
      "midi": 67,
      "start": 90,
      "duration": 0.156,
      "velocity": 0.71
    },
    {
      "id": "n-01981",
      "pitch": "B4",
      "midi": 71,
      "start": 90,
      "duration": 0.313,
      "velocity": 0.71
    },
    {
      "id": "n-01982",
      "pitch": "G4",
      "midi": 67,
      "start": 90.156,
      "duration": 0.156,
      "velocity": 0.71
    },
    {
      "id": "n-01983",
      "pitch": "G4",
      "midi": 67,
      "start": 90.156,
      "duration": 0.156,
      "velocity": 0.71
    },
    {
      "id": "n-01984",
      "pitch": "G2",
      "midi": 43,
      "start": 90.313,
      "duration": 0.313,
      "velocity": 0.71
    },
    {
      "id": "n-01985",
      "pitch": "G4",
      "midi": 67,
      "start": 90.313,
      "duration": 0.156,
      "velocity": 0.71
    },
    {
      "id": "n-01986",
      "pitch": "G4",
      "midi": 67,
      "start": 90.313,
      "duration": 0.156,
      "velocity": 0.71
    },
    {
      "id": "n-01987",
      "pitch": "F4",
      "midi": 65,
      "start": 90.469,
      "duration": 0.156,
      "velocity": 0.71
    },
    {
      "id": "n-01988",
      "pitch": "F4",
      "midi": 65,
      "start": 90.469,
      "duration": 0.156,
      "velocity": 0.71
    },
    {
      "id": "n-01989",
      "pitch": "C3",
      "midi": 48,
      "start": 90.625,
      "duration": 0.313,
      "velocity": 0.71
    },
    {
      "id": "n-01990",
      "pitch": "C4",
      "midi": 60,
      "start": 90.625,
      "duration": 0.625,
      "velocity": 0.71
    },
    {
      "id": "n-01991",
      "pitch": "D#4",
      "midi": 63,
      "start": 90.625,
      "duration": 0.625,
      "velocity": 0.71
    },
    {
      "id": "n-01992",
      "pitch": "D#4",
      "midi": 63,
      "start": 90.625,
      "duration": 0.625,
      "velocity": 0.71
    },
    {
      "id": "n-01993",
      "pitch": "D#4",
      "midi": 63,
      "start": 90.625,
      "duration": 0.625,
      "velocity": 0.71
    },
    {
      "id": "n-01994",
      "pitch": "C5",
      "midi": 72,
      "start": 90.625,
      "duration": 0.625,
      "velocity": 0.71
    },
    {
      "id": "n-01995",
      "pitch": "D#5",
      "midi": 75,
      "start": 90.625,
      "duration": 0.625,
      "velocity": 0.71
    },
    {
      "id": "n-01996",
      "pitch": "D#4",
      "midi": 63,
      "start": 90.781,
      "duration": 0.156,
      "velocity": 0.71
    },
    {
      "id": "n-01997",
      "pitch": "D#5",
      "midi": 75,
      "start": 90.781,
      "duration": 0.156,
      "velocity": 0.71
    },
    {
      "id": "n-01998",
      "pitch": "D#4",
      "midi": 63,
      "start": 90.938,
      "duration": 0.156,
      "velocity": 0.71
    },
    {
      "id": "n-01999",
      "pitch": "D#5",
      "midi": 75,
      "start": 90.938,
      "duration": 0.156,
      "velocity": 0.71
    },
    {
      "id": "n-02000",
      "pitch": "F4",
      "midi": 65,
      "start": 91.094,
      "duration": 0.156,
      "velocity": 0.71
    },
    {
      "id": "n-02001",
      "pitch": "F5",
      "midi": 77,
      "start": 91.094,
      "duration": 0.156,
      "velocity": 0.71
    },
    {
      "id": "n-02002",
      "pitch": "G2",
      "midi": 43,
      "start": 91.25,
      "duration": 0.313,
      "velocity": 0.71
    },
    {
      "id": "n-02003",
      "pitch": "B3",
      "midi": 59,
      "start": 91.25,
      "duration": 0.625,
      "velocity": 0.71
    },
    {
      "id": "n-02004",
      "pitch": "D4",
      "midi": 62,
      "start": 91.25,
      "duration": 0.625,
      "velocity": 0.71
    },
    {
      "id": "n-02005",
      "pitch": "D4",
      "midi": 62,
      "start": 91.25,
      "duration": 0.156,
      "velocity": 0.71
    },
    {
      "id": "n-02006",
      "pitch": "D4",
      "midi": 62,
      "start": 91.25,
      "duration": 0.156,
      "velocity": 0.71
    },
    {
      "id": "n-02007",
      "pitch": "G4",
      "midi": 67,
      "start": 91.25,
      "duration": 0.781,
      "velocity": 0.71
    },
    {
      "id": "n-02008",
      "pitch": "B4",
      "midi": 71,
      "start": 91.25,
      "duration": 0.625,
      "velocity": 0.71
    },
    {
      "id": "n-02009",
      "pitch": "D5",
      "midi": 74,
      "start": 91.25,
      "duration": 0.625,
      "velocity": 0.71
    },
    {
      "id": "n-02010",
      "pitch": "G5",
      "midi": 79,
      "start": 91.25,
      "duration": 0.781,
      "velocity": 0.71
    },
    {
      "id": "n-02011",
      "pitch": "G4",
      "midi": 67,
      "start": 91.406,
      "duration": 0.156,
      "velocity": 0.71
    },
    {
      "id": "n-02012",
      "pitch": "G4",
      "midi": 67,
      "start": 91.406,
      "duration": 0.156,
      "velocity": 0.71
    },
    {
      "id": "n-02013",
      "pitch": "G4",
      "midi": 67,
      "start": 91.563,
      "duration": 0.156,
      "velocity": 0.71
    },
    {
      "id": "n-02014",
      "pitch": "G4",
      "midi": 67,
      "start": 91.563,
      "duration": 0.156,
      "velocity": 0.71
    },
    {
      "id": "n-02015",
      "pitch": "F4",
      "midi": 65,
      "start": 91.719,
      "duration": 0.156,
      "velocity": 0.71
    },
    {
      "id": "n-02016",
      "pitch": "F4",
      "midi": 65,
      "start": 91.719,
      "duration": 0.156,
      "velocity": 0.71
    },
    {
      "id": "n-02017",
      "pitch": "C3",
      "midi": 48,
      "start": 91.875,
      "duration": 0.313,
      "velocity": 0.71
    },
    {
      "id": "n-02018",
      "pitch": "C4",
      "midi": 60,
      "start": 91.875,
      "duration": 0.625,
      "velocity": 0.71
    },
    {
      "id": "n-02019",
      "pitch": "D#4",
      "midi": 63,
      "start": 91.875,
      "duration": 0.625,
      "velocity": 0.71
    },
    {
      "id": "n-02020",
      "pitch": "D#4",
      "midi": 63,
      "start": 91.875,
      "duration": 0.625,
      "velocity": 0.71
    },
    {
      "id": "n-02021",
      "pitch": "D#4",
      "midi": 63,
      "start": 91.875,
      "duration": 0.625,
      "velocity": 0.71
    },
    {
      "id": "n-02022",
      "pitch": "C5",
      "midi": 72,
      "start": 91.875,
      "duration": 0.625,
      "velocity": 0.71
    },
    {
      "id": "n-02023",
      "pitch": "D#5",
      "midi": 75,
      "start": 91.875,
      "duration": 0.625,
      "velocity": 0.71
    },
    {
      "id": "n-02024",
      "pitch": "D#4",
      "midi": 63,
      "start": 92.031,
      "duration": 0.156,
      "velocity": 0.71
    },
    {
      "id": "n-02025",
      "pitch": "D#5",
      "midi": 75,
      "start": 92.031,
      "duration": 0.156,
      "velocity": 0.71
    },
    {
      "id": "n-02026",
      "pitch": "D#4",
      "midi": 63,
      "start": 92.188,
      "duration": 0.156,
      "velocity": 0.71
    },
    {
      "id": "n-02027",
      "pitch": "D#5",
      "midi": 75,
      "start": 92.188,
      "duration": 0.156,
      "velocity": 0.71
    },
    {
      "id": "n-02028",
      "pitch": "F4",
      "midi": 65,
      "start": 92.344,
      "duration": 0.156,
      "velocity": 0.71
    },
    {
      "id": "n-02029",
      "pitch": "F5",
      "midi": 77,
      "start": 92.344,
      "duration": 0.156,
      "velocity": 0.71
    },
    {
      "id": "n-02030",
      "pitch": "G2",
      "midi": 43,
      "start": 92.5,
      "duration": 0.313,
      "velocity": 0.71
    },
    {
      "id": "n-02031",
      "pitch": "B3",
      "midi": 59,
      "start": 92.5,
      "duration": 0.625,
      "velocity": 0.71
    },
    {
      "id": "n-02032",
      "pitch": "D4",
      "midi": 62,
      "start": 92.5,
      "duration": 0.625,
      "velocity": 0.71
    },
    {
      "id": "n-02033",
      "pitch": "D4",
      "midi": 62,
      "start": 92.5,
      "duration": 0.156,
      "velocity": 0.71
    },
    {
      "id": "n-02034",
      "pitch": "D4",
      "midi": 62,
      "start": 92.5,
      "duration": 0.156,
      "velocity": 0.71
    },
    {
      "id": "n-02035",
      "pitch": "G4",
      "midi": 67,
      "start": 92.5,
      "duration": 1.25,
      "velocity": 0.71
    },
    {
      "id": "n-02036",
      "pitch": "B4",
      "midi": 71,
      "start": 92.5,
      "duration": 0.625,
      "velocity": 0.71
    },
    {
      "id": "n-02037",
      "pitch": "D5",
      "midi": 74,
      "start": 92.5,
      "duration": 0.625,
      "velocity": 0.71
    },
    {
      "id": "n-02038",
      "pitch": "G5",
      "midi": 79,
      "start": 92.5,
      "duration": 1.25,
      "velocity": 0.71
    },
    {
      "id": "n-02039",
      "pitch": "G4",
      "midi": 67,
      "start": 92.656,
      "duration": 0.156,
      "velocity": 0.71
    },
    {
      "id": "n-02040",
      "pitch": "G4",
      "midi": 67,
      "start": 92.656,
      "duration": 0.156,
      "velocity": 0.71
    },
    {
      "id": "n-02041",
      "pitch": "G4",
      "midi": 67,
      "start": 92.813,
      "duration": 0.156,
      "velocity": 0.71
    },
    {
      "id": "n-02042",
      "pitch": "G4",
      "midi": 67,
      "start": 92.813,
      "duration": 0.156,
      "velocity": 0.71
    },
    {
      "id": "n-02043",
      "pitch": "F4",
      "midi": 65,
      "start": 92.969,
      "duration": 0.156,
      "velocity": 0.71
    },
    {
      "id": "n-02044",
      "pitch": "F4",
      "midi": 65,
      "start": 92.969,
      "duration": 0.156,
      "velocity": 0.71
    },
    {
      "id": "n-02045",
      "pitch": "C3",
      "midi": 48,
      "start": 93.125,
      "duration": 0.313,
      "velocity": 0.71
    },
    {
      "id": "n-02046",
      "pitch": "C4",
      "midi": 60,
      "start": 93.125,
      "duration": 0.313,
      "velocity": 0.71
    },
    {
      "id": "n-02047",
      "pitch": "D#4",
      "midi": 63,
      "start": 93.125,
      "duration": 0.313,
      "velocity": 0.71
    },
    {
      "id": "n-02048",
      "pitch": "D#4",
      "midi": 63,
      "start": 93.125,
      "duration": 0.156,
      "velocity": 0.71
    },
    {
      "id": "n-02049",
      "pitch": "D#4",
      "midi": 63,
      "start": 93.125,
      "duration": 0.156,
      "velocity": 0.71
    },
    {
      "id": "n-02050",
      "pitch": "C5",
      "midi": 72,
      "start": 93.125,
      "duration": 0.313,
      "velocity": 0.71
    },
    {
      "id": "n-02051",
      "pitch": "D#5",
      "midi": 75,
      "start": 93.125,
      "duration": 0.313,
      "velocity": 0.71
    },
    {
      "id": "n-02052",
      "pitch": "D#4",
      "midi": 63,
      "start": 93.281,
      "duration": 0.156,
      "velocity": 0.71
    },
    {
      "id": "n-02053",
      "pitch": "D#4",
      "midi": 63,
      "start": 93.281,
      "duration": 0.156,
      "velocity": 0.71
    },
    {
      "id": "n-02054",
      "pitch": "D#4",
      "midi": 63,
      "start": 93.438,
      "duration": 0.156,
      "velocity": 0.71
    },
    {
      "id": "n-02055",
      "pitch": "D#4",
      "midi": 63,
      "start": 93.438,
      "duration": 0.156,
      "velocity": 0.71
    },
    {
      "id": "n-02056",
      "pitch": "D4",
      "midi": 62,
      "start": 93.594,
      "duration": 0.156,
      "velocity": 0.71
    },
    {
      "id": "n-02057",
      "pitch": "D4",
      "midi": 62,
      "start": 93.594,
      "duration": 0.156,
      "velocity": 0.71
    },
    {
      "id": "n-02058",
      "pitch": "C4",
      "midi": 60,
      "start": 93.75,
      "duration": 0.156,
      "velocity": 0.71
    },
    {
      "id": "n-02059",
      "pitch": "C4",
      "midi": 60,
      "start": 93.75,
      "duration": 0.156,
      "velocity": 0.71
    },
    {
      "id": "n-02060",
      "pitch": "A4",
      "midi": 69,
      "start": 93.75,
      "duration": 0.313,
      "velocity": 0.71
    },
    {
      "id": "n-02061",
      "pitch": "A5",
      "midi": 81,
      "start": 93.75,
      "duration": 0.313,
      "velocity": 0.71
    },
    {
      "id": "n-02062",
      "pitch": "C4",
      "midi": 60,
      "start": 93.906,
      "duration": 0.156,
      "velocity": 0.71
    },
    {
      "id": "n-02063",
      "pitch": "C4",
      "midi": 60,
      "start": 93.906,
      "duration": 0.156,
      "velocity": 0.71
    },
    {
      "id": "n-02064",
      "pitch": "D#4",
      "midi": 63,
      "start": 93.906,
      "duration": 0.156,
      "velocity": 0.71
    },
    {
      "id": "n-02065",
      "pitch": "C4",
      "midi": 60,
      "start": 94.063,
      "duration": 0.156,
      "velocity": 0.71
    },
    {
      "id": "n-02066",
      "pitch": "C4",
      "midi": 60,
      "start": 94.063,
      "duration": 0.156,
      "velocity": 0.71
    },
    {
      "id": "n-02067",
      "pitch": "D#4",
      "midi": 63,
      "start": 94.063,
      "duration": 0.156,
      "velocity": 0.71
    },
    {
      "id": "n-02068",
      "pitch": "A#4",
      "midi": 70,
      "start": 94.063,
      "duration": 0.313,
      "velocity": 0.71
    },
    {
      "id": "n-02069",
      "pitch": "A#5",
      "midi": 82,
      "start": 94.063,
      "duration": 0.313,
      "velocity": 0.71
    },
    {
      "id": "n-02070",
      "pitch": "A#3",
      "midi": 58,
      "start": 94.219,
      "duration": 0.156,
      "velocity": 0.71
    },
    {
      "id": "n-02071",
      "pitch": "A#3",
      "midi": 58,
      "start": 94.219,
      "duration": 0.156,
      "velocity": 0.71
    },
    {
      "id": "n-02072",
      "pitch": "D4",
      "midi": 62,
      "start": 94.219,
      "duration": 0.156,
      "velocity": 0.71
    },
    {
      "id": "n-02073",
      "pitch": "A2",
      "midi": 45,
      "start": 94.375,
      "duration": 0.313,
      "velocity": 0.71
    },
    {
      "id": "n-02074",
      "pitch": "A3",
      "midi": 57,
      "start": 94.375,
      "duration": 0.156,
      "velocity": 0.71
    },
    {
      "id": "n-02075",
      "pitch": "A3",
      "midi": 57,
      "start": 94.375,
      "duration": 0.156,
      "velocity": 0.71
    },
    {
      "id": "n-02076",
      "pitch": "C4",
      "midi": 60,
      "start": 94.375,
      "duration": 0.156,
      "velocity": 0.71
    },
    {
      "id": "n-02077",
      "pitch": "C5",
      "midi": 72,
      "start": 94.375,
      "duration": 0.313,
      "velocity": 0.71
    },
    {
      "id": "n-02078",
      "pitch": "C6",
      "midi": 84,
      "start": 94.375,
      "duration": 0.313,
      "velocity": 0.71
    },
    {
      "id": "n-02079",
      "pitch": "A3",
      "midi": 57,
      "start": 94.531,
      "duration": 0.156,
      "velocity": 0.71
    },
    {
      "id": "n-02080",
      "pitch": "A3",
      "midi": 57,
      "start": 94.531,
      "duration": 0.156,
      "velocity": 0.71
    },
    {
      "id": "n-02081",
      "pitch": "C4",
      "midi": 60,
      "start": 94.531,
      "duration": 0.156,
      "velocity": 0.71
    },
    {
      "id": "n-02082",
      "pitch": "A3",
      "midi": 57,
      "start": 94.688,
      "duration": 0.156,
      "velocity": 0.71
    },
    {
      "id": "n-02083",
      "pitch": "A3",
      "midi": 57,
      "start": 94.688,
      "duration": 0.156,
      "velocity": 0.71
    },
    {
      "id": "n-02084",
      "pitch": "C4",
      "midi": 60,
      "start": 94.688,
      "duration": 0.156,
      "velocity": 0.71
    },
    {
      "id": "n-02085",
      "pitch": "C#5",
      "midi": 73,
      "start": 94.688,
      "duration": 0.313,
      "velocity": 0.71
    },
    {
      "id": "n-02086",
      "pitch": "C#6",
      "midi": 85,
      "start": 94.688,
      "duration": 0.313,
      "velocity": 0.71
    },
    {
      "id": "n-02087",
      "pitch": "G3",
      "midi": 55,
      "start": 94.844,
      "duration": 0.156,
      "velocity": 0.71
    },
    {
      "id": "n-02088",
      "pitch": "G3",
      "midi": 55,
      "start": 94.844,
      "duration": 0.156,
      "velocity": 0.71
    },
    {
      "id": "n-02089",
      "pitch": "A#3",
      "midi": 58,
      "start": 94.844,
      "duration": 0.156,
      "velocity": 0.71
    },
    {
      "id": "n-02090",
      "pitch": "D3",
      "midi": 50,
      "start": 95,
      "duration": 0.313,
      "velocity": 0.71
    },
    {
      "id": "n-02091",
      "pitch": "F#3",
      "midi": 54,
      "start": 95,
      "duration": 0.313,
      "velocity": 0.71
    },
    {
      "id": "n-02092",
      "pitch": "F#3",
      "midi": 54,
      "start": 95,
      "duration": 0.313,
      "velocity": 0.71
    },
    {
      "id": "n-02093",
      "pitch": "A3",
      "midi": 57,
      "start": 95,
      "duration": 0.156,
      "velocity": 0.71
    },
    {
      "id": "n-02094",
      "pitch": "D5",
      "midi": 74,
      "start": 95,
      "duration": 3.281,
      "velocity": 0.71
    },
    {
      "id": "n-02095",
      "pitch": "D5",
      "midi": 74,
      "start": 95,
      "duration": 0.781,
      "velocity": 0.71
    },
    {
      "id": "n-02096",
      "pitch": "D6",
      "midi": 86,
      "start": 95,
      "duration": 3.281,
      "velocity": 0.71
    },
    {
      "id": "n-02097",
      "pitch": "F#3",
      "midi": 54,
      "start": 95.156,
      "duration": 0.156,
      "velocity": 0.71
    },
    {
      "id": "n-02098",
      "pitch": "D4",
      "midi": 62,
      "start": 95.156,
      "duration": 0.156,
      "velocity": 0.71
    },
    {
      "id": "n-02099",
      "pitch": "F#4",
      "midi": 66,
      "start": 95.156,
      "duration": 0.156,
      "velocity": 0.71
    },
    {
      "id": "n-02100",
      "pitch": "D5",
      "midi": 74,
      "start": 95.156,
      "duration": 0.156,
      "velocity": 0.71
    },
    {
      "id": "n-02101",
      "pitch": "F#5",
      "midi": 78,
      "start": 95.156,
      "duration": 0.156,
      "velocity": 0.71
    },
    {
      "id": "n-02102",
      "pitch": "D6",
      "midi": 86,
      "start": 95.156,
      "duration": 0.156,
      "velocity": 0.71
    },
    {
      "id": "n-02103",
      "pitch": "F#3",
      "midi": 54,
      "start": 95.313,
      "duration": 0.156,
      "velocity": 0.71
    },
    {
      "id": "n-02104",
      "pitch": "D4",
      "midi": 62,
      "start": 95.313,
      "duration": 0.156,
      "velocity": 0.71
    },
    {
      "id": "n-02105",
      "pitch": "F#4",
      "midi": 66,
      "start": 95.313,
      "duration": 0.156,
      "velocity": 0.71
    },
    {
      "id": "n-02106",
      "pitch": "D5",
      "midi": 74,
      "start": 95.313,
      "duration": 0.156,
      "velocity": 0.71
    },
    {
      "id": "n-02107",
      "pitch": "F#5",
      "midi": 78,
      "start": 95.313,
      "duration": 0.156,
      "velocity": 0.71
    },
    {
      "id": "n-02108",
      "pitch": "D6",
      "midi": 86,
      "start": 95.313,
      "duration": 0.156,
      "velocity": 0.71
    },
    {
      "id": "n-02109",
      "pitch": "A3",
      "midi": 57,
      "start": 95.469,
      "duration": 0.156,
      "velocity": 0.71
    },
    {
      "id": "n-02110",
      "pitch": "C4",
      "midi": 60,
      "start": 95.469,
      "duration": 0.156,
      "velocity": 0.71
    },
    {
      "id": "n-02111",
      "pitch": "A4",
      "midi": 69,
      "start": 95.469,
      "duration": 0.156,
      "velocity": 0.71
    },
    {
      "id": "n-02112",
      "pitch": "C5",
      "midi": 72,
      "start": 95.469,
      "duration": 0.156,
      "velocity": 0.71
    },
    {
      "id": "n-02113",
      "pitch": "A5",
      "midi": 81,
      "start": 95.469,
      "duration": 0.156,
      "velocity": 0.71
    },
    {
      "id": "n-02114",
      "pitch": "C6",
      "midi": 84,
      "start": 95.469,
      "duration": 0.156,
      "velocity": 0.71
    },
    {
      "id": "n-02115",
      "pitch": "G3",
      "midi": 55,
      "start": 95.625,
      "duration": 0.625,
      "velocity": 0.71
    },
    {
      "id": "n-02116",
      "pitch": "G3",
      "midi": 55,
      "start": 95.625,
      "duration": 0.313,
      "velocity": 0.71
    },
    {
      "id": "n-02117",
      "pitch": "A#3",
      "midi": 58,
      "start": 95.625,
      "duration": 0.625,
      "velocity": 0.71
    },
    {
      "id": "n-02118",
      "pitch": "G4",
      "midi": 67,
      "start": 95.625,
      "duration": 0.625,
      "velocity": 0.71
    },
    {
      "id": "n-02119",
      "pitch": "A#4",
      "midi": 70,
      "start": 95.625,
      "duration": 0.625,
      "velocity": 0.71
    },
    {
      "id": "n-02120",
      "pitch": "G5",
      "midi": 79,
      "start": 95.625,
      "duration": 0.625,
      "velocity": 0.71
    },
    {
      "id": "n-02121",
      "pitch": "A#5",
      "midi": 82,
      "start": 95.625,
      "duration": 0.625,
      "velocity": 0.71
    },
    {
      "id": "n-02122",
      "pitch": "A#3",
      "midi": 58,
      "start": 95.781,
      "duration": 0.156,
      "velocity": 0.71
    },
    {
      "id": "n-02123",
      "pitch": "A#3",
      "midi": 58,
      "start": 95.781,
      "duration": 0.156,
      "velocity": 0.71
    },
    {
      "id": "n-02124",
      "pitch": "G4",
      "midi": 67,
      "start": 95.781,
      "duration": 0.156,
      "velocity": 0.71
    },
    {
      "id": "n-02125",
      "pitch": "A#3",
      "midi": 58,
      "start": 95.938,
      "duration": 0.156,
      "velocity": 0.71
    },
    {
      "id": "n-02126",
      "pitch": "A#3",
      "midi": 58,
      "start": 95.938,
      "duration": 0.156,
      "velocity": 0.71
    },
    {
      "id": "n-02127",
      "pitch": "G4",
      "midi": 67,
      "start": 95.938,
      "duration": 0.156,
      "velocity": 0.71
    },
    {
      "id": "n-02128",
      "pitch": "C4",
      "midi": 60,
      "start": 96.094,
      "duration": 0.156,
      "velocity": 0.71
    },
    {
      "id": "n-02129",
      "pitch": "C4",
      "midi": 60,
      "start": 96.094,
      "duration": 0.156,
      "velocity": 0.71
    },
    {
      "id": "n-02130",
      "pitch": "A4",
      "midi": 69,
      "start": 96.094,
      "duration": 0.156,
      "velocity": 0.71
    },
    {
      "id": "n-02131",
      "pitch": "D3",
      "midi": 50,
      "start": 96.25,
      "duration": 0.313,
      "velocity": 0.71
    },
    {
      "id": "n-02132",
      "pitch": "F#3",
      "midi": 54,
      "start": 96.25,
      "duration": 0.156,
      "velocity": 0.71
    },
    {
      "id": "n-02133",
      "pitch": "A3",
      "midi": 57,
      "start": 96.25,
      "duration": 0.156,
      "velocity": 0.71
    },
    {
      "id": "n-02134",
      "pitch": "D4",
      "midi": 62,
      "start": 96.25,
      "duration": 0.781,
      "velocity": 0.71
    },
    {
      "id": "n-02135",
      "pitch": "D4",
      "midi": 62,
      "start": 96.25,
      "duration": 0.781,
      "velocity": 0.71
    },
    {
      "id": "n-02136",
      "pitch": "F#4",
      "midi": 66,
      "start": 96.25,
      "duration": 0.313,
      "velocity": 0.71
    },
    {
      "id": "n-02137",
      "pitch": "F#4",
      "midi": 66,
      "start": 96.25,
      "duration": 0.156,
      "velocity": 0.71
    },
    {
      "id": "n-02138",
      "pitch": "A4",
      "midi": 69,
      "start": 96.25,
      "duration": 0.156,
      "velocity": 0.71
    },
    {
      "id": "n-02139",
      "pitch": "F#5",
      "midi": 78,
      "start": 96.25,
      "duration": 0.156,
      "velocity": 0.71
    },
    {
      "id": "n-02140",
      "pitch": "A5",
      "midi": 81,
      "start": 96.25,
      "duration": 0.156,
      "velocity": 0.71
    },
    {
      "id": "n-02141",
      "pitch": "F#3",
      "midi": 54,
      "start": 96.406,
      "duration": 0.156,
      "velocity": 0.71
    },
    {
      "id": "n-02142",
      "pitch": "D4",
      "midi": 62,
      "start": 96.406,
      "duration": 0.156,
      "velocity": 0.71
    },
    {
      "id": "n-02143",
      "pitch": "F#4",
      "midi": 66,
      "start": 96.406,
      "duration": 0.156,
      "velocity": 0.71
    },
    {
      "id": "n-02144",
      "pitch": "D5",
      "midi": 74,
      "start": 96.406,
      "duration": 0.156,
      "velocity": 0.71
    },
    {
      "id": "n-02145",
      "pitch": "F#5",
      "midi": 78,
      "start": 96.406,
      "duration": 0.156,
      "velocity": 0.71
    },
    {
      "id": "n-02146",
      "pitch": "D6",
      "midi": 86,
      "start": 96.406,
      "duration": 0.156,
      "velocity": 0.71
    },
    {
      "id": "n-02147",
      "pitch": "F#3",
      "midi": 54,
      "start": 96.563,
      "duration": 0.156,
      "velocity": 0.71
    },
    {
      "id": "n-02148",
      "pitch": "D4",
      "midi": 62,
      "start": 96.563,
      "duration": 0.156,
      "velocity": 0.71
    },
    {
      "id": "n-02149",
      "pitch": "F#4",
      "midi": 66,
      "start": 96.563,
      "duration": 0.156,
      "velocity": 0.71
    },
    {
      "id": "n-02150",
      "pitch": "D5",
      "midi": 74,
      "start": 96.563,
      "duration": 0.156,
      "velocity": 0.71
    },
    {
      "id": "n-02151",
      "pitch": "F#5",
      "midi": 78,
      "start": 96.563,
      "duration": 0.156,
      "velocity": 0.71
    },
    {
      "id": "n-02152",
      "pitch": "D6",
      "midi": 86,
      "start": 96.563,
      "duration": 0.156,
      "velocity": 0.71
    },
    {
      "id": "n-02153",
      "pitch": "A3",
      "midi": 57,
      "start": 96.719,
      "duration": 0.156,
      "velocity": 0.71
    },
    {
      "id": "n-02154",
      "pitch": "C4",
      "midi": 60,
      "start": 96.719,
      "duration": 0.156,
      "velocity": 0.71
    },
    {
      "id": "n-02155",
      "pitch": "A4",
      "midi": 69,
      "start": 96.719,
      "duration": 0.156,
      "velocity": 0.71
    },
    {
      "id": "n-02156",
      "pitch": "C5",
      "midi": 72,
      "start": 96.719,
      "duration": 0.156,
      "velocity": 0.71
    },
    {
      "id": "n-02157",
      "pitch": "A5",
      "midi": 81,
      "start": 96.719,
      "duration": 0.156,
      "velocity": 0.71
    },
    {
      "id": "n-02158",
      "pitch": "C6",
      "midi": 84,
      "start": 96.719,
      "duration": 0.156,
      "velocity": 0.71
    },
    {
      "id": "n-02159",
      "pitch": "G3",
      "midi": 55,
      "start": 96.875,
      "duration": 0.625,
      "velocity": 0.71
    },
    {
      "id": "n-02160",
      "pitch": "G3",
      "midi": 55,
      "start": 96.875,
      "duration": 0.313,
      "velocity": 0.71
    },
    {
      "id": "n-02161",
      "pitch": "B3",
      "midi": 59,
      "start": 96.875,
      "duration": 0.625,
      "velocity": 0.71
    },
    {
      "id": "n-02162",
      "pitch": "G4",
      "midi": 67,
      "start": 96.875,
      "duration": 0.625,
      "velocity": 0.71
    },
    {
      "id": "n-02163",
      "pitch": "A#4",
      "midi": 70,
      "start": 96.875,
      "duration": 0.625,
      "velocity": 0.71
    },
    {
      "id": "n-02164",
      "pitch": "G5",
      "midi": 79,
      "start": 96.875,
      "duration": 0.625,
      "velocity": 0.71
    },
    {
      "id": "n-02165",
      "pitch": "A#5",
      "midi": 82,
      "start": 96.875,
      "duration": 0.625,
      "velocity": 0.71
    },
    {
      "id": "n-02166",
      "pitch": "A#3",
      "midi": 58,
      "start": 97.031,
      "duration": 0.156,
      "velocity": 0.71
    },
    {
      "id": "n-02167",
      "pitch": "A#3",
      "midi": 58,
      "start": 97.031,
      "duration": 0.156,
      "velocity": 0.71
    },
    {
      "id": "n-02168",
      "pitch": "G5",
      "midi": 79,
      "start": 97.031,
      "duration": 0.156,
      "velocity": 0.71
    },
    {
      "id": "n-02169",
      "pitch": "A#3",
      "midi": 58,
      "start": 97.188,
      "duration": 0.156,
      "velocity": 0.71
    },
    {
      "id": "n-02170",
      "pitch": "A#3",
      "midi": 58,
      "start": 97.188,
      "duration": 0.156,
      "velocity": 0.71
    },
    {
      "id": "n-02171",
      "pitch": "G5",
      "midi": 79,
      "start": 97.188,
      "duration": 0.156,
      "velocity": 0.71
    },
    {
      "id": "n-02172",
      "pitch": "C4",
      "midi": 60,
      "start": 97.344,
      "duration": 0.156,
      "velocity": 0.71
    },
    {
      "id": "n-02173",
      "pitch": "C4",
      "midi": 60,
      "start": 97.344,
      "duration": 0.156,
      "velocity": 0.71
    },
    {
      "id": "n-02174",
      "pitch": "A5",
      "midi": 81,
      "start": 97.344,
      "duration": 0.156,
      "velocity": 0.71
    },
    {
      "id": "n-02175",
      "pitch": "D3",
      "midi": 50,
      "start": 97.5,
      "duration": 0.313,
      "velocity": 0.71
    },
    {
      "id": "n-02176",
      "pitch": "F#3",
      "midi": 54,
      "start": 97.5,
      "duration": 0.625,
      "velocity": 0.71
    },
    {
      "id": "n-02177",
      "pitch": "A3",
      "midi": 57,
      "start": 97.5,
      "duration": 0.625,
      "velocity": 0.71
    },
    {
      "id": "n-02178",
      "pitch": "D4",
      "midi": 62,
      "start": 97.5,
      "duration": 0.156,
      "velocity": 0.71
    },
    {
      "id": "n-02179",
      "pitch": "D4",
      "midi": 62,
      "start": 97.5,
      "duration": 0.156,
      "velocity": 0.71
    },
    {
      "id": "n-02180",
      "pitch": "F#4",
      "midi": 66,
      "start": 97.5,
      "duration": 0.625,
      "velocity": 0.71
    },
    {
      "id": "n-02181",
      "pitch": "A4",
      "midi": 69,
      "start": 97.5,
      "duration": 0.625,
      "velocity": 0.71
    },
    {
      "id": "n-02182",
      "pitch": "F#5",
      "midi": 78,
      "start": 97.5,
      "duration": 0.625,
      "velocity": 0.71
    },
    {
      "id": "n-02183",
      "pitch": "F#5",
      "midi": 78,
      "start": 97.5,
      "duration": 0.313,
      "velocity": 0.71
    },
    {
      "id": "n-02184",
      "pitch": "A5",
      "midi": 81,
      "start": 97.5,
      "duration": 0.625,
      "velocity": 0.71
    },
    {
      "id": "n-02185",
      "pitch": "D4",
      "midi": 62,
      "start": 97.656,
      "duration": 0.156,
      "velocity": 0.71
    },
    {
      "id": "n-02186",
      "pitch": "D4",
      "midi": 62,
      "start": 97.656,
      "duration": 0.156,
      "velocity": 0.71
    },
    {
      "id": "n-02187",
      "pitch": "D4",
      "midi": 62,
      "start": 97.813,
      "duration": 0.156,
      "velocity": 0.71
    },
    {
      "id": "n-02188",
      "pitch": "D4",
      "midi": 62,
      "start": 97.813,
      "duration": 0.156,
      "velocity": 0.71
    },
    {
      "id": "n-02189",
      "pitch": "D5",
      "midi": 74,
      "start": 97.813,
      "duration": 0.469,
      "velocity": 0.71
    },
    {
      "id": "n-02190",
      "pitch": "C4",
      "midi": 60,
      "start": 97.969,
      "duration": 0.156,
      "velocity": 0.71
    },
    {
      "id": "n-02191",
      "pitch": "C4",
      "midi": 60,
      "start": 97.969,
      "duration": 0.156,
      "velocity": 0.71
    },
    {
      "id": "n-02192",
      "pitch": "G2",
      "midi": 43,
      "start": 98.125,
      "duration": 1.25,
      "velocity": 0.71
    },
    {
      "id": "n-02193",
      "pitch": "G2",
      "midi": 43,
      "start": 98.125,
      "duration": 0.313,
      "velocity": 0.71
    },
    {
      "id": "n-02194",
      "pitch": "G3",
      "midi": 55,
      "start": 98.125,
      "duration": 0.313,
      "velocity": 0.71
    },
    {
      "id": "n-02195",
      "pitch": "G3",
      "midi": 55,
      "start": 98.125,
      "duration": 0.313,
      "velocity": 0.71
    },
    {
      "id": "n-02196",
      "pitch": "A#3",
      "midi": 58,
      "start": 98.125,
      "duration": 0.156,
      "velocity": 0.71
    },
    {
      "id": "n-02197",
      "pitch": "A#3",
      "midi": 58,
      "start": 98.125,
      "duration": 0.156,
      "velocity": 0.71
    },
    {
      "id": "n-02198",
      "pitch": "B3",
      "midi": 59,
      "start": 98.125,
      "duration": 0.313,
      "velocity": 0.71
    },
    {
      "id": "n-02199",
      "pitch": "G4",
      "midi": 67,
      "start": 98.125,
      "duration": 0.781,
      "velocity": 0.71
    },
    {
      "id": "n-02200",
      "pitch": "G4",
      "midi": 67,
      "start": 98.125,
      "duration": 0.313,
      "velocity": 0.71
    },
    {
      "id": "n-02201",
      "pitch": "A#4",
      "midi": 70,
      "start": 98.125,
      "duration": 0.781,
      "velocity": 0.71
    },
    {
      "id": "n-02202",
      "pitch": "G5",
      "midi": 79,
      "start": 98.125,
      "duration": 0.781,
      "velocity": 0.71
    },
    {
      "id": "n-02203",
      "pitch": "A#5",
      "midi": 82,
      "start": 98.125,
      "duration": 0.781,
      "velocity": 0.71
    },
    {
      "id": "n-02204",
      "pitch": "G3",
      "midi": 55,
      "start": 98.281,
      "duration": 0.156,
      "velocity": 0.71
    },
    {
      "id": "n-02205",
      "pitch": "A#3",
      "midi": 58,
      "start": 98.281,
      "duration": 0.156,
      "velocity": 0.71
    },
    {
      "id": "n-02206",
      "pitch": "A#3",
      "midi": 58,
      "start": 98.281,
      "duration": 0.156,
      "velocity": 0.71
    },
    {
      "id": "n-02207",
      "pitch": "G4",
      "midi": 67,
      "start": 98.281,
      "duration": 0.156,
      "velocity": 0.71
    },
    {
      "id": "n-02208",
      "pitch": "G4",
      "midi": 67,
      "start": 98.281,
      "duration": 0.156,
      "velocity": 0.71
    },
    {
      "id": "n-02209",
      "pitch": "G5",
      "midi": 79,
      "start": 98.281,
      "duration": 0.156,
      "velocity": 0.71
    },
    {
      "id": "n-02210",
      "pitch": "G3",
      "midi": 55,
      "start": 98.438,
      "duration": 0.156,
      "velocity": 0.71
    },
    {
      "id": "n-02211",
      "pitch": "A#3",
      "midi": 58,
      "start": 98.438,
      "duration": 0.156,
      "velocity": 0.71
    },
    {
      "id": "n-02212",
      "pitch": "A#3",
      "midi": 58,
      "start": 98.438,
      "duration": 0.156,
      "velocity": 0.71
    },
    {
      "id": "n-02213",
      "pitch": "G4",
      "midi": 67,
      "start": 98.438,
      "duration": 0.156,
      "velocity": 0.71
    },
    {
      "id": "n-02214",
      "pitch": "G4",
      "midi": 67,
      "start": 98.438,
      "duration": 0.156,
      "velocity": 0.71
    },
    {
      "id": "n-02215",
      "pitch": "G5",
      "midi": 79,
      "start": 98.438,
      "duration": 0.156,
      "velocity": 0.71
    },
    {
      "id": "n-02216",
      "pitch": "G3",
      "midi": 55,
      "start": 98.594,
      "duration": 0.156,
      "velocity": 0.71
    },
    {
      "id": "n-02217",
      "pitch": "A3",
      "midi": 57,
      "start": 98.594,
      "duration": 0.156,
      "velocity": 0.71
    },
    {
      "id": "n-02218",
      "pitch": "A3",
      "midi": 57,
      "start": 98.594,
      "duration": 0.156,
      "velocity": 0.71
    },
    {
      "id": "n-02219",
      "pitch": "G4",
      "midi": 67,
      "start": 98.594,
      "duration": 0.156,
      "velocity": 0.71
    },
    {
      "id": "n-02220",
      "pitch": "A4",
      "midi": 69,
      "start": 98.594,
      "duration": 0.156,
      "velocity": 0.71
    },
    {
      "id": "n-02221",
      "pitch": "A5",
      "midi": 81,
      "start": 98.594,
      "duration": 0.156,
      "velocity": 0.71
    },
    {
      "id": "n-02222",
      "pitch": "G2",
      "midi": 43,
      "start": 98.75,
      "duration": 0.625,
      "velocity": 0.71
    },
    {
      "id": "n-02223",
      "pitch": "G3",
      "midi": 55,
      "start": 98.75,
      "duration": 0.313,
      "velocity": 0.71
    },
    {
      "id": "n-02224",
      "pitch": "G3",
      "midi": 55,
      "start": 98.75,
      "duration": 0.156,
      "velocity": 0.71
    },
    {
      "id": "n-02225",
      "pitch": "G3",
      "midi": 55,
      "start": 98.75,
      "duration": 0.156,
      "velocity": 0.71
    },
    {
      "id": "n-02226",
      "pitch": "G4",
      "midi": 67,
      "start": 98.75,
      "duration": 0.313,
      "velocity": 0.71
    },
    {
      "id": "n-02227",
      "pitch": "A#4",
      "midi": 70,
      "start": 98.75,
      "duration": 0.313,
      "velocity": 0.71
    },
    {
      "id": "n-02228",
      "pitch": "A#5",
      "midi": 82,
      "start": 98.75,
      "duration": 0.313,
      "velocity": 0.71
    },
    {
      "id": "n-02229",
      "pitch": "G3",
      "midi": 55,
      "start": 98.906,
      "duration": 0.156,
      "velocity": 0.71
    },
    {
      "id": "n-02230",
      "pitch": "G3",
      "midi": 55,
      "start": 98.906,
      "duration": 0.156,
      "velocity": 0.71
    },
    {
      "id": "n-02231",
      "pitch": "G3",
      "midi": 55,
      "start": 98.906,
      "duration": 0.156,
      "velocity": 0.71
    },
    {
      "id": "n-02232",
      "pitch": "G4",
      "midi": 67,
      "start": 98.906,
      "duration": 0.156,
      "velocity": 0.71
    },
    {
      "id": "n-02233",
      "pitch": "G5",
      "midi": 79,
      "start": 98.906,
      "duration": 0.156,
      "velocity": 0.71
    },
    {
      "id": "n-02234",
      "pitch": "G3",
      "midi": 55,
      "start": 99.063,
      "duration": 0.156,
      "velocity": 0.71
    },
    {
      "id": "n-02235",
      "pitch": "G3",
      "midi": 55,
      "start": 99.063,
      "duration": 0.156,
      "velocity": 0.71
    },
    {
      "id": "n-02236",
      "pitch": "A3",
      "midi": 57,
      "start": 99.063,
      "duration": 0.156,
      "velocity": 0.71
    },
    {
      "id": "n-02237",
      "pitch": "A4",
      "midi": 69,
      "start": 99.063,
      "duration": 0.156,
      "velocity": 0.71
    },
    {
      "id": "n-02238",
      "pitch": "A5",
      "midi": 81,
      "start": 99.063,
      "duration": 0.156,
      "velocity": 0.71
    },
    {
      "id": "n-02239",
      "pitch": "F3",
      "midi": 53,
      "start": 99.219,
      "duration": 0.156,
      "velocity": 0.71
    },
    {
      "id": "n-02240",
      "pitch": "F3",
      "midi": 53,
      "start": 99.219,
      "duration": 0.156,
      "velocity": 0.71
    },
    {
      "id": "n-02241",
      "pitch": "A#3",
      "midi": 58,
      "start": 99.219,
      "duration": 0.156,
      "velocity": 0.71
    },
    {
      "id": "n-02242",
      "pitch": "A#4",
      "midi": 70,
      "start": 99.219,
      "duration": 0.156,
      "velocity": 0.71
    },
    {
      "id": "n-02243",
      "pitch": "A#5",
      "midi": 82,
      "start": 99.219,
      "duration": 0.156,
      "velocity": 0.71
    },
    {
      "id": "n-02244",
      "pitch": "A2",
      "midi": 45,
      "start": 99.375,
      "duration": 1.25,
      "velocity": 0.71
    },
    {
      "id": "n-02245",
      "pitch": "A2",
      "midi": 45,
      "start": 99.375,
      "duration": 1.25,
      "velocity": 0.71
    },
    {
      "id": "n-02246",
      "pitch": "C3",
      "midi": 48,
      "start": 99.375,
      "duration": 0.313,
      "velocity": 0.71
    },
    {
      "id": "n-02247",
      "pitch": "D#3",
      "midi": 51,
      "start": 99.375,
      "duration": 0.156,
      "velocity": 0.71
    },
    {
      "id": "n-02248",
      "pitch": "D#3",
      "midi": 51,
      "start": 99.375,
      "duration": 0.156,
      "velocity": 0.71
    },
    {
      "id": "n-02249",
      "pitch": "C4",
      "midi": 60,
      "start": 99.375,
      "duration": 0.313,
      "velocity": 0.71
    },
    {
      "id": "n-02250",
      "pitch": "C4",
      "midi": 60,
      "start": 99.375,
      "duration": 0.313,
      "velocity": 0.71
    },
    {
      "id": "n-02251",
      "pitch": "F#4",
      "midi": 66,
      "start": 99.375,
      "duration": 0.313,
      "velocity": 0.71
    },
    {
      "id": "n-02252",
      "pitch": "C5",
      "midi": 72,
      "start": 99.375,
      "duration": 0.313,
      "velocity": 0.71
    },
    {
      "id": "n-02253",
      "pitch": "C5",
      "midi": 72,
      "start": 99.375,
      "duration": 0.313,
      "velocity": 0.71
    },
    {
      "id": "n-02254",
      "pitch": "F#5",
      "midi": 78,
      "start": 99.375,
      "duration": 0.313,
      "velocity": 0.71
    },
    {
      "id": "n-02255",
      "pitch": "C6",
      "midi": 84,
      "start": 99.375,
      "duration": 0.313,
      "velocity": 0.71
    },
    {
      "id": "n-02256",
      "pitch": "D#3",
      "midi": 51,
      "start": 99.531,
      "duration": 0.156,
      "velocity": 0.71
    },
    {
      "id": "n-02257",
      "pitch": "D#3",
      "midi": 51,
      "start": 99.531,
      "duration": 0.156,
      "velocity": 0.71
    },
    {
      "id": "n-02258",
      "pitch": "D#3",
      "midi": 51,
      "start": 99.531,
      "duration": 0.156,
      "velocity": 0.71
    },
    {
      "id": "n-02259",
      "pitch": "D#4",
      "midi": 63,
      "start": 99.531,
      "duration": 0.156,
      "velocity": 0.71
    },
    {
      "id": "n-02260",
      "pitch": "F#4",
      "midi": 66,
      "start": 99.531,
      "duration": 0.156,
      "velocity": 0.71
    },
    {
      "id": "n-02261",
      "pitch": "F#5",
      "midi": 78,
      "start": 99.531,
      "duration": 0.156,
      "velocity": 0.71
    },
    {
      "id": "n-02262",
      "pitch": "D#3",
      "midi": 51,
      "start": 99.688,
      "duration": 0.156,
      "velocity": 0.71
    },
    {
      "id": "n-02263",
      "pitch": "D#3",
      "midi": 51,
      "start": 99.688,
      "duration": 0.156,
      "velocity": 0.71
    },
    {
      "id": "n-02264",
      "pitch": "D#3",
      "midi": 51,
      "start": 99.688,
      "duration": 0.156,
      "velocity": 0.71
    },
    {
      "id": "n-02265",
      "pitch": "D#4",
      "midi": 63,
      "start": 99.688,
      "duration": 0.156,
      "velocity": 0.71
    },
    {
      "id": "n-02266",
      "pitch": "A4",
      "midi": 69,
      "start": 99.688,
      "duration": 0.156,
      "velocity": 0.71
    },
    {
      "id": "n-02267",
      "pitch": "A5",
      "midi": 81,
      "start": 99.688,
      "duration": 0.156,
      "velocity": 0.71
    },
    {
      "id": "n-02268",
      "pitch": "D3",
      "midi": 50,
      "start": 99.844,
      "duration": 0.156,
      "velocity": 0.71
    },
    {
      "id": "n-02269",
      "pitch": "D3",
      "midi": 50,
      "start": 99.844,
      "duration": 0.156,
      "velocity": 0.71
    },
    {
      "id": "n-02270",
      "pitch": "D#3",
      "midi": 51,
      "start": 99.844,
      "duration": 0.156,
      "velocity": 0.71
    },
    {
      "id": "n-02271",
      "pitch": "D#4",
      "midi": 63,
      "start": 99.844,
      "duration": 0.156,
      "velocity": 0.71
    },
    {
      "id": "n-02272",
      "pitch": "A#4",
      "midi": 70,
      "start": 99.844,
      "duration": 0.156,
      "velocity": 0.71
    },
    {
      "id": "n-02273",
      "pitch": "A#5",
      "midi": 82,
      "start": 99.844,
      "duration": 0.156,
      "velocity": 0.71
    },
    {
      "id": "n-02274",
      "pitch": "C3",
      "midi": 48,
      "start": 100,
      "duration": 0.156,
      "velocity": 0.71
    },
    {
      "id": "n-02275",
      "pitch": "C3",
      "midi": 48,
      "start": 100,
      "duration": 0.156,
      "velocity": 0.71
    },
    {
      "id": "n-02276",
      "pitch": "D#3",
      "midi": 51,
      "start": 100,
      "duration": 0.313,
      "velocity": 0.71
    },
    {
      "id": "n-02277",
      "pitch": "D#4",
      "midi": 63,
      "start": 100,
      "duration": 0.313,
      "velocity": 0.71
    },
    {
      "id": "n-02278",
      "pitch": "C5",
      "midi": 72,
      "start": 100,
      "duration": 0.313,
      "velocity": 0.71
    },
    {
      "id": "n-02279",
      "pitch": "C6",
      "midi": 84,
      "start": 100,
      "duration": 0.313,
      "velocity": 0.71
    },
    {
      "id": "n-02280",
      "pitch": "F#3",
      "midi": 54,
      "start": 100.156,
      "duration": 0.156,
      "velocity": 0.71
    },
    {
      "id": "n-02281",
      "pitch": "C4",
      "midi": 60,
      "start": 100.156,
      "duration": 0.156,
      "velocity": 0.71
    },
    {
      "id": "n-02282",
      "pitch": "C4",
      "midi": 60,
      "start": 100.156,
      "duration": 0.156,
      "velocity": 0.71
    },
    {
      "id": "n-02283",
      "pitch": "F#4",
      "midi": 66,
      "start": 100.156,
      "duration": 0.156,
      "velocity": 0.71
    },
    {
      "id": "n-02284",
      "pitch": "F#5",
      "midi": 78,
      "start": 100.156,
      "duration": 0.156,
      "velocity": 0.71
    },
    {
      "id": "n-02285",
      "pitch": "A3",
      "midi": 57,
      "start": 100.313,
      "duration": 0.156,
      "velocity": 0.71
    },
    {
      "id": "n-02286",
      "pitch": "C4",
      "midi": 60,
      "start": 100.313,
      "duration": 0.156,
      "velocity": 0.71
    },
    {
      "id": "n-02287",
      "pitch": "C4",
      "midi": 60,
      "start": 100.313,
      "duration": 0.156,
      "velocity": 0.71
    },
    {
      "id": "n-02288",
      "pitch": "A4",
      "midi": 69,
      "start": 100.313,
      "duration": 0.156,
      "velocity": 0.71
    },
    {
      "id": "n-02289",
      "pitch": "A5",
      "midi": 81,
      "start": 100.313,
      "duration": 0.156,
      "velocity": 0.71
    },
    {
      "id": "n-02290",
      "pitch": "A#3",
      "midi": 58,
      "start": 100.469,
      "duration": 0.156,
      "velocity": 0.71
    },
    {
      "id": "n-02291",
      "pitch": "A#3",
      "midi": 58,
      "start": 100.469,
      "duration": 0.156,
      "velocity": 0.71
    },
    {
      "id": "n-02292",
      "pitch": "A#3",
      "midi": 58,
      "start": 100.469,
      "duration": 0.156,
      "velocity": 0.71
    },
    {
      "id": "n-02293",
      "pitch": "A#4",
      "midi": 70,
      "start": 100.469,
      "duration": 0.156,
      "velocity": 0.71
    },
    {
      "id": "n-02294",
      "pitch": "A#5",
      "midi": 82,
      "start": 100.469,
      "duration": 0.156,
      "velocity": 0.71
    },
    {
      "id": "n-02295",
      "pitch": "A2",
      "midi": 45,
      "start": 100.625,
      "duration": 1.25,
      "velocity": 0.71
    },
    {
      "id": "n-02296",
      "pitch": "A2",
      "midi": 45,
      "start": 100.625,
      "duration": 1.25,
      "velocity": 0.71
    },
    {
      "id": "n-02297",
      "pitch": "C3",
      "midi": 48,
      "start": 100.625,
      "duration": 0.313,
      "velocity": 0.71
    },
    {
      "id": "n-02298",
      "pitch": "A3",
      "midi": 57,
      "start": 100.625,
      "duration": 0.156,
      "velocity": 0.71
    },
    {
      "id": "n-02299",
      "pitch": "A3",
      "midi": 57,
      "start": 100.625,
      "duration": 0.156,
      "velocity": 0.71
    },
    {
      "id": "n-02300",
      "pitch": "C4",
      "midi": 60,
      "start": 100.625,
      "duration": 0.313,
      "velocity": 0.71
    },
    {
      "id": "n-02301",
      "pitch": "C4",
      "midi": 60,
      "start": 100.625,
      "duration": 0.313,
      "velocity": 0.71
    },
    {
      "id": "n-02302",
      "pitch": "F#4",
      "midi": 66,
      "start": 100.625,
      "duration": 0.313,
      "velocity": 0.71
    },
    {
      "id": "n-02303",
      "pitch": "C5",
      "midi": 72,
      "start": 100.625,
      "duration": 0.313,
      "velocity": 0.71
    },
    {
      "id": "n-02304",
      "pitch": "C5",
      "midi": 72,
      "start": 100.625,
      "duration": 0.313,
      "velocity": 0.71
    },
    {
      "id": "n-02305",
      "pitch": "F#5",
      "midi": 78,
      "start": 100.625,
      "duration": 0.313,
      "velocity": 0.71
    },
    {
      "id": "n-02306",
      "pitch": "C6",
      "midi": 84,
      "start": 100.625,
      "duration": 0.313,
      "velocity": 0.71
    },
    {
      "id": "n-02307",
      "pitch": "D#3",
      "midi": 51,
      "start": 100.781,
      "duration": 0.156,
      "velocity": 0.71
    },
    {
      "id": "n-02308",
      "pitch": "A3",
      "midi": 57,
      "start": 100.781,
      "duration": 0.156,
      "velocity": 0.71
    },
    {
      "id": "n-02309",
      "pitch": "A3",
      "midi": 57,
      "start": 100.781,
      "duration": 0.156,
      "velocity": 0.71
    },
    {
      "id": "n-02310",
      "pitch": "D#4",
      "midi": 63,
      "start": 100.781,
      "duration": 0.156,
      "velocity": 0.71
    },
    {
      "id": "n-02311",
      "pitch": "F#4",
      "midi": 66,
      "start": 100.781,
      "duration": 0.156,
      "velocity": 0.71
    },
    {
      "id": "n-02312",
      "pitch": "F#5",
      "midi": 78,
      "start": 100.781,
      "duration": 0.156,
      "velocity": 0.71
    },
    {
      "id": "n-02313",
      "pitch": "D#3",
      "midi": 51,
      "start": 100.938,
      "duration": 0.156,
      "velocity": 0.71
    },
    {
      "id": "n-02314",
      "pitch": "A3",
      "midi": 57,
      "start": 100.938,
      "duration": 0.156,
      "velocity": 0.71
    },
    {
      "id": "n-02315",
      "pitch": "A3",
      "midi": 57,
      "start": 100.938,
      "duration": 0.156,
      "velocity": 0.71
    },
    {
      "id": "n-02316",
      "pitch": "D#4",
      "midi": 63,
      "start": 100.938,
      "duration": 0.156,
      "velocity": 0.71
    },
    {
      "id": "n-02317",
      "pitch": "A4",
      "midi": 69,
      "start": 100.938,
      "duration": 0.156,
      "velocity": 0.71
    },
    {
      "id": "n-02318",
      "pitch": "A5",
      "midi": 81,
      "start": 100.938,
      "duration": 0.156,
      "velocity": 0.71
    },
    {
      "id": "n-02319",
      "pitch": "D#3",
      "midi": 51,
      "start": 101.094,
      "duration": 0.156,
      "velocity": 0.71
    },
    {
      "id": "n-02320",
      "pitch": "G3",
      "midi": 55,
      "start": 101.094,
      "duration": 0.156,
      "velocity": 0.71
    },
    {
      "id": "n-02321",
      "pitch": "G3",
      "midi": 55,
      "start": 101.094,
      "duration": 0.156,
      "velocity": 0.71
    },
    {
      "id": "n-02322",
      "pitch": "D#4",
      "midi": 63,
      "start": 101.094,
      "duration": 0.156,
      "velocity": 0.71
    },
    {
      "id": "n-02323",
      "pitch": "A#4",
      "midi": 70,
      "start": 101.094,
      "duration": 0.156,
      "velocity": 0.71
    },
    {
      "id": "n-02324",
      "pitch": "A#5",
      "midi": 82,
      "start": 101.094,
      "duration": 0.156,
      "velocity": 0.71
    },
    {
      "id": "n-02325",
      "pitch": "D#3",
      "midi": 51,
      "start": 101.25,
      "duration": 0.313,
      "velocity": 0.71
    },
    {
      "id": "n-02326",
      "pitch": "F#3",
      "midi": 54,
      "start": 101.25,
      "duration": 0.156,
      "velocity": 0.71
    },
    {
      "id": "n-02327",
      "pitch": "F#3",
      "midi": 54,
      "start": 101.25,
      "duration": 0.156,
      "velocity": 0.71
    },
    {
      "id": "n-02328",
      "pitch": "D#4",
      "midi": 63,
      "start": 101.25,
      "duration": 0.313,
      "velocity": 0.71
    },
    {
      "id": "n-02329",
      "pitch": "C5",
      "midi": 72,
      "start": 101.25,
      "duration": 0.313,
      "velocity": 0.71
    },
    {
      "id": "n-02330",
      "pitch": "C6",
      "midi": 84,
      "start": 101.25,
      "duration": 0.313,
      "velocity": 0.71
    },
    {
      "id": "n-02331",
      "pitch": "F#3",
      "midi": 54,
      "start": 101.406,
      "duration": 0.156,
      "velocity": 0.71
    },
    {
      "id": "n-02332",
      "pitch": "F#3",
      "midi": 54,
      "start": 101.406,
      "duration": 0.156,
      "velocity": 0.71
    },
    {
      "id": "n-02333",
      "pitch": "A3",
      "midi": 57,
      "start": 101.406,
      "duration": 0.156,
      "velocity": 0.71
    },
    {
      "id": "n-02334",
      "pitch": "A4",
      "midi": 69,
      "start": 101.406,
      "duration": 0.156,
      "velocity": 0.71
    },
    {
      "id": "n-02335",
      "pitch": "A5",
      "midi": 81,
      "start": 101.406,
      "duration": 0.156,
      "velocity": 0.71
    },
    {
      "id": "n-02336",
      "pitch": "F#3",
      "midi": 54,
      "start": 101.563,
      "duration": 0.156,
      "velocity": 0.71
    },
    {
      "id": "n-02337",
      "pitch": "F#3",
      "midi": 54,
      "start": 101.563,
      "duration": 0.156,
      "velocity": 0.71
    },
    {
      "id": "n-02338",
      "pitch": "A#3",
      "midi": 58,
      "start": 101.563,
      "duration": 0.156,
      "velocity": 0.71
    },
    {
      "id": "n-02339",
      "pitch": "A#4",
      "midi": 70,
      "start": 101.563,
      "duration": 0.156,
      "velocity": 0.71
    },
    {
      "id": "n-02340",
      "pitch": "A#5",
      "midi": 82,
      "start": 101.563,
      "duration": 0.156,
      "velocity": 0.71
    },
    {
      "id": "n-02341",
      "pitch": "D#3",
      "midi": 51,
      "start": 101.719,
      "duration": 0.156,
      "velocity": 0.71
    },
    {
      "id": "n-02342",
      "pitch": "D#3",
      "midi": 51,
      "start": 101.719,
      "duration": 0.156,
      "velocity": 0.71
    },
    {
      "id": "n-02343",
      "pitch": "C4",
      "midi": 60,
      "start": 101.719,
      "duration": 0.156,
      "velocity": 0.71
    },
    {
      "id": "n-02344",
      "pitch": "C5",
      "midi": 72,
      "start": 101.719,
      "duration": 0.156,
      "velocity": 0.71
    },
    {
      "id": "n-02345",
      "pitch": "C6",
      "midi": 84,
      "start": 101.719,
      "duration": 0.156,
      "velocity": 0.71
    },
    {
      "id": "n-02346",
      "pitch": "G2",
      "midi": 43,
      "start": 101.875,
      "duration": 0.313,
      "velocity": 0.71
    },
    {
      "id": "n-02347",
      "pitch": "A#2",
      "midi": 46,
      "start": 101.875,
      "duration": 1.25,
      "velocity": 0.71
    },
    {
      "id": "n-02348",
      "pitch": "A#2",
      "midi": 46,
      "start": 101.875,
      "duration": 1.25,
      "velocity": 0.71
    },
    {
      "id": "n-02349",
      "pitch": "D3",
      "midi": 50,
      "start": 101.875,
      "duration": 0.156,
      "velocity": 0.71
    },
    {
      "id": "n-02350",
      "pitch": "D3",
      "midi": 50,
      "start": 101.875,
      "duration": 0.156,
      "velocity": 0.71
    },
    {
      "id": "n-02351",
      "pitch": "G3",
      "midi": 55,
      "start": 101.875,
      "duration": 0.313,
      "velocity": 0.71
    },
    {
      "id": "n-02352",
      "pitch": "D4",
      "midi": 62,
      "start": 101.875,
      "duration": 0.313,
      "velocity": 0.71
    },
    {
      "id": "n-02353",
      "pitch": "G4",
      "midi": 67,
      "start": 101.875,
      "duration": 0.313,
      "velocity": 0.71
    },
    {
      "id": "n-02354",
      "pitch": "G4",
      "midi": 67,
      "start": 101.875,
      "duration": 0.313,
      "velocity": 0.71
    },
    {
      "id": "n-02355",
      "pitch": "G4",
      "midi": 67,
      "start": 101.875,
      "duration": 0.313,
      "velocity": 0.71
    },
    {
      "id": "n-02356",
      "pitch": "D5",
      "midi": 74,
      "start": 101.875,
      "duration": 0.313,
      "velocity": 0.71
    },
    {
      "id": "n-02357",
      "pitch": "G5",
      "midi": 79,
      "start": 101.875,
      "duration": 0.313,
      "velocity": 0.71
    },
    {
      "id": "n-02358",
      "pitch": "D6",
      "midi": 86,
      "start": 101.875,
      "duration": 0.313,
      "velocity": 0.71
    },
    {
      "id": "n-02359",
      "pitch": "D3",
      "midi": 50,
      "start": 102.031,
      "duration": 0.156,
      "velocity": 0.71
    },
    {
      "id": "n-02360",
      "pitch": "D3",
      "midi": 50,
      "start": 102.031,
      "duration": 0.156,
      "velocity": 0.71
    },
    {
      "id": "n-02361",
      "pitch": "G3",
      "midi": 55,
      "start": 102.031,
      "duration": 0.156,
      "velocity": 0.71
    },
    {
      "id": "n-02362",
      "pitch": "G4",
      "midi": 67,
      "start": 102.031,
      "duration": 0.156,
      "velocity": 0.71
    },
    {
      "id": "n-02363",
      "pitch": "G4",
      "midi": 67,
      "start": 102.031,
      "duration": 0.156,
      "velocity": 0.71
    },
    {
      "id": "n-02364",
      "pitch": "G5",
      "midi": 79,
      "start": 102.031,
      "duration": 0.156,
      "velocity": 0.71
    },
    {
      "id": "n-02365",
      "pitch": "D3",
      "midi": 50,
      "start": 102.188,
      "duration": 0.156,
      "velocity": 0.71
    },
    {
      "id": "n-02366",
      "pitch": "D3",
      "midi": 50,
      "start": 102.188,
      "duration": 0.156,
      "velocity": 0.71
    },
    {
      "id": "n-02367",
      "pitch": "G3",
      "midi": 55,
      "start": 102.188,
      "duration": 0.156,
      "velocity": 0.71
    },
    {
      "id": "n-02368",
      "pitch": "G4",
      "midi": 67,
      "start": 102.188,
      "duration": 0.156,
      "velocity": 0.71
    },
    {
      "id": "n-02369",
      "pitch": "A#4",
      "midi": 70,
      "start": 102.188,
      "duration": 0.156,
      "velocity": 0.71
    },
    {
      "id": "n-02370",
      "pitch": "A#5",
      "midi": 82,
      "start": 102.188,
      "duration": 0.156,
      "velocity": 0.71
    },
    {
      "id": "n-02371",
      "pitch": "C3",
      "midi": 48,
      "start": 102.344,
      "duration": 0.156,
      "velocity": 0.71
    },
    {
      "id": "n-02372",
      "pitch": "C3",
      "midi": 48,
      "start": 102.344,
      "duration": 0.156,
      "velocity": 0.71
    },
    {
      "id": "n-02373",
      "pitch": "G3",
      "midi": 55,
      "start": 102.344,
      "duration": 0.156,
      "velocity": 0.71
    },
    {
      "id": "n-02374",
      "pitch": "G4",
      "midi": 67,
      "start": 102.344,
      "duration": 0.156,
      "velocity": 0.71
    },
    {
      "id": "n-02375",
      "pitch": "C5",
      "midi": 72,
      "start": 102.344,
      "duration": 0.156,
      "velocity": 0.71
    },
    {
      "id": "n-02376",
      "pitch": "C6",
      "midi": 84,
      "start": 102.344,
      "duration": 0.156,
      "velocity": 0.71
    },
    {
      "id": "n-02377",
      "pitch": "A#2",
      "midi": 46,
      "start": 102.5,
      "duration": 0.156,
      "velocity": 0.71
    },
    {
      "id": "n-02378",
      "pitch": "G3",
      "midi": 55,
      "start": 102.5,
      "duration": 0.313,
      "velocity": 0.71
    },
    {
      "id": "n-02379",
      "pitch": "A#3",
      "midi": 58,
      "start": 102.5,
      "duration": 0.156,
      "velocity": 0.71
    },
    {
      "id": "n-02380",
      "pitch": "G4",
      "midi": 67,
      "start": 102.5,
      "duration": 0.313,
      "velocity": 0.71
    },
    {
      "id": "n-02381",
      "pitch": "D5",
      "midi": 74,
      "start": 102.5,
      "duration": 0.313,
      "velocity": 0.71
    },
    {
      "id": "n-02382",
      "pitch": "D6",
      "midi": 86,
      "start": 102.5,
      "duration": 0.313,
      "velocity": 0.71
    },
    {
      "id": "n-02383",
      "pitch": "G3",
      "midi": 55,
      "start": 102.656,
      "duration": 0.156,
      "velocity": 0.71
    },
    {
      "id": "n-02384",
      "pitch": "D4",
      "midi": 62,
      "start": 102.656,
      "duration": 0.156,
      "velocity": 0.71
    },
    {
      "id": "n-02385",
      "pitch": "D4",
      "midi": 62,
      "start": 102.656,
      "duration": 0.156,
      "velocity": 0.71
    },
    {
      "id": "n-02386",
      "pitch": "G4",
      "midi": 67,
      "start": 102.656,
      "duration": 0.156,
      "velocity": 0.71
    },
    {
      "id": "n-02387",
      "pitch": "G5",
      "midi": 79,
      "start": 102.656,
      "duration": 0.156,
      "velocity": 0.71
    },
    {
      "id": "n-02388",
      "pitch": "A#3",
      "midi": 58,
      "start": 102.813,
      "duration": 0.156,
      "velocity": 0.71
    },
    {
      "id": "n-02389",
      "pitch": "D4",
      "midi": 62,
      "start": 102.813,
      "duration": 0.156,
      "velocity": 0.71
    },
    {
      "id": "n-02390",
      "pitch": "D4",
      "midi": 62,
      "start": 102.813,
      "duration": 0.156,
      "velocity": 0.71
    },
    {
      "id": "n-02391",
      "pitch": "A#4",
      "midi": 70,
      "start": 102.813,
      "duration": 0.156,
      "velocity": 0.71
    },
    {
      "id": "n-02392",
      "pitch": "A#5",
      "midi": 82,
      "start": 102.813,
      "duration": 0.156,
      "velocity": 0.71
    },
    {
      "id": "n-02393",
      "pitch": "C4",
      "midi": 60,
      "start": 102.969,
      "duration": 0.156,
      "velocity": 0.71
    },
    {
      "id": "n-02394",
      "pitch": "C4",
      "midi": 60,
      "start": 102.969,
      "duration": 0.156,
      "velocity": 0.71
    },
    {
      "id": "n-02395",
      "pitch": "C4",
      "midi": 60,
      "start": 102.969,
      "duration": 0.156,
      "velocity": 0.71
    },
    {
      "id": "n-02396",
      "pitch": "C5",
      "midi": 72,
      "start": 102.969,
      "duration": 0.156,
      "velocity": 0.71
    },
    {
      "id": "n-02397",
      "pitch": "C6",
      "midi": 84,
      "start": 102.969,
      "duration": 0.156,
      "velocity": 0.71
    },
    {
      "id": "n-02398",
      "pitch": "G2",
      "midi": 43,
      "start": 103.125,
      "duration": 0.313,
      "velocity": 0.71
    },
    {
      "id": "n-02399",
      "pitch": "A#2",
      "midi": 46,
      "start": 103.125,
      "duration": 1.25,
      "velocity": 0.71
    },
    {
      "id": "n-02400",
      "pitch": "A#2",
      "midi": 46,
      "start": 103.125,
      "duration": 0.625,
      "velocity": 0.71
    },
    {
      "id": "n-02401",
      "pitch": "G3",
      "midi": 55,
      "start": 103.125,
      "duration": 0.313,
      "velocity": 0.71
    },
    {
      "id": "n-02402",
      "pitch": "A#3",
      "midi": 58,
      "start": 103.125,
      "duration": 0.156,
      "velocity": 0.71
    },
    {
      "id": "n-02403",
      "pitch": "A#3",
      "midi": 58,
      "start": 103.125,
      "duration": 0.156,
      "velocity": 0.71
    },
    {
      "id": "n-02404",
      "pitch": "D4",
      "midi": 62,
      "start": 103.125,
      "duration": 0.313,
      "velocity": 0.71
    },
    {
      "id": "n-02405",
      "pitch": "G4",
      "midi": 67,
      "start": 103.125,
      "duration": 0.313,
      "velocity": 0.71
    },
    {
      "id": "n-02406",
      "pitch": "G4",
      "midi": 67,
      "start": 103.125,
      "duration": 0.313,
      "velocity": 0.71
    },
    {
      "id": "n-02407",
      "pitch": "D5",
      "midi": 74,
      "start": 103.125,
      "duration": 0.313,
      "velocity": 0.71
    },
    {
      "id": "n-02408",
      "pitch": "D5",
      "midi": 74,
      "start": 103.125,
      "duration": 0.313,
      "velocity": 0.71
    },
    {
      "id": "n-02409",
      "pitch": "G5",
      "midi": 79,
      "start": 103.125,
      "duration": 0.313,
      "velocity": 0.71
    },
    {
      "id": "n-02410",
      "pitch": "D6",
      "midi": 86,
      "start": 103.125,
      "duration": 0.313,
      "velocity": 0.71
    },
    {
      "id": "n-02411",
      "pitch": "G3",
      "midi": 55,
      "start": 103.281,
      "duration": 0.156,
      "velocity": 0.71
    },
    {
      "id": "n-02412",
      "pitch": "A#3",
      "midi": 58,
      "start": 103.281,
      "duration": 0.156,
      "velocity": 0.71
    },
    {
      "id": "n-02413",
      "pitch": "A#3",
      "midi": 58,
      "start": 103.281,
      "duration": 0.156,
      "velocity": 0.71
    },
    {
      "id": "n-02414",
      "pitch": "G4",
      "midi": 67,
      "start": 103.281,
      "duration": 0.156,
      "velocity": 0.71
    },
    {
      "id": "n-02415",
      "pitch": "G4",
      "midi": 67,
      "start": 103.281,
      "duration": 0.156,
      "velocity": 0.71
    },
    {
      "id": "n-02416",
      "pitch": "G5",
      "midi": 79,
      "start": 103.281,
      "duration": 0.156,
      "velocity": 0.71
    },
    {
      "id": "n-02417",
      "pitch": "G3",
      "midi": 55,
      "start": 103.438,
      "duration": 0.156,
      "velocity": 0.71
    },
    {
      "id": "n-02418",
      "pitch": "A#3",
      "midi": 58,
      "start": 103.438,
      "duration": 0.156,
      "velocity": 0.71
    },
    {
      "id": "n-02419",
      "pitch": "A#3",
      "midi": 58,
      "start": 103.438,
      "duration": 0.156,
      "velocity": 0.71
    },
    {
      "id": "n-02420",
      "pitch": "G4",
      "midi": 67,
      "start": 103.438,
      "duration": 0.156,
      "velocity": 0.71
    },
    {
      "id": "n-02421",
      "pitch": "A#4",
      "midi": 70,
      "start": 103.438,
      "duration": 0.156,
      "velocity": 0.71
    },
    {
      "id": "n-02422",
      "pitch": "A#5",
      "midi": 82,
      "start": 103.438,
      "duration": 0.156,
      "velocity": 0.71
    },
    {
      "id": "n-02423",
      "pitch": "G3",
      "midi": 55,
      "start": 103.594,
      "duration": 0.156,
      "velocity": 0.71
    },
    {
      "id": "n-02424",
      "pitch": "A3",
      "midi": 57,
      "start": 103.594,
      "duration": 0.156,
      "velocity": 0.71
    },
    {
      "id": "n-02425",
      "pitch": "A3",
      "midi": 57,
      "start": 103.594,
      "duration": 0.156,
      "velocity": 0.71
    },
    {
      "id": "n-02426",
      "pitch": "G4",
      "midi": 67,
      "start": 103.594,
      "duration": 0.156,
      "velocity": 0.71
    },
    {
      "id": "n-02427",
      "pitch": "C5",
      "midi": 72,
      "start": 103.594,
      "duration": 0.156,
      "velocity": 0.71
    },
    {
      "id": "n-02428",
      "pitch": "C6",
      "midi": 84,
      "start": 103.594,
      "duration": 0.156,
      "velocity": 0.71
    },
    {
      "id": "n-02429",
      "pitch": "G3",
      "midi": 55,
      "start": 103.75,
      "duration": 0.313,
      "velocity": 0.71
    },
    {
      "id": "n-02430",
      "pitch": "G3",
      "midi": 55,
      "start": 103.75,
      "duration": 0.156,
      "velocity": 0.71
    },
    {
      "id": "n-02431",
      "pitch": "G3",
      "midi": 55,
      "start": 103.75,
      "duration": 0.156,
      "velocity": 0.71
    },
    {
      "id": "n-02432",
      "pitch": "G4",
      "midi": 67,
      "start": 103.75,
      "duration": 0.313,
      "velocity": 0.71
    },
    {
      "id": "n-02433",
      "pitch": "D5",
      "midi": 74,
      "start": 103.75,
      "duration": 0.156,
      "velocity": 0.71
    },
    {
      "id": "n-02434",
      "pitch": "D6",
      "midi": 86,
      "start": 103.75,
      "duration": 0.156,
      "velocity": 0.71
    },
    {
      "id": "n-02435",
      "pitch": "F3",
      "midi": 53,
      "start": 103.906,
      "duration": 0.156,
      "velocity": 0.71
    },
    {
      "id": "n-02436",
      "pitch": "F3",
      "midi": 53,
      "start": 103.906,
      "duration": 0.156,
      "velocity": 0.71
    },
    {
      "id": "n-02437",
      "pitch": "G3",
      "midi": 55,
      "start": 103.906,
      "duration": 0.156,
      "velocity": 0.71
    },
    {
      "id": "n-02438",
      "pitch": "A#3",
      "midi": 58,
      "start": 103.906,
      "duration": 0.156,
      "velocity": 0.71
    },
    {
      "id": "n-02439",
      "pitch": "G4",
      "midi": 67,
      "start": 103.906,
      "duration": 0.156,
      "velocity": 0.71
    },
    {
      "id": "n-02440",
      "pitch": "A#4",
      "midi": 70,
      "start": 103.906,
      "duration": 0.156,
      "velocity": 0.71
    },
    {
      "id": "n-02441",
      "pitch": "A#4",
      "midi": 70,
      "start": 103.906,
      "duration": 0.156,
      "velocity": 0.71
    },
    {
      "id": "n-02442",
      "pitch": "G5",
      "midi": 79,
      "start": 103.906,
      "duration": 0.156,
      "velocity": 0.71
    },
    {
      "id": "n-02443",
      "pitch": "A#5",
      "midi": 82,
      "start": 103.906,
      "duration": 0.156,
      "velocity": 0.71
    },
    {
      "id": "n-02444",
      "pitch": "A#5",
      "midi": 82,
      "start": 103.906,
      "duration": 0.156,
      "velocity": 0.71
    },
    {
      "id": "n-02445",
      "pitch": "D#3",
      "midi": 51,
      "start": 104.063,
      "duration": 0.156,
      "velocity": 0.71
    },
    {
      "id": "n-02446",
      "pitch": "D#3",
      "midi": 51,
      "start": 104.063,
      "duration": 0.156,
      "velocity": 0.71
    },
    {
      "id": "n-02447",
      "pitch": "G3",
      "midi": 55,
      "start": 104.063,
      "duration": 0.313,
      "velocity": 0.71
    },
    {
      "id": "n-02448",
      "pitch": "A3",
      "midi": 57,
      "start": 104.063,
      "duration": 0.156,
      "velocity": 0.71
    },
    {
      "id": "n-02449",
      "pitch": "C4",
      "midi": 60,
      "start": 104.063,
      "duration": 0.156,
      "velocity": 0.71
    },
    {
      "id": "n-02450",
      "pitch": "G4",
      "midi": 67,
      "start": 104.063,
      "duration": 0.313,
      "velocity": 0.71
    },
    {
      "id": "n-02451",
      "pitch": "A4",
      "midi": 69,
      "start": 104.063,
      "duration": 0.156,
      "velocity": 0.71
    },
    {
      "id": "n-02452",
      "pitch": "C5",
      "midi": 72,
      "start": 104.063,
      "duration": 0.156,
      "velocity": 0.71
    },
    {
      "id": "n-02453",
      "pitch": "C5",
      "midi": 72,
      "start": 104.063,
      "duration": 0.156,
      "velocity": 0.71
    },
    {
      "id": "n-02454",
      "pitch": "A5",
      "midi": 81,
      "start": 104.063,
      "duration": 0.156,
      "velocity": 0.71
    },
    {
      "id": "n-02455",
      "pitch": "C6",
      "midi": 84,
      "start": 104.063,
      "duration": 0.156,
      "velocity": 0.71
    },
    {
      "id": "n-02456",
      "pitch": "C6",
      "midi": 84,
      "start": 104.063,
      "duration": 0.156,
      "velocity": 0.71
    },
    {
      "id": "n-02457",
      "pitch": "D3",
      "midi": 50,
      "start": 104.219,
      "duration": 0.156,
      "velocity": 0.71
    },
    {
      "id": "n-02458",
      "pitch": "D3",
      "midi": 50,
      "start": 104.219,
      "duration": 0.156,
      "velocity": 0.71
    },
    {
      "id": "n-02459",
      "pitch": "A#3",
      "midi": 58,
      "start": 104.219,
      "duration": 0.156,
      "velocity": 0.71
    },
    {
      "id": "n-02460",
      "pitch": "D4",
      "midi": 62,
      "start": 104.219,
      "duration": 0.156,
      "velocity": 0.71
    },
    {
      "id": "n-02461",
      "pitch": "A#4",
      "midi": 70,
      "start": 104.219,
      "duration": 0.156,
      "velocity": 0.71
    },
    {
      "id": "n-02462",
      "pitch": "D5",
      "midi": 74,
      "start": 104.219,
      "duration": 0.156,
      "velocity": 0.71
    },
    {
      "id": "n-02463",
      "pitch": "D5",
      "midi": 74,
      "start": 104.219,
      "duration": 0.156,
      "velocity": 0.71
    },
    {
      "id": "n-02464",
      "pitch": "A#5",
      "midi": 82,
      "start": 104.219,
      "duration": 0.156,
      "velocity": 0.71
    },
    {
      "id": "n-02465",
      "pitch": "D6",
      "midi": 86,
      "start": 104.219,
      "duration": 0.156,
      "velocity": 0.71
    },
    {
      "id": "n-02466",
      "pitch": "D6",
      "midi": 86,
      "start": 104.219,
      "duration": 0.156,
      "velocity": 0.71
    },
    {
      "id": "n-02467",
      "pitch": "C2",
      "midi": 36,
      "start": 104.375,
      "duration": 0.625,
      "velocity": 0.71
    },
    {
      "id": "n-02468",
      "pitch": "C3",
      "midi": 48,
      "start": 104.375,
      "duration": 0.625,
      "velocity": 0.71
    },
    {
      "id": "n-02469",
      "pitch": "C3",
      "midi": 48,
      "start": 104.375,
      "duration": 0.625,
      "velocity": 0.71
    },
    {
      "id": "n-02470",
      "pitch": "C3",
      "midi": 48,
      "start": 104.375,
      "duration": 0.625,
      "velocity": 0.71
    },
    {
      "id": "n-02471",
      "pitch": "C3",
      "midi": 48,
      "start": 104.375,
      "duration": 0.156,
      "velocity": 0.71
    },
    {
      "id": "n-02472",
      "pitch": "D#3",
      "midi": 51,
      "start": 104.375,
      "duration": 1.25,
      "velocity": 0.71
    },
    {
      "id": "n-02473",
      "pitch": "F#3",
      "midi": 54,
      "start": 104.375,
      "duration": 1.25,
      "velocity": 0.71
    },
    {
      "id": "n-02474",
      "pitch": "A3",
      "midi": 57,
      "start": 104.375,
      "duration": 1.25,
      "velocity": 0.71
    },
    {
      "id": "n-02475",
      "pitch": "C4",
      "midi": 60,
      "start": 104.375,
      "duration": 1.25,
      "velocity": 0.71
    },
    {
      "id": "n-02476",
      "pitch": "D#4",
      "midi": 63,
      "start": 104.375,
      "duration": 1.25,
      "velocity": 0.71
    },
    {
      "id": "n-02477",
      "pitch": "F#4",
      "midi": 66,
      "start": 104.375,
      "duration": 1.25,
      "velocity": 0.71
    },
    {
      "id": "n-02478",
      "pitch": "A4",
      "midi": 69,
      "start": 104.375,
      "duration": 1.25,
      "velocity": 0.71
    },
    {
      "id": "n-02479",
      "pitch": "A4",
      "midi": 69,
      "start": 104.375,
      "duration": 0.156,
      "velocity": 0.71
    },
    {
      "id": "n-02480",
      "pitch": "C5",
      "midi": 72,
      "start": 104.375,
      "duration": 1.25,
      "velocity": 0.71
    },
    {
      "id": "n-02481",
      "pitch": "D#5",
      "midi": 75,
      "start": 104.375,
      "duration": 0.625,
      "velocity": 0.71
    },
    {
      "id": "n-02482",
      "pitch": "F#5",
      "midi": 78,
      "start": 104.375,
      "duration": 1.25,
      "velocity": 0.71
    },
    {
      "id": "n-02483",
      "pitch": "A5",
      "midi": 81,
      "start": 104.375,
      "duration": 1.25,
      "velocity": 0.71
    },
    {
      "id": "n-02484",
      "pitch": "A5",
      "midi": 81,
      "start": 104.375,
      "duration": 1.25,
      "velocity": 0.71
    },
    {
      "id": "n-02485",
      "pitch": "D#6",
      "midi": 87,
      "start": 104.375,
      "duration": 1.25,
      "velocity": 0.71
    },
    {
      "id": "n-02486",
      "pitch": "D#6",
      "midi": 87,
      "start": 104.375,
      "duration": 0.625,
      "velocity": 0.71
    },
    {
      "id": "n-02487",
      "pitch": "C3",
      "midi": 48,
      "start": 104.531,
      "duration": 0.156,
      "velocity": 0.71
    },
    {
      "id": "n-02488",
      "pitch": "C4",
      "midi": 60,
      "start": 104.531,
      "duration": 0.156,
      "velocity": 0.71
    },
    {
      "id": "n-02489",
      "pitch": "A4",
      "midi": 69,
      "start": 104.531,
      "duration": 0.156,
      "velocity": 0.71
    },
    {
      "id": "n-02490",
      "pitch": "F#5",
      "midi": 78,
      "start": 104.531,
      "duration": 0.156,
      "velocity": 0.71
    },
    {
      "id": "n-02491",
      "pitch": "C3",
      "midi": 48,
      "start": 104.688,
      "duration": 0.156,
      "velocity": 0.71
    },
    {
      "id": "n-02492",
      "pitch": "C4",
      "midi": 60,
      "start": 104.688,
      "duration": 0.156,
      "velocity": 0.71
    },
    {
      "id": "n-02493",
      "pitch": "A4",
      "midi": 69,
      "start": 104.688,
      "duration": 0.156,
      "velocity": 0.71
    },
    {
      "id": "n-02494",
      "pitch": "F#5",
      "midi": 78,
      "start": 104.688,
      "duration": 0.156,
      "velocity": 0.71
    },
    {
      "id": "n-02495",
      "pitch": "C3",
      "midi": 48,
      "start": 104.844,
      "duration": 0.156,
      "velocity": 0.71
    },
    {
      "id": "n-02496",
      "pitch": "C4",
      "midi": 60,
      "start": 104.844,
      "duration": 0.156,
      "velocity": 0.71
    },
    {
      "id": "n-02497",
      "pitch": "A4",
      "midi": 69,
      "start": 104.844,
      "duration": 0.156,
      "velocity": 0.71
    },
    {
      "id": "n-02498",
      "pitch": "F#5",
      "midi": 78,
      "start": 104.844,
      "duration": 0.156,
      "velocity": 0.71
    },
    {
      "id": "n-02499",
      "pitch": "C2",
      "midi": 36,
      "start": 105,
      "duration": 0.625,
      "velocity": 0.71
    },
    {
      "id": "n-02500",
      "pitch": "C3",
      "midi": 48,
      "start": 105,
      "duration": 0.625,
      "velocity": 0.71
    },
    {
      "id": "n-02501",
      "pitch": "C3",
      "midi": 48,
      "start": 105,
      "duration": 0.625,
      "velocity": 0.71
    },
    {
      "id": "n-02502",
      "pitch": "C3",
      "midi": 48,
      "start": 105,
      "duration": 0.625,
      "velocity": 0.71
    },
    {
      "id": "n-02503",
      "pitch": "C3",
      "midi": 48,
      "start": 105,
      "duration": 0.625,
      "velocity": 0.71
    },
    {
      "id": "n-02504",
      "pitch": "C4",
      "midi": 60,
      "start": 105,
      "duration": 0.625,
      "velocity": 0.71
    },
    {
      "id": "n-02505",
      "pitch": "A4",
      "midi": 69,
      "start": 105,
      "duration": 0.625,
      "velocity": 0.71
    },
    {
      "id": "n-02506",
      "pitch": "D#5",
      "midi": 75,
      "start": 105,
      "duration": 0.625,
      "velocity": 0.71
    },
    {
      "id": "n-02507",
      "pitch": "F#5",
      "midi": 78,
      "start": 105,
      "duration": 0.625,
      "velocity": 0.71
    },
    {
      "id": "n-02508",
      "pitch": "D#6",
      "midi": 87,
      "start": 105,
      "duration": 0.625,
      "velocity": 0.71
    },
    {
      "id": "n-02509",
      "pitch": "C2",
      "midi": 36,
      "start": 105.625,
      "duration": 0.313,
      "velocity": 0.71
    },
    {
      "id": "n-02510",
      "pitch": "C3",
      "midi": 48,
      "start": 105.625,
      "duration": 0.313,
      "velocity": 0.71
    },
    {
      "id": "n-02511",
      "pitch": "C3",
      "midi": 48,
      "start": 105.625,
      "duration": 0.313,
      "velocity": 0.71
    },
    {
      "id": "n-02512",
      "pitch": "C3",
      "midi": 48,
      "start": 105.625,
      "duration": 0.313,
      "velocity": 0.71
    },
    {
      "id": "n-02513",
      "pitch": "C3",
      "midi": 48,
      "start": 105.625,
      "duration": 0.313,
      "velocity": 0.71
    },
    {
      "id": "n-02514",
      "pitch": "D#3",
      "midi": 51,
      "start": 105.625,
      "duration": 0.313,
      "velocity": 0.71
    },
    {
      "id": "n-02515",
      "pitch": "F#3",
      "midi": 54,
      "start": 105.625,
      "duration": 0.313,
      "velocity": 0.71
    },
    {
      "id": "n-02516",
      "pitch": "A3",
      "midi": 57,
      "start": 105.625,
      "duration": 0.313,
      "velocity": 0.71
    },
    {
      "id": "n-02517",
      "pitch": "C4",
      "midi": 60,
      "start": 105.625,
      "duration": 0.313,
      "velocity": 0.71
    },
    {
      "id": "n-02518",
      "pitch": "C4",
      "midi": 60,
      "start": 105.625,
      "duration": 0.313,
      "velocity": 0.71
    },
    {
      "id": "n-02519",
      "pitch": "D#4",
      "midi": 63,
      "start": 105.625,
      "duration": 0.313,
      "velocity": 0.71
    },
    {
      "id": "n-02520",
      "pitch": "F#4",
      "midi": 66,
      "start": 105.625,
      "duration": 0.313,
      "velocity": 0.71
    },
    {
      "id": "n-02521",
      "pitch": "A4",
      "midi": 69,
      "start": 105.625,
      "duration": 0.313,
      "velocity": 0.71
    },
    {
      "id": "n-02522",
      "pitch": "A4",
      "midi": 69,
      "start": 105.625,
      "duration": 0.313,
      "velocity": 0.71
    },
    {
      "id": "n-02523",
      "pitch": "C5",
      "midi": 72,
      "start": 105.625,
      "duration": 0.313,
      "velocity": 0.71
    },
    {
      "id": "n-02524",
      "pitch": "D#5",
      "midi": 75,
      "start": 105.625,
      "duration": 0.313,
      "velocity": 0.71
    },
    {
      "id": "n-02525",
      "pitch": "F#5",
      "midi": 78,
      "start": 105.625,
      "duration": 0.313,
      "velocity": 0.71
    },
    {
      "id": "n-02526",
      "pitch": "F#5",
      "midi": 78,
      "start": 105.625,
      "duration": 0.313,
      "velocity": 0.71
    },
    {
      "id": "n-02527",
      "pitch": "A5",
      "midi": 81,
      "start": 105.625,
      "duration": 0.313,
      "velocity": 0.71
    },
    {
      "id": "n-02528",
      "pitch": "A5",
      "midi": 81,
      "start": 105.625,
      "duration": 0.313,
      "velocity": 0.71
    },
    {
      "id": "n-02529",
      "pitch": "D#6",
      "midi": 87,
      "start": 105.625,
      "duration": 0.313,
      "velocity": 0.71
    },
    {
      "id": "n-02530",
      "pitch": "D#6",
      "midi": 87,
      "start": 105.625,
      "duration": 0.313,
      "velocity": 0.71
    },
    {
      "id": "n-02531",
      "pitch": "G2",
      "midi": 43,
      "start": 106.406,
      "duration": 0.156,
      "velocity": 0.71
    },
    {
      "id": "n-02532",
      "pitch": "C#3",
      "midi": 49,
      "start": 106.406,
      "duration": 0.156,
      "velocity": 0.71
    },
    {
      "id": "n-02533",
      "pitch": "C#3",
      "midi": 49,
      "start": 106.406,
      "duration": 0.156,
      "velocity": 0.71
    },
    {
      "id": "n-02534",
      "pitch": "C#3",
      "midi": 49,
      "start": 106.406,
      "duration": 0.156,
      "velocity": 0.71
    },
    {
      "id": "n-02535",
      "pitch": "C#3",
      "midi": 49,
      "start": 106.406,
      "duration": 0.156,
      "velocity": 0.71
    },
    {
      "id": "n-02536",
      "pitch": "G3",
      "midi": 55,
      "start": 106.406,
      "duration": 0.156,
      "velocity": 0.71
    },
    {
      "id": "n-02537",
      "pitch": "C#4",
      "midi": 61,
      "start": 106.406,
      "duration": 0.156,
      "velocity": 0.71
    },
    {
      "id": "n-02538",
      "pitch": "E4",
      "midi": 64,
      "start": 106.406,
      "duration": 0.156,
      "velocity": 0.71
    },
    {
      "id": "n-02539",
      "pitch": "G4",
      "midi": 67,
      "start": 106.406,
      "duration": 0.156,
      "velocity": 0.71
    },
    {
      "id": "n-02540",
      "pitch": "G4",
      "midi": 67,
      "start": 106.406,
      "duration": 0.156,
      "velocity": 0.71
    },
    {
      "id": "n-02541",
      "pitch": "G4",
      "midi": 67,
      "start": 106.406,
      "duration": 0.156,
      "velocity": 0.71
    },
    {
      "id": "n-02542",
      "pitch": "A#4",
      "midi": 70,
      "start": 106.406,
      "duration": 0.156,
      "velocity": 0.71
    },
    {
      "id": "n-02543",
      "pitch": "A#4",
      "midi": 70,
      "start": 106.406,
      "duration": 0.156,
      "velocity": 0.71
    },
    {
      "id": "n-02544",
      "pitch": "E5",
      "midi": 76,
      "start": 106.406,
      "duration": 0.156,
      "velocity": 0.71
    },
    {
      "id": "n-02545",
      "pitch": "E5",
      "midi": 76,
      "start": 106.406,
      "duration": 0.156,
      "velocity": 0.71
    },
    {
      "id": "n-02546",
      "pitch": "G5",
      "midi": 79,
      "start": 106.406,
      "duration": 0.156,
      "velocity": 0.71
    },
    {
      "id": "n-02547",
      "pitch": "G5",
      "midi": 79,
      "start": 106.406,
      "duration": 0.156,
      "velocity": 0.71
    },
    {
      "id": "n-02548",
      "pitch": "A#5",
      "midi": 82,
      "start": 106.406,
      "duration": 0.156,
      "velocity": 0.71
    },
    {
      "id": "n-02549",
      "pitch": "E6",
      "midi": 88,
      "start": 106.406,
      "duration": 0.156,
      "velocity": 0.71
    },
    {
      "id": "n-02550",
      "pitch": "E6",
      "midi": 88,
      "start": 106.406,
      "duration": 0.156,
      "velocity": 0.71
    },
    {
      "id": "n-02551",
      "pitch": "G2",
      "midi": 43,
      "start": 106.563,
      "duration": 0.156,
      "velocity": 0.71
    },
    {
      "id": "n-02552",
      "pitch": "C#3",
      "midi": 49,
      "start": 106.563,
      "duration": 0.156,
      "velocity": 0.71
    },
    {
      "id": "n-02553",
      "pitch": "C#3",
      "midi": 49,
      "start": 106.563,
      "duration": 0.156,
      "velocity": 0.71
    },
    {
      "id": "n-02554",
      "pitch": "C#3",
      "midi": 49,
      "start": 106.563,
      "duration": 0.156,
      "velocity": 0.71
    },
    {
      "id": "n-02555",
      "pitch": "C#3",
      "midi": 49,
      "start": 106.563,
      "duration": 0.156,
      "velocity": 0.71
    },
    {
      "id": "n-02556",
      "pitch": "G3",
      "midi": 55,
      "start": 106.563,
      "duration": 0.156,
      "velocity": 0.71
    },
    {
      "id": "n-02557",
      "pitch": "C#4",
      "midi": 61,
      "start": 106.563,
      "duration": 0.156,
      "velocity": 0.71
    },
    {
      "id": "n-02558",
      "pitch": "E4",
      "midi": 64,
      "start": 106.563,
      "duration": 0.156,
      "velocity": 0.71
    },
    {
      "id": "n-02559",
      "pitch": "G4",
      "midi": 67,
      "start": 106.563,
      "duration": 0.156,
      "velocity": 0.71
    },
    {
      "id": "n-02560",
      "pitch": "G4",
      "midi": 67,
      "start": 106.563,
      "duration": 0.156,
      "velocity": 0.71
    },
    {
      "id": "n-02561",
      "pitch": "G4",
      "midi": 67,
      "start": 106.563,
      "duration": 0.156,
      "velocity": 0.71
    },
    {
      "id": "n-02562",
      "pitch": "A#4",
      "midi": 70,
      "start": 106.563,
      "duration": 0.156,
      "velocity": 0.71
    },
    {
      "id": "n-02563",
      "pitch": "A#4",
      "midi": 70,
      "start": 106.563,
      "duration": 0.156,
      "velocity": 0.71
    },
    {
      "id": "n-02564",
      "pitch": "E5",
      "midi": 76,
      "start": 106.563,
      "duration": 0.156,
      "velocity": 0.71
    },
    {
      "id": "n-02565",
      "pitch": "E5",
      "midi": 76,
      "start": 106.563,
      "duration": 0.156,
      "velocity": 0.71
    },
    {
      "id": "n-02566",
      "pitch": "G5",
      "midi": 79,
      "start": 106.563,
      "duration": 0.156,
      "velocity": 0.71
    },
    {
      "id": "n-02567",
      "pitch": "G5",
      "midi": 79,
      "start": 106.563,
      "duration": 0.156,
      "velocity": 0.71
    },
    {
      "id": "n-02568",
      "pitch": "A#5",
      "midi": 82,
      "start": 106.563,
      "duration": 0.156,
      "velocity": 0.71
    },
    {
      "id": "n-02569",
      "pitch": "E6",
      "midi": 88,
      "start": 106.563,
      "duration": 0.156,
      "velocity": 0.71
    },
    {
      "id": "n-02570",
      "pitch": "E6",
      "midi": 88,
      "start": 106.563,
      "duration": 0.156,
      "velocity": 0.71
    },
    {
      "id": "n-02571",
      "pitch": "G2",
      "midi": 43,
      "start": 106.719,
      "duration": 0.156,
      "velocity": 0.71
    },
    {
      "id": "n-02572",
      "pitch": "C#3",
      "midi": 49,
      "start": 106.719,
      "duration": 0.156,
      "velocity": 0.71
    },
    {
      "id": "n-02573",
      "pitch": "C#3",
      "midi": 49,
      "start": 106.719,
      "duration": 0.156,
      "velocity": 0.71
    },
    {
      "id": "n-02574",
      "pitch": "C#3",
      "midi": 49,
      "start": 106.719,
      "duration": 0.156,
      "velocity": 0.71
    },
    {
      "id": "n-02575",
      "pitch": "C#3",
      "midi": 49,
      "start": 106.719,
      "duration": 0.156,
      "velocity": 0.71
    },
    {
      "id": "n-02576",
      "pitch": "G3",
      "midi": 55,
      "start": 106.719,
      "duration": 0.156,
      "velocity": 0.71
    },
    {
      "id": "n-02577",
      "pitch": "C#4",
      "midi": 61,
      "start": 106.719,
      "duration": 0.156,
      "velocity": 0.71
    },
    {
      "id": "n-02578",
      "pitch": "E4",
      "midi": 64,
      "start": 106.719,
      "duration": 0.156,
      "velocity": 0.71
    },
    {
      "id": "n-02579",
      "pitch": "G4",
      "midi": 67,
      "start": 106.719,
      "duration": 0.156,
      "velocity": 0.71
    },
    {
      "id": "n-02580",
      "pitch": "G4",
      "midi": 67,
      "start": 106.719,
      "duration": 0.156,
      "velocity": 0.71
    },
    {
      "id": "n-02581",
      "pitch": "G4",
      "midi": 67,
      "start": 106.719,
      "duration": 0.156,
      "velocity": 0.71
    },
    {
      "id": "n-02582",
      "pitch": "A#4",
      "midi": 70,
      "start": 106.719,
      "duration": 0.156,
      "velocity": 0.71
    },
    {
      "id": "n-02583",
      "pitch": "A#4",
      "midi": 70,
      "start": 106.719,
      "duration": 0.156,
      "velocity": 0.71
    },
    {
      "id": "n-02584",
      "pitch": "E5",
      "midi": 76,
      "start": 106.719,
      "duration": 0.156,
      "velocity": 0.71
    },
    {
      "id": "n-02585",
      "pitch": "E5",
      "midi": 76,
      "start": 106.719,
      "duration": 0.156,
      "velocity": 0.71
    },
    {
      "id": "n-02586",
      "pitch": "G5",
      "midi": 79,
      "start": 106.719,
      "duration": 0.156,
      "velocity": 0.71
    },
    {
      "id": "n-02587",
      "pitch": "G5",
      "midi": 79,
      "start": 106.719,
      "duration": 0.156,
      "velocity": 0.71
    },
    {
      "id": "n-02588",
      "pitch": "A#5",
      "midi": 82,
      "start": 106.719,
      "duration": 0.156,
      "velocity": 0.71
    },
    {
      "id": "n-02589",
      "pitch": "E6",
      "midi": 88,
      "start": 106.719,
      "duration": 0.156,
      "velocity": 0.71
    },
    {
      "id": "n-02590",
      "pitch": "E6",
      "midi": 88,
      "start": 106.719,
      "duration": 0.156,
      "velocity": 0.71
    },
    {
      "id": "n-02591",
      "pitch": "G2",
      "midi": 43,
      "start": 106.875,
      "duration": 0.625,
      "velocity": 0.71
    },
    {
      "id": "n-02592",
      "pitch": "C#3",
      "midi": 49,
      "start": 106.875,
      "duration": 1.25,
      "velocity": 0.71
    },
    {
      "id": "n-02593",
      "pitch": "C#3",
      "midi": 49,
      "start": 106.875,
      "duration": 0.625,
      "velocity": 0.71
    },
    {
      "id": "n-02594",
      "pitch": "C#3",
      "midi": 49,
      "start": 106.875,
      "duration": 0.625,
      "velocity": 0.71
    },
    {
      "id": "n-02595",
      "pitch": "C#3",
      "midi": 49,
      "start": 106.875,
      "duration": 0.156,
      "velocity": 0.71
    },
    {
      "id": "n-02596",
      "pitch": "G3",
      "midi": 55,
      "start": 106.875,
      "duration": 1.25,
      "velocity": 0.71
    },
    {
      "id": "n-02597",
      "pitch": "C#4",
      "midi": 61,
      "start": 106.875,
      "duration": 1.25,
      "velocity": 0.71
    },
    {
      "id": "n-02598",
      "pitch": "E4",
      "midi": 64,
      "start": 106.875,
      "duration": 1.25,
      "velocity": 0.71
    },
    {
      "id": "n-02599",
      "pitch": "G4",
      "midi": 67,
      "start": 106.875,
      "duration": 1.25,
      "velocity": 0.71
    },
    {
      "id": "n-02600",
      "pitch": "G4",
      "midi": 67,
      "start": 106.875,
      "duration": 1.25,
      "velocity": 0.71
    },
    {
      "id": "n-02601",
      "pitch": "G4",
      "midi": 67,
      "start": 106.875,
      "duration": 0.156,
      "velocity": 0.71
    },
    {
      "id": "n-02602",
      "pitch": "A#4",
      "midi": 70,
      "start": 106.875,
      "duration": 1.25,
      "velocity": 0.71
    },
    {
      "id": "n-02603",
      "pitch": "A#4",
      "midi": 70,
      "start": 106.875,
      "duration": 0.156,
      "velocity": 0.71
    },
    {
      "id": "n-02604",
      "pitch": "E5",
      "midi": 76,
      "start": 106.875,
      "duration": 1.25,
      "velocity": 0.71
    },
    {
      "id": "n-02605",
      "pitch": "E5",
      "midi": 76,
      "start": 106.875,
      "duration": 0.625,
      "velocity": 0.71
    },
    {
      "id": "n-02606",
      "pitch": "G5",
      "midi": 79,
      "start": 106.875,
      "duration": 1.25,
      "velocity": 0.71
    },
    {
      "id": "n-02607",
      "pitch": "G5",
      "midi": 79,
      "start": 106.875,
      "duration": 1.25,
      "velocity": 0.71
    },
    {
      "id": "n-02608",
      "pitch": "A#5",
      "midi": 82,
      "start": 106.875,
      "duration": 1.25,
      "velocity": 0.71
    },
    {
      "id": "n-02609",
      "pitch": "E6",
      "midi": 88,
      "start": 106.875,
      "duration": 1.25,
      "velocity": 0.71
    },
    {
      "id": "n-02610",
      "pitch": "E6",
      "midi": 88,
      "start": 106.875,
      "duration": 0.625,
      "velocity": 0.71
    },
    {
      "id": "n-02611",
      "pitch": "C#4",
      "midi": 61,
      "start": 107.031,
      "duration": 0.156,
      "velocity": 0.71
    },
    {
      "id": "n-02612",
      "pitch": "A#4",
      "midi": 70,
      "start": 107.031,
      "duration": 0.156,
      "velocity": 0.71
    },
    {
      "id": "n-02613",
      "pitch": "G5",
      "midi": 79,
      "start": 107.031,
      "duration": 0.156,
      "velocity": 0.71
    },
    {
      "id": "n-02614",
      "pitch": "C#4",
      "midi": 61,
      "start": 107.188,
      "duration": 0.156,
      "velocity": 0.71
    },
    {
      "id": "n-02615",
      "pitch": "A#4",
      "midi": 70,
      "start": 107.188,
      "duration": 0.156,
      "velocity": 0.71
    },
    {
      "id": "n-02616",
      "pitch": "G5",
      "midi": 79,
      "start": 107.188,
      "duration": 0.156,
      "velocity": 0.71
    },
    {
      "id": "n-02617",
      "pitch": "C#4",
      "midi": 61,
      "start": 107.344,
      "duration": 0.156,
      "velocity": 0.71
    },
    {
      "id": "n-02618",
      "pitch": "A#4",
      "midi": 70,
      "start": 107.344,
      "duration": 0.156,
      "velocity": 0.71
    },
    {
      "id": "n-02619",
      "pitch": "G5",
      "midi": 79,
      "start": 107.344,
      "duration": 0.156,
      "velocity": 0.71
    },
    {
      "id": "n-02620",
      "pitch": "G2",
      "midi": 43,
      "start": 107.5,
      "duration": 0.625,
      "velocity": 0.71
    },
    {
      "id": "n-02621",
      "pitch": "C#3",
      "midi": 49,
      "start": 107.5,
      "duration": 0.625,
      "velocity": 0.71
    },
    {
      "id": "n-02622",
      "pitch": "C#3",
      "midi": 49,
      "start": 107.5,
      "duration": 0.625,
      "velocity": 0.71
    },
    {
      "id": "n-02623",
      "pitch": "C#4",
      "midi": 61,
      "start": 107.5,
      "duration": 0.625,
      "velocity": 0.71
    },
    {
      "id": "n-02624",
      "pitch": "A#4",
      "midi": 70,
      "start": 107.5,
      "duration": 0.625,
      "velocity": 0.71
    },
    {
      "id": "n-02625",
      "pitch": "E5",
      "midi": 76,
      "start": 107.5,
      "duration": 0.625,
      "velocity": 0.71
    },
    {
      "id": "n-02626",
      "pitch": "G5",
      "midi": 79,
      "start": 107.5,
      "duration": 0.625,
      "velocity": 0.71
    },
    {
      "id": "n-02627",
      "pitch": "E6",
      "midi": 88,
      "start": 107.5,
      "duration": 0.625,
      "velocity": 0.71
    },
    {
      "id": "n-02628",
      "pitch": "G2",
      "midi": 43,
      "start": 108.125,
      "duration": 0.313,
      "velocity": 0.71
    },
    {
      "id": "n-02629",
      "pitch": "C#3",
      "midi": 49,
      "start": 108.125,
      "duration": 0.313,
      "velocity": 0.71
    },
    {
      "id": "n-02630",
      "pitch": "C#3",
      "midi": 49,
      "start": 108.125,
      "duration": 0.313,
      "velocity": 0.71
    },
    {
      "id": "n-02631",
      "pitch": "C#3",
      "midi": 49,
      "start": 108.125,
      "duration": 0.313,
      "velocity": 0.71
    },
    {
      "id": "n-02632",
      "pitch": "G3",
      "midi": 55,
      "start": 108.125,
      "duration": 0.313,
      "velocity": 0.71
    },
    {
      "id": "n-02633",
      "pitch": "C#4",
      "midi": 61,
      "start": 108.125,
      "duration": 0.313,
      "velocity": 0.71
    },
    {
      "id": "n-02634",
      "pitch": "C#4",
      "midi": 61,
      "start": 108.125,
      "duration": 0.313,
      "velocity": 0.71
    },
    {
      "id": "n-02635",
      "pitch": "E4",
      "midi": 64,
      "start": 108.125,
      "duration": 0.313,
      "velocity": 0.71
    },
    {
      "id": "n-02636",
      "pitch": "G4",
      "midi": 67,
      "start": 108.125,
      "duration": 0.313,
      "velocity": 0.71
    },
    {
      "id": "n-02637",
      "pitch": "G4",
      "midi": 67,
      "start": 108.125,
      "duration": 0.313,
      "velocity": 0.71
    },
    {
      "id": "n-02638",
      "pitch": "A#4",
      "midi": 70,
      "start": 108.125,
      "duration": 0.313,
      "velocity": 0.71
    },
    {
      "id": "n-02639",
      "pitch": "A#4",
      "midi": 70,
      "start": 108.125,
      "duration": 0.313,
      "velocity": 0.71
    },
    {
      "id": "n-02640",
      "pitch": "E5",
      "midi": 76,
      "start": 108.125,
      "duration": 0.313,
      "velocity": 0.71
    },
    {
      "id": "n-02641",
      "pitch": "E5",
      "midi": 76,
      "start": 108.125,
      "duration": 0.313,
      "velocity": 0.71
    },
    {
      "id": "n-02642",
      "pitch": "G5",
      "midi": 79,
      "start": 108.125,
      "duration": 0.313,
      "velocity": 0.71
    },
    {
      "id": "n-02643",
      "pitch": "G5",
      "midi": 79,
      "start": 108.125,
      "duration": 0.313,
      "velocity": 0.71
    },
    {
      "id": "n-02644",
      "pitch": "G5",
      "midi": 79,
      "start": 108.125,
      "duration": 0.313,
      "velocity": 0.71
    },
    {
      "id": "n-02645",
      "pitch": "A#5",
      "midi": 82,
      "start": 108.125,
      "duration": 0.313,
      "velocity": 0.71
    },
    {
      "id": "n-02646",
      "pitch": "E6",
      "midi": 88,
      "start": 108.125,
      "duration": 0.313,
      "velocity": 0.71
    },
    {
      "id": "n-02647",
      "pitch": "E6",
      "midi": 88,
      "start": 108.125,
      "duration": 0.313,
      "velocity": 0.71
    },
    {
      "id": "n-02648",
      "pitch": "G2",
      "midi": 43,
      "start": 108.906,
      "duration": 0.156,
      "velocity": 0.71
    },
    {
      "id": "n-02649",
      "pitch": "D3",
      "midi": 50,
      "start": 108.906,
      "duration": 0.156,
      "velocity": 0.71
    },
    {
      "id": "n-02650",
      "pitch": "D3",
      "midi": 50,
      "start": 108.906,
      "duration": 0.156,
      "velocity": 0.71
    },
    {
      "id": "n-02651",
      "pitch": "D3",
      "midi": 50,
      "start": 108.906,
      "duration": 0.156,
      "velocity": 0.71
    },
    {
      "id": "n-02652",
      "pitch": "G3",
      "midi": 55,
      "start": 108.906,
      "duration": 0.156,
      "velocity": 0.71
    },
    {
      "id": "n-02653",
      "pitch": "D4",
      "midi": 62,
      "start": 108.906,
      "duration": 0.156,
      "velocity": 0.71
    },
    {
      "id": "n-02654",
      "pitch": "D4",
      "midi": 62,
      "start": 108.906,
      "duration": 0.156,
      "velocity": 0.71
    },
    {
      "id": "n-02655",
      "pitch": "G4",
      "midi": 67,
      "start": 108.906,
      "duration": 0.156,
      "velocity": 0.71
    },
    {
      "id": "n-02656",
      "pitch": "G4",
      "midi": 67,
      "start": 108.906,
      "duration": 0.156,
      "velocity": 0.71
    },
    {
      "id": "n-02657",
      "pitch": "G4",
      "midi": 67,
      "start": 108.906,
      "duration": 0.156,
      "velocity": 0.71
    },
    {
      "id": "n-02658",
      "pitch": "A#4",
      "midi": 70,
      "start": 108.906,
      "duration": 0.156,
      "velocity": 0.71
    },
    {
      "id": "n-02659",
      "pitch": "A#4",
      "midi": 70,
      "start": 108.906,
      "duration": 0.156,
      "velocity": 0.71
    },
    {
      "id": "n-02660",
      "pitch": "D5",
      "midi": 74,
      "start": 108.906,
      "duration": 0.156,
      "velocity": 0.71
    },
    {
      "id": "n-02661",
      "pitch": "G5",
      "midi": 79,
      "start": 108.906,
      "duration": 0.156,
      "velocity": 0.71
    },
    {
      "id": "n-02662",
      "pitch": "G5",
      "midi": 79,
      "start": 108.906,
      "duration": 0.156,
      "velocity": 0.71
    },
    {
      "id": "n-02663",
      "pitch": "G5",
      "midi": 79,
      "start": 108.906,
      "duration": 0.156,
      "velocity": 0.71
    },
    {
      "id": "n-02664",
      "pitch": "A#5",
      "midi": 82,
      "start": 108.906,
      "duration": 0.156,
      "velocity": 0.71
    },
    {
      "id": "n-02665",
      "pitch": "A#5",
      "midi": 82,
      "start": 108.906,
      "duration": 0.156,
      "velocity": 0.71
    },
    {
      "id": "n-02666",
      "pitch": "D6",
      "midi": 86,
      "start": 108.906,
      "duration": 0.156,
      "velocity": 0.71
    },
    {
      "id": "n-02667",
      "pitch": "D6",
      "midi": 86,
      "start": 108.906,
      "duration": 0.156,
      "velocity": 0.71
    },
    {
      "id": "n-02668",
      "pitch": "G2",
      "midi": 43,
      "start": 109.063,
      "duration": 0.156,
      "velocity": 0.71
    },
    {
      "id": "n-02669",
      "pitch": "D3",
      "midi": 50,
      "start": 109.063,
      "duration": 0.156,
      "velocity": 0.71
    },
    {
      "id": "n-02670",
      "pitch": "D3",
      "midi": 50,
      "start": 109.063,
      "duration": 0.156,
      "velocity": 0.71
    },
    {
      "id": "n-02671",
      "pitch": "D3",
      "midi": 50,
      "start": 109.063,
      "duration": 0.156,
      "velocity": 0.71
    },
    {
      "id": "n-02672",
      "pitch": "G3",
      "midi": 55,
      "start": 109.063,
      "duration": 0.156,
      "velocity": 0.71
    },
    {
      "id": "n-02673",
      "pitch": "D4",
      "midi": 62,
      "start": 109.063,
      "duration": 0.156,
      "velocity": 0.71
    },
    {
      "id": "n-02674",
      "pitch": "D4",
      "midi": 62,
      "start": 109.063,
      "duration": 0.156,
      "velocity": 0.71
    },
    {
      "id": "n-02675",
      "pitch": "G4",
      "midi": 67,
      "start": 109.063,
      "duration": 0.156,
      "velocity": 0.71
    },
    {
      "id": "n-02676",
      "pitch": "G4",
      "midi": 67,
      "start": 109.063,
      "duration": 0.156,
      "velocity": 0.71
    },
    {
      "id": "n-02677",
      "pitch": "G4",
      "midi": 67,
      "start": 109.063,
      "duration": 0.156,
      "velocity": 0.71
    },
    {
      "id": "n-02678",
      "pitch": "A#4",
      "midi": 70,
      "start": 109.063,
      "duration": 0.156,
      "velocity": 0.71
    },
    {
      "id": "n-02679",
      "pitch": "A#4",
      "midi": 70,
      "start": 109.063,
      "duration": 0.156,
      "velocity": 0.71
    },
    {
      "id": "n-02680",
      "pitch": "D5",
      "midi": 74,
      "start": 109.063,
      "duration": 0.156,
      "velocity": 0.71
    },
    {
      "id": "n-02681",
      "pitch": "G5",
      "midi": 79,
      "start": 109.063,
      "duration": 0.156,
      "velocity": 0.71
    },
    {
      "id": "n-02682",
      "pitch": "G5",
      "midi": 79,
      "start": 109.063,
      "duration": 0.156,
      "velocity": 0.71
    },
    {
      "id": "n-02683",
      "pitch": "G5",
      "midi": 79,
      "start": 109.063,
      "duration": 0.156,
      "velocity": 0.71
    },
    {
      "id": "n-02684",
      "pitch": "A#5",
      "midi": 82,
      "start": 109.063,
      "duration": 0.156,
      "velocity": 0.71
    },
    {
      "id": "n-02685",
      "pitch": "A#5",
      "midi": 82,
      "start": 109.063,
      "duration": 0.156,
      "velocity": 0.71
    },
    {
      "id": "n-02686",
      "pitch": "D6",
      "midi": 86,
      "start": 109.063,
      "duration": 0.156,
      "velocity": 0.71
    },
    {
      "id": "n-02687",
      "pitch": "D6",
      "midi": 86,
      "start": 109.063,
      "duration": 0.156,
      "velocity": 0.71
    },
    {
      "id": "n-02688",
      "pitch": "G2",
      "midi": 43,
      "start": 109.219,
      "duration": 0.156,
      "velocity": 0.71
    },
    {
      "id": "n-02689",
      "pitch": "D3",
      "midi": 50,
      "start": 109.219,
      "duration": 0.156,
      "velocity": 0.71
    },
    {
      "id": "n-02690",
      "pitch": "D3",
      "midi": 50,
      "start": 109.219,
      "duration": 0.156,
      "velocity": 0.71
    },
    {
      "id": "n-02691",
      "pitch": "D3",
      "midi": 50,
      "start": 109.219,
      "duration": 0.156,
      "velocity": 0.71
    },
    {
      "id": "n-02692",
      "pitch": "G3",
      "midi": 55,
      "start": 109.219,
      "duration": 0.156,
      "velocity": 0.71
    },
    {
      "id": "n-02693",
      "pitch": "D4",
      "midi": 62,
      "start": 109.219,
      "duration": 0.156,
      "velocity": 0.71
    },
    {
      "id": "n-02694",
      "pitch": "D4",
      "midi": 62,
      "start": 109.219,
      "duration": 0.156,
      "velocity": 0.71
    },
    {
      "id": "n-02695",
      "pitch": "G4",
      "midi": 67,
      "start": 109.219,
      "duration": 0.156,
      "velocity": 0.71
    },
    {
      "id": "n-02696",
      "pitch": "G4",
      "midi": 67,
      "start": 109.219,
      "duration": 0.156,
      "velocity": 0.71
    },
    {
      "id": "n-02697",
      "pitch": "G4",
      "midi": 67,
      "start": 109.219,
      "duration": 0.156,
      "velocity": 0.71
    },
    {
      "id": "n-02698",
      "pitch": "A#4",
      "midi": 70,
      "start": 109.219,
      "duration": 0.156,
      "velocity": 0.71
    },
    {
      "id": "n-02699",
      "pitch": "A#4",
      "midi": 70,
      "start": 109.219,
      "duration": 0.156,
      "velocity": 0.71
    },
    {
      "id": "n-02700",
      "pitch": "D5",
      "midi": 74,
      "start": 109.219,
      "duration": 0.156,
      "velocity": 0.71
    },
    {
      "id": "n-02701",
      "pitch": "G5",
      "midi": 79,
      "start": 109.219,
      "duration": 0.156,
      "velocity": 0.71
    },
    {
      "id": "n-02702",
      "pitch": "G5",
      "midi": 79,
      "start": 109.219,
      "duration": 0.156,
      "velocity": 0.71
    },
    {
      "id": "n-02703",
      "pitch": "G5",
      "midi": 79,
      "start": 109.219,
      "duration": 0.156,
      "velocity": 0.71
    },
    {
      "id": "n-02704",
      "pitch": "A#5",
      "midi": 82,
      "start": 109.219,
      "duration": 0.156,
      "velocity": 0.71
    },
    {
      "id": "n-02705",
      "pitch": "A#5",
      "midi": 82,
      "start": 109.219,
      "duration": 0.156,
      "velocity": 0.71
    },
    {
      "id": "n-02706",
      "pitch": "D6",
      "midi": 86,
      "start": 109.219,
      "duration": 0.156,
      "velocity": 0.71
    },
    {
      "id": "n-02707",
      "pitch": "D6",
      "midi": 86,
      "start": 109.219,
      "duration": 0.156,
      "velocity": 0.71
    },
    {
      "id": "n-02708",
      "pitch": "G2",
      "midi": 43,
      "start": 109.375,
      "duration": 0.313,
      "velocity": 0.71
    },
    {
      "id": "n-02709",
      "pitch": "D3",
      "midi": 50,
      "start": 109.375,
      "duration": 0.313,
      "velocity": 0.71
    },
    {
      "id": "n-02710",
      "pitch": "D3",
      "midi": 50,
      "start": 109.375,
      "duration": 0.313,
      "velocity": 0.71
    },
    {
      "id": "n-02711",
      "pitch": "D3",
      "midi": 50,
      "start": 109.375,
      "duration": 0.313,
      "velocity": 0.71
    },
    {
      "id": "n-02712",
      "pitch": "G3",
      "midi": 55,
      "start": 109.375,
      "duration": 0.313,
      "velocity": 0.71
    },
    {
      "id": "n-02713",
      "pitch": "D4",
      "midi": 62,
      "start": 109.375,
      "duration": 0.313,
      "velocity": 0.71
    },
    {
      "id": "n-02714",
      "pitch": "D4",
      "midi": 62,
      "start": 109.375,
      "duration": 0.313,
      "velocity": 0.71
    },
    {
      "id": "n-02715",
      "pitch": "G4",
      "midi": 67,
      "start": 109.375,
      "duration": 0.313,
      "velocity": 0.71
    },
    {
      "id": "n-02716",
      "pitch": "G4",
      "midi": 67,
      "start": 109.375,
      "duration": 0.313,
      "velocity": 0.71
    },
    {
      "id": "n-02717",
      "pitch": "G4",
      "midi": 67,
      "start": 109.375,
      "duration": 0.313,
      "velocity": 0.71
    },
    {
      "id": "n-02718",
      "pitch": "A#4",
      "midi": 70,
      "start": 109.375,
      "duration": 0.313,
      "velocity": 0.71
    },
    {
      "id": "n-02719",
      "pitch": "A#4",
      "midi": 70,
      "start": 109.375,
      "duration": 0.313,
      "velocity": 0.71
    },
    {
      "id": "n-02720",
      "pitch": "D5",
      "midi": 74,
      "start": 109.375,
      "duration": 0.313,
      "velocity": 0.71
    },
    {
      "id": "n-02721",
      "pitch": "G5",
      "midi": 79,
      "start": 109.375,
      "duration": 0.313,
      "velocity": 0.71
    },
    {
      "id": "n-02722",
      "pitch": "G5",
      "midi": 79,
      "start": 109.375,
      "duration": 0.313,
      "velocity": 0.71
    },
    {
      "id": "n-02723",
      "pitch": "G5",
      "midi": 79,
      "start": 109.375,
      "duration": 0.313,
      "velocity": 0.71
    },
    {
      "id": "n-02724",
      "pitch": "A#5",
      "midi": 82,
      "start": 109.375,
      "duration": 0.313,
      "velocity": 0.71
    },
    {
      "id": "n-02725",
      "pitch": "A#5",
      "midi": 82,
      "start": 109.375,
      "duration": 0.313,
      "velocity": 0.71
    },
    {
      "id": "n-02726",
      "pitch": "D6",
      "midi": 86,
      "start": 109.375,
      "duration": 0.313,
      "velocity": 0.71
    },
    {
      "id": "n-02727",
      "pitch": "D6",
      "midi": 86,
      "start": 109.375,
      "duration": 0.313,
      "velocity": 0.71
    },
    {
      "id": "n-02728",
      "pitch": "G2",
      "midi": 43,
      "start": 110.313,
      "duration": 0.156,
      "velocity": 0.71
    },
    {
      "id": "n-02729",
      "pitch": "E3",
      "midi": 52,
      "start": 110.313,
      "duration": 0.156,
      "velocity": 0.71
    },
    {
      "id": "n-02730",
      "pitch": "E3",
      "midi": 52,
      "start": 110.313,
      "duration": 0.156,
      "velocity": 0.71
    },
    {
      "id": "n-02731",
      "pitch": "E3",
      "midi": 52,
      "start": 110.313,
      "duration": 0.156,
      "velocity": 0.71
    },
    {
      "id": "n-02732",
      "pitch": "E4",
      "midi": 64,
      "start": 110.313,
      "duration": 0.156,
      "velocity": 0.71
    },
    {
      "id": "n-02733",
      "pitch": "E4",
      "midi": 64,
      "start": 110.313,
      "duration": 0.156,
      "velocity": 0.71
    },
    {
      "id": "n-02734",
      "pitch": "G4",
      "midi": 67,
      "start": 110.313,
      "duration": 0.156,
      "velocity": 0.71
    },
    {
      "id": "n-02735",
      "pitch": "G4",
      "midi": 67,
      "start": 110.313,
      "duration": 0.156,
      "velocity": 0.71
    },
    {
      "id": "n-02736",
      "pitch": "A#4",
      "midi": 70,
      "start": 110.313,
      "duration": 0.156,
      "velocity": 0.71
    },
    {
      "id": "n-02737",
      "pitch": "C#5",
      "midi": 73,
      "start": 110.313,
      "duration": 0.156,
      "velocity": 0.71
    },
    {
      "id": "n-02738",
      "pitch": "C#5",
      "midi": 73,
      "start": 110.313,
      "duration": 0.156,
      "velocity": 0.71
    },
    {
      "id": "n-02739",
      "pitch": "G5",
      "midi": 79,
      "start": 110.313,
      "duration": 0.156,
      "velocity": 0.71
    },
    {
      "id": "n-02740",
      "pitch": "G5",
      "midi": 79,
      "start": 110.313,
      "duration": 0.156,
      "velocity": 0.71
    },
    {
      "id": "n-02741",
      "pitch": "A#5",
      "midi": 82,
      "start": 110.313,
      "duration": 0.156,
      "velocity": 0.71
    },
    {
      "id": "n-02742",
      "pitch": "C#6",
      "midi": 85,
      "start": 110.313,
      "duration": 0.156,
      "velocity": 0.71
    },
    {
      "id": "n-02743",
      "pitch": "C#6",
      "midi": 85,
      "start": 110.313,
      "duration": 0.156,
      "velocity": 0.71
    },
    {
      "id": "n-02744",
      "pitch": "G2",
      "midi": 43,
      "start": 110.469,
      "duration": 0.156,
      "velocity": 0.71
    },
    {
      "id": "n-02745",
      "pitch": "E3",
      "midi": 52,
      "start": 110.469,
      "duration": 0.156,
      "velocity": 0.71
    },
    {
      "id": "n-02746",
      "pitch": "E3",
      "midi": 52,
      "start": 110.469,
      "duration": 0.156,
      "velocity": 0.71
    },
    {
      "id": "n-02747",
      "pitch": "E3",
      "midi": 52,
      "start": 110.469,
      "duration": 0.156,
      "velocity": 0.71
    },
    {
      "id": "n-02748",
      "pitch": "E4",
      "midi": 64,
      "start": 110.469,
      "duration": 0.156,
      "velocity": 0.71
    },
    {
      "id": "n-02749",
      "pitch": "E4",
      "midi": 64,
      "start": 110.469,
      "duration": 0.156,
      "velocity": 0.71
    },
    {
      "id": "n-02750",
      "pitch": "G4",
      "midi": 67,
      "start": 110.469,
      "duration": 0.156,
      "velocity": 0.71
    },
    {
      "id": "n-02751",
      "pitch": "G4",
      "midi": 67,
      "start": 110.469,
      "duration": 0.156,
      "velocity": 0.71
    },
    {
      "id": "n-02752",
      "pitch": "A#4",
      "midi": 70,
      "start": 110.469,
      "duration": 0.156,
      "velocity": 0.71
    },
    {
      "id": "n-02753",
      "pitch": "C#5",
      "midi": 73,
      "start": 110.469,
      "duration": 0.156,
      "velocity": 0.71
    },
    {
      "id": "n-02754",
      "pitch": "C#5",
      "midi": 73,
      "start": 110.469,
      "duration": 0.156,
      "velocity": 0.71
    },
    {
      "id": "n-02755",
      "pitch": "G5",
      "midi": 79,
      "start": 110.469,
      "duration": 0.156,
      "velocity": 0.71
    },
    {
      "id": "n-02756",
      "pitch": "G5",
      "midi": 79,
      "start": 110.469,
      "duration": 0.156,
      "velocity": 0.71
    },
    {
      "id": "n-02757",
      "pitch": "A#5",
      "midi": 82,
      "start": 110.469,
      "duration": 0.156,
      "velocity": 0.71
    },
    {
      "id": "n-02758",
      "pitch": "C#6",
      "midi": 85,
      "start": 110.469,
      "duration": 0.156,
      "velocity": 0.71
    },
    {
      "id": "n-02759",
      "pitch": "C#6",
      "midi": 85,
      "start": 110.469,
      "duration": 0.156,
      "velocity": 0.71
    },
    {
      "id": "n-02760",
      "pitch": "G2",
      "midi": 43,
      "start": 110.625,
      "duration": 0.313,
      "velocity": 0.71
    },
    {
      "id": "n-02761",
      "pitch": "E3",
      "midi": 52,
      "start": 110.625,
      "duration": 0.313,
      "velocity": 0.71
    },
    {
      "id": "n-02762",
      "pitch": "E3",
      "midi": 52,
      "start": 110.625,
      "duration": 0.313,
      "velocity": 0.71
    },
    {
      "id": "n-02763",
      "pitch": "E3",
      "midi": 52,
      "start": 110.625,
      "duration": 0.313,
      "velocity": 0.71
    },
    {
      "id": "n-02764",
      "pitch": "E4",
      "midi": 64,
      "start": 110.625,
      "duration": 0.313,
      "velocity": 0.71
    },
    {
      "id": "n-02765",
      "pitch": "E4",
      "midi": 64,
      "start": 110.625,
      "duration": 0.313,
      "velocity": 0.71
    },
    {
      "id": "n-02766",
      "pitch": "G4",
      "midi": 67,
      "start": 110.625,
      "duration": 0.313,
      "velocity": 0.71
    },
    {
      "id": "n-02767",
      "pitch": "G4",
      "midi": 67,
      "start": 110.625,
      "duration": 0.313,
      "velocity": 0.71
    },
    {
      "id": "n-02768",
      "pitch": "A#4",
      "midi": 70,
      "start": 110.625,
      "duration": 0.313,
      "velocity": 0.71
    },
    {
      "id": "n-02769",
      "pitch": "C#5",
      "midi": 73,
      "start": 110.625,
      "duration": 0.313,
      "velocity": 0.71
    },
    {
      "id": "n-02770",
      "pitch": "C#5",
      "midi": 73,
      "start": 110.625,
      "duration": 0.313,
      "velocity": 0.71
    },
    {
      "id": "n-02771",
      "pitch": "G5",
      "midi": 79,
      "start": 110.625,
      "duration": 0.313,
      "velocity": 0.71
    },
    {
      "id": "n-02772",
      "pitch": "G5",
      "midi": 79,
      "start": 110.625,
      "duration": 0.313,
      "velocity": 0.71
    },
    {
      "id": "n-02773",
      "pitch": "A#5",
      "midi": 82,
      "start": 110.625,
      "duration": 0.313,
      "velocity": 0.71
    },
    {
      "id": "n-02774",
      "pitch": "C#6",
      "midi": 85,
      "start": 110.625,
      "duration": 0.313,
      "velocity": 0.71
    },
    {
      "id": "n-02775",
      "pitch": "C#6",
      "midi": 85,
      "start": 110.625,
      "duration": 0.313,
      "velocity": 0.71
    },
    {
      "id": "n-02776",
      "pitch": "F#3",
      "midi": 54,
      "start": 110.938,
      "duration": 0.156,
      "velocity": 0.71
    },
    {
      "id": "n-02777",
      "pitch": "F#3",
      "midi": 54,
      "start": 110.938,
      "duration": 0.156,
      "velocity": 0.71
    },
    {
      "id": "n-02778",
      "pitch": "F#3",
      "midi": 54,
      "start": 110.938,
      "duration": 0.156,
      "velocity": 0.71
    },
    {
      "id": "n-02779",
      "pitch": "F#3",
      "midi": 54,
      "start": 110.938,
      "duration": 0.156,
      "velocity": 0.71
    },
    {
      "id": "n-02780",
      "pitch": "D4",
      "midi": 62,
      "start": 110.938,
      "duration": 0.156,
      "velocity": 0.71
    },
    {
      "id": "n-02781",
      "pitch": "F#4",
      "midi": 66,
      "start": 110.938,
      "duration": 0.156,
      "velocity": 0.71
    },
    {
      "id": "n-02782",
      "pitch": "A4",
      "midi": 69,
      "start": 110.938,
      "duration": 0.156,
      "velocity": 0.71
    },
    {
      "id": "n-02783",
      "pitch": "D5",
      "midi": 74,
      "start": 110.938,
      "duration": 0.156,
      "velocity": 0.71
    },
    {
      "id": "n-02784",
      "pitch": "D5",
      "midi": 74,
      "start": 110.938,
      "duration": 0.156,
      "velocity": 0.71
    },
    {
      "id": "n-02785",
      "pitch": "D5",
      "midi": 74,
      "start": 110.938,
      "duration": 0.156,
      "velocity": 0.71
    },
    {
      "id": "n-02786",
      "pitch": "A5",
      "midi": 81,
      "start": 110.938,
      "duration": 0.156,
      "velocity": 0.71
    },
    {
      "id": "n-02787",
      "pitch": "D6",
      "midi": 86,
      "start": 110.938,
      "duration": 0.156,
      "velocity": 0.71
    },
    {
      "id": "n-02788",
      "pitch": "D6",
      "midi": 86,
      "start": 110.938,
      "duration": 0.156,
      "velocity": 0.71
    },
    {
      "id": "n-02789",
      "pitch": "F#3",
      "midi": 54,
      "start": 111.094,
      "duration": 0.156,
      "velocity": 0.71
    },
    {
      "id": "n-02790",
      "pitch": "F#3",
      "midi": 54,
      "start": 111.094,
      "duration": 0.156,
      "velocity": 0.71
    },
    {
      "id": "n-02791",
      "pitch": "F#3",
      "midi": 54,
      "start": 111.094,
      "duration": 0.156,
      "velocity": 0.71
    },
    {
      "id": "n-02792",
      "pitch": "F#3",
      "midi": 54,
      "start": 111.094,
      "duration": 0.156,
      "velocity": 0.71
    },
    {
      "id": "n-02793",
      "pitch": "D4",
      "midi": 62,
      "start": 111.094,
      "duration": 0.156,
      "velocity": 0.71
    },
    {
      "id": "n-02794",
      "pitch": "F#4",
      "midi": 66,
      "start": 111.094,
      "duration": 0.156,
      "velocity": 0.71
    },
    {
      "id": "n-02795",
      "pitch": "A4",
      "midi": 69,
      "start": 111.094,
      "duration": 0.156,
      "velocity": 0.71
    },
    {
      "id": "n-02796",
      "pitch": "D5",
      "midi": 74,
      "start": 111.094,
      "duration": 0.156,
      "velocity": 0.71
    },
    {
      "id": "n-02797",
      "pitch": "D5",
      "midi": 74,
      "start": 111.094,
      "duration": 0.156,
      "velocity": 0.71
    },
    {
      "id": "n-02798",
      "pitch": "D5",
      "midi": 74,
      "start": 111.094,
      "duration": 0.156,
      "velocity": 0.71
    },
    {
      "id": "n-02799",
      "pitch": "A5",
      "midi": 81,
      "start": 111.094,
      "duration": 0.156,
      "velocity": 0.71
    },
    {
      "id": "n-02800",
      "pitch": "D6",
      "midi": 86,
      "start": 111.094,
      "duration": 0.156,
      "velocity": 0.71
    },
    {
      "id": "n-02801",
      "pitch": "D6",
      "midi": 86,
      "start": 111.094,
      "duration": 0.156,
      "velocity": 0.71
    },
    {
      "id": "n-02802",
      "pitch": "F#3",
      "midi": 54,
      "start": 111.25,
      "duration": 0.313,
      "velocity": 0.71
    },
    {
      "id": "n-02803",
      "pitch": "F#3",
      "midi": 54,
      "start": 111.25,
      "duration": 0.313,
      "velocity": 0.71
    },
    {
      "id": "n-02804",
      "pitch": "F#3",
      "midi": 54,
      "start": 111.25,
      "duration": 0.313,
      "velocity": 0.71
    },
    {
      "id": "n-02805",
      "pitch": "F#3",
      "midi": 54,
      "start": 111.25,
      "duration": 0.313,
      "velocity": 0.71
    },
    {
      "id": "n-02806",
      "pitch": "D4",
      "midi": 62,
      "start": 111.25,
      "duration": 0.313,
      "velocity": 0.71
    },
    {
      "id": "n-02807",
      "pitch": "F#4",
      "midi": 66,
      "start": 111.25,
      "duration": 0.313,
      "velocity": 0.71
    },
    {
      "id": "n-02808",
      "pitch": "A4",
      "midi": 69,
      "start": 111.25,
      "duration": 0.313,
      "velocity": 0.71
    },
    {
      "id": "n-02809",
      "pitch": "D5",
      "midi": 74,
      "start": 111.25,
      "duration": 0.313,
      "velocity": 0.71
    },
    {
      "id": "n-02810",
      "pitch": "D5",
      "midi": 74,
      "start": 111.25,
      "duration": 0.313,
      "velocity": 0.71
    },
    {
      "id": "n-02811",
      "pitch": "D5",
      "midi": 74,
      "start": 111.25,
      "duration": 0.313,
      "velocity": 0.71
    },
    {
      "id": "n-02812",
      "pitch": "D5",
      "midi": 74,
      "start": 111.25,
      "duration": 0.156,
      "velocity": 0.71
    },
    {
      "id": "n-02813",
      "pitch": "A5",
      "midi": 81,
      "start": 111.25,
      "duration": 0.313,
      "velocity": 0.71
    },
    {
      "id": "n-02814",
      "pitch": "D6",
      "midi": 86,
      "start": 111.25,
      "duration": 0.313,
      "velocity": 0.71
    },
    {
      "id": "n-02815",
      "pitch": "D6",
      "midi": 86,
      "start": 111.25,
      "duration": 0.156,
      "velocity": 0.71
    },
    {
      "id": "n-02816",
      "pitch": "D5",
      "midi": 74,
      "start": 111.406,
      "duration": 0.156,
      "velocity": 0.71
    },
    {
      "id": "n-02817",
      "pitch": "D6",
      "midi": 86,
      "start": 111.406,
      "duration": 0.156,
      "velocity": 0.71
    },
    {
      "id": "n-02818",
      "pitch": "D5",
      "midi": 74,
      "start": 111.563,
      "duration": 0.156,
      "velocity": 0.71
    },
    {
      "id": "n-02819",
      "pitch": "D6",
      "midi": 86,
      "start": 111.563,
      "duration": 0.156,
      "velocity": 0.71
    },
    {
      "id": "n-02820",
      "pitch": "D5",
      "midi": 74,
      "start": 111.719,
      "duration": 0.156,
      "velocity": 0.71
    },
    {
      "id": "n-02821",
      "pitch": "D6",
      "midi": 86,
      "start": 111.719,
      "duration": 0.156,
      "velocity": 0.71
    },
    {
      "id": "n-02822",
      "pitch": "G4",
      "midi": 67,
      "start": 111.875,
      "duration": 0.625,
      "velocity": 0.71
    },
    {
      "id": "n-02823",
      "pitch": "G5",
      "midi": 79,
      "start": 111.875,
      "duration": 0.625,
      "velocity": 0.71
    },
    {
      "id": "n-02824",
      "pitch": "A4",
      "midi": 69,
      "start": 112.5,
      "duration": 0.625,
      "velocity": 0.71
    },
    {
      "id": "n-02825",
      "pitch": "A5",
      "midi": 81,
      "start": 112.5,
      "duration": 0.625,
      "velocity": 0.71
    },
    {
      "id": "n-02826",
      "pitch": "D4",
      "midi": 62,
      "start": 113.125,
      "duration": 2.188,
      "velocity": 0.71
    },
    {
      "id": "n-02827",
      "pitch": "D5",
      "midi": 74,
      "start": 113.125,
      "duration": 2.188,
      "velocity": 0.71
    },
    {
      "id": "n-02828",
      "pitch": "C4",
      "midi": 60,
      "start": 113.438,
      "duration": 0.625,
      "velocity": 0.71
    },
    {
      "id": "n-02829",
      "pitch": "C4",
      "midi": 60,
      "start": 113.438,
      "duration": 0.625,
      "velocity": 0.71
    },
    {
      "id": "n-02830",
      "pitch": "C4",
      "midi": 60,
      "start": 113.438,
      "duration": 0.156,
      "velocity": 0.71
    },
    {
      "id": "n-02831",
      "pitch": "C5",
      "midi": 72,
      "start": 113.438,
      "duration": 0.625,
      "velocity": 0.71
    },
    {
      "id": "n-02832",
      "pitch": "C4",
      "midi": 60,
      "start": 113.594,
      "duration": 0.156,
      "velocity": 0.71
    },
    {
      "id": "n-02833",
      "pitch": "C4",
      "midi": 60,
      "start": 113.75,
      "duration": 0.313,
      "velocity": 0.71
    },
    {
      "id": "n-02834",
      "pitch": "A3",
      "midi": 57,
      "start": 114.063,
      "duration": 0.313,
      "velocity": 0.71
    },
    {
      "id": "n-02835",
      "pitch": "A3",
      "midi": 57,
      "start": 114.063,
      "duration": 0.313,
      "velocity": 0.71
    },
    {
      "id": "n-02836",
      "pitch": "F#4",
      "midi": 66,
      "start": 114.063,
      "duration": 0.156,
      "velocity": 0.71
    },
    {
      "id": "n-02837",
      "pitch": "A4",
      "midi": 69,
      "start": 114.063,
      "duration": 0.313,
      "velocity": 0.71
    },
    {
      "id": "n-02838",
      "pitch": "F#4",
      "midi": 66,
      "start": 114.219,
      "duration": 0.156,
      "velocity": 0.71
    },
    {
      "id": "n-02839",
      "pitch": "F#3",
      "midi": 54,
      "start": 114.375,
      "duration": 0.313,
      "velocity": 0.71
    },
    {
      "id": "n-02840",
      "pitch": "F#3",
      "midi": 54,
      "start": 114.375,
      "duration": 0.313,
      "velocity": 0.71
    },
    {
      "id": "n-02841",
      "pitch": "F#4",
      "midi": 66,
      "start": 114.375,
      "duration": 0.313,
      "velocity": 0.71
    },
    {
      "id": "n-02842",
      "pitch": "F#4",
      "midi": 66,
      "start": 114.375,
      "duration": 0.313,
      "velocity": 0.71
    },
    {
      "id": "n-02843",
      "pitch": "D3",
      "midi": 50,
      "start": 114.688,
      "duration": 0.313,
      "velocity": 0.71
    },
    {
      "id": "n-02844",
      "pitch": "D3",
      "midi": 50,
      "start": 114.688,
      "duration": 0.313,
      "velocity": 0.71
    },
    {
      "id": "n-02845",
      "pitch": "D4",
      "midi": 62,
      "start": 114.688,
      "duration": 0.313,
      "velocity": 0.71
    },
    {
      "id": "n-02846",
      "pitch": "C5",
      "midi": 72,
      "start": 114.688,
      "duration": 0.156,
      "velocity": 0.71
    },
    {
      "id": "n-02847",
      "pitch": "C5",
      "midi": 72,
      "start": 114.844,
      "duration": 0.156,
      "velocity": 0.71
    },
    {
      "id": "n-02848",
      "pitch": "C3",
      "midi": 48,
      "start": 115,
      "duration": 0.313,
      "velocity": 0.71
    },
    {
      "id": "n-02849",
      "pitch": "C3",
      "midi": 48,
      "start": 115,
      "duration": 0.313,
      "velocity": 0.71
    },
    {
      "id": "n-02850",
      "pitch": "C4",
      "midi": 60,
      "start": 115,
      "duration": 0.313,
      "velocity": 0.71
    },
    {
      "id": "n-02851",
      "pitch": "C5",
      "midi": 72,
      "start": 115,
      "duration": 0.313,
      "velocity": 0.71
    },
    {
      "id": "n-02852",
      "pitch": "A2",
      "midi": 45,
      "start": 115.313,
      "duration": 0.313,
      "velocity": 0.71
    },
    {
      "id": "n-02853",
      "pitch": "A2",
      "midi": 45,
      "start": 115.313,
      "duration": 0.313,
      "velocity": 0.71
    },
    {
      "id": "n-02854",
      "pitch": "A3",
      "midi": 57,
      "start": 115.313,
      "duration": 0.313,
      "velocity": 0.71
    },
    {
      "id": "n-02855",
      "pitch": "F#4",
      "midi": 66,
      "start": 115.313,
      "duration": 0.156,
      "velocity": 0.71
    },
    {
      "id": "n-02856",
      "pitch": "F#5",
      "midi": 78,
      "start": 115.313,
      "duration": 0.156,
      "velocity": 0.71
    },
    {
      "id": "n-02857",
      "pitch": "F#5",
      "midi": 78,
      "start": 115.313,
      "duration": 0.156,
      "velocity": 0.71
    },
    {
      "id": "n-02858",
      "pitch": "F#4",
      "midi": 66,
      "start": 115.469,
      "duration": 0.156,
      "velocity": 0.71
    },
    {
      "id": "n-02859",
      "pitch": "F#5",
      "midi": 78,
      "start": 115.469,
      "duration": 0.156,
      "velocity": 0.71
    },
    {
      "id": "n-02860",
      "pitch": "F#5",
      "midi": 78,
      "start": 115.469,
      "duration": 0.156,
      "velocity": 0.71
    },
    {
      "id": "n-02861",
      "pitch": "F#2",
      "midi": 42,
      "start": 115.625,
      "duration": 0.313,
      "velocity": 0.71
    },
    {
      "id": "n-02862",
      "pitch": "F#2",
      "midi": 42,
      "start": 115.625,
      "duration": 0.313,
      "velocity": 0.71
    },
    {
      "id": "n-02863",
      "pitch": "F#3",
      "midi": 54,
      "start": 115.625,
      "duration": 0.313,
      "velocity": 0.71
    },
    {
      "id": "n-02864",
      "pitch": "A4",
      "midi": 69,
      "start": 115.625,
      "duration": 0.313,
      "velocity": 0.71
    },
    {
      "id": "n-02865",
      "pitch": "F#5",
      "midi": 78,
      "start": 115.625,
      "duration": 0.313,
      "velocity": 0.71
    },
    {
      "id": "n-02866",
      "pitch": "A5",
      "midi": 81,
      "start": 115.625,
      "duration": 0.313,
      "velocity": 0.71
    },
    {
      "id": "n-02867",
      "pitch": "D2",
      "midi": 38,
      "start": 115.938,
      "duration": 0.313,
      "velocity": 0.71
    },
    {
      "id": "n-02868",
      "pitch": "D3",
      "midi": 50,
      "start": 115.938,
      "duration": 0.313,
      "velocity": 0.71
    },
    {
      "id": "n-02869",
      "pitch": "D3",
      "midi": 50,
      "start": 115.938,
      "duration": 0.313,
      "velocity": 0.71
    },
    {
      "id": "n-02870",
      "pitch": "D3",
      "midi": 50,
      "start": 115.938,
      "duration": 0.156,
      "velocity": 0.71
    },
    {
      "id": "n-02871",
      "pitch": "D4",
      "midi": 62,
      "start": 115.938,
      "duration": 0.156,
      "velocity": 0.71
    },
    {
      "id": "n-02872",
      "pitch": "F#4",
      "midi": 66,
      "start": 115.938,
      "duration": 0.156,
      "velocity": 0.71
    },
    {
      "id": "n-02873",
      "pitch": "A4",
      "midi": 69,
      "start": 115.938,
      "duration": 0.156,
      "velocity": 0.71
    },
    {
      "id": "n-02874",
      "pitch": "D5",
      "midi": 74,
      "start": 115.938,
      "duration": 0.156,
      "velocity": 0.71
    },
    {
      "id": "n-02875",
      "pitch": "D5",
      "midi": 74,
      "start": 115.938,
      "duration": 0.156,
      "velocity": 0.71
    },
    {
      "id": "n-02876",
      "pitch": "F#5",
      "midi": 78,
      "start": 115.938,
      "duration": 0.156,
      "velocity": 0.71
    },
    {
      "id": "n-02877",
      "pitch": "A5",
      "midi": 81,
      "start": 115.938,
      "duration": 0.156,
      "velocity": 0.71
    },
    {
      "id": "n-02878",
      "pitch": "D6",
      "midi": 86,
      "start": 115.938,
      "duration": 0.156,
      "velocity": 0.71
    },
    {
      "id": "n-02879",
      "pitch": "D6",
      "midi": 86,
      "start": 115.938,
      "duration": 0.156,
      "velocity": 0.71
    },
    {
      "id": "n-02880",
      "pitch": "D3",
      "midi": 50,
      "start": 116.094,
      "duration": 0.156,
      "velocity": 0.71
    },
    {
      "id": "n-02881",
      "pitch": "D4",
      "midi": 62,
      "start": 116.094,
      "duration": 0.156,
      "velocity": 0.71
    },
    {
      "id": "n-02882",
      "pitch": "F#4",
      "midi": 66,
      "start": 116.094,
      "duration": 0.156,
      "velocity": 0.71
    },
    {
      "id": "n-02883",
      "pitch": "A4",
      "midi": 69,
      "start": 116.094,
      "duration": 0.156,
      "velocity": 0.71
    },
    {
      "id": "n-02884",
      "pitch": "D5",
      "midi": 74,
      "start": 116.094,
      "duration": 0.156,
      "velocity": 0.71
    },
    {
      "id": "n-02885",
      "pitch": "D5",
      "midi": 74,
      "start": 116.094,
      "duration": 0.156,
      "velocity": 0.71
    },
    {
      "id": "n-02886",
      "pitch": "F#5",
      "midi": 78,
      "start": 116.094,
      "duration": 0.156,
      "velocity": 0.71
    },
    {
      "id": "n-02887",
      "pitch": "A5",
      "midi": 81,
      "start": 116.094,
      "duration": 0.156,
      "velocity": 0.71
    },
    {
      "id": "n-02888",
      "pitch": "D6",
      "midi": 86,
      "start": 116.094,
      "duration": 0.156,
      "velocity": 0.71
    },
    {
      "id": "n-02889",
      "pitch": "D6",
      "midi": 86,
      "start": 116.094,
      "duration": 0.156,
      "velocity": 0.71
    },
    {
      "id": "n-02890",
      "pitch": "G2",
      "midi": 43,
      "start": 116.25,
      "duration": 0.313,
      "velocity": 0.71
    },
    {
      "id": "n-02891",
      "pitch": "G2",
      "midi": 43,
      "start": 116.25,
      "duration": 0.313,
      "velocity": 0.71
    },
    {
      "id": "n-02892",
      "pitch": "G2",
      "midi": 43,
      "start": 116.25,
      "duration": 0.313,
      "velocity": 0.71
    },
    {
      "id": "n-02893",
      "pitch": "G2",
      "midi": 43,
      "start": 116.25,
      "duration": 0.313,
      "velocity": 0.71
    },
    {
      "id": "n-02894",
      "pitch": "G3",
      "midi": 55,
      "start": 116.25,
      "duration": 0.313,
      "velocity": 0.71
    },
    {
      "id": "n-02895",
      "pitch": "G3",
      "midi": 55,
      "start": 116.25,
      "duration": 0.313,
      "velocity": 0.71
    },
    {
      "id": "n-02896",
      "pitch": "G4",
      "midi": 67,
      "start": 116.25,
      "duration": 0.313,
      "velocity": 0.71
    },
    {
      "id": "n-02897",
      "pitch": "G4",
      "midi": 67,
      "start": 116.25,
      "duration": 0.313,
      "velocity": 0.71
    },
    {
      "id": "n-02898",
      "pitch": "B4",
      "midi": 71,
      "start": 116.25,
      "duration": 0.313,
      "velocity": 0.71
    },
    {
      "id": "n-02899",
      "pitch": "B4",
      "midi": 71,
      "start": 116.25,
      "duration": 0.156,
      "velocity": 0.71
    },
    {
      "id": "n-02900",
      "pitch": "D5",
      "midi": 74,
      "start": 116.25,
      "duration": 0.313,
      "velocity": 0.71
    },
    {
      "id": "n-02901",
      "pitch": "G5",
      "midi": 79,
      "start": 116.25,
      "duration": 0.313,
      "velocity": 0.71
    },
    {
      "id": "n-02902",
      "pitch": "B5",
      "midi": 83,
      "start": 116.25,
      "duration": 0.313,
      "velocity": 0.71
    },
    {
      "id": "n-02903",
      "pitch": "B5",
      "midi": 83,
      "start": 116.25,
      "duration": 0.156,
      "velocity": 0.71
    },
    {
      "id": "n-02904",
      "pitch": "D6",
      "midi": 86,
      "start": 116.25,
      "duration": 0.313,
      "velocity": 0.71
    },
    {
      "id": "n-02905",
      "pitch": "G6",
      "midi": 91,
      "start": 116.25,
      "duration": 0.313,
      "velocity": 0.71
    },
    {
      "id": "n-02906",
      "pitch": "G4",
      "midi": 67,
      "start": 116.406,
      "duration": 0.156,
      "velocity": 0.71
    },
    {
      "id": "n-02907",
      "pitch": "G5",
      "midi": 79,
      "start": 116.406,
      "duration": 0.156,
      "velocity": 0.71
    },
    {
      "id": "n-02908",
      "pitch": "G4",
      "midi": 67,
      "start": 116.563,
      "duration": 0.156,
      "velocity": 0.71
    },
    {
      "id": "n-02909",
      "pitch": "G5",
      "midi": 79,
      "start": 116.563,
      "duration": 0.156,
      "velocity": 0.71
    },
    {
      "id": "n-02910",
      "pitch": "G4",
      "midi": 67,
      "start": 116.719,
      "duration": 0.156,
      "velocity": 0.71
    },
    {
      "id": "n-02911",
      "pitch": "G5",
      "midi": 79,
      "start": 116.719,
      "duration": 0.156,
      "velocity": 0.71
    },
    {
      "id": "n-02912",
      "pitch": "C4",
      "midi": 60,
      "start": 116.875,
      "duration": 0.625,
      "velocity": 0.71
    },
    {
      "id": "n-02913",
      "pitch": "C5",
      "midi": 72,
      "start": 116.875,
      "duration": 0.625,
      "velocity": 0.71
    },
    {
      "id": "n-02914",
      "pitch": "D4",
      "midi": 62,
      "start": 117.5,
      "duration": 0.625,
      "velocity": 0.71
    },
    {
      "id": "n-02915",
      "pitch": "D5",
      "midi": 74,
      "start": 117.5,
      "duration": 0.625,
      "velocity": 0.71
    },
    {
      "id": "n-02916",
      "pitch": "G3",
      "midi": 55,
      "start": 118.125,
      "duration": 2.188,
      "velocity": 0.71
    },
    {
      "id": "n-02917",
      "pitch": "G4",
      "midi": 67,
      "start": 118.125,
      "duration": 2.188,
      "velocity": 0.71
    },
    {
      "id": "n-02918",
      "pitch": "B3",
      "midi": 59,
      "start": 118.438,
      "duration": 0.156,
      "velocity": 0.71
    },
    {
      "id": "n-02919",
      "pitch": "F4",
      "midi": 65,
      "start": 118.438,
      "duration": 0.625,
      "velocity": 0.71
    },
    {
      "id": "n-02920",
      "pitch": "F4",
      "midi": 65,
      "start": 118.438,
      "duration": 0.625,
      "velocity": 0.71
    },
    {
      "id": "n-02921",
      "pitch": "F5",
      "midi": 77,
      "start": 118.438,
      "duration": 0.625,
      "velocity": 0.71
    },
    {
      "id": "n-02922",
      "pitch": "B3",
      "midi": 59,
      "start": 118.594,
      "duration": 0.156,
      "velocity": 0.71
    },
    {
      "id": "n-02923",
      "pitch": "B3",
      "midi": 59,
      "start": 118.75,
      "duration": 0.313,
      "velocity": 0.71
    },
    {
      "id": "n-02924",
      "pitch": "D4",
      "midi": 62,
      "start": 119.063,
      "duration": 0.313,
      "velocity": 0.71
    },
    {
      "id": "n-02925",
      "pitch": "D4",
      "midi": 62,
      "start": 119.063,
      "duration": 0.313,
      "velocity": 0.71
    },
    {
      "id": "n-02926",
      "pitch": "F4",
      "midi": 65,
      "start": 119.063,
      "duration": 0.156,
      "velocity": 0.71
    },
    {
      "id": "n-02927",
      "pitch": "D5",
      "midi": 74,
      "start": 119.063,
      "duration": 0.313,
      "velocity": 0.71
    },
    {
      "id": "n-02928",
      "pitch": "F4",
      "midi": 65,
      "start": 119.219,
      "duration": 0.156,
      "velocity": 0.71
    },
    {
      "id": "n-02929",
      "pitch": "B3",
      "midi": 59,
      "start": 119.375,
      "duration": 0.313,
      "velocity": 0.71
    },
    {
      "id": "n-02930",
      "pitch": "B3",
      "midi": 59,
      "start": 119.375,
      "duration": 0.313,
      "velocity": 0.71
    },
    {
      "id": "n-02931",
      "pitch": "F4",
      "midi": 65,
      "start": 119.375,
      "duration": 0.313,
      "velocity": 0.71
    },
    {
      "id": "n-02932",
      "pitch": "B4",
      "midi": 71,
      "start": 119.375,
      "duration": 0.313,
      "velocity": 0.71
    },
    {
      "id": "n-02933",
      "pitch": "G3",
      "midi": 55,
      "start": 119.688,
      "duration": 0.313,
      "velocity": 0.71
    },
    {
      "id": "n-02934",
      "pitch": "G3",
      "midi": 55,
      "start": 119.688,
      "duration": 0.313,
      "velocity": 0.71
    },
    {
      "id": "n-02935",
      "pitch": "G4",
      "midi": 67,
      "start": 119.688,
      "duration": 0.313,
      "velocity": 0.71
    },
    {
      "id": "n-02936",
      "pitch": "B4",
      "midi": 71,
      "start": 119.688,
      "duration": 0.156,
      "velocity": 0.71
    },
    {
      "id": "n-02937",
      "pitch": "B4",
      "midi": 71,
      "start": 119.844,
      "duration": 0.156,
      "velocity": 0.71
    },
    {
      "id": "n-02938",
      "pitch": "F3",
      "midi": 53,
      "start": 120,
      "duration": 0.313,
      "velocity": 0.71
    },
    {
      "id": "n-02939",
      "pitch": "F3",
      "midi": 53,
      "start": 120,
      "duration": 0.313,
      "velocity": 0.71
    },
    {
      "id": "n-02940",
      "pitch": "F4",
      "midi": 65,
      "start": 120,
      "duration": 0.313,
      "velocity": 0.71
    },
    {
      "id": "n-02941",
      "pitch": "B4",
      "midi": 71,
      "start": 120,
      "duration": 0.313,
      "velocity": 0.71
    },
    {
      "id": "n-02942",
      "pitch": "D3",
      "midi": 50,
      "start": 120.313,
      "duration": 0.313,
      "velocity": 0.71
    },
    {
      "id": "n-02943",
      "pitch": "D3",
      "midi": 50,
      "start": 120.313,
      "duration": 0.313,
      "velocity": 0.71
    },
    {
      "id": "n-02944",
      "pitch": "B3",
      "midi": 59,
      "start": 120.313,
      "duration": 0.156,
      "velocity": 0.71
    },
    {
      "id": "n-02945",
      "pitch": "D4",
      "midi": 62,
      "start": 120.313,
      "duration": 0.313,
      "velocity": 0.71
    },
    {
      "id": "n-02946",
      "pitch": "B4",
      "midi": 71,
      "start": 120.313,
      "duration": 0.156,
      "velocity": 0.71
    },
    {
      "id": "n-02947",
      "pitch": "F5",
      "midi": 77,
      "start": 120.313,
      "duration": 0.156,
      "velocity": 0.71
    },
    {
      "id": "n-02948",
      "pitch": "B3",
      "midi": 59,
      "start": 120.469,
      "duration": 0.156,
      "velocity": 0.71
    },
    {
      "id": "n-02949",
      "pitch": "B4",
      "midi": 71,
      "start": 120.469,
      "duration": 0.156,
      "velocity": 0.71
    },
    {
      "id": "n-02950",
      "pitch": "F5",
      "midi": 77,
      "start": 120.469,
      "duration": 0.156,
      "velocity": 0.71
    },
    {
      "id": "n-02951",
      "pitch": "B2",
      "midi": 47,
      "start": 120.625,
      "duration": 0.313,
      "velocity": 0.71
    },
    {
      "id": "n-02952",
      "pitch": "B2",
      "midi": 47,
      "start": 120.625,
      "duration": 0.313,
      "velocity": 0.71
    },
    {
      "id": "n-02953",
      "pitch": "B3",
      "midi": 59,
      "start": 120.625,
      "duration": 0.313,
      "velocity": 0.71
    },
    {
      "id": "n-02954",
      "pitch": "D4",
      "midi": 62,
      "start": 120.625,
      "duration": 0.313,
      "velocity": 0.71
    },
    {
      "id": "n-02955",
      "pitch": "D5",
      "midi": 74,
      "start": 120.625,
      "duration": 0.313,
      "velocity": 0.71
    },
    {
      "id": "n-02956",
      "pitch": "F5",
      "midi": 77,
      "start": 120.625,
      "duration": 0.313,
      "velocity": 0.71
    },
    {
      "id": "n-02957",
      "pitch": "G2",
      "midi": 43,
      "start": 120.938,
      "duration": 0.313,
      "velocity": 0.71
    },
    {
      "id": "n-02958",
      "pitch": "G2",
      "midi": 43,
      "start": 120.938,
      "duration": 0.313,
      "velocity": 0.71
    },
    {
      "id": "n-02959",
      "pitch": "G2",
      "midi": 43,
      "start": 120.938,
      "duration": 0.156,
      "velocity": 0.71
    },
    {
      "id": "n-02960",
      "pitch": "G3",
      "midi": 55,
      "start": 120.938,
      "duration": 0.313,
      "velocity": 0.71
    },
    {
      "id": "n-02961",
      "pitch": "G3",
      "midi": 55,
      "start": 120.938,
      "duration": 0.156,
      "velocity": 0.71
    },
    {
      "id": "n-02962",
      "pitch": "G4",
      "midi": 67,
      "start": 120.938,
      "duration": 0.156,
      "velocity": 0.71
    },
    {
      "id": "n-02963",
      "pitch": "G4",
      "midi": 67,
      "start": 120.938,
      "duration": 0.156,
      "velocity": 0.71
    },
    {
      "id": "n-02964",
      "pitch": "G4",
      "midi": 67,
      "start": 120.938,
      "duration": 0.156,
      "velocity": 0.71
    },
    {
      "id": "n-02965",
      "pitch": "B4",
      "midi": 71,
      "start": 120.938,
      "duration": 0.156,
      "velocity": 0.71
    },
    {
      "id": "n-02966",
      "pitch": "D5",
      "midi": 74,
      "start": 120.938,
      "duration": 0.156,
      "velocity": 0.71
    },
    {
      "id": "n-02967",
      "pitch": "G5",
      "midi": 79,
      "start": 120.938,
      "duration": 0.156,
      "velocity": 0.71
    },
    {
      "id": "n-02968",
      "pitch": "B5",
      "midi": 83,
      "start": 120.938,
      "duration": 0.156,
      "velocity": 0.71
    },
    {
      "id": "n-02969",
      "pitch": "D6",
      "midi": 86,
      "start": 120.938,
      "duration": 0.156,
      "velocity": 0.71
    },
    {
      "id": "n-02970",
      "pitch": "G2",
      "midi": 43,
      "start": 121.094,
      "duration": 0.156,
      "velocity": 0.71
    },
    {
      "id": "n-02971",
      "pitch": "G3",
      "midi": 55,
      "start": 121.094,
      "duration": 0.156,
      "velocity": 0.71
    },
    {
      "id": "n-02972",
      "pitch": "G4",
      "midi": 67,
      "start": 121.094,
      "duration": 0.156,
      "velocity": 0.71
    },
    {
      "id": "n-02973",
      "pitch": "G4",
      "midi": 67,
      "start": 121.094,
      "duration": 0.156,
      "velocity": 0.71
    },
    {
      "id": "n-02974",
      "pitch": "G4",
      "midi": 67,
      "start": 121.094,
      "duration": 0.156,
      "velocity": 0.71
    },
    {
      "id": "n-02975",
      "pitch": "B4",
      "midi": 71,
      "start": 121.094,
      "duration": 0.156,
      "velocity": 0.71
    },
    {
      "id": "n-02976",
      "pitch": "D5",
      "midi": 74,
      "start": 121.094,
      "duration": 0.156,
      "velocity": 0.71
    },
    {
      "id": "n-02977",
      "pitch": "G5",
      "midi": 79,
      "start": 121.094,
      "duration": 0.156,
      "velocity": 0.71
    },
    {
      "id": "n-02978",
      "pitch": "B5",
      "midi": 83,
      "start": 121.094,
      "duration": 0.156,
      "velocity": 0.71
    },
    {
      "id": "n-02979",
      "pitch": "D6",
      "midi": 86,
      "start": 121.094,
      "duration": 0.156,
      "velocity": 0.71
    },
    {
      "id": "n-02980",
      "pitch": "C3",
      "midi": 48,
      "start": 121.25,
      "duration": 0.313,
      "velocity": 0.71
    },
    {
      "id": "n-02981",
      "pitch": "C3",
      "midi": 48,
      "start": 121.25,
      "duration": 0.313,
      "velocity": 0.71
    },
    {
      "id": "n-02982",
      "pitch": "C3",
      "midi": 48,
      "start": 121.25,
      "duration": 0.313,
      "velocity": 0.71
    },
    {
      "id": "n-02983",
      "pitch": "C4",
      "midi": 60,
      "start": 121.25,
      "duration": 0.313,
      "velocity": 0.71
    },
    {
      "id": "n-02984",
      "pitch": "C4",
      "midi": 60,
      "start": 121.25,
      "duration": 0.313,
      "velocity": 0.71
    },
    {
      "id": "n-02985",
      "pitch": "E4",
      "midi": 64,
      "start": 121.25,
      "duration": 0.313,
      "velocity": 0.71
    },
    {
      "id": "n-02986",
      "pitch": "G4",
      "midi": 67,
      "start": 121.25,
      "duration": 0.313,
      "velocity": 0.71
    },
    {
      "id": "n-02987",
      "pitch": "C5",
      "midi": 72,
      "start": 121.25,
      "duration": 0.313,
      "velocity": 0.71
    },
    {
      "id": "n-02988",
      "pitch": "C5",
      "midi": 72,
      "start": 121.25,
      "duration": 0.156,
      "velocity": 0.71
    },
    {
      "id": "n-02989",
      "pitch": "E5",
      "midi": 76,
      "start": 121.25,
      "duration": 0.313,
      "velocity": 0.71
    },
    {
      "id": "n-02990",
      "pitch": "E5",
      "midi": 76,
      "start": 121.25,
      "duration": 0.156,
      "velocity": 0.71
    },
    {
      "id": "n-02991",
      "pitch": "C6",
      "midi": 84,
      "start": 121.25,
      "duration": 0.156,
      "velocity": 0.71
    },
    {
      "id": "n-02992",
      "pitch": "E6",
      "midi": 88,
      "start": 121.25,
      "duration": 0.156,
      "velocity": 0.71
    },
    {
      "id": "n-02993",
      "pitch": "C4",
      "midi": 60,
      "start": 121.406,
      "duration": 0.156,
      "velocity": 0.71
    },
    {
      "id": "n-02994",
      "pitch": "C5",
      "midi": 72,
      "start": 121.406,
      "duration": 0.156,
      "velocity": 0.71
    },
    {
      "id": "n-02995",
      "pitch": "C5",
      "midi": 72,
      "start": 121.406,
      "duration": 0.156,
      "velocity": 0.71
    },
    {
      "id": "n-02996",
      "pitch": "C6",
      "midi": 84,
      "start": 121.406,
      "duration": 0.156,
      "velocity": 0.71
    },
    {
      "id": "n-02997",
      "pitch": "C6",
      "midi": 84,
      "start": 121.406,
      "duration": 0.156,
      "velocity": 0.71
    },
    {
      "id": "n-02998",
      "pitch": "C6",
      "midi": 84,
      "start": 121.406,
      "duration": 0.156,
      "velocity": 0.71
    },
    {
      "id": "n-02999",
      "pitch": "C4",
      "midi": 60,
      "start": 121.563,
      "duration": 0.156,
      "velocity": 0.71
    },
    {
      "id": "n-03000",
      "pitch": "C5",
      "midi": 72,
      "start": 121.563,
      "duration": 0.156,
      "velocity": 0.71
    },
    {
      "id": "n-03001",
      "pitch": "C5",
      "midi": 72,
      "start": 121.563,
      "duration": 0.156,
      "velocity": 0.71
    },
    {
      "id": "n-03002",
      "pitch": "C6",
      "midi": 84,
      "start": 121.563,
      "duration": 0.156,
      "velocity": 0.71
    },
    {
      "id": "n-03003",
      "pitch": "C6",
      "midi": 84,
      "start": 121.563,
      "duration": 0.156,
      "velocity": 0.71
    },
    {
      "id": "n-03004",
      "pitch": "C6",
      "midi": 84,
      "start": 121.563,
      "duration": 0.156,
      "velocity": 0.71
    },
    {
      "id": "n-03005",
      "pitch": "C4",
      "midi": 60,
      "start": 121.719,
      "duration": 0.156,
      "velocity": 0.71
    },
    {
      "id": "n-03006",
      "pitch": "C5",
      "midi": 72,
      "start": 121.719,
      "duration": 0.156,
      "velocity": 0.71
    },
    {
      "id": "n-03007",
      "pitch": "C5",
      "midi": 72,
      "start": 121.719,
      "duration": 0.156,
      "velocity": 0.71
    },
    {
      "id": "n-03008",
      "pitch": "C6",
      "midi": 84,
      "start": 121.719,
      "duration": 0.156,
      "velocity": 0.71
    },
    {
      "id": "n-03009",
      "pitch": "C6",
      "midi": 84,
      "start": 121.719,
      "duration": 0.156,
      "velocity": 0.71
    },
    {
      "id": "n-03010",
      "pitch": "C6",
      "midi": 84,
      "start": 121.719,
      "duration": 0.156,
      "velocity": 0.71
    },
    {
      "id": "n-03011",
      "pitch": "G#3",
      "midi": 56,
      "start": 121.875,
      "duration": 0.625,
      "velocity": 0.71
    },
    {
      "id": "n-03012",
      "pitch": "C4",
      "midi": 60,
      "start": 121.875,
      "duration": 0.625,
      "velocity": 0.71
    },
    {
      "id": "n-03013",
      "pitch": "C4",
      "midi": 60,
      "start": 121.875,
      "duration": 0.625,
      "velocity": 0.71
    },
    {
      "id": "n-03014",
      "pitch": "F4",
      "midi": 65,
      "start": 121.875,
      "duration": 0.625,
      "velocity": 0.71
    },
    {
      "id": "n-03015",
      "pitch": "F4",
      "midi": 65,
      "start": 121.875,
      "duration": 0.625,
      "velocity": 0.71
    },
    {
      "id": "n-03016",
      "pitch": "F5",
      "midi": 77,
      "start": 121.875,
      "duration": 0.625,
      "velocity": 0.71
    },
    {
      "id": "n-03017",
      "pitch": "F5",
      "midi": 77,
      "start": 121.875,
      "duration": 0.625,
      "velocity": 0.71
    },
    {
      "id": "n-03018",
      "pitch": "F5",
      "midi": 77,
      "start": 121.875,
      "duration": 0.625,
      "velocity": 0.71
    },
    {
      "id": "n-03019",
      "pitch": "A#3",
      "midi": 58,
      "start": 122.5,
      "duration": 0.625,
      "velocity": 0.71
    },
    {
      "id": "n-03020",
      "pitch": "C4",
      "midi": 60,
      "start": 122.5,
      "duration": 0.625,
      "velocity": 0.71
    },
    {
      "id": "n-03021",
      "pitch": "C#4",
      "midi": 61,
      "start": 122.5,
      "duration": 0.625,
      "velocity": 0.71
    },
    {
      "id": "n-03022",
      "pitch": "G4",
      "midi": 67,
      "start": 122.5,
      "duration": 0.625,
      "velocity": 0.71
    },
    {
      "id": "n-03023",
      "pitch": "G4",
      "midi": 67,
      "start": 122.5,
      "duration": 0.625,
      "velocity": 0.71
    },
    {
      "id": "n-03024",
      "pitch": "G5",
      "midi": 79,
      "start": 122.5,
      "duration": 0.625,
      "velocity": 0.71
    },
    {
      "id": "n-03025",
      "pitch": "G5",
      "midi": 79,
      "start": 122.5,
      "duration": 0.625,
      "velocity": 0.71
    },
    {
      "id": "n-03026",
      "pitch": "G5",
      "midi": 79,
      "start": 122.5,
      "duration": 0.625,
      "velocity": 0.71
    },
    {
      "id": "n-03027",
      "pitch": "G2",
      "midi": 43,
      "start": 123.125,
      "duration": 0.625,
      "velocity": 0.71
    },
    {
      "id": "n-03028",
      "pitch": "G2",
      "midi": 43,
      "start": 123.125,
      "duration": 0.625,
      "velocity": 0.71
    },
    {
      "id": "n-03029",
      "pitch": "C3",
      "midi": 48,
      "start": 123.125,
      "duration": 0.625,
      "velocity": 0.71
    },
    {
      "id": "n-03030",
      "pitch": "G3",
      "midi": 55,
      "start": 123.125,
      "duration": 0.625,
      "velocity": 0.71
    },
    {
      "id": "n-03031",
      "pitch": "A#3",
      "midi": 58,
      "start": 123.125,
      "duration": 0.625,
      "velocity": 0.71
    },
    {
      "id": "n-03032",
      "pitch": "C4",
      "midi": 60,
      "start": 123.125,
      "duration": 0.625,
      "velocity": 0.71
    },
    {
      "id": "n-03033",
      "pitch": "E4",
      "midi": 64,
      "start": 123.125,
      "duration": 0.625,
      "velocity": 0.71
    },
    {
      "id": "n-03034",
      "pitch": "G#2",
      "midi": 44,
      "start": 123.75,
      "duration": 0.625,
      "velocity": 0.71
    },
    {
      "id": "n-03035",
      "pitch": "G#2",
      "midi": 44,
      "start": 123.75,
      "duration": 0.625,
      "velocity": 0.71
    },
    {
      "id": "n-03036",
      "pitch": "C3",
      "midi": 48,
      "start": 123.75,
      "duration": 0.625,
      "velocity": 0.71
    },
    {
      "id": "n-03037",
      "pitch": "G#3",
      "midi": 56,
      "start": 123.75,
      "duration": 0.625,
      "velocity": 0.71
    },
    {
      "id": "n-03038",
      "pitch": "C4",
      "midi": 60,
      "start": 123.75,
      "duration": 0.625,
      "velocity": 0.71
    },
    {
      "id": "n-03039",
      "pitch": "C4",
      "midi": 60,
      "start": 123.75,
      "duration": 0.625,
      "velocity": 0.71
    },
    {
      "id": "n-03040",
      "pitch": "F4",
      "midi": 65,
      "start": 123.75,
      "duration": 0.625,
      "velocity": 0.71
    },
    {
      "id": "n-03041",
      "pitch": "G#3",
      "midi": 56,
      "start": 124.375,
      "duration": 0.625,
      "velocity": 0.71
    },
    {
      "id": "n-03042",
      "pitch": "C4",
      "midi": 60,
      "start": 124.375,
      "duration": 0.625,
      "velocity": 0.71
    },
    {
      "id": "n-03043",
      "pitch": "C4",
      "midi": 60,
      "start": 124.375,
      "duration": 0.625,
      "velocity": 0.71
    },
    {
      "id": "n-03044",
      "pitch": "F4",
      "midi": 65,
      "start": 124.375,
      "duration": 0.625,
      "velocity": 0.71
    },
    {
      "id": "n-03045",
      "pitch": "F4",
      "midi": 65,
      "start": 124.375,
      "duration": 0.625,
      "velocity": 0.71
    },
    {
      "id": "n-03046",
      "pitch": "F4",
      "midi": 65,
      "start": 124.375,
      "duration": 0.625,
      "velocity": 0.71
    },
    {
      "id": "n-03047",
      "pitch": "F5",
      "midi": 77,
      "start": 124.375,
      "duration": 0.625,
      "velocity": 0.71
    },
    {
      "id": "n-03048",
      "pitch": "F5",
      "midi": 77,
      "start": 124.375,
      "duration": 0.625,
      "velocity": 0.71
    },
    {
      "id": "n-03049",
      "pitch": "F5",
      "midi": 77,
      "start": 124.375,
      "duration": 0.625,
      "velocity": 0.71
    },
    {
      "id": "n-03050",
      "pitch": "A#3",
      "midi": 58,
      "start": 125,
      "duration": 0.625,
      "velocity": 0.71
    },
    {
      "id": "n-03051",
      "pitch": "C4",
      "midi": 60,
      "start": 125,
      "duration": 0.625,
      "velocity": 0.71
    },
    {
      "id": "n-03052",
      "pitch": "C#4",
      "midi": 61,
      "start": 125,
      "duration": 0.625,
      "velocity": 0.71
    },
    {
      "id": "n-03053",
      "pitch": "G4",
      "midi": 67,
      "start": 125,
      "duration": 0.625,
      "velocity": 0.71
    },
    {
      "id": "n-03054",
      "pitch": "G4",
      "midi": 67,
      "start": 125,
      "duration": 0.625,
      "velocity": 0.71
    },
    {
      "id": "n-03055",
      "pitch": "G4",
      "midi": 67,
      "start": 125,
      "duration": 0.625,
      "velocity": 0.71
    },
    {
      "id": "n-03056",
      "pitch": "G5",
      "midi": 79,
      "start": 125,
      "duration": 0.625,
      "velocity": 0.71
    },
    {
      "id": "n-03057",
      "pitch": "G5",
      "midi": 79,
      "start": 125,
      "duration": 0.625,
      "velocity": 0.71
    },
    {
      "id": "n-03058",
      "pitch": "G5",
      "midi": 79,
      "start": 125,
      "duration": 0.625,
      "velocity": 0.71
    },
    {
      "id": "n-03059",
      "pitch": "G2",
      "midi": 43,
      "start": 125.625,
      "duration": 0.625,
      "velocity": 0.71
    },
    {
      "id": "n-03060",
      "pitch": "G2",
      "midi": 43,
      "start": 125.625,
      "duration": 0.625,
      "velocity": 0.71
    },
    {
      "id": "n-03061",
      "pitch": "G3",
      "midi": 55,
      "start": 125.625,
      "duration": 0.625,
      "velocity": 0.71
    },
    {
      "id": "n-03062",
      "pitch": "G3",
      "midi": 55,
      "start": 125.625,
      "duration": 0.625,
      "velocity": 0.71
    },
    {
      "id": "n-03063",
      "pitch": "A#3",
      "midi": 58,
      "start": 125.625,
      "duration": 0.625,
      "velocity": 0.71
    },
    {
      "id": "n-03064",
      "pitch": "E4",
      "midi": 64,
      "start": 125.625,
      "duration": 0.625,
      "velocity": 0.71
    },
    {
      "id": "n-03065",
      "pitch": "G#2",
      "midi": 44,
      "start": 126.25,
      "duration": 0.625,
      "velocity": 0.71
    },
    {
      "id": "n-03066",
      "pitch": "G#2",
      "midi": 44,
      "start": 126.25,
      "duration": 0.625,
      "velocity": 0.71
    },
    {
      "id": "n-03067",
      "pitch": "G#3",
      "midi": 56,
      "start": 126.25,
      "duration": 0.625,
      "velocity": 0.71
    },
    {
      "id": "n-03068",
      "pitch": "G#3",
      "midi": 56,
      "start": 126.25,
      "duration": 0.625,
      "velocity": 0.71
    },
    {
      "id": "n-03069",
      "pitch": "C4",
      "midi": 60,
      "start": 126.25,
      "duration": 0.625,
      "velocity": 0.71
    },
    {
      "id": "n-03070",
      "pitch": "F4",
      "midi": 65,
      "start": 126.25,
      "duration": 0.625,
      "velocity": 0.71
    },
    {
      "id": "n-03071",
      "pitch": "G#3",
      "midi": 56,
      "start": 126.875,
      "duration": 0.625,
      "velocity": 0.71
    },
    {
      "id": "n-03072",
      "pitch": "C4",
      "midi": 60,
      "start": 126.875,
      "duration": 0.625,
      "velocity": 0.71
    },
    {
      "id": "n-03073",
      "pitch": "F4",
      "midi": 65,
      "start": 126.875,
      "duration": 0.625,
      "velocity": 0.71
    },
    {
      "id": "n-03074",
      "pitch": "G#4",
      "midi": 68,
      "start": 126.875,
      "duration": 0.625,
      "velocity": 0.71
    },
    {
      "id": "n-03075",
      "pitch": "C5",
      "midi": 72,
      "start": 126.875,
      "duration": 0.625,
      "velocity": 0.71
    },
    {
      "id": "n-03076",
      "pitch": "F5",
      "midi": 77,
      "start": 126.875,
      "duration": 0.625,
      "velocity": 0.71
    },
    {
      "id": "n-03077",
      "pitch": "F5",
      "midi": 77,
      "start": 126.875,
      "duration": 0.625,
      "velocity": 0.71
    },
    {
      "id": "n-03078",
      "pitch": "A#3",
      "midi": 58,
      "start": 127.5,
      "duration": 0.625,
      "velocity": 0.71
    },
    {
      "id": "n-03079",
      "pitch": "C#4",
      "midi": 61,
      "start": 127.5,
      "duration": 0.625,
      "velocity": 0.71
    },
    {
      "id": "n-03080",
      "pitch": "F#4",
      "midi": 66,
      "start": 127.5,
      "duration": 0.625,
      "velocity": 0.71
    },
    {
      "id": "n-03081",
      "pitch": "F#4",
      "midi": 66,
      "start": 127.5,
      "duration": 0.625,
      "velocity": 0.71
    },
    {
      "id": "n-03082",
      "pitch": "C#5",
      "midi": 73,
      "start": 127.5,
      "duration": 0.625,
      "velocity": 0.71
    },
    {
      "id": "n-03083",
      "pitch": "F#5",
      "midi": 78,
      "start": 127.5,
      "duration": 0.625,
      "velocity": 0.71
    },
    {
      "id": "n-03084",
      "pitch": "F#5",
      "midi": 78,
      "start": 127.5,
      "duration": 0.625,
      "velocity": 0.71
    },
    {
      "id": "n-03085",
      "pitch": "A#2",
      "midi": 46,
      "start": 128.125,
      "duration": 0.625,
      "velocity": 0.71
    },
    {
      "id": "n-03086",
      "pitch": "A#2",
      "midi": 46,
      "start": 128.125,
      "duration": 0.625,
      "velocity": 0.71
    },
    {
      "id": "n-03087",
      "pitch": "A#3",
      "midi": 58,
      "start": 128.125,
      "duration": 0.625,
      "velocity": 0.71
    },
    {
      "id": "n-03088",
      "pitch": "C#4",
      "midi": 61,
      "start": 128.125,
      "duration": 0.625,
      "velocity": 0.71
    },
    {
      "id": "n-03089",
      "pitch": "F#4",
      "midi": 66,
      "start": 128.125,
      "duration": 0.625,
      "velocity": 0.71
    },
    {
      "id": "n-03090",
      "pitch": "C3",
      "midi": 48,
      "start": 128.75,
      "duration": 0.625,
      "velocity": 0.71
    },
    {
      "id": "n-03091",
      "pitch": "C3",
      "midi": 48,
      "start": 128.75,
      "duration": 0.625,
      "velocity": 0.71
    },
    {
      "id": "n-03092",
      "pitch": "D#3",
      "midi": 51,
      "start": 128.75,
      "duration": 0.625,
      "velocity": 0.71
    },
    {
      "id": "n-03093",
      "pitch": "A3",
      "midi": 57,
      "start": 128.75,
      "duration": 0.625,
      "velocity": 0.71
    },
    {
      "id": "n-03094",
      "pitch": "A4",
      "midi": 69,
      "start": 128.75,
      "duration": 0.625,
      "velocity": 0.71
    },
    {
      "id": "n-03095",
      "pitch": "C4",
      "midi": 60,
      "start": 129.375,
      "duration": 0.625,
      "velocity": 0.71
    },
    {
      "id": "n-03096",
      "pitch": "D#4",
      "midi": 63,
      "start": 129.375,
      "duration": 0.625,
      "velocity": 0.71
    },
    {
      "id": "n-03097",
      "pitch": "F4",
      "midi": 65,
      "start": 129.375,
      "duration": 0.625,
      "velocity": 0.71
    },
    {
      "id": "n-03098",
      "pitch": "A4",
      "midi": 69,
      "start": 129.375,
      "duration": 0.625,
      "velocity": 0.71
    },
    {
      "id": "n-03099",
      "pitch": "D#5",
      "midi": 75,
      "start": 129.375,
      "duration": 0.625,
      "velocity": 0.71
    },
    {
      "id": "n-03100",
      "pitch": "A5",
      "midi": 81,
      "start": 129.375,
      "duration": 0.625,
      "velocity": 0.71
    },
    {
      "id": "n-03101",
      "pitch": "A5",
      "midi": 81,
      "start": 129.375,
      "duration": 0.625,
      "velocity": 0.71
    },
    {
      "id": "n-03102",
      "pitch": "C#4",
      "midi": 61,
      "start": 130,
      "duration": 0.625,
      "velocity": 0.71
    },
    {
      "id": "n-03103",
      "pitch": "F4",
      "midi": 65,
      "start": 130,
      "duration": 0.625,
      "velocity": 0.71
    },
    {
      "id": "n-03104",
      "pitch": "F4",
      "midi": 65,
      "start": 130,
      "duration": 0.625,
      "velocity": 0.71
    },
    {
      "id": "n-03105",
      "pitch": "A#4",
      "midi": 70,
      "start": 130,
      "duration": 0.625,
      "velocity": 0.71
    },
    {
      "id": "n-03106",
      "pitch": "C#5",
      "midi": 73,
      "start": 130,
      "duration": 0.625,
      "velocity": 0.71
    },
    {
      "id": "n-03107",
      "pitch": "A#5",
      "midi": 82,
      "start": 130,
      "duration": 0.625,
      "velocity": 0.71
    },
    {
      "id": "n-03108",
      "pitch": "A#5",
      "midi": 82,
      "start": 130,
      "duration": 0.625,
      "velocity": 0.71
    },
    {
      "id": "n-03109",
      "pitch": "C#3",
      "midi": 49,
      "start": 130.625,
      "duration": 0.625,
      "velocity": 0.71
    },
    {
      "id": "n-03110",
      "pitch": "C#3",
      "midi": 49,
      "start": 130.625,
      "duration": 0.625,
      "velocity": 0.71
    },
    {
      "id": "n-03111",
      "pitch": "F3",
      "midi": 53,
      "start": 130.625,
      "duration": 0.625,
      "velocity": 0.71
    },
    {
      "id": "n-03112",
      "pitch": "F4",
      "midi": 65,
      "start": 130.625,
      "duration": 0.625,
      "velocity": 0.71
    },
    {
      "id": "n-03113",
      "pitch": "A#4",
      "midi": 70,
      "start": 130.625,
      "duration": 0.625,
      "velocity": 0.71
    },
    {
      "id": "n-03114",
      "pitch": "D#4",
      "midi": 63,
      "start": 131.25,
      "duration": 0.625,
      "velocity": 0.71
    },
    {
      "id": "n-03115",
      "pitch": "F#4",
      "midi": 66,
      "start": 131.25,
      "duration": 0.625,
      "velocity": 0.71
    },
    {
      "id": "n-03116",
      "pitch": "B4",
      "midi": 71,
      "start": 131.25,
      "duration": 0.625,
      "velocity": 0.71
    },
    {
      "id": "n-03117",
      "pitch": "B5",
      "midi": 83,
      "start": 131.25,
      "duration": 0.625,
      "velocity": 0.71
    },
    {
      "id": "n-03118",
      "pitch": "D#3",
      "midi": 51,
      "start": 131.875,
      "duration": 0.625,
      "velocity": 0.71
    },
    {
      "id": "n-03119",
      "pitch": "D#3",
      "midi": 51,
      "start": 131.875,
      "duration": 0.625,
      "velocity": 0.71
    },
    {
      "id": "n-03120",
      "pitch": "F#3",
      "midi": 54,
      "start": 131.875,
      "duration": 0.625,
      "velocity": 0.71
    },
    {
      "id": "n-03121",
      "pitch": "B3",
      "midi": 59,
      "start": 131.875,
      "duration": 0.625,
      "velocity": 0.71
    },
    {
      "id": "n-03122",
      "pitch": "B4",
      "midi": 71,
      "start": 131.875,
      "duration": 0.625,
      "velocity": 0.71
    },
    {
      "id": "n-03123",
      "pitch": "F4",
      "midi": 65,
      "start": 132.5,
      "duration": 0.625,
      "velocity": 0.71
    },
    {
      "id": "n-03124",
      "pitch": "G#4",
      "midi": 68,
      "start": 132.5,
      "duration": 0.625,
      "velocity": 0.71
    },
    {
      "id": "n-03125",
      "pitch": "G#4",
      "midi": 68,
      "start": 132.5,
      "duration": 0.625,
      "velocity": 0.71
    },
    {
      "id": "n-03126",
      "pitch": "C#5",
      "midi": 73,
      "start": 132.5,
      "duration": 0.625,
      "velocity": 0.71
    },
    {
      "id": "n-03127",
      "pitch": "C#6",
      "midi": 85,
      "start": 132.5,
      "duration": 0.625,
      "velocity": 0.71
    },
    {
      "id": "n-03128",
      "pitch": "F3",
      "midi": 53,
      "start": 133.125,
      "duration": 0.625,
      "velocity": 0.71
    },
    {
      "id": "n-03129",
      "pitch": "F3",
      "midi": 53,
      "start": 133.125,
      "duration": 0.625,
      "velocity": 0.71
    },
    {
      "id": "n-03130",
      "pitch": "F3",
      "midi": 53,
      "start": 133.125,
      "duration": 0.625,
      "velocity": 0.71
    },
    {
      "id": "n-03131",
      "pitch": "G#3",
      "midi": 56,
      "start": 133.125,
      "duration": 0.625,
      "velocity": 0.71
    },
    {
      "id": "n-03132",
      "pitch": "C#5",
      "midi": 73,
      "start": 133.125,
      "duration": 0.625,
      "velocity": 0.71
    },
    {
      "id": "n-03133",
      "pitch": "F#4",
      "midi": 66,
      "start": 133.75,
      "duration": 0.625,
      "velocity": 0.71
    },
    {
      "id": "n-03134",
      "pitch": "A4",
      "midi": 69,
      "start": 133.75,
      "duration": 0.625,
      "velocity": 0.71
    },
    {
      "id": "n-03135",
      "pitch": "A4",
      "midi": 69,
      "start": 133.75,
      "duration": 0.625,
      "velocity": 0.71
    },
    {
      "id": "n-03136",
      "pitch": "C#5",
      "midi": 73,
      "start": 133.75,
      "duration": 0.625,
      "velocity": 0.71
    },
    {
      "id": "n-03137",
      "pitch": "C#6",
      "midi": 85,
      "start": 133.75,
      "duration": 0.625,
      "velocity": 0.71
    },
    {
      "id": "n-03138",
      "pitch": "F#2",
      "midi": 42,
      "start": 134.375,
      "duration": 0.625,
      "velocity": 0.71
    },
    {
      "id": "n-03139",
      "pitch": "F#2",
      "midi": 42,
      "start": 134.375,
      "duration": 0.625,
      "velocity": 0.71
    },
    {
      "id": "n-03140",
      "pitch": "F#3",
      "midi": 54,
      "start": 134.375,
      "duration": 0.625,
      "velocity": 0.71
    },
    {
      "id": "n-03141",
      "pitch": "A3",
      "midi": 57,
      "start": 134.375,
      "duration": 0.625,
      "velocity": 0.71
    },
    {
      "id": "n-03142",
      "pitch": "C#4",
      "midi": 61,
      "start": 134.375,
      "duration": 0.625,
      "velocity": 0.71
    },
    {
      "id": "n-03143",
      "pitch": "F#4",
      "midi": 66,
      "start": 135,
      "duration": 0.625,
      "velocity": 0.71
    },
    {
      "id": "n-03144",
      "pitch": "A4",
      "midi": 69,
      "start": 135,
      "duration": 0.625,
      "velocity": 0.71
    },
    {
      "id": "n-03145",
      "pitch": "A4",
      "midi": 69,
      "start": 135,
      "duration": 0.625,
      "velocity": 0.71
    },
    {
      "id": "n-03146",
      "pitch": "C#5",
      "midi": 73,
      "start": 135,
      "duration": 0.625,
      "velocity": 0.71
    },
    {
      "id": "n-03147",
      "pitch": "A5",
      "midi": 81,
      "start": 135,
      "duration": 0.625,
      "velocity": 0.71
    },
    {
      "id": "n-03148",
      "pitch": "C#6",
      "midi": 85,
      "start": 135,
      "duration": 0.625,
      "velocity": 0.71
    },
    {
      "id": "n-03149",
      "pitch": "F#2",
      "midi": 42,
      "start": 135.625,
      "duration": 0.625,
      "velocity": 0.71
    },
    {
      "id": "n-03150",
      "pitch": "F#2",
      "midi": 42,
      "start": 135.625,
      "duration": 0.625,
      "velocity": 0.71
    },
    {
      "id": "n-03151",
      "pitch": "F#3",
      "midi": 54,
      "start": 135.625,
      "duration": 0.625,
      "velocity": 0.71
    },
    {
      "id": "n-03152",
      "pitch": "A3",
      "midi": 57,
      "start": 135.625,
      "duration": 0.625,
      "velocity": 0.71
    },
    {
      "id": "n-03153",
      "pitch": "C#4",
      "midi": 61,
      "start": 135.625,
      "duration": 0.625,
      "velocity": 0.71
    },
    {
      "id": "n-03154",
      "pitch": "F#4",
      "midi": 66,
      "start": 136.25,
      "duration": 0.625,
      "velocity": 0.71
    },
    {
      "id": "n-03155",
      "pitch": "A4",
      "midi": 69,
      "start": 136.25,
      "duration": 0.625,
      "velocity": 0.71
    },
    {
      "id": "n-03156",
      "pitch": "A4",
      "midi": 69,
      "start": 136.25,
      "duration": 0.625,
      "velocity": 0.71
    },
    {
      "id": "n-03157",
      "pitch": "C#5",
      "midi": 73,
      "start": 136.25,
      "duration": 0.625,
      "velocity": 0.71
    },
    {
      "id": "n-03158",
      "pitch": "A5",
      "midi": 81,
      "start": 136.25,
      "duration": 0.625,
      "velocity": 0.71
    },
    {
      "id": "n-03159",
      "pitch": "C#6",
      "midi": 85,
      "start": 136.25,
      "duration": 0.625,
      "velocity": 0.71
    },
    {
      "id": "n-03160",
      "pitch": "F#2",
      "midi": 42,
      "start": 136.875,
      "duration": 0.625,
      "velocity": 0.71
    },
    {
      "id": "n-03161",
      "pitch": "F#2",
      "midi": 42,
      "start": 136.875,
      "duration": 0.625,
      "velocity": 0.71
    },
    {
      "id": "n-03162",
      "pitch": "F#3",
      "midi": 54,
      "start": 136.875,
      "duration": 0.625,
      "velocity": 0.71
    },
    {
      "id": "n-03163",
      "pitch": "A3",
      "midi": 57,
      "start": 136.875,
      "duration": 0.625,
      "velocity": 0.71
    },
    {
      "id": "n-03164",
      "pitch": "C#4",
      "midi": 61,
      "start": 136.875,
      "duration": 0.625,
      "velocity": 0.71
    },
    {
      "id": "n-03165",
      "pitch": "F#4",
      "midi": 66,
      "start": 137.5,
      "duration": 0.625,
      "velocity": 0.71
    },
    {
      "id": "n-03166",
      "pitch": "A4",
      "midi": 69,
      "start": 137.5,
      "duration": 0.625,
      "velocity": 0.71
    },
    {
      "id": "n-03167",
      "pitch": "A4",
      "midi": 69,
      "start": 137.5,
      "duration": 0.625,
      "velocity": 0.71
    },
    {
      "id": "n-03168",
      "pitch": "D5",
      "midi": 74,
      "start": 137.5,
      "duration": 0.625,
      "velocity": 0.71
    },
    {
      "id": "n-03169",
      "pitch": "A5",
      "midi": 81,
      "start": 137.5,
      "duration": 0.625,
      "velocity": 0.71
    },
    {
      "id": "n-03170",
      "pitch": "D6",
      "midi": 86,
      "start": 137.5,
      "duration": 0.625,
      "velocity": 0.71
    },
    {
      "id": "n-03171",
      "pitch": "F#2",
      "midi": 42,
      "start": 138.125,
      "duration": 0.625,
      "velocity": 0.71
    },
    {
      "id": "n-03172",
      "pitch": "F#2",
      "midi": 42,
      "start": 138.125,
      "duration": 0.625,
      "velocity": 0.71
    },
    {
      "id": "n-03173",
      "pitch": "D3",
      "midi": 50,
      "start": 138.125,
      "duration": 0.625,
      "velocity": 0.71
    },
    {
      "id": "n-03174",
      "pitch": "A3",
      "midi": 57,
      "start": 138.125,
      "duration": 0.625,
      "velocity": 0.71
    },
    {
      "id": "n-03175",
      "pitch": "D4",
      "midi": 62,
      "start": 138.125,
      "duration": 0.625,
      "velocity": 0.71
    },
    {
      "id": "n-03176",
      "pitch": "F#4",
      "midi": 66,
      "start": 138.75,
      "duration": 0.625,
      "velocity": 0.71
    },
    {
      "id": "n-03177",
      "pitch": "A4",
      "midi": 69,
      "start": 138.75,
      "duration": 0.625,
      "velocity": 0.71
    },
    {
      "id": "n-03178",
      "pitch": "A4",
      "midi": 69,
      "start": 138.75,
      "duration": 0.625,
      "velocity": 0.71
    },
    {
      "id": "n-03179",
      "pitch": "D5",
      "midi": 74,
      "start": 138.75,
      "duration": 0.625,
      "velocity": 0.71
    },
    {
      "id": "n-03180",
      "pitch": "A5",
      "midi": 81,
      "start": 138.75,
      "duration": 0.625,
      "velocity": 0.71
    },
    {
      "id": "n-03181",
      "pitch": "D6",
      "midi": 86,
      "start": 138.75,
      "duration": 0.625,
      "velocity": 0.71
    },
    {
      "id": "n-03182",
      "pitch": "F#2",
      "midi": 42,
      "start": 139.375,
      "duration": 0.625,
      "velocity": 0.71
    },
    {
      "id": "n-03183",
      "pitch": "F#2",
      "midi": 42,
      "start": 139.375,
      "duration": 0.625,
      "velocity": 0.71
    },
    {
      "id": "n-03184",
      "pitch": "D3",
      "midi": 50,
      "start": 139.375,
      "duration": 0.625,
      "velocity": 0.71
    },
    {
      "id": "n-03185",
      "pitch": "A3",
      "midi": 57,
      "start": 139.375,
      "duration": 0.625,
      "velocity": 0.71
    },
    {
      "id": "n-03186",
      "pitch": "D4",
      "midi": 62,
      "start": 139.375,
      "duration": 0.625,
      "velocity": 0.71
    },
    {
      "id": "n-03187",
      "pitch": "F#4",
      "midi": 66,
      "start": 140,
      "duration": 0.625,
      "velocity": 0.71
    },
    {
      "id": "n-03188",
      "pitch": "A4",
      "midi": 69,
      "start": 140,
      "duration": 0.625,
      "velocity": 0.71
    },
    {
      "id": "n-03189",
      "pitch": "A4",
      "midi": 69,
      "start": 140,
      "duration": 0.625,
      "velocity": 0.71
    },
    {
      "id": "n-03190",
      "pitch": "D5",
      "midi": 74,
      "start": 140,
      "duration": 0.625,
      "velocity": 0.71
    },
    {
      "id": "n-03191",
      "pitch": "A5",
      "midi": 81,
      "start": 140,
      "duration": 0.625,
      "velocity": 0.71
    },
    {
      "id": "n-03192",
      "pitch": "D6",
      "midi": 86,
      "start": 140,
      "duration": 0.625,
      "velocity": 0.71
    },
    {
      "id": "n-03193",
      "pitch": "F#2",
      "midi": 42,
      "start": 140.625,
      "duration": 0.625,
      "velocity": 0.71
    },
    {
      "id": "n-03194",
      "pitch": "F#2",
      "midi": 42,
      "start": 140.625,
      "duration": 0.625,
      "velocity": 0.71
    },
    {
      "id": "n-03195",
      "pitch": "D3",
      "midi": 50,
      "start": 140.625,
      "duration": 0.625,
      "velocity": 0.71
    },
    {
      "id": "n-03196",
      "pitch": "A3",
      "midi": 57,
      "start": 140.625,
      "duration": 0.625,
      "velocity": 0.71
    },
    {
      "id": "n-03197",
      "pitch": "D4",
      "midi": 62,
      "start": 140.625,
      "duration": 0.625,
      "velocity": 0.71
    },
    {
      "id": "n-03198",
      "pitch": "F#4",
      "midi": 66,
      "start": 141.25,
      "duration": 0.625,
      "velocity": 0.71
    },
    {
      "id": "n-03199",
      "pitch": "A4",
      "midi": 69,
      "start": 141.25,
      "duration": 0.625,
      "velocity": 0.71
    },
    {
      "id": "n-03200",
      "pitch": "A4",
      "midi": 69,
      "start": 141.25,
      "duration": 0.625,
      "velocity": 0.71
    },
    {
      "id": "n-03201",
      "pitch": "D5",
      "midi": 74,
      "start": 141.25,
      "duration": 0.625,
      "velocity": 0.71
    },
    {
      "id": "n-03202",
      "pitch": "A5",
      "midi": 81,
      "start": 141.25,
      "duration": 0.625,
      "velocity": 0.71
    },
    {
      "id": "n-03203",
      "pitch": "D6",
      "midi": 86,
      "start": 141.25,
      "duration": 0.625,
      "velocity": 0.71
    },
    {
      "id": "n-03204",
      "pitch": "F#2",
      "midi": 42,
      "start": 141.875,
      "duration": 0.156,
      "velocity": 0.71
    },
    {
      "id": "n-03205",
      "pitch": "F#2",
      "midi": 42,
      "start": 141.875,
      "duration": 0.156,
      "velocity": 0.71
    },
    {
      "id": "n-03206",
      "pitch": "D3",
      "midi": 50,
      "start": 141.875,
      "duration": 0.156,
      "velocity": 0.71
    },
    {
      "id": "n-03207",
      "pitch": "A3",
      "midi": 57,
      "start": 141.875,
      "duration": 0.156,
      "velocity": 0.71
    },
    {
      "id": "n-03208",
      "pitch": "D4",
      "midi": 62,
      "start": 141.875,
      "duration": 0.156,
      "velocity": 0.71
    },
    {
      "id": "n-03209",
      "pitch": "D3",
      "midi": 50,
      "start": 142.031,
      "duration": 0.156,
      "velocity": 0.71
    },
    {
      "id": "n-03210",
      "pitch": "D3",
      "midi": 50,
      "start": 142.031,
      "duration": 0.156,
      "velocity": 0.71
    },
    {
      "id": "n-03211",
      "pitch": "D3",
      "midi": 50,
      "start": 142.031,
      "duration": 0.156,
      "velocity": 0.71
    },
    {
      "id": "n-03212",
      "pitch": "D3",
      "midi": 50,
      "start": 142.031,
      "duration": 0.156,
      "velocity": 0.71
    },
    {
      "id": "n-03213",
      "pitch": "D4",
      "midi": 62,
      "start": 142.031,
      "duration": 0.156,
      "velocity": 0.71
    },
    {
      "id": "n-03214",
      "pitch": "D4",
      "midi": 62,
      "start": 142.031,
      "duration": 0.156,
      "velocity": 0.71
    },
    {
      "id": "n-03215",
      "pitch": "D4",
      "midi": 62,
      "start": 142.031,
      "duration": 0.156,
      "velocity": 0.71
    },
    {
      "id": "n-03216",
      "pitch": "D5",
      "midi": 74,
      "start": 142.031,
      "duration": 0.156,
      "velocity": 0.71
    },
    {
      "id": "n-03217",
      "pitch": "D5",
      "midi": 74,
      "start": 142.031,
      "duration": 0.156,
      "velocity": 0.71
    },
    {
      "id": "n-03218",
      "pitch": "D5",
      "midi": 74,
      "start": 142.031,
      "duration": 0.156,
      "velocity": 0.71
    },
    {
      "id": "n-03219",
      "pitch": "D5",
      "midi": 74,
      "start": 142.031,
      "duration": 0.156,
      "velocity": 0.71
    },
    {
      "id": "n-03220",
      "pitch": "D6",
      "midi": 86,
      "start": 142.031,
      "duration": 0.156,
      "velocity": 0.71
    },
    {
      "id": "n-03221",
      "pitch": "D6",
      "midi": 86,
      "start": 142.031,
      "duration": 0.156,
      "velocity": 0.71
    },
    {
      "id": "n-03222",
      "pitch": "D3",
      "midi": 50,
      "start": 142.188,
      "duration": 0.156,
      "velocity": 0.71
    },
    {
      "id": "n-03223",
      "pitch": "D3",
      "midi": 50,
      "start": 142.188,
      "duration": 0.156,
      "velocity": 0.71
    },
    {
      "id": "n-03224",
      "pitch": "D3",
      "midi": 50,
      "start": 142.188,
      "duration": 0.156,
      "velocity": 0.71
    },
    {
      "id": "n-03225",
      "pitch": "D3",
      "midi": 50,
      "start": 142.188,
      "duration": 0.156,
      "velocity": 0.71
    },
    {
      "id": "n-03226",
      "pitch": "D4",
      "midi": 62,
      "start": 142.188,
      "duration": 0.156,
      "velocity": 0.71
    },
    {
      "id": "n-03227",
      "pitch": "D4",
      "midi": 62,
      "start": 142.188,
      "duration": 0.156,
      "velocity": 0.71
    },
    {
      "id": "n-03228",
      "pitch": "D4",
      "midi": 62,
      "start": 142.188,
      "duration": 0.156,
      "velocity": 0.71
    },
    {
      "id": "n-03229",
      "pitch": "D5",
      "midi": 74,
      "start": 142.188,
      "duration": 0.156,
      "velocity": 0.71
    },
    {
      "id": "n-03230",
      "pitch": "D5",
      "midi": 74,
      "start": 142.188,
      "duration": 0.156,
      "velocity": 0.71
    },
    {
      "id": "n-03231",
      "pitch": "D5",
      "midi": 74,
      "start": 142.188,
      "duration": 0.156,
      "velocity": 0.71
    },
    {
      "id": "n-03232",
      "pitch": "D5",
      "midi": 74,
      "start": 142.188,
      "duration": 0.156,
      "velocity": 0.71
    },
    {
      "id": "n-03233",
      "pitch": "D6",
      "midi": 86,
      "start": 142.188,
      "duration": 0.156,
      "velocity": 0.71
    },
    {
      "id": "n-03234",
      "pitch": "D6",
      "midi": 86,
      "start": 142.188,
      "duration": 0.156,
      "velocity": 0.71
    },
    {
      "id": "n-03235",
      "pitch": "D3",
      "midi": 50,
      "start": 142.344,
      "duration": 0.156,
      "velocity": 0.71
    },
    {
      "id": "n-03236",
      "pitch": "D3",
      "midi": 50,
      "start": 142.344,
      "duration": 0.156,
      "velocity": 0.71
    },
    {
      "id": "n-03237",
      "pitch": "D3",
      "midi": 50,
      "start": 142.344,
      "duration": 0.156,
      "velocity": 0.71
    },
    {
      "id": "n-03238",
      "pitch": "D3",
      "midi": 50,
      "start": 142.344,
      "duration": 0.156,
      "velocity": 0.71
    },
    {
      "id": "n-03239",
      "pitch": "D4",
      "midi": 62,
      "start": 142.344,
      "duration": 0.156,
      "velocity": 0.71
    },
    {
      "id": "n-03240",
      "pitch": "D4",
      "midi": 62,
      "start": 142.344,
      "duration": 0.156,
      "velocity": 0.71
    },
    {
      "id": "n-03241",
      "pitch": "D4",
      "midi": 62,
      "start": 142.344,
      "duration": 0.156,
      "velocity": 0.71
    },
    {
      "id": "n-03242",
      "pitch": "D5",
      "midi": 74,
      "start": 142.344,
      "duration": 0.156,
      "velocity": 0.71
    },
    {
      "id": "n-03243",
      "pitch": "D5",
      "midi": 74,
      "start": 142.344,
      "duration": 0.156,
      "velocity": 0.71
    },
    {
      "id": "n-03244",
      "pitch": "D5",
      "midi": 74,
      "start": 142.344,
      "duration": 0.156,
      "velocity": 0.71
    },
    {
      "id": "n-03245",
      "pitch": "D5",
      "midi": 74,
      "start": 142.344,
      "duration": 0.156,
      "velocity": 0.71
    },
    {
      "id": "n-03246",
      "pitch": "D6",
      "midi": 86,
      "start": 142.344,
      "duration": 0.156,
      "velocity": 0.71
    },
    {
      "id": "n-03247",
      "pitch": "D6",
      "midi": 86,
      "start": 142.344,
      "duration": 0.156,
      "velocity": 0.71
    },
    {
      "id": "n-03248",
      "pitch": "B2",
      "midi": 47,
      "start": 142.5,
      "duration": 0.625,
      "velocity": 0.71
    },
    {
      "id": "n-03249",
      "pitch": "B2",
      "midi": 47,
      "start": 142.5,
      "duration": 0.625,
      "velocity": 0.71
    },
    {
      "id": "n-03250",
      "pitch": "B2",
      "midi": 47,
      "start": 142.5,
      "duration": 0.625,
      "velocity": 0.71
    },
    {
      "id": "n-03251",
      "pitch": "D3",
      "midi": 50,
      "start": 142.5,
      "duration": 0.625,
      "velocity": 0.71
    },
    {
      "id": "n-03252",
      "pitch": "B3",
      "midi": 59,
      "start": 142.5,
      "duration": 0.625,
      "velocity": 0.71
    },
    {
      "id": "n-03253",
      "pitch": "B3",
      "midi": 59,
      "start": 142.5,
      "duration": 0.625,
      "velocity": 0.71
    },
    {
      "id": "n-03254",
      "pitch": "D4",
      "midi": 62,
      "start": 142.5,
      "duration": 0.625,
      "velocity": 0.71
    },
    {
      "id": "n-03255",
      "pitch": "B4",
      "midi": 71,
      "start": 142.5,
      "duration": 0.625,
      "velocity": 0.71
    },
    {
      "id": "n-03256",
      "pitch": "B4",
      "midi": 71,
      "start": 142.5,
      "duration": 0.625,
      "velocity": 0.71
    },
    {
      "id": "n-03257",
      "pitch": "B4",
      "midi": 71,
      "start": 142.5,
      "duration": 0.625,
      "velocity": 0.71
    },
    {
      "id": "n-03258",
      "pitch": "D5",
      "midi": 74,
      "start": 142.5,
      "duration": 0.625,
      "velocity": 0.71
    },
    {
      "id": "n-03259",
      "pitch": "B5",
      "midi": 83,
      "start": 142.5,
      "duration": 0.625,
      "velocity": 0.71
    },
    {
      "id": "n-03260",
      "pitch": "B5",
      "midi": 83,
      "start": 142.5,
      "duration": 0.625,
      "velocity": 0.71
    },
    {
      "id": "n-03261",
      "pitch": "D6",
      "midi": 86,
      "start": 142.5,
      "duration": 0.625,
      "velocity": 0.71
    },
    {
      "id": "n-03262",
      "pitch": "C3",
      "midi": 48,
      "start": 143.125,
      "duration": 0.625,
      "velocity": 0.71
    },
    {
      "id": "n-03263",
      "pitch": "C3",
      "midi": 48,
      "start": 143.125,
      "duration": 0.625,
      "velocity": 0.71
    },
    {
      "id": "n-03264",
      "pitch": "C3",
      "midi": 48,
      "start": 143.125,
      "duration": 0.625,
      "velocity": 0.71
    },
    {
      "id": "n-03265",
      "pitch": "D3",
      "midi": 50,
      "start": 143.125,
      "duration": 0.625,
      "velocity": 0.71
    },
    {
      "id": "n-03266",
      "pitch": "C4",
      "midi": 60,
      "start": 143.125,
      "duration": 0.625,
      "velocity": 0.71
    },
    {
      "id": "n-03267",
      "pitch": "C4",
      "midi": 60,
      "start": 143.125,
      "duration": 0.625,
      "velocity": 0.71
    },
    {
      "id": "n-03268",
      "pitch": "D4",
      "midi": 62,
      "start": 143.125,
      "duration": 0.625,
      "velocity": 0.71
    },
    {
      "id": "n-03269",
      "pitch": "C5",
      "midi": 72,
      "start": 143.125,
      "duration": 0.625,
      "velocity": 0.71
    },
    {
      "id": "n-03270",
      "pitch": "C5",
      "midi": 72,
      "start": 143.125,
      "duration": 0.625,
      "velocity": 0.71
    },
    {
      "id": "n-03271",
      "pitch": "C5",
      "midi": 72,
      "start": 143.125,
      "duration": 0.625,
      "velocity": 0.71
    },
    {
      "id": "n-03272",
      "pitch": "D5",
      "midi": 74,
      "start": 143.125,
      "duration": 0.625,
      "velocity": 0.71
    },
    {
      "id": "n-03273",
      "pitch": "C6",
      "midi": 84,
      "start": 143.125,
      "duration": 0.625,
      "velocity": 0.71
    },
    {
      "id": "n-03274",
      "pitch": "C6",
      "midi": 84,
      "start": 143.125,
      "duration": 0.625,
      "velocity": 0.71
    },
    {
      "id": "n-03275",
      "pitch": "D6",
      "midi": 86,
      "start": 143.125,
      "duration": 0.625,
      "velocity": 0.71
    },
    {
      "id": "n-03276",
      "pitch": "A2",
      "midi": 45,
      "start": 143.75,
      "duration": 1.25,
      "velocity": 0.71
    },
    {
      "id": "n-03277",
      "pitch": "A2",
      "midi": 45,
      "start": 143.75,
      "duration": 1.25,
      "velocity": 0.71
    },
    {
      "id": "n-03278",
      "pitch": "A2",
      "midi": 45,
      "start": 143.75,
      "duration": 1.25,
      "velocity": 0.71
    },
    {
      "id": "n-03279",
      "pitch": "D3",
      "midi": 50,
      "start": 143.75,
      "duration": 1.25,
      "velocity": 0.71
    },
    {
      "id": "n-03280",
      "pitch": "A3",
      "midi": 57,
      "start": 143.75,
      "duration": 1.25,
      "velocity": 0.71
    },
    {
      "id": "n-03281",
      "pitch": "A3",
      "midi": 57,
      "start": 143.75,
      "duration": 1.25,
      "velocity": 0.71
    },
    {
      "id": "n-03282",
      "pitch": "D4",
      "midi": 62,
      "start": 143.75,
      "duration": 1.25,
      "velocity": 0.71
    },
    {
      "id": "n-03283",
      "pitch": "A4",
      "midi": 69,
      "start": 143.75,
      "duration": 1.25,
      "velocity": 0.71
    },
    {
      "id": "n-03284",
      "pitch": "A4",
      "midi": 69,
      "start": 143.75,
      "duration": 1.25,
      "velocity": 0.71
    },
    {
      "id": "n-03285",
      "pitch": "A4",
      "midi": 69,
      "start": 143.75,
      "duration": 1.25,
      "velocity": 0.71
    },
    {
      "id": "n-03286",
      "pitch": "D5",
      "midi": 74,
      "start": 143.75,
      "duration": 1.25,
      "velocity": 0.71
    },
    {
      "id": "n-03287",
      "pitch": "A5",
      "midi": 81,
      "start": 143.75,
      "duration": 1.25,
      "velocity": 0.71
    },
    {
      "id": "n-03288",
      "pitch": "A5",
      "midi": 81,
      "start": 143.75,
      "duration": 1.25,
      "velocity": 0.71
    },
    {
      "id": "n-03289",
      "pitch": "D6",
      "midi": 86,
      "start": 143.75,
      "duration": 1.25,
      "velocity": 0.71
    },
    {
      "id": "n-03290",
      "pitch": "B3",
      "midi": 59,
      "start": 145,
      "duration": 0.625,
      "velocity": 0.71
    },
    {
      "id": "n-03291",
      "pitch": "F4",
      "midi": 65,
      "start": 145,
      "duration": 0.625,
      "velocity": 0.71
    },
    {
      "id": "n-03292",
      "pitch": "G#4",
      "midi": 68,
      "start": 145,
      "duration": 0.625,
      "velocity": 0.71
    },
    {
      "id": "n-03293",
      "pitch": "D5",
      "midi": 74,
      "start": 145,
      "duration": 0.625,
      "velocity": 0.71
    },
    {
      "id": "n-03294",
      "pitch": "G#5",
      "midi": 80,
      "start": 145,
      "duration": 0.625,
      "velocity": 0.71
    },
    {
      "id": "n-03295",
      "pitch": "D6",
      "midi": 86,
      "start": 145,
      "duration": 0.625,
      "velocity": 0.71
    },
    {
      "id": "n-03296",
      "pitch": "B2",
      "midi": 47,
      "start": 145.625,
      "duration": 0.625,
      "velocity": 0.71
    },
    {
      "id": "n-03297",
      "pitch": "B2",
      "midi": 47,
      "start": 145.625,
      "duration": 0.625,
      "velocity": 0.71
    },
    {
      "id": "n-03298",
      "pitch": "F3",
      "midi": 53,
      "start": 145.625,
      "duration": 0.625,
      "velocity": 0.71
    },
    {
      "id": "n-03299",
      "pitch": "G#3",
      "midi": 56,
      "start": 145.625,
      "duration": 0.625,
      "velocity": 0.71
    },
    {
      "id": "n-03300",
      "pitch": "D4",
      "midi": 62,
      "start": 145.625,
      "duration": 0.625,
      "velocity": 0.71
    },
    {
      "id": "n-03301",
      "pitch": "F4",
      "midi": 65,
      "start": 145.625,
      "duration": 0.625,
      "velocity": 0.71
    },
    {
      "id": "n-03302",
      "pitch": "G#4",
      "midi": 68,
      "start": 145.625,
      "duration": 0.625,
      "velocity": 0.71
    },
    {
      "id": "n-03303",
      "pitch": "B3",
      "midi": 59,
      "start": 146.25,
      "duration": 0.625,
      "velocity": 0.71
    },
    {
      "id": "n-03304",
      "pitch": "F4",
      "midi": 65,
      "start": 146.25,
      "duration": 0.625,
      "velocity": 0.71
    },
    {
      "id": "n-03305",
      "pitch": "G#4",
      "midi": 68,
      "start": 146.25,
      "duration": 0.625,
      "velocity": 0.71
    },
    {
      "id": "n-03306",
      "pitch": "D5",
      "midi": 74,
      "start": 146.25,
      "duration": 0.625,
      "velocity": 0.71
    },
    {
      "id": "n-03307",
      "pitch": "G#5",
      "midi": 80,
      "start": 146.25,
      "duration": 0.625,
      "velocity": 0.71
    },
    {
      "id": "n-03308",
      "pitch": "D6",
      "midi": 86,
      "start": 146.25,
      "duration": 0.625,
      "velocity": 0.71
    },
    {
      "id": "n-03309",
      "pitch": "B2",
      "midi": 47,
      "start": 146.875,
      "duration": 0.625,
      "velocity": 0.71
    },
    {
      "id": "n-03310",
      "pitch": "B2",
      "midi": 47,
      "start": 146.875,
      "duration": 0.625,
      "velocity": 0.71
    },
    {
      "id": "n-03311",
      "pitch": "F3",
      "midi": 53,
      "start": 146.875,
      "duration": 0.625,
      "velocity": 0.71
    },
    {
      "id": "n-03312",
      "pitch": "G#3",
      "midi": 56,
      "start": 146.875,
      "duration": 0.625,
      "velocity": 0.71
    },
    {
      "id": "n-03313",
      "pitch": "D4",
      "midi": 62,
      "start": 146.875,
      "duration": 0.625,
      "velocity": 0.71
    },
    {
      "id": "n-03314",
      "pitch": "F4",
      "midi": 65,
      "start": 146.875,
      "duration": 0.625,
      "velocity": 0.71
    },
    {
      "id": "n-03315",
      "pitch": "G#4",
      "midi": 68,
      "start": 146.875,
      "duration": 0.625,
      "velocity": 0.71
    },
    {
      "id": "n-03316",
      "pitch": "B3",
      "midi": 59,
      "start": 147.5,
      "duration": 0.625,
      "velocity": 0.71
    },
    {
      "id": "n-03317",
      "pitch": "F4",
      "midi": 65,
      "start": 147.5,
      "duration": 0.625,
      "velocity": 0.71
    },
    {
      "id": "n-03318",
      "pitch": "G#4",
      "midi": 68,
      "start": 147.5,
      "duration": 0.625,
      "velocity": 0.71
    },
    {
      "id": "n-03319",
      "pitch": "D5",
      "midi": 74,
      "start": 147.5,
      "duration": 0.625,
      "velocity": 0.71
    },
    {
      "id": "n-03320",
      "pitch": "G#5",
      "midi": 80,
      "start": 147.5,
      "duration": 0.625,
      "velocity": 0.71
    },
    {
      "id": "n-03321",
      "pitch": "D6",
      "midi": 86,
      "start": 147.5,
      "duration": 0.625,
      "velocity": 0.71
    },
    {
      "id": "n-03322",
      "pitch": "B2",
      "midi": 47,
      "start": 148.125,
      "duration": 0.625,
      "velocity": 0.71
    },
    {
      "id": "n-03323",
      "pitch": "B2",
      "midi": 47,
      "start": 148.125,
      "duration": 0.625,
      "velocity": 0.71
    },
    {
      "id": "n-03324",
      "pitch": "F3",
      "midi": 53,
      "start": 148.125,
      "duration": 0.625,
      "velocity": 0.71
    },
    {
      "id": "n-03325",
      "pitch": "G#3",
      "midi": 56,
      "start": 148.125,
      "duration": 0.625,
      "velocity": 0.71
    },
    {
      "id": "n-03326",
      "pitch": "D4",
      "midi": 62,
      "start": 148.125,
      "duration": 0.625,
      "velocity": 0.71
    },
    {
      "id": "n-03327",
      "pitch": "F4",
      "midi": 65,
      "start": 148.125,
      "duration": 0.625,
      "velocity": 0.71
    },
    {
      "id": "n-03328",
      "pitch": "G#4",
      "midi": 68,
      "start": 148.125,
      "duration": 0.625,
      "velocity": 0.71
    },
    {
      "id": "n-03329",
      "pitch": "B3",
      "midi": 59,
      "start": 148.75,
      "duration": 0.625,
      "velocity": 0.71
    },
    {
      "id": "n-03330",
      "pitch": "F4",
      "midi": 65,
      "start": 148.75,
      "duration": 0.625,
      "velocity": 0.71
    },
    {
      "id": "n-03331",
      "pitch": "G#4",
      "midi": 68,
      "start": 148.75,
      "duration": 0.625,
      "velocity": 0.71
    },
    {
      "id": "n-03332",
      "pitch": "D5",
      "midi": 74,
      "start": 148.75,
      "duration": 0.625,
      "velocity": 0.71
    },
    {
      "id": "n-03333",
      "pitch": "G#5",
      "midi": 80,
      "start": 148.75,
      "duration": 0.625,
      "velocity": 0.71
    },
    {
      "id": "n-03334",
      "pitch": "D6",
      "midi": 86,
      "start": 148.75,
      "duration": 0.625,
      "velocity": 0.71
    },
    {
      "id": "n-03335",
      "pitch": "B2",
      "midi": 47,
      "start": 149.375,
      "duration": 0.156,
      "velocity": 0.71
    },
    {
      "id": "n-03336",
      "pitch": "B2",
      "midi": 47,
      "start": 149.375,
      "duration": 0.156,
      "velocity": 0.71
    },
    {
      "id": "n-03337",
      "pitch": "F3",
      "midi": 53,
      "start": 149.375,
      "duration": 0.313,
      "velocity": 0.71
    },
    {
      "id": "n-03338",
      "pitch": "G#3",
      "midi": 56,
      "start": 149.375,
      "duration": 0.313,
      "velocity": 0.71
    },
    {
      "id": "n-03339",
      "pitch": "D4",
      "midi": 62,
      "start": 149.375,
      "duration": 0.313,
      "velocity": 0.71
    },
    {
      "id": "n-03340",
      "pitch": "G#2",
      "midi": 44,
      "start": 149.531,
      "duration": 0.156,
      "velocity": 0.71
    },
    {
      "id": "n-03341",
      "pitch": "G#2",
      "midi": 44,
      "start": 149.531,
      "duration": 0.156,
      "velocity": 0.71
    },
    {
      "id": "n-03342",
      "pitch": "G#3",
      "midi": 56,
      "start": 149.531,
      "duration": 0.156,
      "velocity": 0.71
    },
    {
      "id": "n-03343",
      "pitch": "G#3",
      "midi": 56,
      "start": 149.531,
      "duration": 0.156,
      "velocity": 0.71
    },
    {
      "id": "n-03344",
      "pitch": "G#4",
      "midi": 68,
      "start": 149.531,
      "duration": 0.156,
      "velocity": 0.71
    },
    {
      "id": "n-03345",
      "pitch": "G#2",
      "midi": 44,
      "start": 149.688,
      "duration": 0.156,
      "velocity": 0.71
    },
    {
      "id": "n-03346",
      "pitch": "G#2",
      "midi": 44,
      "start": 149.688,
      "duration": 0.156,
      "velocity": 0.71
    },
    {
      "id": "n-03347",
      "pitch": "G#3",
      "midi": 56,
      "start": 149.688,
      "duration": 0.156,
      "velocity": 0.71
    },
    {
      "id": "n-03348",
      "pitch": "G#3",
      "midi": 56,
      "start": 149.688,
      "duration": 0.156,
      "velocity": 0.71
    },
    {
      "id": "n-03349",
      "pitch": "G#4",
      "midi": 68,
      "start": 149.688,
      "duration": 0.156,
      "velocity": 0.71
    },
    {
      "id": "n-03350",
      "pitch": "G#2",
      "midi": 44,
      "start": 149.844,
      "duration": 0.156,
      "velocity": 0.71
    },
    {
      "id": "n-03351",
      "pitch": "G#2",
      "midi": 44,
      "start": 149.844,
      "duration": 0.156,
      "velocity": 0.71
    },
    {
      "id": "n-03352",
      "pitch": "G#3",
      "midi": 56,
      "start": 149.844,
      "duration": 0.156,
      "velocity": 0.71
    },
    {
      "id": "n-03353",
      "pitch": "G#3",
      "midi": 56,
      "start": 149.844,
      "duration": 0.156,
      "velocity": 0.71
    },
    {
      "id": "n-03354",
      "pitch": "G#4",
      "midi": 68,
      "start": 149.844,
      "duration": 0.156,
      "velocity": 0.71
    },
    {
      "id": "n-03355",
      "pitch": "F2",
      "midi": 41,
      "start": 150,
      "duration": 0.781,
      "velocity": 0.71
    },
    {
      "id": "n-03356",
      "pitch": "F2",
      "midi": 41,
      "start": 150,
      "duration": 0.781,
      "velocity": 0.71
    },
    {
      "id": "n-03357",
      "pitch": "F3",
      "midi": 53,
      "start": 150,
      "duration": 0.781,
      "velocity": 0.71
    },
    {
      "id": "n-03358",
      "pitch": "F3",
      "midi": 53,
      "start": 150,
      "duration": 0.781,
      "velocity": 0.71
    },
    {
      "id": "n-03359",
      "pitch": "F4",
      "midi": 65,
      "start": 150,
      "duration": 0.781,
      "velocity": 0.71
    },
    {
      "id": "n-03360",
      "pitch": "G#3",
      "midi": 56,
      "start": 150.156,
      "duration": 0.156,
      "velocity": 0.71
    },
    {
      "id": "n-03361",
      "pitch": "G#4",
      "midi": 68,
      "start": 150.156,
      "duration": 0.156,
      "velocity": 0.71
    },
    {
      "id": "n-03362",
      "pitch": "G#4",
      "midi": 68,
      "start": 150.156,
      "duration": 0.156,
      "velocity": 0.71
    },
    {
      "id": "n-03363",
      "pitch": "G#5",
      "midi": 80,
      "start": 150.156,
      "duration": 0.156,
      "velocity": 0.71
    },
    {
      "id": "n-03364",
      "pitch": "G#5",
      "midi": 80,
      "start": 150.156,
      "duration": 0.156,
      "velocity": 0.71
    },
    {
      "id": "n-03365",
      "pitch": "G#5",
      "midi": 80,
      "start": 150.156,
      "duration": 0.156,
      "velocity": 0.71
    },
    {
      "id": "n-03366",
      "pitch": "G#5",
      "midi": 80,
      "start": 150.156,
      "duration": 0.156,
      "velocity": 0.71
    },
    {
      "id": "n-03367",
      "pitch": "G#6",
      "midi": 92,
      "start": 150.156,
      "duration": 0.156,
      "velocity": 0.71
    },
    {
      "id": "n-03368",
      "pitch": "G#3",
      "midi": 56,
      "start": 150.313,
      "duration": 0.156,
      "velocity": 0.71
    },
    {
      "id": "n-03369",
      "pitch": "G#4",
      "midi": 68,
      "start": 150.313,
      "duration": 0.156,
      "velocity": 0.71
    },
    {
      "id": "n-03370",
      "pitch": "G#4",
      "midi": 68,
      "start": 150.313,
      "duration": 0.156,
      "velocity": 0.71
    },
    {
      "id": "n-03371",
      "pitch": "G#5",
      "midi": 80,
      "start": 150.313,
      "duration": 0.156,
      "velocity": 0.71
    },
    {
      "id": "n-03372",
      "pitch": "G#5",
      "midi": 80,
      "start": 150.313,
      "duration": 0.156,
      "velocity": 0.71
    },
    {
      "id": "n-03373",
      "pitch": "G#5",
      "midi": 80,
      "start": 150.313,
      "duration": 0.156,
      "velocity": 0.71
    },
    {
      "id": "n-03374",
      "pitch": "G#5",
      "midi": 80,
      "start": 150.313,
      "duration": 0.156,
      "velocity": 0.71
    },
    {
      "id": "n-03375",
      "pitch": "G#6",
      "midi": 92,
      "start": 150.313,
      "duration": 0.156,
      "velocity": 0.71
    },
    {
      "id": "n-03376",
      "pitch": "G#3",
      "midi": 56,
      "start": 150.469,
      "duration": 0.156,
      "velocity": 0.71
    },
    {
      "id": "n-03377",
      "pitch": "G#4",
      "midi": 68,
      "start": 150.469,
      "duration": 0.156,
      "velocity": 0.71
    },
    {
      "id": "n-03378",
      "pitch": "G#4",
      "midi": 68,
      "start": 150.469,
      "duration": 0.156,
      "velocity": 0.71
    },
    {
      "id": "n-03379",
      "pitch": "G#5",
      "midi": 80,
      "start": 150.469,
      "duration": 0.156,
      "velocity": 0.71
    },
    {
      "id": "n-03380",
      "pitch": "G#5",
      "midi": 80,
      "start": 150.469,
      "duration": 0.156,
      "velocity": 0.71
    },
    {
      "id": "n-03381",
      "pitch": "G#5",
      "midi": 80,
      "start": 150.469,
      "duration": 0.156,
      "velocity": 0.71
    },
    {
      "id": "n-03382",
      "pitch": "G#5",
      "midi": 80,
      "start": 150.469,
      "duration": 0.156,
      "velocity": 0.71
    },
    {
      "id": "n-03383",
      "pitch": "G#6",
      "midi": 92,
      "start": 150.469,
      "duration": 0.156,
      "velocity": 0.71
    },
    {
      "id": "n-03384",
      "pitch": "F3",
      "midi": 53,
      "start": 150.625,
      "duration": 0.781,
      "velocity": 0.71
    },
    {
      "id": "n-03385",
      "pitch": "F4",
      "midi": 65,
      "start": 150.625,
      "duration": 0.781,
      "velocity": 0.71
    },
    {
      "id": "n-03386",
      "pitch": "F4",
      "midi": 65,
      "start": 150.625,
      "duration": 0.781,
      "velocity": 0.71
    },
    {
      "id": "n-03387",
      "pitch": "F5",
      "midi": 77,
      "start": 150.625,
      "duration": 0.781,
      "velocity": 0.71
    },
    {
      "id": "n-03388",
      "pitch": "F5",
      "midi": 77,
      "start": 150.625,
      "duration": 0.781,
      "velocity": 0.71
    },
    {
      "id": "n-03389",
      "pitch": "F5",
      "midi": 77,
      "start": 150.625,
      "duration": 0.781,
      "velocity": 0.71
    },
    {
      "id": "n-03390",
      "pitch": "F5",
      "midi": 77,
      "start": 150.625,
      "duration": 0.781,
      "velocity": 0.71
    },
    {
      "id": "n-03391",
      "pitch": "F6",
      "midi": 89,
      "start": 150.625,
      "duration": 0.781,
      "velocity": 0.71
    },
    {
      "id": "n-03392",
      "pitch": "G#2",
      "midi": 44,
      "start": 150.781,
      "duration": 0.156,
      "velocity": 0.71
    },
    {
      "id": "n-03393",
      "pitch": "G#2",
      "midi": 44,
      "start": 150.781,
      "duration": 0.156,
      "velocity": 0.71
    },
    {
      "id": "n-03394",
      "pitch": "G#3",
      "midi": 56,
      "start": 150.781,
      "duration": 0.156,
      "velocity": 0.71
    },
    {
      "id": "n-03395",
      "pitch": "G#3",
      "midi": 56,
      "start": 150.781,
      "duration": 0.156,
      "velocity": 0.71
    },
    {
      "id": "n-03396",
      "pitch": "G#4",
      "midi": 68,
      "start": 150.781,
      "duration": 0.156,
      "velocity": 0.71
    },
    {
      "id": "n-03397",
      "pitch": "G#2",
      "midi": 44,
      "start": 150.938,
      "duration": 0.156,
      "velocity": 0.71
    },
    {
      "id": "n-03398",
      "pitch": "G#2",
      "midi": 44,
      "start": 150.938,
      "duration": 0.156,
      "velocity": 0.71
    },
    {
      "id": "n-03399",
      "pitch": "G#3",
      "midi": 56,
      "start": 150.938,
      "duration": 0.156,
      "velocity": 0.71
    },
    {
      "id": "n-03400",
      "pitch": "G#3",
      "midi": 56,
      "start": 150.938,
      "duration": 0.156,
      "velocity": 0.71
    },
    {
      "id": "n-03401",
      "pitch": "G#4",
      "midi": 68,
      "start": 150.938,
      "duration": 0.156,
      "velocity": 0.71
    },
    {
      "id": "n-03402",
      "pitch": "G#2",
      "midi": 44,
      "start": 151.094,
      "duration": 0.156,
      "velocity": 0.71
    },
    {
      "id": "n-03403",
      "pitch": "G#2",
      "midi": 44,
      "start": 151.094,
      "duration": 0.156,
      "velocity": 0.71
    },
    {
      "id": "n-03404",
      "pitch": "G#3",
      "midi": 56,
      "start": 151.094,
      "duration": 0.156,
      "velocity": 0.71
    },
    {
      "id": "n-03405",
      "pitch": "G#3",
      "midi": 56,
      "start": 151.094,
      "duration": 0.156,
      "velocity": 0.71
    },
    {
      "id": "n-03406",
      "pitch": "G#4",
      "midi": 68,
      "start": 151.094,
      "duration": 0.156,
      "velocity": 0.71
    },
    {
      "id": "n-03407",
      "pitch": "F2",
      "midi": 41,
      "start": 151.25,
      "duration": 0.781,
      "velocity": 0.71
    },
    {
      "id": "n-03408",
      "pitch": "F2",
      "midi": 41,
      "start": 151.25,
      "duration": 0.781,
      "velocity": 0.71
    },
    {
      "id": "n-03409",
      "pitch": "F3",
      "midi": 53,
      "start": 151.25,
      "duration": 0.781,
      "velocity": 0.71
    },
    {
      "id": "n-03410",
      "pitch": "F3",
      "midi": 53,
      "start": 151.25,
      "duration": 0.781,
      "velocity": 0.71
    },
    {
      "id": "n-03411",
      "pitch": "F4",
      "midi": 65,
      "start": 151.25,
      "duration": 0.781,
      "velocity": 0.71
    },
    {
      "id": "n-03412",
      "pitch": "G#3",
      "midi": 56,
      "start": 151.406,
      "duration": 0.156,
      "velocity": 0.71
    },
    {
      "id": "n-03413",
      "pitch": "G#4",
      "midi": 68,
      "start": 151.406,
      "duration": 0.156,
      "velocity": 0.71
    },
    {
      "id": "n-03414",
      "pitch": "G#4",
      "midi": 68,
      "start": 151.406,
      "duration": 0.156,
      "velocity": 0.71
    },
    {
      "id": "n-03415",
      "pitch": "G#5",
      "midi": 80,
      "start": 151.406,
      "duration": 0.156,
      "velocity": 0.71
    },
    {
      "id": "n-03416",
      "pitch": "G#5",
      "midi": 80,
      "start": 151.406,
      "duration": 0.156,
      "velocity": 0.71
    },
    {
      "id": "n-03417",
      "pitch": "G#5",
      "midi": 80,
      "start": 151.406,
      "duration": 0.156,
      "velocity": 0.71
    },
    {
      "id": "n-03418",
      "pitch": "G#5",
      "midi": 80,
      "start": 151.406,
      "duration": 0.156,
      "velocity": 0.71
    },
    {
      "id": "n-03419",
      "pitch": "G#6",
      "midi": 92,
      "start": 151.406,
      "duration": 0.156,
      "velocity": 0.71
    },
    {
      "id": "n-03420",
      "pitch": "G#3",
      "midi": 56,
      "start": 151.563,
      "duration": 0.156,
      "velocity": 0.71
    },
    {
      "id": "n-03421",
      "pitch": "G#4",
      "midi": 68,
      "start": 151.563,
      "duration": 0.156,
      "velocity": 0.71
    },
    {
      "id": "n-03422",
      "pitch": "G#4",
      "midi": 68,
      "start": 151.563,
      "duration": 0.156,
      "velocity": 0.71
    },
    {
      "id": "n-03423",
      "pitch": "G#5",
      "midi": 80,
      "start": 151.563,
      "duration": 0.156,
      "velocity": 0.71
    },
    {
      "id": "n-03424",
      "pitch": "G#5",
      "midi": 80,
      "start": 151.563,
      "duration": 0.156,
      "velocity": 0.71
    },
    {
      "id": "n-03425",
      "pitch": "G#5",
      "midi": 80,
      "start": 151.563,
      "duration": 0.156,
      "velocity": 0.71
    },
    {
      "id": "n-03426",
      "pitch": "G#5",
      "midi": 80,
      "start": 151.563,
      "duration": 0.156,
      "velocity": 0.71
    },
    {
      "id": "n-03427",
      "pitch": "G#6",
      "midi": 92,
      "start": 151.563,
      "duration": 0.156,
      "velocity": 0.71
    },
    {
      "id": "n-03428",
      "pitch": "G#3",
      "midi": 56,
      "start": 151.719,
      "duration": 0.156,
      "velocity": 0.71
    },
    {
      "id": "n-03429",
      "pitch": "G#4",
      "midi": 68,
      "start": 151.719,
      "duration": 0.156,
      "velocity": 0.71
    },
    {
      "id": "n-03430",
      "pitch": "G#4",
      "midi": 68,
      "start": 151.719,
      "duration": 0.156,
      "velocity": 0.71
    },
    {
      "id": "n-03431",
      "pitch": "G#5",
      "midi": 80,
      "start": 151.719,
      "duration": 0.156,
      "velocity": 0.71
    },
    {
      "id": "n-03432",
      "pitch": "G#5",
      "midi": 80,
      "start": 151.719,
      "duration": 0.156,
      "velocity": 0.71
    },
    {
      "id": "n-03433",
      "pitch": "G#5",
      "midi": 80,
      "start": 151.719,
      "duration": 0.156,
      "velocity": 0.71
    },
    {
      "id": "n-03434",
      "pitch": "G#5",
      "midi": 80,
      "start": 151.719,
      "duration": 0.156,
      "velocity": 0.71
    },
    {
      "id": "n-03435",
      "pitch": "G#6",
      "midi": 92,
      "start": 151.719,
      "duration": 0.156,
      "velocity": 0.71
    },
    {
      "id": "n-03436",
      "pitch": "F3",
      "midi": 53,
      "start": 151.875,
      "duration": 0.781,
      "velocity": 0.71
    },
    {
      "id": "n-03437",
      "pitch": "F4",
      "midi": 65,
      "start": 151.875,
      "duration": 0.781,
      "velocity": 0.71
    },
    {
      "id": "n-03438",
      "pitch": "F4",
      "midi": 65,
      "start": 151.875,
      "duration": 0.781,
      "velocity": 0.71
    },
    {
      "id": "n-03439",
      "pitch": "F5",
      "midi": 77,
      "start": 151.875,
      "duration": 0.781,
      "velocity": 0.71
    },
    {
      "id": "n-03440",
      "pitch": "F5",
      "midi": 77,
      "start": 151.875,
      "duration": 0.781,
      "velocity": 0.71
    },
    {
      "id": "n-03441",
      "pitch": "F5",
      "midi": 77,
      "start": 151.875,
      "duration": 0.781,
      "velocity": 0.71
    },
    {
      "id": "n-03442",
      "pitch": "F5",
      "midi": 77,
      "start": 151.875,
      "duration": 0.781,
      "velocity": 0.71
    },
    {
      "id": "n-03443",
      "pitch": "F6",
      "midi": 89,
      "start": 151.875,
      "duration": 0.781,
      "velocity": 0.71
    },
    {
      "id": "n-03444",
      "pitch": "G#2",
      "midi": 44,
      "start": 152.031,
      "duration": 0.156,
      "velocity": 0.71
    },
    {
      "id": "n-03445",
      "pitch": "G#2",
      "midi": 44,
      "start": 152.031,
      "duration": 0.156,
      "velocity": 0.71
    },
    {
      "id": "n-03446",
      "pitch": "G#3",
      "midi": 56,
      "start": 152.031,
      "duration": 0.156,
      "velocity": 0.71
    },
    {
      "id": "n-03447",
      "pitch": "G#3",
      "midi": 56,
      "start": 152.031,
      "duration": 0.156,
      "velocity": 0.71
    },
    {
      "id": "n-03448",
      "pitch": "G#4",
      "midi": 68,
      "start": 152.031,
      "duration": 0.156,
      "velocity": 0.71
    },
    {
      "id": "n-03449",
      "pitch": "G#2",
      "midi": 44,
      "start": 152.188,
      "duration": 0.156,
      "velocity": 0.71
    },
    {
      "id": "n-03450",
      "pitch": "G#2",
      "midi": 44,
      "start": 152.188,
      "duration": 0.156,
      "velocity": 0.71
    },
    {
      "id": "n-03451",
      "pitch": "G#3",
      "midi": 56,
      "start": 152.188,
      "duration": 0.156,
      "velocity": 0.71
    },
    {
      "id": "n-03452",
      "pitch": "G#3",
      "midi": 56,
      "start": 152.188,
      "duration": 0.156,
      "velocity": 0.71
    },
    {
      "id": "n-03453",
      "pitch": "G#4",
      "midi": 68,
      "start": 152.188,
      "duration": 0.156,
      "velocity": 0.71
    },
    {
      "id": "n-03454",
      "pitch": "G#2",
      "midi": 44,
      "start": 152.344,
      "duration": 0.156,
      "velocity": 0.71
    },
    {
      "id": "n-03455",
      "pitch": "G#2",
      "midi": 44,
      "start": 152.344,
      "duration": 0.156,
      "velocity": 0.71
    },
    {
      "id": "n-03456",
      "pitch": "G#3",
      "midi": 56,
      "start": 152.344,
      "duration": 0.156,
      "velocity": 0.71
    },
    {
      "id": "n-03457",
      "pitch": "G#3",
      "midi": 56,
      "start": 152.344,
      "duration": 0.156,
      "velocity": 0.71
    },
    {
      "id": "n-03458",
      "pitch": "G#4",
      "midi": 68,
      "start": 152.344,
      "duration": 0.156,
      "velocity": 0.71
    },
    {
      "id": "n-03459",
      "pitch": "F2",
      "midi": 41,
      "start": 152.5,
      "duration": 0.156,
      "velocity": 0.71
    },
    {
      "id": "n-03460",
      "pitch": "F2",
      "midi": 41,
      "start": 152.5,
      "duration": 0.156,
      "velocity": 0.71
    },
    {
      "id": "n-03461",
      "pitch": "F3",
      "midi": 53,
      "start": 152.5,
      "duration": 0.156,
      "velocity": 0.71
    },
    {
      "id": "n-03462",
      "pitch": "F3",
      "midi": 53,
      "start": 152.5,
      "duration": 0.156,
      "velocity": 0.71
    },
    {
      "id": "n-03463",
      "pitch": "F4",
      "midi": 65,
      "start": 152.5,
      "duration": 0.313,
      "velocity": 0.71
    },
    {
      "id": "n-03464",
      "pitch": "G#2",
      "midi": 44,
      "start": 152.656,
      "duration": 0.156,
      "velocity": 0.71
    },
    {
      "id": "n-03465",
      "pitch": "G#2",
      "midi": 44,
      "start": 152.656,
      "duration": 0.156,
      "velocity": 0.71
    },
    {
      "id": "n-03466",
      "pitch": "G#3",
      "midi": 56,
      "start": 152.656,
      "duration": 0.156,
      "velocity": 0.71
    },
    {
      "id": "n-03467",
      "pitch": "G#3",
      "midi": 56,
      "start": 152.656,
      "duration": 0.156,
      "velocity": 0.71
    },
    {
      "id": "n-03468",
      "pitch": "G#3",
      "midi": 56,
      "start": 152.656,
      "duration": 0.156,
      "velocity": 0.71
    },
    {
      "id": "n-03469",
      "pitch": "G#4",
      "midi": 68,
      "start": 152.656,
      "duration": 0.156,
      "velocity": 0.71
    },
    {
      "id": "n-03470",
      "pitch": "G#4",
      "midi": 68,
      "start": 152.656,
      "duration": 0.156,
      "velocity": 0.71
    },
    {
      "id": "n-03471",
      "pitch": "G#5",
      "midi": 80,
      "start": 152.656,
      "duration": 0.156,
      "velocity": 0.71
    },
    {
      "id": "n-03472",
      "pitch": "G#5",
      "midi": 80,
      "start": 152.656,
      "duration": 0.156,
      "velocity": 0.71
    },
    {
      "id": "n-03473",
      "pitch": "G#5",
      "midi": 80,
      "start": 152.656,
      "duration": 0.156,
      "velocity": 0.71
    },
    {
      "id": "n-03474",
      "pitch": "G#5",
      "midi": 80,
      "start": 152.656,
      "duration": 0.156,
      "velocity": 0.71
    },
    {
      "id": "n-03475",
      "pitch": "G#6",
      "midi": 92,
      "start": 152.656,
      "duration": 0.156,
      "velocity": 0.71
    },
    {
      "id": "n-03476",
      "pitch": "G#2",
      "midi": 44,
      "start": 152.813,
      "duration": 0.156,
      "velocity": 0.71
    },
    {
      "id": "n-03477",
      "pitch": "G#2",
      "midi": 44,
      "start": 152.813,
      "duration": 0.156,
      "velocity": 0.71
    },
    {
      "id": "n-03478",
      "pitch": "G#3",
      "midi": 56,
      "start": 152.813,
      "duration": 0.156,
      "velocity": 0.71
    },
    {
      "id": "n-03479",
      "pitch": "G#3",
      "midi": 56,
      "start": 152.813,
      "duration": 0.156,
      "velocity": 0.71
    },
    {
      "id": "n-03480",
      "pitch": "G#3",
      "midi": 56,
      "start": 152.813,
      "duration": 0.156,
      "velocity": 0.71
    },
    {
      "id": "n-03481",
      "pitch": "G#4",
      "midi": 68,
      "start": 152.813,
      "duration": 0.313,
      "velocity": 0.71
    },
    {
      "id": "n-03482",
      "pitch": "G#4",
      "midi": 68,
      "start": 152.813,
      "duration": 0.156,
      "velocity": 0.71
    },
    {
      "id": "n-03483",
      "pitch": "G#4",
      "midi": 68,
      "start": 152.813,
      "duration": 0.156,
      "velocity": 0.71
    },
    {
      "id": "n-03484",
      "pitch": "G#5",
      "midi": 80,
      "start": 152.813,
      "duration": 0.156,
      "velocity": 0.71
    },
    {
      "id": "n-03485",
      "pitch": "G#5",
      "midi": 80,
      "start": 152.813,
      "duration": 0.156,
      "velocity": 0.71
    },
    {
      "id": "n-03486",
      "pitch": "G#5",
      "midi": 80,
      "start": 152.813,
      "duration": 0.156,
      "velocity": 0.71
    },
    {
      "id": "n-03487",
      "pitch": "G#5",
      "midi": 80,
      "start": 152.813,
      "duration": 0.156,
      "velocity": 0.71
    },
    {
      "id": "n-03488",
      "pitch": "G#6",
      "midi": 92,
      "start": 152.813,
      "duration": 0.156,
      "velocity": 0.71
    },
    {
      "id": "n-03489",
      "pitch": "G#2",
      "midi": 44,
      "start": 152.969,
      "duration": 0.156,
      "velocity": 0.71
    },
    {
      "id": "n-03490",
      "pitch": "G#2",
      "midi": 44,
      "start": 152.969,
      "duration": 0.156,
      "velocity": 0.71
    },
    {
      "id": "n-03491",
      "pitch": "G#3",
      "midi": 56,
      "start": 152.969,
      "duration": 0.156,
      "velocity": 0.71
    },
    {
      "id": "n-03492",
      "pitch": "G#3",
      "midi": 56,
      "start": 152.969,
      "duration": 0.156,
      "velocity": 0.71
    },
    {
      "id": "n-03493",
      "pitch": "G#3",
      "midi": 56,
      "start": 152.969,
      "duration": 0.156,
      "velocity": 0.71
    },
    {
      "id": "n-03494",
      "pitch": "G#4",
      "midi": 68,
      "start": 152.969,
      "duration": 0.156,
      "velocity": 0.71
    },
    {
      "id": "n-03495",
      "pitch": "G#4",
      "midi": 68,
      "start": 152.969,
      "duration": 0.156,
      "velocity": 0.71
    },
    {
      "id": "n-03496",
      "pitch": "G#5",
      "midi": 80,
      "start": 152.969,
      "duration": 0.156,
      "velocity": 0.71
    },
    {
      "id": "n-03497",
      "pitch": "G#5",
      "midi": 80,
      "start": 152.969,
      "duration": 0.156,
      "velocity": 0.71
    },
    {
      "id": "n-03498",
      "pitch": "G#5",
      "midi": 80,
      "start": 152.969,
      "duration": 0.156,
      "velocity": 0.71
    },
    {
      "id": "n-03499",
      "pitch": "G#5",
      "midi": 80,
      "start": 152.969,
      "duration": 0.156,
      "velocity": 0.71
    },
    {
      "id": "n-03500",
      "pitch": "G#6",
      "midi": 92,
      "start": 152.969,
      "duration": 0.156,
      "velocity": 0.71
    },
    {
      "id": "n-03501",
      "pitch": "F2",
      "midi": 41,
      "start": 153.125,
      "duration": 0.156,
      "velocity": 0.71
    },
    {
      "id": "n-03502",
      "pitch": "F2",
      "midi": 41,
      "start": 153.125,
      "duration": 0.156,
      "velocity": 0.71
    },
    {
      "id": "n-03503",
      "pitch": "F3",
      "midi": 53,
      "start": 153.125,
      "duration": 0.156,
      "velocity": 0.71
    },
    {
      "id": "n-03504",
      "pitch": "F3",
      "midi": 53,
      "start": 153.125,
      "duration": 0.156,
      "velocity": 0.71
    },
    {
      "id": "n-03505",
      "pitch": "F3",
      "midi": 53,
      "start": 153.125,
      "duration": 0.156,
      "velocity": 0.71
    },
    {
      "id": "n-03506",
      "pitch": "F4",
      "midi": 65,
      "start": 153.125,
      "duration": 0.313,
      "velocity": 0.71
    },
    {
      "id": "n-03507",
      "pitch": "F4",
      "midi": 65,
      "start": 153.125,
      "duration": 0.156,
      "velocity": 0.71
    },
    {
      "id": "n-03508",
      "pitch": "F4",
      "midi": 65,
      "start": 153.125,
      "duration": 0.156,
      "velocity": 0.71
    },
    {
      "id": "n-03509",
      "pitch": "F5",
      "midi": 77,
      "start": 153.125,
      "duration": 0.156,
      "velocity": 0.71
    },
    {
      "id": "n-03510",
      "pitch": "F5",
      "midi": 77,
      "start": 153.125,
      "duration": 0.156,
      "velocity": 0.71
    },
    {
      "id": "n-03511",
      "pitch": "F5",
      "midi": 77,
      "start": 153.125,
      "duration": 0.156,
      "velocity": 0.71
    },
    {
      "id": "n-03512",
      "pitch": "F5",
      "midi": 77,
      "start": 153.125,
      "duration": 0.156,
      "velocity": 0.71
    },
    {
      "id": "n-03513",
      "pitch": "F6",
      "midi": 89,
      "start": 153.125,
      "duration": 0.156,
      "velocity": 0.71
    },
    {
      "id": "n-03514",
      "pitch": "G#2",
      "midi": 44,
      "start": 153.281,
      "duration": 0.156,
      "velocity": 0.71
    },
    {
      "id": "n-03515",
      "pitch": "G#2",
      "midi": 44,
      "start": 153.281,
      "duration": 0.156,
      "velocity": 0.71
    },
    {
      "id": "n-03516",
      "pitch": "G#3",
      "midi": 56,
      "start": 153.281,
      "duration": 0.156,
      "velocity": 0.71
    },
    {
      "id": "n-03517",
      "pitch": "G#3",
      "midi": 56,
      "start": 153.281,
      "duration": 0.156,
      "velocity": 0.71
    },
    {
      "id": "n-03518",
      "pitch": "G#3",
      "midi": 56,
      "start": 153.281,
      "duration": 0.156,
      "velocity": 0.71
    },
    {
      "id": "n-03519",
      "pitch": "G#4",
      "midi": 68,
      "start": 153.281,
      "duration": 0.156,
      "velocity": 0.71
    },
    {
      "id": "n-03520",
      "pitch": "G#4",
      "midi": 68,
      "start": 153.281,
      "duration": 0.156,
      "velocity": 0.71
    },
    {
      "id": "n-03521",
      "pitch": "G#5",
      "midi": 80,
      "start": 153.281,
      "duration": 0.156,
      "velocity": 0.71
    },
    {
      "id": "n-03522",
      "pitch": "G#5",
      "midi": 80,
      "start": 153.281,
      "duration": 0.156,
      "velocity": 0.71
    },
    {
      "id": "n-03523",
      "pitch": "G#5",
      "midi": 80,
      "start": 153.281,
      "duration": 0.156,
      "velocity": 0.71
    },
    {
      "id": "n-03524",
      "pitch": "G#5",
      "midi": 80,
      "start": 153.281,
      "duration": 0.156,
      "velocity": 0.71
    },
    {
      "id": "n-03525",
      "pitch": "G#6",
      "midi": 92,
      "start": 153.281,
      "duration": 0.156,
      "velocity": 0.71
    },
    {
      "id": "n-03526",
      "pitch": "G#2",
      "midi": 44,
      "start": 153.438,
      "duration": 0.156,
      "velocity": 0.71
    },
    {
      "id": "n-03527",
      "pitch": "G#2",
      "midi": 44,
      "start": 153.438,
      "duration": 0.156,
      "velocity": 0.71
    },
    {
      "id": "n-03528",
      "pitch": "G#3",
      "midi": 56,
      "start": 153.438,
      "duration": 0.156,
      "velocity": 0.71
    },
    {
      "id": "n-03529",
      "pitch": "G#3",
      "midi": 56,
      "start": 153.438,
      "duration": 0.156,
      "velocity": 0.71
    },
    {
      "id": "n-03530",
      "pitch": "G#3",
      "midi": 56,
      "start": 153.438,
      "duration": 0.156,
      "velocity": 0.71
    },
    {
      "id": "n-03531",
      "pitch": "G#4",
      "midi": 68,
      "start": 153.438,
      "duration": 0.313,
      "velocity": 0.71
    },
    {
      "id": "n-03532",
      "pitch": "G#4",
      "midi": 68,
      "start": 153.438,
      "duration": 0.156,
      "velocity": 0.71
    },
    {
      "id": "n-03533",
      "pitch": "G#4",
      "midi": 68,
      "start": 153.438,
      "duration": 0.156,
      "velocity": 0.71
    },
    {
      "id": "n-03534",
      "pitch": "G#5",
      "midi": 80,
      "start": 153.438,
      "duration": 0.156,
      "velocity": 0.71
    },
    {
      "id": "n-03535",
      "pitch": "G#5",
      "midi": 80,
      "start": 153.438,
      "duration": 0.156,
      "velocity": 0.71
    },
    {
      "id": "n-03536",
      "pitch": "G#5",
      "midi": 80,
      "start": 153.438,
      "duration": 0.156,
      "velocity": 0.71
    },
    {
      "id": "n-03537",
      "pitch": "G#5",
      "midi": 80,
      "start": 153.438,
      "duration": 0.156,
      "velocity": 0.71
    },
    {
      "id": "n-03538",
      "pitch": "G#6",
      "midi": 92,
      "start": 153.438,
      "duration": 0.156,
      "velocity": 0.71
    },
    {
      "id": "n-03539",
      "pitch": "G#2",
      "midi": 44,
      "start": 153.594,
      "duration": 0.156,
      "velocity": 0.71
    },
    {
      "id": "n-03540",
      "pitch": "G#2",
      "midi": 44,
      "start": 153.594,
      "duration": 0.156,
      "velocity": 0.71
    },
    {
      "id": "n-03541",
      "pitch": "G#3",
      "midi": 56,
      "start": 153.594,
      "duration": 0.156,
      "velocity": 0.71
    },
    {
      "id": "n-03542",
      "pitch": "G#3",
      "midi": 56,
      "start": 153.594,
      "duration": 0.156,
      "velocity": 0.71
    },
    {
      "id": "n-03543",
      "pitch": "G#3",
      "midi": 56,
      "start": 153.594,
      "duration": 0.156,
      "velocity": 0.71
    },
    {
      "id": "n-03544",
      "pitch": "G#4",
      "midi": 68,
      "start": 153.594,
      "duration": 0.156,
      "velocity": 0.71
    },
    {
      "id": "n-03545",
      "pitch": "G#4",
      "midi": 68,
      "start": 153.594,
      "duration": 0.156,
      "velocity": 0.71
    },
    {
      "id": "n-03546",
      "pitch": "G#5",
      "midi": 80,
      "start": 153.594,
      "duration": 0.156,
      "velocity": 0.71
    },
    {
      "id": "n-03547",
      "pitch": "G#5",
      "midi": 80,
      "start": 153.594,
      "duration": 0.156,
      "velocity": 0.71
    },
    {
      "id": "n-03548",
      "pitch": "G#5",
      "midi": 80,
      "start": 153.594,
      "duration": 0.156,
      "velocity": 0.71
    },
    {
      "id": "n-03549",
      "pitch": "G#5",
      "midi": 80,
      "start": 153.594,
      "duration": 0.156,
      "velocity": 0.71
    },
    {
      "id": "n-03550",
      "pitch": "G#6",
      "midi": 92,
      "start": 153.594,
      "duration": 0.156,
      "velocity": 0.71
    },
    {
      "id": "n-03551",
      "pitch": "F2",
      "midi": 41,
      "start": 153.75,
      "duration": 0.156,
      "velocity": 0.71
    },
    {
      "id": "n-03552",
      "pitch": "F2",
      "midi": 41,
      "start": 153.75,
      "duration": 0.156,
      "velocity": 0.71
    },
    {
      "id": "n-03553",
      "pitch": "F3",
      "midi": 53,
      "start": 153.75,
      "duration": 0.156,
      "velocity": 0.71
    },
    {
      "id": "n-03554",
      "pitch": "F3",
      "midi": 53,
      "start": 153.75,
      "duration": 0.156,
      "velocity": 0.71
    },
    {
      "id": "n-03555",
      "pitch": "F3",
      "midi": 53,
      "start": 153.75,
      "duration": 0.156,
      "velocity": 0.71
    },
    {
      "id": "n-03556",
      "pitch": "F4",
      "midi": 65,
      "start": 153.75,
      "duration": 0.313,
      "velocity": 0.71
    },
    {
      "id": "n-03557",
      "pitch": "F4",
      "midi": 65,
      "start": 153.75,
      "duration": 0.156,
      "velocity": 0.71
    },
    {
      "id": "n-03558",
      "pitch": "F4",
      "midi": 65,
      "start": 153.75,
      "duration": 0.156,
      "velocity": 0.71
    },
    {
      "id": "n-03559",
      "pitch": "F5",
      "midi": 77,
      "start": 153.75,
      "duration": 0.156,
      "velocity": 0.71
    },
    {
      "id": "n-03560",
      "pitch": "F5",
      "midi": 77,
      "start": 153.75,
      "duration": 0.156,
      "velocity": 0.71
    },
    {
      "id": "n-03561",
      "pitch": "F5",
      "midi": 77,
      "start": 153.75,
      "duration": 0.156,
      "velocity": 0.71
    },
    {
      "id": "n-03562",
      "pitch": "F5",
      "midi": 77,
      "start": 153.75,
      "duration": 0.156,
      "velocity": 0.71
    },
    {
      "id": "n-03563",
      "pitch": "F6",
      "midi": 89,
      "start": 153.75,
      "duration": 0.156,
      "velocity": 0.71
    },
    {
      "id": "n-03564",
      "pitch": "G#2",
      "midi": 44,
      "start": 153.906,
      "duration": 0.156,
      "velocity": 0.71
    },
    {
      "id": "n-03565",
      "pitch": "G#2",
      "midi": 44,
      "start": 153.906,
      "duration": 0.156,
      "velocity": 0.71
    },
    {
      "id": "n-03566",
      "pitch": "G#3",
      "midi": 56,
      "start": 153.906,
      "duration": 0.156,
      "velocity": 0.71
    },
    {
      "id": "n-03567",
      "pitch": "G#3",
      "midi": 56,
      "start": 153.906,
      "duration": 0.156,
      "velocity": 0.71
    },
    {
      "id": "n-03568",
      "pitch": "G#3",
      "midi": 56,
      "start": 153.906,
      "duration": 0.156,
      "velocity": 0.71
    },
    {
      "id": "n-03569",
      "pitch": "G#4",
      "midi": 68,
      "start": 153.906,
      "duration": 0.156,
      "velocity": 0.71
    },
    {
      "id": "n-03570",
      "pitch": "G#4",
      "midi": 68,
      "start": 153.906,
      "duration": 0.156,
      "velocity": 0.71
    },
    {
      "id": "n-03571",
      "pitch": "G#5",
      "midi": 80,
      "start": 153.906,
      "duration": 0.156,
      "velocity": 0.71
    },
    {
      "id": "n-03572",
      "pitch": "G#5",
      "midi": 80,
      "start": 153.906,
      "duration": 0.156,
      "velocity": 0.71
    },
    {
      "id": "n-03573",
      "pitch": "G#5",
      "midi": 80,
      "start": 153.906,
      "duration": 0.156,
      "velocity": 0.71
    },
    {
      "id": "n-03574",
      "pitch": "G#5",
      "midi": 80,
      "start": 153.906,
      "duration": 0.156,
      "velocity": 0.71
    },
    {
      "id": "n-03575",
      "pitch": "G#6",
      "midi": 92,
      "start": 153.906,
      "duration": 0.156,
      "velocity": 0.71
    },
    {
      "id": "n-03576",
      "pitch": "G#2",
      "midi": 44,
      "start": 154.063,
      "duration": 0.156,
      "velocity": 0.71
    },
    {
      "id": "n-03577",
      "pitch": "G#2",
      "midi": 44,
      "start": 154.063,
      "duration": 0.156,
      "velocity": 0.71
    },
    {
      "id": "n-03578",
      "pitch": "G#3",
      "midi": 56,
      "start": 154.063,
      "duration": 0.156,
      "velocity": 0.71
    },
    {
      "id": "n-03579",
      "pitch": "G#3",
      "midi": 56,
      "start": 154.063,
      "duration": 0.156,
      "velocity": 0.71
    },
    {
      "id": "n-03580",
      "pitch": "G#3",
      "midi": 56,
      "start": 154.063,
      "duration": 0.156,
      "velocity": 0.71
    },
    {
      "id": "n-03581",
      "pitch": "G#4",
      "midi": 68,
      "start": 154.063,
      "duration": 0.313,
      "velocity": 0.71
    },
    {
      "id": "n-03582",
      "pitch": "G#4",
      "midi": 68,
      "start": 154.063,
      "duration": 0.156,
      "velocity": 0.71
    },
    {
      "id": "n-03583",
      "pitch": "G#4",
      "midi": 68,
      "start": 154.063,
      "duration": 0.156,
      "velocity": 0.71
    },
    {
      "id": "n-03584",
      "pitch": "G#5",
      "midi": 80,
      "start": 154.063,
      "duration": 0.156,
      "velocity": 0.71
    },
    {
      "id": "n-03585",
      "pitch": "G#5",
      "midi": 80,
      "start": 154.063,
      "duration": 0.156,
      "velocity": 0.71
    },
    {
      "id": "n-03586",
      "pitch": "G#5",
      "midi": 80,
      "start": 154.063,
      "duration": 0.156,
      "velocity": 0.71
    },
    {
      "id": "n-03587",
      "pitch": "G#5",
      "midi": 80,
      "start": 154.063,
      "duration": 0.156,
      "velocity": 0.71
    },
    {
      "id": "n-03588",
      "pitch": "G#6",
      "midi": 92,
      "start": 154.063,
      "duration": 0.156,
      "velocity": 0.71
    },
    {
      "id": "n-03589",
      "pitch": "G#2",
      "midi": 44,
      "start": 154.219,
      "duration": 0.156,
      "velocity": 0.71
    },
    {
      "id": "n-03590",
      "pitch": "G#2",
      "midi": 44,
      "start": 154.219,
      "duration": 0.156,
      "velocity": 0.71
    },
    {
      "id": "n-03591",
      "pitch": "G#3",
      "midi": 56,
      "start": 154.219,
      "duration": 0.156,
      "velocity": 0.71
    },
    {
      "id": "n-03592",
      "pitch": "G#3",
      "midi": 56,
      "start": 154.219,
      "duration": 0.156,
      "velocity": 0.71
    },
    {
      "id": "n-03593",
      "pitch": "G#3",
      "midi": 56,
      "start": 154.219,
      "duration": 0.156,
      "velocity": 0.71
    },
    {
      "id": "n-03594",
      "pitch": "G#4",
      "midi": 68,
      "start": 154.219,
      "duration": 0.156,
      "velocity": 0.71
    },
    {
      "id": "n-03595",
      "pitch": "G#4",
      "midi": 68,
      "start": 154.219,
      "duration": 0.156,
      "velocity": 0.71
    },
    {
      "id": "n-03596",
      "pitch": "G#5",
      "midi": 80,
      "start": 154.219,
      "duration": 0.156,
      "velocity": 0.71
    },
    {
      "id": "n-03597",
      "pitch": "G#5",
      "midi": 80,
      "start": 154.219,
      "duration": 0.156,
      "velocity": 0.71
    },
    {
      "id": "n-03598",
      "pitch": "G#5",
      "midi": 80,
      "start": 154.219,
      "duration": 0.156,
      "velocity": 0.71
    },
    {
      "id": "n-03599",
      "pitch": "G#5",
      "midi": 80,
      "start": 154.219,
      "duration": 0.156,
      "velocity": 0.71
    },
    {
      "id": "n-03600",
      "pitch": "G#6",
      "midi": 92,
      "start": 154.219,
      "duration": 0.156,
      "velocity": 0.71
    },
    {
      "id": "n-03601",
      "pitch": "F2",
      "midi": 41,
      "start": 154.375,
      "duration": 0.156,
      "velocity": 0.71
    },
    {
      "id": "n-03602",
      "pitch": "F2",
      "midi": 41,
      "start": 154.375,
      "duration": 0.156,
      "velocity": 0.71
    },
    {
      "id": "n-03603",
      "pitch": "F3",
      "midi": 53,
      "start": 154.375,
      "duration": 0.156,
      "velocity": 0.71
    },
    {
      "id": "n-03604",
      "pitch": "F3",
      "midi": 53,
      "start": 154.375,
      "duration": 0.156,
      "velocity": 0.71
    },
    {
      "id": "n-03605",
      "pitch": "F3",
      "midi": 53,
      "start": 154.375,
      "duration": 0.156,
      "velocity": 0.71
    },
    {
      "id": "n-03606",
      "pitch": "F4",
      "midi": 65,
      "start": 154.375,
      "duration": 0.156,
      "velocity": 0.71
    },
    {
      "id": "n-03607",
      "pitch": "F4",
      "midi": 65,
      "start": 154.375,
      "duration": 0.156,
      "velocity": 0.71
    },
    {
      "id": "n-03608",
      "pitch": "F4",
      "midi": 65,
      "start": 154.375,
      "duration": 0.156,
      "velocity": 0.71
    },
    {
      "id": "n-03609",
      "pitch": "F4",
      "midi": 65,
      "start": 154.375,
      "duration": 0.156,
      "velocity": 0.71
    },
    {
      "id": "n-03610",
      "pitch": "F5",
      "midi": 77,
      "start": 154.375,
      "duration": 0.156,
      "velocity": 0.71
    },
    {
      "id": "n-03611",
      "pitch": "F5",
      "midi": 77,
      "start": 154.375,
      "duration": 0.156,
      "velocity": 0.71
    },
    {
      "id": "n-03612",
      "pitch": "F5",
      "midi": 77,
      "start": 154.375,
      "duration": 0.156,
      "velocity": 0.71
    },
    {
      "id": "n-03613",
      "pitch": "F5",
      "midi": 77,
      "start": 154.375,
      "duration": 0.156,
      "velocity": 0.71
    },
    {
      "id": "n-03614",
      "pitch": "F6",
      "midi": 89,
      "start": 154.375,
      "duration": 0.156,
      "velocity": 0.71
    },
    {
      "id": "n-03615",
      "pitch": "G2",
      "midi": 43,
      "start": 154.531,
      "duration": 0.156,
      "velocity": 0.71
    },
    {
      "id": "n-03616",
      "pitch": "G2",
      "midi": 43,
      "start": 154.531,
      "duration": 0.156,
      "velocity": 0.71
    },
    {
      "id": "n-03617",
      "pitch": "G2",
      "midi": 43,
      "start": 154.531,
      "duration": 0.156,
      "velocity": 0.71
    },
    {
      "id": "n-03618",
      "pitch": "G3",
      "midi": 55,
      "start": 154.531,
      "duration": 0.156,
      "velocity": 0.71
    },
    {
      "id": "n-03619",
      "pitch": "G3",
      "midi": 55,
      "start": 154.531,
      "duration": 0.156,
      "velocity": 0.71
    },
    {
      "id": "n-03620",
      "pitch": "G3",
      "midi": 55,
      "start": 154.531,
      "duration": 0.156,
      "velocity": 0.71
    },
    {
      "id": "n-03621",
      "pitch": "G4",
      "midi": 67,
      "start": 154.531,
      "duration": 0.156,
      "velocity": 0.71
    },
    {
      "id": "n-03622",
      "pitch": "G4",
      "midi": 67,
      "start": 154.531,
      "duration": 0.156,
      "velocity": 0.71
    },
    {
      "id": "n-03623",
      "pitch": "G4",
      "midi": 67,
      "start": 154.531,
      "duration": 0.156,
      "velocity": 0.71
    },
    {
      "id": "n-03624",
      "pitch": "G4",
      "midi": 67,
      "start": 154.531,
      "duration": 0.156,
      "velocity": 0.71
    },
    {
      "id": "n-03625",
      "pitch": "G4",
      "midi": 67,
      "start": 154.531,
      "duration": 0.156,
      "velocity": 0.71
    },
    {
      "id": "n-03626",
      "pitch": "G5",
      "midi": 79,
      "start": 154.531,
      "duration": 0.156,
      "velocity": 0.71
    },
    {
      "id": "n-03627",
      "pitch": "G5",
      "midi": 79,
      "start": 154.531,
      "duration": 0.156,
      "velocity": 0.71
    },
    {
      "id": "n-03628",
      "pitch": "G5",
      "midi": 79,
      "start": 154.531,
      "duration": 0.156,
      "velocity": 0.71
    },
    {
      "id": "n-03629",
      "pitch": "G5",
      "midi": 79,
      "start": 154.531,
      "duration": 0.156,
      "velocity": 0.71
    },
    {
      "id": "n-03630",
      "pitch": "G5",
      "midi": 79,
      "start": 154.531,
      "duration": 0.156,
      "velocity": 0.71
    },
    {
      "id": "n-03631",
      "pitch": "G6",
      "midi": 91,
      "start": 154.531,
      "duration": 0.156,
      "velocity": 0.71
    },
    {
      "id": "n-03632",
      "pitch": "G2",
      "midi": 43,
      "start": 154.688,
      "duration": 0.156,
      "velocity": 0.71
    },
    {
      "id": "n-03633",
      "pitch": "G2",
      "midi": 43,
      "start": 154.688,
      "duration": 0.156,
      "velocity": 0.71
    },
    {
      "id": "n-03634",
      "pitch": "G2",
      "midi": 43,
      "start": 154.688,
      "duration": 0.156,
      "velocity": 0.71
    },
    {
      "id": "n-03635",
      "pitch": "G3",
      "midi": 55,
      "start": 154.688,
      "duration": 0.156,
      "velocity": 0.71
    },
    {
      "id": "n-03636",
      "pitch": "G3",
      "midi": 55,
      "start": 154.688,
      "duration": 0.156,
      "velocity": 0.71
    },
    {
      "id": "n-03637",
      "pitch": "G3",
      "midi": 55,
      "start": 154.688,
      "duration": 0.156,
      "velocity": 0.71
    },
    {
      "id": "n-03638",
      "pitch": "G4",
      "midi": 67,
      "start": 154.688,
      "duration": 0.156,
      "velocity": 0.71
    },
    {
      "id": "n-03639",
      "pitch": "G4",
      "midi": 67,
      "start": 154.688,
      "duration": 0.156,
      "velocity": 0.71
    },
    {
      "id": "n-03640",
      "pitch": "G4",
      "midi": 67,
      "start": 154.688,
      "duration": 0.156,
      "velocity": 0.71
    },
    {
      "id": "n-03641",
      "pitch": "G4",
      "midi": 67,
      "start": 154.688,
      "duration": 0.156,
      "velocity": 0.71
    },
    {
      "id": "n-03642",
      "pitch": "G4",
      "midi": 67,
      "start": 154.688,
      "duration": 0.156,
      "velocity": 0.71
    },
    {
      "id": "n-03643",
      "pitch": "G5",
      "midi": 79,
      "start": 154.688,
      "duration": 0.156,
      "velocity": 0.71
    },
    {
      "id": "n-03644",
      "pitch": "G5",
      "midi": 79,
      "start": 154.688,
      "duration": 0.156,
      "velocity": 0.71
    },
    {
      "id": "n-03645",
      "pitch": "G5",
      "midi": 79,
      "start": 154.688,
      "duration": 0.156,
      "velocity": 0.71
    },
    {
      "id": "n-03646",
      "pitch": "G5",
      "midi": 79,
      "start": 154.688,
      "duration": 0.156,
      "velocity": 0.71
    },
    {
      "id": "n-03647",
      "pitch": "G5",
      "midi": 79,
      "start": 154.688,
      "duration": 0.156,
      "velocity": 0.71
    },
    {
      "id": "n-03648",
      "pitch": "G6",
      "midi": 91,
      "start": 154.688,
      "duration": 0.156,
      "velocity": 0.71
    },
    {
      "id": "n-03649",
      "pitch": "G2",
      "midi": 43,
      "start": 154.844,
      "duration": 0.156,
      "velocity": 0.71
    },
    {
      "id": "n-03650",
      "pitch": "G2",
      "midi": 43,
      "start": 154.844,
      "duration": 0.156,
      "velocity": 0.71
    },
    {
      "id": "n-03651",
      "pitch": "G2",
      "midi": 43,
      "start": 154.844,
      "duration": 0.156,
      "velocity": 0.71
    },
    {
      "id": "n-03652",
      "pitch": "G3",
      "midi": 55,
      "start": 154.844,
      "duration": 0.156,
      "velocity": 0.71
    },
    {
      "id": "n-03653",
      "pitch": "G3",
      "midi": 55,
      "start": 154.844,
      "duration": 0.156,
      "velocity": 0.71
    },
    {
      "id": "n-03654",
      "pitch": "G3",
      "midi": 55,
      "start": 154.844,
      "duration": 0.156,
      "velocity": 0.71
    },
    {
      "id": "n-03655",
      "pitch": "G4",
      "midi": 67,
      "start": 154.844,
      "duration": 0.156,
      "velocity": 0.71
    },
    {
      "id": "n-03656",
      "pitch": "G4",
      "midi": 67,
      "start": 154.844,
      "duration": 0.156,
      "velocity": 0.71
    },
    {
      "id": "n-03657",
      "pitch": "G4",
      "midi": 67,
      "start": 154.844,
      "duration": 0.156,
      "velocity": 0.71
    },
    {
      "id": "n-03658",
      "pitch": "G4",
      "midi": 67,
      "start": 154.844,
      "duration": 0.156,
      "velocity": 0.71
    },
    {
      "id": "n-03659",
      "pitch": "G4",
      "midi": 67,
      "start": 154.844,
      "duration": 0.156,
      "velocity": 0.71
    },
    {
      "id": "n-03660",
      "pitch": "G5",
      "midi": 79,
      "start": 154.844,
      "duration": 0.156,
      "velocity": 0.71
    },
    {
      "id": "n-03661",
      "pitch": "G5",
      "midi": 79,
      "start": 154.844,
      "duration": 0.156,
      "velocity": 0.71
    },
    {
      "id": "n-03662",
      "pitch": "G5",
      "midi": 79,
      "start": 154.844,
      "duration": 0.156,
      "velocity": 0.71
    },
    {
      "id": "n-03663",
      "pitch": "G5",
      "midi": 79,
      "start": 154.844,
      "duration": 0.156,
      "velocity": 0.71
    },
    {
      "id": "n-03664",
      "pitch": "G5",
      "midi": 79,
      "start": 154.844,
      "duration": 0.156,
      "velocity": 0.71
    },
    {
      "id": "n-03665",
      "pitch": "G6",
      "midi": 91,
      "start": 154.844,
      "duration": 0.156,
      "velocity": 0.71
    },
    {
      "id": "n-03666",
      "pitch": "D#2",
      "midi": 39,
      "start": 155,
      "duration": 0.625,
      "velocity": 0.71
    },
    {
      "id": "n-03667",
      "pitch": "D#2",
      "midi": 39,
      "start": 155,
      "duration": 0.625,
      "velocity": 0.71
    },
    {
      "id": "n-03668",
      "pitch": "G2",
      "midi": 43,
      "start": 155,
      "duration": 0.625,
      "velocity": 0.71
    },
    {
      "id": "n-03669",
      "pitch": "D#3",
      "midi": 51,
      "start": 155,
      "duration": 0.625,
      "velocity": 0.71
    },
    {
      "id": "n-03670",
      "pitch": "D#3",
      "midi": 51,
      "start": 155,
      "duration": 0.625,
      "velocity": 0.71
    },
    {
      "id": "n-03671",
      "pitch": "D#3",
      "midi": 51,
      "start": 155,
      "duration": 0.625,
      "velocity": 0.71
    },
    {
      "id": "n-03672",
      "pitch": "D#4",
      "midi": 63,
      "start": 155,
      "duration": 0.625,
      "velocity": 0.71
    },
    {
      "id": "n-03673",
      "pitch": "D#4",
      "midi": 63,
      "start": 155,
      "duration": 0.625,
      "velocity": 0.71
    },
    {
      "id": "n-03674",
      "pitch": "D#4",
      "midi": 63,
      "start": 155,
      "duration": 0.625,
      "velocity": 0.71
    },
    {
      "id": "n-03675",
      "pitch": "G4",
      "midi": 67,
      "start": 155,
      "duration": 0.625,
      "velocity": 0.71
    },
    {
      "id": "n-03676",
      "pitch": "D#5",
      "midi": 75,
      "start": 155,
      "duration": 0.625,
      "velocity": 0.71
    },
    {
      "id": "n-03677",
      "pitch": "D#5",
      "midi": 75,
      "start": 155,
      "duration": 0.625,
      "velocity": 0.71
    },
    {
      "id": "n-03678",
      "pitch": "D#5",
      "midi": 75,
      "start": 155,
      "duration": 0.625,
      "velocity": 0.71
    },
    {
      "id": "n-03679",
      "pitch": "G5",
      "midi": 79,
      "start": 155,
      "duration": 0.625,
      "velocity": 0.71
    },
    {
      "id": "n-03680",
      "pitch": "G5",
      "midi": 79,
      "start": 155,
      "duration": 0.625,
      "velocity": 0.71
    },
    {
      "id": "n-03681",
      "pitch": "D#6",
      "midi": 87,
      "start": 155,
      "duration": 0.625,
      "velocity": 0.71
    },
    {
      "id": "n-03682",
      "pitch": "G6",
      "midi": 91,
      "start": 155,
      "duration": 0.625,
      "velocity": 0.71
    },
    {
      "id": "n-03683",
      "pitch": "F2",
      "midi": 41,
      "start": 155.781,
      "duration": 0.156,
      "velocity": 0.71
    },
    {
      "id": "n-03684",
      "pitch": "F2",
      "midi": 41,
      "start": 155.781,
      "duration": 0.156,
      "velocity": 0.71
    },
    {
      "id": "n-03685",
      "pitch": "G2",
      "midi": 43,
      "start": 155.781,
      "duration": 0.156,
      "velocity": 0.71
    },
    {
      "id": "n-03686",
      "pitch": "F3",
      "midi": 53,
      "start": 155.781,
      "duration": 0.156,
      "velocity": 0.71
    },
    {
      "id": "n-03687",
      "pitch": "F3",
      "midi": 53,
      "start": 155.781,
      "duration": 0.156,
      "velocity": 0.71
    },
    {
      "id": "n-03688",
      "pitch": "F3",
      "midi": 53,
      "start": 155.781,
      "duration": 0.156,
      "velocity": 0.71
    },
    {
      "id": "n-03689",
      "pitch": "G3",
      "midi": 55,
      "start": 155.781,
      "duration": 0.156,
      "velocity": 0.71
    },
    {
      "id": "n-03690",
      "pitch": "F4",
      "midi": 65,
      "start": 155.781,
      "duration": 0.156,
      "velocity": 0.71
    },
    {
      "id": "n-03691",
      "pitch": "F4",
      "midi": 65,
      "start": 155.781,
      "duration": 0.156,
      "velocity": 0.71
    },
    {
      "id": "n-03692",
      "pitch": "G4",
      "midi": 67,
      "start": 155.781,
      "duration": 0.156,
      "velocity": 0.71
    },
    {
      "id": "n-03693",
      "pitch": "G4",
      "midi": 67,
      "start": 155.781,
      "duration": 0.156,
      "velocity": 0.71
    },
    {
      "id": "n-03694",
      "pitch": "F5",
      "midi": 77,
      "start": 155.781,
      "duration": 0.156,
      "velocity": 0.71
    },
    {
      "id": "n-03695",
      "pitch": "F5",
      "midi": 77,
      "start": 155.781,
      "duration": 0.156,
      "velocity": 0.71
    },
    {
      "id": "n-03696",
      "pitch": "F5",
      "midi": 77,
      "start": 155.781,
      "duration": 0.156,
      "velocity": 0.71
    },
    {
      "id": "n-03697",
      "pitch": "G5",
      "midi": 79,
      "start": 155.781,
      "duration": 0.156,
      "velocity": 0.71
    },
    {
      "id": "n-03698",
      "pitch": "G5",
      "midi": 79,
      "start": 155.781,
      "duration": 0.156,
      "velocity": 0.71
    },
    {
      "id": "n-03699",
      "pitch": "F6",
      "midi": 89,
      "start": 155.781,
      "duration": 0.156,
      "velocity": 0.71
    },
    {
      "id": "n-03700",
      "pitch": "G6",
      "midi": 91,
      "start": 155.781,
      "duration": 0.156,
      "velocity": 0.71
    },
    {
      "id": "n-03701",
      "pitch": "F2",
      "midi": 41,
      "start": 155.938,
      "duration": 0.156,
      "velocity": 0.71
    },
    {
      "id": "n-03702",
      "pitch": "F2",
      "midi": 41,
      "start": 155.938,
      "duration": 0.156,
      "velocity": 0.71
    },
    {
      "id": "n-03703",
      "pitch": "G2",
      "midi": 43,
      "start": 155.938,
      "duration": 0.156,
      "velocity": 0.71
    },
    {
      "id": "n-03704",
      "pitch": "F3",
      "midi": 53,
      "start": 155.938,
      "duration": 0.156,
      "velocity": 0.71
    },
    {
      "id": "n-03705",
      "pitch": "F3",
      "midi": 53,
      "start": 155.938,
      "duration": 0.156,
      "velocity": 0.71
    },
    {
      "id": "n-03706",
      "pitch": "F3",
      "midi": 53,
      "start": 155.938,
      "duration": 0.156,
      "velocity": 0.71
    },
    {
      "id": "n-03707",
      "pitch": "G3",
      "midi": 55,
      "start": 155.938,
      "duration": 0.156,
      "velocity": 0.71
    },
    {
      "id": "n-03708",
      "pitch": "F4",
      "midi": 65,
      "start": 155.938,
      "duration": 0.156,
      "velocity": 0.71
    },
    {
      "id": "n-03709",
      "pitch": "F4",
      "midi": 65,
      "start": 155.938,
      "duration": 0.156,
      "velocity": 0.71
    },
    {
      "id": "n-03710",
      "pitch": "G4",
      "midi": 67,
      "start": 155.938,
      "duration": 0.156,
      "velocity": 0.71
    },
    {
      "id": "n-03711",
      "pitch": "G4",
      "midi": 67,
      "start": 155.938,
      "duration": 0.156,
      "velocity": 0.71
    },
    {
      "id": "n-03712",
      "pitch": "F5",
      "midi": 77,
      "start": 155.938,
      "duration": 0.156,
      "velocity": 0.71
    },
    {
      "id": "n-03713",
      "pitch": "F5",
      "midi": 77,
      "start": 155.938,
      "duration": 0.156,
      "velocity": 0.71
    },
    {
      "id": "n-03714",
      "pitch": "F5",
      "midi": 77,
      "start": 155.938,
      "duration": 0.156,
      "velocity": 0.71
    },
    {
      "id": "n-03715",
      "pitch": "G5",
      "midi": 79,
      "start": 155.938,
      "duration": 0.156,
      "velocity": 0.71
    },
    {
      "id": "n-03716",
      "pitch": "G5",
      "midi": 79,
      "start": 155.938,
      "duration": 0.156,
      "velocity": 0.71
    },
    {
      "id": "n-03717",
      "pitch": "F6",
      "midi": 89,
      "start": 155.938,
      "duration": 0.156,
      "velocity": 0.71
    },
    {
      "id": "n-03718",
      "pitch": "G6",
      "midi": 91,
      "start": 155.938,
      "duration": 0.156,
      "velocity": 0.71
    },
    {
      "id": "n-03719",
      "pitch": "F2",
      "midi": 41,
      "start": 156.094,
      "duration": 0.156,
      "velocity": 0.71
    },
    {
      "id": "n-03720",
      "pitch": "F2",
      "midi": 41,
      "start": 156.094,
      "duration": 0.156,
      "velocity": 0.71
    },
    {
      "id": "n-03721",
      "pitch": "G2",
      "midi": 43,
      "start": 156.094,
      "duration": 0.156,
      "velocity": 0.71
    },
    {
      "id": "n-03722",
      "pitch": "F3",
      "midi": 53,
      "start": 156.094,
      "duration": 0.156,
      "velocity": 0.71
    },
    {
      "id": "n-03723",
      "pitch": "F3",
      "midi": 53,
      "start": 156.094,
      "duration": 0.156,
      "velocity": 0.71
    },
    {
      "id": "n-03724",
      "pitch": "F3",
      "midi": 53,
      "start": 156.094,
      "duration": 0.156,
      "velocity": 0.71
    },
    {
      "id": "n-03725",
      "pitch": "G3",
      "midi": 55,
      "start": 156.094,
      "duration": 0.156,
      "velocity": 0.71
    },
    {
      "id": "n-03726",
      "pitch": "F4",
      "midi": 65,
      "start": 156.094,
      "duration": 0.156,
      "velocity": 0.71
    },
    {
      "id": "n-03727",
      "pitch": "F4",
      "midi": 65,
      "start": 156.094,
      "duration": 0.156,
      "velocity": 0.71
    },
    {
      "id": "n-03728",
      "pitch": "G4",
      "midi": 67,
      "start": 156.094,
      "duration": 0.156,
      "velocity": 0.71
    },
    {
      "id": "n-03729",
      "pitch": "G4",
      "midi": 67,
      "start": 156.094,
      "duration": 0.156,
      "velocity": 0.71
    },
    {
      "id": "n-03730",
      "pitch": "F5",
      "midi": 77,
      "start": 156.094,
      "duration": 0.156,
      "velocity": 0.71
    },
    {
      "id": "n-03731",
      "pitch": "F5",
      "midi": 77,
      "start": 156.094,
      "duration": 0.156,
      "velocity": 0.71
    },
    {
      "id": "n-03732",
      "pitch": "F5",
      "midi": 77,
      "start": 156.094,
      "duration": 0.156,
      "velocity": 0.71
    },
    {
      "id": "n-03733",
      "pitch": "G5",
      "midi": 79,
      "start": 156.094,
      "duration": 0.156,
      "velocity": 0.71
    },
    {
      "id": "n-03734",
      "pitch": "G5",
      "midi": 79,
      "start": 156.094,
      "duration": 0.156,
      "velocity": 0.71
    },
    {
      "id": "n-03735",
      "pitch": "F6",
      "midi": 89,
      "start": 156.094,
      "duration": 0.156,
      "velocity": 0.71
    },
    {
      "id": "n-03736",
      "pitch": "G6",
      "midi": 91,
      "start": 156.094,
      "duration": 0.156,
      "velocity": 0.71
    },
    {
      "id": "n-03737",
      "pitch": "D2",
      "midi": 38,
      "start": 156.25,
      "duration": 1.25,
      "velocity": 0.71
    },
    {
      "id": "n-03738",
      "pitch": "D2",
      "midi": 38,
      "start": 156.25,
      "duration": 1.25,
      "velocity": 0.71
    },
    {
      "id": "n-03739",
      "pitch": "G2",
      "midi": 43,
      "start": 156.25,
      "duration": 1.25,
      "velocity": 0.71
    },
    {
      "id": "n-03740",
      "pitch": "D3",
      "midi": 50,
      "start": 156.25,
      "duration": 1.25,
      "velocity": 0.71
    },
    {
      "id": "n-03741",
      "pitch": "D3",
      "midi": 50,
      "start": 156.25,
      "duration": 1.25,
      "velocity": 0.71
    },
    {
      "id": "n-03742",
      "pitch": "D3",
      "midi": 50,
      "start": 156.25,
      "duration": 1.25,
      "velocity": 0.71
    },
    {
      "id": "n-03743",
      "pitch": "G3",
      "midi": 55,
      "start": 156.25,
      "duration": 1.25,
      "velocity": 0.71
    },
    {
      "id": "n-03744",
      "pitch": "D4",
      "midi": 62,
      "start": 156.25,
      "duration": 1.25,
      "velocity": 0.71
    },
    {
      "id": "n-03745",
      "pitch": "D4",
      "midi": 62,
      "start": 156.25,
      "duration": 1.25,
      "velocity": 0.71
    },
    {
      "id": "n-03746",
      "pitch": "G4",
      "midi": 67,
      "start": 156.25,
      "duration": 1.25,
      "velocity": 0.71
    },
    {
      "id": "n-03747",
      "pitch": "G4",
      "midi": 67,
      "start": 156.25,
      "duration": 1.25,
      "velocity": 0.71
    },
    {
      "id": "n-03748",
      "pitch": "D5",
      "midi": 74,
      "start": 156.25,
      "duration": 1.25,
      "velocity": 0.71
    },
    {
      "id": "n-03749",
      "pitch": "D5",
      "midi": 74,
      "start": 156.25,
      "duration": 1.25,
      "velocity": 0.71
    },
    {
      "id": "n-03750",
      "pitch": "D5",
      "midi": 74,
      "start": 156.25,
      "duration": 1.25,
      "velocity": 0.71
    },
    {
      "id": "n-03751",
      "pitch": "G5",
      "midi": 79,
      "start": 156.25,
      "duration": 1.25,
      "velocity": 0.71
    },
    {
      "id": "n-03752",
      "pitch": "G5",
      "midi": 79,
      "start": 156.25,
      "duration": 1.25,
      "velocity": 0.71
    },
    {
      "id": "n-03753",
      "pitch": "D6",
      "midi": 86,
      "start": 156.25,
      "duration": 1.25,
      "velocity": 0.71
    },
    {
      "id": "n-03754",
      "pitch": "G6",
      "midi": 91,
      "start": 156.25,
      "duration": 1.25,
      "velocity": 0.71
    },
    {
      "id": "n-03755",
      "pitch": "G4",
      "midi": 67,
      "start": 157.656,
      "duration": 0.156,
      "velocity": 0.71
    },
    {
      "id": "n-03756",
      "pitch": "G4",
      "midi": 67,
      "start": 157.813,
      "duration": 0.156,
      "velocity": 0.71
    },
    {
      "id": "n-03757",
      "pitch": "G4",
      "midi": 67,
      "start": 157.969,
      "duration": 0.156,
      "velocity": 0.71
    },
    {
      "id": "n-03758",
      "pitch": "C3",
      "midi": 48,
      "start": 158.125,
      "duration": 1.563,
      "velocity": 0.71
    },
    {
      "id": "n-03759",
      "pitch": "C3",
      "midi": 48,
      "start": 158.125,
      "duration": 0.313,
      "velocity": 0.71
    },
    {
      "id": "n-03760",
      "pitch": "C3",
      "midi": 48,
      "start": 158.125,
      "duration": 0.313,
      "velocity": 0.71
    },
    {
      "id": "n-03761",
      "pitch": "C4",
      "midi": 60,
      "start": 158.125,
      "duration": 1.563,
      "velocity": 0.71
    },
    {
      "id": "n-03762",
      "pitch": "C4",
      "midi": 60,
      "start": 158.125,
      "duration": 0.313,
      "velocity": 0.71
    },
    {
      "id": "n-03763",
      "pitch": "D#4",
      "midi": 63,
      "start": 158.125,
      "duration": 1.563,
      "velocity": 0.71
    },
    {
      "id": "n-03764",
      "pitch": "C5",
      "midi": 72,
      "start": 158.125,
      "duration": 2.5,
      "velocity": 0.71
    },
    {
      "id": "n-03765",
      "pitch": "G#4",
      "midi": 68,
      "start": 158.281,
      "duration": 0.156,
      "velocity": 0.71
    },
    {
      "id": "n-03766",
      "pitch": "G#4",
      "midi": 68,
      "start": 158.438,
      "duration": 0.156,
      "velocity": 0.71
    },
    {
      "id": "n-03767",
      "pitch": "G#4",
      "midi": 68,
      "start": 158.594,
      "duration": 0.156,
      "velocity": 0.71
    },
    {
      "id": "n-03768",
      "pitch": "G4",
      "midi": 67,
      "start": 158.75,
      "duration": 0.156,
      "velocity": 0.71
    },
    {
      "id": "n-03769",
      "pitch": "D#5",
      "midi": 75,
      "start": 158.906,
      "duration": 0.156,
      "velocity": 0.71
    },
    {
      "id": "n-03770",
      "pitch": "D#5",
      "midi": 75,
      "start": 159.063,
      "duration": 0.156,
      "velocity": 0.71
    },
    {
      "id": "n-03771",
      "pitch": "D#5",
      "midi": 75,
      "start": 159.219,
      "duration": 0.156,
      "velocity": 0.71
    },
    {
      "id": "n-03772",
      "pitch": "C3",
      "midi": 48,
      "start": 159.375,
      "duration": 0.313,
      "velocity": 0.71
    },
    {
      "id": "n-03773",
      "pitch": "C3",
      "midi": 48,
      "start": 159.375,
      "duration": 0.313,
      "velocity": 0.71
    },
    {
      "id": "n-03774",
      "pitch": "C4",
      "midi": 60,
      "start": 159.375,
      "duration": 0.313,
      "velocity": 0.71
    },
    {
      "id": "n-03775",
      "pitch": "D#4",
      "midi": 63,
      "start": 159.375,
      "duration": 1.25,
      "velocity": 0.71
    },
    {
      "id": "n-03776",
      "pitch": "G4",
      "midi": 67,
      "start": 159.375,
      "duration": 1.25,
      "velocity": 0.71
    },
    {
      "id": "n-03777",
      "pitch": "C5",
      "midi": 72,
      "start": 159.375,
      "duration": 0.313,
      "velocity": 0.71
    },
    {
      "id": "n-03778",
      "pitch": "C3",
      "midi": 48,
      "start": 159.688,
      "duration": 0.313,
      "velocity": 0.71
    },
    {
      "id": "n-03779",
      "pitch": "C4",
      "midi": 60,
      "start": 159.688,
      "duration": 0.313,
      "velocity": 0.71
    },
    {
      "id": "n-03780",
      "pitch": "D#3",
      "midi": 51,
      "start": 160,
      "duration": 0.313,
      "velocity": 0.71
    },
    {
      "id": "n-03781",
      "pitch": "D#4",
      "midi": 63,
      "start": 160,
      "duration": 0.313,
      "velocity": 0.71
    },
    {
      "id": "n-03782",
      "pitch": "G4",
      "midi": 67,
      "start": 160.156,
      "duration": 0.156,
      "velocity": 0.71
    },
    {
      "id": "n-03783",
      "pitch": "C3",
      "midi": 48,
      "start": 160.313,
      "duration": 0.313,
      "velocity": 0.71
    },
    {
      "id": "n-03784",
      "pitch": "C4",
      "midi": 60,
      "start": 160.313,
      "duration": 0.313,
      "velocity": 0.71
    },
    {
      "id": "n-03785",
      "pitch": "G4",
      "midi": 67,
      "start": 160.313,
      "duration": 0.156,
      "velocity": 0.71
    },
    {
      "id": "n-03786",
      "pitch": "G4",
      "midi": 67,
      "start": 160.469,
      "duration": 0.156,
      "velocity": 0.71
    },
    {
      "id": "n-03787",
      "pitch": "B2",
      "midi": 47,
      "start": 160.625,
      "duration": 1.563,
      "velocity": 0.71
    },
    {
      "id": "n-03788",
      "pitch": "B2",
      "midi": 47,
      "start": 160.625,
      "duration": 0.313,
      "velocity": 0.71
    },
    {
      "id": "n-03789",
      "pitch": "B2",
      "midi": 47,
      "start": 160.625,
      "duration": 0.313,
      "velocity": 0.71
    },
    {
      "id": "n-03790",
      "pitch": "B3",
      "midi": 59,
      "start": 160.625,
      "duration": 1.563,
      "velocity": 0.71
    },
    {
      "id": "n-03791",
      "pitch": "B3",
      "midi": 59,
      "start": 160.625,
      "duration": 0.313,
      "velocity": 0.71
    },
    {
      "id": "n-03792",
      "pitch": "D4",
      "midi": 62,
      "start": 160.625,
      "duration": 1.563,
      "velocity": 0.71
    },
    {
      "id": "n-03793",
      "pitch": "D4",
      "midi": 62,
      "start": 160.625,
      "duration": 0.313,
      "velocity": 0.71
    },
    {
      "id": "n-03794",
      "pitch": "G4",
      "midi": 67,
      "start": 160.625,
      "duration": 0.313,
      "velocity": 0.71
    },
    {
      "id": "n-03795",
      "pitch": "D5",
      "midi": 74,
      "start": 160.625,
      "duration": 2.5,
      "velocity": 0.71
    },
    {
      "id": "n-03796",
      "pitch": "G#4",
      "midi": 68,
      "start": 160.781,
      "duration": 0.156,
      "velocity": 0.71
    },
    {
      "id": "n-03797",
      "pitch": "G#4",
      "midi": 68,
      "start": 160.938,
      "duration": 0.156,
      "velocity": 0.71
    },
    {
      "id": "n-03798",
      "pitch": "G#4",
      "midi": 68,
      "start": 161.094,
      "duration": 0.156,
      "velocity": 0.71
    },
    {
      "id": "n-03799",
      "pitch": "G4",
      "midi": 67,
      "start": 161.25,
      "duration": 0.156,
      "velocity": 0.71
    },
    {
      "id": "n-03800",
      "pitch": "F5",
      "midi": 77,
      "start": 161.406,
      "duration": 0.156,
      "velocity": 0.71
    },
    {
      "id": "n-03801",
      "pitch": "F5",
      "midi": 77,
      "start": 161.563,
      "duration": 0.156,
      "velocity": 0.71
    },
    {
      "id": "n-03802",
      "pitch": "F5",
      "midi": 77,
      "start": 161.719,
      "duration": 0.156,
      "velocity": 0.71
    },
    {
      "id": "n-03803",
      "pitch": "B2",
      "midi": 47,
      "start": 161.875,
      "duration": 0.313,
      "velocity": 0.71
    },
    {
      "id": "n-03804",
      "pitch": "B2",
      "midi": 47,
      "start": 161.875,
      "duration": 0.313,
      "velocity": 0.71
    },
    {
      "id": "n-03805",
      "pitch": "B3",
      "midi": 59,
      "start": 161.875,
      "duration": 0.313,
      "velocity": 0.71
    },
    {
      "id": "n-03806",
      "pitch": "D4",
      "midi": 62,
      "start": 161.875,
      "duration": 1.25,
      "velocity": 0.71
    },
    {
      "id": "n-03807",
      "pitch": "F4",
      "midi": 65,
      "start": 161.875,
      "duration": 1.25,
      "velocity": 0.71
    },
    {
      "id": "n-03808",
      "pitch": "G4",
      "midi": 67,
      "start": 161.875,
      "duration": 1.25,
      "velocity": 0.71
    },
    {
      "id": "n-03809",
      "pitch": "D5",
      "midi": 74,
      "start": 161.875,
      "duration": 0.781,
      "velocity": 0.71
    },
    {
      "id": "n-03810",
      "pitch": "G2",
      "midi": 43,
      "start": 162.188,
      "duration": 0.313,
      "velocity": 0.71
    },
    {
      "id": "n-03811",
      "pitch": "G3",
      "midi": 55,
      "start": 162.188,
      "duration": 0.313,
      "velocity": 0.71
    },
    {
      "id": "n-03812",
      "pitch": "B2",
      "midi": 47,
      "start": 162.5,
      "duration": 0.313,
      "velocity": 0.71
    },
    {
      "id": "n-03813",
      "pitch": "B3",
      "midi": 59,
      "start": 162.5,
      "duration": 0.313,
      "velocity": 0.71
    },
    {
      "id": "n-03814",
      "pitch": "G5",
      "midi": 79,
      "start": 162.656,
      "duration": 0.156,
      "velocity": 0.71
    },
    {
      "id": "n-03815",
      "pitch": "G2",
      "midi": 43,
      "start": 162.813,
      "duration": 0.313,
      "velocity": 0.71
    },
    {
      "id": "n-03816",
      "pitch": "G3",
      "midi": 55,
      "start": 162.813,
      "duration": 0.313,
      "velocity": 0.71
    },
    {
      "id": "n-03817",
      "pitch": "G5",
      "midi": 79,
      "start": 162.813,
      "duration": 0.156,
      "velocity": 0.71
    },
    {
      "id": "n-03818",
      "pitch": "F5",
      "midi": 77,
      "start": 162.969,
      "duration": 0.156,
      "velocity": 0.71
    },
    {
      "id": "n-03819",
      "pitch": "C3",
      "midi": 48,
      "start": 163.125,
      "duration": 0.625,
      "velocity": 0.71
    },
    {
      "id": "n-03820",
      "pitch": "C3",
      "midi": 48,
      "start": 163.125,
      "duration": 0.313,
      "velocity": 0.71
    },
    {
      "id": "n-03821",
      "pitch": "C3",
      "midi": 48,
      "start": 163.125,
      "duration": 0.313,
      "velocity": 0.71
    },
    {
      "id": "n-03822",
      "pitch": "C4",
      "midi": 60,
      "start": 163.125,
      "duration": 0.625,
      "velocity": 0.71
    },
    {
      "id": "n-03823",
      "pitch": "C4",
      "midi": 60,
      "start": 163.125,
      "duration": 0.313,
      "velocity": 0.71
    },
    {
      "id": "n-03824",
      "pitch": "D#4",
      "midi": 63,
      "start": 163.125,
      "duration": 0.313,
      "velocity": 0.71
    },
    {
      "id": "n-03825",
      "pitch": "D#4",
      "midi": 63,
      "start": 163.125,
      "duration": 0.313,
      "velocity": 0.71
    },
    {
      "id": "n-03826",
      "pitch": "G4",
      "midi": 67,
      "start": 163.125,
      "duration": 0.313,
      "velocity": 0.71
    },
    {
      "id": "n-03827",
      "pitch": "D#5",
      "midi": 75,
      "start": 163.125,
      "duration": 0.625,
      "velocity": 0.71
    },
    {
      "id": "n-03828",
      "pitch": "D#5",
      "midi": 75,
      "start": 163.125,
      "duration": 0.625,
      "velocity": 0.71
    },
    {
      "id": "n-03829",
      "pitch": "D#4",
      "midi": 63,
      "start": 163.281,
      "duration": 0.156,
      "velocity": 0.71
    },
    {
      "id": "n-03830",
      "pitch": "D#4",
      "midi": 63,
      "start": 163.438,
      "duration": 0.156,
      "velocity": 0.71
    },
    {
      "id": "n-03831",
      "pitch": "F4",
      "midi": 65,
      "start": 163.594,
      "duration": 0.156,
      "velocity": 0.71
    },
    {
      "id": "n-03832",
      "pitch": "B2",
      "midi": 47,
      "start": 163.75,
      "duration": 0.625,
      "velocity": 0.71
    },
    {
      "id": "n-03833",
      "pitch": "B2",
      "midi": 47,
      "start": 163.75,
      "duration": 0.313,
      "velocity": 0.71
    },
    {
      "id": "n-03834",
      "pitch": "B2",
      "midi": 47,
      "start": 163.75,
      "duration": 0.313,
      "velocity": 0.71
    },
    {
      "id": "n-03835",
      "pitch": "B3",
      "midi": 59,
      "start": 163.75,
      "duration": 0.625,
      "velocity": 0.71
    },
    {
      "id": "n-03836",
      "pitch": "B3",
      "midi": 59,
      "start": 163.75,
      "duration": 0.313,
      "velocity": 0.71
    },
    {
      "id": "n-03837",
      "pitch": "G4",
      "midi": 67,
      "start": 163.75,
      "duration": 0.781,
      "velocity": 0.71
    },
    {
      "id": "n-03838",
      "pitch": "D5",
      "midi": 74,
      "start": 163.75,
      "duration": 0.625,
      "velocity": 0.71
    },
    {
      "id": "n-03839",
      "pitch": "D5",
      "midi": 74,
      "start": 163.75,
      "duration": 0.156,
      "velocity": 0.71
    },
    {
      "id": "n-03840",
      "pitch": "G5",
      "midi": 79,
      "start": 163.906,
      "duration": 0.156,
      "velocity": 0.71
    },
    {
      "id": "n-03841",
      "pitch": "G5",
      "midi": 79,
      "start": 164.063,
      "duration": 0.156,
      "velocity": 0.71
    },
    {
      "id": "n-03842",
      "pitch": "F5",
      "midi": 77,
      "start": 164.219,
      "duration": 0.156,
      "velocity": 0.71
    },
    {
      "id": "n-03843",
      "pitch": "C3",
      "midi": 48,
      "start": 164.375,
      "duration": 0.625,
      "velocity": 0.71
    },
    {
      "id": "n-03844",
      "pitch": "C3",
      "midi": 48,
      "start": 164.375,
      "duration": 0.313,
      "velocity": 0.71
    },
    {
      "id": "n-03845",
      "pitch": "C3",
      "midi": 48,
      "start": 164.375,
      "duration": 0.313,
      "velocity": 0.71
    },
    {
      "id": "n-03846",
      "pitch": "C4",
      "midi": 60,
      "start": 164.375,
      "duration": 0.625,
      "velocity": 0.71
    },
    {
      "id": "n-03847",
      "pitch": "C5",
      "midi": 72,
      "start": 164.375,
      "duration": 0.625,
      "velocity": 0.71
    },
    {
      "id": "n-03848",
      "pitch": "D#5",
      "midi": 75,
      "start": 164.375,
      "duration": 0.625,
      "velocity": 0.71
    },
    {
      "id": "n-03849",
      "pitch": "D#3",
      "midi": 51,
      "start": 164.531,
      "duration": 0.156,
      "velocity": 0.71
    },
    {
      "id": "n-03850",
      "pitch": "D#4",
      "midi": 63,
      "start": 164.531,
      "duration": 0.156,
      "velocity": 0.71
    },
    {
      "id": "n-03851",
      "pitch": "D#3",
      "midi": 51,
      "start": 164.688,
      "duration": 0.156,
      "velocity": 0.71
    },
    {
      "id": "n-03852",
      "pitch": "D#4",
      "midi": 63,
      "start": 164.688,
      "duration": 0.156,
      "velocity": 0.71
    },
    {
      "id": "n-03853",
      "pitch": "F3",
      "midi": 53,
      "start": 164.844,
      "duration": 0.156,
      "velocity": 0.71
    },
    {
      "id": "n-03854",
      "pitch": "F4",
      "midi": 65,
      "start": 164.844,
      "duration": 0.156,
      "velocity": 0.71
    },
    {
      "id": "n-03855",
      "pitch": "G2",
      "midi": 43,
      "start": 165,
      "duration": 0.625,
      "velocity": 0.71
    },
    {
      "id": "n-03856",
      "pitch": "G2",
      "midi": 43,
      "start": 165,
      "duration": 0.313,
      "velocity": 0.71
    },
    {
      "id": "n-03857",
      "pitch": "G2",
      "midi": 43,
      "start": 165,
      "duration": 0.313,
      "velocity": 0.71
    },
    {
      "id": "n-03858",
      "pitch": "G3",
      "midi": 55,
      "start": 165,
      "duration": 0.625,
      "velocity": 0.71
    },
    {
      "id": "n-03859",
      "pitch": "G3",
      "midi": 55,
      "start": 165,
      "duration": 0.156,
      "velocity": 0.71
    },
    {
      "id": "n-03860",
      "pitch": "G4",
      "midi": 67,
      "start": 165,
      "duration": 0.156,
      "velocity": 0.71
    },
    {
      "id": "n-03861",
      "pitch": "B4",
      "midi": 71,
      "start": 165,
      "duration": 0.313,
      "velocity": 0.71
    },
    {
      "id": "n-03862",
      "pitch": "D5",
      "midi": 74,
      "start": 165,
      "duration": 0.156,
      "velocity": 0.71
    },
    {
      "id": "n-03863",
      "pitch": "G3",
      "midi": 55,
      "start": 165.156,
      "duration": 0.156,
      "velocity": 0.71
    },
    {
      "id": "n-03864",
      "pitch": "B3",
      "midi": 59,
      "start": 165.156,
      "duration": 0.156,
      "velocity": 0.71
    },
    {
      "id": "n-03865",
      "pitch": "G5",
      "midi": 79,
      "start": 165.156,
      "duration": 0.156,
      "velocity": 0.71
    },
    {
      "id": "n-03866",
      "pitch": "A3",
      "midi": 57,
      "start": 165.313,
      "duration": 0.156,
      "velocity": 0.71
    },
    {
      "id": "n-03867",
      "pitch": "C4",
      "midi": 60,
      "start": 165.313,
      "duration": 0.156,
      "velocity": 0.71
    },
    {
      "id": "n-03868",
      "pitch": "C5",
      "midi": 72,
      "start": 165.313,
      "duration": 0.156,
      "velocity": 0.71
    },
    {
      "id": "n-03869",
      "pitch": "G5",
      "midi": 79,
      "start": 165.313,
      "duration": 0.156,
      "velocity": 0.71
    },
    {
      "id": "n-03870",
      "pitch": "B3",
      "midi": 59,
      "start": 165.469,
      "duration": 0.156,
      "velocity": 0.71
    },
    {
      "id": "n-03871",
      "pitch": "D4",
      "midi": 62,
      "start": 165.469,
      "duration": 0.156,
      "velocity": 0.71
    },
    {
      "id": "n-03872",
      "pitch": "D5",
      "midi": 74,
      "start": 165.469,
      "duration": 0.156,
      "velocity": 0.71
    },
    {
      "id": "n-03873",
      "pitch": "F5",
      "midi": 77,
      "start": 165.469,
      "duration": 0.156,
      "velocity": 0.71
    },
    {
      "id": "n-03874",
      "pitch": "C3",
      "midi": 48,
      "start": 165.625,
      "duration": 0.625,
      "velocity": 0.71
    },
    {
      "id": "n-03875",
      "pitch": "C3",
      "midi": 48,
      "start": 165.625,
      "duration": 0.313,
      "velocity": 0.71
    },
    {
      "id": "n-03876",
      "pitch": "C3",
      "midi": 48,
      "start": 165.625,
      "duration": 0.313,
      "velocity": 0.71
    },
    {
      "id": "n-03877",
      "pitch": "C4",
      "midi": 60,
      "start": 165.625,
      "duration": 0.625,
      "velocity": 0.71
    },
    {
      "id": "n-03878",
      "pitch": "C4",
      "midi": 60,
      "start": 165.625,
      "duration": 0.313,
      "velocity": 0.71
    },
    {
      "id": "n-03879",
      "pitch": "D#4",
      "midi": 63,
      "start": 165.625,
      "duration": 0.313,
      "velocity": 0.71
    },
    {
      "id": "n-03880",
      "pitch": "D#5",
      "midi": 75,
      "start": 165.625,
      "duration": 0.625,
      "velocity": 0.71
    },
    {
      "id": "n-03881",
      "pitch": "D#5",
      "midi": 75,
      "start": 165.625,
      "duration": 0.313,
      "velocity": 0.71
    },
    {
      "id": "n-03882",
      "pitch": "G#2",
      "midi": 44,
      "start": 166.25,
      "duration": 0.625,
      "velocity": 0.71
    },
    {
      "id": "n-03883",
      "pitch": "G#2",
      "midi": 44,
      "start": 166.25,
      "duration": 0.313,
      "velocity": 0.71
    },
    {
      "id": "n-03884",
      "pitch": "G#2",
      "midi": 44,
      "start": 166.25,
      "duration": 0.313,
      "velocity": 0.71
    },
    {
      "id": "n-03885",
      "pitch": "C3",
      "midi": 48,
      "start": 166.25,
      "duration": 0.313,
      "velocity": 0.71
    },
    {
      "id": "n-03886",
      "pitch": "G#3",
      "midi": 56,
      "start": 166.25,
      "duration": 0.625,
      "velocity": 0.71
    },
    {
      "id": "n-03887",
      "pitch": "G#3",
      "midi": 56,
      "start": 166.25,
      "duration": 0.313,
      "velocity": 0.71
    },
    {
      "id": "n-03888",
      "pitch": "G#3",
      "midi": 56,
      "start": 166.25,
      "duration": 0.313,
      "velocity": 0.71
    },
    {
      "id": "n-03889",
      "pitch": "G#3",
      "midi": 56,
      "start": 166.25,
      "duration": 0.313,
      "velocity": 0.71
    },
    {
      "id": "n-03890",
      "pitch": "C4",
      "midi": 60,
      "start": 166.25,
      "duration": 0.625,
      "velocity": 0.71
    },
    {
      "id": "n-03891",
      "pitch": "C4",
      "midi": 60,
      "start": 166.25,
      "duration": 0.313,
      "velocity": 0.71
    },
    {
      "id": "n-03892",
      "pitch": "F#4",
      "midi": 66,
      "start": 166.25,
      "duration": 0.625,
      "velocity": 0.71
    },
    {
      "id": "n-03893",
      "pitch": "F#4",
      "midi": 66,
      "start": 166.25,
      "duration": 0.313,
      "velocity": 0.71
    },
    {
      "id": "n-03894",
      "pitch": "F#4",
      "midi": 66,
      "start": 166.25,
      "duration": 0.313,
      "velocity": 0.71
    },
    {
      "id": "n-03895",
      "pitch": "C5",
      "midi": 72,
      "start": 166.25,
      "duration": 0.625,
      "velocity": 0.71
    },
    {
      "id": "n-03896",
      "pitch": "C5",
      "midi": 72,
      "start": 166.25,
      "duration": 0.313,
      "velocity": 0.71
    },
    {
      "id": "n-03897",
      "pitch": "C5",
      "midi": 72,
      "start": 166.25,
      "duration": 0.313,
      "velocity": 0.71
    },
    {
      "id": "n-03898",
      "pitch": "C5",
      "midi": 72,
      "start": 166.25,
      "duration": 0.313,
      "velocity": 0.71
    },
    {
      "id": "n-03899",
      "pitch": "F#5",
      "midi": 78,
      "start": 166.25,
      "duration": 0.625,
      "velocity": 0.71
    },
    {
      "id": "n-03900",
      "pitch": "C6",
      "midi": 84,
      "start": 166.25,
      "duration": 0.625,
      "velocity": 0.71
    },
    {
      "id": "n-03901",
      "pitch": "G2",
      "midi": 43,
      "start": 166.875,
      "duration": 0.313,
      "velocity": 0.71
    },
    {
      "id": "n-03902",
      "pitch": "G2",
      "midi": 43,
      "start": 166.875,
      "duration": 0.313,
      "velocity": 0.71
    },
    {
      "id": "n-03903",
      "pitch": "G2",
      "midi": 43,
      "start": 166.875,
      "duration": 0.313,
      "velocity": 0.71
    },
    {
      "id": "n-03904",
      "pitch": "G2",
      "midi": 43,
      "start": 166.875,
      "duration": 0.313,
      "velocity": 0.71
    },
    {
      "id": "n-03905",
      "pitch": "G3",
      "midi": 55,
      "start": 166.875,
      "duration": 0.313,
      "velocity": 0.71
    },
    {
      "id": "n-03906",
      "pitch": "G3",
      "midi": 55,
      "start": 166.875,
      "duration": 0.313,
      "velocity": 0.71
    },
    {
      "id": "n-03907",
      "pitch": "G3",
      "midi": 55,
      "start": 166.875,
      "duration": 0.313,
      "velocity": 0.71
    },
    {
      "id": "n-03908",
      "pitch": "G3",
      "midi": 55,
      "start": 166.875,
      "duration": 0.313,
      "velocity": 0.71
    },
    {
      "id": "n-03909",
      "pitch": "G3",
      "midi": 55,
      "start": 166.875,
      "duration": 0.313,
      "velocity": 0.71
    },
    {
      "id": "n-03910",
      "pitch": "B3",
      "midi": 59,
      "start": 166.875,
      "duration": 0.313,
      "velocity": 0.71
    },
    {
      "id": "n-03911",
      "pitch": "D4",
      "midi": 62,
      "start": 166.875,
      "duration": 0.313,
      "velocity": 0.71
    },
    {
      "id": "n-03912",
      "pitch": "D4",
      "midi": 62,
      "start": 166.875,
      "duration": 0.313,
      "velocity": 0.71
    },
    {
      "id": "n-03913",
      "pitch": "G4",
      "midi": 67,
      "start": 166.875,
      "duration": 0.313,
      "velocity": 0.71
    },
    {
      "id": "n-03914",
      "pitch": "G4",
      "midi": 67,
      "start": 166.875,
      "duration": 0.313,
      "velocity": 0.71
    },
    {
      "id": "n-03915",
      "pitch": "B4",
      "midi": 71,
      "start": 166.875,
      "duration": 0.313,
      "velocity": 0.71
    },
    {
      "id": "n-03916",
      "pitch": "B4",
      "midi": 71,
      "start": 166.875,
      "duration": 0.313,
      "velocity": 0.71
    },
    {
      "id": "n-03917",
      "pitch": "G5",
      "midi": 79,
      "start": 166.875,
      "duration": 0.625,
      "velocity": 0.71
    },
    {
      "id": "n-03918",
      "pitch": "G5",
      "midi": 79,
      "start": 166.875,
      "duration": 0.313,
      "velocity": 0.71
    },
    {
      "id": "n-03919",
      "pitch": "G5",
      "midi": 79,
      "start": 166.875,
      "duration": 0.313,
      "velocity": 0.71
    },
    {
      "id": "n-03920",
      "pitch": "G5",
      "midi": 79,
      "start": 166.875,
      "duration": 0.313,
      "velocity": 0.71
    },
    {
      "id": "n-03921",
      "pitch": "B5",
      "midi": 83,
      "start": 166.875,
      "duration": 0.313,
      "velocity": 0.71
    },
    {
      "id": "n-03922",
      "pitch": "F5",
      "midi": 77,
      "start": 167.5,
      "duration": 0.313,
      "velocity": 0.71
    },
    {
      "id": "n-03923",
      "pitch": "D#5",
      "midi": 75,
      "start": 167.813,
      "duration": 0.313,
      "velocity": 0.71
    },
    {
      "id": "n-03924",
      "pitch": "D5",
      "midi": 74,
      "start": 168.125,
      "duration": 0.625,
      "velocity": 0.71
    },
    {
      "id": "n-03925",
      "pitch": "D#5",
      "midi": 75,
      "start": 168.75,
      "duration": 0.078,
      "velocity": 0.71
    },
    {
      "id": "n-03926",
      "pitch": "D5",
      "midi": 74,
      "start": 168.828,
      "duration": 0.078,
      "velocity": 0.71
    },
    {
      "id": "n-03927",
      "pitch": "C5",
      "midi": 72,
      "start": 168.906,
      "duration": 0.078,
      "velocity": 0.71
    },
    {
      "id": "n-03928",
      "pitch": "D5",
      "midi": 74,
      "start": 168.984,
      "duration": 0.078,
      "velocity": 0.71
    },
    {
      "id": "n-03929",
      "pitch": "F5",
      "midi": 77,
      "start": 169.063,
      "duration": 0.313,
      "velocity": 0.71
    },
    {
      "id": "n-03930",
      "pitch": "D#5",
      "midi": 75,
      "start": 169.375,
      "duration": 0.313,
      "velocity": 0.71
    },
    {
      "id": "n-03931",
      "pitch": "D5",
      "midi": 74,
      "start": 169.688,
      "duration": 0.313,
      "velocity": 0.71
    },
    {
      "id": "n-03932",
      "pitch": "G#4",
      "midi": 68,
      "start": 170.781,
      "duration": 0.156,
      "velocity": 0.71
    },
    {
      "id": "n-03933",
      "pitch": "G#4",
      "midi": 68,
      "start": 170.938,
      "duration": 0.156,
      "velocity": 0.71
    },
    {
      "id": "n-03934",
      "pitch": "G#4",
      "midi": 68,
      "start": 171.094,
      "duration": 0.156,
      "velocity": 0.71
    },
    {
      "id": "n-03935",
      "pitch": "F4",
      "midi": 65,
      "start": 171.25,
      "duration": 1.875,
      "velocity": 0.71
    },
    {
      "id": "n-03936",
      "pitch": "D5",
      "midi": 74,
      "start": 171.25,
      "duration": 1.875,
      "velocity": 0.71
    },
    {
      "id": "n-03937",
      "pitch": "F5",
      "midi": 77,
      "start": 171.25,
      "duration": 1.875,
      "velocity": 0.71
    },
    {
      "id": "n-03938",
      "pitch": "D4",
      "midi": 62,
      "start": 171.406,
      "duration": 0.156,
      "velocity": 0.71
    },
    {
      "id": "n-03939",
      "pitch": "D4",
      "midi": 62,
      "start": 171.563,
      "duration": 0.156,
      "velocity": 0.71
    },
    {
      "id": "n-03940",
      "pitch": "D4",
      "midi": 62,
      "start": 171.719,
      "duration": 0.156,
      "velocity": 0.71
    },
    {
      "id": "n-03941",
      "pitch": "B3",
      "midi": 59,
      "start": 171.875,
      "duration": 1.25,
      "velocity": 0.71
    },
    {
      "id": "n-03942",
      "pitch": "G#3",
      "midi": 56,
      "start": 172.031,
      "duration": 0.156,
      "velocity": 0.71
    },
    {
      "id": "n-03943",
      "pitch": "G#3",
      "midi": 56,
      "start": 172.188,
      "duration": 0.156,
      "velocity": 0.71
    },
    {
      "id": "n-03944",
      "pitch": "G#3",
      "midi": 56,
      "start": 172.344,
      "duration": 0.156,
      "velocity": 0.71
    },
    {
      "id": "n-03945",
      "pitch": "G3",
      "midi": 55,
      "start": 172.5,
      "duration": 0.625,
      "velocity": 0.71
    },
    {
      "id": "n-03946",
      "pitch": "G2",
      "midi": 43,
      "start": 172.656,
      "duration": 0.156,
      "velocity": 0.71
    },
    {
      "id": "n-03947",
      "pitch": "G2",
      "midi": 43,
      "start": 172.656,
      "duration": 0.156,
      "velocity": 0.71
    },
    {
      "id": "n-03948",
      "pitch": "G2",
      "midi": 43,
      "start": 172.813,
      "duration": 0.156,
      "velocity": 0.71
    },
    {
      "id": "n-03949",
      "pitch": "G2",
      "midi": 43,
      "start": 172.813,
      "duration": 0.156,
      "velocity": 0.71
    },
    {
      "id": "n-03950",
      "pitch": "G2",
      "midi": 43,
      "start": 172.969,
      "duration": 0.156,
      "velocity": 0.71
    },
    {
      "id": "n-03951",
      "pitch": "G2",
      "midi": 43,
      "start": 172.969,
      "duration": 0.156,
      "velocity": 0.71
    },
    {
      "id": "n-03952",
      "pitch": "C3",
      "midi": 48,
      "start": 173.125,
      "duration": 0.156,
      "velocity": 0.71
    },
    {
      "id": "n-03953",
      "pitch": "C3",
      "midi": 48,
      "start": 173.125,
      "duration": 0.156,
      "velocity": 0.71
    },
    {
      "id": "n-03954",
      "pitch": "G3",
      "midi": 55,
      "start": 173.125,
      "duration": 0.156,
      "velocity": 0.71
    },
    {
      "id": "n-03955",
      "pitch": "C4",
      "midi": 60,
      "start": 173.125,
      "duration": 0.156,
      "velocity": 0.71
    },
    {
      "id": "n-03956",
      "pitch": "D#4",
      "midi": 63,
      "start": 173.125,
      "duration": 0.156,
      "velocity": 0.71
    },
    {
      "id": "n-03957",
      "pitch": "C5",
      "midi": 72,
      "start": 173.125,
      "duration": 0.313,
      "velocity": 0.71
    },
    {
      "id": "n-03958",
      "pitch": "D#5",
      "midi": 75,
      "start": 173.125,
      "duration": 0.313,
      "velocity": 0.71
    },
    {
      "id": "n-03959",
      "pitch": "G#3",
      "midi": 56,
      "start": 173.281,
      "duration": 0.156,
      "velocity": 0.71
    },
    {
      "id": "n-03960",
      "pitch": "G#3",
      "midi": 56,
      "start": 173.281,
      "duration": 0.156,
      "velocity": 0.71
    },
    {
      "id": "n-03961",
      "pitch": "G#3",
      "midi": 56,
      "start": 173.281,
      "duration": 0.156,
      "velocity": 0.71
    },
    {
      "id": "n-03962",
      "pitch": "G#4",
      "midi": 68,
      "start": 173.281,
      "duration": 0.156,
      "velocity": 0.71
    },
    {
      "id": "n-03963",
      "pitch": "G#4",
      "midi": 68,
      "start": 173.281,
      "duration": 0.156,
      "velocity": 0.71
    },
    {
      "id": "n-03964",
      "pitch": "G#3",
      "midi": 56,
      "start": 173.438,
      "duration": 0.156,
      "velocity": 0.71
    },
    {
      "id": "n-03965",
      "pitch": "G#3",
      "midi": 56,
      "start": 173.438,
      "duration": 0.156,
      "velocity": 0.71
    },
    {
      "id": "n-03966",
      "pitch": "G#3",
      "midi": 56,
      "start": 173.438,
      "duration": 0.156,
      "velocity": 0.71
    },
    {
      "id": "n-03967",
      "pitch": "G#4",
      "midi": 68,
      "start": 173.438,
      "duration": 0.156,
      "velocity": 0.71
    },
    {
      "id": "n-03968",
      "pitch": "G#4",
      "midi": 68,
      "start": 173.438,
      "duration": 0.156,
      "velocity": 0.71
    },
    {
      "id": "n-03969",
      "pitch": "G#3",
      "midi": 56,
      "start": 173.594,
      "duration": 0.156,
      "velocity": 0.71
    },
    {
      "id": "n-03970",
      "pitch": "G#3",
      "midi": 56,
      "start": 173.594,
      "duration": 0.156,
      "velocity": 0.71
    },
    {
      "id": "n-03971",
      "pitch": "G#3",
      "midi": 56,
      "start": 173.594,
      "duration": 0.156,
      "velocity": 0.71
    },
    {
      "id": "n-03972",
      "pitch": "G#4",
      "midi": 68,
      "start": 173.594,
      "duration": 0.156,
      "velocity": 0.71
    },
    {
      "id": "n-03973",
      "pitch": "G#4",
      "midi": 68,
      "start": 173.594,
      "duration": 0.156,
      "velocity": 0.71
    },
    {
      "id": "n-03974",
      "pitch": "F3",
      "midi": 53,
      "start": 173.75,
      "duration": 0.156,
      "velocity": 0.71
    },
    {
      "id": "n-03975",
      "pitch": "F3",
      "midi": 53,
      "start": 173.75,
      "duration": 0.156,
      "velocity": 0.71
    },
    {
      "id": "n-03976",
      "pitch": "F3",
      "midi": 53,
      "start": 173.75,
      "duration": 0.156,
      "velocity": 0.71
    },
    {
      "id": "n-03977",
      "pitch": "D4",
      "midi": 62,
      "start": 173.75,
      "duration": 1.875,
      "velocity": 0.71
    },
    {
      "id": "n-03978",
      "pitch": "F4",
      "midi": 65,
      "start": 173.75,
      "duration": 1.875,
      "velocity": 0.71
    },
    {
      "id": "n-03979",
      "pitch": "F4",
      "midi": 65,
      "start": 173.75,
      "duration": 0.156,
      "velocity": 0.71
    },
    {
      "id": "n-03980",
      "pitch": "F4",
      "midi": 65,
      "start": 173.75,
      "duration": 0.156,
      "velocity": 0.71
    },
    {
      "id": "n-03981",
      "pitch": "D3",
      "midi": 50,
      "start": 173.906,
      "duration": 0.156,
      "velocity": 0.71
    },
    {
      "id": "n-03982",
      "pitch": "D3",
      "midi": 50,
      "start": 173.906,
      "duration": 0.156,
      "velocity": 0.71
    },
    {
      "id": "n-03983",
      "pitch": "D3",
      "midi": 50,
      "start": 173.906,
      "duration": 0.156,
      "velocity": 0.71
    },
    {
      "id": "n-03984",
      "pitch": "D4",
      "midi": 62,
      "start": 173.906,
      "duration": 0.156,
      "velocity": 0.71
    },
    {
      "id": "n-03985",
      "pitch": "D4",
      "midi": 62,
      "start": 173.906,
      "duration": 0.156,
      "velocity": 0.71
    },
    {
      "id": "n-03986",
      "pitch": "D3",
      "midi": 50,
      "start": 174.063,
      "duration": 0.156,
      "velocity": 0.71
    },
    {
      "id": "n-03987",
      "pitch": "D3",
      "midi": 50,
      "start": 174.063,
      "duration": 0.156,
      "velocity": 0.71
    },
    {
      "id": "n-03988",
      "pitch": "D3",
      "midi": 50,
      "start": 174.063,
      "duration": 0.156,
      "velocity": 0.71
    },
    {
      "id": "n-03989",
      "pitch": "D4",
      "midi": 62,
      "start": 174.063,
      "duration": 0.156,
      "velocity": 0.71
    },
    {
      "id": "n-03990",
      "pitch": "D4",
      "midi": 62,
      "start": 174.063,
      "duration": 0.156,
      "velocity": 0.71
    },
    {
      "id": "n-03991",
      "pitch": "D3",
      "midi": 50,
      "start": 174.219,
      "duration": 0.156,
      "velocity": 0.71
    },
    {
      "id": "n-03992",
      "pitch": "D3",
      "midi": 50,
      "start": 174.219,
      "duration": 0.156,
      "velocity": 0.71
    },
    {
      "id": "n-03993",
      "pitch": "D3",
      "midi": 50,
      "start": 174.219,
      "duration": 0.156,
      "velocity": 0.71
    },
    {
      "id": "n-03994",
      "pitch": "D4",
      "midi": 62,
      "start": 174.219,
      "duration": 0.156,
      "velocity": 0.71
    },
    {
      "id": "n-03995",
      "pitch": "D4",
      "midi": 62,
      "start": 174.219,
      "duration": 0.156,
      "velocity": 0.71
    },
    {
      "id": "n-03996",
      "pitch": "B2",
      "midi": 47,
      "start": 174.375,
      "duration": 0.156,
      "velocity": 0.71
    },
    {
      "id": "n-03997",
      "pitch": "B2",
      "midi": 47,
      "start": 174.375,
      "duration": 0.156,
      "velocity": 0.71
    },
    {
      "id": "n-03998",
      "pitch": "B3",
      "midi": 59,
      "start": 174.375,
      "duration": 0.156,
      "velocity": 0.71
    },
    {
      "id": "n-03999",
      "pitch": "B3",
      "midi": 59,
      "start": 174.375,
      "duration": 0.156,
      "velocity": 0.71
    },
    {
      "id": "n-04000",
      "pitch": "B3",
      "midi": 59,
      "start": 174.375,
      "duration": 0.156,
      "velocity": 0.71
    },
    {
      "id": "n-04001",
      "pitch": "B4",
      "midi": 71,
      "start": 174.375,
      "duration": 1.25,
      "velocity": 0.71
    },
    {
      "id": "n-04002",
      "pitch": "B5",
      "midi": 83,
      "start": 174.375,
      "duration": 1.25,
      "velocity": 0.71
    },
    {
      "id": "n-04003",
      "pitch": "G#2",
      "midi": 44,
      "start": 174.531,
      "duration": 0.156,
      "velocity": 0.71
    },
    {
      "id": "n-04004",
      "pitch": "G#2",
      "midi": 44,
      "start": 174.531,
      "duration": 0.156,
      "velocity": 0.71
    },
    {
      "id": "n-04005",
      "pitch": "G#3",
      "midi": 56,
      "start": 174.531,
      "duration": 0.156,
      "velocity": 0.71
    },
    {
      "id": "n-04006",
      "pitch": "G#3",
      "midi": 56,
      "start": 174.531,
      "duration": 0.156,
      "velocity": 0.71
    },
    {
      "id": "n-04007",
      "pitch": "G#3",
      "midi": 56,
      "start": 174.531,
      "duration": 0.156,
      "velocity": 0.71
    },
    {
      "id": "n-04008",
      "pitch": "G#2",
      "midi": 44,
      "start": 174.688,
      "duration": 0.156,
      "velocity": 0.71
    },
    {
      "id": "n-04009",
      "pitch": "G#2",
      "midi": 44,
      "start": 174.688,
      "duration": 0.156,
      "velocity": 0.71
    },
    {
      "id": "n-04010",
      "pitch": "G#3",
      "midi": 56,
      "start": 174.688,
      "duration": 0.156,
      "velocity": 0.71
    },
    {
      "id": "n-04011",
      "pitch": "G#3",
      "midi": 56,
      "start": 174.688,
      "duration": 0.156,
      "velocity": 0.71
    },
    {
      "id": "n-04012",
      "pitch": "G#3",
      "midi": 56,
      "start": 174.688,
      "duration": 0.156,
      "velocity": 0.71
    },
    {
      "id": "n-04013",
      "pitch": "G#2",
      "midi": 44,
      "start": 174.844,
      "duration": 0.156,
      "velocity": 0.71
    },
    {
      "id": "n-04014",
      "pitch": "G#2",
      "midi": 44,
      "start": 174.844,
      "duration": 0.156,
      "velocity": 0.71
    },
    {
      "id": "n-04015",
      "pitch": "G#3",
      "midi": 56,
      "start": 174.844,
      "duration": 0.156,
      "velocity": 0.71
    },
    {
      "id": "n-04016",
      "pitch": "G#3",
      "midi": 56,
      "start": 174.844,
      "duration": 0.156,
      "velocity": 0.71
    },
    {
      "id": "n-04017",
      "pitch": "G#3",
      "midi": 56,
      "start": 174.844,
      "duration": 0.156,
      "velocity": 0.71
    },
    {
      "id": "n-04018",
      "pitch": "G2",
      "midi": 43,
      "start": 175,
      "duration": 0.156,
      "velocity": 0.71
    },
    {
      "id": "n-04019",
      "pitch": "G2",
      "midi": 43,
      "start": 175,
      "duration": 0.156,
      "velocity": 0.71
    },
    {
      "id": "n-04020",
      "pitch": "G3",
      "midi": 55,
      "start": 175,
      "duration": 0.625,
      "velocity": 0.71
    },
    {
      "id": "n-04021",
      "pitch": "G3",
      "midi": 55,
      "start": 175,
      "duration": 0.156,
      "velocity": 0.71
    },
    {
      "id": "n-04022",
      "pitch": "G3",
      "midi": 55,
      "start": 175,
      "duration": 0.156,
      "velocity": 0.71
    },
    {
      "id": "n-04023",
      "pitch": "G3",
      "midi": 55,
      "start": 175.156,
      "duration": 0.156,
      "velocity": 0.71
    },
    {
      "id": "n-04024",
      "pitch": "G3",
      "midi": 55,
      "start": 175.156,
      "duration": 0.156,
      "velocity": 0.71
    },
    {
      "id": "n-04025",
      "pitch": "D4",
      "midi": 62,
      "start": 175.156,
      "duration": 0.156,
      "velocity": 0.71
    },
    {
      "id": "n-04026",
      "pitch": "B4",
      "midi": 71,
      "start": 175.156,
      "duration": 0.156,
      "velocity": 0.71
    },
    {
      "id": "n-04027",
      "pitch": "G3",
      "midi": 55,
      "start": 175.313,
      "duration": 0.156,
      "velocity": 0.71
    },
    {
      "id": "n-04028",
      "pitch": "G3",
      "midi": 55,
      "start": 175.313,
      "duration": 0.156,
      "velocity": 0.71
    },
    {
      "id": "n-04029",
      "pitch": "D4",
      "midi": 62,
      "start": 175.313,
      "duration": 0.156,
      "velocity": 0.71
    },
    {
      "id": "n-04030",
      "pitch": "B4",
      "midi": 71,
      "start": 175.313,
      "duration": 0.156,
      "velocity": 0.71
    },
    {
      "id": "n-04031",
      "pitch": "G3",
      "midi": 55,
      "start": 175.469,
      "duration": 0.156,
      "velocity": 0.71
    },
    {
      "id": "n-04032",
      "pitch": "G3",
      "midi": 55,
      "start": 175.469,
      "duration": 0.156,
      "velocity": 0.71
    },
    {
      "id": "n-04033",
      "pitch": "D4",
      "midi": 62,
      "start": 175.469,
      "duration": 0.156,
      "velocity": 0.71
    },
    {
      "id": "n-04034",
      "pitch": "B4",
      "midi": 71,
      "start": 175.469,
      "duration": 0.156,
      "velocity": 0.71
    },
    {
      "id": "n-04035",
      "pitch": "C3",
      "midi": 48,
      "start": 175.625,
      "duration": 0.625,
      "velocity": 0.71
    },
    {
      "id": "n-04036",
      "pitch": "C3",
      "midi": 48,
      "start": 175.625,
      "duration": 0.625,
      "velocity": 0.71
    },
    {
      "id": "n-04037",
      "pitch": "G3",
      "midi": 55,
      "start": 175.625,
      "duration": 0.156,
      "velocity": 0.71
    },
    {
      "id": "n-04038",
      "pitch": "C4",
      "midi": 60,
      "start": 175.625,
      "duration": 0.313,
      "velocity": 0.71
    },
    {
      "id": "n-04039",
      "pitch": "D#4",
      "midi": 63,
      "start": 175.625,
      "duration": 0.313,
      "velocity": 0.71
    },
    {
      "id": "n-04040",
      "pitch": "D#4",
      "midi": 63,
      "start": 175.625,
      "duration": 0.156,
      "velocity": 0.71
    },
    {
      "id": "n-04041",
      "pitch": "C5",
      "midi": 72,
      "start": 175.625,
      "duration": 0.313,
      "velocity": 0.71
    },
    {
      "id": "n-04042",
      "pitch": "C5",
      "midi": 72,
      "start": 175.625,
      "duration": 0.156,
      "velocity": 0.71
    },
    {
      "id": "n-04043",
      "pitch": "C6",
      "midi": 84,
      "start": 175.625,
      "duration": 0.313,
      "velocity": 0.71
    },
    {
      "id": "n-04044",
      "pitch": "C4",
      "midi": 60,
      "start": 175.781,
      "duration": 0.156,
      "velocity": 0.71
    },
    {
      "id": "n-04045",
      "pitch": "D#4",
      "midi": 63,
      "start": 175.781,
      "duration": 0.156,
      "velocity": 0.71
    },
    {
      "id": "n-04046",
      "pitch": "G4",
      "midi": 67,
      "start": 175.781,
      "duration": 0.156,
      "velocity": 0.71
    },
    {
      "id": "n-04047",
      "pitch": "D#4",
      "midi": 63,
      "start": 175.938,
      "duration": 0.156,
      "velocity": 0.71
    },
    {
      "id": "n-04048",
      "pitch": "G4",
      "midi": 67,
      "start": 175.938,
      "duration": 0.156,
      "velocity": 0.71
    },
    {
      "id": "n-04049",
      "pitch": "C5",
      "midi": 72,
      "start": 175.938,
      "duration": 0.156,
      "velocity": 0.71
    },
    {
      "id": "n-04050",
      "pitch": "D#4",
      "midi": 63,
      "start": 176.094,
      "duration": 0.156,
      "velocity": 0.71
    },
    {
      "id": "n-04051",
      "pitch": "G4",
      "midi": 67,
      "start": 176.094,
      "duration": 0.156,
      "velocity": 0.71
    },
    {
      "id": "n-04052",
      "pitch": "C5",
      "midi": 72,
      "start": 176.094,
      "duration": 0.156,
      "velocity": 0.71
    },
    {
      "id": "n-04053",
      "pitch": "C3",
      "midi": 48,
      "start": 176.25,
      "duration": 1.25,
      "velocity": 0.71
    },
    {
      "id": "n-04054",
      "pitch": "C3",
      "midi": 48,
      "start": 176.25,
      "duration": 1.25,
      "velocity": 0.71
    },
    {
      "id": "n-04055",
      "pitch": "C3",
      "midi": 48,
      "start": 176.25,
      "duration": 0.313,
      "velocity": 0.71
    },
    {
      "id": "n-04056",
      "pitch": "C4",
      "midi": 60,
      "start": 176.25,
      "duration": 0.313,
      "velocity": 0.71
    },
    {
      "id": "n-04057",
      "pitch": "D4",
      "midi": 62,
      "start": 176.25,
      "duration": 0.781,
      "velocity": 0.71
    },
    {
      "id": "n-04058",
      "pitch": "F4",
      "midi": 65,
      "start": 176.25,
      "duration": 0.781,
      "velocity": 0.71
    },
    {
      "id": "n-04059",
      "pitch": "C5",
      "midi": 72,
      "start": 176.25,
      "duration": 0.625,
      "velocity": 0.71
    },
    {
      "id": "n-04060",
      "pitch": "C5",
      "midi": 72,
      "start": 176.25,
      "duration": 0.313,
      "velocity": 0.71
    },
    {
      "id": "n-04061",
      "pitch": "F4",
      "midi": 65,
      "start": 176.406,
      "duration": 0.156,
      "velocity": 0.71
    },
    {
      "id": "n-04062",
      "pitch": "F4",
      "midi": 65,
      "start": 176.406,
      "duration": 0.156,
      "velocity": 0.71
    },
    {
      "id": "n-04063",
      "pitch": "G#4",
      "midi": 68,
      "start": 176.406,
      "duration": 0.156,
      "velocity": 0.71
    },
    {
      "id": "n-04064",
      "pitch": "G#4",
      "midi": 68,
      "start": 176.406,
      "duration": 0.156,
      "velocity": 0.71
    },
    {
      "id": "n-04065",
      "pitch": "F4",
      "midi": 65,
      "start": 176.563,
      "duration": 0.156,
      "velocity": 0.71
    },
    {
      "id": "n-04066",
      "pitch": "F4",
      "midi": 65,
      "start": 176.563,
      "duration": 0.156,
      "velocity": 0.71
    },
    {
      "id": "n-04067",
      "pitch": "G#4",
      "midi": 68,
      "start": 176.563,
      "duration": 0.156,
      "velocity": 0.71
    },
    {
      "id": "n-04068",
      "pitch": "G#4",
      "midi": 68,
      "start": 176.563,
      "duration": 0.156,
      "velocity": 0.71
    },
    {
      "id": "n-04069",
      "pitch": "F4",
      "midi": 65,
      "start": 176.719,
      "duration": 0.156,
      "velocity": 0.71
    },
    {
      "id": "n-04070",
      "pitch": "F4",
      "midi": 65,
      "start": 176.719,
      "duration": 0.156,
      "velocity": 0.71
    },
    {
      "id": "n-04071",
      "pitch": "G#4",
      "midi": 68,
      "start": 176.719,
      "duration": 0.156,
      "velocity": 0.71
    },
    {
      "id": "n-04072",
      "pitch": "G#4",
      "midi": 68,
      "start": 176.719,
      "duration": 0.156,
      "velocity": 0.71
    },
    {
      "id": "n-04073",
      "pitch": "F4",
      "midi": 65,
      "start": 176.875,
      "duration": 0.313,
      "velocity": 0.71
    },
    {
      "id": "n-04074",
      "pitch": "F4",
      "midi": 65,
      "start": 176.875,
      "duration": 0.313,
      "velocity": 0.71
    },
    {
      "id": "n-04075",
      "pitch": "G#4",
      "midi": 68,
      "start": 176.875,
      "duration": 0.313,
      "velocity": 0.71
    },
    {
      "id": "n-04076",
      "pitch": "G#4",
      "midi": 68,
      "start": 176.875,
      "duration": 0.313,
      "velocity": 0.71
    },
    {
      "id": "n-04077",
      "pitch": "B4",
      "midi": 71,
      "start": 176.875,
      "duration": 0.156,
      "velocity": 0.71
    },
    {
      "id": "n-04078",
      "pitch": "F5",
      "midi": 77,
      "start": 176.875,
      "duration": 0.313,
      "velocity": 0.71
    },
    {
      "id": "n-04079",
      "pitch": "G#5",
      "midi": 80,
      "start": 176.875,
      "duration": 0.313,
      "velocity": 0.71
    },
    {
      "id": "n-04080",
      "pitch": "F4",
      "midi": 65,
      "start": 177.031,
      "duration": 0.156,
      "velocity": 0.71
    },
    {
      "id": "n-04081",
      "pitch": "G#4",
      "midi": 68,
      "start": 177.031,
      "duration": 0.156,
      "velocity": 0.71
    },
    {
      "id": "n-04082",
      "pitch": "B4",
      "midi": 71,
      "start": 177.031,
      "duration": 0.156,
      "velocity": 0.71
    },
    {
      "id": "n-04083",
      "pitch": "F4",
      "midi": 65,
      "start": 177.188,
      "duration": 0.156,
      "velocity": 0.71
    },
    {
      "id": "n-04084",
      "pitch": "G#4",
      "midi": 68,
      "start": 177.188,
      "duration": 0.156,
      "velocity": 0.71
    },
    {
      "id": "n-04085",
      "pitch": "B4",
      "midi": 71,
      "start": 177.188,
      "duration": 0.156,
      "velocity": 0.71
    },
    {
      "id": "n-04086",
      "pitch": "D4",
      "midi": 62,
      "start": 177.344,
      "duration": 0.156,
      "velocity": 0.71
    },
    {
      "id": "n-04087",
      "pitch": "F4",
      "midi": 65,
      "start": 177.344,
      "duration": 0.156,
      "velocity": 0.71
    },
    {
      "id": "n-04088",
      "pitch": "D5",
      "midi": 74,
      "start": 177.344,
      "duration": 0.156,
      "velocity": 0.71
    },
    {
      "id": "n-04089",
      "pitch": "C3",
      "midi": 48,
      "start": 177.5,
      "duration": 1.25,
      "velocity": 0.71
    },
    {
      "id": "n-04090",
      "pitch": "C3",
      "midi": 48,
      "start": 177.5,
      "duration": 1.25,
      "velocity": 0.71
    },
    {
      "id": "n-04091",
      "pitch": "C3",
      "midi": 48,
      "start": 177.5,
      "duration": 0.313,
      "velocity": 0.71
    },
    {
      "id": "n-04092",
      "pitch": "C4",
      "midi": 60,
      "start": 177.5,
      "duration": 0.313,
      "velocity": 0.71
    },
    {
      "id": "n-04093",
      "pitch": "D#4",
      "midi": 63,
      "start": 177.5,
      "duration": 0.781,
      "velocity": 0.71
    },
    {
      "id": "n-04094",
      "pitch": "G4",
      "midi": 67,
      "start": 177.5,
      "duration": 0.781,
      "velocity": 0.71
    },
    {
      "id": "n-04095",
      "pitch": "C5",
      "midi": 72,
      "start": 177.5,
      "duration": 0.313,
      "velocity": 0.71
    },
    {
      "id": "n-04096",
      "pitch": "D5",
      "midi": 74,
      "start": 177.5,
      "duration": 0.625,
      "velocity": 0.71
    },
    {
      "id": "n-04097",
      "pitch": "D#4",
      "midi": 63,
      "start": 177.656,
      "duration": 0.156,
      "velocity": 0.71
    },
    {
      "id": "n-04098",
      "pitch": "D#4",
      "midi": 63,
      "start": 177.656,
      "duration": 0.156,
      "velocity": 0.71
    },
    {
      "id": "n-04099",
      "pitch": "G4",
      "midi": 67,
      "start": 177.656,
      "duration": 0.156,
      "velocity": 0.71
    },
    {
      "id": "n-04100",
      "pitch": "G4",
      "midi": 67,
      "start": 177.656,
      "duration": 0.156,
      "velocity": 0.71
    },
    {
      "id": "n-04101",
      "pitch": "D#5",
      "midi": 75,
      "start": 177.656,
      "duration": 0.156,
      "velocity": 0.71
    },
    {
      "id": "n-04102",
      "pitch": "G5",
      "midi": 79,
      "start": 177.656,
      "duration": 0.156,
      "velocity": 0.71
    },
    {
      "id": "n-04103",
      "pitch": "D#4",
      "midi": 63,
      "start": 177.813,
      "duration": 0.156,
      "velocity": 0.71
    },
    {
      "id": "n-04104",
      "pitch": "D#4",
      "midi": 63,
      "start": 177.813,
      "duration": 0.156,
      "velocity": 0.71
    },
    {
      "id": "n-04105",
      "pitch": "G4",
      "midi": 67,
      "start": 177.813,
      "duration": 0.156,
      "velocity": 0.71
    },
    {
      "id": "n-04106",
      "pitch": "G4",
      "midi": 67,
      "start": 177.813,
      "duration": 0.156,
      "velocity": 0.71
    },
    {
      "id": "n-04107",
      "pitch": "D#5",
      "midi": 75,
      "start": 177.813,
      "duration": 0.156,
      "velocity": 0.71
    },
    {
      "id": "n-04108",
      "pitch": "G5",
      "midi": 79,
      "start": 177.813,
      "duration": 0.156,
      "velocity": 0.71
    },
    {
      "id": "n-04109",
      "pitch": "D#4",
      "midi": 63,
      "start": 177.969,
      "duration": 0.156,
      "velocity": 0.71
    },
    {
      "id": "n-04110",
      "pitch": "D#4",
      "midi": 63,
      "start": 177.969,
      "duration": 0.156,
      "velocity": 0.71
    },
    {
      "id": "n-04111",
      "pitch": "G4",
      "midi": 67,
      "start": 177.969,
      "duration": 0.156,
      "velocity": 0.71
    },
    {
      "id": "n-04112",
      "pitch": "G4",
      "midi": 67,
      "start": 177.969,
      "duration": 0.156,
      "velocity": 0.71
    },
    {
      "id": "n-04113",
      "pitch": "D#5",
      "midi": 75,
      "start": 177.969,
      "duration": 0.156,
      "velocity": 0.71
    },
    {
      "id": "n-04114",
      "pitch": "G5",
      "midi": 79,
      "start": 177.969,
      "duration": 0.156,
      "velocity": 0.71
    },
    {
      "id": "n-04115",
      "pitch": "D#4",
      "midi": 63,
      "start": 178.125,
      "duration": 0.313,
      "velocity": 0.71
    },
    {
      "id": "n-04116",
      "pitch": "D#4",
      "midi": 63,
      "start": 178.125,
      "duration": 0.313,
      "velocity": 0.71
    },
    {
      "id": "n-04117",
      "pitch": "G4",
      "midi": 67,
      "start": 178.125,
      "duration": 0.313,
      "velocity": 0.71
    },
    {
      "id": "n-04118",
      "pitch": "G4",
      "midi": 67,
      "start": 178.125,
      "duration": 0.313,
      "velocity": 0.71
    },
    {
      "id": "n-04119",
      "pitch": "C5",
      "midi": 72,
      "start": 178.125,
      "duration": 0.156,
      "velocity": 0.71
    },
    {
      "id": "n-04120",
      "pitch": "D#5",
      "midi": 75,
      "start": 178.125,
      "duration": 0.313,
      "velocity": 0.71
    },
    {
      "id": "n-04121",
      "pitch": "G5",
      "midi": 79,
      "start": 178.125,
      "duration": 0.313,
      "velocity": 0.71
    },
    {
      "id": "n-04122",
      "pitch": "D#4",
      "midi": 63,
      "start": 178.281,
      "duration": 0.156,
      "velocity": 0.71
    },
    {
      "id": "n-04123",
      "pitch": "G4",
      "midi": 67,
      "start": 178.281,
      "duration": 0.156,
      "velocity": 0.71
    },
    {
      "id": "n-04124",
      "pitch": "C5",
      "midi": 72,
      "start": 178.281,
      "duration": 0.156,
      "velocity": 0.71
    },
    {
      "id": "n-04125",
      "pitch": "D#4",
      "midi": 63,
      "start": 178.438,
      "duration": 0.156,
      "velocity": 0.71
    },
    {
      "id": "n-04126",
      "pitch": "G4",
      "midi": 67,
      "start": 178.438,
      "duration": 0.156,
      "velocity": 0.71
    },
    {
      "id": "n-04127",
      "pitch": "C5",
      "midi": 72,
      "start": 178.438,
      "duration": 0.156,
      "velocity": 0.71
    },
    {
      "id": "n-04128",
      "pitch": "C4",
      "midi": 60,
      "start": 178.594,
      "duration": 0.156,
      "velocity": 0.71
    },
    {
      "id": "n-04129",
      "pitch": "D#4",
      "midi": 63,
      "start": 178.594,
      "duration": 0.156,
      "velocity": 0.71
    },
    {
      "id": "n-04130",
      "pitch": "D#5",
      "midi": 75,
      "start": 178.594,
      "duration": 0.156,
      "velocity": 0.71
    },
    {
      "id": "n-04131",
      "pitch": "C3",
      "midi": 48,
      "start": 178.75,
      "duration": 0.313,
      "velocity": 0.71
    },
    {
      "id": "n-04132",
      "pitch": "C3",
      "midi": 48,
      "start": 178.75,
      "duration": 0.313,
      "velocity": 0.71
    },
    {
      "id": "n-04133",
      "pitch": "B3",
      "midi": 59,
      "start": 178.75,
      "duration": 0.313,
      "velocity": 0.71
    },
    {
      "id": "n-04134",
      "pitch": "F4",
      "midi": 65,
      "start": 178.75,
      "duration": 0.313,
      "velocity": 0.71
    },
    {
      "id": "n-04135",
      "pitch": "F4",
      "midi": 65,
      "start": 178.75,
      "duration": 0.156,
      "velocity": 0.71
    },
    {
      "id": "n-04136",
      "pitch": "G#4",
      "midi": 68,
      "start": 178.75,
      "duration": 0.313,
      "velocity": 0.71
    },
    {
      "id": "n-04137",
      "pitch": "G#4",
      "midi": 68,
      "start": 178.75,
      "duration": 0.156,
      "velocity": 0.71
    },
    {
      "id": "n-04138",
      "pitch": "D#5",
      "midi": 75,
      "start": 178.75,
      "duration": 0.156,
      "velocity": 0.71
    },
    {
      "id": "n-04139",
      "pitch": "F5",
      "midi": 77,
      "start": 178.75,
      "duration": 0.313,
      "velocity": 0.71
    },
    {
      "id": "n-04140",
      "pitch": "G#5",
      "midi": 80,
      "start": 178.75,
      "duration": 0.313,
      "velocity": 0.71
    },
    {
      "id": "n-04141",
      "pitch": "F4",
      "midi": 65,
      "start": 178.906,
      "duration": 0.156,
      "velocity": 0.71
    },
    {
      "id": "n-04142",
      "pitch": "G#4",
      "midi": 68,
      "start": 178.906,
      "duration": 0.156,
      "velocity": 0.71
    },
    {
      "id": "n-04143",
      "pitch": "D5",
      "midi": 74,
      "start": 178.906,
      "duration": 0.156,
      "velocity": 0.71
    },
    {
      "id": "n-04144",
      "pitch": "F4",
      "midi": 65,
      "start": 179.063,
      "duration": 0.156,
      "velocity": 0.71
    },
    {
      "id": "n-04145",
      "pitch": "G#4",
      "midi": 68,
      "start": 179.063,
      "duration": 0.156,
      "velocity": 0.71
    },
    {
      "id": "n-04146",
      "pitch": "D5",
      "midi": 74,
      "start": 179.063,
      "duration": 0.156,
      "velocity": 0.71
    },
    {
      "id": "n-04147",
      "pitch": "B3",
      "midi": 59,
      "start": 179.219,
      "duration": 0.156,
      "velocity": 0.71
    },
    {
      "id": "n-04148",
      "pitch": "F4",
      "midi": 65,
      "start": 179.219,
      "duration": 0.156,
      "velocity": 0.71
    },
    {
      "id": "n-04149",
      "pitch": "F5",
      "midi": 77,
      "start": 179.219,
      "duration": 0.156,
      "velocity": 0.71
    },
    {
      "id": "n-04150",
      "pitch": "C3",
      "midi": 48,
      "start": 179.375,
      "duration": 0.313,
      "velocity": 0.71
    },
    {
      "id": "n-04151",
      "pitch": "C3",
      "midi": 48,
      "start": 179.375,
      "duration": 0.313,
      "velocity": 0.71
    },
    {
      "id": "n-04152",
      "pitch": "C3",
      "midi": 48,
      "start": 179.375,
      "duration": 0.313,
      "velocity": 0.71
    },
    {
      "id": "n-04153",
      "pitch": "A#3",
      "midi": 58,
      "start": 179.375,
      "duration": 0.313,
      "velocity": 0.71
    },
    {
      "id": "n-04154",
      "pitch": "E4",
      "midi": 64,
      "start": 179.375,
      "duration": 0.313,
      "velocity": 0.71
    },
    {
      "id": "n-04155",
      "pitch": "G4",
      "midi": 67,
      "start": 179.375,
      "duration": 0.313,
      "velocity": 0.71
    },
    {
      "id": "n-04156",
      "pitch": "G4",
      "midi": 67,
      "start": 179.375,
      "duration": 0.156,
      "velocity": 0.71
    },
    {
      "id": "n-04157",
      "pitch": "A#4",
      "midi": 70,
      "start": 179.375,
      "duration": 0.156,
      "velocity": 0.71
    },
    {
      "id": "n-04158",
      "pitch": "E5",
      "midi": 76,
      "start": 179.375,
      "duration": 0.313,
      "velocity": 0.71
    },
    {
      "id": "n-04159",
      "pitch": "F5",
      "midi": 77,
      "start": 179.375,
      "duration": 0.156,
      "velocity": 0.71
    },
    {
      "id": "n-04160",
      "pitch": "G5",
      "midi": 79,
      "start": 179.375,
      "duration": 0.313,
      "velocity": 0.71
    },
    {
      "id": "n-04161",
      "pitch": "C6",
      "midi": 84,
      "start": 179.375,
      "duration": 0.313,
      "velocity": 0.71
    },
    {
      "id": "n-04162",
      "pitch": "G4",
      "midi": 67,
      "start": 179.531,
      "duration": 0.156,
      "velocity": 0.71
    },
    {
      "id": "n-04163",
      "pitch": "A#4",
      "midi": 70,
      "start": 179.531,
      "duration": 0.156,
      "velocity": 0.71
    },
    {
      "id": "n-04164",
      "pitch": "E5",
      "midi": 76,
      "start": 179.531,
      "duration": 0.156,
      "velocity": 0.71
    },
    {
      "id": "n-04165",
      "pitch": "G4",
      "midi": 67,
      "start": 179.688,
      "duration": 0.156,
      "velocity": 0.71
    },
    {
      "id": "n-04166",
      "pitch": "A#4",
      "midi": 70,
      "start": 179.688,
      "duration": 0.156,
      "velocity": 0.71
    },
    {
      "id": "n-04167",
      "pitch": "E5",
      "midi": 76,
      "start": 179.688,
      "duration": 0.156,
      "velocity": 0.71
    },
    {
      "id": "n-04168",
      "pitch": "A#3",
      "midi": 58,
      "start": 179.844,
      "duration": 0.156,
      "velocity": 0.71
    },
    {
      "id": "n-04169",
      "pitch": "G4",
      "midi": 67,
      "start": 179.844,
      "duration": 0.156,
      "velocity": 0.71
    },
    {
      "id": "n-04170",
      "pitch": "G5",
      "midi": 79,
      "start": 179.844,
      "duration": 0.156,
      "velocity": 0.71
    },
    {
      "id": "n-04171",
      "pitch": "C3",
      "midi": 48,
      "start": 180,
      "duration": 0.313,
      "velocity": 0.71
    },
    {
      "id": "n-04172",
      "pitch": "C3",
      "midi": 48,
      "start": 180,
      "duration": 0.313,
      "velocity": 0.71
    },
    {
      "id": "n-04173",
      "pitch": "C3",
      "midi": 48,
      "start": 180,
      "duration": 0.313,
      "velocity": 0.71
    },
    {
      "id": "n-04174",
      "pitch": "G#3",
      "midi": 56,
      "start": 180,
      "duration": 0.313,
      "velocity": 0.71
    },
    {
      "id": "n-04175",
      "pitch": "F4",
      "midi": 65,
      "start": 180,
      "duration": 0.313,
      "velocity": 0.71
    },
    {
      "id": "n-04176",
      "pitch": "G#4",
      "midi": 68,
      "start": 180,
      "duration": 0.313,
      "velocity": 0.71
    },
    {
      "id": "n-04177",
      "pitch": "G#4",
      "midi": 68,
      "start": 180,
      "duration": 0.156,
      "velocity": 0.71
    },
    {
      "id": "n-04178",
      "pitch": "C5",
      "midi": 72,
      "start": 180,
      "duration": 0.156,
      "velocity": 0.71
    },
    {
      "id": "n-04179",
      "pitch": "F5",
      "midi": 77,
      "start": 180,
      "duration": 0.313,
      "velocity": 0.71
    },
    {
      "id": "n-04180",
      "pitch": "G5",
      "midi": 79,
      "start": 180,
      "duration": 0.156,
      "velocity": 0.71
    },
    {
      "id": "n-04181",
      "pitch": "G#5",
      "midi": 80,
      "start": 180,
      "duration": 0.313,
      "velocity": 0.71
    },
    {
      "id": "n-04182",
      "pitch": "C6",
      "midi": 84,
      "start": 180,
      "duration": 0.313,
      "velocity": 0.71
    },
    {
      "id": "n-04183",
      "pitch": "G#3",
      "midi": 56,
      "start": 180.156,
      "duration": 0.156,
      "velocity": 0.71
    },
    {
      "id": "n-04184",
      "pitch": "C4",
      "midi": 60,
      "start": 180.156,
      "duration": 0.156,
      "velocity": 0.71
    },
    {
      "id": "n-04185",
      "pitch": "F5",
      "midi": 77,
      "start": 180.156,
      "duration": 0.156,
      "velocity": 0.71
    },
    {
      "id": "n-04186",
      "pitch": "G#3",
      "midi": 56,
      "start": 180.313,
      "duration": 0.156,
      "velocity": 0.71
    },
    {
      "id": "n-04187",
      "pitch": "C4",
      "midi": 60,
      "start": 180.313,
      "duration": 0.156,
      "velocity": 0.71
    },
    {
      "id": "n-04188",
      "pitch": "F5",
      "midi": 77,
      "start": 180.313,
      "duration": 0.156,
      "velocity": 0.71
    },
    {
      "id": "n-04189",
      "pitch": "F3",
      "midi": 53,
      "start": 180.469,
      "duration": 0.156,
      "velocity": 0.71
    },
    {
      "id": "n-04190",
      "pitch": "G#3",
      "midi": 56,
      "start": 180.469,
      "duration": 0.156,
      "velocity": 0.71
    },
    {
      "id": "n-04191",
      "pitch": "G#5",
      "midi": 80,
      "start": 180.469,
      "duration": 0.156,
      "velocity": 0.71
    },
    {
      "id": "n-04192",
      "pitch": "C3",
      "midi": 48,
      "start": 180.625,
      "duration": 0.313,
      "velocity": 0.71
    },
    {
      "id": "n-04193",
      "pitch": "C3",
      "midi": 48,
      "start": 180.625,
      "duration": 0.313,
      "velocity": 0.71
    },
    {
      "id": "n-04194",
      "pitch": "C3",
      "midi": 48,
      "start": 180.625,
      "duration": 0.313,
      "velocity": 0.71
    },
    {
      "id": "n-04195",
      "pitch": "E3",
      "midi": 52,
      "start": 180.625,
      "duration": 0.313,
      "velocity": 0.71
    },
    {
      "id": "n-04196",
      "pitch": "A#3",
      "midi": 58,
      "start": 180.625,
      "duration": 0.156,
      "velocity": 0.71
    },
    {
      "id": "n-04197",
      "pitch": "E4",
      "midi": 64,
      "start": 180.625,
      "duration": 0.156,
      "velocity": 0.71
    },
    {
      "id": "n-04198",
      "pitch": "G4",
      "midi": 67,
      "start": 180.625,
      "duration": 0.313,
      "velocity": 0.71
    },
    {
      "id": "n-04199",
      "pitch": "A#4",
      "midi": 70,
      "start": 180.625,
      "duration": 0.313,
      "velocity": 0.71
    },
    {
      "id": "n-04200",
      "pitch": "G5",
      "midi": 79,
      "start": 180.625,
      "duration": 0.313,
      "velocity": 0.71
    },
    {
      "id": "n-04201",
      "pitch": "G#5",
      "midi": 80,
      "start": 180.625,
      "duration": 0.156,
      "velocity": 0.71
    },
    {
      "id": "n-04202",
      "pitch": "A#5",
      "midi": 82,
      "start": 180.625,
      "duration": 0.313,
      "velocity": 0.71
    },
    {
      "id": "n-04203",
      "pitch": "C6",
      "midi": 84,
      "start": 180.625,
      "duration": 0.313,
      "velocity": 0.71
    },
    {
      "id": "n-04204",
      "pitch": "A#3",
      "midi": 58,
      "start": 180.781,
      "duration": 0.156,
      "velocity": 0.71
    },
    {
      "id": "n-04205",
      "pitch": "E4",
      "midi": 64,
      "start": 180.781,
      "duration": 0.156,
      "velocity": 0.71
    },
    {
      "id": "n-04206",
      "pitch": "G5",
      "midi": 79,
      "start": 180.781,
      "duration": 0.156,
      "velocity": 0.71
    },
    {
      "id": "n-04207",
      "pitch": "A#3",
      "midi": 58,
      "start": 180.938,
      "duration": 0.156,
      "velocity": 0.71
    },
    {
      "id": "n-04208",
      "pitch": "E4",
      "midi": 64,
      "start": 180.938,
      "duration": 0.156,
      "velocity": 0.71
    },
    {
      "id": "n-04209",
      "pitch": "G5",
      "midi": 79,
      "start": 180.938,
      "duration": 0.156,
      "velocity": 0.71
    },
    {
      "id": "n-04210",
      "pitch": "G3",
      "midi": 55,
      "start": 181.094,
      "duration": 0.156,
      "velocity": 0.71
    },
    {
      "id": "n-04211",
      "pitch": "A#3",
      "midi": 58,
      "start": 181.094,
      "duration": 0.156,
      "velocity": 0.71
    },
    {
      "id": "n-04212",
      "pitch": "A#5",
      "midi": 82,
      "start": 181.094,
      "duration": 0.156,
      "velocity": 0.71
    },
    {
      "id": "n-04213",
      "pitch": "C3",
      "midi": 48,
      "start": 181.25,
      "duration": 0.313,
      "velocity": 0.71
    },
    {
      "id": "n-04214",
      "pitch": "C3",
      "midi": 48,
      "start": 181.25,
      "duration": 0.313,
      "velocity": 0.71
    },
    {
      "id": "n-04215",
      "pitch": "C3",
      "midi": 48,
      "start": 181.25,
      "duration": 0.313,
      "velocity": 0.71
    },
    {
      "id": "n-04216",
      "pitch": "F3",
      "midi": 53,
      "start": 181.25,
      "duration": 0.313,
      "velocity": 0.71
    },
    {
      "id": "n-04217",
      "pitch": "C4",
      "midi": 60,
      "start": 181.25,
      "duration": 0.156,
      "velocity": 0.71
    },
    {
      "id": "n-04218",
      "pitch": "F4",
      "midi": 65,
      "start": 181.25,
      "duration": 0.313,
      "velocity": 0.71
    },
    {
      "id": "n-04219",
      "pitch": "F4",
      "midi": 65,
      "start": 181.25,
      "duration": 0.156,
      "velocity": 0.71
    },
    {
      "id": "n-04220",
      "pitch": "G#4",
      "midi": 68,
      "start": 181.25,
      "duration": 0.313,
      "velocity": 0.71
    },
    {
      "id": "n-04221",
      "pitch": "F5",
      "midi": 77,
      "start": 181.25,
      "duration": 0.313,
      "velocity": 0.71
    },
    {
      "id": "n-04222",
      "pitch": "G#5",
      "midi": 80,
      "start": 181.25,
      "duration": 0.313,
      "velocity": 0.71
    },
    {
      "id": "n-04223",
      "pitch": "A#5",
      "midi": 82,
      "start": 181.25,
      "duration": 0.156,
      "velocity": 0.71
    },
    {
      "id": "n-04224",
      "pitch": "C6",
      "midi": 84,
      "start": 181.25,
      "duration": 0.313,
      "velocity": 0.71
    },
    {
      "id": "n-04225",
      "pitch": "C4",
      "midi": 60,
      "start": 181.406,
      "duration": 0.156,
      "velocity": 0.71
    },
    {
      "id": "n-04226",
      "pitch": "F4",
      "midi": 65,
      "start": 181.406,
      "duration": 0.156,
      "velocity": 0.71
    },
    {
      "id": "n-04227",
      "pitch": "G#5",
      "midi": 80,
      "start": 181.406,
      "duration": 0.156,
      "velocity": 0.71
    },
    {
      "id": "n-04228",
      "pitch": "C4",
      "midi": 60,
      "start": 181.563,
      "duration": 0.156,
      "velocity": 0.71
    },
    {
      "id": "n-04229",
      "pitch": "F4",
      "midi": 65,
      "start": 181.563,
      "duration": 0.156,
      "velocity": 0.71
    },
    {
      "id": "n-04230",
      "pitch": "G#5",
      "midi": 80,
      "start": 181.563,
      "duration": 0.156,
      "velocity": 0.71
    },
    {
      "id": "n-04231",
      "pitch": "G#3",
      "midi": 56,
      "start": 181.719,
      "duration": 0.156,
      "velocity": 0.71
    },
    {
      "id": "n-04232",
      "pitch": "C4",
      "midi": 60,
      "start": 181.719,
      "duration": 0.156,
      "velocity": 0.71
    },
    {
      "id": "n-04233",
      "pitch": "C6",
      "midi": 84,
      "start": 181.719,
      "duration": 0.156,
      "velocity": 0.71
    },
    {
      "id": "n-04234",
      "pitch": "C3",
      "midi": 48,
      "start": 181.875,
      "duration": 0.313,
      "velocity": 0.71
    },
    {
      "id": "n-04235",
      "pitch": "C3",
      "midi": 48,
      "start": 181.875,
      "duration": 0.313,
      "velocity": 0.71
    },
    {
      "id": "n-04236",
      "pitch": "C3",
      "midi": 48,
      "start": 181.875,
      "duration": 0.313,
      "velocity": 0.71
    },
    {
      "id": "n-04237",
      "pitch": "C3",
      "midi": 48,
      "start": 181.875,
      "duration": 0.313,
      "velocity": 0.71
    },
    {
      "id": "n-04238",
      "pitch": "C4",
      "midi": 60,
      "start": 181.875,
      "duration": 0.313,
      "velocity": 0.71
    },
    {
      "id": "n-04239",
      "pitch": "C4",
      "midi": 60,
      "start": 181.875,
      "duration": 0.313,
      "velocity": 0.71
    },
    {
      "id": "n-04240",
      "pitch": "D4",
      "midi": 62,
      "start": 181.875,
      "duration": 0.313,
      "velocity": 0.71
    },
    {
      "id": "n-04241",
      "pitch": "F4",
      "midi": 65,
      "start": 181.875,
      "duration": 0.313,
      "velocity": 0.71
    },
    {
      "id": "n-04242",
      "pitch": "F4",
      "midi": 65,
      "start": 181.875,
      "duration": 0.313,
      "velocity": 0.71
    },
    {
      "id": "n-04243",
      "pitch": "F4",
      "midi": 65,
      "start": 181.875,
      "duration": 0.156,
      "velocity": 0.71
    },
    {
      "id": "n-04244",
      "pitch": "G#4",
      "midi": 68,
      "start": 181.875,
      "duration": 0.313,
      "velocity": 0.71
    },
    {
      "id": "n-04245",
      "pitch": "G#4",
      "midi": 68,
      "start": 181.875,
      "duration": 0.156,
      "velocity": 0.71
    },
    {
      "id": "n-04246",
      "pitch": "C5",
      "midi": 72,
      "start": 181.875,
      "duration": 0.313,
      "velocity": 0.71
    },
    {
      "id": "n-04247",
      "pitch": "F5",
      "midi": 77,
      "start": 181.875,
      "duration": 0.313,
      "velocity": 0.71
    },
    {
      "id": "n-04248",
      "pitch": "G#5",
      "midi": 80,
      "start": 181.875,
      "duration": 0.313,
      "velocity": 0.71
    },
    {
      "id": "n-04249",
      "pitch": "B5",
      "midi": 83,
      "start": 181.875,
      "duration": 0.313,
      "velocity": 0.71
    },
    {
      "id": "n-04250",
      "pitch": "C6",
      "midi": 84,
      "start": 181.875,
      "duration": 0.156,
      "velocity": 0.71
    },
    {
      "id": "n-04251",
      "pitch": "D6",
      "midi": 86,
      "start": 181.875,
      "duration": 0.313,
      "velocity": 0.71
    },
    {
      "id": "n-04252",
      "pitch": "F4",
      "midi": 65,
      "start": 182.031,
      "duration": 0.156,
      "velocity": 0.71
    },
    {
      "id": "n-04253",
      "pitch": "G#4",
      "midi": 68,
      "start": 182.031,
      "duration": 0.156,
      "velocity": 0.71
    },
    {
      "id": "n-04254",
      "pitch": "B5",
      "midi": 83,
      "start": 182.031,
      "duration": 0.156,
      "velocity": 0.71
    },
    {
      "id": "n-04255",
      "pitch": "F4",
      "midi": 65,
      "start": 182.188,
      "duration": 0.156,
      "velocity": 0.71
    },
    {
      "id": "n-04256",
      "pitch": "G#4",
      "midi": 68,
      "start": 182.188,
      "duration": 0.156,
      "velocity": 0.71
    },
    {
      "id": "n-04257",
      "pitch": "B5",
      "midi": 83,
      "start": 182.188,
      "duration": 0.156,
      "velocity": 0.71
    },
    {
      "id": "n-04258",
      "pitch": "D4",
      "midi": 62,
      "start": 182.344,
      "duration": 0.156,
      "velocity": 0.71
    },
    {
      "id": "n-04259",
      "pitch": "F4",
      "midi": 65,
      "start": 182.344,
      "duration": 0.156,
      "velocity": 0.71
    },
    {
      "id": "n-04260",
      "pitch": "D6",
      "midi": 86,
      "start": 182.344,
      "duration": 0.156,
      "velocity": 0.71
    },
    {
      "id": "n-04261",
      "pitch": "C3",
      "midi": 48,
      "start": 182.5,
      "duration": 2.5,
      "velocity": 0.71
    },
    {
      "id": "n-04262",
      "pitch": "C3",
      "midi": 48,
      "start": 182.5,
      "duration": 2.5,
      "velocity": 0.71
    },
    {
      "id": "n-04263",
      "pitch": "C3",
      "midi": 48,
      "start": 182.5,
      "duration": 2.5,
      "velocity": 0.71
    },
    {
      "id": "n-04264",
      "pitch": "C3",
      "midi": 48,
      "start": 182.5,
      "duration": 0.313,
      "velocity": 0.71
    },
    {
      "id": "n-04265",
      "pitch": "D#3",
      "midi": 51,
      "start": 182.5,
      "duration": 2.5,
      "velocity": 0.71
    },
    {
      "id": "n-04266",
      "pitch": "C4",
      "midi": 60,
      "start": 182.5,
      "duration": 0.313,
      "velocity": 0.71
    },
    {
      "id": "n-04267",
      "pitch": "D#4",
      "midi": 63,
      "start": 182.5,
      "duration": 2.5,
      "velocity": 0.71
    },
    {
      "id": "n-04268",
      "pitch": "D#4",
      "midi": 63,
      "start": 182.5,
      "duration": 2.5,
      "velocity": 0.71
    },
    {
      "id": "n-04269",
      "pitch": "D#4",
      "midi": 63,
      "start": 182.5,
      "duration": 0.156,
      "velocity": 0.71
    },
    {
      "id": "n-04270",
      "pitch": "G4",
      "midi": 67,
      "start": 182.5,
      "duration": 2.5,
      "velocity": 0.71
    },
    {
      "id": "n-04271",
      "pitch": "G4",
      "midi": 67,
      "start": 182.5,
      "duration": 2.5,
      "velocity": 0.71
    },
    {
      "id": "n-04272",
      "pitch": "G4",
      "midi": 67,
      "start": 182.5,
      "duration": 0.156,
      "velocity": 0.71
    },
    {
      "id": "n-04273",
      "pitch": "C5",
      "midi": 72,
      "start": 182.5,
      "duration": 0.313,
      "velocity": 0.71
    },
    {
      "id": "n-04274",
      "pitch": "D#5",
      "midi": 75,
      "start": 182.5,
      "duration": 2.5,
      "velocity": 0.71
    },
    {
      "id": "n-04275",
      "pitch": "G5",
      "midi": 79,
      "start": 182.5,
      "duration": 2.5,
      "velocity": 0.71
    },
    {
      "id": "n-04276",
      "pitch": "C6",
      "midi": 84,
      "start": 182.5,
      "duration": 2.5,
      "velocity": 0.71
    },
    {
      "id": "n-04277",
      "pitch": "C6",
      "midi": 84,
      "start": 182.5,
      "duration": 0.156,
      "velocity": 0.71
    },
    {
      "id": "n-04278",
      "pitch": "D#6",
      "midi": 87,
      "start": 182.5,
      "duration": 2.5,
      "velocity": 0.71
    },
    {
      "id": "n-04279",
      "pitch": "C3",
      "midi": 48,
      "start": 182.656,
      "duration": 0.156,
      "velocity": 0.71
    },
    {
      "id": "n-04280",
      "pitch": "D#3",
      "midi": 51,
      "start": 182.656,
      "duration": 0.156,
      "velocity": 0.71
    },
    {
      "id": "n-04281",
      "pitch": "D#4",
      "midi": 63,
      "start": 182.656,
      "duration": 0.156,
      "velocity": 0.71
    },
    {
      "id": "n-04282",
      "pitch": "C5",
      "midi": 72,
      "start": 182.656,
      "duration": 0.156,
      "velocity": 0.71
    },
    {
      "id": "n-04283",
      "pitch": "D#6",
      "midi": 87,
      "start": 182.656,
      "duration": 0.156,
      "velocity": 0.71
    },
    {
      "id": "n-04284",
      "pitch": "C3",
      "midi": 48,
      "start": 182.813,
      "duration": 0.156,
      "velocity": 0.71
    },
    {
      "id": "n-04285",
      "pitch": "D#3",
      "midi": 51,
      "start": 182.813,
      "duration": 0.156,
      "velocity": 0.71
    },
    {
      "id": "n-04286",
      "pitch": "D#4",
      "midi": 63,
      "start": 182.813,
      "duration": 0.156,
      "velocity": 0.71
    },
    {
      "id": "n-04287",
      "pitch": "C5",
      "midi": 72,
      "start": 182.813,
      "duration": 0.156,
      "velocity": 0.71
    },
    {
      "id": "n-04288",
      "pitch": "D#6",
      "midi": 87,
      "start": 182.813,
      "duration": 0.156,
      "velocity": 0.71
    },
    {
      "id": "n-04289",
      "pitch": "C3",
      "midi": 48,
      "start": 182.969,
      "duration": 0.156,
      "velocity": 0.71
    },
    {
      "id": "n-04290",
      "pitch": "D#3",
      "midi": 51,
      "start": 182.969,
      "duration": 0.156,
      "velocity": 0.71
    },
    {
      "id": "n-04291",
      "pitch": "D#4",
      "midi": 63,
      "start": 182.969,
      "duration": 0.156,
      "velocity": 0.71
    },
    {
      "id": "n-04292",
      "pitch": "C5",
      "midi": 72,
      "start": 182.969,
      "duration": 0.156,
      "velocity": 0.71
    },
    {
      "id": "n-04293",
      "pitch": "D#6",
      "midi": 87,
      "start": 182.969,
      "duration": 0.156,
      "velocity": 0.71
    },
    {
      "id": "n-04294",
      "pitch": "C3",
      "midi": 48,
      "start": 183.125,
      "duration": 0.625,
      "velocity": 0.71
    },
    {
      "id": "n-04295",
      "pitch": "D#3",
      "midi": 51,
      "start": 183.125,
      "duration": 0.625,
      "velocity": 0.71
    },
    {
      "id": "n-04296",
      "pitch": "D#4",
      "midi": 63,
      "start": 183.125,
      "duration": 0.625,
      "velocity": 0.71
    },
    {
      "id": "n-04297",
      "pitch": "C5",
      "midi": 72,
      "start": 183.125,
      "duration": 0.625,
      "velocity": 0.71
    },
    {
      "id": "n-04298",
      "pitch": "C6",
      "midi": 84,
      "start": 183.125,
      "duration": 0.156,
      "velocity": 0.71
    },
    {
      "id": "n-04299",
      "pitch": "G5",
      "midi": 79,
      "start": 183.281,
      "duration": 0.156,
      "velocity": 0.71
    },
    {
      "id": "n-04300",
      "pitch": "G5",
      "midi": 79,
      "start": 183.438,
      "duration": 0.156,
      "velocity": 0.71
    },
    {
      "id": "n-04301",
      "pitch": "G5",
      "midi": 79,
      "start": 183.594,
      "duration": 0.156,
      "velocity": 0.71
    },
    {
      "id": "n-04302",
      "pitch": "C3",
      "midi": 48,
      "start": 183.75,
      "duration": 0.625,
      "velocity": 0.71
    },
    {
      "id": "n-04303",
      "pitch": "D#3",
      "midi": 51,
      "start": 183.75,
      "duration": 0.625,
      "velocity": 0.71
    },
    {
      "id": "n-04304",
      "pitch": "D#4",
      "midi": 63,
      "start": 183.75,
      "duration": 0.625,
      "velocity": 0.71
    },
    {
      "id": "n-04305",
      "pitch": "C5",
      "midi": 72,
      "start": 183.75,
      "duration": 0.625,
      "velocity": 0.71
    },
    {
      "id": "n-04306",
      "pitch": "D#5",
      "midi": 75,
      "start": 183.75,
      "duration": 0.156,
      "velocity": 0.71
    },
    {
      "id": "n-04307",
      "pitch": "C5",
      "midi": 72,
      "start": 183.906,
      "duration": 0.156,
      "velocity": 0.71
    },
    {
      "id": "n-04308",
      "pitch": "G4",
      "midi": 67,
      "start": 184.063,
      "duration": 0.156,
      "velocity": 0.71
    },
    {
      "id": "n-04309",
      "pitch": "G4",
      "midi": 67,
      "start": 184.219,
      "duration": 0.156,
      "velocity": 0.71
    },
    {
      "id": "n-04310",
      "pitch": "C3",
      "midi": 48,
      "start": 184.375,
      "duration": 0.625,
      "velocity": 0.71
    },
    {
      "id": "n-04311",
      "pitch": "D#3",
      "midi": 51,
      "start": 184.375,
      "duration": 0.625,
      "velocity": 0.71
    },
    {
      "id": "n-04312",
      "pitch": "D#4",
      "midi": 63,
      "start": 184.375,
      "duration": 0.625,
      "velocity": 0.71
    },
    {
      "id": "n-04313",
      "pitch": "D#4",
      "midi": 63,
      "start": 184.375,
      "duration": 0.156,
      "velocity": 0.71
    },
    {
      "id": "n-04314",
      "pitch": "C5",
      "midi": 72,
      "start": 184.375,
      "duration": 0.625,
      "velocity": 0.71
    },
    {
      "id": "n-04315",
      "pitch": "C4",
      "midi": 60,
      "start": 184.531,
      "duration": 0.156,
      "velocity": 0.71
    },
    {
      "id": "n-04316",
      "pitch": "C3",
      "midi": 48,
      "start": 184.688,
      "duration": 0.156,
      "velocity": 0.71
    },
    {
      "id": "n-04317",
      "pitch": "C4",
      "midi": 60,
      "start": 184.688,
      "duration": 0.156,
      "velocity": 0.71
    },
    {
      "id": "n-04318",
      "pitch": "C4",
      "midi": 60,
      "start": 184.688,
      "duration": 0.156,
      "velocity": 0.71
    },
    {
      "id": "n-04319",
      "pitch": "C5",
      "midi": 72,
      "start": 184.688,
      "duration": 0.156,
      "velocity": 0.71
    },
    {
      "id": "n-04320",
      "pitch": "C3",
      "midi": 48,
      "start": 184.844,
      "duration": 0.156,
      "velocity": 0.71
    },
    {
      "id": "n-04321",
      "pitch": "C4",
      "midi": 60,
      "start": 184.844,
      "duration": 0.156,
      "velocity": 0.71
    },
    {
      "id": "n-04322",
      "pitch": "C4",
      "midi": 60,
      "start": 184.844,
      "duration": 0.156,
      "velocity": 0.71
    },
    {
      "id": "n-04323",
      "pitch": "C5",
      "midi": 72,
      "start": 184.844,
      "duration": 0.156,
      "velocity": 0.71
    },
    {
      "id": "n-04324",
      "pitch": "G2",
      "midi": 43,
      "start": 185,
      "duration": 2.031,
      "velocity": 0.71
    },
    {
      "id": "n-04325",
      "pitch": "G2",
      "midi": 43,
      "start": 185,
      "duration": 2.031,
      "velocity": 0.71
    },
    {
      "id": "n-04326",
      "pitch": "G2",
      "midi": 43,
      "start": 185,
      "duration": 0.313,
      "velocity": 0.71
    },
    {
      "id": "n-04327",
      "pitch": "B2",
      "midi": 47,
      "start": 185,
      "duration": 2.188,
      "velocity": 0.71
    },
    {
      "id": "n-04328",
      "pitch": "D3",
      "midi": 50,
      "start": 185,
      "duration": 2.188,
      "velocity": 0.71
    },
    {
      "id": "n-04329",
      "pitch": "D3",
      "midi": 50,
      "start": 185,
      "duration": 0.625,
      "velocity": 0.71
    },
    {
      "id": "n-04330",
      "pitch": "F3",
      "midi": 53,
      "start": 185,
      "duration": 0.625,
      "velocity": 0.71
    },
    {
      "id": "n-04331",
      "pitch": "G3",
      "midi": 55,
      "start": 185,
      "duration": 0.313,
      "velocity": 0.71
    },
    {
      "id": "n-04332",
      "pitch": "B3",
      "midi": 59,
      "start": 185,
      "duration": 0.156,
      "velocity": 0.71
    },
    {
      "id": "n-04333",
      "pitch": "D4",
      "midi": 62,
      "start": 185,
      "duration": 2.188,
      "velocity": 0.71
    },
    {
      "id": "n-04334",
      "pitch": "D4",
      "midi": 62,
      "start": 185,
      "duration": 0.156,
      "velocity": 0.71
    },
    {
      "id": "n-04335",
      "pitch": "F4",
      "midi": 65,
      "start": 185,
      "duration": 2.188,
      "velocity": 0.71
    },
    {
      "id": "n-04336",
      "pitch": "F4",
      "midi": 65,
      "start": 185,
      "duration": 2.188,
      "velocity": 0.71
    },
    {
      "id": "n-04337",
      "pitch": "G4",
      "midi": 67,
      "start": 185,
      "duration": 2.188,
      "velocity": 0.71
    },
    {
      "id": "n-04338",
      "pitch": "G4",
      "midi": 67,
      "start": 185,
      "duration": 0.313,
      "velocity": 0.71
    },
    {
      "id": "n-04339",
      "pitch": "B4",
      "midi": 71,
      "start": 185,
      "duration": 0.156,
      "velocity": 0.71
    },
    {
      "id": "n-04340",
      "pitch": "F5",
      "midi": 77,
      "start": 185,
      "duration": 2.188,
      "velocity": 0.71
    },
    {
      "id": "n-04341",
      "pitch": "G5",
      "midi": 79,
      "start": 185,
      "duration": 2.188,
      "velocity": 0.71
    },
    {
      "id": "n-04342",
      "pitch": "D6",
      "midi": 86,
      "start": 185,
      "duration": 2.188,
      "velocity": 0.71
    },
    {
      "id": "n-04343",
      "pitch": "F6",
      "midi": 89,
      "start": 185,
      "duration": 2.188,
      "velocity": 0.71
    },
    {
      "id": "n-04344",
      "pitch": "F5",
      "midi": 77,
      "start": 185.156,
      "duration": 0.156,
      "velocity": 0.71
    },
    {
      "id": "n-04345",
      "pitch": "F6",
      "midi": 89,
      "start": 185.156,
      "duration": 0.156,
      "velocity": 0.71
    },
    {
      "id": "n-04346",
      "pitch": "D5",
      "midi": 74,
      "start": 185.313,
      "duration": 0.156,
      "velocity": 0.71
    },
    {
      "id": "n-04347",
      "pitch": "D6",
      "midi": 86,
      "start": 185.313,
      "duration": 0.156,
      "velocity": 0.71
    },
    {
      "id": "n-04348",
      "pitch": "D5",
      "midi": 74,
      "start": 185.469,
      "duration": 0.156,
      "velocity": 0.71
    },
    {
      "id": "n-04349",
      "pitch": "D6",
      "midi": 86,
      "start": 185.469,
      "duration": 0.156,
      "velocity": 0.71
    },
    {
      "id": "n-04350",
      "pitch": "D3",
      "midi": 50,
      "start": 185.625,
      "duration": 0.625,
      "velocity": 0.71
    },
    {
      "id": "n-04351",
      "pitch": "F3",
      "midi": 53,
      "start": 185.625,
      "duration": 0.625,
      "velocity": 0.71
    },
    {
      "id": "n-04352",
      "pitch": "B4",
      "midi": 71,
      "start": 185.625,
      "duration": 0.156,
      "velocity": 0.71
    },
    {
      "id": "n-04353",
      "pitch": "B5",
      "midi": 83,
      "start": 185.625,
      "duration": 0.156,
      "velocity": 0.71
    },
    {
      "id": "n-04354",
      "pitch": "G4",
      "midi": 67,
      "start": 185.781,
      "duration": 0.156,
      "velocity": 0.71
    },
    {
      "id": "n-04355",
      "pitch": "G5",
      "midi": 79,
      "start": 185.781,
      "duration": 0.156,
      "velocity": 0.71
    },
    {
      "id": "n-04356",
      "pitch": "F4",
      "midi": 65,
      "start": 185.938,
      "duration": 0.156,
      "velocity": 0.71
    },
    {
      "id": "n-04357",
      "pitch": "F5",
      "midi": 77,
      "start": 185.938,
      "duration": 0.156,
      "velocity": 0.71
    },
    {
      "id": "n-04358",
      "pitch": "F4",
      "midi": 65,
      "start": 186.094,
      "duration": 0.156,
      "velocity": 0.71
    },
    {
      "id": "n-04359",
      "pitch": "F5",
      "midi": 77,
      "start": 186.094,
      "duration": 0.156,
      "velocity": 0.71
    },
    {
      "id": "n-04360",
      "pitch": "D3",
      "midi": 50,
      "start": 186.25,
      "duration": 0.625,
      "velocity": 0.71
    },
    {
      "id": "n-04361",
      "pitch": "F3",
      "midi": 53,
      "start": 186.25,
      "duration": 0.625,
      "velocity": 0.71
    },
    {
      "id": "n-04362",
      "pitch": "D4",
      "midi": 62,
      "start": 186.25,
      "duration": 0.156,
      "velocity": 0.71
    },
    {
      "id": "n-04363",
      "pitch": "D5",
      "midi": 74,
      "start": 186.25,
      "duration": 0.156,
      "velocity": 0.71
    },
    {
      "id": "n-04364",
      "pitch": "B3",
      "midi": 59,
      "start": 186.406,
      "duration": 0.156,
      "velocity": 0.71
    },
    {
      "id": "n-04365",
      "pitch": "B4",
      "midi": 71,
      "start": 186.406,
      "duration": 0.156,
      "velocity": 0.71
    },
    {
      "id": "n-04366",
      "pitch": "G3",
      "midi": 55,
      "start": 186.563,
      "duration": 0.156,
      "velocity": 0.71
    },
    {
      "id": "n-04367",
      "pitch": "G4",
      "midi": 67,
      "start": 186.563,
      "duration": 0.156,
      "velocity": 0.71
    },
    {
      "id": "n-04368",
      "pitch": "F4",
      "midi": 65,
      "start": 186.719,
      "duration": 0.156,
      "velocity": 0.71
    },
    {
      "id": "n-04369",
      "pitch": "F4",
      "midi": 65,
      "start": 186.719,
      "duration": 0.156,
      "velocity": 0.71
    },
    {
      "id": "n-04370",
      "pitch": "D3",
      "midi": 50,
      "start": 186.875,
      "duration": 0.156,
      "velocity": 0.71
    },
    {
      "id": "n-04371",
      "pitch": "F3",
      "midi": 53,
      "start": 186.875,
      "duration": 0.156,
      "velocity": 0.71
    },
    {
      "id": "n-04372",
      "pitch": "D4",
      "midi": 62,
      "start": 186.875,
      "duration": 0.156,
      "velocity": 0.71
    },
    {
      "id": "n-04373",
      "pitch": "D4",
      "midi": 62,
      "start": 186.875,
      "duration": 0.156,
      "velocity": 0.71
    },
    {
      "id": "n-04374",
      "pitch": "G2",
      "midi": 43,
      "start": 187.031,
      "duration": 0.156,
      "velocity": 0.71
    },
    {
      "id": "n-04375",
      "pitch": "G2",
      "midi": 43,
      "start": 187.031,
      "duration": 0.156,
      "velocity": 0.71
    },
    {
      "id": "n-04376",
      "pitch": "D3",
      "midi": 50,
      "start": 187.031,
      "duration": 0.156,
      "velocity": 0.71
    },
    {
      "id": "n-04377",
      "pitch": "F3",
      "midi": 53,
      "start": 187.031,
      "duration": 0.156,
      "velocity": 0.71
    },
    {
      "id": "n-04378",
      "pitch": "B3",
      "midi": 59,
      "start": 187.031,
      "duration": 0.156,
      "velocity": 0.71
    },
    {
      "id": "n-04379",
      "pitch": "B3",
      "midi": 59,
      "start": 187.031,
      "duration": 0.156,
      "velocity": 0.71
    },
    {
      "id": "n-04380",
      "pitch": "C3",
      "midi": 48,
      "start": 187.188,
      "duration": 0.313,
      "velocity": 0.71
    },
    {
      "id": "n-04381",
      "pitch": "C3",
      "midi": 48,
      "start": 187.188,
      "duration": 0.156,
      "velocity": 0.71
    },
    {
      "id": "n-04382",
      "pitch": "C3",
      "midi": 48,
      "start": 187.188,
      "duration": 0.156,
      "velocity": 0.71
    },
    {
      "id": "n-04383",
      "pitch": "C3",
      "midi": 48,
      "start": 187.188,
      "duration": 0.156,
      "velocity": 0.71
    },
    {
      "id": "n-04384",
      "pitch": "C3",
      "midi": 48,
      "start": 187.188,
      "duration": 0.156,
      "velocity": 0.71
    },
    {
      "id": "n-04385",
      "pitch": "D#3",
      "midi": 51,
      "start": 187.188,
      "duration": 0.313,
      "velocity": 0.71
    },
    {
      "id": "n-04386",
      "pitch": "D#3",
      "midi": 51,
      "start": 187.188,
      "duration": 0.156,
      "velocity": 0.71
    },
    {
      "id": "n-04387",
      "pitch": "C4",
      "midi": 60,
      "start": 187.188,
      "duration": 0.313,
      "velocity": 0.71
    },
    {
      "id": "n-04388",
      "pitch": "C4",
      "midi": 60,
      "start": 187.188,
      "duration": 0.156,
      "velocity": 0.71
    },
    {
      "id": "n-04389",
      "pitch": "C4",
      "midi": 60,
      "start": 187.188,
      "duration": 0.156,
      "velocity": 0.71
    },
    {
      "id": "n-04390",
      "pitch": "C4",
      "midi": 60,
      "start": 187.188,
      "duration": 0.156,
      "velocity": 0.71
    },
    {
      "id": "n-04391",
      "pitch": "D#4",
      "midi": 63,
      "start": 187.188,
      "duration": 0.313,
      "velocity": 0.71
    },
    {
      "id": "n-04392",
      "pitch": "D#4",
      "midi": 63,
      "start": 187.188,
      "duration": 0.313,
      "velocity": 0.71
    },
    {
      "id": "n-04393",
      "pitch": "G4",
      "midi": 67,
      "start": 187.188,
      "duration": 0.313,
      "velocity": 0.71
    },
    {
      "id": "n-04394",
      "pitch": "C5",
      "midi": 72,
      "start": 187.188,
      "duration": 0.156,
      "velocity": 0.71
    },
    {
      "id": "n-04395",
      "pitch": "D#5",
      "midi": 75,
      "start": 187.188,
      "duration": 0.313,
      "velocity": 0.71
    },
    {
      "id": "n-04396",
      "pitch": "G5",
      "midi": 79,
      "start": 187.188,
      "duration": 0.313,
      "velocity": 0.71
    },
    {
      "id": "n-04397",
      "pitch": "C6",
      "midi": 84,
      "start": 187.188,
      "duration": 0.313,
      "velocity": 0.71
    },
    {
      "id": "n-04398",
      "pitch": "D#6",
      "midi": 87,
      "start": 187.188,
      "duration": 0.313,
      "velocity": 0.71
    },
    {
      "id": "n-04399",
      "pitch": "C3",
      "midi": 48,
      "start": 187.344,
      "duration": 0.156,
      "velocity": 0.71
    },
    {
      "id": "n-04400",
      "pitch": "C3",
      "midi": 48,
      "start": 187.344,
      "duration": 0.156,
      "velocity": 0.71
    },
    {
      "id": "n-04401",
      "pitch": "C3",
      "midi": 48,
      "start": 187.344,
      "duration": 0.156,
      "velocity": 0.71
    },
    {
      "id": "n-04402",
      "pitch": "C3",
      "midi": 48,
      "start": 187.344,
      "duration": 0.156,
      "velocity": 0.71
    },
    {
      "id": "n-04403",
      "pitch": "D#3",
      "midi": 51,
      "start": 187.344,
      "duration": 0.156,
      "velocity": 0.71
    },
    {
      "id": "n-04404",
      "pitch": "C4",
      "midi": 60,
      "start": 187.344,
      "duration": 0.156,
      "velocity": 0.71
    },
    {
      "id": "n-04405",
      "pitch": "C4",
      "midi": 60,
      "start": 187.344,
      "duration": 0.156,
      "velocity": 0.71
    },
    {
      "id": "n-04406",
      "pitch": "C4",
      "midi": 60,
      "start": 187.344,
      "duration": 0.156,
      "velocity": 0.71
    },
    {
      "id": "n-04407",
      "pitch": "C5",
      "midi": 72,
      "start": 187.344,
      "duration": 0.156,
      "velocity": 0.71
    },
    {
      "id": "n-04408",
      "pitch": "C3",
      "midi": 48,
      "start": 187.5,
      "duration": 0.625,
      "velocity": 0.71
    },
    {
      "id": "n-04409",
      "pitch": "C3",
      "midi": 48,
      "start": 187.5,
      "duration": 0.156,
      "velocity": 0.71
    },
    {
      "id": "n-04410",
      "pitch": "C3",
      "midi": 48,
      "start": 187.5,
      "duration": 0.156,
      "velocity": 0.71
    },
    {
      "id": "n-04411",
      "pitch": "D#3",
      "midi": 51,
      "start": 187.5,
      "duration": 2.5,
      "velocity": 0.71
    },
    {
      "id": "n-04412",
      "pitch": "D#3",
      "midi": 51,
      "start": 187.5,
      "duration": 0.156,
      "velocity": 0.71
    },
    {
      "id": "n-04413",
      "pitch": "A3",
      "midi": 57,
      "start": 187.5,
      "duration": 0.156,
      "velocity": 0.71
    },
    {
      "id": "n-04414",
      "pitch": "C4",
      "midi": 60,
      "start": 187.5,
      "duration": 2.5,
      "velocity": 0.71
    },
    {
      "id": "n-04415",
      "pitch": "C4",
      "midi": 60,
      "start": 187.5,
      "duration": 2.5,
      "velocity": 0.71
    },
    {
      "id": "n-04416",
      "pitch": "C4",
      "midi": 60,
      "start": 187.5,
      "duration": 0.156,
      "velocity": 0.71
    },
    {
      "id": "n-04417",
      "pitch": "D#4",
      "midi": 63,
      "start": 187.5,
      "duration": 2.5,
      "velocity": 0.71
    },
    {
      "id": "n-04418",
      "pitch": "D#4",
      "midi": 63,
      "start": 187.5,
      "duration": 2.5,
      "velocity": 0.71
    },
    {
      "id": "n-04419",
      "pitch": "F#4",
      "midi": 66,
      "start": 187.5,
      "duration": 2.5,
      "velocity": 0.71
    },
    {
      "id": "n-04420",
      "pitch": "C5",
      "midi": 72,
      "start": 187.5,
      "duration": 2.5,
      "velocity": 0.71
    },
    {
      "id": "n-04421",
      "pitch": "C5",
      "midi": 72,
      "start": 187.5,
      "duration": 0.156,
      "velocity": 0.71
    },
    {
      "id": "n-04422",
      "pitch": "D#5",
      "midi": 75,
      "start": 187.5,
      "duration": 2.5,
      "velocity": 0.71
    },
    {
      "id": "n-04423",
      "pitch": "F#5",
      "midi": 78,
      "start": 187.5,
      "duration": 2.5,
      "velocity": 0.71
    },
    {
      "id": "n-04424",
      "pitch": "A5",
      "midi": 81,
      "start": 187.5,
      "duration": 2.5,
      "velocity": 0.71
    },
    {
      "id": "n-04425",
      "pitch": "C6",
      "midi": 84,
      "start": 187.5,
      "duration": 2.5,
      "velocity": 0.71
    },
    {
      "id": "n-04426",
      "pitch": "F#6",
      "midi": 90,
      "start": 187.5,
      "duration": 2.5,
      "velocity": 0.71
    },
    {
      "id": "n-04427",
      "pitch": "D#4",
      "midi": 63,
      "start": 187.656,
      "duration": 0.156,
      "velocity": 0.71
    },
    {
      "id": "n-04428",
      "pitch": "D#4",
      "midi": 63,
      "start": 187.656,
      "duration": 0.156,
      "velocity": 0.71
    },
    {
      "id": "n-04429",
      "pitch": "D#5",
      "midi": 75,
      "start": 187.656,
      "duration": 0.156,
      "velocity": 0.71
    },
    {
      "id": "n-04430",
      "pitch": "D#6",
      "midi": 87,
      "start": 187.656,
      "duration": 0.156,
      "velocity": 0.71
    },
    {
      "id": "n-04431",
      "pitch": "D#6",
      "midi": 87,
      "start": 187.656,
      "duration": 0.156,
      "velocity": 0.71
    },
    {
      "id": "n-04432",
      "pitch": "D#4",
      "midi": 63,
      "start": 187.813,
      "duration": 0.156,
      "velocity": 0.71
    },
    {
      "id": "n-04433",
      "pitch": "D#4",
      "midi": 63,
      "start": 187.813,
      "duration": 0.156,
      "velocity": 0.71
    },
    {
      "id": "n-04434",
      "pitch": "D#5",
      "midi": 75,
      "start": 187.813,
      "duration": 0.156,
      "velocity": 0.71
    },
    {
      "id": "n-04435",
      "pitch": "D#6",
      "midi": 87,
      "start": 187.813,
      "duration": 0.156,
      "velocity": 0.71
    },
    {
      "id": "n-04436",
      "pitch": "D#6",
      "midi": 87,
      "start": 187.813,
      "duration": 0.156,
      "velocity": 0.71
    },
    {
      "id": "n-04437",
      "pitch": "D#4",
      "midi": 63,
      "start": 187.969,
      "duration": 0.156,
      "velocity": 0.71
    },
    {
      "id": "n-04438",
      "pitch": "D#4",
      "midi": 63,
      "start": 187.969,
      "duration": 0.156,
      "velocity": 0.71
    },
    {
      "id": "n-04439",
      "pitch": "D#5",
      "midi": 75,
      "start": 187.969,
      "duration": 0.156,
      "velocity": 0.71
    },
    {
      "id": "n-04440",
      "pitch": "D#6",
      "midi": 87,
      "start": 187.969,
      "duration": 0.156,
      "velocity": 0.71
    },
    {
      "id": "n-04441",
      "pitch": "D#6",
      "midi": 87,
      "start": 187.969,
      "duration": 0.156,
      "velocity": 0.71
    },
    {
      "id": "n-04442",
      "pitch": "C3",
      "midi": 48,
      "start": 188.125,
      "duration": 0.625,
      "velocity": 0.71
    },
    {
      "id": "n-04443",
      "pitch": "C4",
      "midi": 60,
      "start": 188.125,
      "duration": 0.156,
      "velocity": 0.71
    },
    {
      "id": "n-04444",
      "pitch": "C4",
      "midi": 60,
      "start": 188.125,
      "duration": 0.156,
      "velocity": 0.71
    },
    {
      "id": "n-04445",
      "pitch": "C5",
      "midi": 72,
      "start": 188.125,
      "duration": 0.156,
      "velocity": 0.71
    },
    {
      "id": "n-04446",
      "pitch": "C6",
      "midi": 84,
      "start": 188.125,
      "duration": 0.156,
      "velocity": 0.71
    },
    {
      "id": "n-04447",
      "pitch": "C6",
      "midi": 84,
      "start": 188.125,
      "duration": 0.156,
      "velocity": 0.71
    },
    {
      "id": "n-04448",
      "pitch": "A3",
      "midi": 57,
      "start": 188.281,
      "duration": 0.156,
      "velocity": 0.71
    },
    {
      "id": "n-04449",
      "pitch": "A3",
      "midi": 57,
      "start": 188.281,
      "duration": 0.156,
      "velocity": 0.71
    },
    {
      "id": "n-04450",
      "pitch": "A4",
      "midi": 69,
      "start": 188.281,
      "duration": 0.156,
      "velocity": 0.71
    },
    {
      "id": "n-04451",
      "pitch": "A5",
      "midi": 81,
      "start": 188.281,
      "duration": 0.156,
      "velocity": 0.71
    },
    {
      "id": "n-04452",
      "pitch": "A5",
      "midi": 81,
      "start": 188.281,
      "duration": 0.156,
      "velocity": 0.71
    },
    {
      "id": "n-04453",
      "pitch": "A3",
      "midi": 57,
      "start": 188.438,
      "duration": 0.156,
      "velocity": 0.71
    },
    {
      "id": "n-04454",
      "pitch": "A3",
      "midi": 57,
      "start": 188.438,
      "duration": 0.156,
      "velocity": 0.71
    },
    {
      "id": "n-04455",
      "pitch": "A4",
      "midi": 69,
      "start": 188.438,
      "duration": 0.156,
      "velocity": 0.71
    },
    {
      "id": "n-04456",
      "pitch": "A5",
      "midi": 81,
      "start": 188.438,
      "duration": 0.156,
      "velocity": 0.71
    },
    {
      "id": "n-04457",
      "pitch": "A5",
      "midi": 81,
      "start": 188.438,
      "duration": 0.156,
      "velocity": 0.71
    },
    {
      "id": "n-04458",
      "pitch": "A3",
      "midi": 57,
      "start": 188.594,
      "duration": 0.156,
      "velocity": 0.71
    },
    {
      "id": "n-04459",
      "pitch": "A3",
      "midi": 57,
      "start": 188.594,
      "duration": 0.156,
      "velocity": 0.71
    },
    {
      "id": "n-04460",
      "pitch": "A4",
      "midi": 69,
      "start": 188.594,
      "duration": 0.156,
      "velocity": 0.71
    },
    {
      "id": "n-04461",
      "pitch": "A5",
      "midi": 81,
      "start": 188.594,
      "duration": 0.156,
      "velocity": 0.71
    },
    {
      "id": "n-04462",
      "pitch": "A5",
      "midi": 81,
      "start": 188.594,
      "duration": 0.156,
      "velocity": 0.71
    },
    {
      "id": "n-04463",
      "pitch": "C3",
      "midi": 48,
      "start": 188.75,
      "duration": 0.625,
      "velocity": 0.71
    },
    {
      "id": "n-04464",
      "pitch": "F#3",
      "midi": 54,
      "start": 188.75,
      "duration": 0.156,
      "velocity": 0.71
    },
    {
      "id": "n-04465",
      "pitch": "F#3",
      "midi": 54,
      "start": 188.75,
      "duration": 0.156,
      "velocity": 0.71
    },
    {
      "id": "n-04466",
      "pitch": "F#4",
      "midi": 66,
      "start": 188.75,
      "duration": 0.156,
      "velocity": 0.71
    },
    {
      "id": "n-04467",
      "pitch": "F#5",
      "midi": 78,
      "start": 188.75,
      "duration": 0.156,
      "velocity": 0.71
    },
    {
      "id": "n-04468",
      "pitch": "F#5",
      "midi": 78,
      "start": 188.75,
      "duration": 0.156,
      "velocity": 0.71
    },
    {
      "id": "n-04469",
      "pitch": "D#3",
      "midi": 51,
      "start": 188.906,
      "duration": 0.156,
      "velocity": 0.71
    },
    {
      "id": "n-04470",
      "pitch": "D#3",
      "midi": 51,
      "start": 188.906,
      "duration": 0.156,
      "velocity": 0.71
    },
    {
      "id": "n-04471",
      "pitch": "D#4",
      "midi": 63,
      "start": 188.906,
      "duration": 0.156,
      "velocity": 0.71
    },
    {
      "id": "n-04472",
      "pitch": "D#5",
      "midi": 75,
      "start": 188.906,
      "duration": 0.156,
      "velocity": 0.71
    },
    {
      "id": "n-04473",
      "pitch": "D#5",
      "midi": 75,
      "start": 188.906,
      "duration": 0.156,
      "velocity": 0.71
    },
    {
      "id": "n-04474",
      "pitch": "D#3",
      "midi": 51,
      "start": 189.063,
      "duration": 0.156,
      "velocity": 0.71
    },
    {
      "id": "n-04475",
      "pitch": "D#3",
      "midi": 51,
      "start": 189.063,
      "duration": 0.156,
      "velocity": 0.71
    },
    {
      "id": "n-04476",
      "pitch": "D#4",
      "midi": 63,
      "start": 189.063,
      "duration": 0.156,
      "velocity": 0.71
    },
    {
      "id": "n-04477",
      "pitch": "D#5",
      "midi": 75,
      "start": 189.063,
      "duration": 0.156,
      "velocity": 0.71
    },
    {
      "id": "n-04478",
      "pitch": "D#5",
      "midi": 75,
      "start": 189.063,
      "duration": 0.156,
      "velocity": 0.71
    },
    {
      "id": "n-04479",
      "pitch": "D#3",
      "midi": 51,
      "start": 189.219,
      "duration": 0.156,
      "velocity": 0.71
    },
    {
      "id": "n-04480",
      "pitch": "D#3",
      "midi": 51,
      "start": 189.219,
      "duration": 0.156,
      "velocity": 0.71
    },
    {
      "id": "n-04481",
      "pitch": "D#4",
      "midi": 63,
      "start": 189.219,
      "duration": 0.156,
      "velocity": 0.71
    },
    {
      "id": "n-04482",
      "pitch": "D#5",
      "midi": 75,
      "start": 189.219,
      "duration": 0.156,
      "velocity": 0.71
    },
    {
      "id": "n-04483",
      "pitch": "D#5",
      "midi": 75,
      "start": 189.219,
      "duration": 0.156,
      "velocity": 0.71
    },
    {
      "id": "n-04484",
      "pitch": "C3",
      "midi": 48,
      "start": 189.375,
      "duration": 0.625,
      "velocity": 0.71
    },
    {
      "id": "n-04485",
      "pitch": "C3",
      "midi": 48,
      "start": 189.375,
      "duration": 0.156,
      "velocity": 0.71
    },
    {
      "id": "n-04486",
      "pitch": "C3",
      "midi": 48,
      "start": 189.375,
      "duration": 0.156,
      "velocity": 0.71
    },
    {
      "id": "n-04487",
      "pitch": "C4",
      "midi": 60,
      "start": 189.375,
      "duration": 0.156,
      "velocity": 0.71
    },
    {
      "id": "n-04488",
      "pitch": "C5",
      "midi": 72,
      "start": 189.375,
      "duration": 0.156,
      "velocity": 0.71
    },
    {
      "id": "n-04489",
      "pitch": "C5",
      "midi": 72,
      "start": 189.375,
      "duration": 0.156,
      "velocity": 0.71
    },
    {
      "id": "n-04490",
      "pitch": "A2",
      "midi": 45,
      "start": 189.531,
      "duration": 0.156,
      "velocity": 0.71
    },
    {
      "id": "n-04491",
      "pitch": "A2",
      "midi": 45,
      "start": 189.531,
      "duration": 0.156,
      "velocity": 0.71
    },
    {
      "id": "n-04492",
      "pitch": "A3",
      "midi": 57,
      "start": 189.531,
      "duration": 0.156,
      "velocity": 0.71
    },
    {
      "id": "n-04493",
      "pitch": "A4",
      "midi": 69,
      "start": 189.531,
      "duration": 0.156,
      "velocity": 0.71
    },
    {
      "id": "n-04494",
      "pitch": "A4",
      "midi": 69,
      "start": 189.531,
      "duration": 0.156,
      "velocity": 0.71
    },
    {
      "id": "n-04495",
      "pitch": "A2",
      "midi": 45,
      "start": 189.688,
      "duration": 0.156,
      "velocity": 0.71
    },
    {
      "id": "n-04496",
      "pitch": "A2",
      "midi": 45,
      "start": 189.688,
      "duration": 0.156,
      "velocity": 0.71
    },
    {
      "id": "n-04497",
      "pitch": "A3",
      "midi": 57,
      "start": 189.688,
      "duration": 0.156,
      "velocity": 0.71
    },
    {
      "id": "n-04498",
      "pitch": "A4",
      "midi": 69,
      "start": 189.688,
      "duration": 0.156,
      "velocity": 0.71
    },
    {
      "id": "n-04499",
      "pitch": "A4",
      "midi": 69,
      "start": 189.688,
      "duration": 0.156,
      "velocity": 0.71
    },
    {
      "id": "n-04500",
      "pitch": "A2",
      "midi": 45,
      "start": 189.844,
      "duration": 0.156,
      "velocity": 0.71
    },
    {
      "id": "n-04501",
      "pitch": "A2",
      "midi": 45,
      "start": 189.844,
      "duration": 0.156,
      "velocity": 0.71
    },
    {
      "id": "n-04502",
      "pitch": "A3",
      "midi": 57,
      "start": 189.844,
      "duration": 0.156,
      "velocity": 0.71
    },
    {
      "id": "n-04503",
      "pitch": "A4",
      "midi": 69,
      "start": 189.844,
      "duration": 0.156,
      "velocity": 0.71
    },
    {
      "id": "n-04504",
      "pitch": "A4",
      "midi": 69,
      "start": 189.844,
      "duration": 0.156,
      "velocity": 0.71
    },
    {
      "id": "n-04505",
      "pitch": "C3",
      "midi": 48,
      "start": 190,
      "duration": 0.313,
      "velocity": 0.71
    },
    {
      "id": "n-04506",
      "pitch": "C3",
      "midi": 48,
      "start": 190,
      "duration": 0.313,
      "velocity": 0.71
    },
    {
      "id": "n-04507",
      "pitch": "C3",
      "midi": 48,
      "start": 190,
      "duration": 0.313,
      "velocity": 0.71
    },
    {
      "id": "n-04508",
      "pitch": "D#3",
      "midi": 51,
      "start": 190,
      "duration": 0.313,
      "velocity": 0.71
    },
    {
      "id": "n-04509",
      "pitch": "A3",
      "midi": 57,
      "start": 190,
      "duration": 0.313,
      "velocity": 0.71
    },
    {
      "id": "n-04510",
      "pitch": "C4",
      "midi": 60,
      "start": 190,
      "duration": 0.313,
      "velocity": 0.71
    },
    {
      "id": "n-04511",
      "pitch": "C4",
      "midi": 60,
      "start": 190,
      "duration": 0.313,
      "velocity": 0.71
    },
    {
      "id": "n-04512",
      "pitch": "C4",
      "midi": 60,
      "start": 190,
      "duration": 0.313,
      "velocity": 0.71
    },
    {
      "id": "n-04513",
      "pitch": "D#4",
      "midi": 63,
      "start": 190,
      "duration": 0.313,
      "velocity": 0.71
    },
    {
      "id": "n-04514",
      "pitch": "D#4",
      "midi": 63,
      "start": 190,
      "duration": 0.313,
      "velocity": 0.71
    },
    {
      "id": "n-04515",
      "pitch": "F#4",
      "midi": 66,
      "start": 190,
      "duration": 0.313,
      "velocity": 0.71
    },
    {
      "id": "n-04516",
      "pitch": "A4",
      "midi": 69,
      "start": 190,
      "duration": 0.313,
      "velocity": 0.71
    },
    {
      "id": "n-04517",
      "pitch": "C5",
      "midi": 72,
      "start": 190,
      "duration": 0.313,
      "velocity": 0.71
    },
    {
      "id": "n-04518",
      "pitch": "D#5",
      "midi": 75,
      "start": 190,
      "duration": 0.313,
      "velocity": 0.71
    },
    {
      "id": "n-04519",
      "pitch": "F#5",
      "midi": 78,
      "start": 190,
      "duration": 0.313,
      "velocity": 0.71
    },
    {
      "id": "n-04520",
      "pitch": "A5",
      "midi": 81,
      "start": 190,
      "duration": 0.313,
      "velocity": 0.71
    },
    {
      "id": "n-04521",
      "pitch": "C6",
      "midi": 84,
      "start": 190,
      "duration": 0.313,
      "velocity": 0.71
    },
    {
      "id": "n-04522",
      "pitch": "F#6",
      "midi": 90,
      "start": 190,
      "duration": 0.313,
      "velocity": 0.71
    },
    {
      "id": "n-04523",
      "pitch": "G2",
      "midi": 43,
      "start": 191.25,
      "duration": 0.313,
      "velocity": 0.71
    },
    {
      "id": "n-04524",
      "pitch": "B2",
      "midi": 47,
      "start": 191.25,
      "duration": 0.313,
      "velocity": 0.71
    },
    {
      "id": "n-04525",
      "pitch": "B2",
      "midi": 47,
      "start": 191.25,
      "duration": 0.313,
      "velocity": 0.71
    },
    {
      "id": "n-04526",
      "pitch": "G3",
      "midi": 55,
      "start": 191.25,
      "duration": 0.313,
      "velocity": 0.71
    },
    {
      "id": "n-04527",
      "pitch": "G3",
      "midi": 55,
      "start": 191.25,
      "duration": 0.313,
      "velocity": 0.71
    },
    {
      "id": "n-04528",
      "pitch": "G3",
      "midi": 55,
      "start": 191.25,
      "duration": 0.313,
      "velocity": 0.71
    },
    {
      "id": "n-04529",
      "pitch": "G3",
      "midi": 55,
      "start": 191.25,
      "duration": 0.313,
      "velocity": 0.71
    },
    {
      "id": "n-04530",
      "pitch": "B3",
      "midi": 59,
      "start": 191.25,
      "duration": 0.313,
      "velocity": 0.71
    },
    {
      "id": "n-04531",
      "pitch": "B3",
      "midi": 59,
      "start": 191.25,
      "duration": 0.313,
      "velocity": 0.71
    },
    {
      "id": "n-04532",
      "pitch": "D4",
      "midi": 62,
      "start": 191.25,
      "duration": 0.313,
      "velocity": 0.71
    },
    {
      "id": "n-04533",
      "pitch": "D4",
      "midi": 62,
      "start": 191.25,
      "duration": 0.313,
      "velocity": 0.71
    },
    {
      "id": "n-04534",
      "pitch": "G4",
      "midi": 67,
      "start": 191.25,
      "duration": 0.313,
      "velocity": 0.71
    },
    {
      "id": "n-04535",
      "pitch": "G4",
      "midi": 67,
      "start": 191.25,
      "duration": 0.313,
      "velocity": 0.71
    },
    {
      "id": "n-04536",
      "pitch": "G4",
      "midi": 67,
      "start": 191.25,
      "duration": 0.313,
      "velocity": 0.71
    },
    {
      "id": "n-04537",
      "pitch": "G4",
      "midi": 67,
      "start": 191.25,
      "duration": 0.313,
      "velocity": 0.71
    },
    {
      "id": "n-04538",
      "pitch": "B4",
      "midi": 71,
      "start": 191.25,
      "duration": 0.313,
      "velocity": 0.71
    },
    {
      "id": "n-04539",
      "pitch": "D5",
      "midi": 74,
      "start": 191.25,
      "duration": 0.313,
      "velocity": 0.71
    },
    {
      "id": "n-04540",
      "pitch": "D5",
      "midi": 74,
      "start": 191.25,
      "duration": 0.313,
      "velocity": 0.71
    },
    {
      "id": "n-04541",
      "pitch": "G5",
      "midi": 79,
      "start": 191.25,
      "duration": 0.313,
      "velocity": 0.71
    },
    {
      "id": "n-04542",
      "pitch": "G5",
      "midi": 79,
      "start": 191.25,
      "duration": 0.313,
      "velocity": 0.71
    },
    {
      "id": "n-04543",
      "pitch": "G6",
      "midi": 91,
      "start": 191.25,
      "duration": 0.313,
      "velocity": 0.71
    },
    {
      "id": "n-04544",
      "pitch": "G4",
      "midi": 67,
      "start": 192.031,
      "duration": 0.156,
      "velocity": 0.71
    },
    {
      "id": "n-04545",
      "pitch": "G4",
      "midi": 67,
      "start": 192.188,
      "duration": 0.156,
      "velocity": 0.71
    },
    {
      "id": "n-04546",
      "pitch": "G4",
      "midi": 67,
      "start": 192.344,
      "duration": 0.156,
      "velocity": 0.71
    },
    {
      "id": "n-04547",
      "pitch": "C4",
      "midi": 60,
      "start": 192.5,
      "duration": 0.625,
      "velocity": 0.71
    },
    {
      "id": "n-04548",
      "pitch": "D4",
      "midi": 62,
      "start": 193.125,
      "duration": 0.625,
      "velocity": 0.71
    },
    {
      "id": "n-04549",
      "pitch": "G3",
      "midi": 55,
      "start": 193.75,
      "duration": 10,
      "velocity": 0.71
    },
    {
      "id": "n-04550",
      "pitch": "G3",
      "midi": 55,
      "start": 193.75,
      "duration": 0.625,
      "velocity": 0.71
    },
    {
      "id": "n-04551",
      "pitch": "G3",
      "midi": 55,
      "start": 194.375,
      "duration": 2.5,
      "velocity": 0.71
    },
    {
      "id": "n-04552",
      "pitch": "C4",
      "midi": 60,
      "start": 194.375,
      "duration": 0.625,
      "velocity": 0.71
    },
    {
      "id": "n-04553",
      "pitch": "E4",
      "midi": 64,
      "start": 194.375,
      "duration": 0.625,
      "velocity": 0.71
    },
    {
      "id": "n-04554",
      "pitch": "G4",
      "midi": 67,
      "start": 194.375,
      "duration": 0.313,
      "velocity": 0.71
    },
    {
      "id": "n-04555",
      "pitch": "C5",
      "midi": 72,
      "start": 194.688,
      "duration": 0.313,
      "velocity": 0.71
    },
    {
      "id": "n-04556",
      "pitch": "D4",
      "midi": 62,
      "start": 195,
      "duration": 0.625,
      "velocity": 0.71
    },
    {
      "id": "n-04557",
      "pitch": "F4",
      "midi": 65,
      "start": 195,
      "duration": 0.625,
      "velocity": 0.71
    },
    {
      "id": "n-04558",
      "pitch": "B4",
      "midi": 71,
      "start": 195,
      "duration": 0.313,
      "velocity": 0.71
    },
    {
      "id": "n-04559",
      "pitch": "C5",
      "midi": 72,
      "start": 195.313,
      "duration": 0.313,
      "velocity": 0.71
    },
    {
      "id": "n-04560",
      "pitch": "B3",
      "midi": 59,
      "start": 195.625,
      "duration": 0.625,
      "velocity": 0.71
    },
    {
      "id": "n-04561",
      "pitch": "F4",
      "midi": 65,
      "start": 195.625,
      "duration": 0.625,
      "velocity": 0.71
    },
    {
      "id": "n-04562",
      "pitch": "D5",
      "midi": 74,
      "start": 195.625,
      "duration": 0.313,
      "velocity": 0.71
    },
    {
      "id": "n-04563",
      "pitch": "G2",
      "midi": 43,
      "start": 195.781,
      "duration": 0.156,
      "velocity": 0.71
    },
    {
      "id": "n-04564",
      "pitch": "G2",
      "midi": 43,
      "start": 195.781,
      "duration": 0.156,
      "velocity": 0.71
    },
    {
      "id": "n-04565",
      "pitch": "G2",
      "midi": 43,
      "start": 195.938,
      "duration": 0.156,
      "velocity": 0.71
    },
    {
      "id": "n-04566",
      "pitch": "G2",
      "midi": 43,
      "start": 195.938,
      "duration": 0.156,
      "velocity": 0.71
    },
    {
      "id": "n-04567",
      "pitch": "A4",
      "midi": 69,
      "start": 195.938,
      "duration": 0.313,
      "velocity": 0.71
    },
    {
      "id": "n-04568",
      "pitch": "G2",
      "midi": 43,
      "start": 196.094,
      "duration": 0.156,
      "velocity": 0.71
    },
    {
      "id": "n-04569",
      "pitch": "G2",
      "midi": 43,
      "start": 196.094,
      "duration": 0.156,
      "velocity": 0.71
    },
    {
      "id": "n-04570",
      "pitch": "C3",
      "midi": 48,
      "start": 196.25,
      "duration": 0.313,
      "velocity": 0.71
    },
    {
      "id": "n-04571",
      "pitch": "C3",
      "midi": 48,
      "start": 196.25,
      "duration": 0.313,
      "velocity": 0.71
    },
    {
      "id": "n-04572",
      "pitch": "C4",
      "midi": 60,
      "start": 196.25,
      "duration": 0.625,
      "velocity": 0.71
    },
    {
      "id": "n-04573",
      "pitch": "E4",
      "midi": 64,
      "start": 196.25,
      "duration": 0.625,
      "velocity": 0.71
    },
    {
      "id": "n-04574",
      "pitch": "A4",
      "midi": 69,
      "start": 196.25,
      "duration": 0.313,
      "velocity": 0.71
    },
    {
      "id": "n-04575",
      "pitch": "G4",
      "midi": 67,
      "start": 196.563,
      "duration": 0.313,
      "velocity": 0.71
    },
    {
      "id": "n-04576",
      "pitch": "E4",
      "midi": 64,
      "start": 196.875,
      "duration": 0.625,
      "velocity": 0.71
    },
    {
      "id": "n-04577",
      "pitch": "G4",
      "midi": 67,
      "start": 196.875,
      "duration": 0.625,
      "velocity": 0.71
    },
    {
      "id": "n-04578",
      "pitch": "C5",
      "midi": 72,
      "start": 196.875,
      "duration": 0.625,
      "velocity": 0.71
    },
    {
      "id": "n-04579",
      "pitch": "E5",
      "midi": 76,
      "start": 196.875,
      "duration": 0.625,
      "velocity": 0.71
    },
    {
      "id": "n-04580",
      "pitch": "G5",
      "midi": 79,
      "start": 196.875,
      "duration": 0.313,
      "velocity": 0.71
    },
    {
      "id": "n-04581",
      "pitch": "C6",
      "midi": 84,
      "start": 197.188,
      "duration": 0.313,
      "velocity": 0.71
    },
    {
      "id": "n-04582",
      "pitch": "D4",
      "midi": 62,
      "start": 197.5,
      "duration": 0.625,
      "velocity": 0.71
    },
    {
      "id": "n-04583",
      "pitch": "F4",
      "midi": 65,
      "start": 197.5,
      "duration": 0.625,
      "velocity": 0.71
    },
    {
      "id": "n-04584",
      "pitch": "D5",
      "midi": 74,
      "start": 197.5,
      "duration": 0.625,
      "velocity": 0.71
    },
    {
      "id": "n-04585",
      "pitch": "F5",
      "midi": 77,
      "start": 197.5,
      "duration": 0.625,
      "velocity": 0.71
    },
    {
      "id": "n-04586",
      "pitch": "B5",
      "midi": 83,
      "start": 197.5,
      "duration": 0.313,
      "velocity": 0.71
    },
    {
      "id": "n-04587",
      "pitch": "C6",
      "midi": 84,
      "start": 197.813,
      "duration": 0.313,
      "velocity": 0.71
    },
    {
      "id": "n-04588",
      "pitch": "G3",
      "midi": 55,
      "start": 198.125,
      "duration": 0.625,
      "velocity": 0.71
    },
    {
      "id": "n-04589",
      "pitch": "D4",
      "midi": 62,
      "start": 198.125,
      "duration": 0.625,
      "velocity": 0.71
    },
    {
      "id": "n-04590",
      "pitch": "B4",
      "midi": 71,
      "start": 198.125,
      "duration": 0.625,
      "velocity": 0.71
    },
    {
      "id": "n-04591",
      "pitch": "F5",
      "midi": 77,
      "start": 198.125,
      "duration": 0.625,
      "velocity": 0.71
    },
    {
      "id": "n-04592",
      "pitch": "D6",
      "midi": 86,
      "start": 198.125,
      "duration": 0.313,
      "velocity": 0.71
    },
    {
      "id": "n-04593",
      "pitch": "G2",
      "midi": 43,
      "start": 198.281,
      "duration": 0.156,
      "velocity": 0.71
    },
    {
      "id": "n-04594",
      "pitch": "G2",
      "midi": 43,
      "start": 198.438,
      "duration": 0.156,
      "velocity": 0.71
    },
    {
      "id": "n-04595",
      "pitch": "A5",
      "midi": 81,
      "start": 198.438,
      "duration": 0.313,
      "velocity": 0.71
    },
    {
      "id": "n-04596",
      "pitch": "G2",
      "midi": 43,
      "start": 198.594,
      "duration": 0.156,
      "velocity": 0.71
    },
    {
      "id": "n-04597",
      "pitch": "C3",
      "midi": 48,
      "start": 198.75,
      "duration": 0.313,
      "velocity": 0.71
    },
    {
      "id": "n-04598",
      "pitch": "C4",
      "midi": 60,
      "start": 198.75,
      "duration": 0.625,
      "velocity": 0.71
    },
    {
      "id": "n-04599",
      "pitch": "E4",
      "midi": 64,
      "start": 198.75,
      "duration": 0.625,
      "velocity": 0.71
    },
    {
      "id": "n-04600",
      "pitch": "C5",
      "midi": 72,
      "start": 198.75,
      "duration": 0.625,
      "velocity": 0.71
    },
    {
      "id": "n-04601",
      "pitch": "E5",
      "midi": 76,
      "start": 198.75,
      "duration": 0.625,
      "velocity": 0.71
    },
    {
      "id": "n-04602",
      "pitch": "A5",
      "midi": 81,
      "start": 198.75,
      "duration": 0.313,
      "velocity": 0.71
    },
    {
      "id": "n-04603",
      "pitch": "G5",
      "midi": 79,
      "start": 199.063,
      "duration": 0.313,
      "velocity": 0.71
    },
    {
      "id": "n-04604",
      "pitch": "E3",
      "midi": 52,
      "start": 199.375,
      "duration": 0.625,
      "velocity": 0.71
    },
    {
      "id": "n-04605",
      "pitch": "G3",
      "midi": 55,
      "start": 199.375,
      "duration": 0.625,
      "velocity": 0.71
    },
    {
      "id": "n-04606",
      "pitch": "C4",
      "midi": 60,
      "start": 199.375,
      "duration": 0.625,
      "velocity": 0.71
    },
    {
      "id": "n-04607",
      "pitch": "E4",
      "midi": 64,
      "start": 199.375,
      "duration": 0.625,
      "velocity": 0.71
    },
    {
      "id": "n-04608",
      "pitch": "G4",
      "midi": 67,
      "start": 199.375,
      "duration": 0.313,
      "velocity": 0.71
    },
    {
      "id": "n-04609",
      "pitch": "C5",
      "midi": 72,
      "start": 199.688,
      "duration": 0.313,
      "velocity": 0.71
    },
    {
      "id": "n-04610",
      "pitch": "D3",
      "midi": 50,
      "start": 200,
      "duration": 0.625,
      "velocity": 0.71
    },
    {
      "id": "n-04611",
      "pitch": "F3",
      "midi": 53,
      "start": 200,
      "duration": 0.625,
      "velocity": 0.71
    },
    {
      "id": "n-04612",
      "pitch": "D4",
      "midi": 62,
      "start": 200,
      "duration": 0.625,
      "velocity": 0.71
    },
    {
      "id": "n-04613",
      "pitch": "F4",
      "midi": 65,
      "start": 200,
      "duration": 0.625,
      "velocity": 0.71
    },
    {
      "id": "n-04614",
      "pitch": "B4",
      "midi": 71,
      "start": 200,
      "duration": 0.313,
      "velocity": 0.71
    },
    {
      "id": "n-04615",
      "pitch": "C5",
      "midi": 72,
      "start": 200.313,
      "duration": 0.313,
      "velocity": 0.71
    },
    {
      "id": "n-04616",
      "pitch": "G2",
      "midi": 43,
      "start": 200.625,
      "duration": 0.625,
      "velocity": 0.71
    },
    {
      "id": "n-04617",
      "pitch": "D3",
      "midi": 50,
      "start": 200.625,
      "duration": 0.625,
      "velocity": 0.71
    },
    {
      "id": "n-04618",
      "pitch": "B3",
      "midi": 59,
      "start": 200.625,
      "duration": 0.625,
      "velocity": 0.71
    },
    {
      "id": "n-04619",
      "pitch": "F4",
      "midi": 65,
      "start": 200.625,
      "duration": 0.625,
      "velocity": 0.71
    },
    {
      "id": "n-04620",
      "pitch": "D5",
      "midi": 74,
      "start": 200.625,
      "duration": 0.313,
      "velocity": 0.71
    },
    {
      "id": "n-04621",
      "pitch": "G2",
      "midi": 43,
      "start": 200.781,
      "duration": 0.156,
      "velocity": 0.71
    },
    {
      "id": "n-04622",
      "pitch": "G2",
      "midi": 43,
      "start": 200.781,
      "duration": 0.156,
      "velocity": 0.71
    },
    {
      "id": "n-04623",
      "pitch": "G2",
      "midi": 43,
      "start": 200.938,
      "duration": 0.156,
      "velocity": 0.71
    },
    {
      "id": "n-04624",
      "pitch": "G2",
      "midi": 43,
      "start": 200.938,
      "duration": 0.156,
      "velocity": 0.71
    },
    {
      "id": "n-04625",
      "pitch": "A4",
      "midi": 69,
      "start": 200.938,
      "duration": 0.313,
      "velocity": 0.71
    },
    {
      "id": "n-04626",
      "pitch": "G2",
      "midi": 43,
      "start": 201.094,
      "duration": 0.156,
      "velocity": 0.71
    },
    {
      "id": "n-04627",
      "pitch": "G2",
      "midi": 43,
      "start": 201.094,
      "duration": 0.156,
      "velocity": 0.71
    },
    {
      "id": "n-04628",
      "pitch": "C3",
      "midi": 48,
      "start": 201.25,
      "duration": 0.625,
      "velocity": 0.71
    },
    {
      "id": "n-04629",
      "pitch": "C3",
      "midi": 48,
      "start": 201.25,
      "duration": 0.313,
      "velocity": 0.71
    },
    {
      "id": "n-04630",
      "pitch": "C3",
      "midi": 48,
      "start": 201.25,
      "duration": 0.313,
      "velocity": 0.71
    },
    {
      "id": "n-04631",
      "pitch": "E3",
      "midi": 52,
      "start": 201.25,
      "duration": 0.625,
      "velocity": 0.71
    },
    {
      "id": "n-04632",
      "pitch": "C4",
      "midi": 60,
      "start": 201.25,
      "duration": 0.625,
      "velocity": 0.71
    },
    {
      "id": "n-04633",
      "pitch": "E4",
      "midi": 64,
      "start": 201.25,
      "duration": 0.625,
      "velocity": 0.71
    },
    {
      "id": "n-04634",
      "pitch": "A4",
      "midi": 69,
      "start": 201.25,
      "duration": 0.313,
      "velocity": 0.71
    },
    {
      "id": "n-04635",
      "pitch": "G4",
      "midi": 67,
      "start": 201.563,
      "duration": 0.313,
      "velocity": 0.71
    },
    {
      "id": "n-04636",
      "pitch": "E4",
      "midi": 64,
      "start": 201.875,
      "duration": 0.625,
      "velocity": 0.71
    },
    {
      "id": "n-04637",
      "pitch": "G4",
      "midi": 67,
      "start": 201.875,
      "duration": 0.625,
      "velocity": 0.71
    },
    {
      "id": "n-04638",
      "pitch": "C5",
      "midi": 72,
      "start": 201.875,
      "duration": 0.625,
      "velocity": 0.71
    },
    {
      "id": "n-04639",
      "pitch": "E5",
      "midi": 76,
      "start": 201.875,
      "duration": 0.625,
      "velocity": 0.71
    },
    {
      "id": "n-04640",
      "pitch": "G5",
      "midi": 79,
      "start": 201.875,
      "duration": 0.313,
      "velocity": 0.71
    },
    {
      "id": "n-04641",
      "pitch": "C6",
      "midi": 84,
      "start": 202.188,
      "duration": 0.313,
      "velocity": 0.71
    },
    {
      "id": "n-04642",
      "pitch": "D4",
      "midi": 62,
      "start": 202.5,
      "duration": 0.625,
      "velocity": 0.71
    },
    {
      "id": "n-04643",
      "pitch": "F4",
      "midi": 65,
      "start": 202.5,
      "duration": 0.625,
      "velocity": 0.71
    },
    {
      "id": "n-04644",
      "pitch": "D5",
      "midi": 74,
      "start": 202.5,
      "duration": 0.625,
      "velocity": 0.71
    },
    {
      "id": "n-04645",
      "pitch": "F5",
      "midi": 77,
      "start": 202.5,
      "duration": 0.625,
      "velocity": 0.71
    },
    {
      "id": "n-04646",
      "pitch": "B5",
      "midi": 83,
      "start": 202.5,
      "duration": 0.313,
      "velocity": 0.71
    },
    {
      "id": "n-04647",
      "pitch": "C6",
      "midi": 84,
      "start": 202.813,
      "duration": 0.313,
      "velocity": 0.71
    },
    {
      "id": "n-04648",
      "pitch": "G3",
      "midi": 55,
      "start": 203.125,
      "duration": 0.625,
      "velocity": 0.71
    },
    {
      "id": "n-04649",
      "pitch": "D4",
      "midi": 62,
      "start": 203.125,
      "duration": 0.625,
      "velocity": 0.71
    },
    {
      "id": "n-04650",
      "pitch": "B4",
      "midi": 71,
      "start": 203.125,
      "duration": 0.625,
      "velocity": 0.71
    },
    {
      "id": "n-04651",
      "pitch": "F5",
      "midi": 77,
      "start": 203.125,
      "duration": 0.625,
      "velocity": 0.71
    },
    {
      "id": "n-04652",
      "pitch": "D6",
      "midi": 86,
      "start": 203.125,
      "duration": 0.313,
      "velocity": 0.71
    },
    {
      "id": "n-04653",
      "pitch": "G2",
      "midi": 43,
      "start": 203.281,
      "duration": 0.156,
      "velocity": 0.71
    },
    {
      "id": "n-04654",
      "pitch": "G2",
      "midi": 43,
      "start": 203.438,
      "duration": 0.156,
      "velocity": 0.71
    },
    {
      "id": "n-04655",
      "pitch": "A5",
      "midi": 81,
      "start": 203.438,
      "duration": 0.313,
      "velocity": 0.71
    },
    {
      "id": "n-04656",
      "pitch": "G2",
      "midi": 43,
      "start": 203.594,
      "duration": 0.156,
      "velocity": 0.71
    },
    {
      "id": "n-04657",
      "pitch": "C3",
      "midi": 48,
      "start": 203.75,
      "duration": 0.313,
      "velocity": 0.71
    },
    {
      "id": "n-04658",
      "pitch": "C4",
      "midi": 60,
      "start": 203.75,
      "duration": 0.625,
      "velocity": 0.71
    },
    {
      "id": "n-04659",
      "pitch": "E4",
      "midi": 64,
      "start": 203.75,
      "duration": 0.625,
      "velocity": 0.71
    },
    {
      "id": "n-04660",
      "pitch": "C5",
      "midi": 72,
      "start": 203.75,
      "duration": 0.625,
      "velocity": 0.71
    },
    {
      "id": "n-04661",
      "pitch": "E5",
      "midi": 76,
      "start": 203.75,
      "duration": 0.625,
      "velocity": 0.71
    },
    {
      "id": "n-04662",
      "pitch": "A5",
      "midi": 81,
      "start": 203.75,
      "duration": 0.313,
      "velocity": 0.71
    },
    {
      "id": "n-04663",
      "pitch": "G5",
      "midi": 79,
      "start": 204.063,
      "duration": 0.313,
      "velocity": 0.71
    },
    {
      "id": "n-04664",
      "pitch": "G3",
      "midi": 55,
      "start": 204.375,
      "duration": 0.625,
      "velocity": 0.71
    },
    {
      "id": "n-04665",
      "pitch": "A#3",
      "midi": 58,
      "start": 204.375,
      "duration": 0.625,
      "velocity": 0.71
    },
    {
      "id": "n-04666",
      "pitch": "G4",
      "midi": 67,
      "start": 204.375,
      "duration": 0.625,
      "velocity": 0.71
    },
    {
      "id": "n-04667",
      "pitch": "A#4",
      "midi": 70,
      "start": 204.375,
      "duration": 0.625,
      "velocity": 0.71
    },
    {
      "id": "n-04668",
      "pitch": "A#4",
      "midi": 70,
      "start": 204.375,
      "duration": 0.313,
      "velocity": 0.71
    },
    {
      "id": "n-04669",
      "pitch": "C5",
      "midi": 72,
      "start": 204.688,
      "duration": 0.313,
      "velocity": 0.71
    },
    {
      "id": "n-04670",
      "pitch": "E3",
      "midi": 52,
      "start": 205,
      "duration": 0.625,
      "velocity": 0.71
    },
    {
      "id": "n-04671",
      "pitch": "G3",
      "midi": 55,
      "start": 205,
      "duration": 0.625,
      "velocity": 0.71
    },
    {
      "id": "n-04672",
      "pitch": "E4",
      "midi": 64,
      "start": 205,
      "duration": 0.625,
      "velocity": 0.71
    },
    {
      "id": "n-04673",
      "pitch": "G4",
      "midi": 67,
      "start": 205,
      "duration": 0.625,
      "velocity": 0.71
    },
    {
      "id": "n-04674",
      "pitch": "C#5",
      "midi": 73,
      "start": 205,
      "duration": 0.313,
      "velocity": 0.71
    },
    {
      "id": "n-04675",
      "pitch": "C5",
      "midi": 72,
      "start": 205.313,
      "duration": 0.313,
      "velocity": 0.71
    },
    {
      "id": "n-04676",
      "pitch": "C3",
      "midi": 48,
      "start": 205.625,
      "duration": 0.625,
      "velocity": 0.71
    },
    {
      "id": "n-04677",
      "pitch": "E3",
      "midi": 52,
      "start": 205.625,
      "duration": 0.625,
      "velocity": 0.71
    },
    {
      "id": "n-04678",
      "pitch": "E4",
      "midi": 64,
      "start": 205.625,
      "duration": 0.625,
      "velocity": 0.71
    },
    {
      "id": "n-04679",
      "pitch": "G4",
      "midi": 67,
      "start": 205.625,
      "duration": 0.625,
      "velocity": 0.71
    },
    {
      "id": "n-04680",
      "pitch": "A#4",
      "midi": 70,
      "start": 205.625,
      "duration": 0.313,
      "velocity": 0.71
    },
    {
      "id": "n-04681",
      "pitch": "A#5",
      "midi": 82,
      "start": 205.625,
      "duration": 0.313,
      "velocity": 0.71
    },
    {
      "id": "n-04682",
      "pitch": "C3",
      "midi": 48,
      "start": 205.781,
      "duration": 0.156,
      "velocity": 0.71
    },
    {
      "id": "n-04683",
      "pitch": "C3",
      "midi": 48,
      "start": 205.781,
      "duration": 0.156,
      "velocity": 0.71
    },
    {
      "id": "n-04684",
      "pitch": "C3",
      "midi": 48,
      "start": 205.938,
      "duration": 0.156,
      "velocity": 0.71
    },
    {
      "id": "n-04685",
      "pitch": "C3",
      "midi": 48,
      "start": 205.938,
      "duration": 0.156,
      "velocity": 0.71
    },
    {
      "id": "n-04686",
      "pitch": "C5",
      "midi": 72,
      "start": 205.938,
      "duration": 0.313,
      "velocity": 0.71
    },
    {
      "id": "n-04687",
      "pitch": "C6",
      "midi": 84,
      "start": 205.938,
      "duration": 0.313,
      "velocity": 0.71
    },
    {
      "id": "n-04688",
      "pitch": "C3",
      "midi": 48,
      "start": 206.094,
      "duration": 0.156,
      "velocity": 0.71
    },
    {
      "id": "n-04689",
      "pitch": "C3",
      "midi": 48,
      "start": 206.094,
      "duration": 0.156,
      "velocity": 0.71
    },
    {
      "id": "n-04690",
      "pitch": "F3",
      "midi": 53,
      "start": 206.25,
      "duration": 0.625,
      "velocity": 0.71
    },
    {
      "id": "n-04691",
      "pitch": "F3",
      "midi": 53,
      "start": 206.25,
      "duration": 0.313,
      "velocity": 0.71
    },
    {
      "id": "n-04692",
      "pitch": "F3",
      "midi": 53,
      "start": 206.25,
      "duration": 0.313,
      "velocity": 0.71
    },
    {
      "id": "n-04693",
      "pitch": "C4",
      "midi": 60,
      "start": 206.25,
      "duration": 0.625,
      "velocity": 0.71
    },
    {
      "id": "n-04694",
      "pitch": "F4",
      "midi": 65,
      "start": 206.25,
      "duration": 0.625,
      "velocity": 0.71
    },
    {
      "id": "n-04695",
      "pitch": "A#4",
      "midi": 70,
      "start": 206.25,
      "duration": 0.313,
      "velocity": 0.71
    },
    {
      "id": "n-04696",
      "pitch": "A#5",
      "midi": 82,
      "start": 206.25,
      "duration": 0.313,
      "velocity": 0.71
    },
    {
      "id": "n-04697",
      "pitch": "A4",
      "midi": 69,
      "start": 206.563,
      "duration": 0.313,
      "velocity": 0.71
    },
    {
      "id": "n-04698",
      "pitch": "A5",
      "midi": 81,
      "start": 206.563,
      "duration": 0.313,
      "velocity": 0.71
    },
    {
      "id": "n-04699",
      "pitch": "A3",
      "midi": 57,
      "start": 206.875,
      "duration": 0.625,
      "velocity": 0.71
    },
    {
      "id": "n-04700",
      "pitch": "C4",
      "midi": 60,
      "start": 206.875,
      "duration": 0.625,
      "velocity": 0.71
    },
    {
      "id": "n-04701",
      "pitch": "F4",
      "midi": 65,
      "start": 206.875,
      "duration": 0.625,
      "velocity": 0.71
    },
    {
      "id": "n-04702",
      "pitch": "A4",
      "midi": 69,
      "start": 206.875,
      "duration": 1.25,
      "velocity": 0.71
    },
    {
      "id": "n-04703",
      "pitch": "C5",
      "midi": 72,
      "start": 206.875,
      "duration": 0.313,
      "velocity": 0.71
    },
    {
      "id": "n-04704",
      "pitch": "D5",
      "midi": 74,
      "start": 207.188,
      "duration": 0.313,
      "velocity": 0.71
    },
    {
      "id": "n-04705",
      "pitch": "F#3",
      "midi": 54,
      "start": 207.5,
      "duration": 0.625,
      "velocity": 0.71
    },
    {
      "id": "n-04706",
      "pitch": "A3",
      "midi": 57,
      "start": 207.5,
      "duration": 0.625,
      "velocity": 0.71
    },
    {
      "id": "n-04707",
      "pitch": "F#4",
      "midi": 66,
      "start": 207.5,
      "duration": 0.625,
      "velocity": 0.71
    },
    {
      "id": "n-04708",
      "pitch": "D#5",
      "midi": 75,
      "start": 207.5,
      "duration": 0.313,
      "velocity": 0.71
    },
    {
      "id": "n-04709",
      "pitch": "D5",
      "midi": 74,
      "start": 207.813,
      "duration": 0.313,
      "velocity": 0.71
    },
    {
      "id": "n-04710",
      "pitch": "D3",
      "midi": 50,
      "start": 208.125,
      "duration": 0.625,
      "velocity": 0.71
    },
    {
      "id": "n-04711",
      "pitch": "F#3",
      "midi": 54,
      "start": 208.125,
      "duration": 0.625,
      "velocity": 0.71
    },
    {
      "id": "n-04712",
      "pitch": "F#4",
      "midi": 66,
      "start": 208.125,
      "duration": 0.625,
      "velocity": 0.71
    },
    {
      "id": "n-04713",
      "pitch": "A4",
      "midi": 69,
      "start": 208.125,
      "duration": 0.625,
      "velocity": 0.71
    },
    {
      "id": "n-04714",
      "pitch": "C5",
      "midi": 72,
      "start": 208.125,
      "duration": 0.313,
      "velocity": 0.71
    },
    {
      "id": "n-04715",
      "pitch": "C6",
      "midi": 84,
      "start": 208.125,
      "duration": 0.313,
      "velocity": 0.71
    },
    {
      "id": "n-04716",
      "pitch": "D3",
      "midi": 50,
      "start": 208.281,
      "duration": 0.156,
      "velocity": 0.71
    },
    {
      "id": "n-04717",
      "pitch": "D3",
      "midi": 50,
      "start": 208.281,
      "duration": 0.156,
      "velocity": 0.71
    },
    {
      "id": "n-04718",
      "pitch": "D3",
      "midi": 50,
      "start": 208.438,
      "duration": 0.156,
      "velocity": 0.71
    },
    {
      "id": "n-04719",
      "pitch": "D3",
      "midi": 50,
      "start": 208.438,
      "duration": 0.156,
      "velocity": 0.71
    },
    {
      "id": "n-04720",
      "pitch": "D5",
      "midi": 74,
      "start": 208.438,
      "duration": 0.313,
      "velocity": 0.71
    },
    {
      "id": "n-04721",
      "pitch": "D6",
      "midi": 86,
      "start": 208.438,
      "duration": 0.313,
      "velocity": 0.71
    },
    {
      "id": "n-04722",
      "pitch": "D3",
      "midi": 50,
      "start": 208.594,
      "duration": 0.156,
      "velocity": 0.71
    },
    {
      "id": "n-04723",
      "pitch": "D3",
      "midi": 50,
      "start": 208.594,
      "duration": 0.156,
      "velocity": 0.71
    },
    {
      "id": "n-04724",
      "pitch": "G3",
      "midi": 55,
      "start": 208.75,
      "duration": 0.625,
      "velocity": 0.71
    },
    {
      "id": "n-04725",
      "pitch": "G3",
      "midi": 55,
      "start": 208.75,
      "duration": 0.313,
      "velocity": 0.71
    },
    {
      "id": "n-04726",
      "pitch": "G3",
      "midi": 55,
      "start": 208.75,
      "duration": 0.313,
      "velocity": 0.71
    },
    {
      "id": "n-04727",
      "pitch": "D4",
      "midi": 62,
      "start": 208.75,
      "duration": 0.625,
      "velocity": 0.71
    },
    {
      "id": "n-04728",
      "pitch": "G4",
      "midi": 67,
      "start": 208.75,
      "duration": 0.625,
      "velocity": 0.71
    },
    {
      "id": "n-04729",
      "pitch": "C5",
      "midi": 72,
      "start": 208.75,
      "duration": 0.313,
      "velocity": 0.71
    },
    {
      "id": "n-04730",
      "pitch": "C6",
      "midi": 84,
      "start": 208.75,
      "duration": 0.313,
      "velocity": 0.71
    },
    {
      "id": "n-04731",
      "pitch": "B4",
      "midi": 71,
      "start": 209.063,
      "duration": 0.313,
      "velocity": 0.71
    },
    {
      "id": "n-04732",
      "pitch": "B5",
      "midi": 83,
      "start": 209.063,
      "duration": 0.313,
      "velocity": 0.71
    },
    {
      "id": "n-04733",
      "pitch": "G#2",
      "midi": 44,
      "start": 209.375,
      "duration": 1.875,
      "velocity": 0.71
    },
    {
      "id": "n-04734",
      "pitch": "G#3",
      "midi": 56,
      "start": 209.375,
      "duration": 1.875,
      "velocity": 0.71
    },
    {
      "id": "n-04735",
      "pitch": "F4",
      "midi": 65,
      "start": 209.375,
      "duration": 0.313,
      "velocity": 0.71
    },
    {
      "id": "n-04736",
      "pitch": "F4",
      "midi": 65,
      "start": 209.375,
      "duration": 0.313,
      "velocity": 0.71
    },
    {
      "id": "n-04737",
      "pitch": "F5",
      "midi": 77,
      "start": 209.375,
      "duration": 0.313,
      "velocity": 0.71
    },
    {
      "id": "n-04738",
      "pitch": "G4",
      "midi": 67,
      "start": 209.688,
      "duration": 0.313,
      "velocity": 0.71
    },
    {
      "id": "n-04739",
      "pitch": "G4",
      "midi": 67,
      "start": 209.688,
      "duration": 0.313,
      "velocity": 0.71
    },
    {
      "id": "n-04740",
      "pitch": "G5",
      "midi": 79,
      "start": 209.688,
      "duration": 0.313,
      "velocity": 0.71
    },
    {
      "id": "n-04741",
      "pitch": "G#4",
      "midi": 68,
      "start": 210,
      "duration": 0.313,
      "velocity": 0.71
    },
    {
      "id": "n-04742",
      "pitch": "G#4",
      "midi": 68,
      "start": 210,
      "duration": 0.313,
      "velocity": 0.71
    },
    {
      "id": "n-04743",
      "pitch": "G#5",
      "midi": 80,
      "start": 210,
      "duration": 0.313,
      "velocity": 0.71
    },
    {
      "id": "n-04744",
      "pitch": "G#3",
      "midi": 56,
      "start": 210.156,
      "duration": 0.156,
      "velocity": 0.71
    },
    {
      "id": "n-04745",
      "pitch": "G#3",
      "midi": 56,
      "start": 210.156,
      "duration": 0.156,
      "velocity": 0.71
    },
    {
      "id": "n-04746",
      "pitch": "G#3",
      "midi": 56,
      "start": 210.313,
      "duration": 0.156,
      "velocity": 0.71
    },
    {
      "id": "n-04747",
      "pitch": "G#3",
      "midi": 56,
      "start": 210.313,
      "duration": 0.156,
      "velocity": 0.71
    },
    {
      "id": "n-04748",
      "pitch": "G4",
      "midi": 67,
      "start": 210.313,
      "duration": 0.313,
      "velocity": 0.71
    },
    {
      "id": "n-04749",
      "pitch": "G4",
      "midi": 67,
      "start": 210.313,
      "duration": 0.313,
      "velocity": 0.71
    },
    {
      "id": "n-04750",
      "pitch": "G5",
      "midi": 79,
      "start": 210.313,
      "duration": 0.313,
      "velocity": 0.71
    },
    {
      "id": "n-04751",
      "pitch": "G#3",
      "midi": 56,
      "start": 210.469,
      "duration": 0.156,
      "velocity": 0.71
    },
    {
      "id": "n-04752",
      "pitch": "G#3",
      "midi": 56,
      "start": 210.469,
      "duration": 0.156,
      "velocity": 0.71
    },
    {
      "id": "n-04753",
      "pitch": "G#3",
      "midi": 56,
      "start": 210.625,
      "duration": 0.313,
      "velocity": 0.71
    },
    {
      "id": "n-04754",
      "pitch": "G#3",
      "midi": 56,
      "start": 210.625,
      "duration": 0.313,
      "velocity": 0.71
    },
    {
      "id": "n-04755",
      "pitch": "F4",
      "midi": 65,
      "start": 210.625,
      "duration": 0.313,
      "velocity": 0.71
    },
    {
      "id": "n-04756",
      "pitch": "F4",
      "midi": 65,
      "start": 210.625,
      "duration": 0.313,
      "velocity": 0.71
    },
    {
      "id": "n-04757",
      "pitch": "F5",
      "midi": 77,
      "start": 210.625,
      "duration": 0.313,
      "velocity": 0.71
    },
    {
      "id": "n-04758",
      "pitch": "G4",
      "midi": 67,
      "start": 210.938,
      "duration": 0.313,
      "velocity": 0.71
    },
    {
      "id": "n-04759",
      "pitch": "G4",
      "midi": 67,
      "start": 210.938,
      "duration": 0.313,
      "velocity": 0.71
    },
    {
      "id": "n-04760",
      "pitch": "G5",
      "midi": 79,
      "start": 210.938,
      "duration": 0.313,
      "velocity": 0.71
    },
    {
      "id": "n-04761",
      "pitch": "B2",
      "midi": 47,
      "start": 211.25,
      "duration": 1.25,
      "velocity": 0.71
    },
    {
      "id": "n-04762",
      "pitch": "B3",
      "midi": 59,
      "start": 211.25,
      "duration": 1.25,
      "velocity": 0.71
    },
    {
      "id": "n-04763",
      "pitch": "G#4",
      "midi": 68,
      "start": 211.25,
      "duration": 0.313,
      "velocity": 0.71
    },
    {
      "id": "n-04764",
      "pitch": "G#4",
      "midi": 68,
      "start": 211.25,
      "duration": 0.313,
      "velocity": 0.71
    },
    {
      "id": "n-04765",
      "pitch": "G#5",
      "midi": 80,
      "start": 211.25,
      "duration": 0.313,
      "velocity": 0.71
    },
    {
      "id": "n-04766",
      "pitch": "A3",
      "midi": 57,
      "start": 211.406,
      "duration": 0.156,
      "velocity": 0.71
    },
    {
      "id": "n-04767",
      "pitch": "B3",
      "midi": 59,
      "start": 211.406,
      "duration": 0.156,
      "velocity": 0.71
    },
    {
      "id": "n-04768",
      "pitch": "A3",
      "midi": 57,
      "start": 211.563,
      "duration": 0.156,
      "velocity": 0.71
    },
    {
      "id": "n-04769",
      "pitch": "B3",
      "midi": 59,
      "start": 211.563,
      "duration": 0.156,
      "velocity": 0.71
    },
    {
      "id": "n-04770",
      "pitch": "G4",
      "midi": 67,
      "start": 211.563,
      "duration": 0.313,
      "velocity": 0.71
    },
    {
      "id": "n-04771",
      "pitch": "G4",
      "midi": 67,
      "start": 211.563,
      "duration": 0.313,
      "velocity": 0.71
    },
    {
      "id": "n-04772",
      "pitch": "G5",
      "midi": 79,
      "start": 211.563,
      "duration": 0.313,
      "velocity": 0.71
    },
    {
      "id": "n-04773",
      "pitch": "A3",
      "midi": 57,
      "start": 211.719,
      "duration": 0.156,
      "velocity": 0.71
    },
    {
      "id": "n-04774",
      "pitch": "B3",
      "midi": 59,
      "start": 211.719,
      "duration": 0.156,
      "velocity": 0.71
    },
    {
      "id": "n-04775",
      "pitch": "A3",
      "midi": 57,
      "start": 211.875,
      "duration": 0.313,
      "velocity": 0.71
    },
    {
      "id": "n-04776",
      "pitch": "B3",
      "midi": 59,
      "start": 211.875,
      "duration": 0.313,
      "velocity": 0.71
    },
    {
      "id": "n-04777",
      "pitch": "F4",
      "midi": 65,
      "start": 211.875,
      "duration": 0.313,
      "velocity": 0.71
    },
    {
      "id": "n-04778",
      "pitch": "F4",
      "midi": 65,
      "start": 211.875,
      "duration": 0.313,
      "velocity": 0.71
    },
    {
      "id": "n-04779",
      "pitch": "F5",
      "midi": 77,
      "start": 211.875,
      "duration": 0.313,
      "velocity": 0.71
    },
    {
      "id": "n-04780",
      "pitch": "G4",
      "midi": 67,
      "start": 212.188,
      "duration": 0.313,
      "velocity": 0.71
    },
    {
      "id": "n-04781",
      "pitch": "G4",
      "midi": 67,
      "start": 212.188,
      "duration": 0.313,
      "velocity": 0.71
    },
    {
      "id": "n-04782",
      "pitch": "G5",
      "midi": 79,
      "start": 212.188,
      "duration": 0.313,
      "velocity": 0.71
    },
    {
      "id": "n-04783",
      "pitch": "D3",
      "midi": 50,
      "start": 212.5,
      "duration": 2.5,
      "velocity": 0.71
    },
    {
      "id": "n-04784",
      "pitch": "D4",
      "midi": 62,
      "start": 212.5,
      "duration": 2.5,
      "velocity": 0.71
    },
    {
      "id": "n-04785",
      "pitch": "G#4",
      "midi": 68,
      "start": 212.5,
      "duration": 0.313,
      "velocity": 0.71
    },
    {
      "id": "n-04786",
      "pitch": "G#4",
      "midi": 68,
      "start": 212.5,
      "duration": 0.313,
      "velocity": 0.71
    },
    {
      "id": "n-04787",
      "pitch": "G#4",
      "midi": 68,
      "start": 212.5,
      "duration": 0.313,
      "velocity": 0.71
    },
    {
      "id": "n-04788",
      "pitch": "G#5",
      "midi": 80,
      "start": 212.5,
      "duration": 0.313,
      "velocity": 0.71
    },
    {
      "id": "n-04789",
      "pitch": "G#5",
      "midi": 80,
      "start": 212.5,
      "duration": 0.313,
      "velocity": 0.71
    },
    {
      "id": "n-04790",
      "pitch": "D4",
      "midi": 62,
      "start": 212.656,
      "duration": 0.156,
      "velocity": 0.71
    },
    {
      "id": "n-04791",
      "pitch": "D4",
      "midi": 62,
      "start": 212.813,
      "duration": 0.156,
      "velocity": 0.71
    },
    {
      "id": "n-04792",
      "pitch": "G4",
      "midi": 67,
      "start": 212.813,
      "duration": 0.313,
      "velocity": 0.71
    },
    {
      "id": "n-04793",
      "pitch": "G4",
      "midi": 67,
      "start": 212.813,
      "duration": 0.313,
      "velocity": 0.71
    },
    {
      "id": "n-04794",
      "pitch": "G4",
      "midi": 67,
      "start": 212.813,
      "duration": 0.313,
      "velocity": 0.71
    },
    {
      "id": "n-04795",
      "pitch": "G5",
      "midi": 79,
      "start": 212.813,
      "duration": 0.313,
      "velocity": 0.71
    },
    {
      "id": "n-04796",
      "pitch": "G5",
      "midi": 79,
      "start": 212.813,
      "duration": 0.313,
      "velocity": 0.71
    },
    {
      "id": "n-04797",
      "pitch": "D4",
      "midi": 62,
      "start": 212.969,
      "duration": 0.156,
      "velocity": 0.71
    },
    {
      "id": "n-04798",
      "pitch": "F3",
      "midi": 53,
      "start": 213.125,
      "duration": 0.313,
      "velocity": 0.71
    },
    {
      "id": "n-04799",
      "pitch": "D4",
      "midi": 62,
      "start": 213.125,
      "duration": 0.313,
      "velocity": 0.71
    },
    {
      "id": "n-04800",
      "pitch": "F4",
      "midi": 65,
      "start": 213.125,
      "duration": 0.313,
      "velocity": 0.71
    },
    {
      "id": "n-04801",
      "pitch": "F4",
      "midi": 65,
      "start": 213.125,
      "duration": 0.313,
      "velocity": 0.71
    },
    {
      "id": "n-04802",
      "pitch": "F4",
      "midi": 65,
      "start": 213.125,
      "duration": 0.313,
      "velocity": 0.71
    },
    {
      "id": "n-04803",
      "pitch": "F5",
      "midi": 77,
      "start": 213.125,
      "duration": 0.313,
      "velocity": 0.71
    },
    {
      "id": "n-04804",
      "pitch": "F5",
      "midi": 77,
      "start": 213.125,
      "duration": 0.313,
      "velocity": 0.71
    },
    {
      "id": "n-04805",
      "pitch": "G3",
      "midi": 55,
      "start": 213.438,
      "duration": 0.313,
      "velocity": 0.71
    },
    {
      "id": "n-04806",
      "pitch": "G4",
      "midi": 67,
      "start": 213.438,
      "duration": 0.313,
      "velocity": 0.71
    },
    {
      "id": "n-04807",
      "pitch": "G4",
      "midi": 67,
      "start": 213.438,
      "duration": 0.313,
      "velocity": 0.71
    },
    {
      "id": "n-04808",
      "pitch": "G4",
      "midi": 67,
      "start": 213.438,
      "duration": 0.313,
      "velocity": 0.71
    },
    {
      "id": "n-04809",
      "pitch": "G5",
      "midi": 79,
      "start": 213.438,
      "duration": 0.313,
      "velocity": 0.71
    },
    {
      "id": "n-04810",
      "pitch": "G5",
      "midi": 79,
      "start": 213.438,
      "duration": 0.313,
      "velocity": 0.71
    },
    {
      "id": "n-04811",
      "pitch": "G#3",
      "midi": 56,
      "start": 213.75,
      "duration": 0.313,
      "velocity": 0.71
    },
    {
      "id": "n-04812",
      "pitch": "G#4",
      "midi": 68,
      "start": 213.75,
      "duration": 0.313,
      "velocity": 0.71
    },
    {
      "id": "n-04813",
      "pitch": "G#4",
      "midi": 68,
      "start": 213.75,
      "duration": 0.313,
      "velocity": 0.71
    },
    {
      "id": "n-04814",
      "pitch": "G#4",
      "midi": 68,
      "start": 213.75,
      "duration": 0.313,
      "velocity": 0.71
    },
    {
      "id": "n-04815",
      "pitch": "G#5",
      "midi": 80,
      "start": 213.75,
      "duration": 0.313,
      "velocity": 0.71
    },
    {
      "id": "n-04816",
      "pitch": "G#5",
      "midi": 80,
      "start": 213.75,
      "duration": 0.313,
      "velocity": 0.71
    },
    {
      "id": "n-04817",
      "pitch": "G#6",
      "midi": 92,
      "start": 213.75,
      "duration": 0.313,
      "velocity": 0.71
    },
    {
      "id": "n-04818",
      "pitch": "D4",
      "midi": 62,
      "start": 213.906,
      "duration": 0.156,
      "velocity": 0.71
    },
    {
      "id": "n-04819",
      "pitch": "G3",
      "midi": 55,
      "start": 214.063,
      "duration": 0.313,
      "velocity": 0.71
    },
    {
      "id": "n-04820",
      "pitch": "D4",
      "midi": 62,
      "start": 214.063,
      "duration": 0.156,
      "velocity": 0.71
    },
    {
      "id": "n-04821",
      "pitch": "G4",
      "midi": 67,
      "start": 214.063,
      "duration": 0.313,
      "velocity": 0.71
    },
    {
      "id": "n-04822",
      "pitch": "G4",
      "midi": 67,
      "start": 214.063,
      "duration": 0.313,
      "velocity": 0.71
    },
    {
      "id": "n-04823",
      "pitch": "G4",
      "midi": 67,
      "start": 214.063,
      "duration": 0.313,
      "velocity": 0.71
    },
    {
      "id": "n-04824",
      "pitch": "G5",
      "midi": 79,
      "start": 214.063,
      "duration": 0.313,
      "velocity": 0.71
    },
    {
      "id": "n-04825",
      "pitch": "G5",
      "midi": 79,
      "start": 214.063,
      "duration": 0.313,
      "velocity": 0.71
    },
    {
      "id": "n-04826",
      "pitch": "G6",
      "midi": 91,
      "start": 214.063,
      "duration": 0.313,
      "velocity": 0.71
    },
    {
      "id": "n-04827",
      "pitch": "D4",
      "midi": 62,
      "start": 214.219,
      "duration": 0.156,
      "velocity": 0.71
    },
    {
      "id": "n-04828",
      "pitch": "F#3",
      "midi": 54,
      "start": 214.375,
      "duration": 0.313,
      "velocity": 0.71
    },
    {
      "id": "n-04829",
      "pitch": "D4",
      "midi": 62,
      "start": 214.375,
      "duration": 0.313,
      "velocity": 0.71
    },
    {
      "id": "n-04830",
      "pitch": "F#4",
      "midi": 66,
      "start": 214.375,
      "duration": 0.313,
      "velocity": 0.71
    },
    {
      "id": "n-04831",
      "pitch": "F#4",
      "midi": 66,
      "start": 214.375,
      "duration": 0.313,
      "velocity": 0.71
    },
    {
      "id": "n-04832",
      "pitch": "F#4",
      "midi": 66,
      "start": 214.375,
      "duration": 0.313,
      "velocity": 0.71
    },
    {
      "id": "n-04833",
      "pitch": "F#5",
      "midi": 78,
      "start": 214.375,
      "duration": 0.313,
      "velocity": 0.71
    },
    {
      "id": "n-04834",
      "pitch": "F#5",
      "midi": 78,
      "start": 214.375,
      "duration": 0.313,
      "velocity": 0.71
    },
    {
      "id": "n-04835",
      "pitch": "F#6",
      "midi": 90,
      "start": 214.375,
      "duration": 0.313,
      "velocity": 0.71
    },
    {
      "id": "n-04836",
      "pitch": "G3",
      "midi": 55,
      "start": 214.688,
      "duration": 0.313,
      "velocity": 0.71
    },
    {
      "id": "n-04837",
      "pitch": "G4",
      "midi": 67,
      "start": 214.688,
      "duration": 0.313,
      "velocity": 0.71
    },
    {
      "id": "n-04838",
      "pitch": "G4",
      "midi": 67,
      "start": 214.688,
      "duration": 0.313,
      "velocity": 0.71
    },
    {
      "id": "n-04839",
      "pitch": "G4",
      "midi": 67,
      "start": 214.688,
      "duration": 0.313,
      "velocity": 0.71
    },
    {
      "id": "n-04840",
      "pitch": "G5",
      "midi": 79,
      "start": 214.688,
      "duration": 0.313,
      "velocity": 0.71
    },
    {
      "id": "n-04841",
      "pitch": "G5",
      "midi": 79,
      "start": 214.688,
      "duration": 0.313,
      "velocity": 0.71
    },
    {
      "id": "n-04842",
      "pitch": "G6",
      "midi": 91,
      "start": 214.688,
      "duration": 0.313,
      "velocity": 0.71
    },
    {
      "id": "n-04843",
      "pitch": "D3",
      "midi": 50,
      "start": 215,
      "duration": 1.25,
      "velocity": 0.71
    },
    {
      "id": "n-04844",
      "pitch": "A3",
      "midi": 57,
      "start": 215,
      "duration": 0.313,
      "velocity": 0.71
    },
    {
      "id": "n-04845",
      "pitch": "D4",
      "midi": 62,
      "start": 215,
      "duration": 1.25,
      "velocity": 0.71
    },
    {
      "id": "n-04846",
      "pitch": "A4",
      "midi": 69,
      "start": 215,
      "duration": 0.313,
      "velocity": 0.71
    },
    {
      "id": "n-04847",
      "pitch": "A4",
      "midi": 69,
      "start": 215,
      "duration": 0.313,
      "velocity": 0.71
    },
    {
      "id": "n-04848",
      "pitch": "A4",
      "midi": 69,
      "start": 215,
      "duration": 0.313,
      "velocity": 0.71
    },
    {
      "id": "n-04849",
      "pitch": "A5",
      "midi": 81,
      "start": 215,
      "duration": 0.313,
      "velocity": 0.71
    },
    {
      "id": "n-04850",
      "pitch": "A5",
      "midi": 81,
      "start": 215,
      "duration": 0.313,
      "velocity": 0.71
    },
    {
      "id": "n-04851",
      "pitch": "A6",
      "midi": 93,
      "start": 215,
      "duration": 0.313,
      "velocity": 0.71
    },
    {
      "id": "n-04852",
      "pitch": "D4",
      "midi": 62,
      "start": 215.156,
      "duration": 0.156,
      "velocity": 0.71
    },
    {
      "id": "n-04853",
      "pitch": "G3",
      "midi": 55,
      "start": 215.313,
      "duration": 0.313,
      "velocity": 0.71
    },
    {
      "id": "n-04854",
      "pitch": "D4",
      "midi": 62,
      "start": 215.313,
      "duration": 0.156,
      "velocity": 0.71
    },
    {
      "id": "n-04855",
      "pitch": "G4",
      "midi": 67,
      "start": 215.313,
      "duration": 0.313,
      "velocity": 0.71
    },
    {
      "id": "n-04856",
      "pitch": "G4",
      "midi": 67,
      "start": 215.313,
      "duration": 0.313,
      "velocity": 0.71
    },
    {
      "id": "n-04857",
      "pitch": "G4",
      "midi": 67,
      "start": 215.313,
      "duration": 0.313,
      "velocity": 0.71
    },
    {
      "id": "n-04858",
      "pitch": "G5",
      "midi": 79,
      "start": 215.313,
      "duration": 0.313,
      "velocity": 0.71
    },
    {
      "id": "n-04859",
      "pitch": "G5",
      "midi": 79,
      "start": 215.313,
      "duration": 0.313,
      "velocity": 0.71
    },
    {
      "id": "n-04860",
      "pitch": "G6",
      "midi": 91,
      "start": 215.313,
      "duration": 0.313,
      "velocity": 0.71
    },
    {
      "id": "n-04861",
      "pitch": "D4",
      "midi": 62,
      "start": 215.469,
      "duration": 0.156,
      "velocity": 0.71
    },
    {
      "id": "n-04862",
      "pitch": "F#3",
      "midi": 54,
      "start": 215.625,
      "duration": 0.313,
      "velocity": 0.71
    },
    {
      "id": "n-04863",
      "pitch": "D4",
      "midi": 62,
      "start": 215.625,
      "duration": 0.313,
      "velocity": 0.71
    },
    {
      "id": "n-04864",
      "pitch": "F#4",
      "midi": 66,
      "start": 215.625,
      "duration": 0.313,
      "velocity": 0.71
    },
    {
      "id": "n-04865",
      "pitch": "F#4",
      "midi": 66,
      "start": 215.625,
      "duration": 0.313,
      "velocity": 0.71
    },
    {
      "id": "n-04866",
      "pitch": "F#4",
      "midi": 66,
      "start": 215.625,
      "duration": 0.313,
      "velocity": 0.71
    },
    {
      "id": "n-04867",
      "pitch": "F#5",
      "midi": 78,
      "start": 215.625,
      "duration": 0.313,
      "velocity": 0.71
    },
    {
      "id": "n-04868",
      "pitch": "F#5",
      "midi": 78,
      "start": 215.625,
      "duration": 0.313,
      "velocity": 0.71
    },
    {
      "id": "n-04869",
      "pitch": "F#6",
      "midi": 90,
      "start": 215.625,
      "duration": 0.313,
      "velocity": 0.71
    },
    {
      "id": "n-04870",
      "pitch": "G3",
      "midi": 55,
      "start": 215.938,
      "duration": 0.313,
      "velocity": 0.71
    },
    {
      "id": "n-04871",
      "pitch": "G4",
      "midi": 67,
      "start": 215.938,
      "duration": 0.313,
      "velocity": 0.71
    },
    {
      "id": "n-04872",
      "pitch": "G4",
      "midi": 67,
      "start": 215.938,
      "duration": 0.313,
      "velocity": 0.71
    },
    {
      "id": "n-04873",
      "pitch": "G4",
      "midi": 67,
      "start": 215.938,
      "duration": 0.313,
      "velocity": 0.71
    },
    {
      "id": "n-04874",
      "pitch": "G5",
      "midi": 79,
      "start": 215.938,
      "duration": 0.313,
      "velocity": 0.71
    },
    {
      "id": "n-04875",
      "pitch": "G5",
      "midi": 79,
      "start": 215.938,
      "duration": 0.313,
      "velocity": 0.71
    },
    {
      "id": "n-04876",
      "pitch": "G6",
      "midi": 91,
      "start": 215.938,
      "duration": 0.313,
      "velocity": 0.71
    },
    {
      "id": "n-04877",
      "pitch": "D3",
      "midi": 50,
      "start": 216.25,
      "duration": 2.5,
      "velocity": 0.71
    },
    {
      "id": "n-04878",
      "pitch": "A3",
      "midi": 57,
      "start": 216.25,
      "duration": 0.313,
      "velocity": 0.71
    },
    {
      "id": "n-04879",
      "pitch": "D4",
      "midi": 62,
      "start": 216.25,
      "duration": 2.5,
      "velocity": 0.71
    },
    {
      "id": "n-04880",
      "pitch": "A4",
      "midi": 69,
      "start": 216.25,
      "duration": 0.313,
      "velocity": 0.71
    },
    {
      "id": "n-04881",
      "pitch": "A4",
      "midi": 69,
      "start": 216.25,
      "duration": 0.313,
      "velocity": 0.71
    },
    {
      "id": "n-04882",
      "pitch": "A4",
      "midi": 69,
      "start": 216.25,
      "duration": 0.313,
      "velocity": 0.71
    },
    {
      "id": "n-04883",
      "pitch": "A5",
      "midi": 81,
      "start": 216.25,
      "duration": 0.313,
      "velocity": 0.71
    },
    {
      "id": "n-04884",
      "pitch": "A5",
      "midi": 81,
      "start": 216.25,
      "duration": 0.313,
      "velocity": 0.71
    },
    {
      "id": "n-04885",
      "pitch": "A6",
      "midi": 93,
      "start": 216.25,
      "duration": 0.313,
      "velocity": 0.71
    },
    {
      "id": "n-04886",
      "pitch": "G3",
      "midi": 55,
      "start": 216.563,
      "duration": 0.313,
      "velocity": 0.71
    },
    {
      "id": "n-04887",
      "pitch": "D4",
      "midi": 62,
      "start": 216.563,
      "duration": 0.313,
      "velocity": 0.71
    },
    {
      "id": "n-04888",
      "pitch": "F4",
      "midi": 65,
      "start": 216.563,
      "duration": 0.313,
      "velocity": 0.71
    },
    {
      "id": "n-04889",
      "pitch": "G4",
      "midi": 67,
      "start": 216.563,
      "duration": 0.313,
      "velocity": 0.71
    },
    {
      "id": "n-04890",
      "pitch": "G4",
      "midi": 67,
      "start": 216.563,
      "duration": 0.313,
      "velocity": 0.71
    },
    {
      "id": "n-04891",
      "pitch": "G4",
      "midi": 67,
      "start": 216.563,
      "duration": 0.313,
      "velocity": 0.71
    },
    {
      "id": "n-04892",
      "pitch": "G5",
      "midi": 79,
      "start": 216.563,
      "duration": 0.313,
      "velocity": 0.71
    },
    {
      "id": "n-04893",
      "pitch": "G5",
      "midi": 79,
      "start": 216.563,
      "duration": 0.313,
      "velocity": 0.71
    },
    {
      "id": "n-04894",
      "pitch": "G6",
      "midi": 91,
      "start": 216.563,
      "duration": 0.313,
      "velocity": 0.71
    },
    {
      "id": "n-04895",
      "pitch": "F#3",
      "midi": 54,
      "start": 216.875,
      "duration": 0.313,
      "velocity": 0.71
    },
    {
      "id": "n-04896",
      "pitch": "F#4",
      "midi": 66,
      "start": 216.875,
      "duration": 0.313,
      "velocity": 0.71
    },
    {
      "id": "n-04897",
      "pitch": "F#4",
      "midi": 66,
      "start": 216.875,
      "duration": 0.313,
      "velocity": 0.71
    },
    {
      "id": "n-04898",
      "pitch": "F#4",
      "midi": 66,
      "start": 216.875,
      "duration": 0.313,
      "velocity": 0.71
    },
    {
      "id": "n-04899",
      "pitch": "F#5",
      "midi": 78,
      "start": 216.875,
      "duration": 0.313,
      "velocity": 0.71
    },
    {
      "id": "n-04900",
      "pitch": "F#5",
      "midi": 78,
      "start": 216.875,
      "duration": 0.313,
      "velocity": 0.71
    },
    {
      "id": "n-04901",
      "pitch": "F#6",
      "midi": 90,
      "start": 216.875,
      "duration": 0.313,
      "velocity": 0.71
    },
    {
      "id": "n-04902",
      "pitch": "G3",
      "midi": 55,
      "start": 217.188,
      "duration": 0.313,
      "velocity": 0.71
    },
    {
      "id": "n-04903",
      "pitch": "D4",
      "midi": 62,
      "start": 217.188,
      "duration": 0.313,
      "velocity": 0.71
    },
    {
      "id": "n-04904",
      "pitch": "F4",
      "midi": 65,
      "start": 217.188,
      "duration": 0.313,
      "velocity": 0.71
    },
    {
      "id": "n-04905",
      "pitch": "G4",
      "midi": 67,
      "start": 217.188,
      "duration": 0.313,
      "velocity": 0.71
    },
    {
      "id": "n-04906",
      "pitch": "G4",
      "midi": 67,
      "start": 217.188,
      "duration": 0.313,
      "velocity": 0.71
    },
    {
      "id": "n-04907",
      "pitch": "G4",
      "midi": 67,
      "start": 217.188,
      "duration": 0.313,
      "velocity": 0.71
    },
    {
      "id": "n-04908",
      "pitch": "G5",
      "midi": 79,
      "start": 217.188,
      "duration": 0.313,
      "velocity": 0.71
    },
    {
      "id": "n-04909",
      "pitch": "G5",
      "midi": 79,
      "start": 217.188,
      "duration": 0.313,
      "velocity": 0.71
    },
    {
      "id": "n-04910",
      "pitch": "G6",
      "midi": 91,
      "start": 217.188,
      "duration": 0.313,
      "velocity": 0.71
    },
    {
      "id": "n-04911",
      "pitch": "F#3",
      "midi": 54,
      "start": 217.5,
      "duration": 0.313,
      "velocity": 0.71
    },
    {
      "id": "n-04912",
      "pitch": "F#4",
      "midi": 66,
      "start": 217.5,
      "duration": 0.313,
      "velocity": 0.71
    },
    {
      "id": "n-04913",
      "pitch": "F#4",
      "midi": 66,
      "start": 217.5,
      "duration": 0.313,
      "velocity": 0.71
    },
    {
      "id": "n-04914",
      "pitch": "F#4",
      "midi": 66,
      "start": 217.5,
      "duration": 0.313,
      "velocity": 0.71
    },
    {
      "id": "n-04915",
      "pitch": "F#5",
      "midi": 78,
      "start": 217.5,
      "duration": 0.313,
      "velocity": 0.71
    },
    {
      "id": "n-04916",
      "pitch": "F#5",
      "midi": 78,
      "start": 217.5,
      "duration": 0.313,
      "velocity": 0.71
    },
    {
      "id": "n-04917",
      "pitch": "F#6",
      "midi": 90,
      "start": 217.5,
      "duration": 0.313,
      "velocity": 0.71
    },
    {
      "id": "n-04918",
      "pitch": "G3",
      "midi": 55,
      "start": 217.813,
      "duration": 0.313,
      "velocity": 0.71
    },
    {
      "id": "n-04919",
      "pitch": "D4",
      "midi": 62,
      "start": 217.813,
      "duration": 0.313,
      "velocity": 0.71
    },
    {
      "id": "n-04920",
      "pitch": "F4",
      "midi": 65,
      "start": 217.813,
      "duration": 0.313,
      "velocity": 0.71
    },
    {
      "id": "n-04921",
      "pitch": "G4",
      "midi": 67,
      "start": 217.813,
      "duration": 0.313,
      "velocity": 0.71
    },
    {
      "id": "n-04922",
      "pitch": "G4",
      "midi": 67,
      "start": 217.813,
      "duration": 0.313,
      "velocity": 0.71
    },
    {
      "id": "n-04923",
      "pitch": "G4",
      "midi": 67,
      "start": 217.813,
      "duration": 0.313,
      "velocity": 0.71
    },
    {
      "id": "n-04924",
      "pitch": "G5",
      "midi": 79,
      "start": 217.813,
      "duration": 0.313,
      "velocity": 0.71
    },
    {
      "id": "n-04925",
      "pitch": "G5",
      "midi": 79,
      "start": 217.813,
      "duration": 0.313,
      "velocity": 0.71
    },
    {
      "id": "n-04926",
      "pitch": "G6",
      "midi": 91,
      "start": 217.813,
      "duration": 0.313,
      "velocity": 0.71
    },
    {
      "id": "n-04927",
      "pitch": "F#3",
      "midi": 54,
      "start": 218.125,
      "duration": 0.313,
      "velocity": 0.71
    },
    {
      "id": "n-04928",
      "pitch": "F#4",
      "midi": 66,
      "start": 218.125,
      "duration": 0.313,
      "velocity": 0.71
    },
    {
      "id": "n-04929",
      "pitch": "F#4",
      "midi": 66,
      "start": 218.125,
      "duration": 0.313,
      "velocity": 0.71
    },
    {
      "id": "n-04930",
      "pitch": "F#4",
      "midi": 66,
      "start": 218.125,
      "duration": 0.313,
      "velocity": 0.71
    },
    {
      "id": "n-04931",
      "pitch": "F#5",
      "midi": 78,
      "start": 218.125,
      "duration": 0.313,
      "velocity": 0.71
    },
    {
      "id": "n-04932",
      "pitch": "F#5",
      "midi": 78,
      "start": 218.125,
      "duration": 0.313,
      "velocity": 0.71
    },
    {
      "id": "n-04933",
      "pitch": "F#6",
      "midi": 90,
      "start": 218.125,
      "duration": 0.313,
      "velocity": 0.71
    },
    {
      "id": "n-04934",
      "pitch": "G3",
      "midi": 55,
      "start": 218.438,
      "duration": 0.313,
      "velocity": 0.71
    },
    {
      "id": "n-04935",
      "pitch": "D4",
      "midi": 62,
      "start": 218.438,
      "duration": 0.313,
      "velocity": 0.71
    },
    {
      "id": "n-04936",
      "pitch": "F4",
      "midi": 65,
      "start": 218.438,
      "duration": 0.313,
      "velocity": 0.71
    },
    {
      "id": "n-04937",
      "pitch": "G4",
      "midi": 67,
      "start": 218.438,
      "duration": 0.313,
      "velocity": 0.71
    },
    {
      "id": "n-04938",
      "pitch": "G4",
      "midi": 67,
      "start": 218.438,
      "duration": 0.313,
      "velocity": 0.71
    },
    {
      "id": "n-04939",
      "pitch": "G4",
      "midi": 67,
      "start": 218.438,
      "duration": 0.313,
      "velocity": 0.71
    },
    {
      "id": "n-04940",
      "pitch": "G5",
      "midi": 79,
      "start": 218.438,
      "duration": 0.313,
      "velocity": 0.71
    },
    {
      "id": "n-04941",
      "pitch": "G5",
      "midi": 79,
      "start": 218.438,
      "duration": 0.313,
      "velocity": 0.71
    },
    {
      "id": "n-04942",
      "pitch": "G6",
      "midi": 91,
      "start": 218.438,
      "duration": 0.313,
      "velocity": 0.71
    },
    {
      "id": "n-04943",
      "pitch": "G2",
      "midi": 43,
      "start": 218.75,
      "duration": 0.938,
      "velocity": 0.71
    },
    {
      "id": "n-04944",
      "pitch": "G3",
      "midi": 55,
      "start": 218.75,
      "duration": 0.938,
      "velocity": 0.71
    },
    {
      "id": "n-04945",
      "pitch": "D4",
      "midi": 62,
      "start": 218.75,
      "duration": 0.938,
      "velocity": 0.71
    },
    {
      "id": "n-04946",
      "pitch": "D4",
      "midi": 62,
      "start": 218.75,
      "duration": 0.938,
      "velocity": 0.71
    },
    {
      "id": "n-04947",
      "pitch": "D4",
      "midi": 62,
      "start": 218.75,
      "duration": 0.938,
      "velocity": 0.71
    },
    {
      "id": "n-04948",
      "pitch": "F4",
      "midi": 65,
      "start": 218.75,
      "duration": 0.938,
      "velocity": 0.71
    },
    {
      "id": "n-04949",
      "pitch": "F4",
      "midi": 65,
      "start": 218.75,
      "duration": 0.938,
      "velocity": 0.71
    },
    {
      "id": "n-04950",
      "pitch": "G4",
      "midi": 67,
      "start": 218.75,
      "duration": 0.938,
      "velocity": 0.71
    },
    {
      "id": "n-04951",
      "pitch": "G4",
      "midi": 67,
      "start": 218.75,
      "duration": 0.938,
      "velocity": 0.71
    },
    {
      "id": "n-04952",
      "pitch": "D5",
      "midi": 74,
      "start": 218.75,
      "duration": 0.938,
      "velocity": 0.71
    },
    {
      "id": "n-04953",
      "pitch": "F5",
      "midi": 77,
      "start": 218.75,
      "duration": 0.938,
      "velocity": 0.71
    },
    {
      "id": "n-04954",
      "pitch": "G5",
      "midi": 79,
      "start": 218.75,
      "duration": 0.938,
      "velocity": 0.71
    },
    {
      "id": "n-04955",
      "pitch": "G5",
      "midi": 79,
      "start": 218.75,
      "duration": 0.938,
      "velocity": 0.71
    },
    {
      "id": "n-04956",
      "pitch": "G5",
      "midi": 79,
      "start": 218.75,
      "duration": 0.781,
      "velocity": 0.71
    },
    {
      "id": "n-04957",
      "pitch": "G5",
      "midi": 79,
      "start": 218.75,
      "duration": 0.781,
      "velocity": 0.71
    },
    {
      "id": "n-04958",
      "pitch": "B5",
      "midi": 83,
      "start": 218.75,
      "duration": 0.938,
      "velocity": 0.71
    },
    {
      "id": "n-04959",
      "pitch": "F6",
      "midi": 89,
      "start": 218.75,
      "duration": 0.938,
      "velocity": 0.71
    },
    {
      "id": "n-04960",
      "pitch": "G6",
      "midi": 91,
      "start": 218.75,
      "duration": 0.938,
      "velocity": 0.71
    },
    {
      "id": "n-04961",
      "pitch": "A5",
      "midi": 81,
      "start": 219.531,
      "duration": 0.156,
      "velocity": 0.71
    },
    {
      "id": "n-04962",
      "pitch": "A5",
      "midi": 81,
      "start": 219.531,
      "duration": 0.156,
      "velocity": 0.71
    },
    {
      "id": "n-04963",
      "pitch": "G2",
      "midi": 43,
      "start": 219.688,
      "duration": 0.313,
      "velocity": 0.71
    },
    {
      "id": "n-04964",
      "pitch": "D3",
      "midi": 50,
      "start": 219.688,
      "duration": 0.156,
      "velocity": 0.71
    },
    {
      "id": "n-04965",
      "pitch": "B3",
      "midi": 59,
      "start": 219.688,
      "duration": 0.313,
      "velocity": 0.71
    },
    {
      "id": "n-04966",
      "pitch": "B3",
      "midi": 59,
      "start": 219.688,
      "duration": 0.313,
      "velocity": 0.71
    },
    {
      "id": "n-04967",
      "pitch": "B3",
      "midi": 59,
      "start": 219.688,
      "duration": 0.313,
      "velocity": 0.71
    },
    {
      "id": "n-04968",
      "pitch": "F4",
      "midi": 65,
      "start": 219.688,
      "duration": 0.313,
      "velocity": 0.71
    },
    {
      "id": "n-04969",
      "pitch": "G4",
      "midi": 67,
      "start": 219.688,
      "duration": 0.313,
      "velocity": 0.71
    },
    {
      "id": "n-04970",
      "pitch": "G4",
      "midi": 67,
      "start": 219.688,
      "duration": 0.313,
      "velocity": 0.71
    },
    {
      "id": "n-04971",
      "pitch": "D5",
      "midi": 74,
      "start": 219.688,
      "duration": 0.313,
      "velocity": 0.71
    },
    {
      "id": "n-04972",
      "pitch": "D5",
      "midi": 74,
      "start": 219.688,
      "duration": 0.313,
      "velocity": 0.71
    },
    {
      "id": "n-04973",
      "pitch": "G5",
      "midi": 79,
      "start": 219.688,
      "duration": 0.313,
      "velocity": 0.71
    },
    {
      "id": "n-04974",
      "pitch": "G5",
      "midi": 79,
      "start": 219.688,
      "duration": 0.313,
      "velocity": 0.71
    },
    {
      "id": "n-04975",
      "pitch": "G5",
      "midi": 79,
      "start": 219.688,
      "duration": 0.156,
      "velocity": 0.71
    },
    {
      "id": "n-04976",
      "pitch": "G5",
      "midi": 79,
      "start": 219.688,
      "duration": 0.156,
      "velocity": 0.71
    },
    {
      "id": "n-04977",
      "pitch": "D6",
      "midi": 86,
      "start": 219.688,
      "duration": 0.313,
      "velocity": 0.71
    },
    {
      "id": "n-04978",
      "pitch": "F6",
      "midi": 89,
      "start": 219.688,
      "duration": 0.313,
      "velocity": 0.71
    },
    {
      "id": "n-04979",
      "pitch": "G6",
      "midi": 91,
      "start": 219.688,
      "duration": 0.313,
      "velocity": 0.71
    },
    {
      "id": "n-04980",
      "pitch": "D3",
      "midi": 50,
      "start": 219.844,
      "duration": 0.156,
      "velocity": 0.71
    },
    {
      "id": "n-04981",
      "pitch": "F5",
      "midi": 77,
      "start": 219.844,
      "duration": 0.156,
      "velocity": 0.71
    },
    {
      "id": "n-04982",
      "pitch": "F5",
      "midi": 77,
      "start": 219.844,
      "duration": 0.156,
      "velocity": 0.71
    },
    {
      "id": "n-04983",
      "pitch": "C3",
      "midi": 48,
      "start": 220,
      "duration": 0.313,
      "velocity": 0.71
    },
    {
      "id": "n-04984",
      "pitch": "E3",
      "midi": 52,
      "start": 220,
      "duration": 0.156,
      "velocity": 0.71
    },
    {
      "id": "n-04985",
      "pitch": "C4",
      "midi": 60,
      "start": 220,
      "duration": 0.313,
      "velocity": 0.71
    },
    {
      "id": "n-04986",
      "pitch": "C4",
      "midi": 60,
      "start": 220,
      "duration": 0.313,
      "velocity": 0.71
    },
    {
      "id": "n-04987",
      "pitch": "C4",
      "midi": 60,
      "start": 220,
      "duration": 0.313,
      "velocity": 0.71
    },
    {
      "id": "n-04988",
      "pitch": "E4",
      "midi": 64,
      "start": 220,
      "duration": 0.313,
      "velocity": 0.71
    },
    {
      "id": "n-04989",
      "pitch": "E4",
      "midi": 64,
      "start": 220,
      "duration": 0.313,
      "velocity": 0.71
    },
    {
      "id": "n-04990",
      "pitch": "G4",
      "midi": 67,
      "start": 220,
      "duration": 0.313,
      "velocity": 0.71
    },
    {
      "id": "n-04991",
      "pitch": "C5",
      "midi": 72,
      "start": 220,
      "duration": 0.313,
      "velocity": 0.71
    },
    {
      "id": "n-04992",
      "pitch": "E5",
      "midi": 76,
      "start": 220,
      "duration": 0.313,
      "velocity": 0.71
    },
    {
      "id": "n-04993",
      "pitch": "F5",
      "midi": 77,
      "start": 220,
      "duration": 0.156,
      "velocity": 0.71
    },
    {
      "id": "n-04994",
      "pitch": "F5",
      "midi": 77,
      "start": 220,
      "duration": 0.156,
      "velocity": 0.71
    },
    {
      "id": "n-04995",
      "pitch": "G5",
      "midi": 79,
      "start": 220,
      "duration": 0.313,
      "velocity": 0.71
    },
    {
      "id": "n-04996",
      "pitch": "G5",
      "midi": 79,
      "start": 220,
      "duration": 0.313,
      "velocity": 0.71
    },
    {
      "id": "n-04997",
      "pitch": "C6",
      "midi": 84,
      "start": 220,
      "duration": 0.313,
      "velocity": 0.71
    },
    {
      "id": "n-04998",
      "pitch": "E6",
      "midi": 88,
      "start": 220,
      "duration": 0.313,
      "velocity": 0.71
    },
    {
      "id": "n-04999",
      "pitch": "G6",
      "midi": 91,
      "start": 220,
      "duration": 0.313,
      "velocity": 0.71
    },
    {
      "id": "n-05000",
      "pitch": "E3",
      "midi": 52,
      "start": 220.156,
      "duration": 0.156,
      "velocity": 0.71
    },
    {
      "id": "n-05001",
      "pitch": "E5",
      "midi": 76,
      "start": 220.156,
      "duration": 0.156,
      "velocity": 0.71
    },
    {
      "id": "n-05002",
      "pitch": "E5",
      "midi": 76,
      "start": 220.156,
      "duration": 0.156,
      "velocity": 0.71
    },
    {
      "id": "n-05003",
      "pitch": "G3",
      "midi": 55,
      "start": 220.313,
      "duration": 0.156,
      "velocity": 0.71
    },
    {
      "id": "n-05004",
      "pitch": "D5",
      "midi": 74,
      "start": 220.313,
      "duration": 0.156,
      "velocity": 0.71
    },
    {
      "id": "n-05005",
      "pitch": "D5",
      "midi": 74,
      "start": 220.313,
      "duration": 0.156,
      "velocity": 0.71
    },
    {
      "id": "n-05006",
      "pitch": "G3",
      "midi": 55,
      "start": 220.469,
      "duration": 0.156,
      "velocity": 0.71
    },
    {
      "id": "n-05007",
      "pitch": "C5",
      "midi": 72,
      "start": 220.469,
      "duration": 0.156,
      "velocity": 0.71
    },
    {
      "id": "n-05008",
      "pitch": "C5",
      "midi": 72,
      "start": 220.469,
      "duration": 0.156,
      "velocity": 0.71
    },
    {
      "id": "n-05009",
      "pitch": "G2",
      "midi": 43,
      "start": 220.625,
      "duration": 0.313,
      "velocity": 0.71
    },
    {
      "id": "n-05010",
      "pitch": "F3",
      "midi": 53,
      "start": 220.625,
      "duration": 0.156,
      "velocity": 0.71
    },
    {
      "id": "n-05011",
      "pitch": "G3",
      "midi": 55,
      "start": 220.625,
      "duration": 0.313,
      "velocity": 0.71
    },
    {
      "id": "n-05012",
      "pitch": "B3",
      "midi": 59,
      "start": 220.625,
      "duration": 0.313,
      "velocity": 0.71
    },
    {
      "id": "n-05013",
      "pitch": "D4",
      "midi": 62,
      "start": 220.625,
      "duration": 0.313,
      "velocity": 0.71
    },
    {
      "id": "n-05014",
      "pitch": "D4",
      "midi": 62,
      "start": 220.625,
      "duration": 0.313,
      "velocity": 0.71
    },
    {
      "id": "n-05015",
      "pitch": "F4",
      "midi": 65,
      "start": 220.625,
      "duration": 0.313,
      "velocity": 0.71
    },
    {
      "id": "n-05016",
      "pitch": "F4",
      "midi": 65,
      "start": 220.625,
      "duration": 0.313,
      "velocity": 0.71
    },
    {
      "id": "n-05017",
      "pitch": "G4",
      "midi": 67,
      "start": 220.625,
      "duration": 0.313,
      "velocity": 0.71
    },
    {
      "id": "n-05018",
      "pitch": "G4",
      "midi": 67,
      "start": 220.625,
      "duration": 0.313,
      "velocity": 0.71
    },
    {
      "id": "n-05019",
      "pitch": "B4",
      "midi": 71,
      "start": 220.625,
      "duration": 0.313,
      "velocity": 0.71
    },
    {
      "id": "n-05020",
      "pitch": "C5",
      "midi": 72,
      "start": 220.625,
      "duration": 0.156,
      "velocity": 0.71
    },
    {
      "id": "n-05021",
      "pitch": "C5",
      "midi": 72,
      "start": 220.625,
      "duration": 0.156,
      "velocity": 0.71
    },
    {
      "id": "n-05022",
      "pitch": "F5",
      "midi": 77,
      "start": 220.625,
      "duration": 0.313,
      "velocity": 0.71
    },
    {
      "id": "n-05023",
      "pitch": "F5",
      "midi": 77,
      "start": 220.625,
      "duration": 0.313,
      "velocity": 0.71
    },
    {
      "id": "n-05024",
      "pitch": "G5",
      "midi": 79,
      "start": 220.625,
      "duration": 0.313,
      "velocity": 0.71
    },
    {
      "id": "n-05025",
      "pitch": "B5",
      "midi": 83,
      "start": 220.625,
      "duration": 0.313,
      "velocity": 0.71
    },
    {
      "id": "n-05026",
      "pitch": "G6",
      "midi": 91,
      "start": 220.625,
      "duration": 0.313,
      "velocity": 0.71
    },
    {
      "id": "n-05027",
      "pitch": "F3",
      "midi": 53,
      "start": 220.781,
      "duration": 0.156,
      "velocity": 0.71
    },
    {
      "id": "n-05028",
      "pitch": "B4",
      "midi": 71,
      "start": 220.781,
      "duration": 0.156,
      "velocity": 0.71
    },
    {
      "id": "n-05029",
      "pitch": "B4",
      "midi": 71,
      "start": 220.781,
      "duration": 0.156,
      "velocity": 0.71
    },
    {
      "id": "n-05030",
      "pitch": "G3",
      "midi": 55,
      "start": 220.938,
      "duration": 0.156,
      "velocity": 0.71
    },
    {
      "id": "n-05031",
      "pitch": "A4",
      "midi": 69,
      "start": 220.938,
      "duration": 0.156,
      "velocity": 0.71
    },
    {
      "id": "n-05032",
      "pitch": "A4",
      "midi": 69,
      "start": 220.938,
      "duration": 0.156,
      "velocity": 0.71
    },
    {
      "id": "n-05033",
      "pitch": "G3",
      "midi": 55,
      "start": 221.094,
      "duration": 0.156,
      "velocity": 0.71
    },
    {
      "id": "n-05034",
      "pitch": "B4",
      "midi": 71,
      "start": 221.094,
      "duration": 0.156,
      "velocity": 0.71
    },
    {
      "id": "n-05035",
      "pitch": "B4",
      "midi": 71,
      "start": 221.094,
      "duration": 0.156,
      "velocity": 0.71
    },
    {
      "id": "n-05036",
      "pitch": "C3",
      "midi": 48,
      "start": 221.25,
      "duration": 0.313,
      "velocity": 0.71
    },
    {
      "id": "n-05037",
      "pitch": "E3",
      "midi": 52,
      "start": 221.25,
      "duration": 0.156,
      "velocity": 0.71
    },
    {
      "id": "n-05038",
      "pitch": "C4",
      "midi": 60,
      "start": 221.25,
      "duration": 0.313,
      "velocity": 0.71
    },
    {
      "id": "n-05039",
      "pitch": "C4",
      "midi": 60,
      "start": 221.25,
      "duration": 0.313,
      "velocity": 0.71
    },
    {
      "id": "n-05040",
      "pitch": "E4",
      "midi": 64,
      "start": 221.25,
      "duration": 0.313,
      "velocity": 0.71
    },
    {
      "id": "n-05041",
      "pitch": "E4",
      "midi": 64,
      "start": 221.25,
      "duration": 0.313,
      "velocity": 0.71
    },
    {
      "id": "n-05042",
      "pitch": "E4",
      "midi": 64,
      "start": 221.25,
      "duration": 0.313,
      "velocity": 0.71
    },
    {
      "id": "n-05043",
      "pitch": "G4",
      "midi": 67,
      "start": 221.25,
      "duration": 0.313,
      "velocity": 0.71
    },
    {
      "id": "n-05044",
      "pitch": "C5",
      "midi": 72,
      "start": 221.25,
      "duration": 0.313,
      "velocity": 0.71
    },
    {
      "id": "n-05045",
      "pitch": "C5",
      "midi": 72,
      "start": 221.25,
      "duration": 0.313,
      "velocity": 0.71
    },
    {
      "id": "n-05046",
      "pitch": "C5",
      "midi": 72,
      "start": 221.25,
      "duration": 0.313,
      "velocity": 0.71
    },
    {
      "id": "n-05047",
      "pitch": "D5",
      "midi": 74,
      "start": 221.25,
      "duration": 0.156,
      "velocity": 0.71
    },
    {
      "id": "n-05048",
      "pitch": "D5",
      "midi": 74,
      "start": 221.25,
      "duration": 0.156,
      "velocity": 0.71
    },
    {
      "id": "n-05049",
      "pitch": "E5",
      "midi": 76,
      "start": 221.25,
      "duration": 0.313,
      "velocity": 0.71
    },
    {
      "id": "n-05050",
      "pitch": "G5",
      "midi": 79,
      "start": 221.25,
      "duration": 0.313,
      "velocity": 0.71
    },
    {
      "id": "n-05051",
      "pitch": "C6",
      "midi": 84,
      "start": 221.25,
      "duration": 0.313,
      "velocity": 0.71
    },
    {
      "id": "n-05052",
      "pitch": "G6",
      "midi": 91,
      "start": 221.25,
      "duration": 0.313,
      "velocity": 0.71
    },
    {
      "id": "n-05053",
      "pitch": "E3",
      "midi": 52,
      "start": 221.406,
      "duration": 0.156,
      "velocity": 0.71
    },
    {
      "id": "n-05054",
      "pitch": "C5",
      "midi": 72,
      "start": 221.406,
      "duration": 0.156,
      "velocity": 0.71
    },
    {
      "id": "n-05055",
      "pitch": "C5",
      "midi": 72,
      "start": 221.406,
      "duration": 0.156,
      "velocity": 0.71
    },
    {
      "id": "n-05056",
      "pitch": "G3",
      "midi": 55,
      "start": 221.563,
      "duration": 0.156,
      "velocity": 0.71
    },
    {
      "id": "n-05057",
      "pitch": "G4",
      "midi": 67,
      "start": 221.563,
      "duration": 0.156,
      "velocity": 0.71
    },
    {
      "id": "n-05058",
      "pitch": "G4",
      "midi": 67,
      "start": 221.563,
      "duration": 0.156,
      "velocity": 0.71
    },
    {
      "id": "n-05059",
      "pitch": "G3",
      "midi": 55,
      "start": 221.719,
      "duration": 0.156,
      "velocity": 0.71
    },
    {
      "id": "n-05060",
      "pitch": "E4",
      "midi": 64,
      "start": 221.719,
      "duration": 0.156,
      "velocity": 0.71
    },
    {
      "id": "n-05061",
      "pitch": "E4",
      "midi": 64,
      "start": 221.719,
      "duration": 0.156,
      "velocity": 0.71
    },
    {
      "id": "n-05062",
      "pitch": "C3",
      "midi": 48,
      "start": 221.875,
      "duration": 0.313,
      "velocity": 0.71
    },
    {
      "id": "n-05063",
      "pitch": "D3",
      "midi": 50,
      "start": 221.875,
      "duration": 0.156,
      "velocity": 0.71
    },
    {
      "id": "n-05064",
      "pitch": "F3",
      "midi": 53,
      "start": 221.875,
      "duration": 0.313,
      "velocity": 0.71
    },
    {
      "id": "n-05065",
      "pitch": "C4",
      "midi": 60,
      "start": 221.875,
      "duration": 0.313,
      "velocity": 0.71
    },
    {
      "id": "n-05066",
      "pitch": "F4",
      "midi": 65,
      "start": 221.875,
      "duration": 0.313,
      "velocity": 0.71
    },
    {
      "id": "n-05067",
      "pitch": "F4",
      "midi": 65,
      "start": 221.875,
      "duration": 0.313,
      "velocity": 0.71
    },
    {
      "id": "n-05068",
      "pitch": "F4",
      "midi": 65,
      "start": 221.875,
      "duration": 0.313,
      "velocity": 0.71
    },
    {
      "id": "n-05069",
      "pitch": "F4",
      "midi": 65,
      "start": 221.875,
      "duration": 0.313,
      "velocity": 0.71
    },
    {
      "id": "n-05070",
      "pitch": "B4",
      "midi": 71,
      "start": 221.875,
      "duration": 0.156,
      "velocity": 0.71
    },
    {
      "id": "n-05071",
      "pitch": "B4",
      "midi": 71,
      "start": 221.875,
      "duration": 0.156,
      "velocity": 0.71
    },
    {
      "id": "n-05072",
      "pitch": "C5",
      "midi": 72,
      "start": 221.875,
      "duration": 0.313,
      "velocity": 0.71
    },
    {
      "id": "n-05073",
      "pitch": "C5",
      "midi": 72,
      "start": 221.875,
      "duration": 0.313,
      "velocity": 0.71
    },
    {
      "id": "n-05074",
      "pitch": "D5",
      "midi": 74,
      "start": 221.875,
      "duration": 0.313,
      "velocity": 0.71
    },
    {
      "id": "n-05075",
      "pitch": "D5",
      "midi": 74,
      "start": 221.875,
      "duration": 0.313,
      "velocity": 0.71
    },
    {
      "id": "n-05076",
      "pitch": "C6",
      "midi": 84,
      "start": 221.875,
      "duration": 0.313,
      "velocity": 0.71
    },
    {
      "id": "n-05077",
      "pitch": "C6",
      "midi": 84,
      "start": 221.875,
      "duration": 0.313,
      "velocity": 0.71
    },
    {
      "id": "n-05078",
      "pitch": "A6",
      "midi": 93,
      "start": 221.875,
      "duration": 0.313,
      "velocity": 0.71
    },
    {
      "id": "n-05079",
      "pitch": "D3",
      "midi": 50,
      "start": 222.031,
      "duration": 0.156,
      "velocity": 0.71
    },
    {
      "id": "n-05080",
      "pitch": "A4",
      "midi": 69,
      "start": 222.031,
      "duration": 0.156,
      "velocity": 0.71
    },
    {
      "id": "n-05081",
      "pitch": "A4",
      "midi": 69,
      "start": 222.031,
      "duration": 0.156,
      "velocity": 0.71
    },
    {
      "id": "n-05082",
      "pitch": "A3",
      "midi": 57,
      "start": 222.188,
      "duration": 0.156,
      "velocity": 0.71
    },
    {
      "id": "n-05083",
      "pitch": "F4",
      "midi": 65,
      "start": 222.188,
      "duration": 0.156,
      "velocity": 0.71
    },
    {
      "id": "n-05084",
      "pitch": "F4",
      "midi": 65,
      "start": 222.188,
      "duration": 0.156,
      "velocity": 0.71
    },
    {
      "id": "n-05085",
      "pitch": "A3",
      "midi": 57,
      "start": 222.344,
      "duration": 0.156,
      "velocity": 0.71
    },
    {
      "id": "n-05086",
      "pitch": "D4",
      "midi": 62,
      "start": 222.344,
      "duration": 0.156,
      "velocity": 0.71
    },
    {
      "id": "n-05087",
      "pitch": "D4",
      "midi": 62,
      "start": 222.344,
      "duration": 0.156,
      "velocity": 0.71
    },
    {
      "id": "n-05088",
      "pitch": "G2",
      "midi": 43,
      "start": 222.5,
      "duration": 0.313,
      "velocity": 0.71
    },
    {
      "id": "n-05089",
      "pitch": "E3",
      "midi": 52,
      "start": 222.5,
      "duration": 0.156,
      "velocity": 0.71
    },
    {
      "id": "n-05090",
      "pitch": "G3",
      "midi": 55,
      "start": 222.5,
      "duration": 0.313,
      "velocity": 0.71
    },
    {
      "id": "n-05091",
      "pitch": "G3",
      "midi": 55,
      "start": 222.5,
      "duration": 0.156,
      "velocity": 0.71
    },
    {
      "id": "n-05092",
      "pitch": "C4",
      "midi": 60,
      "start": 222.5,
      "duration": 0.313,
      "velocity": 0.71
    },
    {
      "id": "n-05093",
      "pitch": "G4",
      "midi": 67,
      "start": 222.5,
      "duration": 0.313,
      "velocity": 0.71
    },
    {
      "id": "n-05094",
      "pitch": "G4",
      "midi": 67,
      "start": 222.5,
      "duration": 0.313,
      "velocity": 0.71
    },
    {
      "id": "n-05095",
      "pitch": "G4",
      "midi": 67,
      "start": 222.5,
      "duration": 0.313,
      "velocity": 0.71
    },
    {
      "id": "n-05096",
      "pitch": "G4",
      "midi": 67,
      "start": 222.5,
      "duration": 0.313,
      "velocity": 0.71
    },
    {
      "id": "n-05097",
      "pitch": "A4",
      "midi": 69,
      "start": 222.5,
      "duration": 0.156,
      "velocity": 0.71
    },
    {
      "id": "n-05098",
      "pitch": "C5",
      "midi": 72,
      "start": 222.5,
      "duration": 0.313,
      "velocity": 0.71
    },
    {
      "id": "n-05099",
      "pitch": "C5",
      "midi": 72,
      "start": 222.5,
      "duration": 0.313,
      "velocity": 0.71
    },
    {
      "id": "n-05100",
      "pitch": "E5",
      "midi": 76,
      "start": 222.5,
      "duration": 0.313,
      "velocity": 0.71
    },
    {
      "id": "n-05101",
      "pitch": "E5",
      "midi": 76,
      "start": 222.5,
      "duration": 0.313,
      "velocity": 0.71
    },
    {
      "id": "n-05102",
      "pitch": "C6",
      "midi": 84,
      "start": 222.5,
      "duration": 0.313,
      "velocity": 0.71
    },
    {
      "id": "n-05103",
      "pitch": "E6",
      "midi": 88,
      "start": 222.5,
      "duration": 0.313,
      "velocity": 0.71
    },
    {
      "id": "n-05104",
      "pitch": "G6",
      "midi": 91,
      "start": 222.5,
      "duration": 0.313,
      "velocity": 0.71
    },
    {
      "id": "n-05105",
      "pitch": "E3",
      "midi": 52,
      "start": 222.656,
      "duration": 0.156,
      "velocity": 0.71
    },
    {
      "id": "n-05106",
      "pitch": "G3",
      "midi": 55,
      "start": 222.656,
      "duration": 0.156,
      "velocity": 0.71
    },
    {
      "id": "n-05107",
      "pitch": "G4",
      "midi": 67,
      "start": 222.656,
      "duration": 0.156,
      "velocity": 0.71
    },
    {
      "id": "n-05108",
      "pitch": "G3",
      "midi": 55,
      "start": 222.813,
      "duration": 0.156,
      "velocity": 0.71
    },
    {
      "id": "n-05109",
      "pitch": "C4",
      "midi": 60,
      "start": 222.813,
      "duration": 0.156,
      "velocity": 0.71
    },
    {
      "id": "n-05110",
      "pitch": "E4",
      "midi": 64,
      "start": 222.813,
      "duration": 0.156,
      "velocity": 0.71
    },
    {
      "id": "n-05111",
      "pitch": "G3",
      "midi": 55,
      "start": 222.969,
      "duration": 0.156,
      "velocity": 0.71
    },
    {
      "id": "n-05112",
      "pitch": "C4",
      "midi": 60,
      "start": 222.969,
      "duration": 0.156,
      "velocity": 0.71
    },
    {
      "id": "n-05113",
      "pitch": "C4",
      "midi": 60,
      "start": 222.969,
      "duration": 0.156,
      "velocity": 0.71
    },
    {
      "id": "n-05114",
      "pitch": "G2",
      "midi": 43,
      "start": 223.125,
      "duration": 0.313,
      "velocity": 0.71
    },
    {
      "id": "n-05115",
      "pitch": "G2",
      "midi": 43,
      "start": 223.125,
      "duration": 0.313,
      "velocity": 0.71
    },
    {
      "id": "n-05116",
      "pitch": "D3",
      "midi": 50,
      "start": 223.125,
      "duration": 0.313,
      "velocity": 0.71
    },
    {
      "id": "n-05117",
      "pitch": "G3",
      "midi": 55,
      "start": 223.125,
      "duration": 0.313,
      "velocity": 0.71
    },
    {
      "id": "n-05118",
      "pitch": "G3",
      "midi": 55,
      "start": 223.125,
      "duration": 0.313,
      "velocity": 0.71
    },
    {
      "id": "n-05119",
      "pitch": "G3",
      "midi": 55,
      "start": 223.125,
      "duration": 0.313,
      "velocity": 0.71
    },
    {
      "id": "n-05120",
      "pitch": "G3",
      "midi": 55,
      "start": 223.125,
      "duration": 0.313,
      "velocity": 0.71
    },
    {
      "id": "n-05121",
      "pitch": "G3",
      "midi": 55,
      "start": 223.125,
      "duration": 0.156,
      "velocity": 0.71
    },
    {
      "id": "n-05122",
      "pitch": "B3",
      "midi": 59,
      "start": 223.125,
      "duration": 0.156,
      "velocity": 0.71
    },
    {
      "id": "n-05123",
      "pitch": "G4",
      "midi": 67,
      "start": 223.125,
      "duration": 0.313,
      "velocity": 0.71
    },
    {
      "id": "n-05124",
      "pitch": "G4",
      "midi": 67,
      "start": 223.125,
      "duration": 0.313,
      "velocity": 0.71
    },
    {
      "id": "n-05125",
      "pitch": "B4",
      "midi": 71,
      "start": 223.125,
      "duration": 0.313,
      "velocity": 0.71
    },
    {
      "id": "n-05126",
      "pitch": "D5",
      "midi": 74,
      "start": 223.125,
      "duration": 0.313,
      "velocity": 0.71
    },
    {
      "id": "n-05127",
      "pitch": "D5",
      "midi": 74,
      "start": 223.125,
      "duration": 0.313,
      "velocity": 0.71
    },
    {
      "id": "n-05128",
      "pitch": "B5",
      "midi": 83,
      "start": 223.125,
      "duration": 0.313,
      "velocity": 0.71
    },
    {
      "id": "n-05129",
      "pitch": "B5",
      "midi": 83,
      "start": 223.125,
      "duration": 0.313,
      "velocity": 0.71
    },
    {
      "id": "n-05130",
      "pitch": "G6",
      "midi": 91,
      "start": 223.125,
      "duration": 0.156,
      "velocity": 0.71
    },
    {
      "id": "n-05131",
      "pitch": "F#4",
      "midi": 66,
      "start": 223.281,
      "duration": 0.156,
      "velocity": 0.71
    },
    {
      "id": "n-05132",
      "pitch": "F#5",
      "midi": 78,
      "start": 223.281,
      "duration": 0.156,
      "velocity": 0.71
    },
    {
      "id": "n-05133",
      "pitch": "F#6",
      "midi": 90,
      "start": 223.281,
      "duration": 0.156,
      "velocity": 0.71
    },
    {
      "id": "n-05134",
      "pitch": "G4",
      "midi": 67,
      "start": 223.438,
      "duration": 0.156,
      "velocity": 0.71
    },
    {
      "id": "n-05135",
      "pitch": "G5",
      "midi": 79,
      "start": 223.438,
      "duration": 0.156,
      "velocity": 0.71
    },
    {
      "id": "n-05136",
      "pitch": "G6",
      "midi": 91,
      "start": 223.438,
      "duration": 0.156,
      "velocity": 0.71
    },
    {
      "id": "n-05137",
      "pitch": "F#4",
      "midi": 66,
      "start": 223.594,
      "duration": 0.156,
      "velocity": 0.71
    },
    {
      "id": "n-05138",
      "pitch": "F#5",
      "midi": 78,
      "start": 223.594,
      "duration": 0.156,
      "velocity": 0.71
    },
    {
      "id": "n-05139",
      "pitch": "F#6",
      "midi": 90,
      "start": 223.594,
      "duration": 0.156,
      "velocity": 0.71
    },
    {
      "id": "n-05140",
      "pitch": "G2",
      "midi": 43,
      "start": 223.75,
      "duration": 1.25,
      "velocity": 0.71
    },
    {
      "id": "n-05141",
      "pitch": "B2",
      "midi": 47,
      "start": 223.75,
      "duration": 1.25,
      "velocity": 0.71
    },
    {
      "id": "n-05142",
      "pitch": "B2",
      "midi": 47,
      "start": 223.75,
      "duration": 0.313,
      "velocity": 0.71
    },
    {
      "id": "n-05143",
      "pitch": "B2",
      "midi": 47,
      "start": 223.75,
      "duration": 0.313,
      "velocity": 0.71
    },
    {
      "id": "n-05144",
      "pitch": "D3",
      "midi": 50,
      "start": 223.75,
      "duration": 1.25,
      "velocity": 0.71
    },
    {
      "id": "n-05145",
      "pitch": "D3",
      "midi": 50,
      "start": 223.75,
      "duration": 0.156,
      "velocity": 0.71
    },
    {
      "id": "n-05146",
      "pitch": "G3",
      "midi": 55,
      "start": 223.75,
      "duration": 1.25,
      "velocity": 0.71
    },
    {
      "id": "n-05147",
      "pitch": "G4",
      "midi": 67,
      "start": 223.75,
      "duration": 1.25,
      "velocity": 0.71
    },
    {
      "id": "n-05148",
      "pitch": "G4",
      "midi": 67,
      "start": 223.75,
      "duration": 1.25,
      "velocity": 0.71
    },
    {
      "id": "n-05149",
      "pitch": "G4",
      "midi": 67,
      "start": 223.75,
      "duration": 0.156,
      "velocity": 0.71
    },
    {
      "id": "n-05150",
      "pitch": "D5",
      "midi": 74,
      "start": 223.75,
      "duration": 1.25,
      "velocity": 0.71
    },
    {
      "id": "n-05151",
      "pitch": "D5",
      "midi": 74,
      "start": 223.75,
      "duration": 1.25,
      "velocity": 0.71
    },
    {
      "id": "n-05152",
      "pitch": "F5",
      "midi": 77,
      "start": 223.75,
      "duration": 1.25,
      "velocity": 0.71
    },
    {
      "id": "n-05153",
      "pitch": "F5",
      "midi": 77,
      "start": 223.75,
      "duration": 1.25,
      "velocity": 0.71
    },
    {
      "id": "n-05154",
      "pitch": "G5",
      "midi": 79,
      "start": 223.75,
      "duration": 0.156,
      "velocity": 0.71
    },
    {
      "id": "n-05155",
      "pitch": "D6",
      "midi": 86,
      "start": 223.75,
      "duration": 1.25,
      "velocity": 0.71
    },
    {
      "id": "n-05156",
      "pitch": "F6",
      "midi": 89,
      "start": 223.75,
      "duration": 1.25,
      "velocity": 0.71
    },
    {
      "id": "n-05157",
      "pitch": "G6",
      "midi": 91,
      "start": 223.75,
      "duration": 1.25,
      "velocity": 0.71
    },
    {
      "id": "n-05158",
      "pitch": "D3",
      "midi": 50,
      "start": 223.906,
      "duration": 0.156,
      "velocity": 0.71
    },
    {
      "id": "n-05159",
      "pitch": "F#4",
      "midi": 66,
      "start": 223.906,
      "duration": 0.156,
      "velocity": 0.71
    },
    {
      "id": "n-05160",
      "pitch": "F#5",
      "midi": 78,
      "start": 223.906,
      "duration": 0.156,
      "velocity": 0.71
    },
    {
      "id": "n-05161",
      "pitch": "D3",
      "midi": 50,
      "start": 224.063,
      "duration": 0.313,
      "velocity": 0.71
    },
    {
      "id": "n-05162",
      "pitch": "D3",
      "midi": 50,
      "start": 224.063,
      "duration": 0.313,
      "velocity": 0.71
    },
    {
      "id": "n-05163",
      "pitch": "G3",
      "midi": 55,
      "start": 224.063,
      "duration": 0.156,
      "velocity": 0.71
    },
    {
      "id": "n-05164",
      "pitch": "G4",
      "midi": 67,
      "start": 224.063,
      "duration": 0.156,
      "velocity": 0.71
    },
    {
      "id": "n-05165",
      "pitch": "G5",
      "midi": 79,
      "start": 224.063,
      "duration": 0.156,
      "velocity": 0.71
    },
    {
      "id": "n-05166",
      "pitch": "G3",
      "midi": 55,
      "start": 224.219,
      "duration": 0.156,
      "velocity": 0.71
    },
    {
      "id": "n-05167",
      "pitch": "F#4",
      "midi": 66,
      "start": 224.219,
      "duration": 0.156,
      "velocity": 0.71
    },
    {
      "id": "n-05168",
      "pitch": "F#5",
      "midi": 78,
      "start": 224.219,
      "duration": 0.156,
      "velocity": 0.71
    },
    {
      "id": "n-05169",
      "pitch": "B2",
      "midi": 47,
      "start": 224.375,
      "duration": 0.313,
      "velocity": 0.71
    },
    {
      "id": "n-05170",
      "pitch": "B2",
      "midi": 47,
      "start": 224.375,
      "duration": 0.313,
      "velocity": 0.71
    },
    {
      "id": "n-05171",
      "pitch": "D3",
      "midi": 50,
      "start": 224.375,
      "duration": 0.156,
      "velocity": 0.71
    },
    {
      "id": "n-05172",
      "pitch": "G4",
      "midi": 67,
      "start": 224.375,
      "duration": 0.156,
      "velocity": 0.71
    },
    {
      "id": "n-05173",
      "pitch": "G5",
      "midi": 79,
      "start": 224.375,
      "duration": 0.156,
      "velocity": 0.71
    },
    {
      "id": "n-05174",
      "pitch": "D3",
      "midi": 50,
      "start": 224.531,
      "duration": 0.156,
      "velocity": 0.71
    },
    {
      "id": "n-05175",
      "pitch": "A5",
      "midi": 81,
      "start": 224.531,
      "duration": 0.156,
      "velocity": 0.71
    },
    {
      "id": "n-05176",
      "pitch": "A5",
      "midi": 81,
      "start": 224.531,
      "duration": 0.156,
      "velocity": 0.71
    },
    {
      "id": "n-05177",
      "pitch": "D3",
      "midi": 50,
      "start": 224.688,
      "duration": 0.313,
      "velocity": 0.71
    },
    {
      "id": "n-05178",
      "pitch": "D3",
      "midi": 50,
      "start": 224.688,
      "duration": 0.313,
      "velocity": 0.71
    },
    {
      "id": "n-05179",
      "pitch": "G3",
      "midi": 55,
      "start": 224.688,
      "duration": 0.156,
      "velocity": 0.71
    },
    {
      "id": "n-05180",
      "pitch": "G5",
      "midi": 79,
      "start": 224.688,
      "duration": 0.156,
      "velocity": 0.71
    },
    {
      "id": "n-05181",
      "pitch": "G5",
      "midi": 79,
      "start": 224.688,
      "duration": 0.156,
      "velocity": 0.71
    },
    {
      "id": "n-05182",
      "pitch": "G3",
      "midi": 55,
      "start": 224.844,
      "duration": 0.156,
      "velocity": 0.71
    },
    {
      "id": "n-05183",
      "pitch": "F5",
      "midi": 77,
      "start": 224.844,
      "duration": 0.156,
      "velocity": 0.71
    },
    {
      "id": "n-05184",
      "pitch": "F5",
      "midi": 77,
      "start": 224.844,
      "duration": 0.156,
      "velocity": 0.71
    },
    {
      "id": "n-05185",
      "pitch": "C3",
      "midi": 48,
      "start": 225,
      "duration": 0.313,
      "velocity": 0.71
    },
    {
      "id": "n-05186",
      "pitch": "C3",
      "midi": 48,
      "start": 225,
      "duration": 0.313,
      "velocity": 0.71
    },
    {
      "id": "n-05187",
      "pitch": "C3",
      "midi": 48,
      "start": 225,
      "duration": 0.313,
      "velocity": 0.71
    },
    {
      "id": "n-05188",
      "pitch": "C3",
      "midi": 48,
      "start": 225,
      "duration": 0.313,
      "velocity": 0.71
    },
    {
      "id": "n-05189",
      "pitch": "E3",
      "midi": 52,
      "start": 225,
      "duration": 0.313,
      "velocity": 0.71
    },
    {
      "id": "n-05190",
      "pitch": "E3",
      "midi": 52,
      "start": 225,
      "duration": 0.156,
      "velocity": 0.71
    },
    {
      "id": "n-05191",
      "pitch": "G3",
      "midi": 55,
      "start": 225,
      "duration": 0.313,
      "velocity": 0.71
    },
    {
      "id": "n-05192",
      "pitch": "G4",
      "midi": 67,
      "start": 225,
      "duration": 0.313,
      "velocity": 0.71
    },
    {
      "id": "n-05193",
      "pitch": "C5",
      "midi": 72,
      "start": 225,
      "duration": 0.313,
      "velocity": 0.71
    },
    {
      "id": "n-05194",
      "pitch": "C5",
      "midi": 72,
      "start": 225,
      "duration": 0.313,
      "velocity": 0.71
    },
    {
      "id": "n-05195",
      "pitch": "E5",
      "midi": 76,
      "start": 225,
      "duration": 0.313,
      "velocity": 0.71
    },
    {
      "id": "n-05196",
      "pitch": "E5",
      "midi": 76,
      "start": 225,
      "duration": 0.313,
      "velocity": 0.71
    },
    {
      "id": "n-05197",
      "pitch": "E5",
      "midi": 76,
      "start": 225,
      "duration": 0.313,
      "velocity": 0.71
    },
    {
      "id": "n-05198",
      "pitch": "F5",
      "midi": 77,
      "start": 225,
      "duration": 0.156,
      "velocity": 0.71
    },
    {
      "id": "n-05199",
      "pitch": "F5",
      "midi": 77,
      "start": 225,
      "duration": 0.156,
      "velocity": 0.71
    },
    {
      "id": "n-05200",
      "pitch": "C6",
      "midi": 84,
      "start": 225,
      "duration": 0.313,
      "velocity": 0.71
    },
    {
      "id": "n-05201",
      "pitch": "E6",
      "midi": 88,
      "start": 225,
      "duration": 0.313,
      "velocity": 0.71
    },
    {
      "id": "n-05202",
      "pitch": "G6",
      "midi": 91,
      "start": 225,
      "duration": 0.313,
      "velocity": 0.71
    },
    {
      "id": "n-05203",
      "pitch": "E3",
      "midi": 52,
      "start": 225.156,
      "duration": 0.156,
      "velocity": 0.71
    },
    {
      "id": "n-05204",
      "pitch": "E5",
      "midi": 76,
      "start": 225.156,
      "duration": 0.156,
      "velocity": 0.71
    },
    {
      "id": "n-05205",
      "pitch": "E5",
      "midi": 76,
      "start": 225.156,
      "duration": 0.156,
      "velocity": 0.71
    },
    {
      "id": "n-05206",
      "pitch": "C3",
      "midi": 48,
      "start": 225.313,
      "duration": 0.313,
      "velocity": 0.71
    },
    {
      "id": "n-05207",
      "pitch": "C3",
      "midi": 48,
      "start": 225.313,
      "duration": 0.313,
      "velocity": 0.71
    },
    {
      "id": "n-05208",
      "pitch": "E3",
      "midi": 52,
      "start": 225.313,
      "duration": 0.313,
      "velocity": 0.71
    },
    {
      "id": "n-05209",
      "pitch": "E3",
      "midi": 52,
      "start": 225.313,
      "duration": 0.313,
      "velocity": 0.71
    },
    {
      "id": "n-05210",
      "pitch": "E3",
      "midi": 52,
      "start": 225.313,
      "duration": 0.313,
      "velocity": 0.71
    },
    {
      "id": "n-05211",
      "pitch": "G3",
      "midi": 55,
      "start": 225.313,
      "duration": 0.313,
      "velocity": 0.71
    },
    {
      "id": "n-05212",
      "pitch": "G3",
      "midi": 55,
      "start": 225.313,
      "duration": 0.156,
      "velocity": 0.71
    },
    {
      "id": "n-05213",
      "pitch": "C4",
      "midi": 60,
      "start": 225.313,
      "duration": 0.313,
      "velocity": 0.71
    },
    {
      "id": "n-05214",
      "pitch": "G4",
      "midi": 67,
      "start": 225.313,
      "duration": 0.313,
      "velocity": 0.71
    },
    {
      "id": "n-05215",
      "pitch": "C5",
      "midi": 72,
      "start": 225.313,
      "duration": 0.313,
      "velocity": 0.71
    },
    {
      "id": "n-05216",
      "pitch": "C5",
      "midi": 72,
      "start": 225.313,
      "duration": 0.313,
      "velocity": 0.71
    },
    {
      "id": "n-05217",
      "pitch": "D5",
      "midi": 74,
      "start": 225.313,
      "duration": 0.156,
      "velocity": 0.71
    },
    {
      "id": "n-05218",
      "pitch": "D5",
      "midi": 74,
      "start": 225.313,
      "duration": 0.156,
      "velocity": 0.71
    },
    {
      "id": "n-05219",
      "pitch": "E5",
      "midi": 76,
      "start": 225.313,
      "duration": 0.313,
      "velocity": 0.71
    },
    {
      "id": "n-05220",
      "pitch": "E5",
      "midi": 76,
      "start": 225.313,
      "duration": 0.313,
      "velocity": 0.71
    },
    {
      "id": "n-05221",
      "pitch": "C6",
      "midi": 84,
      "start": 225.313,
      "duration": 0.313,
      "velocity": 0.71
    },
    {
      "id": "n-05222",
      "pitch": "E6",
      "midi": 88,
      "start": 225.313,
      "duration": 0.313,
      "velocity": 0.71
    },
    {
      "id": "n-05223",
      "pitch": "G6",
      "midi": 91,
      "start": 225.313,
      "duration": 0.313,
      "velocity": 0.71
    },
    {
      "id": "n-05224",
      "pitch": "G3",
      "midi": 55,
      "start": 225.469,
      "duration": 0.156,
      "velocity": 0.71
    },
    {
      "id": "n-05225",
      "pitch": "C5",
      "midi": 72,
      "start": 225.469,
      "duration": 0.156,
      "velocity": 0.71
    },
    {
      "id": "n-05226",
      "pitch": "C5",
      "midi": 72,
      "start": 225.469,
      "duration": 0.156,
      "velocity": 0.71
    },
    {
      "id": "n-05227",
      "pitch": "D3",
      "midi": 50,
      "start": 225.625,
      "duration": 0.313,
      "velocity": 0.71
    },
    {
      "id": "n-05228",
      "pitch": "D3",
      "midi": 50,
      "start": 225.625,
      "duration": 0.313,
      "velocity": 0.71
    },
    {
      "id": "n-05229",
      "pitch": "F3",
      "midi": 53,
      "start": 225.625,
      "duration": 0.156,
      "velocity": 0.71
    },
    {
      "id": "n-05230",
      "pitch": "C5",
      "midi": 72,
      "start": 225.625,
      "duration": 0.156,
      "velocity": 0.71
    },
    {
      "id": "n-05231",
      "pitch": "C5",
      "midi": 72,
      "start": 225.625,
      "duration": 0.156,
      "velocity": 0.71
    },
    {
      "id": "n-05232",
      "pitch": "F3",
      "midi": 53,
      "start": 225.781,
      "duration": 0.156,
      "velocity": 0.71
    },
    {
      "id": "n-05233",
      "pitch": "B4",
      "midi": 71,
      "start": 225.781,
      "duration": 0.156,
      "velocity": 0.71
    },
    {
      "id": "n-05234",
      "pitch": "B4",
      "midi": 71,
      "start": 225.781,
      "duration": 0.156,
      "velocity": 0.71
    },
    {
      "id": "n-05235",
      "pitch": "G2",
      "midi": 43,
      "start": 225.938,
      "duration": 0.313,
      "velocity": 0.71
    },
    {
      "id": "n-05236",
      "pitch": "D3",
      "midi": 50,
      "start": 225.938,
      "duration": 0.313,
      "velocity": 0.71
    },
    {
      "id": "n-05237",
      "pitch": "F3",
      "midi": 53,
      "start": 225.938,
      "duration": 0.313,
      "velocity": 0.71
    },
    {
      "id": "n-05238",
      "pitch": "F3",
      "midi": 53,
      "start": 225.938,
      "duration": 0.313,
      "velocity": 0.71
    },
    {
      "id": "n-05239",
      "pitch": "F3",
      "midi": 53,
      "start": 225.938,
      "duration": 0.313,
      "velocity": 0.71
    },
    {
      "id": "n-05240",
      "pitch": "G3",
      "midi": 55,
      "start": 225.938,
      "duration": 0.313,
      "velocity": 0.71
    },
    {
      "id": "n-05241",
      "pitch": "G3",
      "midi": 55,
      "start": 225.938,
      "duration": 0.313,
      "velocity": 0.71
    },
    {
      "id": "n-05242",
      "pitch": "B3",
      "midi": 59,
      "start": 225.938,
      "duration": 0.156,
      "velocity": 0.71
    },
    {
      "id": "n-05243",
      "pitch": "G4",
      "midi": 67,
      "start": 225.938,
      "duration": 0.313,
      "velocity": 0.71
    },
    {
      "id": "n-05244",
      "pitch": "G4",
      "midi": 67,
      "start": 225.938,
      "duration": 0.313,
      "velocity": 0.71
    },
    {
      "id": "n-05245",
      "pitch": "A4",
      "midi": 69,
      "start": 225.938,
      "duration": 0.156,
      "velocity": 0.71
    },
    {
      "id": "n-05246",
      "pitch": "A4",
      "midi": 69,
      "start": 225.938,
      "duration": 0.156,
      "velocity": 0.71
    },
    {
      "id": "n-05247",
      "pitch": "B4",
      "midi": 71,
      "start": 225.938,
      "duration": 0.313,
      "velocity": 0.71
    },
    {
      "id": "n-05248",
      "pitch": "D5",
      "midi": 74,
      "start": 225.938,
      "duration": 0.313,
      "velocity": 0.71
    },
    {
      "id": "n-05249",
      "pitch": "D5",
      "midi": 74,
      "start": 225.938,
      "duration": 0.313,
      "velocity": 0.71
    },
    {
      "id": "n-05250",
      "pitch": "B5",
      "midi": 83,
      "start": 225.938,
      "duration": 0.313,
      "velocity": 0.71
    },
    {
      "id": "n-05251",
      "pitch": "B5",
      "midi": 83,
      "start": 225.938,
      "duration": 0.313,
      "velocity": 0.71
    },
    {
      "id": "n-05252",
      "pitch": "G6",
      "midi": 91,
      "start": 225.938,
      "duration": 0.313,
      "velocity": 0.71
    },
    {
      "id": "n-05253",
      "pitch": "B3",
      "midi": 59,
      "start": 226.094,
      "duration": 0.156,
      "velocity": 0.71
    },
    {
      "id": "n-05254",
      "pitch": "B4",
      "midi": 71,
      "start": 226.094,
      "duration": 0.156,
      "velocity": 0.71
    },
    {
      "id": "n-05255",
      "pitch": "B4",
      "midi": 71,
      "start": 226.094,
      "duration": 0.156,
      "velocity": 0.71
    },
    {
      "id": "n-05256",
      "pitch": "E3",
      "midi": 52,
      "start": 226.25,
      "duration": 0.313,
      "velocity": 0.71
    },
    {
      "id": "n-05257",
      "pitch": "E3",
      "midi": 52,
      "start": 226.25,
      "duration": 0.313,
      "velocity": 0.71
    },
    {
      "id": "n-05258",
      "pitch": "D4",
      "midi": 62,
      "start": 226.25,
      "duration": 0.156,
      "velocity": 0.71
    },
    {
      "id": "n-05259",
      "pitch": "D5",
      "midi": 74,
      "start": 226.25,
      "duration": 0.156,
      "velocity": 0.71
    },
    {
      "id": "n-05260",
      "pitch": "D5",
      "midi": 74,
      "start": 226.25,
      "duration": 0.156,
      "velocity": 0.71
    },
    {
      "id": "n-05261",
      "pitch": "C4",
      "midi": 60,
      "start": 226.406,
      "duration": 0.156,
      "velocity": 0.71
    },
    {
      "id": "n-05262",
      "pitch": "C5",
      "midi": 72,
      "start": 226.406,
      "duration": 0.156,
      "velocity": 0.71
    },
    {
      "id": "n-05263",
      "pitch": "C5",
      "midi": 72,
      "start": 226.406,
      "duration": 0.156,
      "velocity": 0.71
    },
    {
      "id": "n-05264",
      "pitch": "C3",
      "midi": 48,
      "start": 226.563,
      "duration": 0.313,
      "velocity": 0.71
    },
    {
      "id": "n-05265",
      "pitch": "E3",
      "midi": 52,
      "start": 226.563,
      "duration": 0.313,
      "velocity": 0.71
    },
    {
      "id": "n-05266",
      "pitch": "G3",
      "midi": 55,
      "start": 226.563,
      "duration": 0.313,
      "velocity": 0.71
    },
    {
      "id": "n-05267",
      "pitch": "G3",
      "midi": 55,
      "start": 226.563,
      "duration": 0.313,
      "velocity": 0.71
    },
    {
      "id": "n-05268",
      "pitch": "G3",
      "midi": 55,
      "start": 226.563,
      "duration": 0.313,
      "velocity": 0.71
    },
    {
      "id": "n-05269",
      "pitch": "G3",
      "midi": 55,
      "start": 226.563,
      "duration": 0.313,
      "velocity": 0.71
    },
    {
      "id": "n-05270",
      "pitch": "G3",
      "midi": 55,
      "start": 226.563,
      "duration": 0.156,
      "velocity": 0.71
    },
    {
      "id": "n-05271",
      "pitch": "C4",
      "midi": 60,
      "start": 226.563,
      "duration": 0.313,
      "velocity": 0.71
    },
    {
      "id": "n-05272",
      "pitch": "G4",
      "midi": 67,
      "start": 226.563,
      "duration": 0.313,
      "velocity": 0.71
    },
    {
      "id": "n-05273",
      "pitch": "G4",
      "midi": 67,
      "start": 226.563,
      "duration": 0.156,
      "velocity": 0.71
    },
    {
      "id": "n-05274",
      "pitch": "G4",
      "midi": 67,
      "start": 226.563,
      "duration": 0.156,
      "velocity": 0.71
    },
    {
      "id": "n-05275",
      "pitch": "C5",
      "midi": 72,
      "start": 226.563,
      "duration": 0.313,
      "velocity": 0.71
    },
    {
      "id": "n-05276",
      "pitch": "C5",
      "midi": 72,
      "start": 226.563,
      "duration": 0.313,
      "velocity": 0.71
    },
    {
      "id": "n-05277",
      "pitch": "E5",
      "midi": 76,
      "start": 226.563,
      "duration": 0.313,
      "velocity": 0.71
    },
    {
      "id": "n-05278",
      "pitch": "E5",
      "midi": 76,
      "start": 226.563,
      "duration": 0.313,
      "velocity": 0.71
    },
    {
      "id": "n-05279",
      "pitch": "C6",
      "midi": 84,
      "start": 226.563,
      "duration": 0.313,
      "velocity": 0.71
    },
    {
      "id": "n-05280",
      "pitch": "C6",
      "midi": 84,
      "start": 226.563,
      "duration": 0.313,
      "velocity": 0.71
    },
    {
      "id": "n-05281",
      "pitch": "G6",
      "midi": 91,
      "start": 226.563,
      "duration": 0.313,
      "velocity": 0.71
    },
    {
      "id": "n-05282",
      "pitch": "E3",
      "midi": 52,
      "start": 226.719,
      "duration": 0.156,
      "velocity": 0.71
    },
    {
      "id": "n-05283",
      "pitch": "E4",
      "midi": 64,
      "start": 226.719,
      "duration": 0.156,
      "velocity": 0.71
    },
    {
      "id": "n-05284",
      "pitch": "E4",
      "midi": 64,
      "start": 226.719,
      "duration": 0.156,
      "velocity": 0.71
    },
    {
      "id": "n-05285",
      "pitch": "F3",
      "midi": 53,
      "start": 226.875,
      "duration": 0.313,
      "velocity": 0.71
    },
    {
      "id": "n-05286",
      "pitch": "F3",
      "midi": 53,
      "start": 226.875,
      "duration": 0.313,
      "velocity": 0.71
    },
    {
      "id": "n-05287",
      "pitch": "B3",
      "midi": 59,
      "start": 226.875,
      "duration": 0.156,
      "velocity": 0.71
    },
    {
      "id": "n-05288",
      "pitch": "B4",
      "midi": 71,
      "start": 226.875,
      "duration": 0.156,
      "velocity": 0.71
    },
    {
      "id": "n-05289",
      "pitch": "B4",
      "midi": 71,
      "start": 226.875,
      "duration": 0.156,
      "velocity": 0.71
    },
    {
      "id": "n-05290",
      "pitch": "A3",
      "midi": 57,
      "start": 227.031,
      "duration": 0.156,
      "velocity": 0.71
    },
    {
      "id": "n-05291",
      "pitch": "A4",
      "midi": 69,
      "start": 227.031,
      "duration": 0.156,
      "velocity": 0.71
    },
    {
      "id": "n-05292",
      "pitch": "A4",
      "midi": 69,
      "start": 227.031,
      "duration": 0.156,
      "velocity": 0.71
    },
    {
      "id": "n-05293",
      "pitch": "C3",
      "midi": 48,
      "start": 227.188,
      "duration": 0.313,
      "velocity": 0.71
    },
    {
      "id": "n-05294",
      "pitch": "F3",
      "midi": 53,
      "start": 227.188,
      "duration": 0.313,
      "velocity": 0.71
    },
    {
      "id": "n-05295",
      "pitch": "F3",
      "midi": 53,
      "start": 227.188,
      "duration": 0.156,
      "velocity": 0.71
    },
    {
      "id": "n-05296",
      "pitch": "A3",
      "midi": 57,
      "start": 227.188,
      "duration": 0.313,
      "velocity": 0.71
    },
    {
      "id": "n-05297",
      "pitch": "A3",
      "midi": 57,
      "start": 227.188,
      "duration": 0.313,
      "velocity": 0.71
    },
    {
      "id": "n-05298",
      "pitch": "A3",
      "midi": 57,
      "start": 227.188,
      "duration": 0.313,
      "velocity": 0.71
    },
    {
      "id": "n-05299",
      "pitch": "C4",
      "midi": 60,
      "start": 227.188,
      "duration": 0.313,
      "velocity": 0.71
    },
    {
      "id": "n-05300",
      "pitch": "F4",
      "midi": 65,
      "start": 227.188,
      "duration": 0.313,
      "velocity": 0.71
    },
    {
      "id": "n-05301",
      "pitch": "F4",
      "midi": 65,
      "start": 227.188,
      "duration": 0.156,
      "velocity": 0.71
    },
    {
      "id": "n-05302",
      "pitch": "F4",
      "midi": 65,
      "start": 227.188,
      "duration": 0.156,
      "velocity": 0.71
    },
    {
      "id": "n-05303",
      "pitch": "C5",
      "midi": 72,
      "start": 227.188,
      "duration": 0.313,
      "velocity": 0.71
    },
    {
      "id": "n-05304",
      "pitch": "C5",
      "midi": 72,
      "start": 227.188,
      "duration": 0.313,
      "velocity": 0.71
    },
    {
      "id": "n-05305",
      "pitch": "D5",
      "midi": 74,
      "start": 227.188,
      "duration": 0.313,
      "velocity": 0.71
    },
    {
      "id": "n-05306",
      "pitch": "D5",
      "midi": 74,
      "start": 227.188,
      "duration": 0.313,
      "velocity": 0.71
    },
    {
      "id": "n-05307",
      "pitch": "C6",
      "midi": 84,
      "start": 227.188,
      "duration": 0.313,
      "velocity": 0.71
    },
    {
      "id": "n-05308",
      "pitch": "D6",
      "midi": 86,
      "start": 227.188,
      "duration": 0.313,
      "velocity": 0.71
    },
    {
      "id": "n-05309",
      "pitch": "F6",
      "midi": 89,
      "start": 227.188,
      "duration": 0.313,
      "velocity": 0.71
    },
    {
      "id": "n-05310",
      "pitch": "D3",
      "midi": 50,
      "start": 227.344,
      "duration": 0.156,
      "velocity": 0.71
    },
    {
      "id": "n-05311",
      "pitch": "D4",
      "midi": 62,
      "start": 227.344,
      "duration": 0.156,
      "velocity": 0.71
    },
    {
      "id": "n-05312",
      "pitch": "D4",
      "midi": 62,
      "start": 227.344,
      "duration": 0.156,
      "velocity": 0.71
    },
    {
      "id": "n-05313",
      "pitch": "G3",
      "midi": 55,
      "start": 227.5,
      "duration": 0.313,
      "velocity": 0.71
    },
    {
      "id": "n-05314",
      "pitch": "G3",
      "midi": 55,
      "start": 227.5,
      "duration": 0.313,
      "velocity": 0.71
    },
    {
      "id": "n-05315",
      "pitch": "A3",
      "midi": 57,
      "start": 227.5,
      "duration": 0.156,
      "velocity": 0.71
    },
    {
      "id": "n-05316",
      "pitch": "A4",
      "midi": 69,
      "start": 227.5,
      "duration": 0.156,
      "velocity": 0.71
    },
    {
      "id": "n-05317",
      "pitch": "A4",
      "midi": 69,
      "start": 227.5,
      "duration": 0.156,
      "velocity": 0.71
    },
    {
      "id": "n-05318",
      "pitch": "G3",
      "midi": 55,
      "start": 227.656,
      "duration": 0.156,
      "velocity": 0.71
    },
    {
      "id": "n-05319",
      "pitch": "G4",
      "midi": 67,
      "start": 227.656,
      "duration": 0.156,
      "velocity": 0.71
    },
    {
      "id": "n-05320",
      "pitch": "G4",
      "midi": 67,
      "start": 227.656,
      "duration": 0.156,
      "velocity": 0.71
    },
    {
      "id": "n-05321",
      "pitch": "G2",
      "midi": 43,
      "start": 227.813,
      "duration": 0.313,
      "velocity": 0.71
    },
    {
      "id": "n-05322",
      "pitch": "G2",
      "midi": 43,
      "start": 227.813,
      "duration": 0.313,
      "velocity": 0.71
    },
    {
      "id": "n-05323",
      "pitch": "G2",
      "midi": 43,
      "start": 227.813,
      "duration": 0.313,
      "velocity": 0.71
    },
    {
      "id": "n-05324",
      "pitch": "E3",
      "midi": 52,
      "start": 227.813,
      "duration": 0.156,
      "velocity": 0.71
    },
    {
      "id": "n-05325",
      "pitch": "G3",
      "midi": 55,
      "start": 227.813,
      "duration": 0.313,
      "velocity": 0.71
    },
    {
      "id": "n-05326",
      "pitch": "C4",
      "midi": 60,
      "start": 227.813,
      "duration": 0.313,
      "velocity": 0.71
    },
    {
      "id": "n-05327",
      "pitch": "E4",
      "midi": 64,
      "start": 227.813,
      "duration": 0.156,
      "velocity": 0.71
    },
    {
      "id": "n-05328",
      "pitch": "E4",
      "midi": 64,
      "start": 227.813,
      "duration": 0.156,
      "velocity": 0.71
    },
    {
      "id": "n-05329",
      "pitch": "G4",
      "midi": 67,
      "start": 227.813,
      "duration": 0.313,
      "velocity": 0.71
    },
    {
      "id": "n-05330",
      "pitch": "C5",
      "midi": 72,
      "start": 227.813,
      "duration": 0.313,
      "velocity": 0.71
    },
    {
      "id": "n-05331",
      "pitch": "C5",
      "midi": 72,
      "start": 227.813,
      "duration": 0.313,
      "velocity": 0.71
    },
    {
      "id": "n-05332",
      "pitch": "E5",
      "midi": 76,
      "start": 227.813,
      "duration": 0.313,
      "velocity": 0.71
    },
    {
      "id": "n-05333",
      "pitch": "E5",
      "midi": 76,
      "start": 227.813,
      "duration": 0.313,
      "velocity": 0.71
    },
    {
      "id": "n-05334",
      "pitch": "E5",
      "midi": 76,
      "start": 227.813,
      "duration": 0.313,
      "velocity": 0.71
    },
    {
      "id": "n-05335",
      "pitch": "C6",
      "midi": 84,
      "start": 227.813,
      "duration": 0.313,
      "velocity": 0.71
    },
    {
      "id": "n-05336",
      "pitch": "E6",
      "midi": 88,
      "start": 227.813,
      "duration": 0.313,
      "velocity": 0.71
    },
    {
      "id": "n-05337",
      "pitch": "G6",
      "midi": 91,
      "start": 227.813,
      "duration": 0.313,
      "velocity": 0.71
    },
    {
      "id": "n-05338",
      "pitch": "C3",
      "midi": 48,
      "start": 227.969,
      "duration": 0.156,
      "velocity": 0.71
    },
    {
      "id": "n-05339",
      "pitch": "C4",
      "midi": 60,
      "start": 227.969,
      "duration": 0.156,
      "velocity": 0.71
    },
    {
      "id": "n-05340",
      "pitch": "C4",
      "midi": 60,
      "start": 227.969,
      "duration": 0.156,
      "velocity": 0.71
    },
    {
      "id": "n-05341",
      "pitch": "D3",
      "midi": 50,
      "start": 228.125,
      "duration": 0.156,
      "velocity": 0.71
    },
    {
      "id": "n-05342",
      "pitch": "G3",
      "midi": 55,
      "start": 228.125,
      "duration": 0.313,
      "velocity": 0.71
    },
    {
      "id": "n-05343",
      "pitch": "G3",
      "midi": 55,
      "start": 228.125,
      "duration": 0.313,
      "velocity": 0.71
    },
    {
      "id": "n-05344",
      "pitch": "G3",
      "midi": 55,
      "start": 228.125,
      "duration": 0.156,
      "velocity": 0.71
    },
    {
      "id": "n-05345",
      "pitch": "G3",
      "midi": 55,
      "start": 228.125,
      "duration": 0.156,
      "velocity": 0.71
    },
    {
      "id": "n-05346",
      "pitch": "B3",
      "midi": 59,
      "start": 228.125,
      "duration": 0.156,
      "velocity": 0.71
    },
    {
      "id": "n-05347",
      "pitch": "D3",
      "midi": 50,
      "start": 228.281,
      "duration": 0.156,
      "velocity": 0.71
    },
    {
      "id": "n-05348",
      "pitch": "B3",
      "midi": 59,
      "start": 228.281,
      "duration": 0.156,
      "velocity": 0.71
    },
    {
      "id": "n-05349",
      "pitch": "G4",
      "midi": 67,
      "start": 228.281,
      "duration": 0.156,
      "velocity": 0.71
    },
    {
      "id": "n-05350",
      "pitch": "G4",
      "midi": 67,
      "start": 228.281,
      "duration": 0.156,
      "velocity": 0.71
    },
    {
      "id": "n-05351",
      "pitch": "G2",
      "midi": 43,
      "start": 228.438,
      "duration": 0.313,
      "velocity": 0.71
    },
    {
      "id": "n-05352",
      "pitch": "G2",
      "midi": 43,
      "start": 228.438,
      "duration": 0.313,
      "velocity": 0.71
    },
    {
      "id": "n-05353",
      "pitch": "G2",
      "midi": 43,
      "start": 228.438,
      "duration": 0.313,
      "velocity": 0.71
    },
    {
      "id": "n-05354",
      "pitch": "F3",
      "midi": 53,
      "start": 228.438,
      "duration": 0.156,
      "velocity": 0.71
    },
    {
      "id": "n-05355",
      "pitch": "G3",
      "midi": 55,
      "start": 228.438,
      "duration": 0.313,
      "velocity": 0.71
    },
    {
      "id": "n-05356",
      "pitch": "B3",
      "midi": 59,
      "start": 228.438,
      "duration": 0.313,
      "velocity": 0.71
    },
    {
      "id": "n-05357",
      "pitch": "D4",
      "midi": 62,
      "start": 228.438,
      "duration": 0.156,
      "velocity": 0.71
    },
    {
      "id": "n-05358",
      "pitch": "G4",
      "midi": 67,
      "start": 228.438,
      "duration": 0.313,
      "velocity": 0.71
    },
    {
      "id": "n-05359",
      "pitch": "G4",
      "midi": 67,
      "start": 228.438,
      "duration": 0.313,
      "velocity": 0.71
    },
    {
      "id": "n-05360",
      "pitch": "B4",
      "midi": 71,
      "start": 228.438,
      "duration": 0.313,
      "velocity": 0.71
    },
    {
      "id": "n-05361",
      "pitch": "D5",
      "midi": 74,
      "start": 228.438,
      "duration": 0.313,
      "velocity": 0.71
    },
    {
      "id": "n-05362",
      "pitch": "D5",
      "midi": 74,
      "start": 228.438,
      "duration": 0.313,
      "velocity": 0.71
    },
    {
      "id": "n-05363",
      "pitch": "D5",
      "midi": 74,
      "start": 228.438,
      "duration": 0.313,
      "velocity": 0.71
    },
    {
      "id": "n-05364",
      "pitch": "G5",
      "midi": 79,
      "start": 228.438,
      "duration": 0.156,
      "velocity": 0.71
    },
    {
      "id": "n-05365",
      "pitch": "G5",
      "midi": 79,
      "start": 228.438,
      "duration": 0.156,
      "velocity": 0.71
    },
    {
      "id": "n-05366",
      "pitch": "B5",
      "midi": 83,
      "start": 228.438,
      "duration": 0.313,
      "velocity": 0.71
    },
    {
      "id": "n-05367",
      "pitch": "D6",
      "midi": 86,
      "start": 228.438,
      "duration": 0.313,
      "velocity": 0.71
    },
    {
      "id": "n-05368",
      "pitch": "G6",
      "midi": 91,
      "start": 228.438,
      "duration": 0.313,
      "velocity": 0.71
    },
    {
      "id": "n-05369",
      "pitch": "F3",
      "midi": 53,
      "start": 228.594,
      "duration": 0.156,
      "velocity": 0.71
    },
    {
      "id": "n-05370",
      "pitch": "D4",
      "midi": 62,
      "start": 228.594,
      "duration": 0.156,
      "velocity": 0.71
    },
    {
      "id": "n-05371",
      "pitch": "G5",
      "midi": 79,
      "start": 228.594,
      "duration": 0.156,
      "velocity": 0.71
    },
    {
      "id": "n-05372",
      "pitch": "G5",
      "midi": 79,
      "start": 228.594,
      "duration": 0.156,
      "velocity": 0.71
    },
    {
      "id": "n-05373",
      "pitch": "C3",
      "midi": 48,
      "start": 228.75,
      "duration": 2.031,
      "velocity": 0.71
    },
    {
      "id": "n-05374",
      "pitch": "C3",
      "midi": 48,
      "start": 228.75,
      "duration": 2.031,
      "velocity": 0.71
    },
    {
      "id": "n-05375",
      "pitch": "C3",
      "midi": 48,
      "start": 228.75,
      "duration": 0.313,
      "velocity": 0.71
    },
    {
      "id": "n-05376",
      "pitch": "G3",
      "midi": 55,
      "start": 228.75,
      "duration": 2.031,
      "velocity": 0.71
    },
    {
      "id": "n-05377",
      "pitch": "G3",
      "midi": 55,
      "start": 228.75,
      "duration": 0.156,
      "velocity": 0.71
    },
    {
      "id": "n-05378",
      "pitch": "C4",
      "midi": 60,
      "start": 228.75,
      "duration": 0.156,
      "velocity": 0.71
    },
    {
      "id": "n-05379",
      "pitch": "E4",
      "midi": 64,
      "start": 228.75,
      "duration": 2.031,
      "velocity": 0.71
    },
    {
      "id": "n-05380",
      "pitch": "E4",
      "midi": 64,
      "start": 228.75,
      "duration": 0.313,
      "velocity": 0.71
    },
    {
      "id": "n-05381",
      "pitch": "E4",
      "midi": 64,
      "start": 228.75,
      "duration": 0.156,
      "velocity": 0.71
    },
    {
      "id": "n-05382",
      "pitch": "G4",
      "midi": 67,
      "start": 228.75,
      "duration": 0.313,
      "velocity": 0.71
    },
    {
      "id": "n-05383",
      "pitch": "C5",
      "midi": 72,
      "start": 228.75,
      "duration": 2.031,
      "velocity": 0.71
    },
    {
      "id": "n-05384",
      "pitch": "C5",
      "midi": 72,
      "start": 228.75,
      "duration": 0.313,
      "velocity": 0.71
    },
    {
      "id": "n-05385",
      "pitch": "C5",
      "midi": 72,
      "start": 228.75,
      "duration": 0.156,
      "velocity": 0.71
    },
    {
      "id": "n-05386",
      "pitch": "E5",
      "midi": 76,
      "start": 228.75,
      "duration": 0.156,
      "velocity": 0.71
    },
    {
      "id": "n-05387",
      "pitch": "C6",
      "midi": 84,
      "start": 228.75,
      "duration": 0.156,
      "velocity": 0.71
    },
    {
      "id": "n-05388",
      "pitch": "C6",
      "midi": 84,
      "start": 228.75,
      "duration": 0.156,
      "velocity": 0.71
    },
    {
      "id": "n-05389",
      "pitch": "E3",
      "midi": 52,
      "start": 228.906,
      "duration": 0.156,
      "velocity": 0.71
    },
    {
      "id": "n-05390",
      "pitch": "E4",
      "midi": 64,
      "start": 228.906,
      "duration": 0.156,
      "velocity": 0.71
    },
    {
      "id": "n-05391",
      "pitch": "E4",
      "midi": 64,
      "start": 228.906,
      "duration": 0.156,
      "velocity": 0.71
    },
    {
      "id": "n-05392",
      "pitch": "E5",
      "midi": 76,
      "start": 228.906,
      "duration": 0.156,
      "velocity": 0.71
    },
    {
      "id": "n-05393",
      "pitch": "E5",
      "midi": 76,
      "start": 228.906,
      "duration": 0.156,
      "velocity": 0.71
    },
    {
      "id": "n-05394",
      "pitch": "E6",
      "midi": 88,
      "start": 228.906,
      "duration": 0.156,
      "velocity": 0.71
    },
    {
      "id": "n-05395",
      "pitch": "E3",
      "midi": 52,
      "start": 229.063,
      "duration": 0.156,
      "velocity": 0.71
    },
    {
      "id": "n-05396",
      "pitch": "E4",
      "midi": 64,
      "start": 229.063,
      "duration": 0.156,
      "velocity": 0.71
    },
    {
      "id": "n-05397",
      "pitch": "E4",
      "midi": 64,
      "start": 229.063,
      "duration": 0.156,
      "velocity": 0.71
    },
    {
      "id": "n-05398",
      "pitch": "E5",
      "midi": 76,
      "start": 229.063,
      "duration": 0.156,
      "velocity": 0.71
    },
    {
      "id": "n-05399",
      "pitch": "E5",
      "midi": 76,
      "start": 229.063,
      "duration": 0.156,
      "velocity": 0.71
    },
    {
      "id": "n-05400",
      "pitch": "E6",
      "midi": 88,
      "start": 229.063,
      "duration": 0.156,
      "velocity": 0.71
    },
    {
      "id": "n-05401",
      "pitch": "E3",
      "midi": 52,
      "start": 229.219,
      "duration": 0.156,
      "velocity": 0.71
    },
    {
      "id": "n-05402",
      "pitch": "E4",
      "midi": 64,
      "start": 229.219,
      "duration": 0.156,
      "velocity": 0.71
    },
    {
      "id": "n-05403",
      "pitch": "E4",
      "midi": 64,
      "start": 229.219,
      "duration": 0.156,
      "velocity": 0.71
    },
    {
      "id": "n-05404",
      "pitch": "E5",
      "midi": 76,
      "start": 229.219,
      "duration": 0.156,
      "velocity": 0.71
    },
    {
      "id": "n-05405",
      "pitch": "E5",
      "midi": 76,
      "start": 229.219,
      "duration": 0.156,
      "velocity": 0.71
    },
    {
      "id": "n-05406",
      "pitch": "E6",
      "midi": 88,
      "start": 229.219,
      "duration": 0.156,
      "velocity": 0.71
    },
    {
      "id": "n-05407",
      "pitch": "C3",
      "midi": 48,
      "start": 229.375,
      "duration": 0.156,
      "velocity": 0.71
    },
    {
      "id": "n-05408",
      "pitch": "C4",
      "midi": 60,
      "start": 229.375,
      "duration": 0.156,
      "velocity": 0.71
    },
    {
      "id": "n-05409",
      "pitch": "C4",
      "midi": 60,
      "start": 229.375,
      "duration": 0.156,
      "velocity": 0.71
    },
    {
      "id": "n-05410",
      "pitch": "C5",
      "midi": 72,
      "start": 229.375,
      "duration": 0.156,
      "velocity": 0.71
    },
    {
      "id": "n-05411",
      "pitch": "C5",
      "midi": 72,
      "start": 229.375,
      "duration": 0.156,
      "velocity": 0.71
    },
    {
      "id": "n-05412",
      "pitch": "C6",
      "midi": 84,
      "start": 229.375,
      "duration": 0.156,
      "velocity": 0.71
    },
    {
      "id": "n-05413",
      "pitch": "G3",
      "midi": 55,
      "start": 229.531,
      "duration": 0.156,
      "velocity": 0.71
    },
    {
      "id": "n-05414",
      "pitch": "G4",
      "midi": 67,
      "start": 229.531,
      "duration": 0.156,
      "velocity": 0.71
    },
    {
      "id": "n-05415",
      "pitch": "G4",
      "midi": 67,
      "start": 229.531,
      "duration": 0.156,
      "velocity": 0.71
    },
    {
      "id": "n-05416",
      "pitch": "G5",
      "midi": 79,
      "start": 229.531,
      "duration": 0.156,
      "velocity": 0.71
    },
    {
      "id": "n-05417",
      "pitch": "G5",
      "midi": 79,
      "start": 229.531,
      "duration": 0.156,
      "velocity": 0.71
    },
    {
      "id": "n-05418",
      "pitch": "G5",
      "midi": 79,
      "start": 229.531,
      "duration": 0.156,
      "velocity": 0.71
    },
    {
      "id": "n-05419",
      "pitch": "G3",
      "midi": 55,
      "start": 229.688,
      "duration": 0.156,
      "velocity": 0.71
    },
    {
      "id": "n-05420",
      "pitch": "G4",
      "midi": 67,
      "start": 229.688,
      "duration": 0.156,
      "velocity": 0.71
    },
    {
      "id": "n-05421",
      "pitch": "G4",
      "midi": 67,
      "start": 229.688,
      "duration": 0.156,
      "velocity": 0.71
    },
    {
      "id": "n-05422",
      "pitch": "G5",
      "midi": 79,
      "start": 229.688,
      "duration": 0.156,
      "velocity": 0.71
    },
    {
      "id": "n-05423",
      "pitch": "G5",
      "midi": 79,
      "start": 229.688,
      "duration": 0.156,
      "velocity": 0.71
    },
    {
      "id": "n-05424",
      "pitch": "G5",
      "midi": 79,
      "start": 229.688,
      "duration": 0.156,
      "velocity": 0.71
    },
    {
      "id": "n-05425",
      "pitch": "G3",
      "midi": 55,
      "start": 229.844,
      "duration": 0.156,
      "velocity": 0.71
    },
    {
      "id": "n-05426",
      "pitch": "G4",
      "midi": 67,
      "start": 229.844,
      "duration": 0.156,
      "velocity": 0.71
    },
    {
      "id": "n-05427",
      "pitch": "G4",
      "midi": 67,
      "start": 229.844,
      "duration": 0.156,
      "velocity": 0.71
    },
    {
      "id": "n-05428",
      "pitch": "G5",
      "midi": 79,
      "start": 229.844,
      "duration": 0.156,
      "velocity": 0.71
    },
    {
      "id": "n-05429",
      "pitch": "G5",
      "midi": 79,
      "start": 229.844,
      "duration": 0.156,
      "velocity": 0.71
    },
    {
      "id": "n-05430",
      "pitch": "G5",
      "midi": 79,
      "start": 229.844,
      "duration": 0.156,
      "velocity": 0.71
    },
    {
      "id": "n-05431",
      "pitch": "E3",
      "midi": 52,
      "start": 230,
      "duration": 0.156,
      "velocity": 0.71
    },
    {
      "id": "n-05432",
      "pitch": "E4",
      "midi": 64,
      "start": 230,
      "duration": 0.156,
      "velocity": 0.71
    },
    {
      "id": "n-05433",
      "pitch": "E4",
      "midi": 64,
      "start": 230,
      "duration": 0.156,
      "velocity": 0.71
    },
    {
      "id": "n-05434",
      "pitch": "E5",
      "midi": 76,
      "start": 230,
      "duration": 0.156,
      "velocity": 0.71
    },
    {
      "id": "n-05435",
      "pitch": "E5",
      "midi": 76,
      "start": 230,
      "duration": 0.156,
      "velocity": 0.71
    },
    {
      "id": "n-05436",
      "pitch": "E5",
      "midi": 76,
      "start": 230,
      "duration": 0.156,
      "velocity": 0.71
    },
    {
      "id": "n-05437",
      "pitch": "C3",
      "midi": 48,
      "start": 230.156,
      "duration": 0.156,
      "velocity": 0.71
    },
    {
      "id": "n-05438",
      "pitch": "C4",
      "midi": 60,
      "start": 230.156,
      "duration": 0.156,
      "velocity": 0.71
    },
    {
      "id": "n-05439",
      "pitch": "C4",
      "midi": 60,
      "start": 230.156,
      "duration": 0.156,
      "velocity": 0.71
    },
    {
      "id": "n-05440",
      "pitch": "C5",
      "midi": 72,
      "start": 230.156,
      "duration": 0.156,
      "velocity": 0.71
    },
    {
      "id": "n-05441",
      "pitch": "C5",
      "midi": 72,
      "start": 230.156,
      "duration": 0.156,
      "velocity": 0.71
    },
    {
      "id": "n-05442",
      "pitch": "C5",
      "midi": 72,
      "start": 230.156,
      "duration": 0.156,
      "velocity": 0.71
    },
    {
      "id": "n-05443",
      "pitch": "C3",
      "midi": 48,
      "start": 230.313,
      "duration": 0.156,
      "velocity": 0.71
    },
    {
      "id": "n-05444",
      "pitch": "C4",
      "midi": 60,
      "start": 230.313,
      "duration": 0.156,
      "velocity": 0.71
    },
    {
      "id": "n-05445",
      "pitch": "C4",
      "midi": 60,
      "start": 230.313,
      "duration": 0.156,
      "velocity": 0.71
    },
    {
      "id": "n-05446",
      "pitch": "C5",
      "midi": 72,
      "start": 230.313,
      "duration": 0.156,
      "velocity": 0.71
    },
    {
      "id": "n-05447",
      "pitch": "C5",
      "midi": 72,
      "start": 230.313,
      "duration": 0.156,
      "velocity": 0.71
    },
    {
      "id": "n-05448",
      "pitch": "C5",
      "midi": 72,
      "start": 230.313,
      "duration": 0.156,
      "velocity": 0.71
    },
    {
      "id": "n-05449",
      "pitch": "C3",
      "midi": 48,
      "start": 230.469,
      "duration": 0.156,
      "velocity": 0.71
    },
    {
      "id": "n-05450",
      "pitch": "C4",
      "midi": 60,
      "start": 230.469,
      "duration": 0.156,
      "velocity": 0.71
    },
    {
      "id": "n-05451",
      "pitch": "C4",
      "midi": 60,
      "start": 230.469,
      "duration": 0.156,
      "velocity": 0.71
    },
    {
      "id": "n-05452",
      "pitch": "C5",
      "midi": 72,
      "start": 230.469,
      "duration": 0.156,
      "velocity": 0.71
    },
    {
      "id": "n-05453",
      "pitch": "C5",
      "midi": 72,
      "start": 230.469,
      "duration": 0.156,
      "velocity": 0.71
    },
    {
      "id": "n-05454",
      "pitch": "C5",
      "midi": 72,
      "start": 230.469,
      "duration": 0.156,
      "velocity": 0.71
    },
    {
      "id": "n-05455",
      "pitch": "G2",
      "midi": 43,
      "start": 230.625,
      "duration": 0.781,
      "velocity": 0.71
    },
    {
      "id": "n-05456",
      "pitch": "G3",
      "midi": 55,
      "start": 230.625,
      "duration": 0.781,
      "velocity": 0.71
    },
    {
      "id": "n-05457",
      "pitch": "G3",
      "midi": 55,
      "start": 230.625,
      "duration": 0.781,
      "velocity": 0.71
    },
    {
      "id": "n-05458",
      "pitch": "G4",
      "midi": 67,
      "start": 230.625,
      "duration": 0.781,
      "velocity": 0.71
    },
    {
      "id": "n-05459",
      "pitch": "G4",
      "midi": 67,
      "start": 230.625,
      "duration": 0.781,
      "velocity": 0.71
    },
    {
      "id": "n-05460",
      "pitch": "G4",
      "midi": 67,
      "start": 230.625,
      "duration": 0.781,
      "velocity": 0.71
    },
    {
      "id": "n-05461",
      "pitch": "G2",
      "midi": 43,
      "start": 230.781,
      "duration": 0.156,
      "velocity": 0.71
    },
    {
      "id": "n-05462",
      "pitch": "G2",
      "midi": 43,
      "start": 230.781,
      "duration": 0.156,
      "velocity": 0.71
    },
    {
      "id": "n-05463",
      "pitch": "G2",
      "midi": 43,
      "start": 230.781,
      "duration": 0.156,
      "velocity": 0.71
    },
    {
      "id": "n-05464",
      "pitch": "G3",
      "midi": 55,
      "start": 230.781,
      "duration": 0.156,
      "velocity": 0.71
    },
    {
      "id": "n-05465",
      "pitch": "G3",
      "midi": 55,
      "start": 230.781,
      "duration": 0.156,
      "velocity": 0.71
    },
    {
      "id": "n-05466",
      "pitch": "B3",
      "midi": 59,
      "start": 230.781,
      "duration": 0.156,
      "velocity": 0.71
    },
    {
      "id": "n-05467",
      "pitch": "G4",
      "midi": 67,
      "start": 230.781,
      "duration": 0.156,
      "velocity": 0.71
    },
    {
      "id": "n-05468",
      "pitch": "G4",
      "midi": 67,
      "start": 230.781,
      "duration": 0.156,
      "velocity": 0.71
    },
    {
      "id": "n-05469",
      "pitch": "D5",
      "midi": 74,
      "start": 230.781,
      "duration": 0.156,
      "velocity": 0.71
    },
    {
      "id": "n-05470",
      "pitch": "G2",
      "midi": 43,
      "start": 230.938,
      "duration": 0.156,
      "velocity": 0.71
    },
    {
      "id": "n-05471",
      "pitch": "G2",
      "midi": 43,
      "start": 230.938,
      "duration": 0.156,
      "velocity": 0.71
    },
    {
      "id": "n-05472",
      "pitch": "G2",
      "midi": 43,
      "start": 230.938,
      "duration": 0.156,
      "velocity": 0.71
    },
    {
      "id": "n-05473",
      "pitch": "G3",
      "midi": 55,
      "start": 230.938,
      "duration": 0.156,
      "velocity": 0.71
    },
    {
      "id": "n-05474",
      "pitch": "G3",
      "midi": 55,
      "start": 230.938,
      "duration": 0.156,
      "velocity": 0.71
    },
    {
      "id": "n-05475",
      "pitch": "B3",
      "midi": 59,
      "start": 230.938,
      "duration": 0.156,
      "velocity": 0.71
    },
    {
      "id": "n-05476",
      "pitch": "G4",
      "midi": 67,
      "start": 230.938,
      "duration": 0.156,
      "velocity": 0.71
    },
    {
      "id": "n-05477",
      "pitch": "G4",
      "midi": 67,
      "start": 230.938,
      "duration": 0.156,
      "velocity": 0.71
    },
    {
      "id": "n-05478",
      "pitch": "D5",
      "midi": 74,
      "start": 230.938,
      "duration": 0.156,
      "velocity": 0.71
    },
    {
      "id": "n-05479",
      "pitch": "G2",
      "midi": 43,
      "start": 231.094,
      "duration": 0.156,
      "velocity": 0.71
    },
    {
      "id": "n-05480",
      "pitch": "G2",
      "midi": 43,
      "start": 231.094,
      "duration": 0.156,
      "velocity": 0.71
    },
    {
      "id": "n-05481",
      "pitch": "G2",
      "midi": 43,
      "start": 231.094,
      "duration": 0.156,
      "velocity": 0.71
    },
    {
      "id": "n-05482",
      "pitch": "G3",
      "midi": 55,
      "start": 231.094,
      "duration": 0.156,
      "velocity": 0.71
    },
    {
      "id": "n-05483",
      "pitch": "G3",
      "midi": 55,
      "start": 231.094,
      "duration": 0.156,
      "velocity": 0.71
    },
    {
      "id": "n-05484",
      "pitch": "B3",
      "midi": 59,
      "start": 231.094,
      "duration": 0.156,
      "velocity": 0.71
    },
    {
      "id": "n-05485",
      "pitch": "G4",
      "midi": 67,
      "start": 231.094,
      "duration": 0.156,
      "velocity": 0.71
    },
    {
      "id": "n-05486",
      "pitch": "G4",
      "midi": 67,
      "start": 231.094,
      "duration": 0.156,
      "velocity": 0.71
    },
    {
      "id": "n-05487",
      "pitch": "D5",
      "midi": 74,
      "start": 231.094,
      "duration": 0.156,
      "velocity": 0.71
    },
    {
      "id": "n-05488",
      "pitch": "C3",
      "midi": 48,
      "start": 231.25,
      "duration": 2.031,
      "velocity": 0.71
    },
    {
      "id": "n-05489",
      "pitch": "C3",
      "midi": 48,
      "start": 231.25,
      "duration": 2.031,
      "velocity": 0.71
    },
    {
      "id": "n-05490",
      "pitch": "C3",
      "midi": 48,
      "start": 231.25,
      "duration": 0.313,
      "velocity": 0.71
    },
    {
      "id": "n-05491",
      "pitch": "G3",
      "midi": 55,
      "start": 231.25,
      "duration": 2.031,
      "velocity": 0.71
    },
    {
      "id": "n-05492",
      "pitch": "C4",
      "midi": 60,
      "start": 231.25,
      "duration": 2.031,
      "velocity": 0.71
    },
    {
      "id": "n-05493",
      "pitch": "C4",
      "midi": 60,
      "start": 231.25,
      "duration": 0.313,
      "velocity": 0.71
    },
    {
      "id": "n-05494",
      "pitch": "G4",
      "midi": 67,
      "start": 231.25,
      "duration": 0.313,
      "velocity": 0.71
    },
    {
      "id": "n-05495",
      "pitch": "C5",
      "midi": 72,
      "start": 231.25,
      "duration": 0.313,
      "velocity": 0.71
    },
    {
      "id": "n-05496",
      "pitch": "E5",
      "midi": 76,
      "start": 231.25,
      "duration": 2.031,
      "velocity": 0.71
    },
    {
      "id": "n-05497",
      "pitch": "E4",
      "midi": 64,
      "start": 231.406,
      "duration": 0.156,
      "velocity": 0.71
    },
    {
      "id": "n-05498",
      "pitch": "E4",
      "midi": 64,
      "start": 231.406,
      "duration": 0.156,
      "velocity": 0.71
    },
    {
      "id": "n-05499",
      "pitch": "E5",
      "midi": 76,
      "start": 231.406,
      "duration": 0.156,
      "velocity": 0.71
    },
    {
      "id": "n-05500",
      "pitch": "E5",
      "midi": 76,
      "start": 231.406,
      "duration": 0.156,
      "velocity": 0.71
    },
    {
      "id": "n-05501",
      "pitch": "E6",
      "midi": 88,
      "start": 231.406,
      "duration": 0.156,
      "velocity": 0.71
    },
    {
      "id": "n-05502",
      "pitch": "E4",
      "midi": 64,
      "start": 231.563,
      "duration": 0.156,
      "velocity": 0.71
    },
    {
      "id": "n-05503",
      "pitch": "E4",
      "midi": 64,
      "start": 231.563,
      "duration": 0.156,
      "velocity": 0.71
    },
    {
      "id": "n-05504",
      "pitch": "E5",
      "midi": 76,
      "start": 231.563,
      "duration": 0.156,
      "velocity": 0.71
    },
    {
      "id": "n-05505",
      "pitch": "E5",
      "midi": 76,
      "start": 231.563,
      "duration": 0.156,
      "velocity": 0.71
    },
    {
      "id": "n-05506",
      "pitch": "E6",
      "midi": 88,
      "start": 231.563,
      "duration": 0.156,
      "velocity": 0.71
    },
    {
      "id": "n-05507",
      "pitch": "E4",
      "midi": 64,
      "start": 231.719,
      "duration": 0.156,
      "velocity": 0.71
    },
    {
      "id": "n-05508",
      "pitch": "E4",
      "midi": 64,
      "start": 231.719,
      "duration": 0.156,
      "velocity": 0.71
    },
    {
      "id": "n-05509",
      "pitch": "E5",
      "midi": 76,
      "start": 231.719,
      "duration": 0.156,
      "velocity": 0.71
    },
    {
      "id": "n-05510",
      "pitch": "E5",
      "midi": 76,
      "start": 231.719,
      "duration": 0.156,
      "velocity": 0.71
    },
    {
      "id": "n-05511",
      "pitch": "E6",
      "midi": 88,
      "start": 231.719,
      "duration": 0.156,
      "velocity": 0.71
    },
    {
      "id": "n-05512",
      "pitch": "C4",
      "midi": 60,
      "start": 231.875,
      "duration": 0.156,
      "velocity": 0.71
    },
    {
      "id": "n-05513",
      "pitch": "C4",
      "midi": 60,
      "start": 231.875,
      "duration": 0.156,
      "velocity": 0.71
    },
    {
      "id": "n-05514",
      "pitch": "C5",
      "midi": 72,
      "start": 231.875,
      "duration": 0.156,
      "velocity": 0.71
    },
    {
      "id": "n-05515",
      "pitch": "C5",
      "midi": 72,
      "start": 231.875,
      "duration": 0.156,
      "velocity": 0.71
    },
    {
      "id": "n-05516",
      "pitch": "C6",
      "midi": 84,
      "start": 231.875,
      "duration": 0.156,
      "velocity": 0.71
    },
    {
      "id": "n-05517",
      "pitch": "G3",
      "midi": 55,
      "start": 232.031,
      "duration": 0.156,
      "velocity": 0.71
    },
    {
      "id": "n-05518",
      "pitch": "G4",
      "midi": 67,
      "start": 232.031,
      "duration": 0.156,
      "velocity": 0.71
    },
    {
      "id": "n-05519",
      "pitch": "G4",
      "midi": 67,
      "start": 232.031,
      "duration": 0.156,
      "velocity": 0.71
    },
    {
      "id": "n-05520",
      "pitch": "G5",
      "midi": 79,
      "start": 232.031,
      "duration": 0.156,
      "velocity": 0.71
    },
    {
      "id": "n-05521",
      "pitch": "G5",
      "midi": 79,
      "start": 232.031,
      "duration": 0.156,
      "velocity": 0.71
    },
    {
      "id": "n-05522",
      "pitch": "G5",
      "midi": 79,
      "start": 232.031,
      "duration": 0.156,
      "velocity": 0.71
    },
    {
      "id": "n-05523",
      "pitch": "G3",
      "midi": 55,
      "start": 232.188,
      "duration": 0.156,
      "velocity": 0.71
    },
    {
      "id": "n-05524",
      "pitch": "G4",
      "midi": 67,
      "start": 232.188,
      "duration": 0.156,
      "velocity": 0.71
    },
    {
      "id": "n-05525",
      "pitch": "G4",
      "midi": 67,
      "start": 232.188,
      "duration": 0.156,
      "velocity": 0.71
    },
    {
      "id": "n-05526",
      "pitch": "G5",
      "midi": 79,
      "start": 232.188,
      "duration": 0.156,
      "velocity": 0.71
    },
    {
      "id": "n-05527",
      "pitch": "G5",
      "midi": 79,
      "start": 232.188,
      "duration": 0.156,
      "velocity": 0.71
    },
    {
      "id": "n-05528",
      "pitch": "G5",
      "midi": 79,
      "start": 232.188,
      "duration": 0.156,
      "velocity": 0.71
    },
    {
      "id": "n-05529",
      "pitch": "G3",
      "midi": 55,
      "start": 232.344,
      "duration": 0.156,
      "velocity": 0.71
    },
    {
      "id": "n-05530",
      "pitch": "G4",
      "midi": 67,
      "start": 232.344,
      "duration": 0.156,
      "velocity": 0.71
    },
    {
      "id": "n-05531",
      "pitch": "G4",
      "midi": 67,
      "start": 232.344,
      "duration": 0.156,
      "velocity": 0.71
    },
    {
      "id": "n-05532",
      "pitch": "G5",
      "midi": 79,
      "start": 232.344,
      "duration": 0.156,
      "velocity": 0.71
    },
    {
      "id": "n-05533",
      "pitch": "G5",
      "midi": 79,
      "start": 232.344,
      "duration": 0.156,
      "velocity": 0.71
    },
    {
      "id": "n-05534",
      "pitch": "G5",
      "midi": 79,
      "start": 232.344,
      "duration": 0.156,
      "velocity": 0.71
    },
    {
      "id": "n-05535",
      "pitch": "E3",
      "midi": 52,
      "start": 232.5,
      "duration": 0.156,
      "velocity": 0.71
    },
    {
      "id": "n-05536",
      "pitch": "E4",
      "midi": 64,
      "start": 232.5,
      "duration": 0.156,
      "velocity": 0.71
    },
    {
      "id": "n-05537",
      "pitch": "E4",
      "midi": 64,
      "start": 232.5,
      "duration": 0.156,
      "velocity": 0.71
    },
    {
      "id": "n-05538",
      "pitch": "E5",
      "midi": 76,
      "start": 232.5,
      "duration": 0.156,
      "velocity": 0.71
    },
    {
      "id": "n-05539",
      "pitch": "E5",
      "midi": 76,
      "start": 232.5,
      "duration": 0.156,
      "velocity": 0.71
    },
    {
      "id": "n-05540",
      "pitch": "E5",
      "midi": 76,
      "start": 232.5,
      "duration": 0.156,
      "velocity": 0.71
    },
    {
      "id": "n-05541",
      "pitch": "C3",
      "midi": 48,
      "start": 232.656,
      "duration": 0.156,
      "velocity": 0.71
    },
    {
      "id": "n-05542",
      "pitch": "C4",
      "midi": 60,
      "start": 232.656,
      "duration": 0.156,
      "velocity": 0.71
    },
    {
      "id": "n-05543",
      "pitch": "C4",
      "midi": 60,
      "start": 232.656,
      "duration": 0.156,
      "velocity": 0.71
    },
    {
      "id": "n-05544",
      "pitch": "C5",
      "midi": 72,
      "start": 232.656,
      "duration": 0.156,
      "velocity": 0.71
    },
    {
      "id": "n-05545",
      "pitch": "C5",
      "midi": 72,
      "start": 232.656,
      "duration": 0.156,
      "velocity": 0.71
    },
    {
      "id": "n-05546",
      "pitch": "C5",
      "midi": 72,
      "start": 232.656,
      "duration": 0.156,
      "velocity": 0.71
    },
    {
      "id": "n-05547",
      "pitch": "C3",
      "midi": 48,
      "start": 232.813,
      "duration": 0.156,
      "velocity": 0.71
    },
    {
      "id": "n-05548",
      "pitch": "C4",
      "midi": 60,
      "start": 232.813,
      "duration": 0.156,
      "velocity": 0.71
    },
    {
      "id": "n-05549",
      "pitch": "C4",
      "midi": 60,
      "start": 232.813,
      "duration": 0.156,
      "velocity": 0.71
    },
    {
      "id": "n-05550",
      "pitch": "C5",
      "midi": 72,
      "start": 232.813,
      "duration": 0.156,
      "velocity": 0.71
    },
    {
      "id": "n-05551",
      "pitch": "C5",
      "midi": 72,
      "start": 232.813,
      "duration": 0.156,
      "velocity": 0.71
    },
    {
      "id": "n-05552",
      "pitch": "C5",
      "midi": 72,
      "start": 232.813,
      "duration": 0.156,
      "velocity": 0.71
    },
    {
      "id": "n-05553",
      "pitch": "C3",
      "midi": 48,
      "start": 232.969,
      "duration": 0.156,
      "velocity": 0.71
    },
    {
      "id": "n-05554",
      "pitch": "C4",
      "midi": 60,
      "start": 232.969,
      "duration": 0.156,
      "velocity": 0.71
    },
    {
      "id": "n-05555",
      "pitch": "C4",
      "midi": 60,
      "start": 232.969,
      "duration": 0.156,
      "velocity": 0.71
    },
    {
      "id": "n-05556",
      "pitch": "C5",
      "midi": 72,
      "start": 232.969,
      "duration": 0.156,
      "velocity": 0.71
    },
    {
      "id": "n-05557",
      "pitch": "C5",
      "midi": 72,
      "start": 232.969,
      "duration": 0.156,
      "velocity": 0.71
    },
    {
      "id": "n-05558",
      "pitch": "C5",
      "midi": 72,
      "start": 232.969,
      "duration": 0.156,
      "velocity": 0.71
    },
    {
      "id": "n-05559",
      "pitch": "G2",
      "midi": 43,
      "start": 233.125,
      "duration": 0.156,
      "velocity": 0.71
    },
    {
      "id": "n-05560",
      "pitch": "G3",
      "midi": 55,
      "start": 233.125,
      "duration": 0.156,
      "velocity": 0.71
    },
    {
      "id": "n-05561",
      "pitch": "G3",
      "midi": 55,
      "start": 233.125,
      "duration": 0.156,
      "velocity": 0.71
    },
    {
      "id": "n-05562",
      "pitch": "G4",
      "midi": 67,
      "start": 233.125,
      "duration": 0.156,
      "velocity": 0.71
    },
    {
      "id": "n-05563",
      "pitch": "G4",
      "midi": 67,
      "start": 233.125,
      "duration": 0.156,
      "velocity": 0.71
    },
    {
      "id": "n-05564",
      "pitch": "G4",
      "midi": 67,
      "start": 233.125,
      "duration": 0.156,
      "velocity": 0.71
    },
    {
      "id": "n-05565",
      "pitch": "G2",
      "midi": 43,
      "start": 233.281,
      "duration": 0.156,
      "velocity": 0.71
    },
    {
      "id": "n-05566",
      "pitch": "G2",
      "midi": 43,
      "start": 233.281,
      "duration": 0.156,
      "velocity": 0.71
    },
    {
      "id": "n-05567",
      "pitch": "G2",
      "midi": 43,
      "start": 233.281,
      "duration": 0.156,
      "velocity": 0.71
    },
    {
      "id": "n-05568",
      "pitch": "G3",
      "midi": 55,
      "start": 233.281,
      "duration": 0.156,
      "velocity": 0.71
    },
    {
      "id": "n-05569",
      "pitch": "B3",
      "midi": 59,
      "start": 233.281,
      "duration": 0.156,
      "velocity": 0.71
    },
    {
      "id": "n-05570",
      "pitch": "D4",
      "midi": 62,
      "start": 233.281,
      "duration": 0.156,
      "velocity": 0.71
    },
    {
      "id": "n-05571",
      "pitch": "D4",
      "midi": 62,
      "start": 233.281,
      "duration": 0.156,
      "velocity": 0.71
    },
    {
      "id": "n-05572",
      "pitch": "G4",
      "midi": 67,
      "start": 233.281,
      "duration": 0.156,
      "velocity": 0.71
    },
    {
      "id": "n-05573",
      "pitch": "G4",
      "midi": 67,
      "start": 233.281,
      "duration": 0.156,
      "velocity": 0.71
    },
    {
      "id": "n-05574",
      "pitch": "G4",
      "midi": 67,
      "start": 233.281,
      "duration": 0.156,
      "velocity": 0.71
    },
    {
      "id": "n-05575",
      "pitch": "G4",
      "midi": 67,
      "start": 233.281,
      "duration": 0.156,
      "velocity": 0.71
    },
    {
      "id": "n-05576",
      "pitch": "B4",
      "midi": 71,
      "start": 233.281,
      "duration": 0.156,
      "velocity": 0.71
    },
    {
      "id": "n-05577",
      "pitch": "B4",
      "midi": 71,
      "start": 233.281,
      "duration": 0.156,
      "velocity": 0.71
    },
    {
      "id": "n-05578",
      "pitch": "B4",
      "midi": 71,
      "start": 233.281,
      "duration": 0.156,
      "velocity": 0.71
    },
    {
      "id": "n-05579",
      "pitch": "D5",
      "midi": 74,
      "start": 233.281,
      "duration": 0.156,
      "velocity": 0.71
    },
    {
      "id": "n-05580",
      "pitch": "D5",
      "midi": 74,
      "start": 233.281,
      "duration": 0.156,
      "velocity": 0.71
    },
    {
      "id": "n-05581",
      "pitch": "G5",
      "midi": 79,
      "start": 233.281,
      "duration": 0.156,
      "velocity": 0.71
    },
    {
      "id": "n-05582",
      "pitch": "G5",
      "midi": 79,
      "start": 233.281,
      "duration": 0.156,
      "velocity": 0.71
    },
    {
      "id": "n-05583",
      "pitch": "G2",
      "midi": 43,
      "start": 233.438,
      "duration": 0.156,
      "velocity": 0.71
    },
    {
      "id": "n-05584",
      "pitch": "G2",
      "midi": 43,
      "start": 233.438,
      "duration": 0.156,
      "velocity": 0.71
    },
    {
      "id": "n-05585",
      "pitch": "G2",
      "midi": 43,
      "start": 233.438,
      "duration": 0.156,
      "velocity": 0.71
    },
    {
      "id": "n-05586",
      "pitch": "G3",
      "midi": 55,
      "start": 233.438,
      "duration": 0.156,
      "velocity": 0.71
    },
    {
      "id": "n-05587",
      "pitch": "B3",
      "midi": 59,
      "start": 233.438,
      "duration": 0.156,
      "velocity": 0.71
    },
    {
      "id": "n-05588",
      "pitch": "D4",
      "midi": 62,
      "start": 233.438,
      "duration": 0.156,
      "velocity": 0.71
    },
    {
      "id": "n-05589",
      "pitch": "D4",
      "midi": 62,
      "start": 233.438,
      "duration": 0.156,
      "velocity": 0.71
    },
    {
      "id": "n-05590",
      "pitch": "G4",
      "midi": 67,
      "start": 233.438,
      "duration": 0.156,
      "velocity": 0.71
    },
    {
      "id": "n-05591",
      "pitch": "G4",
      "midi": 67,
      "start": 233.438,
      "duration": 0.156,
      "velocity": 0.71
    },
    {
      "id": "n-05592",
      "pitch": "G4",
      "midi": 67,
      "start": 233.438,
      "duration": 0.156,
      "velocity": 0.71
    },
    {
      "id": "n-05593",
      "pitch": "G4",
      "midi": 67,
      "start": 233.438,
      "duration": 0.156,
      "velocity": 0.71
    },
    {
      "id": "n-05594",
      "pitch": "B4",
      "midi": 71,
      "start": 233.438,
      "duration": 0.156,
      "velocity": 0.71
    },
    {
      "id": "n-05595",
      "pitch": "B4",
      "midi": 71,
      "start": 233.438,
      "duration": 0.156,
      "velocity": 0.71
    },
    {
      "id": "n-05596",
      "pitch": "B4",
      "midi": 71,
      "start": 233.438,
      "duration": 0.156,
      "velocity": 0.71
    },
    {
      "id": "n-05597",
      "pitch": "D5",
      "midi": 74,
      "start": 233.438,
      "duration": 0.156,
      "velocity": 0.71
    },
    {
      "id": "n-05598",
      "pitch": "D5",
      "midi": 74,
      "start": 233.438,
      "duration": 0.156,
      "velocity": 0.71
    },
    {
      "id": "n-05599",
      "pitch": "G5",
      "midi": 79,
      "start": 233.438,
      "duration": 0.156,
      "velocity": 0.71
    },
    {
      "id": "n-05600",
      "pitch": "G5",
      "midi": 79,
      "start": 233.438,
      "duration": 0.156,
      "velocity": 0.71
    },
    {
      "id": "n-05601",
      "pitch": "G2",
      "midi": 43,
      "start": 233.594,
      "duration": 0.156,
      "velocity": 0.71
    },
    {
      "id": "n-05602",
      "pitch": "G2",
      "midi": 43,
      "start": 233.594,
      "duration": 0.156,
      "velocity": 0.71
    },
    {
      "id": "n-05603",
      "pitch": "G2",
      "midi": 43,
      "start": 233.594,
      "duration": 0.156,
      "velocity": 0.71
    },
    {
      "id": "n-05604",
      "pitch": "G3",
      "midi": 55,
      "start": 233.594,
      "duration": 0.156,
      "velocity": 0.71
    },
    {
      "id": "n-05605",
      "pitch": "B3",
      "midi": 59,
      "start": 233.594,
      "duration": 0.156,
      "velocity": 0.71
    },
    {
      "id": "n-05606",
      "pitch": "D4",
      "midi": 62,
      "start": 233.594,
      "duration": 0.156,
      "velocity": 0.71
    },
    {
      "id": "n-05607",
      "pitch": "D4",
      "midi": 62,
      "start": 233.594,
      "duration": 0.156,
      "velocity": 0.71
    },
    {
      "id": "n-05608",
      "pitch": "G4",
      "midi": 67,
      "start": 233.594,
      "duration": 0.156,
      "velocity": 0.71
    },
    {
      "id": "n-05609",
      "pitch": "G4",
      "midi": 67,
      "start": 233.594,
      "duration": 0.156,
      "velocity": 0.71
    },
    {
      "id": "n-05610",
      "pitch": "G4",
      "midi": 67,
      "start": 233.594,
      "duration": 0.156,
      "velocity": 0.71
    },
    {
      "id": "n-05611",
      "pitch": "G4",
      "midi": 67,
      "start": 233.594,
      "duration": 0.156,
      "velocity": 0.71
    },
    {
      "id": "n-05612",
      "pitch": "B4",
      "midi": 71,
      "start": 233.594,
      "duration": 0.156,
      "velocity": 0.71
    },
    {
      "id": "n-05613",
      "pitch": "B4",
      "midi": 71,
      "start": 233.594,
      "duration": 0.156,
      "velocity": 0.71
    },
    {
      "id": "n-05614",
      "pitch": "B4",
      "midi": 71,
      "start": 233.594,
      "duration": 0.156,
      "velocity": 0.71
    },
    {
      "id": "n-05615",
      "pitch": "D5",
      "midi": 74,
      "start": 233.594,
      "duration": 0.156,
      "velocity": 0.71
    },
    {
      "id": "n-05616",
      "pitch": "D5",
      "midi": 74,
      "start": 233.594,
      "duration": 0.156,
      "velocity": 0.71
    },
    {
      "id": "n-05617",
      "pitch": "G5",
      "midi": 79,
      "start": 233.594,
      "duration": 0.156,
      "velocity": 0.71
    },
    {
      "id": "n-05618",
      "pitch": "G5",
      "midi": 79,
      "start": 233.594,
      "duration": 0.156,
      "velocity": 0.71
    },
    {
      "id": "n-05619",
      "pitch": "C3",
      "midi": 48,
      "start": 233.75,
      "duration": 0.313,
      "velocity": 0.71
    },
    {
      "id": "n-05620",
      "pitch": "C3",
      "midi": 48,
      "start": 233.75,
      "duration": 0.313,
      "velocity": 0.71
    },
    {
      "id": "n-05621",
      "pitch": "C3",
      "midi": 48,
      "start": 233.75,
      "duration": 0.313,
      "velocity": 0.71
    },
    {
      "id": "n-05622",
      "pitch": "C4",
      "midi": 60,
      "start": 233.75,
      "duration": 0.313,
      "velocity": 0.71
    },
    {
      "id": "n-05623",
      "pitch": "C4",
      "midi": 60,
      "start": 233.75,
      "duration": 0.313,
      "velocity": 0.71
    },
    {
      "id": "n-05624",
      "pitch": "E4",
      "midi": 64,
      "start": 233.75,
      "duration": 0.313,
      "velocity": 0.71
    },
    {
      "id": "n-05625",
      "pitch": "E4",
      "midi": 64,
      "start": 233.75,
      "duration": 0.313,
      "velocity": 0.71
    },
    {
      "id": "n-05626",
      "pitch": "G4",
      "midi": 67,
      "start": 233.75,
      "duration": 0.313,
      "velocity": 0.71
    },
    {
      "id": "n-05627",
      "pitch": "G4",
      "midi": 67,
      "start": 233.75,
      "duration": 0.313,
      "velocity": 0.71
    },
    {
      "id": "n-05628",
      "pitch": "G4",
      "midi": 67,
      "start": 233.75,
      "duration": 0.313,
      "velocity": 0.71
    },
    {
      "id": "n-05629",
      "pitch": "C5",
      "midi": 72,
      "start": 233.75,
      "duration": 0.313,
      "velocity": 0.71
    },
    {
      "id": "n-05630",
      "pitch": "C5",
      "midi": 72,
      "start": 233.75,
      "duration": 0.313,
      "velocity": 0.71
    },
    {
      "id": "n-05631",
      "pitch": "C5",
      "midi": 72,
      "start": 233.75,
      "duration": 0.313,
      "velocity": 0.71
    },
    {
      "id": "n-05632",
      "pitch": "C5",
      "midi": 72,
      "start": 233.75,
      "duration": 0.313,
      "velocity": 0.71
    },
    {
      "id": "n-05633",
      "pitch": "E5",
      "midi": 76,
      "start": 233.75,
      "duration": 0.313,
      "velocity": 0.71
    },
    {
      "id": "n-05634",
      "pitch": "E5",
      "midi": 76,
      "start": 233.75,
      "duration": 0.313,
      "velocity": 0.71
    },
    {
      "id": "n-05635",
      "pitch": "G5",
      "midi": 79,
      "start": 233.75,
      "duration": 0.313,
      "velocity": 0.71
    },
    {
      "id": "n-05636",
      "pitch": "G5",
      "midi": 79,
      "start": 233.75,
      "duration": 0.313,
      "velocity": 0.71
    },
    {
      "id": "n-05637",
      "pitch": "G2",
      "midi": 43,
      "start": 234.531,
      "duration": 0.156,
      "velocity": 0.71
    },
    {
      "id": "n-05638",
      "pitch": "G2",
      "midi": 43,
      "start": 234.531,
      "duration": 0.156,
      "velocity": 0.71
    },
    {
      "id": "n-05639",
      "pitch": "G2",
      "midi": 43,
      "start": 234.531,
      "duration": 0.156,
      "velocity": 0.71
    },
    {
      "id": "n-05640",
      "pitch": "G3",
      "midi": 55,
      "start": 234.531,
      "duration": 0.156,
      "velocity": 0.71
    },
    {
      "id": "n-05641",
      "pitch": "G3",
      "midi": 55,
      "start": 234.531,
      "duration": 0.156,
      "velocity": 0.71
    },
    {
      "id": "n-05642",
      "pitch": "B3",
      "midi": 59,
      "start": 234.531,
      "duration": 0.156,
      "velocity": 0.71
    },
    {
      "id": "n-05643",
      "pitch": "D4",
      "midi": 62,
      "start": 234.531,
      "duration": 0.156,
      "velocity": 0.71
    },
    {
      "id": "n-05644",
      "pitch": "D4",
      "midi": 62,
      "start": 234.531,
      "duration": 0.156,
      "velocity": 0.71
    },
    {
      "id": "n-05645",
      "pitch": "G4",
      "midi": 67,
      "start": 234.531,
      "duration": 0.156,
      "velocity": 0.71
    },
    {
      "id": "n-05646",
      "pitch": "G4",
      "midi": 67,
      "start": 234.531,
      "duration": 0.156,
      "velocity": 0.71
    },
    {
      "id": "n-05647",
      "pitch": "G4",
      "midi": 67,
      "start": 234.531,
      "duration": 0.156,
      "velocity": 0.71
    },
    {
      "id": "n-05648",
      "pitch": "G4",
      "midi": 67,
      "start": 234.531,
      "duration": 0.156,
      "velocity": 0.71
    },
    {
      "id": "n-05649",
      "pitch": "B4",
      "midi": 71,
      "start": 234.531,
      "duration": 0.156,
      "velocity": 0.71
    },
    {
      "id": "n-05650",
      "pitch": "B4",
      "midi": 71,
      "start": 234.531,
      "duration": 0.156,
      "velocity": 0.71
    },
    {
      "id": "n-05651",
      "pitch": "B4",
      "midi": 71,
      "start": 234.531,
      "duration": 0.156,
      "velocity": 0.71
    },
    {
      "id": "n-05652",
      "pitch": "D5",
      "midi": 74,
      "start": 234.531,
      "duration": 0.156,
      "velocity": 0.71
    },
    {
      "id": "n-05653",
      "pitch": "D5",
      "midi": 74,
      "start": 234.531,
      "duration": 0.156,
      "velocity": 0.71
    },
    {
      "id": "n-05654",
      "pitch": "G5",
      "midi": 79,
      "start": 234.531,
      "duration": 0.156,
      "velocity": 0.71
    },
    {
      "id": "n-05655",
      "pitch": "G5",
      "midi": 79,
      "start": 234.531,
      "duration": 0.156,
      "velocity": 0.71
    },
    {
      "id": "n-05656",
      "pitch": "G2",
      "midi": 43,
      "start": 234.688,
      "duration": 0.156,
      "velocity": 0.71
    },
    {
      "id": "n-05657",
      "pitch": "G2",
      "midi": 43,
      "start": 234.688,
      "duration": 0.156,
      "velocity": 0.71
    },
    {
      "id": "n-05658",
      "pitch": "G2",
      "midi": 43,
      "start": 234.688,
      "duration": 0.156,
      "velocity": 0.71
    },
    {
      "id": "n-05659",
      "pitch": "G3",
      "midi": 55,
      "start": 234.688,
      "duration": 0.156,
      "velocity": 0.71
    },
    {
      "id": "n-05660",
      "pitch": "G3",
      "midi": 55,
      "start": 234.688,
      "duration": 0.156,
      "velocity": 0.71
    },
    {
      "id": "n-05661",
      "pitch": "B3",
      "midi": 59,
      "start": 234.688,
      "duration": 0.156,
      "velocity": 0.71
    },
    {
      "id": "n-05662",
      "pitch": "D4",
      "midi": 62,
      "start": 234.688,
      "duration": 0.156,
      "velocity": 0.71
    },
    {
      "id": "n-05663",
      "pitch": "D4",
      "midi": 62,
      "start": 234.688,
      "duration": 0.156,
      "velocity": 0.71
    },
    {
      "id": "n-05664",
      "pitch": "G4",
      "midi": 67,
      "start": 234.688,
      "duration": 0.156,
      "velocity": 0.71
    },
    {
      "id": "n-05665",
      "pitch": "G4",
      "midi": 67,
      "start": 234.688,
      "duration": 0.156,
      "velocity": 0.71
    },
    {
      "id": "n-05666",
      "pitch": "G4",
      "midi": 67,
      "start": 234.688,
      "duration": 0.156,
      "velocity": 0.71
    },
    {
      "id": "n-05667",
      "pitch": "G4",
      "midi": 67,
      "start": 234.688,
      "duration": 0.156,
      "velocity": 0.71
    },
    {
      "id": "n-05668",
      "pitch": "B4",
      "midi": 71,
      "start": 234.688,
      "duration": 0.156,
      "velocity": 0.71
    },
    {
      "id": "n-05669",
      "pitch": "B4",
      "midi": 71,
      "start": 234.688,
      "duration": 0.156,
      "velocity": 0.71
    },
    {
      "id": "n-05670",
      "pitch": "B4",
      "midi": 71,
      "start": 234.688,
      "duration": 0.156,
      "velocity": 0.71
    },
    {
      "id": "n-05671",
      "pitch": "D5",
      "midi": 74,
      "start": 234.688,
      "duration": 0.156,
      "velocity": 0.71
    },
    {
      "id": "n-05672",
      "pitch": "D5",
      "midi": 74,
      "start": 234.688,
      "duration": 0.156,
      "velocity": 0.71
    },
    {
      "id": "n-05673",
      "pitch": "G5",
      "midi": 79,
      "start": 234.688,
      "duration": 0.156,
      "velocity": 0.71
    },
    {
      "id": "n-05674",
      "pitch": "G5",
      "midi": 79,
      "start": 234.688,
      "duration": 0.156,
      "velocity": 0.71
    },
    {
      "id": "n-05675",
      "pitch": "G2",
      "midi": 43,
      "start": 234.844,
      "duration": 0.156,
      "velocity": 0.71
    },
    {
      "id": "n-05676",
      "pitch": "G2",
      "midi": 43,
      "start": 234.844,
      "duration": 0.156,
      "velocity": 0.71
    },
    {
      "id": "n-05677",
      "pitch": "G2",
      "midi": 43,
      "start": 234.844,
      "duration": 0.156,
      "velocity": 0.71
    },
    {
      "id": "n-05678",
      "pitch": "G3",
      "midi": 55,
      "start": 234.844,
      "duration": 0.156,
      "velocity": 0.71
    },
    {
      "id": "n-05679",
      "pitch": "G3",
      "midi": 55,
      "start": 234.844,
      "duration": 0.156,
      "velocity": 0.71
    },
    {
      "id": "n-05680",
      "pitch": "B3",
      "midi": 59,
      "start": 234.844,
      "duration": 0.156,
      "velocity": 0.71
    },
    {
      "id": "n-05681",
      "pitch": "D4",
      "midi": 62,
      "start": 234.844,
      "duration": 0.156,
      "velocity": 0.71
    },
    {
      "id": "n-05682",
      "pitch": "D4",
      "midi": 62,
      "start": 234.844,
      "duration": 0.156,
      "velocity": 0.71
    },
    {
      "id": "n-05683",
      "pitch": "G4",
      "midi": 67,
      "start": 234.844,
      "duration": 0.156,
      "velocity": 0.71
    },
    {
      "id": "n-05684",
      "pitch": "G4",
      "midi": 67,
      "start": 234.844,
      "duration": 0.156,
      "velocity": 0.71
    },
    {
      "id": "n-05685",
      "pitch": "G4",
      "midi": 67,
      "start": 234.844,
      "duration": 0.156,
      "velocity": 0.71
    },
    {
      "id": "n-05686",
      "pitch": "G4",
      "midi": 67,
      "start": 234.844,
      "duration": 0.156,
      "velocity": 0.71
    },
    {
      "id": "n-05687",
      "pitch": "B4",
      "midi": 71,
      "start": 234.844,
      "duration": 0.156,
      "velocity": 0.71
    },
    {
      "id": "n-05688",
      "pitch": "B4",
      "midi": 71,
      "start": 234.844,
      "duration": 0.156,
      "velocity": 0.71
    },
    {
      "id": "n-05689",
      "pitch": "B4",
      "midi": 71,
      "start": 234.844,
      "duration": 0.156,
      "velocity": 0.71
    },
    {
      "id": "n-05690",
      "pitch": "D5",
      "midi": 74,
      "start": 234.844,
      "duration": 0.156,
      "velocity": 0.71
    },
    {
      "id": "n-05691",
      "pitch": "D5",
      "midi": 74,
      "start": 234.844,
      "duration": 0.156,
      "velocity": 0.71
    },
    {
      "id": "n-05692",
      "pitch": "G5",
      "midi": 79,
      "start": 234.844,
      "duration": 0.156,
      "velocity": 0.71
    },
    {
      "id": "n-05693",
      "pitch": "G5",
      "midi": 79,
      "start": 234.844,
      "duration": 0.156,
      "velocity": 0.71
    },
    {
      "id": "n-05694",
      "pitch": "C3",
      "midi": 48,
      "start": 235,
      "duration": 0.313,
      "velocity": 0.71
    },
    {
      "id": "n-05695",
      "pitch": "C3",
      "midi": 48,
      "start": 235,
      "duration": 0.313,
      "velocity": 0.71
    },
    {
      "id": "n-05696",
      "pitch": "C3",
      "midi": 48,
      "start": 235,
      "duration": 0.313,
      "velocity": 0.71
    },
    {
      "id": "n-05697",
      "pitch": "G3",
      "midi": 55,
      "start": 235,
      "duration": 0.313,
      "velocity": 0.71
    },
    {
      "id": "n-05698",
      "pitch": "C4",
      "midi": 60,
      "start": 235,
      "duration": 0.313,
      "velocity": 0.71
    },
    {
      "id": "n-05699",
      "pitch": "C4",
      "midi": 60,
      "start": 235,
      "duration": 0.313,
      "velocity": 0.71
    },
    {
      "id": "n-05700",
      "pitch": "E4",
      "midi": 64,
      "start": 235,
      "duration": 0.313,
      "velocity": 0.71
    },
    {
      "id": "n-05701",
      "pitch": "E4",
      "midi": 64,
      "start": 235,
      "duration": 0.313,
      "velocity": 0.71
    },
    {
      "id": "n-05702",
      "pitch": "G4",
      "midi": 67,
      "start": 235,
      "duration": 0.313,
      "velocity": 0.71
    },
    {
      "id": "n-05703",
      "pitch": "G4",
      "midi": 67,
      "start": 235,
      "duration": 0.313,
      "velocity": 0.71
    },
    {
      "id": "n-05704",
      "pitch": "G4",
      "midi": 67,
      "start": 235,
      "duration": 0.313,
      "velocity": 0.71
    },
    {
      "id": "n-05705",
      "pitch": "C5",
      "midi": 72,
      "start": 235,
      "duration": 0.313,
      "velocity": 0.71
    },
    {
      "id": "n-05706",
      "pitch": "C5",
      "midi": 72,
      "start": 235,
      "duration": 0.313,
      "velocity": 0.71
    },
    {
      "id": "n-05707",
      "pitch": "C5",
      "midi": 72,
      "start": 235,
      "duration": 0.313,
      "velocity": 0.71
    },
    {
      "id": "n-05708",
      "pitch": "C5",
      "midi": 72,
      "start": 235,
      "duration": 0.313,
      "velocity": 0.71
    },
    {
      "id": "n-05709",
      "pitch": "E5",
      "midi": 76,
      "start": 235,
      "duration": 0.313,
      "velocity": 0.71
    },
    {
      "id": "n-05710",
      "pitch": "E5",
      "midi": 76,
      "start": 235,
      "duration": 0.313,
      "velocity": 0.71
    },
    {
      "id": "n-05711",
      "pitch": "G5",
      "midi": 79,
      "start": 235,
      "duration": 0.313,
      "velocity": 0.71
    },
    {
      "id": "n-05712",
      "pitch": "G5",
      "midi": 79,
      "start": 235,
      "duration": 0.313,
      "velocity": 0.71
    },
    {
      "id": "n-05713",
      "pitch": "G2",
      "midi": 43,
      "start": 235.781,
      "duration": 0.156,
      "velocity": 0.71
    },
    {
      "id": "n-05714",
      "pitch": "G2",
      "midi": 43,
      "start": 235.781,
      "duration": 0.156,
      "velocity": 0.71
    },
    {
      "id": "n-05715",
      "pitch": "G2",
      "midi": 43,
      "start": 235.781,
      "duration": 0.156,
      "velocity": 0.71
    },
    {
      "id": "n-05716",
      "pitch": "G3",
      "midi": 55,
      "start": 235.781,
      "duration": 0.156,
      "velocity": 0.71
    },
    {
      "id": "n-05717",
      "pitch": "G3",
      "midi": 55,
      "start": 235.781,
      "duration": 0.156,
      "velocity": 0.71
    },
    {
      "id": "n-05718",
      "pitch": "G3",
      "midi": 55,
      "start": 235.781,
      "duration": 0.156,
      "velocity": 0.71
    },
    {
      "id": "n-05719",
      "pitch": "G3",
      "midi": 55,
      "start": 235.781,
      "duration": 0.156,
      "velocity": 0.71
    },
    {
      "id": "n-05720",
      "pitch": "D4",
      "midi": 62,
      "start": 235.781,
      "duration": 0.156,
      "velocity": 0.71
    },
    {
      "id": "n-05721",
      "pitch": "G4",
      "midi": 67,
      "start": 235.781,
      "duration": 0.156,
      "velocity": 0.71
    },
    {
      "id": "n-05722",
      "pitch": "G4",
      "midi": 67,
      "start": 235.781,
      "duration": 0.156,
      "velocity": 0.71
    },
    {
      "id": "n-05723",
      "pitch": "B4",
      "midi": 71,
      "start": 235.781,
      "duration": 0.156,
      "velocity": 0.71
    },
    {
      "id": "n-05724",
      "pitch": "B4",
      "midi": 71,
      "start": 235.781,
      "duration": 0.156,
      "velocity": 0.71
    },
    {
      "id": "n-05725",
      "pitch": "D5",
      "midi": 74,
      "start": 235.781,
      "duration": 0.156,
      "velocity": 0.71
    },
    {
      "id": "n-05726",
      "pitch": "D5",
      "midi": 74,
      "start": 235.781,
      "duration": 0.156,
      "velocity": 0.71
    },
    {
      "id": "n-05727",
      "pitch": "D5",
      "midi": 74,
      "start": 235.781,
      "duration": 0.156,
      "velocity": 0.71
    },
    {
      "id": "n-05728",
      "pitch": "D5",
      "midi": 74,
      "start": 235.781,
      "duration": 0.156,
      "velocity": 0.71
    },
    {
      "id": "n-05729",
      "pitch": "G5",
      "midi": 79,
      "start": 235.781,
      "duration": 0.156,
      "velocity": 0.71
    },
    {
      "id": "n-05730",
      "pitch": "G5",
      "midi": 79,
      "start": 235.781,
      "duration": 0.156,
      "velocity": 0.71
    },
    {
      "id": "n-05731",
      "pitch": "B5",
      "midi": 83,
      "start": 235.781,
      "duration": 0.156,
      "velocity": 0.71
    },
    {
      "id": "n-05732",
      "pitch": "B5",
      "midi": 83,
      "start": 235.781,
      "duration": 0.156,
      "velocity": 0.71
    },
    {
      "id": "n-05733",
      "pitch": "G2",
      "midi": 43,
      "start": 235.938,
      "duration": 0.156,
      "velocity": 0.71
    },
    {
      "id": "n-05734",
      "pitch": "G2",
      "midi": 43,
      "start": 235.938,
      "duration": 0.156,
      "velocity": 0.71
    },
    {
      "id": "n-05735",
      "pitch": "G2",
      "midi": 43,
      "start": 235.938,
      "duration": 0.156,
      "velocity": 0.71
    },
    {
      "id": "n-05736",
      "pitch": "G3",
      "midi": 55,
      "start": 235.938,
      "duration": 0.156,
      "velocity": 0.71
    },
    {
      "id": "n-05737",
      "pitch": "G3",
      "midi": 55,
      "start": 235.938,
      "duration": 0.156,
      "velocity": 0.71
    },
    {
      "id": "n-05738",
      "pitch": "G3",
      "midi": 55,
      "start": 235.938,
      "duration": 0.156,
      "velocity": 0.71
    },
    {
      "id": "n-05739",
      "pitch": "G3",
      "midi": 55,
      "start": 235.938,
      "duration": 0.156,
      "velocity": 0.71
    },
    {
      "id": "n-05740",
      "pitch": "D4",
      "midi": 62,
      "start": 235.938,
      "duration": 0.156,
      "velocity": 0.71
    },
    {
      "id": "n-05741",
      "pitch": "G4",
      "midi": 67,
      "start": 235.938,
      "duration": 0.156,
      "velocity": 0.71
    },
    {
      "id": "n-05742",
      "pitch": "G4",
      "midi": 67,
      "start": 235.938,
      "duration": 0.156,
      "velocity": 0.71
    },
    {
      "id": "n-05743",
      "pitch": "B4",
      "midi": 71,
      "start": 235.938,
      "duration": 0.156,
      "velocity": 0.71
    },
    {
      "id": "n-05744",
      "pitch": "B4",
      "midi": 71,
      "start": 235.938,
      "duration": 0.156,
      "velocity": 0.71
    },
    {
      "id": "n-05745",
      "pitch": "D5",
      "midi": 74,
      "start": 235.938,
      "duration": 0.156,
      "velocity": 0.71
    },
    {
      "id": "n-05746",
      "pitch": "D5",
      "midi": 74,
      "start": 235.938,
      "duration": 0.156,
      "velocity": 0.71
    },
    {
      "id": "n-05747",
      "pitch": "D5",
      "midi": 74,
      "start": 235.938,
      "duration": 0.156,
      "velocity": 0.71
    },
    {
      "id": "n-05748",
      "pitch": "D5",
      "midi": 74,
      "start": 235.938,
      "duration": 0.156,
      "velocity": 0.71
    },
    {
      "id": "n-05749",
      "pitch": "G5",
      "midi": 79,
      "start": 235.938,
      "duration": 0.156,
      "velocity": 0.71
    },
    {
      "id": "n-05750",
      "pitch": "G5",
      "midi": 79,
      "start": 235.938,
      "duration": 0.156,
      "velocity": 0.71
    },
    {
      "id": "n-05751",
      "pitch": "B5",
      "midi": 83,
      "start": 235.938,
      "duration": 0.156,
      "velocity": 0.71
    },
    {
      "id": "n-05752",
      "pitch": "B5",
      "midi": 83,
      "start": 235.938,
      "duration": 0.156,
      "velocity": 0.71
    },
    {
      "id": "n-05753",
      "pitch": "G2",
      "midi": 43,
      "start": 236.094,
      "duration": 0.156,
      "velocity": 0.71
    },
    {
      "id": "n-05754",
      "pitch": "G2",
      "midi": 43,
      "start": 236.094,
      "duration": 0.156,
      "velocity": 0.71
    },
    {
      "id": "n-05755",
      "pitch": "G2",
      "midi": 43,
      "start": 236.094,
      "duration": 0.156,
      "velocity": 0.71
    },
    {
      "id": "n-05756",
      "pitch": "G3",
      "midi": 55,
      "start": 236.094,
      "duration": 0.156,
      "velocity": 0.71
    },
    {
      "id": "n-05757",
      "pitch": "G3",
      "midi": 55,
      "start": 236.094,
      "duration": 0.156,
      "velocity": 0.71
    },
    {
      "id": "n-05758",
      "pitch": "G3",
      "midi": 55,
      "start": 236.094,
      "duration": 0.156,
      "velocity": 0.71
    },
    {
      "id": "n-05759",
      "pitch": "G3",
      "midi": 55,
      "start": 236.094,
      "duration": 0.156,
      "velocity": 0.71
    },
    {
      "id": "n-05760",
      "pitch": "D4",
      "midi": 62,
      "start": 236.094,
      "duration": 0.156,
      "velocity": 0.71
    },
    {
      "id": "n-05761",
      "pitch": "G4",
      "midi": 67,
      "start": 236.094,
      "duration": 0.156,
      "velocity": 0.71
    },
    {
      "id": "n-05762",
      "pitch": "G4",
      "midi": 67,
      "start": 236.094,
      "duration": 0.156,
      "velocity": 0.71
    },
    {
      "id": "n-05763",
      "pitch": "B4",
      "midi": 71,
      "start": 236.094,
      "duration": 0.156,
      "velocity": 0.71
    },
    {
      "id": "n-05764",
      "pitch": "B4",
      "midi": 71,
      "start": 236.094,
      "duration": 0.156,
      "velocity": 0.71
    },
    {
      "id": "n-05765",
      "pitch": "D5",
      "midi": 74,
      "start": 236.094,
      "duration": 0.156,
      "velocity": 0.71
    },
    {
      "id": "n-05766",
      "pitch": "D5",
      "midi": 74,
      "start": 236.094,
      "duration": 0.156,
      "velocity": 0.71
    },
    {
      "id": "n-05767",
      "pitch": "D5",
      "midi": 74,
      "start": 236.094,
      "duration": 0.156,
      "velocity": 0.71
    },
    {
      "id": "n-05768",
      "pitch": "D5",
      "midi": 74,
      "start": 236.094,
      "duration": 0.156,
      "velocity": 0.71
    },
    {
      "id": "n-05769",
      "pitch": "G5",
      "midi": 79,
      "start": 236.094,
      "duration": 0.156,
      "velocity": 0.71
    },
    {
      "id": "n-05770",
      "pitch": "G5",
      "midi": 79,
      "start": 236.094,
      "duration": 0.156,
      "velocity": 0.71
    },
    {
      "id": "n-05771",
      "pitch": "B5",
      "midi": 83,
      "start": 236.094,
      "duration": 0.156,
      "velocity": 0.71
    },
    {
      "id": "n-05772",
      "pitch": "B5",
      "midi": 83,
      "start": 236.094,
      "duration": 0.156,
      "velocity": 0.71
    },
    {
      "id": "n-05773",
      "pitch": "C3",
      "midi": 48,
      "start": 236.25,
      "duration": 1.25,
      "velocity": 0.71
    },
    {
      "id": "n-05774",
      "pitch": "C3",
      "midi": 48,
      "start": 236.25,
      "duration": 1.25,
      "velocity": 0.71
    },
    {
      "id": "n-05775",
      "pitch": "C3",
      "midi": 48,
      "start": 236.25,
      "duration": 0.625,
      "velocity": 0.71
    },
    {
      "id": "n-05776",
      "pitch": "C3",
      "midi": 48,
      "start": 236.25,
      "duration": 0.625,
      "velocity": 0.71
    },
    {
      "id": "n-05777",
      "pitch": "C4",
      "midi": 60,
      "start": 236.25,
      "duration": 0.625,
      "velocity": 0.71
    },
    {
      "id": "n-05778",
      "pitch": "C4",
      "midi": 60,
      "start": 236.25,
      "duration": 0.625,
      "velocity": 0.71
    },
    {
      "id": "n-05779",
      "pitch": "G4",
      "midi": 67,
      "start": 236.25,
      "duration": 1.25,
      "velocity": 0.71
    },
    {
      "id": "n-05780",
      "pitch": "G4",
      "midi": 67,
      "start": 236.25,
      "duration": 0.313,
      "velocity": 0.71
    },
    {
      "id": "n-05781",
      "pitch": "C5",
      "midi": 72,
      "start": 236.25,
      "duration": 0.625,
      "velocity": 0.71
    },
    {
      "id": "n-05782",
      "pitch": "C5",
      "midi": 72,
      "start": 236.25,
      "duration": 0.156,
      "velocity": 0.71
    },
    {
      "id": "n-05783",
      "pitch": "E5",
      "midi": 76,
      "start": 236.25,
      "duration": 1.25,
      "velocity": 0.71
    },
    {
      "id": "n-05784",
      "pitch": "E5",
      "midi": 76,
      "start": 236.25,
      "duration": 0.156,
      "velocity": 0.71
    },
    {
      "id": "n-05785",
      "pitch": "E5",
      "midi": 76,
      "start": 236.25,
      "duration": 0.156,
      "velocity": 0.71
    },
    {
      "id": "n-05786",
      "pitch": "E5",
      "midi": 76,
      "start": 236.25,
      "duration": 0.156,
      "velocity": 0.71
    },
    {
      "id": "n-05787",
      "pitch": "G5",
      "midi": 79,
      "start": 236.25,
      "duration": 0.156,
      "velocity": 0.71
    },
    {
      "id": "n-05788",
      "pitch": "C6",
      "midi": 84,
      "start": 236.25,
      "duration": 1.25,
      "velocity": 0.71
    },
    {
      "id": "n-05789",
      "pitch": "C6",
      "midi": 84,
      "start": 236.25,
      "duration": 0.156,
      "velocity": 0.71
    },
    {
      "id": "n-05790",
      "pitch": "C4",
      "midi": 60,
      "start": 236.406,
      "duration": 0.156,
      "velocity": 0.71
    },
    {
      "id": "n-05791",
      "pitch": "C5",
      "midi": 72,
      "start": 236.406,
      "duration": 0.156,
      "velocity": 0.71
    },
    {
      "id": "n-05792",
      "pitch": "C5",
      "midi": 72,
      "start": 236.406,
      "duration": 0.156,
      "velocity": 0.71
    },
    {
      "id": "n-05793",
      "pitch": "C5",
      "midi": 72,
      "start": 236.406,
      "duration": 0.156,
      "velocity": 0.71
    },
    {
      "id": "n-05794",
      "pitch": "C6",
      "midi": 84,
      "start": 236.406,
      "duration": 0.156,
      "velocity": 0.71
    },
    {
      "id": "n-05795",
      "pitch": "C6",
      "midi": 84,
      "start": 236.406,
      "duration": 0.156,
      "velocity": 0.71
    },
    {
      "id": "n-05796",
      "pitch": "C4",
      "midi": 60,
      "start": 236.563,
      "duration": 0.156,
      "velocity": 0.71
    },
    {
      "id": "n-05797",
      "pitch": "C5",
      "midi": 72,
      "start": 236.563,
      "duration": 0.156,
      "velocity": 0.71
    },
    {
      "id": "n-05798",
      "pitch": "C5",
      "midi": 72,
      "start": 236.563,
      "duration": 0.156,
      "velocity": 0.71
    },
    {
      "id": "n-05799",
      "pitch": "C5",
      "midi": 72,
      "start": 236.563,
      "duration": 0.156,
      "velocity": 0.71
    },
    {
      "id": "n-05800",
      "pitch": "C6",
      "midi": 84,
      "start": 236.563,
      "duration": 0.156,
      "velocity": 0.71
    },
    {
      "id": "n-05801",
      "pitch": "C6",
      "midi": 84,
      "start": 236.563,
      "duration": 0.156,
      "velocity": 0.71
    },
    {
      "id": "n-05802",
      "pitch": "C4",
      "midi": 60,
      "start": 236.719,
      "duration": 0.156,
      "velocity": 0.71
    },
    {
      "id": "n-05803",
      "pitch": "C5",
      "midi": 72,
      "start": 236.719,
      "duration": 0.156,
      "velocity": 0.71
    },
    {
      "id": "n-05804",
      "pitch": "C5",
      "midi": 72,
      "start": 236.719,
      "duration": 0.156,
      "velocity": 0.71
    },
    {
      "id": "n-05805",
      "pitch": "C5",
      "midi": 72,
      "start": 236.719,
      "duration": 0.156,
      "velocity": 0.71
    },
    {
      "id": "n-05806",
      "pitch": "C6",
      "midi": 84,
      "start": 236.719,
      "duration": 0.156,
      "velocity": 0.71
    },
    {
      "id": "n-05807",
      "pitch": "C6",
      "midi": 84,
      "start": 236.719,
      "duration": 0.156,
      "velocity": 0.71
    },
    {
      "id": "n-05808",
      "pitch": "C3",
      "midi": 48,
      "start": 236.875,
      "duration": 1.25,
      "velocity": 0.71
    },
    {
      "id": "n-05809",
      "pitch": "C3",
      "midi": 48,
      "start": 236.875,
      "duration": 0.313,
      "velocity": 0.71
    },
    {
      "id": "n-05810",
      "pitch": "C4",
      "midi": 60,
      "start": 236.875,
      "duration": 1.25,
      "velocity": 0.71
    },
    {
      "id": "n-05811",
      "pitch": "C4",
      "midi": 60,
      "start": 236.875,
      "duration": 1.25,
      "velocity": 0.71
    },
    {
      "id": "n-05812",
      "pitch": "C4",
      "midi": 60,
      "start": 236.875,
      "duration": 1.25,
      "velocity": 0.71
    },
    {
      "id": "n-05813",
      "pitch": "C5",
      "midi": 72,
      "start": 236.875,
      "duration": 1.25,
      "velocity": 0.71
    },
    {
      "id": "n-05814",
      "pitch": "C5",
      "midi": 72,
      "start": 236.875,
      "duration": 1.25,
      "velocity": 0.71
    },
    {
      "id": "n-05815",
      "pitch": "C5",
      "midi": 72,
      "start": 236.875,
      "duration": 1.25,
      "velocity": 0.71
    },
    {
      "id": "n-05816",
      "pitch": "C5",
      "midi": 72,
      "start": 236.875,
      "duration": 1.25,
      "velocity": 0.71
    },
    {
      "id": "n-05817",
      "pitch": "C6",
      "midi": 84,
      "start": 236.875,
      "duration": 1.25,
      "velocity": 0.71
    },
    {
      "id": "n-05818",
      "pitch": "C6",
      "midi": 84,
      "start": 236.875,
      "duration": 1.25,
      "velocity": 0.71
    },
    {
      "id": "n-05819",
      "pitch": "G#2",
      "midi": 44,
      "start": 237.5,
      "duration": 1.25,
      "velocity": 0.71
    },
    {
      "id": "n-05820",
      "pitch": "G#2",
      "midi": 44,
      "start": 237.5,
      "duration": 1.25,
      "velocity": 0.71
    },
    {
      "id": "n-05821",
      "pitch": "F4",
      "midi": 65,
      "start": 237.5,
      "duration": 1.25,
      "velocity": 0.71
    },
    {
      "id": "n-05822",
      "pitch": "F4",
      "midi": 65,
      "start": 237.5,
      "duration": 0.313,
      "velocity": 0.71
    },
    {
      "id": "n-05823",
      "pitch": "C5",
      "midi": 72,
      "start": 237.5,
      "duration": 1.25,
      "velocity": 0.71
    },
    {
      "id": "n-05824",
      "pitch": "F5",
      "midi": 77,
      "start": 237.5,
      "duration": 1.25,
      "velocity": 0.71
    },
    {
      "id": "n-05825",
      "pitch": "C6",
      "midi": 84,
      "start": 237.5,
      "duration": 1.25,
      "velocity": 0.71
    },
    {
      "id": "n-05826",
      "pitch": "C3",
      "midi": 48,
      "start": 237.656,
      "duration": 0.156,
      "velocity": 0.71
    },
    {
      "id": "n-05827",
      "pitch": "C3",
      "midi": 48,
      "start": 237.813,
      "duration": 0.156,
      "velocity": 0.71
    },
    {
      "id": "n-05828",
      "pitch": "C3",
      "midi": 48,
      "start": 237.969,
      "duration": 0.156,
      "velocity": 0.71
    },
    {
      "id": "n-05829",
      "pitch": "C3",
      "midi": 48,
      "start": 238.125,
      "duration": 1.25,
      "velocity": 0.71
    },
    {
      "id": "n-05830",
      "pitch": "C3",
      "midi": 48,
      "start": 238.125,
      "duration": 0.313,
      "velocity": 0.71
    },
    {
      "id": "n-05831",
      "pitch": "C4",
      "midi": 60,
      "start": 238.125,
      "duration": 1.25,
      "velocity": 0.71
    },
    {
      "id": "n-05832",
      "pitch": "C4",
      "midi": 60,
      "start": 238.125,
      "duration": 1.25,
      "velocity": 0.71
    },
    {
      "id": "n-05833",
      "pitch": "C4",
      "midi": 60,
      "start": 238.125,
      "duration": 1.25,
      "velocity": 0.71
    },
    {
      "id": "n-05834",
      "pitch": "C5",
      "midi": 72,
      "start": 238.125,
      "duration": 1.25,
      "velocity": 0.71
    },
    {
      "id": "n-05835",
      "pitch": "C5",
      "midi": 72,
      "start": 238.125,
      "duration": 1.25,
      "velocity": 0.71
    },
    {
      "id": "n-05836",
      "pitch": "C5",
      "midi": 72,
      "start": 238.125,
      "duration": 1.25,
      "velocity": 0.71
    },
    {
      "id": "n-05837",
      "pitch": "C5",
      "midi": 72,
      "start": 238.125,
      "duration": 1.25,
      "velocity": 0.71
    },
    {
      "id": "n-05838",
      "pitch": "C6",
      "midi": 84,
      "start": 238.125,
      "duration": 1.25,
      "velocity": 0.71
    },
    {
      "id": "n-05839",
      "pitch": "C6",
      "midi": 84,
      "start": 238.125,
      "duration": 1.25,
      "velocity": 0.71
    },
    {
      "id": "n-05840",
      "pitch": "E3",
      "midi": 52,
      "start": 238.75,
      "duration": 1.25,
      "velocity": 0.71
    },
    {
      "id": "n-05841",
      "pitch": "E3",
      "midi": 52,
      "start": 238.75,
      "duration": 1.25,
      "velocity": 0.71
    },
    {
      "id": "n-05842",
      "pitch": "C4",
      "midi": 60,
      "start": 238.75,
      "duration": 1.25,
      "velocity": 0.71
    },
    {
      "id": "n-05843",
      "pitch": "G4",
      "midi": 67,
      "start": 238.75,
      "duration": 0.313,
      "velocity": 0.71
    },
    {
      "id": "n-05844",
      "pitch": "C5",
      "midi": 72,
      "start": 238.75,
      "duration": 1.25,
      "velocity": 0.71
    },
    {
      "id": "n-05845",
      "pitch": "G5",
      "midi": 79,
      "start": 238.75,
      "duration": 1.25,
      "velocity": 0.71
    },
    {
      "id": "n-05846",
      "pitch": "C6",
      "midi": 84,
      "start": 238.75,
      "duration": 1.25,
      "velocity": 0.71
    },
    {
      "id": "n-05847",
      "pitch": "C3",
      "midi": 48,
      "start": 238.906,
      "duration": 0.156,
      "velocity": 0.71
    },
    {
      "id": "n-05848",
      "pitch": "C3",
      "midi": 48,
      "start": 239.063,
      "duration": 0.156,
      "velocity": 0.71
    },
    {
      "id": "n-05849",
      "pitch": "C3",
      "midi": 48,
      "start": 239.219,
      "duration": 0.156,
      "velocity": 0.71
    },
    {
      "id": "n-05850",
      "pitch": "C3",
      "midi": 48,
      "start": 239.375,
      "duration": 1.25,
      "velocity": 0.71
    },
    {
      "id": "n-05851",
      "pitch": "C3",
      "midi": 48,
      "start": 239.375,
      "duration": 0.313,
      "velocity": 0.71
    },
    {
      "id": "n-05852",
      "pitch": "C4",
      "midi": 60,
      "start": 239.375,
      "duration": 1.25,
      "velocity": 0.71
    },
    {
      "id": "n-05853",
      "pitch": "C4",
      "midi": 60,
      "start": 239.375,
      "duration": 1.25,
      "velocity": 0.71
    },
    {
      "id": "n-05854",
      "pitch": "C4",
      "midi": 60,
      "start": 239.375,
      "duration": 1.25,
      "velocity": 0.71
    },
    {
      "id": "n-05855",
      "pitch": "C5",
      "midi": 72,
      "start": 239.375,
      "duration": 1.25,
      "velocity": 0.71
    },
    {
      "id": "n-05856",
      "pitch": "C5",
      "midi": 72,
      "start": 239.375,
      "duration": 1.25,
      "velocity": 0.71
    },
    {
      "id": "n-05857",
      "pitch": "C5",
      "midi": 72,
      "start": 239.375,
      "duration": 1.25,
      "velocity": 0.71
    },
    {
      "id": "n-05858",
      "pitch": "C5",
      "midi": 72,
      "start": 239.375,
      "duration": 1.25,
      "velocity": 0.71
    },
    {
      "id": "n-05859",
      "pitch": "C6",
      "midi": 84,
      "start": 239.375,
      "duration": 1.25,
      "velocity": 0.71
    },
    {
      "id": "n-05860",
      "pitch": "C6",
      "midi": 84,
      "start": 239.375,
      "duration": 1.25,
      "velocity": 0.71
    },
    {
      "id": "n-05861",
      "pitch": "F3",
      "midi": 53,
      "start": 240,
      "duration": 1.25,
      "velocity": 0.71
    },
    {
      "id": "n-05862",
      "pitch": "F3",
      "midi": 53,
      "start": 240,
      "duration": 1.25,
      "velocity": 0.71
    },
    {
      "id": "n-05863",
      "pitch": "G#3",
      "midi": 56,
      "start": 240,
      "duration": 1.25,
      "velocity": 0.71
    },
    {
      "id": "n-05864",
      "pitch": "G#4",
      "midi": 68,
      "start": 240,
      "duration": 0.313,
      "velocity": 0.71
    },
    {
      "id": "n-05865",
      "pitch": "C5",
      "midi": 72,
      "start": 240,
      "duration": 1.25,
      "velocity": 0.71
    },
    {
      "id": "n-05866",
      "pitch": "G#5",
      "midi": 80,
      "start": 240,
      "duration": 1.25,
      "velocity": 0.71
    },
    {
      "id": "n-05867",
      "pitch": "C6",
      "midi": 84,
      "start": 240,
      "duration": 1.25,
      "velocity": 0.71
    },
    {
      "id": "n-05868",
      "pitch": "C3",
      "midi": 48,
      "start": 240.156,
      "duration": 0.156,
      "velocity": 0.71
    },
    {
      "id": "n-05869",
      "pitch": "C3",
      "midi": 48,
      "start": 240.313,
      "duration": 0.156,
      "velocity": 0.71
    },
    {
      "id": "n-05870",
      "pitch": "C3",
      "midi": 48,
      "start": 240.469,
      "duration": 0.156,
      "velocity": 0.71
    },
    {
      "id": "n-05871",
      "pitch": "C3",
      "midi": 48,
      "start": 240.625,
      "duration": 0.313,
      "velocity": 0.71
    },
    {
      "id": "n-05872",
      "pitch": "C3",
      "midi": 48,
      "start": 240.625,
      "duration": 0.156,
      "velocity": 0.71
    },
    {
      "id": "n-05873",
      "pitch": "C4",
      "midi": 60,
      "start": 240.625,
      "duration": 0.625,
      "velocity": 0.71
    },
    {
      "id": "n-05874",
      "pitch": "C4",
      "midi": 60,
      "start": 240.625,
      "duration": 0.625,
      "velocity": 0.71
    },
    {
      "id": "n-05875",
      "pitch": "C4",
      "midi": 60,
      "start": 240.625,
      "duration": 0.156,
      "velocity": 0.71
    },
    {
      "id": "n-05876",
      "pitch": "C5",
      "midi": 72,
      "start": 240.625,
      "duration": 0.625,
      "velocity": 0.71
    },
    {
      "id": "n-05877",
      "pitch": "C5",
      "midi": 72,
      "start": 240.625,
      "duration": 0.625,
      "velocity": 0.71
    },
    {
      "id": "n-05878",
      "pitch": "C5",
      "midi": 72,
      "start": 240.625,
      "duration": 0.625,
      "velocity": 0.71
    },
    {
      "id": "n-05879",
      "pitch": "C5",
      "midi": 72,
      "start": 240.625,
      "duration": 0.625,
      "velocity": 0.71
    },
    {
      "id": "n-05880",
      "pitch": "C6",
      "midi": 84,
      "start": 240.625,
      "duration": 0.625,
      "velocity": 0.71
    },
    {
      "id": "n-05881",
      "pitch": "C6",
      "midi": 84,
      "start": 240.625,
      "duration": 0.625,
      "velocity": 0.71
    },
    {
      "id": "n-05882",
      "pitch": "F3",
      "midi": 53,
      "start": 240.781,
      "duration": 0.156,
      "velocity": 0.71
    },
    {
      "id": "n-05883",
      "pitch": "G#3",
      "midi": 56,
      "start": 240.781,
      "duration": 0.156,
      "velocity": 0.71
    },
    {
      "id": "n-05884",
      "pitch": "F3",
      "midi": 53,
      "start": 240.938,
      "duration": 0.156,
      "velocity": 0.71
    },
    {
      "id": "n-05885",
      "pitch": "G#3",
      "midi": 56,
      "start": 240.938,
      "duration": 0.156,
      "velocity": 0.71
    },
    {
      "id": "n-05886",
      "pitch": "F3",
      "midi": 53,
      "start": 241.094,
      "duration": 0.156,
      "velocity": 0.71
    },
    {
      "id": "n-05887",
      "pitch": "G#3",
      "midi": 56,
      "start": 241.094,
      "duration": 0.156,
      "velocity": 0.71
    },
    {
      "id": "n-05888",
      "pitch": "F2",
      "midi": 41,
      "start": 241.25,
      "duration": 0.156,
      "velocity": 0.71
    },
    {
      "id": "n-05889",
      "pitch": "F2",
      "midi": 41,
      "start": 241.25,
      "duration": 0.156,
      "velocity": 0.71
    },
    {
      "id": "n-05890",
      "pitch": "F3",
      "midi": 53,
      "start": 241.25,
      "duration": 2.5,
      "velocity": 0.71
    },
    {
      "id": "n-05891",
      "pitch": "G#3",
      "midi": 56,
      "start": 241.25,
      "duration": 2.5,
      "velocity": 0.71
    },
    {
      "id": "n-05892",
      "pitch": "G#3",
      "midi": 56,
      "start": 241.25,
      "duration": 0.156,
      "velocity": 0.71
    },
    {
      "id": "n-05893",
      "pitch": "F4",
      "midi": 65,
      "start": 241.25,
      "duration": 2.5,
      "velocity": 0.71
    },
    {
      "id": "n-05894",
      "pitch": "G#4",
      "midi": 68,
      "start": 241.25,
      "duration": 2.5,
      "velocity": 0.71
    },
    {
      "id": "n-05895",
      "pitch": "G#4",
      "midi": 68,
      "start": 241.25,
      "duration": 2.5,
      "velocity": 0.71
    },
    {
      "id": "n-05896",
      "pitch": "C#5",
      "midi": 73,
      "start": 241.25,
      "duration": 2.5,
      "velocity": 0.71
    },
    {
      "id": "n-05897",
      "pitch": "C#5",
      "midi": 73,
      "start": 241.25,
      "duration": 2.5,
      "velocity": 0.71
    },
    {
      "id": "n-05898",
      "pitch": "C#5",
      "midi": 73,
      "start": 241.25,
      "duration": 0.625,
      "velocity": 0.71
    },
    {
      "id": "n-05899",
      "pitch": "G#5",
      "midi": 80,
      "start": 241.25,
      "duration": 2.5,
      "velocity": 0.71
    },
    {
      "id": "n-05900",
      "pitch": "C#6",
      "midi": 85,
      "start": 241.25,
      "duration": 2.5,
      "velocity": 0.71
    },
    {
      "id": "n-05901",
      "pitch": "C#6",
      "midi": 85,
      "start": 241.25,
      "duration": 0.625,
      "velocity": 0.71
    },
    {
      "id": "n-05902",
      "pitch": "C#6",
      "midi": 85,
      "start": 241.25,
      "duration": 0.313,
      "velocity": 0.71
    },
    {
      "id": "n-05903",
      "pitch": "F3",
      "midi": 53,
      "start": 241.406,
      "duration": 0.156,
      "velocity": 0.71
    },
    {
      "id": "n-05904",
      "pitch": "F3",
      "midi": 53,
      "start": 241.406,
      "duration": 0.156,
      "velocity": 0.71
    },
    {
      "id": "n-05905",
      "pitch": "G#4",
      "midi": 68,
      "start": 241.406,
      "duration": 0.156,
      "velocity": 0.71
    },
    {
      "id": "n-05906",
      "pitch": "F3",
      "midi": 53,
      "start": 241.563,
      "duration": 0.156,
      "velocity": 0.71
    },
    {
      "id": "n-05907",
      "pitch": "F3",
      "midi": 53,
      "start": 241.563,
      "duration": 0.156,
      "velocity": 0.71
    },
    {
      "id": "n-05908",
      "pitch": "G#4",
      "midi": 68,
      "start": 241.563,
      "duration": 0.156,
      "velocity": 0.71
    },
    {
      "id": "n-05909",
      "pitch": "G#5",
      "midi": 80,
      "start": 241.563,
      "duration": 2.188,
      "velocity": 0.71
    },
    {
      "id": "n-05910",
      "pitch": "F3",
      "midi": 53,
      "start": 241.719,
      "duration": 0.156,
      "velocity": 0.71
    },
    {
      "id": "n-05911",
      "pitch": "F3",
      "midi": 53,
      "start": 241.719,
      "duration": 0.156,
      "velocity": 0.71
    },
    {
      "id": "n-05912",
      "pitch": "G#4",
      "midi": 68,
      "start": 241.719,
      "duration": 0.156,
      "velocity": 0.71
    },
    {
      "id": "n-05913",
      "pitch": "F3",
      "midi": 53,
      "start": 241.875,
      "duration": 0.625,
      "velocity": 0.71
    },
    {
      "id": "n-05914",
      "pitch": "F3",
      "midi": 53,
      "start": 241.875,
      "duration": 0.625,
      "velocity": 0.71
    },
    {
      "id": "n-05915",
      "pitch": "G#4",
      "midi": 68,
      "start": 241.875,
      "duration": 0.625,
      "velocity": 0.71
    },
    {
      "id": "n-05916",
      "pitch": "C#5",
      "midi": 73,
      "start": 241.875,
      "duration": 0.625,
      "velocity": 0.71
    },
    {
      "id": "n-05917",
      "pitch": "C#6",
      "midi": 85,
      "start": 241.875,
      "duration": 0.625,
      "velocity": 0.71
    },
    {
      "id": "n-05918",
      "pitch": "F3",
      "midi": 53,
      "start": 242.5,
      "duration": 0.625,
      "velocity": 0.71
    },
    {
      "id": "n-05919",
      "pitch": "F3",
      "midi": 53,
      "start": 242.5,
      "duration": 0.625,
      "velocity": 0.71
    },
    {
      "id": "n-05920",
      "pitch": "G#4",
      "midi": 68,
      "start": 242.5,
      "duration": 0.625,
      "velocity": 0.71
    },
    {
      "id": "n-05921",
      "pitch": "C#5",
      "midi": 73,
      "start": 242.5,
      "duration": 0.625,
      "velocity": 0.71
    },
    {
      "id": "n-05922",
      "pitch": "C#6",
      "midi": 85,
      "start": 242.5,
      "duration": 0.625,
      "velocity": 0.71
    },
    {
      "id": "n-05923",
      "pitch": "F3",
      "midi": 53,
      "start": 243.125,
      "duration": 0.625,
      "velocity": 0.71
    },
    {
      "id": "n-05924",
      "pitch": "F3",
      "midi": 53,
      "start": 243.125,
      "duration": 0.625,
      "velocity": 0.71
    },
    {
      "id": "n-05925",
      "pitch": "G#4",
      "midi": 68,
      "start": 243.125,
      "duration": 0.625,
      "velocity": 0.71
    },
    {
      "id": "n-05926",
      "pitch": "C#5",
      "midi": 73,
      "start": 243.125,
      "duration": 0.625,
      "velocity": 0.71
    },
    {
      "id": "n-05927",
      "pitch": "C#6",
      "midi": 85,
      "start": 243.125,
      "duration": 0.625,
      "velocity": 0.71
    },
    {
      "id": "n-05928",
      "pitch": "F3",
      "midi": 53,
      "start": 243.75,
      "duration": 0.313,
      "velocity": 0.71
    },
    {
      "id": "n-05929",
      "pitch": "F3",
      "midi": 53,
      "start": 243.75,
      "duration": 0.313,
      "velocity": 0.71
    },
    {
      "id": "n-05930",
      "pitch": "F3",
      "midi": 53,
      "start": 243.75,
      "duration": 0.313,
      "velocity": 0.71
    },
    {
      "id": "n-05931",
      "pitch": "G#3",
      "midi": 56,
      "start": 243.75,
      "duration": 0.313,
      "velocity": 0.71
    },
    {
      "id": "n-05932",
      "pitch": "F4",
      "midi": 65,
      "start": 243.75,
      "duration": 0.313,
      "velocity": 0.71
    },
    {
      "id": "n-05933",
      "pitch": "G#4",
      "midi": 68,
      "start": 243.75,
      "duration": 0.313,
      "velocity": 0.71
    },
    {
      "id": "n-05934",
      "pitch": "G#4",
      "midi": 68,
      "start": 243.75,
      "duration": 0.313,
      "velocity": 0.71
    },
    {
      "id": "n-05935",
      "pitch": "G#4",
      "midi": 68,
      "start": 243.75,
      "duration": 0.313,
      "velocity": 0.71
    },
    {
      "id": "n-05936",
      "pitch": "C#5",
      "midi": 73,
      "start": 243.75,
      "duration": 0.313,
      "velocity": 0.71
    },
    {
      "id": "n-05937",
      "pitch": "C#5",
      "midi": 73,
      "start": 243.75,
      "duration": 0.313,
      "velocity": 0.71
    },
    {
      "id": "n-05938",
      "pitch": "C#5",
      "midi": 73,
      "start": 243.75,
      "duration": 0.313,
      "velocity": 0.71
    },
    {
      "id": "n-05939",
      "pitch": "G#5",
      "midi": 80,
      "start": 243.75,
      "duration": 0.313,
      "velocity": 0.71
    },
    {
      "id": "n-05940",
      "pitch": "G#5",
      "midi": 80,
      "start": 243.75,
      "duration": 0.313,
      "velocity": 0.71
    },
    {
      "id": "n-05941",
      "pitch": "C#6",
      "midi": 85,
      "start": 243.75,
      "duration": 0.313,
      "velocity": 0.71
    },
    {
      "id": "n-05942",
      "pitch": "C#6",
      "midi": 85,
      "start": 243.75,
      "duration": 0.313,
      "velocity": 0.71
    },
    {
      "id": "n-05943",
      "pitch": "F4",
      "midi": 65,
      "start": 244.531,
      "duration": 0.156,
      "velocity": 0.71
    },
    {
      "id": "n-05944",
      "pitch": "F4",
      "midi": 65,
      "start": 244.531,
      "duration": 0.156,
      "velocity": 0.71
    },
    {
      "id": "n-05945",
      "pitch": "F4",
      "midi": 65,
      "start": 244.531,
      "duration": 0.156,
      "velocity": 0.71
    },
    {
      "id": "n-05946",
      "pitch": "F4",
      "midi": 65,
      "start": 244.688,
      "duration": 0.156,
      "velocity": 0.71
    },
    {
      "id": "n-05947",
      "pitch": "F4",
      "midi": 65,
      "start": 244.688,
      "duration": 0.156,
      "velocity": 0.71
    },
    {
      "id": "n-05948",
      "pitch": "F4",
      "midi": 65,
      "start": 244.688,
      "duration": 0.156,
      "velocity": 0.71
    },
    {
      "id": "n-05949",
      "pitch": "F4",
      "midi": 65,
      "start": 244.844,
      "duration": 0.156,
      "velocity": 0.71
    },
    {
      "id": "n-05950",
      "pitch": "F4",
      "midi": 65,
      "start": 244.844,
      "duration": 0.156,
      "velocity": 0.71
    },
    {
      "id": "n-05951",
      "pitch": "F4",
      "midi": 65,
      "start": 244.844,
      "duration": 0.156,
      "velocity": 0.71
    },
    {
      "id": "n-05952",
      "pitch": "G#4",
      "midi": 68,
      "start": 245,
      "duration": 0.313,
      "velocity": 0.71
    },
    {
      "id": "n-05953",
      "pitch": "G#4",
      "midi": 68,
      "start": 245,
      "duration": 0.313,
      "velocity": 0.71
    },
    {
      "id": "n-05954",
      "pitch": "G#4",
      "midi": 68,
      "start": 245,
      "duration": 0.313,
      "velocity": 0.71
    },
    {
      "id": "n-05955",
      "pitch": "F#2",
      "midi": 42,
      "start": 246.406,
      "duration": 0.156,
      "velocity": 0.71
    },
    {
      "id": "n-05956",
      "pitch": "F#2",
      "midi": 42,
      "start": 246.406,
      "duration": 0.156,
      "velocity": 0.71
    },
    {
      "id": "n-05957",
      "pitch": "C3",
      "midi": 48,
      "start": 246.406,
      "duration": 0.156,
      "velocity": 0.71
    },
    {
      "id": "n-05958",
      "pitch": "F#3",
      "midi": 54,
      "start": 246.406,
      "duration": 0.156,
      "velocity": 0.71
    },
    {
      "id": "n-05959",
      "pitch": "A3",
      "midi": 57,
      "start": 246.406,
      "duration": 0.156,
      "velocity": 0.71
    },
    {
      "id": "n-05960",
      "pitch": "A3",
      "midi": 57,
      "start": 246.406,
      "duration": 0.156,
      "velocity": 0.71
    },
    {
      "id": "n-05961",
      "pitch": "C4",
      "midi": 60,
      "start": 246.406,
      "duration": 0.156,
      "velocity": 0.71
    },
    {
      "id": "n-05962",
      "pitch": "D#4",
      "midi": 63,
      "start": 246.406,
      "duration": 0.156,
      "velocity": 0.71
    },
    {
      "id": "n-05963",
      "pitch": "A4",
      "midi": 69,
      "start": 246.406,
      "duration": 0.156,
      "velocity": 0.71
    },
    {
      "id": "n-05964",
      "pitch": "C5",
      "midi": 72,
      "start": 246.406,
      "duration": 0.156,
      "velocity": 0.71
    },
    {
      "id": "n-05965",
      "pitch": "C5",
      "midi": 72,
      "start": 246.406,
      "duration": 0.156,
      "velocity": 0.71
    },
    {
      "id": "n-05966",
      "pitch": "D#5",
      "midi": 75,
      "start": 246.406,
      "duration": 0.156,
      "velocity": 0.71
    },
    {
      "id": "n-05967",
      "pitch": "D#5",
      "midi": 75,
      "start": 246.406,
      "duration": 0.156,
      "velocity": 0.71
    },
    {
      "id": "n-05968",
      "pitch": "D#5",
      "midi": 75,
      "start": 246.406,
      "duration": 0.156,
      "velocity": 0.71
    },
    {
      "id": "n-05969",
      "pitch": "A5",
      "midi": 81,
      "start": 246.406,
      "duration": 0.156,
      "velocity": 0.71
    },
    {
      "id": "n-05970",
      "pitch": "C6",
      "midi": 84,
      "start": 246.406,
      "duration": 0.156,
      "velocity": 0.71
    },
    {
      "id": "n-05971",
      "pitch": "C6",
      "midi": 84,
      "start": 246.406,
      "duration": 0.156,
      "velocity": 0.71
    },
    {
      "id": "n-05972",
      "pitch": "D#6",
      "midi": 87,
      "start": 246.406,
      "duration": 0.156,
      "velocity": 0.71
    },
    {
      "id": "n-05973",
      "pitch": "D#6",
      "midi": 87,
      "start": 246.406,
      "duration": 0.156,
      "velocity": 0.71
    },
    {
      "id": "n-05974",
      "pitch": "F#2",
      "midi": 42,
      "start": 246.563,
      "duration": 0.156,
      "velocity": 0.71
    },
    {
      "id": "n-05975",
      "pitch": "F#2",
      "midi": 42,
      "start": 246.563,
      "duration": 0.156,
      "velocity": 0.71
    },
    {
      "id": "n-05976",
      "pitch": "C3",
      "midi": 48,
      "start": 246.563,
      "duration": 0.156,
      "velocity": 0.71
    },
    {
      "id": "n-05977",
      "pitch": "F#3",
      "midi": 54,
      "start": 246.563,
      "duration": 0.156,
      "velocity": 0.71
    },
    {
      "id": "n-05978",
      "pitch": "A3",
      "midi": 57,
      "start": 246.563,
      "duration": 0.156,
      "velocity": 0.71
    },
    {
      "id": "n-05979",
      "pitch": "A3",
      "midi": 57,
      "start": 246.563,
      "duration": 0.156,
      "velocity": 0.71
    },
    {
      "id": "n-05980",
      "pitch": "C4",
      "midi": 60,
      "start": 246.563,
      "duration": 0.156,
      "velocity": 0.71
    },
    {
      "id": "n-05981",
      "pitch": "D#4",
      "midi": 63,
      "start": 246.563,
      "duration": 0.156,
      "velocity": 0.71
    },
    {
      "id": "n-05982",
      "pitch": "A4",
      "midi": 69,
      "start": 246.563,
      "duration": 0.156,
      "velocity": 0.71
    },
    {
      "id": "n-05983",
      "pitch": "C5",
      "midi": 72,
      "start": 246.563,
      "duration": 0.156,
      "velocity": 0.71
    },
    {
      "id": "n-05984",
      "pitch": "C5",
      "midi": 72,
      "start": 246.563,
      "duration": 0.156,
      "velocity": 0.71
    },
    {
      "id": "n-05985",
      "pitch": "D#5",
      "midi": 75,
      "start": 246.563,
      "duration": 0.156,
      "velocity": 0.71
    },
    {
      "id": "n-05986",
      "pitch": "D#5",
      "midi": 75,
      "start": 246.563,
      "duration": 0.156,
      "velocity": 0.71
    },
    {
      "id": "n-05987",
      "pitch": "D#5",
      "midi": 75,
      "start": 246.563,
      "duration": 0.156,
      "velocity": 0.71
    },
    {
      "id": "n-05988",
      "pitch": "A5",
      "midi": 81,
      "start": 246.563,
      "duration": 0.156,
      "velocity": 0.71
    },
    {
      "id": "n-05989",
      "pitch": "C6",
      "midi": 84,
      "start": 246.563,
      "duration": 0.156,
      "velocity": 0.71
    },
    {
      "id": "n-05990",
      "pitch": "C6",
      "midi": 84,
      "start": 246.563,
      "duration": 0.156,
      "velocity": 0.71
    },
    {
      "id": "n-05991",
      "pitch": "D#6",
      "midi": 87,
      "start": 246.563,
      "duration": 0.156,
      "velocity": 0.71
    },
    {
      "id": "n-05992",
      "pitch": "D#6",
      "midi": 87,
      "start": 246.563,
      "duration": 0.156,
      "velocity": 0.71
    },
    {
      "id": "n-05993",
      "pitch": "F#2",
      "midi": 42,
      "start": 246.719,
      "duration": 0.156,
      "velocity": 0.71
    },
    {
      "id": "n-05994",
      "pitch": "F#2",
      "midi": 42,
      "start": 246.719,
      "duration": 0.156,
      "velocity": 0.71
    },
    {
      "id": "n-05995",
      "pitch": "C3",
      "midi": 48,
      "start": 246.719,
      "duration": 0.156,
      "velocity": 0.71
    },
    {
      "id": "n-05996",
      "pitch": "F#3",
      "midi": 54,
      "start": 246.719,
      "duration": 0.156,
      "velocity": 0.71
    },
    {
      "id": "n-05997",
      "pitch": "A3",
      "midi": 57,
      "start": 246.719,
      "duration": 0.156,
      "velocity": 0.71
    },
    {
      "id": "n-05998",
      "pitch": "A3",
      "midi": 57,
      "start": 246.719,
      "duration": 0.156,
      "velocity": 0.71
    },
    {
      "id": "n-05999",
      "pitch": "C4",
      "midi": 60,
      "start": 246.719,
      "duration": 0.156,
      "velocity": 0.71
    },
    {
      "id": "n-06000",
      "pitch": "D#4",
      "midi": 63,
      "start": 246.719,
      "duration": 0.156,
      "velocity": 0.71
    },
    {
      "id": "n-06001",
      "pitch": "A4",
      "midi": 69,
      "start": 246.719,
      "duration": 0.156,
      "velocity": 0.71
    },
    {
      "id": "n-06002",
      "pitch": "C5",
      "midi": 72,
      "start": 246.719,
      "duration": 0.156,
      "velocity": 0.71
    },
    {
      "id": "n-06003",
      "pitch": "C5",
      "midi": 72,
      "start": 246.719,
      "duration": 0.156,
      "velocity": 0.71
    },
    {
      "id": "n-06004",
      "pitch": "D#5",
      "midi": 75,
      "start": 246.719,
      "duration": 0.156,
      "velocity": 0.71
    },
    {
      "id": "n-06005",
      "pitch": "D#5",
      "midi": 75,
      "start": 246.719,
      "duration": 0.156,
      "velocity": 0.71
    },
    {
      "id": "n-06006",
      "pitch": "D#5",
      "midi": 75,
      "start": 246.719,
      "duration": 0.156,
      "velocity": 0.71
    },
    {
      "id": "n-06007",
      "pitch": "A5",
      "midi": 81,
      "start": 246.719,
      "duration": 0.156,
      "velocity": 0.71
    },
    {
      "id": "n-06008",
      "pitch": "C6",
      "midi": 84,
      "start": 246.719,
      "duration": 0.156,
      "velocity": 0.71
    },
    {
      "id": "n-06009",
      "pitch": "C6",
      "midi": 84,
      "start": 246.719,
      "duration": 0.156,
      "velocity": 0.71
    },
    {
      "id": "n-06010",
      "pitch": "D#6",
      "midi": 87,
      "start": 246.719,
      "duration": 0.156,
      "velocity": 0.71
    },
    {
      "id": "n-06011",
      "pitch": "D#6",
      "midi": 87,
      "start": 246.719,
      "duration": 0.156,
      "velocity": 0.71
    },
    {
      "id": "n-06012",
      "pitch": "F#2",
      "midi": 42,
      "start": 246.875,
      "duration": 0.156,
      "velocity": 0.71
    },
    {
      "id": "n-06013",
      "pitch": "F#2",
      "midi": 42,
      "start": 246.875,
      "duration": 0.156,
      "velocity": 0.71
    },
    {
      "id": "n-06014",
      "pitch": "C3",
      "midi": 48,
      "start": 246.875,
      "duration": 0.625,
      "velocity": 0.71
    },
    {
      "id": "n-06015",
      "pitch": "F#3",
      "midi": 54,
      "start": 246.875,
      "duration": 2.813,
      "velocity": 0.71
    },
    {
      "id": "n-06016",
      "pitch": "A3",
      "midi": 57,
      "start": 246.875,
      "duration": 2.813,
      "velocity": 0.71
    },
    {
      "id": "n-06017",
      "pitch": "A3",
      "midi": 57,
      "start": 246.875,
      "duration": 0.156,
      "velocity": 0.71
    },
    {
      "id": "n-06018",
      "pitch": "C4",
      "midi": 60,
      "start": 246.875,
      "duration": 2.5,
      "velocity": 0.71
    },
    {
      "id": "n-06019",
      "pitch": "D#4",
      "midi": 63,
      "start": 246.875,
      "duration": 2.5,
      "velocity": 0.71
    },
    {
      "id": "n-06020",
      "pitch": "A4",
      "midi": 69,
      "start": 246.875,
      "duration": 2.5,
      "velocity": 0.71
    },
    {
      "id": "n-06021",
      "pitch": "C5",
      "midi": 72,
      "start": 246.875,
      "duration": 2.5,
      "velocity": 0.71
    },
    {
      "id": "n-06022",
      "pitch": "C5",
      "midi": 72,
      "start": 246.875,
      "duration": 2.5,
      "velocity": 0.71
    },
    {
      "id": "n-06023",
      "pitch": "D#5",
      "midi": 75,
      "start": 246.875,
      "duration": 2.5,
      "velocity": 0.71
    },
    {
      "id": "n-06024",
      "pitch": "D#5",
      "midi": 75,
      "start": 246.875,
      "duration": 0.625,
      "velocity": 0.71
    },
    {
      "id": "n-06025",
      "pitch": "D#5",
      "midi": 75,
      "start": 246.875,
      "duration": 0.625,
      "velocity": 0.71
    },
    {
      "id": "n-06026",
      "pitch": "A5",
      "midi": 81,
      "start": 246.875,
      "duration": 2.5,
      "velocity": 0.71
    },
    {
      "id": "n-06027",
      "pitch": "C6",
      "midi": 84,
      "start": 246.875,
      "duration": 2.5,
      "velocity": 0.71
    },
    {
      "id": "n-06028",
      "pitch": "C6",
      "midi": 84,
      "start": 246.875,
      "duration": 0.625,
      "velocity": 0.71
    },
    {
      "id": "n-06029",
      "pitch": "D#6",
      "midi": 87,
      "start": 246.875,
      "duration": 2.5,
      "velocity": 0.71
    },
    {
      "id": "n-06030",
      "pitch": "D#6",
      "midi": 87,
      "start": 246.875,
      "duration": 0.625,
      "velocity": 0.71
    },
    {
      "id": "n-06031",
      "pitch": "F#3",
      "midi": 54,
      "start": 247.031,
      "duration": 0.156,
      "velocity": 0.71
    },
    {
      "id": "n-06032",
      "pitch": "F#3",
      "midi": 54,
      "start": 247.031,
      "duration": 0.156,
      "velocity": 0.71
    },
    {
      "id": "n-06033",
      "pitch": "A4",
      "midi": 69,
      "start": 247.031,
      "duration": 0.156,
      "velocity": 0.71
    },
    {
      "id": "n-06034",
      "pitch": "F#3",
      "midi": 54,
      "start": 247.188,
      "duration": 0.156,
      "velocity": 0.71
    },
    {
      "id": "n-06035",
      "pitch": "F#3",
      "midi": 54,
      "start": 247.188,
      "duration": 0.156,
      "velocity": 0.71
    },
    {
      "id": "n-06036",
      "pitch": "A4",
      "midi": 69,
      "start": 247.188,
      "duration": 0.156,
      "velocity": 0.71
    },
    {
      "id": "n-06037",
      "pitch": "F#3",
      "midi": 54,
      "start": 247.344,
      "duration": 0.156,
      "velocity": 0.71
    },
    {
      "id": "n-06038",
      "pitch": "F#3",
      "midi": 54,
      "start": 247.344,
      "duration": 0.156,
      "velocity": 0.71
    },
    {
      "id": "n-06039",
      "pitch": "A4",
      "midi": 69,
      "start": 247.344,
      "duration": 0.156,
      "velocity": 0.71
    },
    {
      "id": "n-06040",
      "pitch": "C3",
      "midi": 48,
      "start": 247.5,
      "duration": 0.625,
      "velocity": 0.71
    },
    {
      "id": "n-06041",
      "pitch": "F#3",
      "midi": 54,
      "start": 247.5,
      "duration": 0.625,
      "velocity": 0.71
    },
    {
      "id": "n-06042",
      "pitch": "F#3",
      "midi": 54,
      "start": 247.5,
      "duration": 0.625,
      "velocity": 0.71
    },
    {
      "id": "n-06043",
      "pitch": "A4",
      "midi": 69,
      "start": 247.5,
      "duration": 0.625,
      "velocity": 0.71
    },
    {
      "id": "n-06044",
      "pitch": "D#5",
      "midi": 75,
      "start": 247.5,
      "duration": 0.625,
      "velocity": 0.71
    },
    {
      "id": "n-06045",
      "pitch": "D#5",
      "midi": 75,
      "start": 247.5,
      "duration": 0.625,
      "velocity": 0.71
    },
    {
      "id": "n-06046",
      "pitch": "C6",
      "midi": 84,
      "start": 247.5,
      "duration": 0.625,
      "velocity": 0.71
    },
    {
      "id": "n-06047",
      "pitch": "D#6",
      "midi": 87,
      "start": 247.5,
      "duration": 0.625,
      "velocity": 0.71
    },
    {
      "id": "n-06048",
      "pitch": "C3",
      "midi": 48,
      "start": 248.125,
      "duration": 0.625,
      "velocity": 0.71
    },
    {
      "id": "n-06049",
      "pitch": "F#3",
      "midi": 54,
      "start": 248.125,
      "duration": 0.625,
      "velocity": 0.71
    },
    {
      "id": "n-06050",
      "pitch": "F#3",
      "midi": 54,
      "start": 248.125,
      "duration": 0.625,
      "velocity": 0.71
    },
    {
      "id": "n-06051",
      "pitch": "A4",
      "midi": 69,
      "start": 248.125,
      "duration": 0.625,
      "velocity": 0.71
    },
    {
      "id": "n-06052",
      "pitch": "D#5",
      "midi": 75,
      "start": 248.125,
      "duration": 0.625,
      "velocity": 0.71
    },
    {
      "id": "n-06053",
      "pitch": "D#5",
      "midi": 75,
      "start": 248.125,
      "duration": 0.625,
      "velocity": 0.71
    },
    {
      "id": "n-06054",
      "pitch": "C6",
      "midi": 84,
      "start": 248.125,
      "duration": 0.625,
      "velocity": 0.71
    },
    {
      "id": "n-06055",
      "pitch": "D#6",
      "midi": 87,
      "start": 248.125,
      "duration": 0.625,
      "velocity": 0.71
    },
    {
      "id": "n-06056",
      "pitch": "C3",
      "midi": 48,
      "start": 248.75,
      "duration": 0.625,
      "velocity": 0.71
    },
    {
      "id": "n-06057",
      "pitch": "F#3",
      "midi": 54,
      "start": 248.75,
      "duration": 0.625,
      "velocity": 0.71
    },
    {
      "id": "n-06058",
      "pitch": "F#3",
      "midi": 54,
      "start": 248.75,
      "duration": 0.625,
      "velocity": 0.71
    },
    {
      "id": "n-06059",
      "pitch": "A4",
      "midi": 69,
      "start": 248.75,
      "duration": 0.625,
      "velocity": 0.71
    },
    {
      "id": "n-06060",
      "pitch": "D#5",
      "midi": 75,
      "start": 248.75,
      "duration": 0.625,
      "velocity": 0.71
    },
    {
      "id": "n-06061",
      "pitch": "D#5",
      "midi": 75,
      "start": 248.75,
      "duration": 0.625,
      "velocity": 0.71
    },
    {
      "id": "n-06062",
      "pitch": "C6",
      "midi": 84,
      "start": 248.75,
      "duration": 0.625,
      "velocity": 0.71
    },
    {
      "id": "n-06063",
      "pitch": "D#6",
      "midi": 87,
      "start": 248.75,
      "duration": 0.625,
      "velocity": 0.71
    },
    {
      "id": "n-06064",
      "pitch": "C3",
      "midi": 48,
      "start": 249.375,
      "duration": 0.313,
      "velocity": 0.71
    },
    {
      "id": "n-06065",
      "pitch": "F#3",
      "midi": 54,
      "start": 249.375,
      "duration": 0.313,
      "velocity": 0.71
    },
    {
      "id": "n-06066",
      "pitch": "F#3",
      "midi": 54,
      "start": 249.375,
      "duration": 0.313,
      "velocity": 0.71
    },
    {
      "id": "n-06067",
      "pitch": "C4",
      "midi": 60,
      "start": 249.375,
      "duration": 0.313,
      "velocity": 0.71
    },
    {
      "id": "n-06068",
      "pitch": "D#4",
      "midi": 63,
      "start": 249.375,
      "duration": 0.313,
      "velocity": 0.71
    },
    {
      "id": "n-06069",
      "pitch": "A4",
      "midi": 69,
      "start": 249.375,
      "duration": 0.313,
      "velocity": 0.71
    },
    {
      "id": "n-06070",
      "pitch": "A4",
      "midi": 69,
      "start": 249.375,
      "duration": 0.313,
      "velocity": 0.71
    },
    {
      "id": "n-06071",
      "pitch": "C5",
      "midi": 72,
      "start": 249.375,
      "duration": 0.313,
      "velocity": 0.71
    },
    {
      "id": "n-06072",
      "pitch": "C5",
      "midi": 72,
      "start": 249.375,
      "duration": 0.313,
      "velocity": 0.71
    },
    {
      "id": "n-06073",
      "pitch": "D#5",
      "midi": 75,
      "start": 249.375,
      "duration": 0.313,
      "velocity": 0.71
    },
    {
      "id": "n-06074",
      "pitch": "D#5",
      "midi": 75,
      "start": 249.375,
      "duration": 0.313,
      "velocity": 0.71
    },
    {
      "id": "n-06075",
      "pitch": "D#5",
      "midi": 75,
      "start": 249.375,
      "duration": 0.313,
      "velocity": 0.71
    },
    {
      "id": "n-06076",
      "pitch": "A5",
      "midi": 81,
      "start": 249.375,
      "duration": 0.313,
      "velocity": 0.71
    },
    {
      "id": "n-06077",
      "pitch": "C6",
      "midi": 84,
      "start": 249.375,
      "duration": 0.313,
      "velocity": 0.71
    },
    {
      "id": "n-06078",
      "pitch": "C6",
      "midi": 84,
      "start": 249.375,
      "duration": 0.313,
      "velocity": 0.71
    },
    {
      "id": "n-06079",
      "pitch": "D#6",
      "midi": 87,
      "start": 249.375,
      "duration": 0.313,
      "velocity": 0.71
    },
    {
      "id": "n-06080",
      "pitch": "D#6",
      "midi": 87,
      "start": 249.375,
      "duration": 0.313,
      "velocity": 0.71
    },
    {
      "id": "n-06081",
      "pitch": "C3",
      "midi": 48,
      "start": 250.156,
      "duration": 0.156,
      "velocity": 0.71
    },
    {
      "id": "n-06082",
      "pitch": "C4",
      "midi": 60,
      "start": 250.156,
      "duration": 0.156,
      "velocity": 0.71
    },
    {
      "id": "n-06083",
      "pitch": "C4",
      "midi": 60,
      "start": 250.156,
      "duration": 0.156,
      "velocity": 0.71
    },
    {
      "id": "n-06084",
      "pitch": "C4",
      "midi": 60,
      "start": 250.156,
      "duration": 0.156,
      "velocity": 0.71
    },
    {
      "id": "n-06085",
      "pitch": "C5",
      "midi": 72,
      "start": 250.156,
      "duration": 0.156,
      "velocity": 0.71
    },
    {
      "id": "n-06086",
      "pitch": "C5",
      "midi": 72,
      "start": 250.156,
      "duration": 0.156,
      "velocity": 0.71
    },
    {
      "id": "n-06087",
      "pitch": "C5",
      "midi": 72,
      "start": 250.156,
      "duration": 0.156,
      "velocity": 0.71
    },
    {
      "id": "n-06088",
      "pitch": "C6",
      "midi": 84,
      "start": 250.156,
      "duration": 0.156,
      "velocity": 0.71
    },
    {
      "id": "n-06089",
      "pitch": "C3",
      "midi": 48,
      "start": 250.313,
      "duration": 0.156,
      "velocity": 0.71
    },
    {
      "id": "n-06090",
      "pitch": "C4",
      "midi": 60,
      "start": 250.313,
      "duration": 0.156,
      "velocity": 0.71
    },
    {
      "id": "n-06091",
      "pitch": "C4",
      "midi": 60,
      "start": 250.313,
      "duration": 0.156,
      "velocity": 0.71
    },
    {
      "id": "n-06092",
      "pitch": "C4",
      "midi": 60,
      "start": 250.313,
      "duration": 0.156,
      "velocity": 0.71
    },
    {
      "id": "n-06093",
      "pitch": "C5",
      "midi": 72,
      "start": 250.313,
      "duration": 0.156,
      "velocity": 0.71
    },
    {
      "id": "n-06094",
      "pitch": "C5",
      "midi": 72,
      "start": 250.313,
      "duration": 0.156,
      "velocity": 0.71
    },
    {
      "id": "n-06095",
      "pitch": "C5",
      "midi": 72,
      "start": 250.313,
      "duration": 0.156,
      "velocity": 0.71
    },
    {
      "id": "n-06096",
      "pitch": "C6",
      "midi": 84,
      "start": 250.313,
      "duration": 0.156,
      "velocity": 0.71
    },
    {
      "id": "n-06097",
      "pitch": "C3",
      "midi": 48,
      "start": 250.469,
      "duration": 0.156,
      "velocity": 0.71
    },
    {
      "id": "n-06098",
      "pitch": "C4",
      "midi": 60,
      "start": 250.469,
      "duration": 0.156,
      "velocity": 0.71
    },
    {
      "id": "n-06099",
      "pitch": "C4",
      "midi": 60,
      "start": 250.469,
      "duration": 0.156,
      "velocity": 0.71
    },
    {
      "id": "n-06100",
      "pitch": "C4",
      "midi": 60,
      "start": 250.469,
      "duration": 0.156,
      "velocity": 0.71
    },
    {
      "id": "n-06101",
      "pitch": "C5",
      "midi": 72,
      "start": 250.469,
      "duration": 0.156,
      "velocity": 0.71
    },
    {
      "id": "n-06102",
      "pitch": "C5",
      "midi": 72,
      "start": 250.469,
      "duration": 0.156,
      "velocity": 0.71
    },
    {
      "id": "n-06103",
      "pitch": "C5",
      "midi": 72,
      "start": 250.469,
      "duration": 0.156,
      "velocity": 0.71
    },
    {
      "id": "n-06104",
      "pitch": "C6",
      "midi": 84,
      "start": 250.469,
      "duration": 0.156,
      "velocity": 0.71
    },
    {
      "id": "n-06105",
      "pitch": "C3",
      "midi": 48,
      "start": 250.625,
      "duration": 0.313,
      "velocity": 0.71
    },
    {
      "id": "n-06106",
      "pitch": "C4",
      "midi": 60,
      "start": 250.625,
      "duration": 0.313,
      "velocity": 0.71
    },
    {
      "id": "n-06107",
      "pitch": "D#4",
      "midi": 63,
      "start": 250.625,
      "duration": 0.313,
      "velocity": 0.71
    },
    {
      "id": "n-06108",
      "pitch": "D#4",
      "midi": 63,
      "start": 250.625,
      "duration": 0.313,
      "velocity": 0.71
    },
    {
      "id": "n-06109",
      "pitch": "C5",
      "midi": 72,
      "start": 250.625,
      "duration": 0.313,
      "velocity": 0.71
    },
    {
      "id": "n-06110",
      "pitch": "D#5",
      "midi": 75,
      "start": 250.625,
      "duration": 0.313,
      "velocity": 0.71
    },
    {
      "id": "n-06111",
      "pitch": "D#5",
      "midi": 75,
      "start": 250.625,
      "duration": 0.313,
      "velocity": 0.71
    },
    {
      "id": "n-06112",
      "pitch": "D#6",
      "midi": 87,
      "start": 250.625,
      "duration": 0.313,
      "velocity": 0.71
    },
    {
      "id": "n-06113",
      "pitch": "G4",
      "midi": 67,
      "start": 251.406,
      "duration": 0.156,
      "velocity": 0.71
    },
    {
      "id": "n-06114",
      "pitch": "G4",
      "midi": 67,
      "start": 251.406,
      "duration": 0.156,
      "velocity": 0.71
    },
    {
      "id": "n-06115",
      "pitch": "G4",
      "midi": 67,
      "start": 251.406,
      "duration": 0.156,
      "velocity": 0.71
    },
    {
      "id": "n-06116",
      "pitch": "G4",
      "midi": 67,
      "start": 251.563,
      "duration": 0.156,
      "velocity": 0.71
    },
    {
      "id": "n-06117",
      "pitch": "G4",
      "midi": 67,
      "start": 251.563,
      "duration": 0.156,
      "velocity": 0.71
    },
    {
      "id": "n-06118",
      "pitch": "G4",
      "midi": 67,
      "start": 251.563,
      "duration": 0.156,
      "velocity": 0.71
    },
    {
      "id": "n-06119",
      "pitch": "G4",
      "midi": 67,
      "start": 251.719,
      "duration": 0.156,
      "velocity": 0.71
    },
    {
      "id": "n-06120",
      "pitch": "G4",
      "midi": 67,
      "start": 251.719,
      "duration": 0.156,
      "velocity": 0.71
    },
    {
      "id": "n-06121",
      "pitch": "G4",
      "midi": 67,
      "start": 251.719,
      "duration": 0.156,
      "velocity": 0.71
    },
    {
      "id": "n-06122",
      "pitch": "G2",
      "midi": 43,
      "start": 251.875,
      "duration": 0.313,
      "velocity": 0.71
    },
    {
      "id": "n-06123",
      "pitch": "G2",
      "midi": 43,
      "start": 251.875,
      "duration": 0.313,
      "velocity": 0.71
    },
    {
      "id": "n-06124",
      "pitch": "G3",
      "midi": 55,
      "start": 251.875,
      "duration": 0.313,
      "velocity": 0.71
    },
    {
      "id": "n-06125",
      "pitch": "D#4",
      "midi": 63,
      "start": 251.875,
      "duration": 0.625,
      "velocity": 0.71
    },
    {
      "id": "n-06126",
      "pitch": "D#4",
      "midi": 63,
      "start": 251.875,
      "duration": 0.625,
      "velocity": 0.71
    },
    {
      "id": "n-06127",
      "pitch": "D#4",
      "midi": 63,
      "start": 251.875,
      "duration": 0.625,
      "velocity": 0.71
    },
    {
      "id": "n-06128",
      "pitch": "G4",
      "midi": 67,
      "start": 251.875,
      "duration": 0.313,
      "velocity": 0.71
    },
    {
      "id": "n-06129",
      "pitch": "F4",
      "midi": 65,
      "start": 252.5,
      "duration": 0.625,
      "velocity": 0.71
    },
    {
      "id": "n-06130",
      "pitch": "F4",
      "midi": 65,
      "start": 252.5,
      "duration": 0.625,
      "velocity": 0.71
    },
    {
      "id": "n-06131",
      "pitch": "F4",
      "midi": 65,
      "start": 252.5,
      "duration": 0.625,
      "velocity": 0.71
    },
    {
      "id": "n-06132",
      "pitch": "B4",
      "midi": 71,
      "start": 252.5,
      "duration": 0.156,
      "velocity": 0.71
    },
    {
      "id": "n-06133",
      "pitch": "B4",
      "midi": 71,
      "start": 252.5,
      "duration": 0.156,
      "velocity": 0.71
    },
    {
      "id": "n-06134",
      "pitch": "C5",
      "midi": 72,
      "start": 252.656,
      "duration": 0.156,
      "velocity": 0.71
    },
    {
      "id": "n-06135",
      "pitch": "C5",
      "midi": 72,
      "start": 252.656,
      "duration": 0.156,
      "velocity": 0.71
    },
    {
      "id": "n-06136",
      "pitch": "D5",
      "midi": 74,
      "start": 252.813,
      "duration": 0.156,
      "velocity": 0.71
    },
    {
      "id": "n-06137",
      "pitch": "D5",
      "midi": 74,
      "start": 252.813,
      "duration": 0.156,
      "velocity": 0.71
    },
    {
      "id": "n-06138",
      "pitch": "D#5",
      "midi": 75,
      "start": 252.969,
      "duration": 0.156,
      "velocity": 0.71
    },
    {
      "id": "n-06139",
      "pitch": "D#5",
      "midi": 75,
      "start": 252.969,
      "duration": 0.156,
      "velocity": 0.71
    },
    {
      "id": "n-06140",
      "pitch": "D4",
      "midi": 62,
      "start": 253.125,
      "duration": 0.781,
      "velocity": 0.71
    },
    {
      "id": "n-06141",
      "pitch": "D4",
      "midi": 62,
      "start": 253.125,
      "duration": 0.781,
      "velocity": 0.71
    },
    {
      "id": "n-06142",
      "pitch": "D4",
      "midi": 62,
      "start": 253.125,
      "duration": 0.781,
      "velocity": 0.71
    },
    {
      "id": "n-06143",
      "pitch": "F4",
      "midi": 65,
      "start": 253.125,
      "duration": 1.25,
      "velocity": 0.71
    },
    {
      "id": "n-06144",
      "pitch": "G#4",
      "midi": 68,
      "start": 253.125,
      "duration": 0.938,
      "velocity": 0.71
    },
    {
      "id": "n-06145",
      "pitch": "B4",
      "midi": 71,
      "start": 253.125,
      "duration": 1.25,
      "velocity": 0.71
    },
    {
      "id": "n-06146",
      "pitch": "F5",
      "midi": 77,
      "start": 253.125,
      "duration": 1.25,
      "velocity": 0.71
    },
    {
      "id": "n-06147",
      "pitch": "F5",
      "midi": 77,
      "start": 253.125,
      "duration": 0.156,
      "velocity": 0.71
    },
    {
      "id": "n-06148",
      "pitch": "F5",
      "midi": 77,
      "start": 253.125,
      "duration": 0.156,
      "velocity": 0.71
    },
    {
      "id": "n-06149",
      "pitch": "G#5",
      "midi": 80,
      "start": 253.125,
      "duration": 0.938,
      "velocity": 0.71
    },
    {
      "id": "n-06150",
      "pitch": "B5",
      "midi": 83,
      "start": 253.125,
      "duration": 1.25,
      "velocity": 0.71
    },
    {
      "id": "n-06151",
      "pitch": "B5",
      "midi": 83,
      "start": 253.125,
      "duration": 1.25,
      "velocity": 0.71
    },
    {
      "id": "n-06152",
      "pitch": "F6",
      "midi": 89,
      "start": 253.125,
      "duration": 1.25,
      "velocity": 0.71
    },
    {
      "id": "n-06153",
      "pitch": "G5",
      "midi": 79,
      "start": 253.281,
      "duration": 0.156,
      "velocity": 0.71
    },
    {
      "id": "n-06154",
      "pitch": "G5",
      "midi": 79,
      "start": 253.281,
      "duration": 0.156,
      "velocity": 0.71
    },
    {
      "id": "n-06155",
      "pitch": "G#5",
      "midi": 80,
      "start": 253.438,
      "duration": 0.156,
      "velocity": 0.71
    },
    {
      "id": "n-06156",
      "pitch": "G#5",
      "midi": 80,
      "start": 253.438,
      "duration": 0.156,
      "velocity": 0.71
    },
    {
      "id": "n-06157",
      "pitch": "G5",
      "midi": 79,
      "start": 253.594,
      "duration": 0.156,
      "velocity": 0.71
    },
    {
      "id": "n-06158",
      "pitch": "G5",
      "midi": 79,
      "start": 253.594,
      "duration": 0.156,
      "velocity": 0.71
    },
    {
      "id": "n-06159",
      "pitch": "G#5",
      "midi": 80,
      "start": 253.75,
      "duration": 0.156,
      "velocity": 0.71
    },
    {
      "id": "n-06160",
      "pitch": "G#5",
      "midi": 80,
      "start": 253.75,
      "duration": 0.156,
      "velocity": 0.71
    },
    {
      "id": "n-06161",
      "pitch": "G4",
      "midi": 67,
      "start": 253.906,
      "duration": 0.156,
      "velocity": 0.71
    },
    {
      "id": "n-06162",
      "pitch": "G4",
      "midi": 67,
      "start": 253.906,
      "duration": 0.156,
      "velocity": 0.71
    },
    {
      "id": "n-06163",
      "pitch": "G4",
      "midi": 67,
      "start": 253.906,
      "duration": 0.156,
      "velocity": 0.71
    },
    {
      "id": "n-06164",
      "pitch": "G5",
      "midi": 79,
      "start": 253.906,
      "duration": 0.156,
      "velocity": 0.71
    },
    {
      "id": "n-06165",
      "pitch": "G5",
      "midi": 79,
      "start": 253.906,
      "duration": 0.156,
      "velocity": 0.71
    },
    {
      "id": "n-06166",
      "pitch": "G4",
      "midi": 67,
      "start": 254.063,
      "duration": 0.313,
      "velocity": 0.71
    },
    {
      "id": "n-06167",
      "pitch": "G4",
      "midi": 67,
      "start": 254.063,
      "duration": 0.156,
      "velocity": 0.71
    },
    {
      "id": "n-06168",
      "pitch": "G4",
      "midi": 67,
      "start": 254.063,
      "duration": 0.156,
      "velocity": 0.71
    },
    {
      "id": "n-06169",
      "pitch": "G4",
      "midi": 67,
      "start": 254.063,
      "duration": 0.156,
      "velocity": 0.71
    },
    {
      "id": "n-06170",
      "pitch": "G5",
      "midi": 79,
      "start": 254.063,
      "duration": 0.313,
      "velocity": 0.71
    },
    {
      "id": "n-06171",
      "pitch": "G#5",
      "midi": 80,
      "start": 254.063,
      "duration": 0.156,
      "velocity": 0.71
    },
    {
      "id": "n-06172",
      "pitch": "G#5",
      "midi": 80,
      "start": 254.063,
      "duration": 0.156,
      "velocity": 0.71
    },
    {
      "id": "n-06173",
      "pitch": "G4",
      "midi": 67,
      "start": 254.219,
      "duration": 0.156,
      "velocity": 0.71
    },
    {
      "id": "n-06174",
      "pitch": "G4",
      "midi": 67,
      "start": 254.219,
      "duration": 0.156,
      "velocity": 0.71
    },
    {
      "id": "n-06175",
      "pitch": "G4",
      "midi": 67,
      "start": 254.219,
      "duration": 0.156,
      "velocity": 0.71
    },
    {
      "id": "n-06176",
      "pitch": "G5",
      "midi": 79,
      "start": 254.219,
      "duration": 0.156,
      "velocity": 0.71
    },
    {
      "id": "n-06177",
      "pitch": "G5",
      "midi": 79,
      "start": 254.219,
      "duration": 0.156,
      "velocity": 0.71
    },
    {
      "id": "n-06178",
      "pitch": "G2",
      "midi": 43,
      "start": 254.375,
      "duration": 0.313,
      "velocity": 0.71
    },
    {
      "id": "n-06179",
      "pitch": "G2",
      "midi": 43,
      "start": 254.375,
      "duration": 0.313,
      "velocity": 0.71
    },
    {
      "id": "n-06180",
      "pitch": "G3",
      "midi": 55,
      "start": 254.375,
      "duration": 0.313,
      "velocity": 0.71
    },
    {
      "id": "n-06181",
      "pitch": "D#4",
      "midi": 63,
      "start": 254.375,
      "duration": 0.625,
      "velocity": 0.71
    },
    {
      "id": "n-06182",
      "pitch": "D#4",
      "midi": 63,
      "start": 254.375,
      "duration": 0.625,
      "velocity": 0.71
    },
    {
      "id": "n-06183",
      "pitch": "D#4",
      "midi": 63,
      "start": 254.375,
      "duration": 0.625,
      "velocity": 0.71
    },
    {
      "id": "n-06184",
      "pitch": "G4",
      "midi": 67,
      "start": 254.375,
      "duration": 0.313,
      "velocity": 0.71
    },
    {
      "id": "n-06185",
      "pitch": "F4",
      "midi": 65,
      "start": 255,
      "duration": 0.625,
      "velocity": 0.71
    },
    {
      "id": "n-06186",
      "pitch": "F4",
      "midi": 65,
      "start": 255,
      "duration": 0.625,
      "velocity": 0.71
    },
    {
      "id": "n-06187",
      "pitch": "F4",
      "midi": 65,
      "start": 255,
      "duration": 0.625,
      "velocity": 0.71
    },
    {
      "id": "n-06188",
      "pitch": "B4",
      "midi": 71,
      "start": 255,
      "duration": 0.156,
      "velocity": 0.71
    },
    {
      "id": "n-06189",
      "pitch": "B4",
      "midi": 71,
      "start": 255,
      "duration": 0.156,
      "velocity": 0.71
    },
    {
      "id": "n-06190",
      "pitch": "C5",
      "midi": 72,
      "start": 255.156,
      "duration": 0.156,
      "velocity": 0.71
    },
    {
      "id": "n-06191",
      "pitch": "C5",
      "midi": 72,
      "start": 255.156,
      "duration": 0.156,
      "velocity": 0.71
    },
    {
      "id": "n-06192",
      "pitch": "D5",
      "midi": 74,
      "start": 255.313,
      "duration": 0.156,
      "velocity": 0.71
    },
    {
      "id": "n-06193",
      "pitch": "D5",
      "midi": 74,
      "start": 255.313,
      "duration": 0.156,
      "velocity": 0.71
    },
    {
      "id": "n-06194",
      "pitch": "D#5",
      "midi": 75,
      "start": 255.469,
      "duration": 0.156,
      "velocity": 0.71
    },
    {
      "id": "n-06195",
      "pitch": "D#5",
      "midi": 75,
      "start": 255.469,
      "duration": 0.156,
      "velocity": 0.71
    },
    {
      "id": "n-06196",
      "pitch": "D4",
      "midi": 62,
      "start": 255.625,
      "duration": 0.781,
      "velocity": 0.71
    },
    {
      "id": "n-06197",
      "pitch": "D4",
      "midi": 62,
      "start": 255.625,
      "duration": 0.781,
      "velocity": 0.71
    },
    {
      "id": "n-06198",
      "pitch": "D4",
      "midi": 62,
      "start": 255.625,
      "duration": 0.781,
      "velocity": 0.71
    },
    {
      "id": "n-06199",
      "pitch": "F4",
      "midi": 65,
      "start": 255.625,
      "duration": 1.25,
      "velocity": 0.71
    },
    {
      "id": "n-06200",
      "pitch": "G#4",
      "midi": 68,
      "start": 255.625,
      "duration": 0.938,
      "velocity": 0.71
    },
    {
      "id": "n-06201",
      "pitch": "B4",
      "midi": 71,
      "start": 255.625,
      "duration": 1.25,
      "velocity": 0.71
    },
    {
      "id": "n-06202",
      "pitch": "F5",
      "midi": 77,
      "start": 255.625,
      "duration": 1.25,
      "velocity": 0.71
    },
    {
      "id": "n-06203",
      "pitch": "F5",
      "midi": 77,
      "start": 255.625,
      "duration": 0.156,
      "velocity": 0.71
    },
    {
      "id": "n-06204",
      "pitch": "F5",
      "midi": 77,
      "start": 255.625,
      "duration": 0.156,
      "velocity": 0.71
    },
    {
      "id": "n-06205",
      "pitch": "G#5",
      "midi": 80,
      "start": 255.625,
      "duration": 0.938,
      "velocity": 0.71
    },
    {
      "id": "n-06206",
      "pitch": "B5",
      "midi": 83,
      "start": 255.625,
      "duration": 1.25,
      "velocity": 0.71
    },
    {
      "id": "n-06207",
      "pitch": "B5",
      "midi": 83,
      "start": 255.625,
      "duration": 1.25,
      "velocity": 0.71
    },
    {
      "id": "n-06208",
      "pitch": "F6",
      "midi": 89,
      "start": 255.625,
      "duration": 1.25,
      "velocity": 0.71
    },
    {
      "id": "n-06209",
      "pitch": "G5",
      "midi": 79,
      "start": 255.781,
      "duration": 0.156,
      "velocity": 0.71
    },
    {
      "id": "n-06210",
      "pitch": "G5",
      "midi": 79,
      "start": 255.781,
      "duration": 0.156,
      "velocity": 0.71
    },
    {
      "id": "n-06211",
      "pitch": "G#5",
      "midi": 80,
      "start": 255.938,
      "duration": 0.156,
      "velocity": 0.71
    },
    {
      "id": "n-06212",
      "pitch": "G#5",
      "midi": 80,
      "start": 255.938,
      "duration": 0.156,
      "velocity": 0.71
    },
    {
      "id": "n-06213",
      "pitch": "G5",
      "midi": 79,
      "start": 256.094,
      "duration": 0.156,
      "velocity": 0.71
    },
    {
      "id": "n-06214",
      "pitch": "G5",
      "midi": 79,
      "start": 256.094,
      "duration": 0.156,
      "velocity": 0.71
    },
    {
      "id": "n-06215",
      "pitch": "G#5",
      "midi": 80,
      "start": 256.25,
      "duration": 0.156,
      "velocity": 0.71
    },
    {
      "id": "n-06216",
      "pitch": "G#5",
      "midi": 80,
      "start": 256.25,
      "duration": 0.156,
      "velocity": 0.71
    },
    {
      "id": "n-06217",
      "pitch": "G4",
      "midi": 67,
      "start": 256.406,
      "duration": 0.156,
      "velocity": 0.71
    },
    {
      "id": "n-06218",
      "pitch": "G4",
      "midi": 67,
      "start": 256.406,
      "duration": 0.156,
      "velocity": 0.71
    },
    {
      "id": "n-06219",
      "pitch": "G4",
      "midi": 67,
      "start": 256.406,
      "duration": 0.156,
      "velocity": 0.71
    },
    {
      "id": "n-06220",
      "pitch": "G5",
      "midi": 79,
      "start": 256.406,
      "duration": 0.156,
      "velocity": 0.71
    },
    {
      "id": "n-06221",
      "pitch": "G5",
      "midi": 79,
      "start": 256.406,
      "duration": 0.156,
      "velocity": 0.71
    },
    {
      "id": "n-06222",
      "pitch": "G4",
      "midi": 67,
      "start": 256.563,
      "duration": 0.313,
      "velocity": 0.71
    },
    {
      "id": "n-06223",
      "pitch": "G4",
      "midi": 67,
      "start": 256.563,
      "duration": 0.156,
      "velocity": 0.71
    },
    {
      "id": "n-06224",
      "pitch": "G4",
      "midi": 67,
      "start": 256.563,
      "duration": 0.156,
      "velocity": 0.71
    },
    {
      "id": "n-06225",
      "pitch": "G4",
      "midi": 67,
      "start": 256.563,
      "duration": 0.156,
      "velocity": 0.71
    },
    {
      "id": "n-06226",
      "pitch": "G5",
      "midi": 79,
      "start": 256.563,
      "duration": 0.313,
      "velocity": 0.71
    },
    {
      "id": "n-06227",
      "pitch": "G#5",
      "midi": 80,
      "start": 256.563,
      "duration": 0.156,
      "velocity": 0.71
    },
    {
      "id": "n-06228",
      "pitch": "G#5",
      "midi": 80,
      "start": 256.563,
      "duration": 0.156,
      "velocity": 0.71
    },
    {
      "id": "n-06229",
      "pitch": "G4",
      "midi": 67,
      "start": 256.719,
      "duration": 0.156,
      "velocity": 0.71
    },
    {
      "id": "n-06230",
      "pitch": "G4",
      "midi": 67,
      "start": 256.719,
      "duration": 0.156,
      "velocity": 0.71
    },
    {
      "id": "n-06231",
      "pitch": "G4",
      "midi": 67,
      "start": 256.719,
      "duration": 0.156,
      "velocity": 0.71
    },
    {
      "id": "n-06232",
      "pitch": "G5",
      "midi": 79,
      "start": 256.719,
      "duration": 0.156,
      "velocity": 0.71
    },
    {
      "id": "n-06233",
      "pitch": "G5",
      "midi": 79,
      "start": 256.719,
      "duration": 0.156,
      "velocity": 0.71
    },
    {
      "id": "n-06234",
      "pitch": "D#4",
      "midi": 63,
      "start": 256.875,
      "duration": 0.313,
      "velocity": 0.71
    },
    {
      "id": "n-06235",
      "pitch": "D#4",
      "midi": 63,
      "start": 256.875,
      "duration": 0.313,
      "velocity": 0.71
    },
    {
      "id": "n-06236",
      "pitch": "D#4",
      "midi": 63,
      "start": 256.875,
      "duration": 0.313,
      "velocity": 0.71
    },
    {
      "id": "n-06237",
      "pitch": "G#5",
      "midi": 80,
      "start": 256.875,
      "duration": 0.156,
      "velocity": 0.71
    },
    {
      "id": "n-06238",
      "pitch": "G#5",
      "midi": 80,
      "start": 256.875,
      "duration": 0.156,
      "velocity": 0.71
    },
    {
      "id": "n-06239",
      "pitch": "G5",
      "midi": 79,
      "start": 257.031,
      "duration": 0.156,
      "velocity": 0.71
    },
    {
      "id": "n-06240",
      "pitch": "G5",
      "midi": 79,
      "start": 257.031,
      "duration": 0.156,
      "velocity": 0.71
    },
    {
      "id": "n-06241",
      "pitch": "F4",
      "midi": 65,
      "start": 257.188,
      "duration": 0.313,
      "velocity": 0.71
    },
    {
      "id": "n-06242",
      "pitch": "F4",
      "midi": 65,
      "start": 257.188,
      "duration": 0.313,
      "velocity": 0.71
    },
    {
      "id": "n-06243",
      "pitch": "F4",
      "midi": 65,
      "start": 257.188,
      "duration": 0.313,
      "velocity": 0.71
    },
    {
      "id": "n-06244",
      "pitch": "A#5",
      "midi": 82,
      "start": 257.188,
      "duration": 0.156,
      "velocity": 0.71
    },
    {
      "id": "n-06245",
      "pitch": "A#5",
      "midi": 82,
      "start": 257.188,
      "duration": 0.156,
      "velocity": 0.71
    },
    {
      "id": "n-06246",
      "pitch": "G#5",
      "midi": 80,
      "start": 257.344,
      "duration": 0.156,
      "velocity": 0.71
    },
    {
      "id": "n-06247",
      "pitch": "G#5",
      "midi": 80,
      "start": 257.344,
      "duration": 0.156,
      "velocity": 0.71
    },
    {
      "id": "n-06248",
      "pitch": "D4",
      "midi": 62,
      "start": 257.5,
      "duration": 0.313,
      "velocity": 0.71
    },
    {
      "id": "n-06249",
      "pitch": "D4",
      "midi": 62,
      "start": 257.5,
      "duration": 0.313,
      "velocity": 0.71
    },
    {
      "id": "n-06250",
      "pitch": "D4",
      "midi": 62,
      "start": 257.5,
      "duration": 0.313,
      "velocity": 0.71
    },
    {
      "id": "n-06251",
      "pitch": "G5",
      "midi": 79,
      "start": 257.5,
      "duration": 0.156,
      "velocity": 0.71
    },
    {
      "id": "n-06252",
      "pitch": "G5",
      "midi": 79,
      "start": 257.5,
      "duration": 0.156,
      "velocity": 0.71
    },
    {
      "id": "n-06253",
      "pitch": "F5",
      "midi": 77,
      "start": 257.656,
      "duration": 0.156,
      "velocity": 0.71
    },
    {
      "id": "n-06254",
      "pitch": "F5",
      "midi": 77,
      "start": 257.656,
      "duration": 0.156,
      "velocity": 0.71
    },
    {
      "id": "n-06255",
      "pitch": "D#4",
      "midi": 63,
      "start": 257.813,
      "duration": 0.313,
      "velocity": 0.71
    },
    {
      "id": "n-06256",
      "pitch": "D#4",
      "midi": 63,
      "start": 257.813,
      "duration": 0.313,
      "velocity": 0.71
    },
    {
      "id": "n-06257",
      "pitch": "D#4",
      "midi": 63,
      "start": 257.813,
      "duration": 0.313,
      "velocity": 0.71
    },
    {
      "id": "n-06258",
      "pitch": "G#5",
      "midi": 80,
      "start": 257.813,
      "duration": 0.156,
      "velocity": 0.71
    },
    {
      "id": "n-06259",
      "pitch": "G#5",
      "midi": 80,
      "start": 257.813,
      "duration": 0.156,
      "velocity": 0.71
    },
    {
      "id": "n-06260",
      "pitch": "G5",
      "midi": 79,
      "start": 257.969,
      "duration": 0.156,
      "velocity": 0.71
    },
    {
      "id": "n-06261",
      "pitch": "G5",
      "midi": 79,
      "start": 257.969,
      "duration": 0.156,
      "velocity": 0.71
    },
    {
      "id": "n-06262",
      "pitch": "C4",
      "midi": 60,
      "start": 258.125,
      "duration": 0.313,
      "velocity": 0.71
    },
    {
      "id": "n-06263",
      "pitch": "C4",
      "midi": 60,
      "start": 258.125,
      "duration": 0.313,
      "velocity": 0.71
    },
    {
      "id": "n-06264",
      "pitch": "C4",
      "midi": 60,
      "start": 258.125,
      "duration": 0.313,
      "velocity": 0.71
    },
    {
      "id": "n-06265",
      "pitch": "D#5",
      "midi": 75,
      "start": 258.125,
      "duration": 0.313,
      "velocity": 0.71
    },
    {
      "id": "n-06266",
      "pitch": "F5",
      "midi": 77,
      "start": 258.125,
      "duration": 0.156,
      "velocity": 0.71
    },
    {
      "id": "n-06267",
      "pitch": "F5",
      "midi": 77,
      "start": 258.125,
      "duration": 0.156,
      "velocity": 0.71
    },
    {
      "id": "n-06268",
      "pitch": "D#6",
      "midi": 87,
      "start": 258.125,
      "duration": 0.313,
      "velocity": 0.71
    },
    {
      "id": "n-06269",
      "pitch": "D#5",
      "midi": 75,
      "start": 258.281,
      "duration": 0.156,
      "velocity": 0.71
    },
    {
      "id": "n-06270",
      "pitch": "D#5",
      "midi": 75,
      "start": 258.281,
      "duration": 0.156,
      "velocity": 0.71
    },
    {
      "id": "n-06271",
      "pitch": "D4",
      "midi": 62,
      "start": 258.438,
      "duration": 0.313,
      "velocity": 0.71
    },
    {
      "id": "n-06272",
      "pitch": "D4",
      "midi": 62,
      "start": 258.438,
      "duration": 0.313,
      "velocity": 0.71
    },
    {
      "id": "n-06273",
      "pitch": "D4",
      "midi": 62,
      "start": 258.438,
      "duration": 0.313,
      "velocity": 0.71
    },
    {
      "id": "n-06274",
      "pitch": "F5",
      "midi": 77,
      "start": 258.438,
      "duration": 0.313,
      "velocity": 0.71
    },
    {
      "id": "n-06275",
      "pitch": "G5",
      "midi": 79,
      "start": 258.438,
      "duration": 0.156,
      "velocity": 0.71
    },
    {
      "id": "n-06276",
      "pitch": "G5",
      "midi": 79,
      "start": 258.438,
      "duration": 0.156,
      "velocity": 0.71
    },
    {
      "id": "n-06277",
      "pitch": "F6",
      "midi": 89,
      "start": 258.438,
      "duration": 0.313,
      "velocity": 0.71
    },
    {
      "id": "n-06278",
      "pitch": "F5",
      "midi": 77,
      "start": 258.594,
      "duration": 0.156,
      "velocity": 0.71
    },
    {
      "id": "n-06279",
      "pitch": "F5",
      "midi": 77,
      "start": 258.594,
      "duration": 0.156,
      "velocity": 0.71
    },
    {
      "id": "n-06280",
      "pitch": "A#3",
      "midi": 58,
      "start": 258.75,
      "duration": 0.313,
      "velocity": 0.71
    },
    {
      "id": "n-06281",
      "pitch": "A#3",
      "midi": 58,
      "start": 258.75,
      "duration": 0.313,
      "velocity": 0.71
    },
    {
      "id": "n-06282",
      "pitch": "A#3",
      "midi": 58,
      "start": 258.75,
      "duration": 0.313,
      "velocity": 0.71
    },
    {
      "id": "n-06283",
      "pitch": "D5",
      "midi": 74,
      "start": 258.75,
      "duration": 0.313,
      "velocity": 0.71
    },
    {
      "id": "n-06284",
      "pitch": "D#5",
      "midi": 75,
      "start": 258.75,
      "duration": 0.156,
      "velocity": 0.71
    },
    {
      "id": "n-06285",
      "pitch": "D#5",
      "midi": 75,
      "start": 258.75,
      "duration": 0.156,
      "velocity": 0.71
    },
    {
      "id": "n-06286",
      "pitch": "D6",
      "midi": 86,
      "start": 258.75,
      "duration": 0.313,
      "velocity": 0.71
    },
    {
      "id": "n-06287",
      "pitch": "D5",
      "midi": 74,
      "start": 258.906,
      "duration": 0.156,
      "velocity": 0.71
    },
    {
      "id": "n-06288",
      "pitch": "D5",
      "midi": 74,
      "start": 258.906,
      "duration": 0.156,
      "velocity": 0.71
    },
    {
      "id": "n-06289",
      "pitch": "C4",
      "midi": 60,
      "start": 259.063,
      "duration": 0.313,
      "velocity": 0.71
    },
    {
      "id": "n-06290",
      "pitch": "C4",
      "midi": 60,
      "start": 259.063,
      "duration": 0.313,
      "velocity": 0.71
    },
    {
      "id": "n-06291",
      "pitch": "C4",
      "midi": 60,
      "start": 259.063,
      "duration": 0.313,
      "velocity": 0.71
    },
    {
      "id": "n-06292",
      "pitch": "D#5",
      "midi": 75,
      "start": 259.063,
      "duration": 0.313,
      "velocity": 0.71
    },
    {
      "id": "n-06293",
      "pitch": "F5",
      "midi": 77,
      "start": 259.063,
      "duration": 0.156,
      "velocity": 0.71
    },
    {
      "id": "n-06294",
      "pitch": "F5",
      "midi": 77,
      "start": 259.063,
      "duration": 0.156,
      "velocity": 0.71
    },
    {
      "id": "n-06295",
      "pitch": "D#6",
      "midi": 87,
      "start": 259.063,
      "duration": 0.313,
      "velocity": 0.71
    },
    {
      "id": "n-06296",
      "pitch": "D#5",
      "midi": 75,
      "start": 259.219,
      "duration": 0.156,
      "velocity": 0.71
    },
    {
      "id": "n-06297",
      "pitch": "D#5",
      "midi": 75,
      "start": 259.219,
      "duration": 0.156,
      "velocity": 0.71
    },
    {
      "id": "n-06298",
      "pitch": "G#3",
      "midi": 56,
      "start": 259.375,
      "duration": 0.313,
      "velocity": 0.71
    },
    {
      "id": "n-06299",
      "pitch": "G#3",
      "midi": 56,
      "start": 259.375,
      "duration": 0.313,
      "velocity": 0.71
    },
    {
      "id": "n-06300",
      "pitch": "G#3",
      "midi": 56,
      "start": 259.375,
      "duration": 0.313,
      "velocity": 0.71
    },
    {
      "id": "n-06301",
      "pitch": "G#3",
      "midi": 56,
      "start": 259.375,
      "duration": 0.313,
      "velocity": 0.71
    },
    {
      "id": "n-06302",
      "pitch": "C5",
      "midi": 72,
      "start": 259.375,
      "duration": 0.313,
      "velocity": 0.71
    },
    {
      "id": "n-06303",
      "pitch": "C5",
      "midi": 72,
      "start": 259.375,
      "duration": 0.313,
      "velocity": 0.71
    },
    {
      "id": "n-06304",
      "pitch": "D5",
      "midi": 74,
      "start": 259.375,
      "duration": 0.156,
      "velocity": 0.71
    },
    {
      "id": "n-06305",
      "pitch": "D5",
      "midi": 74,
      "start": 259.375,
      "duration": 0.156,
      "velocity": 0.71
    },
    {
      "id": "n-06306",
      "pitch": "C6",
      "midi": 84,
      "start": 259.375,
      "duration": 0.313,
      "velocity": 0.71
    },
    {
      "id": "n-06307",
      "pitch": "C6",
      "midi": 84,
      "start": 259.375,
      "duration": 0.313,
      "velocity": 0.71
    },
    {
      "id": "n-06308",
      "pitch": "C5",
      "midi": 72,
      "start": 259.531,
      "duration": 0.156,
      "velocity": 0.71
    },
    {
      "id": "n-06309",
      "pitch": "C5",
      "midi": 72,
      "start": 259.531,
      "duration": 0.156,
      "velocity": 0.71
    },
    {
      "id": "n-06310",
      "pitch": "A#3",
      "midi": 58,
      "start": 259.688,
      "duration": 0.313,
      "velocity": 0.71
    },
    {
      "id": "n-06311",
      "pitch": "A#3",
      "midi": 58,
      "start": 259.688,
      "duration": 0.313,
      "velocity": 0.71
    },
    {
      "id": "n-06312",
      "pitch": "A#3",
      "midi": 58,
      "start": 259.688,
      "duration": 0.313,
      "velocity": 0.71
    },
    {
      "id": "n-06313",
      "pitch": "A#3",
      "midi": 58,
      "start": 259.688,
      "duration": 0.313,
      "velocity": 0.71
    },
    {
      "id": "n-06314",
      "pitch": "D5",
      "midi": 74,
      "start": 259.688,
      "duration": 0.313,
      "velocity": 0.71
    },
    {
      "id": "n-06315",
      "pitch": "D5",
      "midi": 74,
      "start": 259.688,
      "duration": 0.313,
      "velocity": 0.71
    },
    {
      "id": "n-06316",
      "pitch": "D#5",
      "midi": 75,
      "start": 259.688,
      "duration": 0.156,
      "velocity": 0.71
    },
    {
      "id": "n-06317",
      "pitch": "D#5",
      "midi": 75,
      "start": 259.688,
      "duration": 0.156,
      "velocity": 0.71
    },
    {
      "id": "n-06318",
      "pitch": "D6",
      "midi": 86,
      "start": 259.688,
      "duration": 0.313,
      "velocity": 0.71
    },
    {
      "id": "n-06319",
      "pitch": "D6",
      "midi": 86,
      "start": 259.688,
      "duration": 0.313,
      "velocity": 0.71
    },
    {
      "id": "n-06320",
      "pitch": "D5",
      "midi": 74,
      "start": 259.844,
      "duration": 0.156,
      "velocity": 0.71
    },
    {
      "id": "n-06321",
      "pitch": "D5",
      "midi": 74,
      "start": 259.844,
      "duration": 0.156,
      "velocity": 0.71
    },
    {
      "id": "n-06322",
      "pitch": "G3",
      "midi": 55,
      "start": 260,
      "duration": 0.313,
      "velocity": 0.71
    },
    {
      "id": "n-06323",
      "pitch": "G3",
      "midi": 55,
      "start": 260,
      "duration": 0.313,
      "velocity": 0.71
    },
    {
      "id": "n-06324",
      "pitch": "G3",
      "midi": 55,
      "start": 260,
      "duration": 0.313,
      "velocity": 0.71
    },
    {
      "id": "n-06325",
      "pitch": "G3",
      "midi": 55,
      "start": 260,
      "duration": 0.313,
      "velocity": 0.71
    },
    {
      "id": "n-06326",
      "pitch": "A#4",
      "midi": 70,
      "start": 260,
      "duration": 0.313,
      "velocity": 0.71
    },
    {
      "id": "n-06327",
      "pitch": "A#4",
      "midi": 70,
      "start": 260,
      "duration": 0.313,
      "velocity": 0.71
    },
    {
      "id": "n-06328",
      "pitch": "C5",
      "midi": 72,
      "start": 260,
      "duration": 0.156,
      "velocity": 0.71
    },
    {
      "id": "n-06329",
      "pitch": "C5",
      "midi": 72,
      "start": 260,
      "duration": 0.156,
      "velocity": 0.71
    },
    {
      "id": "n-06330",
      "pitch": "A#5",
      "midi": 82,
      "start": 260,
      "duration": 0.313,
      "velocity": 0.71
    },
    {
      "id": "n-06331",
      "pitch": "A#5",
      "midi": 82,
      "start": 260,
      "duration": 0.313,
      "velocity": 0.71
    },
    {
      "id": "n-06332",
      "pitch": "A#4",
      "midi": 70,
      "start": 260.156,
      "duration": 0.156,
      "velocity": 0.71
    },
    {
      "id": "n-06333",
      "pitch": "A#4",
      "midi": 70,
      "start": 260.156,
      "duration": 0.156,
      "velocity": 0.71
    },
    {
      "id": "n-06334",
      "pitch": "G#3",
      "midi": 56,
      "start": 260.313,
      "duration": 0.313,
      "velocity": 0.71
    },
    {
      "id": "n-06335",
      "pitch": "G#3",
      "midi": 56,
      "start": 260.313,
      "duration": 0.313,
      "velocity": 0.71
    },
    {
      "id": "n-06336",
      "pitch": "G#3",
      "midi": 56,
      "start": 260.313,
      "duration": 0.313,
      "velocity": 0.71
    },
    {
      "id": "n-06337",
      "pitch": "G#3",
      "midi": 56,
      "start": 260.313,
      "duration": 0.313,
      "velocity": 0.71
    },
    {
      "id": "n-06338",
      "pitch": "C5",
      "midi": 72,
      "start": 260.313,
      "duration": 0.313,
      "velocity": 0.71
    },
    {
      "id": "n-06339",
      "pitch": "C5",
      "midi": 72,
      "start": 260.313,
      "duration": 0.313,
      "velocity": 0.71
    },
    {
      "id": "n-06340",
      "pitch": "D5",
      "midi": 74,
      "start": 260.313,
      "duration": 0.156,
      "velocity": 0.71
    },
    {
      "id": "n-06341",
      "pitch": "D5",
      "midi": 74,
      "start": 260.313,
      "duration": 0.156,
      "velocity": 0.71
    },
    {
      "id": "n-06342",
      "pitch": "C6",
      "midi": 84,
      "start": 260.313,
      "duration": 0.313,
      "velocity": 0.71
    },
    {
      "id": "n-06343",
      "pitch": "C6",
      "midi": 84,
      "start": 260.313,
      "duration": 0.313,
      "velocity": 0.71
    },
    {
      "id": "n-06344",
      "pitch": "C5",
      "midi": 72,
      "start": 260.469,
      "duration": 0.156,
      "velocity": 0.71
    },
    {
      "id": "n-06345",
      "pitch": "C5",
      "midi": 72,
      "start": 260.469,
      "duration": 0.156,
      "velocity": 0.71
    },
    {
      "id": "n-06346",
      "pitch": "F3",
      "midi": 53,
      "start": 260.625,
      "duration": 0.313,
      "velocity": 0.71
    },
    {
      "id": "n-06347",
      "pitch": "F3",
      "midi": 53,
      "start": 260.625,
      "duration": 0.313,
      "velocity": 0.71
    },
    {
      "id": "n-06348",
      "pitch": "F3",
      "midi": 53,
      "start": 260.625,
      "duration": 0.313,
      "velocity": 0.71
    },
    {
      "id": "n-06349",
      "pitch": "F3",
      "midi": 53,
      "start": 260.625,
      "duration": 0.313,
      "velocity": 0.71
    },
    {
      "id": "n-06350",
      "pitch": "G#4",
      "midi": 68,
      "start": 260.625,
      "duration": 0.313,
      "velocity": 0.71
    },
    {
      "id": "n-06351",
      "pitch": "G#4",
      "midi": 68,
      "start": 260.625,
      "duration": 0.313,
      "velocity": 0.71
    },
    {
      "id": "n-06352",
      "pitch": "G#4",
      "midi": 68,
      "start": 260.625,
      "duration": 0.313,
      "velocity": 0.71
    },
    {
      "id": "n-06353",
      "pitch": "A#4",
      "midi": 70,
      "start": 260.625,
      "duration": 0.156,
      "velocity": 0.71
    },
    {
      "id": "n-06354",
      "pitch": "A#4",
      "midi": 70,
      "start": 260.625,
      "duration": 0.156,
      "velocity": 0.71
    },
    {
      "id": "n-06355",
      "pitch": "G#5",
      "midi": 80,
      "start": 260.625,
      "duration": 0.313,
      "velocity": 0.71
    },
    {
      "id": "n-06356",
      "pitch": "G#5",
      "midi": 80,
      "start": 260.625,
      "duration": 0.313,
      "velocity": 0.71
    },
    {
      "id": "n-06357",
      "pitch": "G#4",
      "midi": 68,
      "start": 260.781,
      "duration": 0.156,
      "velocity": 0.71
    },
    {
      "id": "n-06358",
      "pitch": "G#4",
      "midi": 68,
      "start": 260.781,
      "duration": 0.156,
      "velocity": 0.71
    },
    {
      "id": "n-06359",
      "pitch": "G3",
      "midi": 55,
      "start": 260.938,
      "duration": 0.313,
      "velocity": 0.71
    },
    {
      "id": "n-06360",
      "pitch": "G3",
      "midi": 55,
      "start": 260.938,
      "duration": 0.313,
      "velocity": 0.71
    },
    {
      "id": "n-06361",
      "pitch": "G3",
      "midi": 55,
      "start": 260.938,
      "duration": 0.313,
      "velocity": 0.71
    },
    {
      "id": "n-06362",
      "pitch": "G3",
      "midi": 55,
      "start": 260.938,
      "duration": 0.313,
      "velocity": 0.71
    },
    {
      "id": "n-06363",
      "pitch": "A#4",
      "midi": 70,
      "start": 260.938,
      "duration": 0.313,
      "velocity": 0.71
    },
    {
      "id": "n-06364",
      "pitch": "A#4",
      "midi": 70,
      "start": 260.938,
      "duration": 0.313,
      "velocity": 0.71
    },
    {
      "id": "n-06365",
      "pitch": "A#4",
      "midi": 70,
      "start": 260.938,
      "duration": 0.313,
      "velocity": 0.71
    },
    {
      "id": "n-06366",
      "pitch": "C5",
      "midi": 72,
      "start": 260.938,
      "duration": 0.156,
      "velocity": 0.71
    },
    {
      "id": "n-06367",
      "pitch": "C5",
      "midi": 72,
      "start": 260.938,
      "duration": 0.156,
      "velocity": 0.71
    },
    {
      "id": "n-06368",
      "pitch": "A#5",
      "midi": 82,
      "start": 260.938,
      "duration": 0.313,
      "velocity": 0.71
    },
    {
      "id": "n-06369",
      "pitch": "A#5",
      "midi": 82,
      "start": 260.938,
      "duration": 0.313,
      "velocity": 0.71
    },
    {
      "id": "n-06370",
      "pitch": "A#4",
      "midi": 70,
      "start": 261.094,
      "duration": 0.156,
      "velocity": 0.71
    },
    {
      "id": "n-06371",
      "pitch": "A#4",
      "midi": 70,
      "start": 261.094,
      "duration": 0.156,
      "velocity": 0.71
    },
    {
      "id": "n-06372",
      "pitch": "D#3",
      "midi": 51,
      "start": 261.25,
      "duration": 0.313,
      "velocity": 0.71
    },
    {
      "id": "n-06373",
      "pitch": "D#3",
      "midi": 51,
      "start": 261.25,
      "duration": 0.313,
      "velocity": 0.71
    },
    {
      "id": "n-06374",
      "pitch": "D#3",
      "midi": 51,
      "start": 261.25,
      "duration": 0.313,
      "velocity": 0.71
    },
    {
      "id": "n-06375",
      "pitch": "D#3",
      "midi": 51,
      "start": 261.25,
      "duration": 0.313,
      "velocity": 0.71
    },
    {
      "id": "n-06376",
      "pitch": "G4",
      "midi": 67,
      "start": 261.25,
      "duration": 0.313,
      "velocity": 0.71
    },
    {
      "id": "n-06377",
      "pitch": "G4",
      "midi": 67,
      "start": 261.25,
      "duration": 0.313,
      "velocity": 0.71
    },
    {
      "id": "n-06378",
      "pitch": "G4",
      "midi": 67,
      "start": 261.25,
      "duration": 0.313,
      "velocity": 0.71
    },
    {
      "id": "n-06379",
      "pitch": "G#4",
      "midi": 68,
      "start": 261.25,
      "duration": 0.156,
      "velocity": 0.71
    },
    {
      "id": "n-06380",
      "pitch": "G#4",
      "midi": 68,
      "start": 261.25,
      "duration": 0.156,
      "velocity": 0.71
    },
    {
      "id": "n-06381",
      "pitch": "G5",
      "midi": 79,
      "start": 261.25,
      "duration": 0.313,
      "velocity": 0.71
    },
    {
      "id": "n-06382",
      "pitch": "G5",
      "midi": 79,
      "start": 261.25,
      "duration": 0.313,
      "velocity": 0.71
    },
    {
      "id": "n-06383",
      "pitch": "G4",
      "midi": 67,
      "start": 261.406,
      "duration": 0.156,
      "velocity": 0.71
    },
    {
      "id": "n-06384",
      "pitch": "G4",
      "midi": 67,
      "start": 261.406,
      "duration": 0.156,
      "velocity": 0.71
    },
    {
      "id": "n-06385",
      "pitch": "F3",
      "midi": 53,
      "start": 261.563,
      "duration": 0.313,
      "velocity": 0.71
    },
    {
      "id": "n-06386",
      "pitch": "F3",
      "midi": 53,
      "start": 261.563,
      "duration": 0.313,
      "velocity": 0.71
    },
    {
      "id": "n-06387",
      "pitch": "F3",
      "midi": 53,
      "start": 261.563,
      "duration": 0.313,
      "velocity": 0.71
    },
    {
      "id": "n-06388",
      "pitch": "F3",
      "midi": 53,
      "start": 261.563,
      "duration": 0.313,
      "velocity": 0.71
    },
    {
      "id": "n-06389",
      "pitch": "G#4",
      "midi": 68,
      "start": 261.563,
      "duration": 0.313,
      "velocity": 0.71
    },
    {
      "id": "n-06390",
      "pitch": "G#4",
      "midi": 68,
      "start": 261.563,
      "duration": 0.313,
      "velocity": 0.71
    },
    {
      "id": "n-06391",
      "pitch": "A#4",
      "midi": 70,
      "start": 261.563,
      "duration": 0.156,
      "velocity": 0.71
    },
    {
      "id": "n-06392",
      "pitch": "A#4",
      "midi": 70,
      "start": 261.563,
      "duration": 0.156,
      "velocity": 0.71
    },
    {
      "id": "n-06393",
      "pitch": "G#5",
      "midi": 80,
      "start": 261.563,
      "duration": 0.313,
      "velocity": 0.71
    },
    {
      "id": "n-06394",
      "pitch": "G#5",
      "midi": 80,
      "start": 261.563,
      "duration": 0.313,
      "velocity": 0.71
    },
    {
      "id": "n-06395",
      "pitch": "G#4",
      "midi": 68,
      "start": 261.719,
      "duration": 0.156,
      "velocity": 0.71
    },
    {
      "id": "n-06396",
      "pitch": "G#4",
      "midi": 68,
      "start": 261.719,
      "duration": 0.156,
      "velocity": 0.71
    },
    {
      "id": "n-06397",
      "pitch": "D3",
      "midi": 50,
      "start": 261.875,
      "duration": 0.313,
      "velocity": 0.71
    },
    {
      "id": "n-06398",
      "pitch": "D3",
      "midi": 50,
      "start": 261.875,
      "duration": 0.313,
      "velocity": 0.71
    },
    {
      "id": "n-06399",
      "pitch": "D3",
      "midi": 50,
      "start": 261.875,
      "duration": 0.313,
      "velocity": 0.71
    },
    {
      "id": "n-06400",
      "pitch": "D3",
      "midi": 50,
      "start": 261.875,
      "duration": 0.313,
      "velocity": 0.71
    },
    {
      "id": "n-06401",
      "pitch": "F4",
      "midi": 65,
      "start": 261.875,
      "duration": 0.313,
      "velocity": 0.71
    },
    {
      "id": "n-06402",
      "pitch": "F4",
      "midi": 65,
      "start": 261.875,
      "duration": 0.313,
      "velocity": 0.71
    },
    {
      "id": "n-06403",
      "pitch": "F4",
      "midi": 65,
      "start": 261.875,
      "duration": 0.156,
      "velocity": 0.71
    },
    {
      "id": "n-06404",
      "pitch": "F4",
      "midi": 65,
      "start": 261.875,
      "duration": 0.156,
      "velocity": 0.71
    },
    {
      "id": "n-06405",
      "pitch": "F5",
      "midi": 77,
      "start": 261.875,
      "duration": 0.313,
      "velocity": 0.71
    },
    {
      "id": "n-06406",
      "pitch": "F5",
      "midi": 77,
      "start": 261.875,
      "duration": 0.313,
      "velocity": 0.71
    },
    {
      "id": "n-06407",
      "pitch": "G4",
      "midi": 67,
      "start": 262.031,
      "duration": 0.156,
      "velocity": 0.71
    },
    {
      "id": "n-06408",
      "pitch": "G4",
      "midi": 67,
      "start": 262.031,
      "duration": 0.156,
      "velocity": 0.71
    },
    {
      "id": "n-06409",
      "pitch": "G2",
      "midi": 43,
      "start": 262.188,
      "duration": 0.313,
      "velocity": 0.71
    },
    {
      "id": "n-06410",
      "pitch": "C3",
      "midi": 48,
      "start": 262.188,
      "duration": 0.313,
      "velocity": 0.71
    },
    {
      "id": "n-06411",
      "pitch": "C3",
      "midi": 48,
      "start": 262.188,
      "duration": 0.313,
      "velocity": 0.71
    },
    {
      "id": "n-06412",
      "pitch": "C3",
      "midi": 48,
      "start": 262.188,
      "duration": 0.313,
      "velocity": 0.71
    },
    {
      "id": "n-06413",
      "pitch": "G3",
      "midi": 55,
      "start": 262.188,
      "duration": 0.313,
      "velocity": 0.71
    },
    {
      "id": "n-06414",
      "pitch": "C4",
      "midi": 60,
      "start": 262.188,
      "duration": 0.313,
      "velocity": 0.71
    },
    {
      "id": "n-06415",
      "pitch": "D#4",
      "midi": 63,
      "start": 262.188,
      "duration": 0.313,
      "velocity": 0.71
    },
    {
      "id": "n-06416",
      "pitch": "D#4",
      "midi": 63,
      "start": 262.188,
      "duration": 0.156,
      "velocity": 0.71
    },
    {
      "id": "n-06417",
      "pitch": "D#4",
      "midi": 63,
      "start": 262.188,
      "duration": 0.156,
      "velocity": 0.71
    },
    {
      "id": "n-06418",
      "pitch": "G4",
      "midi": 67,
      "start": 262.188,
      "duration": 0.313,
      "velocity": 0.71
    },
    {
      "id": "n-06419",
      "pitch": "G4",
      "midi": 67,
      "start": 262.188,
      "duration": 0.313,
      "velocity": 0.71
    },
    {
      "id": "n-06420",
      "pitch": "D#5",
      "midi": 75,
      "start": 262.188,
      "duration": 0.313,
      "velocity": 0.71
    },
    {
      "id": "n-06421",
      "pitch": "G5",
      "midi": 79,
      "start": 262.188,
      "duration": 0.313,
      "velocity": 0.71
    },
    {
      "id": "n-06422",
      "pitch": "G4",
      "midi": 67,
      "start": 262.344,
      "duration": 0.156,
      "velocity": 0.71
    },
    {
      "id": "n-06423",
      "pitch": "G4",
      "midi": 67,
      "start": 262.344,
      "duration": 0.156,
      "velocity": 0.71
    },
    {
      "id": "n-06424",
      "pitch": "G2",
      "midi": 43,
      "start": 262.5,
      "duration": 0.313,
      "velocity": 0.71
    },
    {
      "id": "n-06425",
      "pitch": "B2",
      "midi": 47,
      "start": 262.5,
      "duration": 0.313,
      "velocity": 0.71
    },
    {
      "id": "n-06426",
      "pitch": "B2",
      "midi": 47,
      "start": 262.5,
      "duration": 0.313,
      "velocity": 0.71
    },
    {
      "id": "n-06427",
      "pitch": "B2",
      "midi": 47,
      "start": 262.5,
      "duration": 0.313,
      "velocity": 0.71
    },
    {
      "id": "n-06428",
      "pitch": "G3",
      "midi": 55,
      "start": 262.5,
      "duration": 0.313,
      "velocity": 0.71
    },
    {
      "id": "n-06429",
      "pitch": "B3",
      "midi": 59,
      "start": 262.5,
      "duration": 0.313,
      "velocity": 0.71
    },
    {
      "id": "n-06430",
      "pitch": "D4",
      "midi": 62,
      "start": 262.5,
      "duration": 0.313,
      "velocity": 0.71
    },
    {
      "id": "n-06431",
      "pitch": "D4",
      "midi": 62,
      "start": 262.5,
      "duration": 0.156,
      "velocity": 0.71
    },
    {
      "id": "n-06432",
      "pitch": "D4",
      "midi": 62,
      "start": 262.5,
      "duration": 0.156,
      "velocity": 0.71
    },
    {
      "id": "n-06433",
      "pitch": "G4",
      "midi": 67,
      "start": 262.5,
      "duration": 0.313,
      "velocity": 0.71
    },
    {
      "id": "n-06434",
      "pitch": "G4",
      "midi": 67,
      "start": 262.5,
      "duration": 0.313,
      "velocity": 0.71
    },
    {
      "id": "n-06435",
      "pitch": "D5",
      "midi": 74,
      "start": 262.5,
      "duration": 0.313,
      "velocity": 0.71
    },
    {
      "id": "n-06436",
      "pitch": "G5",
      "midi": 79,
      "start": 262.5,
      "duration": 0.313,
      "velocity": 0.71
    },
    {
      "id": "n-06437",
      "pitch": "G4",
      "midi": 67,
      "start": 262.656,
      "duration": 0.156,
      "velocity": 0.71
    },
    {
      "id": "n-06438",
      "pitch": "G4",
      "midi": 67,
      "start": 262.656,
      "duration": 0.156,
      "velocity": 0.71
    },
    {
      "id": "n-06439",
      "pitch": "G2",
      "midi": 43,
      "start": 262.813,
      "duration": 0.313,
      "velocity": 0.71
    },
    {
      "id": "n-06440",
      "pitch": "C3",
      "midi": 48,
      "start": 262.813,
      "duration": 0.313,
      "velocity": 0.71
    },
    {
      "id": "n-06441",
      "pitch": "C3",
      "midi": 48,
      "start": 262.813,
      "duration": 0.313,
      "velocity": 0.71
    },
    {
      "id": "n-06442",
      "pitch": "C3",
      "midi": 48,
      "start": 262.813,
      "duration": 0.313,
      "velocity": 0.71
    },
    {
      "id": "n-06443",
      "pitch": "G3",
      "midi": 55,
      "start": 262.813,
      "duration": 0.313,
      "velocity": 0.71
    },
    {
      "id": "n-06444",
      "pitch": "C4",
      "midi": 60,
      "start": 262.813,
      "duration": 0.313,
      "velocity": 0.71
    },
    {
      "id": "n-06445",
      "pitch": "D#4",
      "midi": 63,
      "start": 262.813,
      "duration": 0.313,
      "velocity": 0.71
    },
    {
      "id": "n-06446",
      "pitch": "D#4",
      "midi": 63,
      "start": 262.813,
      "duration": 0.313,
      "velocity": 0.71
    },
    {
      "id": "n-06447",
      "pitch": "D#4",
      "midi": 63,
      "start": 262.813,
      "duration": 0.156,
      "velocity": 0.71
    },
    {
      "id": "n-06448",
      "pitch": "D#4",
      "midi": 63,
      "start": 262.813,
      "duration": 0.156,
      "velocity": 0.71
    },
    {
      "id": "n-06449",
      "pitch": "G4",
      "midi": 67,
      "start": 262.813,
      "duration": 0.313,
      "velocity": 0.71
    },
    {
      "id": "n-06450",
      "pitch": "G4",
      "midi": 67,
      "start": 262.813,
      "duration": 0.313,
      "velocity": 0.71
    },
    {
      "id": "n-06451",
      "pitch": "D#5",
      "midi": 75,
      "start": 262.813,
      "duration": 0.313,
      "velocity": 0.71
    },
    {
      "id": "n-06452",
      "pitch": "G5",
      "midi": 79,
      "start": 262.813,
      "duration": 0.313,
      "velocity": 0.71
    },
    {
      "id": "n-06453",
      "pitch": "G4",
      "midi": 67,
      "start": 262.969,
      "duration": 0.156,
      "velocity": 0.71
    },
    {
      "id": "n-06454",
      "pitch": "G4",
      "midi": 67,
      "start": 262.969,
      "duration": 0.156,
      "velocity": 0.71
    },
    {
      "id": "n-06455",
      "pitch": "G2",
      "midi": 43,
      "start": 263.125,
      "duration": 0.313,
      "velocity": 0.71
    },
    {
      "id": "n-06456",
      "pitch": "D3",
      "midi": 50,
      "start": 263.125,
      "duration": 0.313,
      "velocity": 0.71
    },
    {
      "id": "n-06457",
      "pitch": "D3",
      "midi": 50,
      "start": 263.125,
      "duration": 0.313,
      "velocity": 0.71
    },
    {
      "id": "n-06458",
      "pitch": "D3",
      "midi": 50,
      "start": 263.125,
      "duration": 0.313,
      "velocity": 0.71
    },
    {
      "id": "n-06459",
      "pitch": "G3",
      "midi": 55,
      "start": 263.125,
      "duration": 0.313,
      "velocity": 0.71
    },
    {
      "id": "n-06460",
      "pitch": "D4",
      "midi": 62,
      "start": 263.125,
      "duration": 0.313,
      "velocity": 0.71
    },
    {
      "id": "n-06461",
      "pitch": "F4",
      "midi": 65,
      "start": 263.125,
      "duration": 0.313,
      "velocity": 0.71
    },
    {
      "id": "n-06462",
      "pitch": "F4",
      "midi": 65,
      "start": 263.125,
      "duration": 0.313,
      "velocity": 0.71
    },
    {
      "id": "n-06463",
      "pitch": "F4",
      "midi": 65,
      "start": 263.125,
      "duration": 0.156,
      "velocity": 0.71
    },
    {
      "id": "n-06464",
      "pitch": "F4",
      "midi": 65,
      "start": 263.125,
      "duration": 0.156,
      "velocity": 0.71
    },
    {
      "id": "n-06465",
      "pitch": "G4",
      "midi": 67,
      "start": 263.125,
      "duration": 0.313,
      "velocity": 0.71
    },
    {
      "id": "n-06466",
      "pitch": "G4",
      "midi": 67,
      "start": 263.125,
      "duration": 0.313,
      "velocity": 0.71
    },
    {
      "id": "n-06467",
      "pitch": "F5",
      "midi": 77,
      "start": 263.125,
      "duration": 0.313,
      "velocity": 0.71
    },
    {
      "id": "n-06468",
      "pitch": "G5",
      "midi": 79,
      "start": 263.125,
      "duration": 0.313,
      "velocity": 0.71
    },
    {
      "id": "n-06469",
      "pitch": "G4",
      "midi": 67,
      "start": 263.281,
      "duration": 0.156,
      "velocity": 0.71
    },
    {
      "id": "n-06470",
      "pitch": "G4",
      "midi": 67,
      "start": 263.281,
      "duration": 0.156,
      "velocity": 0.71
    },
    {
      "id": "n-06471",
      "pitch": "G2",
      "midi": 43,
      "start": 263.438,
      "duration": 0.313,
      "velocity": 0.71
    },
    {
      "id": "n-06472",
      "pitch": "C3",
      "midi": 48,
      "start": 263.438,
      "duration": 0.313,
      "velocity": 0.71
    },
    {
      "id": "n-06473",
      "pitch": "C3",
      "midi": 48,
      "start": 263.438,
      "duration": 0.313,
      "velocity": 0.71
    },
    {
      "id": "n-06474",
      "pitch": "C3",
      "midi": 48,
      "start": 263.438,
      "duration": 0.313,
      "velocity": 0.71
    },
    {
      "id": "n-06475",
      "pitch": "G3",
      "midi": 55,
      "start": 263.438,
      "duration": 0.313,
      "velocity": 0.71
    },
    {
      "id": "n-06476",
      "pitch": "C4",
      "midi": 60,
      "start": 263.438,
      "duration": 0.313,
      "velocity": 0.71
    },
    {
      "id": "n-06477",
      "pitch": "D#4",
      "midi": 63,
      "start": 263.438,
      "duration": 0.313,
      "velocity": 0.71
    },
    {
      "id": "n-06478",
      "pitch": "D#4",
      "midi": 63,
      "start": 263.438,
      "duration": 0.156,
      "velocity": 0.71
    },
    {
      "id": "n-06479",
      "pitch": "D#4",
      "midi": 63,
      "start": 263.438,
      "duration": 0.156,
      "velocity": 0.71
    },
    {
      "id": "n-06480",
      "pitch": "G4",
      "midi": 67,
      "start": 263.438,
      "duration": 0.313,
      "velocity": 0.71
    },
    {
      "id": "n-06481",
      "pitch": "G4",
      "midi": 67,
      "start": 263.438,
      "duration": 0.313,
      "velocity": 0.71
    },
    {
      "id": "n-06482",
      "pitch": "D#5",
      "midi": 75,
      "start": 263.438,
      "duration": 0.313,
      "velocity": 0.71
    },
    {
      "id": "n-06483",
      "pitch": "G5",
      "midi": 79,
      "start": 263.438,
      "duration": 0.313,
      "velocity": 0.71
    },
    {
      "id": "n-06484",
      "pitch": "G4",
      "midi": 67,
      "start": 263.594,
      "duration": 0.156,
      "velocity": 0.71
    },
    {
      "id": "n-06485",
      "pitch": "G4",
      "midi": 67,
      "start": 263.594,
      "duration": 0.156,
      "velocity": 0.71
    },
    {
      "id": "n-06486",
      "pitch": "G2",
      "midi": 43,
      "start": 263.75,
      "duration": 0.313,
      "velocity": 0.71
    },
    {
      "id": "n-06487",
      "pitch": "D3",
      "midi": 50,
      "start": 263.75,
      "duration": 0.313,
      "velocity": 0.71
    },
    {
      "id": "n-06488",
      "pitch": "D3",
      "midi": 50,
      "start": 263.75,
      "duration": 0.313,
      "velocity": 0.71
    },
    {
      "id": "n-06489",
      "pitch": "D3",
      "midi": 50,
      "start": 263.75,
      "duration": 0.313,
      "velocity": 0.71
    },
    {
      "id": "n-06490",
      "pitch": "G3",
      "midi": 55,
      "start": 263.75,
      "duration": 0.313,
      "velocity": 0.71
    },
    {
      "id": "n-06491",
      "pitch": "D4",
      "midi": 62,
      "start": 263.75,
      "duration": 0.313,
      "velocity": 0.71
    },
    {
      "id": "n-06492",
      "pitch": "F4",
      "midi": 65,
      "start": 263.75,
      "duration": 0.313,
      "velocity": 0.71
    },
    {
      "id": "n-06493",
      "pitch": "F4",
      "midi": 65,
      "start": 263.75,
      "duration": 0.156,
      "velocity": 0.71
    },
    {
      "id": "n-06494",
      "pitch": "F4",
      "midi": 65,
      "start": 263.75,
      "duration": 0.156,
      "velocity": 0.71
    },
    {
      "id": "n-06495",
      "pitch": "G4",
      "midi": 67,
      "start": 263.75,
      "duration": 0.313,
      "velocity": 0.71
    },
    {
      "id": "n-06496",
      "pitch": "G4",
      "midi": 67,
      "start": 263.75,
      "duration": 0.313,
      "velocity": 0.71
    },
    {
      "id": "n-06497",
      "pitch": "F5",
      "midi": 77,
      "start": 263.75,
      "duration": 0.313,
      "velocity": 0.71
    },
    {
      "id": "n-06498",
      "pitch": "G5",
      "midi": 79,
      "start": 263.75,
      "duration": 0.313,
      "velocity": 0.71
    },
    {
      "id": "n-06499",
      "pitch": "G4",
      "midi": 67,
      "start": 263.906,
      "duration": 0.156,
      "velocity": 0.71
    },
    {
      "id": "n-06500",
      "pitch": "G4",
      "midi": 67,
      "start": 263.906,
      "duration": 0.156,
      "velocity": 0.71
    },
    {
      "id": "n-06501",
      "pitch": "C3",
      "midi": 48,
      "start": 264.063,
      "duration": 0.313,
      "velocity": 0.71
    },
    {
      "id": "n-06502",
      "pitch": "E3",
      "midi": 52,
      "start": 264.063,
      "duration": 0.313,
      "velocity": 0.71
    },
    {
      "id": "n-06503",
      "pitch": "E3",
      "midi": 52,
      "start": 264.063,
      "duration": 0.313,
      "velocity": 0.71
    },
    {
      "id": "n-06504",
      "pitch": "E3",
      "midi": 52,
      "start": 264.063,
      "duration": 0.313,
      "velocity": 0.71
    },
    {
      "id": "n-06505",
      "pitch": "C4",
      "midi": 60,
      "start": 264.063,
      "duration": 0.313,
      "velocity": 0.71
    },
    {
      "id": "n-06506",
      "pitch": "E4",
      "midi": 64,
      "start": 264.063,
      "duration": 0.313,
      "velocity": 0.71
    },
    {
      "id": "n-06507",
      "pitch": "G4",
      "midi": 67,
      "start": 264.063,
      "duration": 0.313,
      "velocity": 0.71
    },
    {
      "id": "n-06508",
      "pitch": "G4",
      "midi": 67,
      "start": 264.063,
      "duration": 0.313,
      "velocity": 0.71
    },
    {
      "id": "n-06509",
      "pitch": "G4",
      "midi": 67,
      "start": 264.063,
      "duration": 0.156,
      "velocity": 0.71
    },
    {
      "id": "n-06510",
      "pitch": "G4",
      "midi": 67,
      "start": 264.063,
      "duration": 0.156,
      "velocity": 0.71
    },
    {
      "id": "n-06511",
      "pitch": "C5",
      "midi": 72,
      "start": 264.063,
      "duration": 0.313,
      "velocity": 0.71
    },
    {
      "id": "n-06512",
      "pitch": "C5",
      "midi": 72,
      "start": 264.063,
      "duration": 0.313,
      "velocity": 0.71
    },
    {
      "id": "n-06513",
      "pitch": "G5",
      "midi": 79,
      "start": 264.063,
      "duration": 0.313,
      "velocity": 0.71
    },
    {
      "id": "n-06514",
      "pitch": "C6",
      "midi": 84,
      "start": 264.063,
      "duration": 0.313,
      "velocity": 0.71
    },
    {
      "id": "n-06515",
      "pitch": "C5",
      "midi": 72,
      "start": 264.219,
      "duration": 0.156,
      "velocity": 0.71
    },
    {
      "id": "n-06516",
      "pitch": "C5",
      "midi": 72,
      "start": 264.219,
      "duration": 0.156,
      "velocity": 0.71
    },
    {
      "id": "n-06517",
      "pitch": "C3",
      "midi": 48,
      "start": 264.375,
      "duration": 0.313,
      "velocity": 0.71
    },
    {
      "id": "n-06518",
      "pitch": "F3",
      "midi": 53,
      "start": 264.375,
      "duration": 0.313,
      "velocity": 0.71
    },
    {
      "id": "n-06519",
      "pitch": "F3",
      "midi": 53,
      "start": 264.375,
      "duration": 0.313,
      "velocity": 0.71
    },
    {
      "id": "n-06520",
      "pitch": "F3",
      "midi": 53,
      "start": 264.375,
      "duration": 0.313,
      "velocity": 0.71
    },
    {
      "id": "n-06521",
      "pitch": "C4",
      "midi": 60,
      "start": 264.375,
      "duration": 0.313,
      "velocity": 0.71
    },
    {
      "id": "n-06522",
      "pitch": "F4",
      "midi": 65,
      "start": 264.375,
      "duration": 0.313,
      "velocity": 0.71
    },
    {
      "id": "n-06523",
      "pitch": "G#4",
      "midi": 68,
      "start": 264.375,
      "duration": 0.313,
      "velocity": 0.71
    },
    {
      "id": "n-06524",
      "pitch": "G#4",
      "midi": 68,
      "start": 264.375,
      "duration": 0.313,
      "velocity": 0.71
    },
    {
      "id": "n-06525",
      "pitch": "G#4",
      "midi": 68,
      "start": 264.375,
      "duration": 0.156,
      "velocity": 0.71
    },
    {
      "id": "n-06526",
      "pitch": "G#4",
      "midi": 68,
      "start": 264.375,
      "duration": 0.156,
      "velocity": 0.71
    },
    {
      "id": "n-06527",
      "pitch": "C5",
      "midi": 72,
      "start": 264.375,
      "duration": 0.313,
      "velocity": 0.71
    },
    {
      "id": "n-06528",
      "pitch": "C5",
      "midi": 72,
      "start": 264.375,
      "duration": 0.313,
      "velocity": 0.71
    },
    {
      "id": "n-06529",
      "pitch": "G#5",
      "midi": 80,
      "start": 264.375,
      "duration": 0.313,
      "velocity": 0.71
    },
    {
      "id": "n-06530",
      "pitch": "C6",
      "midi": 84,
      "start": 264.375,
      "duration": 0.313,
      "velocity": 0.71
    },
    {
      "id": "n-06531",
      "pitch": "C5",
      "midi": 72,
      "start": 264.531,
      "duration": 0.156,
      "velocity": 0.71
    },
    {
      "id": "n-06532",
      "pitch": "C5",
      "midi": 72,
      "start": 264.531,
      "duration": 0.156,
      "velocity": 0.71
    },
    {
      "id": "n-06533",
      "pitch": "C3",
      "midi": 48,
      "start": 264.688,
      "duration": 0.313,
      "velocity": 0.71
    },
    {
      "id": "n-06534",
      "pitch": "E3",
      "midi": 52,
      "start": 264.688,
      "duration": 0.313,
      "velocity": 0.71
    },
    {
      "id": "n-06535",
      "pitch": "E3",
      "midi": 52,
      "start": 264.688,
      "duration": 0.313,
      "velocity": 0.71
    },
    {
      "id": "n-06536",
      "pitch": "E3",
      "midi": 52,
      "start": 264.688,
      "duration": 0.313,
      "velocity": 0.71
    },
    {
      "id": "n-06537",
      "pitch": "C4",
      "midi": 60,
      "start": 264.688,
      "duration": 0.313,
      "velocity": 0.71
    },
    {
      "id": "n-06538",
      "pitch": "E4",
      "midi": 64,
      "start": 264.688,
      "duration": 0.313,
      "velocity": 0.71
    },
    {
      "id": "n-06539",
      "pitch": "G4",
      "midi": 67,
      "start": 264.688,
      "duration": 0.313,
      "velocity": 0.71
    },
    {
      "id": "n-06540",
      "pitch": "G4",
      "midi": 67,
      "start": 264.688,
      "duration": 0.313,
      "velocity": 0.71
    },
    {
      "id": "n-06541",
      "pitch": "G4",
      "midi": 67,
      "start": 264.688,
      "duration": 0.156,
      "velocity": 0.71
    },
    {
      "id": "n-06542",
      "pitch": "G4",
      "midi": 67,
      "start": 264.688,
      "duration": 0.156,
      "velocity": 0.71
    },
    {
      "id": "n-06543",
      "pitch": "C5",
      "midi": 72,
      "start": 264.688,
      "duration": 0.313,
      "velocity": 0.71
    },
    {
      "id": "n-06544",
      "pitch": "C5",
      "midi": 72,
      "start": 264.688,
      "duration": 0.313,
      "velocity": 0.71
    },
    {
      "id": "n-06545",
      "pitch": "G5",
      "midi": 79,
      "start": 264.688,
      "duration": 0.313,
      "velocity": 0.71
    },
    {
      "id": "n-06546",
      "pitch": "C6",
      "midi": 84,
      "start": 264.688,
      "duration": 0.313,
      "velocity": 0.71
    },
    {
      "id": "n-06547",
      "pitch": "C5",
      "midi": 72,
      "start": 264.844,
      "duration": 0.156,
      "velocity": 0.71
    },
    {
      "id": "n-06548",
      "pitch": "C5",
      "midi": 72,
      "start": 264.844,
      "duration": 0.156,
      "velocity": 0.71
    },
    {
      "id": "n-06549",
      "pitch": "C3",
      "midi": 48,
      "start": 265,
      "duration": 0.313,
      "velocity": 0.71
    },
    {
      "id": "n-06550",
      "pitch": "F3",
      "midi": 53,
      "start": 265,
      "duration": 0.313,
      "velocity": 0.71
    },
    {
      "id": "n-06551",
      "pitch": "F3",
      "midi": 53,
      "start": 265,
      "duration": 0.313,
      "velocity": 0.71
    },
    {
      "id": "n-06552",
      "pitch": "F3",
      "midi": 53,
      "start": 265,
      "duration": 0.313,
      "velocity": 0.71
    },
    {
      "id": "n-06553",
      "pitch": "C4",
      "midi": 60,
      "start": 265,
      "duration": 0.313,
      "velocity": 0.71
    },
    {
      "id": "n-06554",
      "pitch": "F4",
      "midi": 65,
      "start": 265,
      "duration": 0.313,
      "velocity": 0.71
    },
    {
      "id": "n-06555",
      "pitch": "G#4",
      "midi": 68,
      "start": 265,
      "duration": 0.313,
      "velocity": 0.71
    },
    {
      "id": "n-06556",
      "pitch": "G#4",
      "midi": 68,
      "start": 265,
      "duration": 0.313,
      "velocity": 0.71
    },
    {
      "id": "n-06557",
      "pitch": "G#4",
      "midi": 68,
      "start": 265,
      "duration": 0.156,
      "velocity": 0.71
    },
    {
      "id": "n-06558",
      "pitch": "G#4",
      "midi": 68,
      "start": 265,
      "duration": 0.156,
      "velocity": 0.71
    },
    {
      "id": "n-06559",
      "pitch": "C5",
      "midi": 72,
      "start": 265,
      "duration": 0.313,
      "velocity": 0.71
    },
    {
      "id": "n-06560",
      "pitch": "C5",
      "midi": 72,
      "start": 265,
      "duration": 0.313,
      "velocity": 0.71
    },
    {
      "id": "n-06561",
      "pitch": "G#5",
      "midi": 80,
      "start": 265,
      "duration": 0.313,
      "velocity": 0.71
    },
    {
      "id": "n-06562",
      "pitch": "C6",
      "midi": 84,
      "start": 265,
      "duration": 0.313,
      "velocity": 0.71
    },
    {
      "id": "n-06563",
      "pitch": "C5",
      "midi": 72,
      "start": 265.156,
      "duration": 0.156,
      "velocity": 0.71
    },
    {
      "id": "n-06564",
      "pitch": "C5",
      "midi": 72,
      "start": 265.156,
      "duration": 0.156,
      "velocity": 0.71
    },
    {
      "id": "n-06565",
      "pitch": "G2",
      "midi": 43,
      "start": 265.313,
      "duration": 0.313,
      "velocity": 0.71
    },
    {
      "id": "n-06566",
      "pitch": "G3",
      "midi": 55,
      "start": 265.313,
      "duration": 0.313,
      "velocity": 0.71
    },
    {
      "id": "n-06567",
      "pitch": "G3",
      "midi": 55,
      "start": 265.313,
      "duration": 0.313,
      "velocity": 0.71
    },
    {
      "id": "n-06568",
      "pitch": "G3",
      "midi": 55,
      "start": 265.313,
      "duration": 0.313,
      "velocity": 0.71
    },
    {
      "id": "n-06569",
      "pitch": "G3",
      "midi": 55,
      "start": 265.313,
      "duration": 0.313,
      "velocity": 0.71
    },
    {
      "id": "n-06570",
      "pitch": "B3",
      "midi": 59,
      "start": 265.313,
      "duration": 0.313,
      "velocity": 0.71
    },
    {
      "id": "n-06571",
      "pitch": "G4",
      "midi": 67,
      "start": 265.313,
      "duration": 0.313,
      "velocity": 0.71
    },
    {
      "id": "n-06572",
      "pitch": "G4",
      "midi": 67,
      "start": 265.313,
      "duration": 0.313,
      "velocity": 0.71
    },
    {
      "id": "n-06573",
      "pitch": "G4",
      "midi": 67,
      "start": 265.313,
      "duration": 0.313,
      "velocity": 0.71
    },
    {
      "id": "n-06574",
      "pitch": "B4",
      "midi": 71,
      "start": 265.313,
      "duration": 0.313,
      "velocity": 0.71
    },
    {
      "id": "n-06575",
      "pitch": "B4",
      "midi": 71,
      "start": 265.313,
      "duration": 0.313,
      "velocity": 0.71
    },
    {
      "id": "n-06576",
      "pitch": "B4",
      "midi": 71,
      "start": 265.313,
      "duration": 0.156,
      "velocity": 0.71
    },
    {
      "id": "n-06577",
      "pitch": "B4",
      "midi": 71,
      "start": 265.313,
      "duration": 0.156,
      "velocity": 0.71
    },
    {
      "id": "n-06578",
      "pitch": "F5",
      "midi": 77,
      "start": 265.313,
      "duration": 0.313,
      "velocity": 0.71
    },
    {
      "id": "n-06579",
      "pitch": "B5",
      "midi": 83,
      "start": 265.313,
      "duration": 0.313,
      "velocity": 0.71
    },
    {
      "id": "n-06580",
      "pitch": "F6",
      "midi": 89,
      "start": 265.313,
      "duration": 0.313,
      "velocity": 0.71
    },
    {
      "id": "n-06581",
      "pitch": "F5",
      "midi": 77,
      "start": 265.469,
      "duration": 0.156,
      "velocity": 0.71
    },
    {
      "id": "n-06582",
      "pitch": "F5",
      "midi": 77,
      "start": 265.469,
      "duration": 0.156,
      "velocity": 0.71
    },
    {
      "id": "n-06583",
      "pitch": "G2",
      "midi": 43,
      "start": 265.625,
      "duration": 0.313,
      "velocity": 0.71
    },
    {
      "id": "n-06584",
      "pitch": "G#2",
      "midi": 44,
      "start": 265.625,
      "duration": 0.313,
      "velocity": 0.71
    },
    {
      "id": "n-06585",
      "pitch": "G3",
      "midi": 55,
      "start": 265.625,
      "duration": 0.313,
      "velocity": 0.71
    },
    {
      "id": "n-06586",
      "pitch": "G#3",
      "midi": 56,
      "start": 265.625,
      "duration": 0.313,
      "velocity": 0.71
    },
    {
      "id": "n-06587",
      "pitch": "G#3",
      "midi": 56,
      "start": 265.625,
      "duration": 0.313,
      "velocity": 0.71
    },
    {
      "id": "n-06588",
      "pitch": "G#3",
      "midi": 56,
      "start": 265.625,
      "duration": 0.313,
      "velocity": 0.71
    },
    {
      "id": "n-06589",
      "pitch": "C4",
      "midi": 60,
      "start": 265.625,
      "duration": 0.313,
      "velocity": 0.71
    },
    {
      "id": "n-06590",
      "pitch": "G4",
      "midi": 67,
      "start": 265.625,
      "duration": 0.313,
      "velocity": 0.71
    },
    {
      "id": "n-06591",
      "pitch": "G#4",
      "midi": 68,
      "start": 265.625,
      "duration": 0.313,
      "velocity": 0.71
    },
    {
      "id": "n-06592",
      "pitch": "C5",
      "midi": 72,
      "start": 265.625,
      "duration": 0.313,
      "velocity": 0.71
    },
    {
      "id": "n-06593",
      "pitch": "C5",
      "midi": 72,
      "start": 265.625,
      "duration": 0.313,
      "velocity": 0.71
    },
    {
      "id": "n-06594",
      "pitch": "C5",
      "midi": 72,
      "start": 265.625,
      "duration": 0.156,
      "velocity": 0.71
    },
    {
      "id": "n-06595",
      "pitch": "C5",
      "midi": 72,
      "start": 265.625,
      "duration": 0.156,
      "velocity": 0.71
    },
    {
      "id": "n-06596",
      "pitch": "F5",
      "midi": 77,
      "start": 265.625,
      "duration": 0.313,
      "velocity": 0.71
    },
    {
      "id": "n-06597",
      "pitch": "C6",
      "midi": 84,
      "start": 265.625,
      "duration": 0.313,
      "velocity": 0.71
    },
    {
      "id": "n-06598",
      "pitch": "F6",
      "midi": 89,
      "start": 265.625,
      "duration": 0.313,
      "velocity": 0.71
    },
    {
      "id": "n-06599",
      "pitch": "F5",
      "midi": 77,
      "start": 265.781,
      "duration": 0.156,
      "velocity": 0.71
    },
    {
      "id": "n-06600",
      "pitch": "F5",
      "midi": 77,
      "start": 265.781,
      "duration": 0.156,
      "velocity": 0.71
    },
    {
      "id": "n-06601",
      "pitch": "G2",
      "midi": 43,
      "start": 265.938,
      "duration": 0.313,
      "velocity": 0.71
    },
    {
      "id": "n-06602",
      "pitch": "G2",
      "midi": 43,
      "start": 265.938,
      "duration": 0.313,
      "velocity": 0.71
    },
    {
      "id": "n-06603",
      "pitch": "G3",
      "midi": 55,
      "start": 265.938,
      "duration": 0.313,
      "velocity": 0.71
    },
    {
      "id": "n-06604",
      "pitch": "G3",
      "midi": 55,
      "start": 265.938,
      "duration": 0.313,
      "velocity": 0.71
    },
    {
      "id": "n-06605",
      "pitch": "G3",
      "midi": 55,
      "start": 265.938,
      "duration": 0.313,
      "velocity": 0.71
    },
    {
      "id": "n-06606",
      "pitch": "G3",
      "midi": 55,
      "start": 265.938,
      "duration": 0.313,
      "velocity": 0.71
    },
    {
      "id": "n-06607",
      "pitch": "G3",
      "midi": 55,
      "start": 265.938,
      "duration": 0.313,
      "velocity": 0.71
    },
    {
      "id": "n-06608",
      "pitch": "B3",
      "midi": 59,
      "start": 265.938,
      "duration": 0.313,
      "velocity": 0.71
    },
    {
      "id": "n-06609",
      "pitch": "G4",
      "midi": 67,
      "start": 265.938,
      "duration": 0.313,
      "velocity": 0.71
    },
    {
      "id": "n-06610",
      "pitch": "G4",
      "midi": 67,
      "start": 265.938,
      "duration": 0.313,
      "velocity": 0.71
    },
    {
      "id": "n-06611",
      "pitch": "B4",
      "midi": 71,
      "start": 265.938,
      "duration": 0.313,
      "velocity": 0.71
    },
    {
      "id": "n-06612",
      "pitch": "B4",
      "midi": 71,
      "start": 265.938,
      "duration": 0.313,
      "velocity": 0.71
    },
    {
      "id": "n-06613",
      "pitch": "B4",
      "midi": 71,
      "start": 265.938,
      "duration": 0.156,
      "velocity": 0.71
    },
    {
      "id": "n-06614",
      "pitch": "B4",
      "midi": 71,
      "start": 265.938,
      "duration": 0.156,
      "velocity": 0.71
    },
    {
      "id": "n-06615",
      "pitch": "F5",
      "midi": 77,
      "start": 265.938,
      "duration": 0.313,
      "velocity": 0.71
    },
    {
      "id": "n-06616",
      "pitch": "B5",
      "midi": 83,
      "start": 265.938,
      "duration": 0.313,
      "velocity": 0.71
    },
    {
      "id": "n-06617",
      "pitch": "F6",
      "midi": 89,
      "start": 265.938,
      "duration": 0.313,
      "velocity": 0.71
    },
    {
      "id": "n-06618",
      "pitch": "F5",
      "midi": 77,
      "start": 266.094,
      "duration": 0.156,
      "velocity": 0.71
    },
    {
      "id": "n-06619",
      "pitch": "F5",
      "midi": 77,
      "start": 266.094,
      "duration": 0.156,
      "velocity": 0.71
    },
    {
      "id": "n-06620",
      "pitch": "G2",
      "midi": 43,
      "start": 266.25,
      "duration": 0.313,
      "velocity": 0.71
    },
    {
      "id": "n-06621",
      "pitch": "A2",
      "midi": 45,
      "start": 266.25,
      "duration": 0.313,
      "velocity": 0.71
    },
    {
      "id": "n-06622",
      "pitch": "G3",
      "midi": 55,
      "start": 266.25,
      "duration": 0.313,
      "velocity": 0.71
    },
    {
      "id": "n-06623",
      "pitch": "A3",
      "midi": 57,
      "start": 266.25,
      "duration": 0.313,
      "velocity": 0.71
    },
    {
      "id": "n-06624",
      "pitch": "A3",
      "midi": 57,
      "start": 266.25,
      "duration": 0.313,
      "velocity": 0.71
    },
    {
      "id": "n-06625",
      "pitch": "A3",
      "midi": 57,
      "start": 266.25,
      "duration": 0.313,
      "velocity": 0.71
    },
    {
      "id": "n-06626",
      "pitch": "A3",
      "midi": 57,
      "start": 266.25,
      "duration": 0.313,
      "velocity": 0.71
    },
    {
      "id": "n-06627",
      "pitch": "C4",
      "midi": 60,
      "start": 266.25,
      "duration": 0.313,
      "velocity": 0.71
    },
    {
      "id": "n-06628",
      "pitch": "F4",
      "midi": 65,
      "start": 266.25,
      "duration": 0.313,
      "velocity": 0.71
    },
    {
      "id": "n-06629",
      "pitch": "G4",
      "midi": 67,
      "start": 266.25,
      "duration": 0.313,
      "velocity": 0.71
    },
    {
      "id": "n-06630",
      "pitch": "G4",
      "midi": 67,
      "start": 266.25,
      "duration": 0.313,
      "velocity": 0.71
    },
    {
      "id": "n-06631",
      "pitch": "C5",
      "midi": 72,
      "start": 266.25,
      "duration": 0.313,
      "velocity": 0.71
    },
    {
      "id": "n-06632",
      "pitch": "C5",
      "midi": 72,
      "start": 266.25,
      "duration": 0.313,
      "velocity": 0.71
    },
    {
      "id": "n-06633",
      "pitch": "C5",
      "midi": 72,
      "start": 266.25,
      "duration": 0.156,
      "velocity": 0.71
    },
    {
      "id": "n-06634",
      "pitch": "C5",
      "midi": 72,
      "start": 266.25,
      "duration": 0.156,
      "velocity": 0.71
    },
    {
      "id": "n-06635",
      "pitch": "F5",
      "midi": 77,
      "start": 266.25,
      "duration": 0.313,
      "velocity": 0.71
    },
    {
      "id": "n-06636",
      "pitch": "C6",
      "midi": 84,
      "start": 266.25,
      "duration": 0.313,
      "velocity": 0.71
    },
    {
      "id": "n-06637",
      "pitch": "F6",
      "midi": 89,
      "start": 266.25,
      "duration": 0.313,
      "velocity": 0.71
    },
    {
      "id": "n-06638",
      "pitch": "F5",
      "midi": 77,
      "start": 266.406,
      "duration": 0.156,
      "velocity": 0.71
    },
    {
      "id": "n-06639",
      "pitch": "F5",
      "midi": 77,
      "start": 266.406,
      "duration": 0.156,
      "velocity": 0.71
    },
    {
      "id": "n-06640",
      "pitch": "G2",
      "midi": 43,
      "start": 266.563,
      "duration": 0.313,
      "velocity": 0.71
    },
    {
      "id": "n-06641",
      "pitch": "B2",
      "midi": 47,
      "start": 266.563,
      "duration": 0.313,
      "velocity": 0.71
    },
    {
      "id": "n-06642",
      "pitch": "G3",
      "midi": 55,
      "start": 266.563,
      "duration": 0.313,
      "velocity": 0.71
    },
    {
      "id": "n-06643",
      "pitch": "B3",
      "midi": 59,
      "start": 266.563,
      "duration": 0.313,
      "velocity": 0.71
    },
    {
      "id": "n-06644",
      "pitch": "B3",
      "midi": 59,
      "start": 266.563,
      "duration": 0.313,
      "velocity": 0.71
    },
    {
      "id": "n-06645",
      "pitch": "B3",
      "midi": 59,
      "start": 266.563,
      "duration": 0.313,
      "velocity": 0.71
    },
    {
      "id": "n-06646",
      "pitch": "B3",
      "midi": 59,
      "start": 266.563,
      "duration": 0.313,
      "velocity": 0.71
    },
    {
      "id": "n-06647",
      "pitch": "D4",
      "midi": 62,
      "start": 266.563,
      "duration": 0.313,
      "velocity": 0.71
    },
    {
      "id": "n-06648",
      "pitch": "F4",
      "midi": 65,
      "start": 266.563,
      "duration": 0.313,
      "velocity": 0.71
    },
    {
      "id": "n-06649",
      "pitch": "G4",
      "midi": 67,
      "start": 266.563,
      "duration": 0.313,
      "velocity": 0.71
    },
    {
      "id": "n-06650",
      "pitch": "G4",
      "midi": 67,
      "start": 266.563,
      "duration": 0.313,
      "velocity": 0.71
    },
    {
      "id": "n-06651",
      "pitch": "D5",
      "midi": 74,
      "start": 266.563,
      "duration": 0.313,
      "velocity": 0.71
    },
    {
      "id": "n-06652",
      "pitch": "D5",
      "midi": 74,
      "start": 266.563,
      "duration": 0.313,
      "velocity": 0.71
    },
    {
      "id": "n-06653",
      "pitch": "D5",
      "midi": 74,
      "start": 266.563,
      "duration": 0.156,
      "velocity": 0.71
    },
    {
      "id": "n-06654",
      "pitch": "D5",
      "midi": 74,
      "start": 266.563,
      "duration": 0.156,
      "velocity": 0.71
    },
    {
      "id": "n-06655",
      "pitch": "F5",
      "midi": 77,
      "start": 266.563,
      "duration": 0.313,
      "velocity": 0.71
    },
    {
      "id": "n-06656",
      "pitch": "D6",
      "midi": 86,
      "start": 266.563,
      "duration": 0.313,
      "velocity": 0.71
    },
    {
      "id": "n-06657",
      "pitch": "F6",
      "midi": 89,
      "start": 266.563,
      "duration": 0.313,
      "velocity": 0.71
    },
    {
      "id": "n-06658",
      "pitch": "G5",
      "midi": 79,
      "start": 266.719,
      "duration": 0.156,
      "velocity": 0.71
    },
    {
      "id": "n-06659",
      "pitch": "G5",
      "midi": 79,
      "start": 266.719,
      "duration": 0.156,
      "velocity": 0.71
    },
    {
      "id": "n-06660",
      "pitch": "C3",
      "midi": 48,
      "start": 266.875,
      "duration": 1.25,
      "velocity": 0.71
    },
    {
      "id": "n-06661",
      "pitch": "C3",
      "midi": 48,
      "start": 266.875,
      "duration": 0.625,
      "velocity": 0.71
    },
    {
      "id": "n-06662",
      "pitch": "C4",
      "midi": 60,
      "start": 266.875,
      "duration": 1.25,
      "velocity": 0.71
    },
    {
      "id": "n-06663",
      "pitch": "C4",
      "midi": 60,
      "start": 266.875,
      "duration": 1.25,
      "velocity": 0.71
    },
    {
      "id": "n-06664",
      "pitch": "C4",
      "midi": 60,
      "start": 266.875,
      "duration": 1.25,
      "velocity": 0.71
    },
    {
      "id": "n-06665",
      "pitch": "C4",
      "midi": 60,
      "start": 266.875,
      "duration": 1.25,
      "velocity": 0.71
    },
    {
      "id": "n-06666",
      "pitch": "C4",
      "midi": 60,
      "start": 266.875,
      "duration": 0.625,
      "velocity": 0.71
    },
    {
      "id": "n-06667",
      "pitch": "D#4",
      "midi": 63,
      "start": 266.875,
      "duration": 1.25,
      "velocity": 0.71
    },
    {
      "id": "n-06668",
      "pitch": "D#4",
      "midi": 63,
      "start": 266.875,
      "duration": 1.25,
      "velocity": 0.71
    },
    {
      "id": "n-06669",
      "pitch": "C5",
      "midi": 72,
      "start": 266.875,
      "duration": 1.25,
      "velocity": 0.71
    },
    {
      "id": "n-06670",
      "pitch": "C5",
      "midi": 72,
      "start": 266.875,
      "duration": 1.25,
      "velocity": 0.71
    },
    {
      "id": "n-06671",
      "pitch": "C5",
      "midi": 72,
      "start": 266.875,
      "duration": 1.25,
      "velocity": 0.71
    },
    {
      "id": "n-06672",
      "pitch": "D#5",
      "midi": 75,
      "start": 266.875,
      "duration": 1.25,
      "velocity": 0.71
    },
    {
      "id": "n-06673",
      "pitch": "D#5",
      "midi": 75,
      "start": 266.875,
      "duration": 0.313,
      "velocity": 0.71
    },
    {
      "id": "n-06674",
      "pitch": "D#5",
      "midi": 75,
      "start": 266.875,
      "duration": 0.313,
      "velocity": 0.71
    },
    {
      "id": "n-06675",
      "pitch": "C6",
      "midi": 84,
      "start": 266.875,
      "duration": 1.25,
      "velocity": 0.71
    },
    {
      "id": "n-06676",
      "pitch": "D#6",
      "midi": 87,
      "start": 266.875,
      "duration": 1.25,
      "velocity": 0.71
    },
    {
      "id": "n-06677",
      "pitch": "C5",
      "midi": 72,
      "start": 267.188,
      "duration": 0.313,
      "velocity": 0.71
    },
    {
      "id": "n-06678",
      "pitch": "C5",
      "midi": 72,
      "start": 267.188,
      "duration": 0.313,
      "velocity": 0.71
    },
    {
      "id": "n-06679",
      "pitch": "C3",
      "midi": 48,
      "start": 267.5,
      "duration": 0.313,
      "velocity": 0.71
    },
    {
      "id": "n-06680",
      "pitch": "D4",
      "midi": 62,
      "start": 267.5,
      "duration": 0.313,
      "velocity": 0.71
    },
    {
      "id": "n-06681",
      "pitch": "D5",
      "midi": 74,
      "start": 267.5,
      "duration": 0.313,
      "velocity": 0.71
    },
    {
      "id": "n-06682",
      "pitch": "D5",
      "midi": 74,
      "start": 267.5,
      "duration": 0.313,
      "velocity": 0.71
    },
    {
      "id": "n-06683",
      "pitch": "D#4",
      "midi": 63,
      "start": 267.813,
      "duration": 0.313,
      "velocity": 0.71
    },
    {
      "id": "n-06684",
      "pitch": "D#5",
      "midi": 75,
      "start": 267.813,
      "duration": 0.313,
      "velocity": 0.71
    },
    {
      "id": "n-06685",
      "pitch": "D#5",
      "midi": 75,
      "start": 267.813,
      "duration": 0.313,
      "velocity": 0.71
    },
    {
      "id": "n-06686",
      "pitch": "G#2",
      "midi": 44,
      "start": 268.125,
      "duration": 1.25,
      "velocity": 0.71
    },
    {
      "id": "n-06687",
      "pitch": "C3",
      "midi": 48,
      "start": 268.125,
      "duration": 0.625,
      "velocity": 0.71
    },
    {
      "id": "n-06688",
      "pitch": "G#3",
      "midi": 56,
      "start": 268.125,
      "duration": 1.25,
      "velocity": 0.71
    },
    {
      "id": "n-06689",
      "pitch": "G#3",
      "midi": 56,
      "start": 268.125,
      "duration": 1.25,
      "velocity": 0.71
    },
    {
      "id": "n-06690",
      "pitch": "G#3",
      "midi": 56,
      "start": 268.125,
      "duration": 1.25,
      "velocity": 0.71
    },
    {
      "id": "n-06691",
      "pitch": "C4",
      "midi": 60,
      "start": 268.125,
      "duration": 1.25,
      "velocity": 0.71
    },
    {
      "id": "n-06692",
      "pitch": "F4",
      "midi": 65,
      "start": 268.125,
      "duration": 1.25,
      "velocity": 0.71
    },
    {
      "id": "n-06693",
      "pitch": "F4",
      "midi": 65,
      "start": 268.125,
      "duration": 1.25,
      "velocity": 0.71
    },
    {
      "id": "n-06694",
      "pitch": "F4",
      "midi": 65,
      "start": 268.125,
      "duration": 0.313,
      "velocity": 0.71
    },
    {
      "id": "n-06695",
      "pitch": "C5",
      "midi": 72,
      "start": 268.125,
      "duration": 1.25,
      "velocity": 0.71
    },
    {
      "id": "n-06696",
      "pitch": "C5",
      "midi": 72,
      "start": 268.125,
      "duration": 1.25,
      "velocity": 0.71
    },
    {
      "id": "n-06697",
      "pitch": "C5",
      "midi": 72,
      "start": 268.125,
      "duration": 1.25,
      "velocity": 0.71
    },
    {
      "id": "n-06698",
      "pitch": "F5",
      "midi": 77,
      "start": 268.125,
      "duration": 1.25,
      "velocity": 0.71
    },
    {
      "id": "n-06699",
      "pitch": "F5",
      "midi": 77,
      "start": 268.125,
      "duration": 0.313,
      "velocity": 0.71
    },
    {
      "id": "n-06700",
      "pitch": "F5",
      "midi": 77,
      "start": 268.125,
      "duration": 0.313,
      "velocity": 0.71
    },
    {
      "id": "n-06701",
      "pitch": "C6",
      "midi": 84,
      "start": 268.125,
      "duration": 1.25,
      "velocity": 0.71
    },
    {
      "id": "n-06702",
      "pitch": "F6",
      "midi": 89,
      "start": 268.125,
      "duration": 1.25,
      "velocity": 0.71
    },
    {
      "id": "n-06703",
      "pitch": "D4",
      "midi": 62,
      "start": 268.438,
      "duration": 0.313,
      "velocity": 0.71
    },
    {
      "id": "n-06704",
      "pitch": "D5",
      "midi": 74,
      "start": 268.438,
      "duration": 0.313,
      "velocity": 0.71
    },
    {
      "id": "n-06705",
      "pitch": "D5",
      "midi": 74,
      "start": 268.438,
      "duration": 0.313,
      "velocity": 0.71
    },
    {
      "id": "n-06706",
      "pitch": "C3",
      "midi": 48,
      "start": 268.75,
      "duration": 0.313,
      "velocity": 0.71
    },
    {
      "id": "n-06707",
      "pitch": "D#4",
      "midi": 63,
      "start": 268.75,
      "duration": 0.313,
      "velocity": 0.71
    },
    {
      "id": "n-06708",
      "pitch": "D#5",
      "midi": 75,
      "start": 268.75,
      "duration": 0.313,
      "velocity": 0.71
    },
    {
      "id": "n-06709",
      "pitch": "D#5",
      "midi": 75,
      "start": 268.75,
      "duration": 0.313,
      "velocity": 0.71
    },
    {
      "id": "n-06710",
      "pitch": "F4",
      "midi": 65,
      "start": 269.063,
      "duration": 0.313,
      "velocity": 0.71
    },
    {
      "id": "n-06711",
      "pitch": "F5",
      "midi": 77,
      "start": 269.063,
      "duration": 0.313,
      "velocity": 0.71
    },
    {
      "id": "n-06712",
      "pitch": "F5",
      "midi": 77,
      "start": 269.063,
      "duration": 0.313,
      "velocity": 0.71
    },
    {
      "id": "n-06713",
      "pitch": "D#2",
      "midi": 39,
      "start": 269.375,
      "duration": 1.25,
      "velocity": 0.71
    },
    {
      "id": "n-06714",
      "pitch": "C3",
      "midi": 48,
      "start": 269.375,
      "duration": 0.625,
      "velocity": 0.71
    },
    {
      "id": "n-06715",
      "pitch": "D#3",
      "midi": 51,
      "start": 269.375,
      "duration": 1.25,
      "velocity": 0.71
    },
    {
      "id": "n-06716",
      "pitch": "D#3",
      "midi": 51,
      "start": 269.375,
      "duration": 1.25,
      "velocity": 0.71
    },
    {
      "id": "n-06717",
      "pitch": "D#3",
      "midi": 51,
      "start": 269.375,
      "duration": 1.25,
      "velocity": 0.71
    },
    {
      "id": "n-06718",
      "pitch": "C4",
      "midi": 60,
      "start": 269.375,
      "duration": 1.25,
      "velocity": 0.71
    },
    {
      "id": "n-06719",
      "pitch": "G4",
      "midi": 67,
      "start": 269.375,
      "duration": 1.25,
      "velocity": 0.71
    },
    {
      "id": "n-06720",
      "pitch": "G4",
      "midi": 67,
      "start": 269.375,
      "duration": 1.25,
      "velocity": 0.71
    },
    {
      "id": "n-06721",
      "pitch": "G4",
      "midi": 67,
      "start": 269.375,
      "duration": 0.313,
      "velocity": 0.71
    },
    {
      "id": "n-06722",
      "pitch": "C5",
      "midi": 72,
      "start": 269.375,
      "duration": 1.25,
      "velocity": 0.71
    },
    {
      "id": "n-06723",
      "pitch": "C5",
      "midi": 72,
      "start": 269.375,
      "duration": 1.25,
      "velocity": 0.71
    },
    {
      "id": "n-06724",
      "pitch": "C5",
      "midi": 72,
      "start": 269.375,
      "duration": 1.25,
      "velocity": 0.71
    },
    {
      "id": "n-06725",
      "pitch": "G5",
      "midi": 79,
      "start": 269.375,
      "duration": 1.25,
      "velocity": 0.71
    },
    {
      "id": "n-06726",
      "pitch": "G5",
      "midi": 79,
      "start": 269.375,
      "duration": 0.313,
      "velocity": 0.71
    },
    {
      "id": "n-06727",
      "pitch": "G5",
      "midi": 79,
      "start": 269.375,
      "duration": 0.313,
      "velocity": 0.71
    },
    {
      "id": "n-06728",
      "pitch": "C6",
      "midi": 84,
      "start": 269.375,
      "duration": 1.25,
      "velocity": 0.71
    },
    {
      "id": "n-06729",
      "pitch": "G6",
      "midi": 91,
      "start": 269.375,
      "duration": 1.25,
      "velocity": 0.71
    },
    {
      "id": "n-06730",
      "pitch": "D#4",
      "midi": 63,
      "start": 269.688,
      "duration": 0.313,
      "velocity": 0.71
    },
    {
      "id": "n-06731",
      "pitch": "D#5",
      "midi": 75,
      "start": 269.688,
      "duration": 0.313,
      "velocity": 0.71
    },
    {
      "id": "n-06732",
      "pitch": "D#5",
      "midi": 75,
      "start": 269.688,
      "duration": 0.313,
      "velocity": 0.71
    },
    {
      "id": "n-06733",
      "pitch": "C3",
      "midi": 48,
      "start": 270,
      "duration": 0.313,
      "velocity": 0.71
    },
    {
      "id": "n-06734",
      "pitch": "F4",
      "midi": 65,
      "start": 270,
      "duration": 0.313,
      "velocity": 0.71
    },
    {
      "id": "n-06735",
      "pitch": "F5",
      "midi": 77,
      "start": 270,
      "duration": 0.313,
      "velocity": 0.71
    },
    {
      "id": "n-06736",
      "pitch": "F5",
      "midi": 77,
      "start": 270,
      "duration": 0.313,
      "velocity": 0.71
    },
    {
      "id": "n-06737",
      "pitch": "G4",
      "midi": 67,
      "start": 270.313,
      "duration": 0.313,
      "velocity": 0.71
    },
    {
      "id": "n-06738",
      "pitch": "G5",
      "midi": 79,
      "start": 270.313,
      "duration": 0.313,
      "velocity": 0.71
    },
    {
      "id": "n-06739",
      "pitch": "G5",
      "midi": 79,
      "start": 270.313,
      "duration": 0.313,
      "velocity": 0.71
    },
    {
      "id": "n-06740",
      "pitch": "F2",
      "midi": 41,
      "start": 270.625,
      "duration": 0.625,
      "velocity": 0.71
    },
    {
      "id": "n-06741",
      "pitch": "C3",
      "midi": 48,
      "start": 270.625,
      "duration": 0.625,
      "velocity": 0.71
    },
    {
      "id": "n-06742",
      "pitch": "F3",
      "midi": 53,
      "start": 270.625,
      "duration": 0.625,
      "velocity": 0.71
    },
    {
      "id": "n-06743",
      "pitch": "F3",
      "midi": 53,
      "start": 270.625,
      "duration": 0.625,
      "velocity": 0.71
    },
    {
      "id": "n-06744",
      "pitch": "F3",
      "midi": 53,
      "start": 270.625,
      "duration": 0.625,
      "velocity": 0.71
    },
    {
      "id": "n-06745",
      "pitch": "C4",
      "midi": 60,
      "start": 270.625,
      "duration": 1.25,
      "velocity": 0.71
    },
    {
      "id": "n-06746",
      "pitch": "G#4",
      "midi": 68,
      "start": 270.625,
      "duration": 0.625,
      "velocity": 0.71
    },
    {
      "id": "n-06747",
      "pitch": "G#4",
      "midi": 68,
      "start": 270.625,
      "duration": 0.625,
      "velocity": 0.71
    },
    {
      "id": "n-06748",
      "pitch": "G#4",
      "midi": 68,
      "start": 270.625,
      "duration": 0.313,
      "velocity": 0.71
    },
    {
      "id": "n-06749",
      "pitch": "C5",
      "midi": 72,
      "start": 270.625,
      "duration": 1.25,
      "velocity": 0.71
    },
    {
      "id": "n-06750",
      "pitch": "C5",
      "midi": 72,
      "start": 270.625,
      "duration": 0.625,
      "velocity": 0.71
    },
    {
      "id": "n-06751",
      "pitch": "C5",
      "midi": 72,
      "start": 270.625,
      "duration": 0.625,
      "velocity": 0.71
    },
    {
      "id": "n-06752",
      "pitch": "G#5",
      "midi": 80,
      "start": 270.625,
      "duration": 0.625,
      "velocity": 0.71
    },
    {
      "id": "n-06753",
      "pitch": "G#5",
      "midi": 80,
      "start": 270.625,
      "duration": 0.313,
      "velocity": 0.71
    },
    {
      "id": "n-06754",
      "pitch": "G#5",
      "midi": 80,
      "start": 270.625,
      "duration": 0.313,
      "velocity": 0.71
    },
    {
      "id": "n-06755",
      "pitch": "C6",
      "midi": 84,
      "start": 270.625,
      "duration": 1.25,
      "velocity": 0.71
    },
    {
      "id": "n-06756",
      "pitch": "F6",
      "midi": 89,
      "start": 270.625,
      "duration": 1.25,
      "velocity": 0.71
    },
    {
      "id": "n-06757",
      "pitch": "F4",
      "midi": 65,
      "start": 270.938,
      "duration": 0.313,
      "velocity": 0.71
    },
    {
      "id": "n-06758",
      "pitch": "F5",
      "midi": 77,
      "start": 270.938,
      "duration": 0.313,
      "velocity": 0.71
    },
    {
      "id": "n-06759",
      "pitch": "F5",
      "midi": 77,
      "start": 270.938,
      "duration": 0.313,
      "velocity": 0.71
    },
    {
      "id": "n-06760",
      "pitch": "D#2",
      "midi": 39,
      "start": 271.25,
      "duration": 0.625,
      "velocity": 0.71
    },
    {
      "id": "n-06761",
      "pitch": "C3",
      "midi": 48,
      "start": 271.25,
      "duration": 0.313,
      "velocity": 0.71
    },
    {
      "id": "n-06762",
      "pitch": "D#3",
      "midi": 51,
      "start": 271.25,
      "duration": 0.625,
      "velocity": 0.71
    },
    {
      "id": "n-06763",
      "pitch": "D#3",
      "midi": 51,
      "start": 271.25,
      "duration": 0.625,
      "velocity": 0.71
    },
    {
      "id": "n-06764",
      "pitch": "D#3",
      "midi": 51,
      "start": 271.25,
      "duration": 0.625,
      "velocity": 0.71
    },
    {
      "id": "n-06765",
      "pitch": "F4",
      "midi": 65,
      "start": 271.25,
      "duration": 0.625,
      "velocity": 0.71
    },
    {
      "id": "n-06766",
      "pitch": "F4",
      "midi": 65,
      "start": 271.25,
      "duration": 0.313,
      "velocity": 0.71
    },
    {
      "id": "n-06767",
      "pitch": "G4",
      "midi": 67,
      "start": 271.25,
      "duration": 0.313,
      "velocity": 0.71
    },
    {
      "id": "n-06768",
      "pitch": "C5",
      "midi": 72,
      "start": 271.25,
      "duration": 0.625,
      "velocity": 0.71
    },
    {
      "id": "n-06769",
      "pitch": "C5",
      "midi": 72,
      "start": 271.25,
      "duration": 0.625,
      "velocity": 0.71
    },
    {
      "id": "n-06770",
      "pitch": "F5",
      "midi": 77,
      "start": 271.25,
      "duration": 0.625,
      "velocity": 0.71
    },
    {
      "id": "n-06771",
      "pitch": "G5",
      "midi": 79,
      "start": 271.25,
      "duration": 0.313,
      "velocity": 0.71
    },
    {
      "id": "n-06772",
      "pitch": "G5",
      "midi": 79,
      "start": 271.25,
      "duration": 0.313,
      "velocity": 0.71
    },
    {
      "id": "n-06773",
      "pitch": "F4",
      "midi": 65,
      "start": 271.563,
      "duration": 0.313,
      "velocity": 0.71
    },
    {
      "id": "n-06774",
      "pitch": "A4",
      "midi": 69,
      "start": 271.563,
      "duration": 0.313,
      "velocity": 0.71
    },
    {
      "id": "n-06775",
      "pitch": "A5",
      "midi": 81,
      "start": 271.563,
      "duration": 0.313,
      "velocity": 0.71
    },
    {
      "id": "n-06776",
      "pitch": "A5",
      "midi": 81,
      "start": 271.563,
      "duration": 0.313,
      "velocity": 0.71
    },
    {
      "id": "n-06777",
      "pitch": "D2",
      "midi": 38,
      "start": 271.875,
      "duration": 0.625,
      "velocity": 0.71
    },
    {
      "id": "n-06778",
      "pitch": "G2",
      "midi": 43,
      "start": 271.875,
      "duration": 0.625,
      "velocity": 0.71
    },
    {
      "id": "n-06779",
      "pitch": "D3",
      "midi": 50,
      "start": 271.875,
      "duration": 0.625,
      "velocity": 0.71
    },
    {
      "id": "n-06780",
      "pitch": "D3",
      "midi": 50,
      "start": 271.875,
      "duration": 0.625,
      "velocity": 0.71
    },
    {
      "id": "n-06781",
      "pitch": "D3",
      "midi": 50,
      "start": 271.875,
      "duration": 0.625,
      "velocity": 0.71
    },
    {
      "id": "n-06782",
      "pitch": "G3",
      "midi": 55,
      "start": 271.875,
      "duration": 0.625,
      "velocity": 0.71
    },
    {
      "id": "n-06783",
      "pitch": "F4",
      "midi": 65,
      "start": 271.875,
      "duration": 0.625,
      "velocity": 0.71
    },
    {
      "id": "n-06784",
      "pitch": "F4",
      "midi": 65,
      "start": 271.875,
      "duration": 0.625,
      "velocity": 0.71
    },
    {
      "id": "n-06785",
      "pitch": "G4",
      "midi": 67,
      "start": 271.875,
      "duration": 0.625,
      "velocity": 0.71
    },
    {
      "id": "n-06786",
      "pitch": "B4",
      "midi": 71,
      "start": 271.875,
      "duration": 0.625,
      "velocity": 0.71
    },
    {
      "id": "n-06787",
      "pitch": "B4",
      "midi": 71,
      "start": 271.875,
      "duration": 0.625,
      "velocity": 0.71
    },
    {
      "id": "n-06788",
      "pitch": "B4",
      "midi": 71,
      "start": 271.875,
      "duration": 0.313,
      "velocity": 0.71
    },
    {
      "id": "n-06789",
      "pitch": "F5",
      "midi": 77,
      "start": 271.875,
      "duration": 0.625,
      "velocity": 0.71
    },
    {
      "id": "n-06790",
      "pitch": "B5",
      "midi": 83,
      "start": 271.875,
      "duration": 0.313,
      "velocity": 0.71
    },
    {
      "id": "n-06791",
      "pitch": "B5",
      "midi": 83,
      "start": 271.875,
      "duration": 0.313,
      "velocity": 0.71
    },
    {
      "id": "n-06792",
      "pitch": "D6",
      "midi": 86,
      "start": 271.875,
      "duration": 0.625,
      "velocity": 0.71
    },
    {
      "id": "n-06793",
      "pitch": "F6",
      "midi": 89,
      "start": 271.875,
      "duration": 0.625,
      "velocity": 0.71
    },
    {
      "id": "n-06794",
      "pitch": "G4",
      "midi": 67,
      "start": 272.188,
      "duration": 0.313,
      "velocity": 0.71
    },
    {
      "id": "n-06795",
      "pitch": "G5",
      "midi": 79,
      "start": 272.188,
      "duration": 0.313,
      "velocity": 0.71
    },
    {
      "id": "n-06796",
      "pitch": "G5",
      "midi": 79,
      "start": 272.188,
      "duration": 0.313,
      "velocity": 0.71
    },
    {
      "id": "n-06797",
      "pitch": "F2",
      "midi": 41,
      "start": 272.5,
      "duration": 0.625,
      "velocity": 0.71
    },
    {
      "id": "n-06798",
      "pitch": "G2",
      "midi": 43,
      "start": 272.5,
      "duration": 0.313,
      "velocity": 0.71
    },
    {
      "id": "n-06799",
      "pitch": "F3",
      "midi": 53,
      "start": 272.5,
      "duration": 0.625,
      "velocity": 0.71
    },
    {
      "id": "n-06800",
      "pitch": "F3",
      "midi": 53,
      "start": 272.5,
      "duration": 0.625,
      "velocity": 0.71
    },
    {
      "id": "n-06801",
      "pitch": "F3",
      "midi": 53,
      "start": 272.5,
      "duration": 0.625,
      "velocity": 0.71
    },
    {
      "id": "n-06802",
      "pitch": "G3",
      "midi": 55,
      "start": 272.5,
      "duration": 0.625,
      "velocity": 0.71
    },
    {
      "id": "n-06803",
      "pitch": "G4",
      "midi": 67,
      "start": 272.5,
      "duration": 0.625,
      "velocity": 0.71
    },
    {
      "id": "n-06804",
      "pitch": "G4",
      "midi": 67,
      "start": 272.5,
      "duration": 0.625,
      "velocity": 0.71
    },
    {
      "id": "n-06805",
      "pitch": "G4",
      "midi": 67,
      "start": 272.5,
      "duration": 0.625,
      "velocity": 0.71
    },
    {
      "id": "n-06806",
      "pitch": "A4",
      "midi": 69,
      "start": 272.5,
      "duration": 0.313,
      "velocity": 0.71
    },
    {
      "id": "n-06807",
      "pitch": "B4",
      "midi": 71,
      "start": 272.5,
      "duration": 0.625,
      "velocity": 0.71
    },
    {
      "id": "n-06808",
      "pitch": "D5",
      "midi": 74,
      "start": 272.5,
      "duration": 0.625,
      "velocity": 0.71
    },
    {
      "id": "n-06809",
      "pitch": "G5",
      "midi": 79,
      "start": 272.5,
      "duration": 0.625,
      "velocity": 0.71
    },
    {
      "id": "n-06810",
      "pitch": "A5",
      "midi": 81,
      "start": 272.5,
      "duration": 0.313,
      "velocity": 0.71
    },
    {
      "id": "n-06811",
      "pitch": "A5",
      "midi": 81,
      "start": 272.5,
      "duration": 0.313,
      "velocity": 0.71
    },
    {
      "id": "n-06812",
      "pitch": "D6",
      "midi": 86,
      "start": 272.5,
      "duration": 0.625,
      "velocity": 0.71
    },
    {
      "id": "n-06813",
      "pitch": "G6",
      "midi": 91,
      "start": 272.5,
      "duration": 0.625,
      "velocity": 0.71
    },
    {
      "id": "n-06814",
      "pitch": "B4",
      "midi": 71,
      "start": 272.813,
      "duration": 0.313,
      "velocity": 0.71
    },
    {
      "id": "n-06815",
      "pitch": "B5",
      "midi": 83,
      "start": 272.813,
      "duration": 0.313,
      "velocity": 0.71
    },
    {
      "id": "n-06816",
      "pitch": "B5",
      "midi": 83,
      "start": 272.813,
      "duration": 0.313,
      "velocity": 0.71
    },
    {
      "id": "n-06817",
      "pitch": "D#2",
      "midi": 39,
      "start": 273.125,
      "duration": 0.313,
      "velocity": 0.71
    },
    {
      "id": "n-06818",
      "pitch": "C3",
      "midi": 48,
      "start": 273.125,
      "duration": 0.313,
      "velocity": 0.71
    },
    {
      "id": "n-06819",
      "pitch": "D#3",
      "midi": 51,
      "start": 273.125,
      "duration": 0.313,
      "velocity": 0.71
    },
    {
      "id": "n-06820",
      "pitch": "D#3",
      "midi": 51,
      "start": 273.125,
      "duration": 0.313,
      "velocity": 0.71
    },
    {
      "id": "n-06821",
      "pitch": "D#3",
      "midi": 51,
      "start": 273.125,
      "duration": 0.313,
      "velocity": 0.71
    },
    {
      "id": "n-06822",
      "pitch": "C4",
      "midi": 60,
      "start": 273.125,
      "duration": 0.313,
      "velocity": 0.71
    },
    {
      "id": "n-06823",
      "pitch": "G4",
      "midi": 67,
      "start": 273.125,
      "duration": 0.313,
      "velocity": 0.71
    },
    {
      "id": "n-06824",
      "pitch": "G4",
      "midi": 67,
      "start": 273.125,
      "duration": 0.313,
      "velocity": 0.71
    },
    {
      "id": "n-06825",
      "pitch": "C5",
      "midi": 72,
      "start": 273.125,
      "duration": 0.313,
      "velocity": 0.71
    },
    {
      "id": "n-06826",
      "pitch": "C5",
      "midi": 72,
      "start": 273.125,
      "duration": 0.313,
      "velocity": 0.71
    },
    {
      "id": "n-06827",
      "pitch": "C5",
      "midi": 72,
      "start": 273.125,
      "duration": 0.313,
      "velocity": 0.71
    },
    {
      "id": "n-06828",
      "pitch": "D#5",
      "midi": 75,
      "start": 273.125,
      "duration": 0.313,
      "velocity": 0.71
    },
    {
      "id": "n-06829",
      "pitch": "G5",
      "midi": 79,
      "start": 273.125,
      "duration": 0.313,
      "velocity": 0.71
    },
    {
      "id": "n-06830",
      "pitch": "C6",
      "midi": 84,
      "start": 273.125,
      "duration": 0.313,
      "velocity": 0.71
    },
    {
      "id": "n-06831",
      "pitch": "C6",
      "midi": 84,
      "start": 273.125,
      "duration": 0.313,
      "velocity": 0.71
    },
    {
      "id": "n-06832",
      "pitch": "D#6",
      "midi": 87,
      "start": 273.125,
      "duration": 0.313,
      "velocity": 0.71
    },
    {
      "id": "n-06833",
      "pitch": "G6",
      "midi": 91,
      "start": 273.125,
      "duration": 0.313,
      "velocity": 0.71
    },
    {
      "id": "n-06834",
      "pitch": "G4",
      "midi": 67,
      "start": 273.438,
      "duration": 0.313,
      "velocity": 0.71
    },
    {
      "id": "n-06835",
      "pitch": "G5",
      "midi": 79,
      "start": 273.438,
      "duration": 0.313,
      "velocity": 0.71
    },
    {
      "id": "n-06836",
      "pitch": "G5",
      "midi": 79,
      "start": 273.438,
      "duration": 0.313,
      "velocity": 0.71
    },
    {
      "id": "n-06837",
      "pitch": "C2",
      "midi": 36,
      "start": 273.75,
      "duration": 0.313,
      "velocity": 0.71
    },
    {
      "id": "n-06838",
      "pitch": "C3",
      "midi": 48,
      "start": 273.75,
      "duration": 0.313,
      "velocity": 0.71
    },
    {
      "id": "n-06839",
      "pitch": "C3",
      "midi": 48,
      "start": 273.75,
      "duration": 0.313,
      "velocity": 0.71
    },
    {
      "id": "n-06840",
      "pitch": "C3",
      "midi": 48,
      "start": 273.75,
      "duration": 0.313,
      "velocity": 0.71
    },
    {
      "id": "n-06841",
      "pitch": "C3",
      "midi": 48,
      "start": 273.75,
      "duration": 0.313,
      "velocity": 0.71
    },
    {
      "id": "n-06842",
      "pitch": "C4",
      "midi": 60,
      "start": 273.75,
      "duration": 0.313,
      "velocity": 0.71
    },
    {
      "id": "n-06843",
      "pitch": "G#4",
      "midi": 68,
      "start": 273.75,
      "duration": 0.313,
      "velocity": 0.71
    },
    {
      "id": "n-06844",
      "pitch": "G#4",
      "midi": 68,
      "start": 273.75,
      "duration": 0.313,
      "velocity": 0.71
    },
    {
      "id": "n-06845",
      "pitch": "G#4",
      "midi": 68,
      "start": 273.75,
      "duration": 0.313,
      "velocity": 0.71
    },
    {
      "id": "n-06846",
      "pitch": "C5",
      "midi": 72,
      "start": 273.75,
      "duration": 0.313,
      "velocity": 0.71
    },
    {
      "id": "n-06847",
      "pitch": "C5",
      "midi": 72,
      "start": 273.75,
      "duration": 0.313,
      "velocity": 0.71
    },
    {
      "id": "n-06848",
      "pitch": "D#5",
      "midi": 75,
      "start": 273.75,
      "duration": 0.313,
      "velocity": 0.71
    },
    {
      "id": "n-06849",
      "pitch": "G#5",
      "midi": 80,
      "start": 273.75,
      "duration": 0.313,
      "velocity": 0.71
    },
    {
      "id": "n-06850",
      "pitch": "G#5",
      "midi": 80,
      "start": 273.75,
      "duration": 0.313,
      "velocity": 0.71
    },
    {
      "id": "n-06851",
      "pitch": "C6",
      "midi": 84,
      "start": 273.75,
      "duration": 0.313,
      "velocity": 0.71
    },
    {
      "id": "n-06852",
      "pitch": "D#6",
      "midi": 87,
      "start": 273.75,
      "duration": 0.313,
      "velocity": 0.71
    },
    {
      "id": "n-06853",
      "pitch": "G#6",
      "midi": 92,
      "start": 273.75,
      "duration": 0.313,
      "velocity": 0.71
    },
    {
      "id": "n-06854",
      "pitch": "D#4",
      "midi": 63,
      "start": 274.063,
      "duration": 0.313,
      "velocity": 0.71
    },
    {
      "id": "n-06855",
      "pitch": "D#5",
      "midi": 75,
      "start": 274.063,
      "duration": 0.313,
      "velocity": 0.71
    },
    {
      "id": "n-06856",
      "pitch": "D#5",
      "midi": 75,
      "start": 274.063,
      "duration": 0.313,
      "velocity": 0.71
    },
    {
      "id": "n-06857",
      "pitch": "F2",
      "midi": 41,
      "start": 274.375,
      "duration": 0.313,
      "velocity": 0.71
    },
    {
      "id": "n-06858",
      "pitch": "C3",
      "midi": 48,
      "start": 274.375,
      "duration": 0.313,
      "velocity": 0.71
    },
    {
      "id": "n-06859",
      "pitch": "F3",
      "midi": 53,
      "start": 274.375,
      "duration": 0.313,
      "velocity": 0.71
    },
    {
      "id": "n-06860",
      "pitch": "F3",
      "midi": 53,
      "start": 274.375,
      "duration": 0.313,
      "velocity": 0.71
    },
    {
      "id": "n-06861",
      "pitch": "F3",
      "midi": 53,
      "start": 274.375,
      "duration": 0.313,
      "velocity": 0.71
    },
    {
      "id": "n-06862",
      "pitch": "C4",
      "midi": 60,
      "start": 274.375,
      "duration": 0.313,
      "velocity": 0.71
    },
    {
      "id": "n-06863",
      "pitch": "F4",
      "midi": 65,
      "start": 274.375,
      "duration": 0.313,
      "velocity": 0.71
    },
    {
      "id": "n-06864",
      "pitch": "F4",
      "midi": 65,
      "start": 274.375,
      "duration": 0.313,
      "velocity": 0.71
    },
    {
      "id": "n-06865",
      "pitch": "G#4",
      "midi": 68,
      "start": 274.375,
      "duration": 0.313,
      "velocity": 0.71
    },
    {
      "id": "n-06866",
      "pitch": "G#4",
      "midi": 68,
      "start": 274.375,
      "duration": 0.313,
      "velocity": 0.71
    },
    {
      "id": "n-06867",
      "pitch": "C5",
      "midi": 72,
      "start": 274.375,
      "duration": 0.313,
      "velocity": 0.71
    },
    {
      "id": "n-06868",
      "pitch": "C5",
      "midi": 72,
      "start": 274.375,
      "duration": 0.313,
      "velocity": 0.71
    },
    {
      "id": "n-06869",
      "pitch": "F5",
      "midi": 77,
      "start": 274.375,
      "duration": 0.313,
      "velocity": 0.71
    },
    {
      "id": "n-06870",
      "pitch": "F5",
      "midi": 77,
      "start": 274.375,
      "duration": 0.313,
      "velocity": 0.71
    },
    {
      "id": "n-06871",
      "pitch": "G#5",
      "midi": 80,
      "start": 274.375,
      "duration": 0.313,
      "velocity": 0.71
    },
    {
      "id": "n-06872",
      "pitch": "C6",
      "midi": 84,
      "start": 274.375,
      "duration": 0.313,
      "velocity": 0.71
    },
    {
      "id": "n-06873",
      "pitch": "D6",
      "midi": 86,
      "start": 274.375,
      "duration": 0.313,
      "velocity": 0.71
    },
    {
      "id": "n-06874",
      "pitch": "G#6",
      "midi": 92,
      "start": 274.375,
      "duration": 0.313,
      "velocity": 0.71
    },
    {
      "id": "n-06875",
      "pitch": "D4",
      "midi": 62,
      "start": 274.688,
      "duration": 0.313,
      "velocity": 0.71
    },
    {
      "id": "n-06876",
      "pitch": "D5",
      "midi": 74,
      "start": 274.688,
      "duration": 0.313,
      "velocity": 0.71
    },
    {
      "id": "n-06877",
      "pitch": "D5",
      "midi": 74,
      "start": 274.688,
      "duration": 0.313,
      "velocity": 0.71
    },
    {
      "id": "n-06878",
      "pitch": "D2",
      "midi": 38,
      "start": 275,
      "duration": 0.313,
      "velocity": 0.71
    },
    {
      "id": "n-06879",
      "pitch": "C3",
      "midi": 48,
      "start": 275,
      "duration": 0.313,
      "velocity": 0.71
    },
    {
      "id": "n-06880",
      "pitch": "D3",
      "midi": 50,
      "start": 275,
      "duration": 0.313,
      "velocity": 0.71
    },
    {
      "id": "n-06881",
      "pitch": "D3",
      "midi": 50,
      "start": 275,
      "duration": 0.313,
      "velocity": 0.71
    },
    {
      "id": "n-06882",
      "pitch": "D3",
      "midi": 50,
      "start": 275,
      "duration": 0.313,
      "velocity": 0.71
    },
    {
      "id": "n-06883",
      "pitch": "C4",
      "midi": 60,
      "start": 275,
      "duration": 0.313,
      "velocity": 0.71
    },
    {
      "id": "n-06884",
      "pitch": "D#4",
      "midi": 63,
      "start": 275,
      "duration": 0.313,
      "velocity": 0.71
    },
    {
      "id": "n-06885",
      "pitch": "F4",
      "midi": 65,
      "start": 275,
      "duration": 0.313,
      "velocity": 0.71
    },
    {
      "id": "n-06886",
      "pitch": "G#4",
      "midi": 68,
      "start": 275,
      "duration": 0.313,
      "velocity": 0.71
    },
    {
      "id": "n-06887",
      "pitch": "C5",
      "midi": 72,
      "start": 275,
      "duration": 0.313,
      "velocity": 0.71
    },
    {
      "id": "n-06888",
      "pitch": "C5",
      "midi": 72,
      "start": 275,
      "duration": 0.313,
      "velocity": 0.71
    },
    {
      "id": "n-06889",
      "pitch": "D5",
      "midi": 74,
      "start": 275,
      "duration": 0.313,
      "velocity": 0.71
    },
    {
      "id": "n-06890",
      "pitch": "D#5",
      "midi": 75,
      "start": 275,
      "duration": 0.313,
      "velocity": 0.71
    },
    {
      "id": "n-06891",
      "pitch": "D#5",
      "midi": 75,
      "start": 275,
      "duration": 0.313,
      "velocity": 0.71
    },
    {
      "id": "n-06892",
      "pitch": "G#5",
      "midi": 80,
      "start": 275,
      "duration": 0.313,
      "velocity": 0.71
    },
    {
      "id": "n-06893",
      "pitch": "C6",
      "midi": 84,
      "start": 275,
      "duration": 0.313,
      "velocity": 0.71
    },
    {
      "id": "n-06894",
      "pitch": "D6",
      "midi": 86,
      "start": 275,
      "duration": 0.313,
      "velocity": 0.71
    },
    {
      "id": "n-06895",
      "pitch": "G#6",
      "midi": 92,
      "start": 275,
      "duration": 0.313,
      "velocity": 0.71
    },
    {
      "id": "n-06896",
      "pitch": "F4",
      "midi": 65,
      "start": 275.313,
      "duration": 0.313,
      "velocity": 0.71
    },
    {
      "id": "n-06897",
      "pitch": "F5",
      "midi": 77,
      "start": 275.313,
      "duration": 0.313,
      "velocity": 0.71
    },
    {
      "id": "n-06898",
      "pitch": "F5",
      "midi": 77,
      "start": 275.313,
      "duration": 0.313,
      "velocity": 0.71
    },
    {
      "id": "n-06899",
      "pitch": "G2",
      "midi": 43,
      "start": 275.625,
      "duration": 0.313,
      "velocity": 0.71
    },
    {
      "id": "n-06900",
      "pitch": "G2",
      "midi": 43,
      "start": 275.625,
      "duration": 0.313,
      "velocity": 0.71
    },
    {
      "id": "n-06901",
      "pitch": "G3",
      "midi": 55,
      "start": 275.625,
      "duration": 0.313,
      "velocity": 0.71
    },
    {
      "id": "n-06902",
      "pitch": "G3",
      "midi": 55,
      "start": 275.625,
      "duration": 0.313,
      "velocity": 0.71
    },
    {
      "id": "n-06903",
      "pitch": "G3",
      "midi": 55,
      "start": 275.625,
      "duration": 0.313,
      "velocity": 0.71
    },
    {
      "id": "n-06904",
      "pitch": "G3",
      "midi": 55,
      "start": 275.625,
      "duration": 0.313,
      "velocity": 0.71
    },
    {
      "id": "n-06905",
      "pitch": "G4",
      "midi": 67,
      "start": 275.625,
      "duration": 0.313,
      "velocity": 0.71
    },
    {
      "id": "n-06906",
      "pitch": "G4",
      "midi": 67,
      "start": 275.625,
      "duration": 0.313,
      "velocity": 0.71
    },
    {
      "id": "n-06907",
      "pitch": "G4",
      "midi": 67,
      "start": 275.625,
      "duration": 0.313,
      "velocity": 0.71
    },
    {
      "id": "n-06908",
      "pitch": "C5",
      "midi": 72,
      "start": 275.625,
      "duration": 0.313,
      "velocity": 0.71
    },
    {
      "id": "n-06909",
      "pitch": "D5",
      "midi": 74,
      "start": 275.625,
      "duration": 0.313,
      "velocity": 0.71
    },
    {
      "id": "n-06910",
      "pitch": "G5",
      "midi": 79,
      "start": 275.625,
      "duration": 0.313,
      "velocity": 0.71
    },
    {
      "id": "n-06911",
      "pitch": "G5",
      "midi": 79,
      "start": 275.625,
      "duration": 0.313,
      "velocity": 0.71
    },
    {
      "id": "n-06912",
      "pitch": "G5",
      "midi": 79,
      "start": 275.625,
      "duration": 0.313,
      "velocity": 0.71
    },
    {
      "id": "n-06913",
      "pitch": "C6",
      "midi": 84,
      "start": 275.625,
      "duration": 0.313,
      "velocity": 0.71
    },
    {
      "id": "n-06914",
      "pitch": "D6",
      "midi": 86,
      "start": 275.625,
      "duration": 0.313,
      "velocity": 0.71
    },
    {
      "id": "n-06915",
      "pitch": "G6",
      "midi": 91,
      "start": 275.625,
      "duration": 0.313,
      "velocity": 0.71
    },
    {
      "id": "n-06916",
      "pitch": "F#4",
      "midi": 66,
      "start": 275.938,
      "duration": 0.313,
      "velocity": 0.71
    },
    {
      "id": "n-06917",
      "pitch": "F#5",
      "midi": 78,
      "start": 275.938,
      "duration": 0.313,
      "velocity": 0.71
    },
    {
      "id": "n-06918",
      "pitch": "F#5",
      "midi": 78,
      "start": 275.938,
      "duration": 0.313,
      "velocity": 0.71
    },
    {
      "id": "n-06919",
      "pitch": "G2",
      "midi": 43,
      "start": 276.25,
      "duration": 0.313,
      "velocity": 0.71
    },
    {
      "id": "n-06920",
      "pitch": "G2",
      "midi": 43,
      "start": 276.25,
      "duration": 0.313,
      "velocity": 0.71
    },
    {
      "id": "n-06921",
      "pitch": "G2",
      "midi": 43,
      "start": 276.25,
      "duration": 0.313,
      "velocity": 0.71
    },
    {
      "id": "n-06922",
      "pitch": "G2",
      "midi": 43,
      "start": 276.25,
      "duration": 0.313,
      "velocity": 0.71
    },
    {
      "id": "n-06923",
      "pitch": "G3",
      "midi": 55,
      "start": 276.25,
      "duration": 0.313,
      "velocity": 0.71
    },
    {
      "id": "n-06924",
      "pitch": "G4",
      "midi": 67,
      "start": 276.25,
      "duration": 0.313,
      "velocity": 0.71
    },
    {
      "id": "n-06925",
      "pitch": "G4",
      "midi": 67,
      "start": 276.25,
      "duration": 0.313,
      "velocity": 0.71
    },
    {
      "id": "n-06926",
      "pitch": "G4",
      "midi": 67,
      "start": 276.25,
      "duration": 0.313,
      "velocity": 0.71
    },
    {
      "id": "n-06927",
      "pitch": "B4",
      "midi": 71,
      "start": 276.25,
      "duration": 0.313,
      "velocity": 0.71
    },
    {
      "id": "n-06928",
      "pitch": "D5",
      "midi": 74,
      "start": 276.25,
      "duration": 0.313,
      "velocity": 0.71
    },
    {
      "id": "n-06929",
      "pitch": "G5",
      "midi": 79,
      "start": 276.25,
      "duration": 0.313,
      "velocity": 0.71
    },
    {
      "id": "n-06930",
      "pitch": "G5",
      "midi": 79,
      "start": 276.25,
      "duration": 0.313,
      "velocity": 0.71
    },
    {
      "id": "n-06931",
      "pitch": "G5",
      "midi": 79,
      "start": 276.25,
      "duration": 0.313,
      "velocity": 0.71
    },
    {
      "id": "n-06932",
      "pitch": "B5",
      "midi": 83,
      "start": 276.25,
      "duration": 0.313,
      "velocity": 0.71
    },
    {
      "id": "n-06933",
      "pitch": "D6",
      "midi": 86,
      "start": 276.25,
      "duration": 0.313,
      "velocity": 0.71
    },
    {
      "id": "n-06934",
      "pitch": "G6",
      "midi": 91,
      "start": 276.25,
      "duration": 0.313,
      "velocity": 0.71
    },
    {
      "id": "n-06935",
      "pitch": "G3",
      "midi": 55,
      "start": 276.563,
      "duration": 0.313,
      "velocity": 0.71
    },
    {
      "id": "n-06936",
      "pitch": "G4",
      "midi": 67,
      "start": 276.563,
      "duration": 0.313,
      "velocity": 0.71
    },
    {
      "id": "n-06937",
      "pitch": "G4",
      "midi": 67,
      "start": 276.563,
      "duration": 0.313,
      "velocity": 0.71
    },
    {
      "id": "n-06938",
      "pitch": "C3",
      "midi": 48,
      "start": 276.875,
      "duration": 0.625,
      "velocity": 0.71
    },
    {
      "id": "n-06939",
      "pitch": "C3",
      "midi": 48,
      "start": 276.875,
      "duration": 0.313,
      "velocity": 0.71
    },
    {
      "id": "n-06940",
      "pitch": "C3",
      "midi": 48,
      "start": 276.875,
      "duration": 0.313,
      "velocity": 0.71
    },
    {
      "id": "n-06941",
      "pitch": "C3",
      "midi": 48,
      "start": 276.875,
      "duration": 0.313,
      "velocity": 0.71
    },
    {
      "id": "n-06942",
      "pitch": "C4",
      "midi": 60,
      "start": 276.875,
      "duration": 0.625,
      "velocity": 0.71
    },
    {
      "id": "n-06943",
      "pitch": "C4",
      "midi": 60,
      "start": 276.875,
      "duration": 0.625,
      "velocity": 0.71
    },
    {
      "id": "n-06944",
      "pitch": "C4",
      "midi": 60,
      "start": 276.875,
      "duration": 0.313,
      "velocity": 0.71
    },
    {
      "id": "n-06945",
      "pitch": "C5",
      "midi": 72,
      "start": 276.875,
      "duration": 0.625,
      "velocity": 0.71
    },
    {
      "id": "n-06946",
      "pitch": "C5",
      "midi": 72,
      "start": 276.875,
      "duration": 0.625,
      "velocity": 0.71
    },
    {
      "id": "n-06947",
      "pitch": "C5",
      "midi": 72,
      "start": 276.875,
      "duration": 0.625,
      "velocity": 0.71
    },
    {
      "id": "n-06948",
      "pitch": "C5",
      "midi": 72,
      "start": 276.875,
      "duration": 0.313,
      "velocity": 0.71
    },
    {
      "id": "n-06949",
      "pitch": "C5",
      "midi": 72,
      "start": 276.875,
      "duration": 0.313,
      "velocity": 0.71
    },
    {
      "id": "n-06950",
      "pitch": "C6",
      "midi": 84,
      "start": 276.875,
      "duration": 0.625,
      "velocity": 0.71
    },
    {
      "id": "n-06951",
      "pitch": "C6",
      "midi": 84,
      "start": 276.875,
      "duration": 0.625,
      "velocity": 0.71
    },
    {
      "id": "n-06952",
      "pitch": "C3",
      "midi": 48,
      "start": 277.5,
      "duration": 0.313,
      "velocity": 0.71
    },
    {
      "id": "n-06953",
      "pitch": "D3",
      "midi": 50,
      "start": 277.5,
      "duration": 0.313,
      "velocity": 0.71
    },
    {
      "id": "n-06954",
      "pitch": "C4",
      "midi": 60,
      "start": 277.5,
      "duration": 0.313,
      "velocity": 0.71
    },
    {
      "id": "n-06955",
      "pitch": "D4",
      "midi": 62,
      "start": 277.5,
      "duration": 0.313,
      "velocity": 0.71
    },
    {
      "id": "n-06956",
      "pitch": "C5",
      "midi": 72,
      "start": 277.5,
      "duration": 0.313,
      "velocity": 0.71
    },
    {
      "id": "n-06957",
      "pitch": "C5",
      "midi": 72,
      "start": 277.5,
      "duration": 0.313,
      "velocity": 0.71
    },
    {
      "id": "n-06958",
      "pitch": "D5",
      "midi": 74,
      "start": 277.5,
      "duration": 0.313,
      "velocity": 0.71
    },
    {
      "id": "n-06959",
      "pitch": "C6",
      "midi": 84,
      "start": 277.5,
      "duration": 0.313,
      "velocity": 0.71
    },
    {
      "id": "n-06960",
      "pitch": "D6",
      "midi": 86,
      "start": 277.5,
      "duration": 0.313,
      "velocity": 0.71
    },
    {
      "id": "n-06961",
      "pitch": "C3",
      "midi": 48,
      "start": 277.813,
      "duration": 0.313,
      "velocity": 0.71
    },
    {
      "id": "n-06962",
      "pitch": "D#3",
      "midi": 51,
      "start": 277.813,
      "duration": 0.313,
      "velocity": 0.71
    },
    {
      "id": "n-06963",
      "pitch": "C4",
      "midi": 60,
      "start": 277.813,
      "duration": 0.313,
      "velocity": 0.71
    },
    {
      "id": "n-06964",
      "pitch": "D#4",
      "midi": 63,
      "start": 277.813,
      "duration": 0.313,
      "velocity": 0.71
    },
    {
      "id": "n-06965",
      "pitch": "C5",
      "midi": 72,
      "start": 277.813,
      "duration": 0.313,
      "velocity": 0.71
    },
    {
      "id": "n-06966",
      "pitch": "C5",
      "midi": 72,
      "start": 277.813,
      "duration": 0.313,
      "velocity": 0.71
    },
    {
      "id": "n-06967",
      "pitch": "D#5",
      "midi": 75,
      "start": 277.813,
      "duration": 0.313,
      "velocity": 0.71
    },
    {
      "id": "n-06968",
      "pitch": "C6",
      "midi": 84,
      "start": 277.813,
      "duration": 0.313,
      "velocity": 0.71
    },
    {
      "id": "n-06969",
      "pitch": "D#6",
      "midi": 87,
      "start": 277.813,
      "duration": 0.313,
      "velocity": 0.71
    },
    {
      "id": "n-06970",
      "pitch": "C3",
      "midi": 48,
      "start": 278.125,
      "duration": 0.313,
      "velocity": 0.71
    },
    {
      "id": "n-06971",
      "pitch": "F3",
      "midi": 53,
      "start": 278.125,
      "duration": 0.313,
      "velocity": 0.71
    },
    {
      "id": "n-06972",
      "pitch": "C4",
      "midi": 60,
      "start": 278.125,
      "duration": 0.625,
      "velocity": 0.71
    },
    {
      "id": "n-06973",
      "pitch": "F4",
      "midi": 65,
      "start": 278.125,
      "duration": 0.313,
      "velocity": 0.71
    },
    {
      "id": "n-06974",
      "pitch": "C5",
      "midi": 72,
      "start": 278.125,
      "duration": 0.625,
      "velocity": 0.71
    },
    {
      "id": "n-06975",
      "pitch": "C5",
      "midi": 72,
      "start": 278.125,
      "duration": 0.625,
      "velocity": 0.71
    },
    {
      "id": "n-06976",
      "pitch": "F5",
      "midi": 77,
      "start": 278.125,
      "duration": 0.313,
      "velocity": 0.71
    },
    {
      "id": "n-06977",
      "pitch": "C6",
      "midi": 84,
      "start": 278.125,
      "duration": 0.625,
      "velocity": 0.71
    },
    {
      "id": "n-06978",
      "pitch": "F6",
      "midi": 89,
      "start": 278.125,
      "duration": 0.313,
      "velocity": 0.71
    },
    {
      "id": "n-06979",
      "pitch": "D3",
      "midi": 50,
      "start": 278.438,
      "duration": 0.313,
      "velocity": 0.71
    },
    {
      "id": "n-06980",
      "pitch": "D4",
      "midi": 62,
      "start": 278.438,
      "duration": 0.313,
      "velocity": 0.71
    },
    {
      "id": "n-06981",
      "pitch": "D5",
      "midi": 74,
      "start": 278.438,
      "duration": 0.313,
      "velocity": 0.71
    },
    {
      "id": "n-06982",
      "pitch": "D6",
      "midi": 86,
      "start": 278.438,
      "duration": 0.313,
      "velocity": 0.71
    },
    {
      "id": "n-06983",
      "pitch": "C3",
      "midi": 48,
      "start": 278.75,
      "duration": 0.313,
      "velocity": 0.71
    },
    {
      "id": "n-06984",
      "pitch": "D#3",
      "midi": 51,
      "start": 278.75,
      "duration": 0.313,
      "velocity": 0.71
    },
    {
      "id": "n-06985",
      "pitch": "D#3",
      "midi": 51,
      "start": 278.75,
      "duration": 0.313,
      "velocity": 0.71
    },
    {
      "id": "n-06986",
      "pitch": "D#3",
      "midi": 51,
      "start": 278.75,
      "duration": 0.313,
      "velocity": 0.71
    },
    {
      "id": "n-06987",
      "pitch": "C4",
      "midi": 60,
      "start": 278.75,
      "duration": 0.313,
      "velocity": 0.71
    },
    {
      "id": "n-06988",
      "pitch": "D#4",
      "midi": 63,
      "start": 278.75,
      "duration": 0.313,
      "velocity": 0.71
    },
    {
      "id": "n-06989",
      "pitch": "D#4",
      "midi": 63,
      "start": 278.75,
      "duration": 0.313,
      "velocity": 0.71
    },
    {
      "id": "n-06990",
      "pitch": "C5",
      "midi": 72,
      "start": 278.75,
      "duration": 0.313,
      "velocity": 0.71
    },
    {
      "id": "n-06991",
      "pitch": "C3",
      "midi": 48,
      "start": 279.063,
      "duration": 0.313,
      "velocity": 0.71
    },
    {
      "id": "n-06992",
      "pitch": "F3",
      "midi": 53,
      "start": 279.063,
      "duration": 0.313,
      "velocity": 0.71
    },
    {
      "id": "n-06993",
      "pitch": "F3",
      "midi": 53,
      "start": 279.063,
      "duration": 0.313,
      "velocity": 0.71
    },
    {
      "id": "n-06994",
      "pitch": "F3",
      "midi": 53,
      "start": 279.063,
      "duration": 0.313,
      "velocity": 0.71
    },
    {
      "id": "n-06995",
      "pitch": "C4",
      "midi": 60,
      "start": 279.063,
      "duration": 0.313,
      "velocity": 0.71
    },
    {
      "id": "n-06996",
      "pitch": "F4",
      "midi": 65,
      "start": 279.063,
      "duration": 0.313,
      "velocity": 0.71
    },
    {
      "id": "n-06997",
      "pitch": "F4",
      "midi": 65,
      "start": 279.063,
      "duration": 0.313,
      "velocity": 0.71
    },
    {
      "id": "n-06998",
      "pitch": "C5",
      "midi": 72,
      "start": 279.063,
      "duration": 0.313,
      "velocity": 0.71
    },
    {
      "id": "n-06999",
      "pitch": "C3",
      "midi": 48,
      "start": 279.375,
      "duration": 0.313,
      "velocity": 0.71
    },
    {
      "id": "n-07000",
      "pitch": "G3",
      "midi": 55,
      "start": 279.375,
      "duration": 0.313,
      "velocity": 0.71
    },
    {
      "id": "n-07001",
      "pitch": "G3",
      "midi": 55,
      "start": 279.375,
      "duration": 0.313,
      "velocity": 0.71
    },
    {
      "id": "n-07002",
      "pitch": "G3",
      "midi": 55,
      "start": 279.375,
      "duration": 0.313,
      "velocity": 0.71
    },
    {
      "id": "n-07003",
      "pitch": "C4",
      "midi": 60,
      "start": 279.375,
      "duration": 0.625,
      "velocity": 0.71
    },
    {
      "id": "n-07004",
      "pitch": "G4",
      "midi": 67,
      "start": 279.375,
      "duration": 0.313,
      "velocity": 0.71
    },
    {
      "id": "n-07005",
      "pitch": "G4",
      "midi": 67,
      "start": 279.375,
      "duration": 0.313,
      "velocity": 0.71
    },
    {
      "id": "n-07006",
      "pitch": "C5",
      "midi": 72,
      "start": 279.375,
      "duration": 0.625,
      "velocity": 0.71
    },
    {
      "id": "n-07007",
      "pitch": "D#3",
      "midi": 51,
      "start": 279.688,
      "duration": 0.313,
      "velocity": 0.71
    },
    {
      "id": "n-07008",
      "pitch": "D#3",
      "midi": 51,
      "start": 279.688,
      "duration": 0.313,
      "velocity": 0.71
    },
    {
      "id": "n-07009",
      "pitch": "D#3",
      "midi": 51,
      "start": 279.688,
      "duration": 0.313,
      "velocity": 0.71
    },
    {
      "id": "n-07010",
      "pitch": "D#4",
      "midi": 63,
      "start": 279.688,
      "duration": 0.313,
      "velocity": 0.71
    },
    {
      "id": "n-07011",
      "pitch": "D#4",
      "midi": 63,
      "start": 279.688,
      "duration": 0.313,
      "velocity": 0.71
    },
    {
      "id": "n-07012",
      "pitch": "C3",
      "midi": 48,
      "start": 280,
      "duration": 0.313,
      "velocity": 0.71
    },
    {
      "id": "n-07013",
      "pitch": "F3",
      "midi": 53,
      "start": 280,
      "duration": 0.313,
      "velocity": 0.71
    },
    {
      "id": "n-07014",
      "pitch": "C4",
      "midi": 60,
      "start": 280,
      "duration": 0.313,
      "velocity": 0.71
    },
    {
      "id": "n-07015",
      "pitch": "F4",
      "midi": 65,
      "start": 280,
      "duration": 0.313,
      "velocity": 0.71
    },
    {
      "id": "n-07016",
      "pitch": "C5",
      "midi": 72,
      "start": 280,
      "duration": 0.313,
      "velocity": 0.71
    },
    {
      "id": "n-07017",
      "pitch": "C5",
      "midi": 72,
      "start": 280,
      "duration": 0.313,
      "velocity": 0.71
    },
    {
      "id": "n-07018",
      "pitch": "F5",
      "midi": 77,
      "start": 280,
      "duration": 0.313,
      "velocity": 0.71
    },
    {
      "id": "n-07019",
      "pitch": "F5",
      "midi": 77,
      "start": 280,
      "duration": 0.313,
      "velocity": 0.71
    },
    {
      "id": "n-07020",
      "pitch": "C6",
      "midi": 84,
      "start": 280,
      "duration": 0.313,
      "velocity": 0.71
    },
    {
      "id": "n-07021",
      "pitch": "F6",
      "midi": 89,
      "start": 280,
      "duration": 0.313,
      "velocity": 0.71
    },
    {
      "id": "n-07022",
      "pitch": "C3",
      "midi": 48,
      "start": 280.313,
      "duration": 0.313,
      "velocity": 0.71
    },
    {
      "id": "n-07023",
      "pitch": "G3",
      "midi": 55,
      "start": 280.313,
      "duration": 0.313,
      "velocity": 0.71
    },
    {
      "id": "n-07024",
      "pitch": "C4",
      "midi": 60,
      "start": 280.313,
      "duration": 0.313,
      "velocity": 0.71
    },
    {
      "id": "n-07025",
      "pitch": "G4",
      "midi": 67,
      "start": 280.313,
      "duration": 0.313,
      "velocity": 0.71
    },
    {
      "id": "n-07026",
      "pitch": "C5",
      "midi": 72,
      "start": 280.313,
      "duration": 0.313,
      "velocity": 0.71
    },
    {
      "id": "n-07027",
      "pitch": "C5",
      "midi": 72,
      "start": 280.313,
      "duration": 0.313,
      "velocity": 0.71
    },
    {
      "id": "n-07028",
      "pitch": "G5",
      "midi": 79,
      "start": 280.313,
      "duration": 0.313,
      "velocity": 0.71
    },
    {
      "id": "n-07029",
      "pitch": "G5",
      "midi": 79,
      "start": 280.313,
      "duration": 0.313,
      "velocity": 0.71
    },
    {
      "id": "n-07030",
      "pitch": "C6",
      "midi": 84,
      "start": 280.313,
      "duration": 0.313,
      "velocity": 0.71
    },
    {
      "id": "n-07031",
      "pitch": "G6",
      "midi": 91,
      "start": 280.313,
      "duration": 0.313,
      "velocity": 0.71
    },
    {
      "id": "n-07032",
      "pitch": "C3",
      "midi": 48,
      "start": 280.625,
      "duration": 0.313,
      "velocity": 0.71
    },
    {
      "id": "n-07033",
      "pitch": "G#3",
      "midi": 56,
      "start": 280.625,
      "duration": 0.313,
      "velocity": 0.71
    },
    {
      "id": "n-07034",
      "pitch": "C4",
      "midi": 60,
      "start": 280.625,
      "duration": 0.625,
      "velocity": 0.71
    },
    {
      "id": "n-07035",
      "pitch": "G#4",
      "midi": 68,
      "start": 280.625,
      "duration": 0.313,
      "velocity": 0.71
    },
    {
      "id": "n-07036",
      "pitch": "C5",
      "midi": 72,
      "start": 280.625,
      "duration": 0.625,
      "velocity": 0.71
    },
    {
      "id": "n-07037",
      "pitch": "C5",
      "midi": 72,
      "start": 280.625,
      "duration": 0.625,
      "velocity": 0.71
    },
    {
      "id": "n-07038",
      "pitch": "G#5",
      "midi": 80,
      "start": 280.625,
      "duration": 0.313,
      "velocity": 0.71
    },
    {
      "id": "n-07039",
      "pitch": "G#5",
      "midi": 80,
      "start": 280.625,
      "duration": 0.313,
      "velocity": 0.71
    },
    {
      "id": "n-07040",
      "pitch": "C6",
      "midi": 84,
      "start": 280.625,
      "duration": 0.625,
      "velocity": 0.71
    },
    {
      "id": "n-07041",
      "pitch": "G#6",
      "midi": 92,
      "start": 280.625,
      "duration": 0.313,
      "velocity": 0.71
    },
    {
      "id": "n-07042",
      "pitch": "F3",
      "midi": 53,
      "start": 280.938,
      "duration": 0.313,
      "velocity": 0.71
    },
    {
      "id": "n-07043",
      "pitch": "F4",
      "midi": 65,
      "start": 280.938,
      "duration": 0.313,
      "velocity": 0.71
    },
    {
      "id": "n-07044",
      "pitch": "F5",
      "midi": 77,
      "start": 280.938,
      "duration": 0.313,
      "velocity": 0.71
    },
    {
      "id": "n-07045",
      "pitch": "F5",
      "midi": 77,
      "start": 280.938,
      "duration": 0.313,
      "velocity": 0.71
    },
    {
      "id": "n-07046",
      "pitch": "F6",
      "midi": 89,
      "start": 280.938,
      "duration": 0.313,
      "velocity": 0.71
    },
    {
      "id": "n-07047",
      "pitch": "G2",
      "midi": 43,
      "start": 281.25,
      "duration": 0.313,
      "velocity": 0.71
    },
    {
      "id": "n-07048",
      "pitch": "G2",
      "midi": 43,
      "start": 281.25,
      "duration": 0.313,
      "velocity": 0.71
    },
    {
      "id": "n-07049",
      "pitch": "G2",
      "midi": 43,
      "start": 281.25,
      "duration": 0.313,
      "velocity": 0.71
    },
    {
      "id": "n-07050",
      "pitch": "G3",
      "midi": 55,
      "start": 281.25,
      "duration": 0.313,
      "velocity": 0.71
    },
    {
      "id": "n-07051",
      "pitch": "G3",
      "midi": 55,
      "start": 281.25,
      "duration": 0.313,
      "velocity": 0.71
    },
    {
      "id": "n-07052",
      "pitch": "B3",
      "midi": 59,
      "start": 281.25,
      "duration": 0.313,
      "velocity": 0.71
    },
    {
      "id": "n-07053",
      "pitch": "G4",
      "midi": 67,
      "start": 281.25,
      "duration": 0.313,
      "velocity": 0.71
    },
    {
      "id": "n-07054",
      "pitch": "B4",
      "midi": 71,
      "start": 281.25,
      "duration": 0.313,
      "velocity": 0.71
    },
    {
      "id": "n-07055",
      "pitch": "G2",
      "midi": 43,
      "start": 281.563,
      "duration": 0.313,
      "velocity": 0.71
    },
    {
      "id": "n-07056",
      "pitch": "A2",
      "midi": 45,
      "start": 281.563,
      "duration": 0.313,
      "velocity": 0.71
    },
    {
      "id": "n-07057",
      "pitch": "A2",
      "midi": 45,
      "start": 281.563,
      "duration": 0.313,
      "velocity": 0.71
    },
    {
      "id": "n-07058",
      "pitch": "G3",
      "midi": 55,
      "start": 281.563,
      "duration": 0.313,
      "velocity": 0.71
    },
    {
      "id": "n-07059",
      "pitch": "A3",
      "midi": 57,
      "start": 281.563,
      "duration": 0.313,
      "velocity": 0.71
    },
    {
      "id": "n-07060",
      "pitch": "C4",
      "midi": 60,
      "start": 281.563,
      "duration": 0.313,
      "velocity": 0.71
    },
    {
      "id": "n-07061",
      "pitch": "G4",
      "midi": 67,
      "start": 281.563,
      "duration": 0.313,
      "velocity": 0.71
    },
    {
      "id": "n-07062",
      "pitch": "C5",
      "midi": 72,
      "start": 281.563,
      "duration": 0.313,
      "velocity": 0.71
    },
    {
      "id": "n-07063",
      "pitch": "G2",
      "midi": 43,
      "start": 281.875,
      "duration": 0.313,
      "velocity": 0.71
    },
    {
      "id": "n-07064",
      "pitch": "B2",
      "midi": 47,
      "start": 281.875,
      "duration": 0.313,
      "velocity": 0.71
    },
    {
      "id": "n-07065",
      "pitch": "B2",
      "midi": 47,
      "start": 281.875,
      "duration": 0.313,
      "velocity": 0.71
    },
    {
      "id": "n-07066",
      "pitch": "G3",
      "midi": 55,
      "start": 281.875,
      "duration": 0.625,
      "velocity": 0.71
    },
    {
      "id": "n-07067",
      "pitch": "B3",
      "midi": 59,
      "start": 281.875,
      "duration": 0.313,
      "velocity": 0.71
    },
    {
      "id": "n-07068",
      "pitch": "D4",
      "midi": 62,
      "start": 281.875,
      "duration": 0.313,
      "velocity": 0.71
    },
    {
      "id": "n-07069",
      "pitch": "G4",
      "midi": 67,
      "start": 281.875,
      "duration": 0.625,
      "velocity": 0.71
    },
    {
      "id": "n-07070",
      "pitch": "D5",
      "midi": 74,
      "start": 281.875,
      "duration": 0.313,
      "velocity": 0.71
    },
    {
      "id": "n-07071",
      "pitch": "G2",
      "midi": 43,
      "start": 282.188,
      "duration": 0.313,
      "velocity": 0.71
    },
    {
      "id": "n-07072",
      "pitch": "G2",
      "midi": 43,
      "start": 282.188,
      "duration": 0.313,
      "velocity": 0.71
    },
    {
      "id": "n-07073",
      "pitch": "G3",
      "midi": 55,
      "start": 282.188,
      "duration": 0.313,
      "velocity": 0.71
    },
    {
      "id": "n-07074",
      "pitch": "B3",
      "midi": 59,
      "start": 282.188,
      "duration": 0.313,
      "velocity": 0.71
    },
    {
      "id": "n-07075",
      "pitch": "B4",
      "midi": 71,
      "start": 282.188,
      "duration": 0.313,
      "velocity": 0.71
    },
    {
      "id": "n-07076",
      "pitch": "G3",
      "midi": 55,
      "start": 282.5,
      "duration": 0.313,
      "velocity": 0.71
    },
    {
      "id": "n-07077",
      "pitch": "A3",
      "midi": 57,
      "start": 282.5,
      "duration": 0.313,
      "velocity": 0.71
    },
    {
      "id": "n-07078",
      "pitch": "C4",
      "midi": 60,
      "start": 282.5,
      "duration": 0.313,
      "velocity": 0.71
    },
    {
      "id": "n-07079",
      "pitch": "G4",
      "midi": 67,
      "start": 282.5,
      "duration": 0.313,
      "velocity": 0.71
    },
    {
      "id": "n-07080",
      "pitch": "G4",
      "midi": 67,
      "start": 282.5,
      "duration": 0.313,
      "velocity": 0.71
    },
    {
      "id": "n-07081",
      "pitch": "G4",
      "midi": 67,
      "start": 282.5,
      "duration": 0.313,
      "velocity": 0.71
    },
    {
      "id": "n-07082",
      "pitch": "A4",
      "midi": 69,
      "start": 282.5,
      "duration": 0.313,
      "velocity": 0.71
    },
    {
      "id": "n-07083",
      "pitch": "C5",
      "midi": 72,
      "start": 282.5,
      "duration": 0.313,
      "velocity": 0.71
    },
    {
      "id": "n-07084",
      "pitch": "G5",
      "midi": 79,
      "start": 282.5,
      "duration": 0.313,
      "velocity": 0.71
    },
    {
      "id": "n-07085",
      "pitch": "A5",
      "midi": 81,
      "start": 282.5,
      "duration": 0.313,
      "velocity": 0.71
    },
    {
      "id": "n-07086",
      "pitch": "C6",
      "midi": 84,
      "start": 282.5,
      "duration": 0.313,
      "velocity": 0.71
    },
    {
      "id": "n-07087",
      "pitch": "G3",
      "midi": 55,
      "start": 282.813,
      "duration": 0.313,
      "velocity": 0.71
    },
    {
      "id": "n-07088",
      "pitch": "B3",
      "midi": 59,
      "start": 282.813,
      "duration": 0.313,
      "velocity": 0.71
    },
    {
      "id": "n-07089",
      "pitch": "D4",
      "midi": 62,
      "start": 282.813,
      "duration": 0.313,
      "velocity": 0.71
    },
    {
      "id": "n-07090",
      "pitch": "G4",
      "midi": 67,
      "start": 282.813,
      "duration": 0.313,
      "velocity": 0.71
    },
    {
      "id": "n-07091",
      "pitch": "G4",
      "midi": 67,
      "start": 282.813,
      "duration": 0.313,
      "velocity": 0.71
    },
    {
      "id": "n-07092",
      "pitch": "G4",
      "midi": 67,
      "start": 282.813,
      "duration": 0.313,
      "velocity": 0.71
    },
    {
      "id": "n-07093",
      "pitch": "B4",
      "midi": 71,
      "start": 282.813,
      "duration": 0.313,
      "velocity": 0.71
    },
    {
      "id": "n-07094",
      "pitch": "D5",
      "midi": 74,
      "start": 282.813,
      "duration": 0.313,
      "velocity": 0.71
    },
    {
      "id": "n-07095",
      "pitch": "G5",
      "midi": 79,
      "start": 282.813,
      "duration": 0.313,
      "velocity": 0.71
    },
    {
      "id": "n-07096",
      "pitch": "B5",
      "midi": 83,
      "start": 282.813,
      "duration": 0.313,
      "velocity": 0.71
    },
    {
      "id": "n-07097",
      "pitch": "D6",
      "midi": 86,
      "start": 282.813,
      "duration": 0.313,
      "velocity": 0.71
    },
    {
      "id": "n-07098",
      "pitch": "G3",
      "midi": 55,
      "start": 283.125,
      "duration": 0.625,
      "velocity": 0.71
    },
    {
      "id": "n-07099",
      "pitch": "C4",
      "midi": 60,
      "start": 283.125,
      "duration": 0.313,
      "velocity": 0.71
    },
    {
      "id": "n-07100",
      "pitch": "D#4",
      "midi": 63,
      "start": 283.125,
      "duration": 0.313,
      "velocity": 0.71
    },
    {
      "id": "n-07101",
      "pitch": "G4",
      "midi": 67,
      "start": 283.125,
      "duration": 0.625,
      "velocity": 0.71
    },
    {
      "id": "n-07102",
      "pitch": "G4",
      "midi": 67,
      "start": 283.125,
      "duration": 0.625,
      "velocity": 0.71
    },
    {
      "id": "n-07103",
      "pitch": "G4",
      "midi": 67,
      "start": 283.125,
      "duration": 0.625,
      "velocity": 0.71
    },
    {
      "id": "n-07104",
      "pitch": "C5",
      "midi": 72,
      "start": 283.125,
      "duration": 0.313,
      "velocity": 0.71
    },
    {
      "id": "n-07105",
      "pitch": "D#5",
      "midi": 75,
      "start": 283.125,
      "duration": 0.313,
      "velocity": 0.71
    },
    {
      "id": "n-07106",
      "pitch": "G5",
      "midi": 79,
      "start": 283.125,
      "duration": 0.625,
      "velocity": 0.71
    },
    {
      "id": "n-07107",
      "pitch": "C6",
      "midi": 84,
      "start": 283.125,
      "duration": 0.313,
      "velocity": 0.71
    },
    {
      "id": "n-07108",
      "pitch": "D#6",
      "midi": 87,
      "start": 283.125,
      "duration": 0.313,
      "velocity": 0.71
    },
    {
      "id": "n-07109",
      "pitch": "G3",
      "midi": 55,
      "start": 283.438,
      "duration": 0.313,
      "velocity": 0.71
    },
    {
      "id": "n-07110",
      "pitch": "C4",
      "midi": 60,
      "start": 283.438,
      "duration": 0.313,
      "velocity": 0.71
    },
    {
      "id": "n-07111",
      "pitch": "G4",
      "midi": 67,
      "start": 283.438,
      "duration": 0.313,
      "velocity": 0.71
    },
    {
      "id": "n-07112",
      "pitch": "C5",
      "midi": 72,
      "start": 283.438,
      "duration": 0.313,
      "velocity": 0.71
    },
    {
      "id": "n-07113",
      "pitch": "G5",
      "midi": 79,
      "start": 283.438,
      "duration": 0.313,
      "velocity": 0.71
    },
    {
      "id": "n-07114",
      "pitch": "C6",
      "midi": 84,
      "start": 283.438,
      "duration": 0.313,
      "velocity": 0.71
    },
    {
      "id": "n-07115",
      "pitch": "G2",
      "midi": 43,
      "start": 283.75,
      "duration": 0.313,
      "velocity": 0.71
    },
    {
      "id": "n-07116",
      "pitch": "G2",
      "midi": 43,
      "start": 283.75,
      "duration": 0.313,
      "velocity": 0.71
    },
    {
      "id": "n-07117",
      "pitch": "G2",
      "midi": 43,
      "start": 283.75,
      "duration": 0.313,
      "velocity": 0.71
    },
    {
      "id": "n-07118",
      "pitch": "G3",
      "midi": 55,
      "start": 283.75,
      "duration": 0.313,
      "velocity": 0.71
    },
    {
      "id": "n-07119",
      "pitch": "G3",
      "midi": 55,
      "start": 283.75,
      "duration": 0.313,
      "velocity": 0.71
    },
    {
      "id": "n-07120",
      "pitch": "B3",
      "midi": 59,
      "start": 283.75,
      "duration": 0.313,
      "velocity": 0.71
    },
    {
      "id": "n-07121",
      "pitch": "G4",
      "midi": 67,
      "start": 283.75,
      "duration": 0.313,
      "velocity": 0.71
    },
    {
      "id": "n-07122",
      "pitch": "B4",
      "midi": 71,
      "start": 283.75,
      "duration": 0.313,
      "velocity": 0.71
    },
    {
      "id": "n-07123",
      "pitch": "G2",
      "midi": 43,
      "start": 284.063,
      "duration": 0.313,
      "velocity": 0.71
    },
    {
      "id": "n-07124",
      "pitch": "A2",
      "midi": 45,
      "start": 284.063,
      "duration": 0.313,
      "velocity": 0.71
    },
    {
      "id": "n-07125",
      "pitch": "A2",
      "midi": 45,
      "start": 284.063,
      "duration": 0.313,
      "velocity": 0.71
    },
    {
      "id": "n-07126",
      "pitch": "G3",
      "midi": 55,
      "start": 284.063,
      "duration": 0.313,
      "velocity": 0.71
    },
    {
      "id": "n-07127",
      "pitch": "A3",
      "midi": 57,
      "start": 284.063,
      "duration": 0.313,
      "velocity": 0.71
    },
    {
      "id": "n-07128",
      "pitch": "C4",
      "midi": 60,
      "start": 284.063,
      "duration": 0.313,
      "velocity": 0.71
    },
    {
      "id": "n-07129",
      "pitch": "G4",
      "midi": 67,
      "start": 284.063,
      "duration": 0.313,
      "velocity": 0.71
    },
    {
      "id": "n-07130",
      "pitch": "C5",
      "midi": 72,
      "start": 284.063,
      "duration": 0.313,
      "velocity": 0.71
    },
    {
      "id": "n-07131",
      "pitch": "G2",
      "midi": 43,
      "start": 284.375,
      "duration": 0.313,
      "velocity": 0.71
    },
    {
      "id": "n-07132",
      "pitch": "B2",
      "midi": 47,
      "start": 284.375,
      "duration": 0.313,
      "velocity": 0.71
    },
    {
      "id": "n-07133",
      "pitch": "B2",
      "midi": 47,
      "start": 284.375,
      "duration": 0.313,
      "velocity": 0.71
    },
    {
      "id": "n-07134",
      "pitch": "G3",
      "midi": 55,
      "start": 284.375,
      "duration": 0.625,
      "velocity": 0.71
    },
    {
      "id": "n-07135",
      "pitch": "B3",
      "midi": 59,
      "start": 284.375,
      "duration": 0.313,
      "velocity": 0.71
    },
    {
      "id": "n-07136",
      "pitch": "D4",
      "midi": 62,
      "start": 284.375,
      "duration": 0.313,
      "velocity": 0.71
    },
    {
      "id": "n-07137",
      "pitch": "G4",
      "midi": 67,
      "start": 284.375,
      "duration": 0.625,
      "velocity": 0.71
    },
    {
      "id": "n-07138",
      "pitch": "D5",
      "midi": 74,
      "start": 284.375,
      "duration": 0.313,
      "velocity": 0.71
    },
    {
      "id": "n-07139",
      "pitch": "G2",
      "midi": 43,
      "start": 284.688,
      "duration": 0.313,
      "velocity": 0.71
    },
    {
      "id": "n-07140",
      "pitch": "G2",
      "midi": 43,
      "start": 284.688,
      "duration": 0.313,
      "velocity": 0.71
    },
    {
      "id": "n-07141",
      "pitch": "G3",
      "midi": 55,
      "start": 284.688,
      "duration": 0.313,
      "velocity": 0.71
    },
    {
      "id": "n-07142",
      "pitch": "B3",
      "midi": 59,
      "start": 284.688,
      "duration": 0.313,
      "velocity": 0.71
    },
    {
      "id": "n-07143",
      "pitch": "B4",
      "midi": 71,
      "start": 284.688,
      "duration": 0.313,
      "velocity": 0.71
    },
    {
      "id": "n-07144",
      "pitch": "G3",
      "midi": 55,
      "start": 285,
      "duration": 0.313,
      "velocity": 0.71
    },
    {
      "id": "n-07145",
      "pitch": "A3",
      "midi": 57,
      "start": 285,
      "duration": 0.313,
      "velocity": 0.71
    },
    {
      "id": "n-07146",
      "pitch": "C4",
      "midi": 60,
      "start": 285,
      "duration": 0.313,
      "velocity": 0.71
    },
    {
      "id": "n-07147",
      "pitch": "G4",
      "midi": 67,
      "start": 285,
      "duration": 0.313,
      "velocity": 0.71
    },
    {
      "id": "n-07148",
      "pitch": "G4",
      "midi": 67,
      "start": 285,
      "duration": 0.313,
      "velocity": 0.71
    },
    {
      "id": "n-07149",
      "pitch": "G4",
      "midi": 67,
      "start": 285,
      "duration": 0.313,
      "velocity": 0.71
    },
    {
      "id": "n-07150",
      "pitch": "A4",
      "midi": 69,
      "start": 285,
      "duration": 0.313,
      "velocity": 0.71
    },
    {
      "id": "n-07151",
      "pitch": "C5",
      "midi": 72,
      "start": 285,
      "duration": 0.313,
      "velocity": 0.71
    },
    {
      "id": "n-07152",
      "pitch": "G5",
      "midi": 79,
      "start": 285,
      "duration": 0.313,
      "velocity": 0.71
    },
    {
      "id": "n-07153",
      "pitch": "A5",
      "midi": 81,
      "start": 285,
      "duration": 0.313,
      "velocity": 0.71
    },
    {
      "id": "n-07154",
      "pitch": "C6",
      "midi": 84,
      "start": 285,
      "duration": 0.313,
      "velocity": 0.71
    },
    {
      "id": "n-07155",
      "pitch": "G3",
      "midi": 55,
      "start": 285.313,
      "duration": 0.313,
      "velocity": 0.71
    },
    {
      "id": "n-07156",
      "pitch": "B3",
      "midi": 59,
      "start": 285.313,
      "duration": 0.313,
      "velocity": 0.71
    },
    {
      "id": "n-07157",
      "pitch": "D4",
      "midi": 62,
      "start": 285.313,
      "duration": 0.313,
      "velocity": 0.71
    },
    {
      "id": "n-07158",
      "pitch": "G4",
      "midi": 67,
      "start": 285.313,
      "duration": 0.313,
      "velocity": 0.71
    },
    {
      "id": "n-07159",
      "pitch": "G4",
      "midi": 67,
      "start": 285.313,
      "duration": 0.313,
      "velocity": 0.71
    },
    {
      "id": "n-07160",
      "pitch": "G4",
      "midi": 67,
      "start": 285.313,
      "duration": 0.313,
      "velocity": 0.71
    },
    {
      "id": "n-07161",
      "pitch": "B4",
      "midi": 71,
      "start": 285.313,
      "duration": 0.313,
      "velocity": 0.71
    },
    {
      "id": "n-07162",
      "pitch": "D5",
      "midi": 74,
      "start": 285.313,
      "duration": 0.313,
      "velocity": 0.71
    },
    {
      "id": "n-07163",
      "pitch": "G5",
      "midi": 79,
      "start": 285.313,
      "duration": 0.313,
      "velocity": 0.71
    },
    {
      "id": "n-07164",
      "pitch": "B5",
      "midi": 83,
      "start": 285.313,
      "duration": 0.313,
      "velocity": 0.71
    },
    {
      "id": "n-07165",
      "pitch": "D6",
      "midi": 86,
      "start": 285.313,
      "duration": 0.313,
      "velocity": 0.71
    },
    {
      "id": "n-07166",
      "pitch": "C4",
      "midi": 60,
      "start": 285.625,
      "duration": 0.313,
      "velocity": 0.71
    },
    {
      "id": "n-07167",
      "pitch": "C4",
      "midi": 60,
      "start": 285.625,
      "duration": 0.313,
      "velocity": 0.71
    },
    {
      "id": "n-07168",
      "pitch": "D#4",
      "midi": 63,
      "start": 285.625,
      "duration": 0.313,
      "velocity": 0.71
    },
    {
      "id": "n-07169",
      "pitch": "G4",
      "midi": 67,
      "start": 285.625,
      "duration": 0.625,
      "velocity": 0.71
    },
    {
      "id": "n-07170",
      "pitch": "G4",
      "midi": 67,
      "start": 285.625,
      "duration": 0.625,
      "velocity": 0.71
    },
    {
      "id": "n-07171",
      "pitch": "G4",
      "midi": 67,
      "start": 285.625,
      "duration": 0.313,
      "velocity": 0.71
    },
    {
      "id": "n-07172",
      "pitch": "C5",
      "midi": 72,
      "start": 285.625,
      "duration": 0.313,
      "velocity": 0.71
    },
    {
      "id": "n-07173",
      "pitch": "D#5",
      "midi": 75,
      "start": 285.625,
      "duration": 0.313,
      "velocity": 0.71
    },
    {
      "id": "n-07174",
      "pitch": "G5",
      "midi": 79,
      "start": 285.625,
      "duration": 0.625,
      "velocity": 0.71
    },
    {
      "id": "n-07175",
      "pitch": "C6",
      "midi": 84,
      "start": 285.625,
      "duration": 0.313,
      "velocity": 0.71
    },
    {
      "id": "n-07176",
      "pitch": "D#6",
      "midi": 87,
      "start": 285.625,
      "duration": 0.313,
      "velocity": 0.71
    },
    {
      "id": "n-07177",
      "pitch": "G3",
      "midi": 55,
      "start": 285.938,
      "duration": 0.313,
      "velocity": 0.71
    },
    {
      "id": "n-07178",
      "pitch": "D4",
      "midi": 62,
      "start": 285.938,
      "duration": 0.313,
      "velocity": 0.71
    },
    {
      "id": "n-07179",
      "pitch": "A#4",
      "midi": 70,
      "start": 285.938,
      "duration": 0.313,
      "velocity": 0.71
    },
    {
      "id": "n-07180",
      "pitch": "D5",
      "midi": 74,
      "start": 285.938,
      "duration": 0.313,
      "velocity": 0.71
    },
    {
      "id": "n-07181",
      "pitch": "A#5",
      "midi": 82,
      "start": 285.938,
      "duration": 0.313,
      "velocity": 0.71
    },
    {
      "id": "n-07182",
      "pitch": "D6",
      "midi": 86,
      "start": 285.938,
      "duration": 0.313,
      "velocity": 0.71
    },
    {
      "id": "n-07183",
      "pitch": "G#3",
      "midi": 56,
      "start": 286.25,
      "duration": 0.313,
      "velocity": 0.71
    },
    {
      "id": "n-07184",
      "pitch": "C4",
      "midi": 60,
      "start": 286.25,
      "duration": 0.313,
      "velocity": 0.71
    },
    {
      "id": "n-07185",
      "pitch": "D#4",
      "midi": 63,
      "start": 286.25,
      "duration": 0.313,
      "velocity": 0.71
    },
    {
      "id": "n-07186",
      "pitch": "G#4",
      "midi": 68,
      "start": 286.25,
      "duration": 0.313,
      "velocity": 0.71
    },
    {
      "id": "n-07187",
      "pitch": "C5",
      "midi": 72,
      "start": 286.25,
      "duration": 0.313,
      "velocity": 0.71
    },
    {
      "id": "n-07188",
      "pitch": "G#5",
      "midi": 80,
      "start": 286.25,
      "duration": 0.313,
      "velocity": 0.71
    },
    {
      "id": "n-07189",
      "pitch": "G#5",
      "midi": 80,
      "start": 286.25,
      "duration": 0.313,
      "velocity": 0.71
    },
    {
      "id": "n-07190",
      "pitch": "C6",
      "midi": 84,
      "start": 286.25,
      "duration": 0.313,
      "velocity": 0.71
    },
    {
      "id": "n-07191",
      "pitch": "C6",
      "midi": 84,
      "start": 286.25,
      "duration": 0.313,
      "velocity": 0.71
    },
    {
      "id": "n-07192",
      "pitch": "D#3",
      "midi": 51,
      "start": 286.563,
      "duration": 0.313,
      "velocity": 0.71
    },
    {
      "id": "n-07193",
      "pitch": "A#3",
      "midi": 58,
      "start": 286.563,
      "duration": 0.313,
      "velocity": 0.71
    },
    {
      "id": "n-07194",
      "pitch": "D#4",
      "midi": 63,
      "start": 286.563,
      "duration": 0.313,
      "velocity": 0.71
    },
    {
      "id": "n-07195",
      "pitch": "G4",
      "midi": 67,
      "start": 286.563,
      "duration": 0.313,
      "velocity": 0.71
    },
    {
      "id": "n-07196",
      "pitch": "A#4",
      "midi": 70,
      "start": 286.563,
      "duration": 0.313,
      "velocity": 0.71
    },
    {
      "id": "n-07197",
      "pitch": "G5",
      "midi": 79,
      "start": 286.563,
      "duration": 0.313,
      "velocity": 0.71
    },
    {
      "id": "n-07198",
      "pitch": "G5",
      "midi": 79,
      "start": 286.563,
      "duration": 0.313,
      "velocity": 0.71
    },
    {
      "id": "n-07199",
      "pitch": "A#5",
      "midi": 82,
      "start": 286.563,
      "duration": 0.313,
      "velocity": 0.71
    },
    {
      "id": "n-07200",
      "pitch": "A#5",
      "midi": 82,
      "start": 286.563,
      "duration": 0.313,
      "velocity": 0.71
    },
    {
      "id": "n-07201",
      "pitch": "F3",
      "midi": 53,
      "start": 286.875,
      "duration": 0.313,
      "velocity": 0.71
    },
    {
      "id": "n-07202",
      "pitch": "G#3",
      "midi": 56,
      "start": 286.875,
      "duration": 0.313,
      "velocity": 0.71
    },
    {
      "id": "n-07203",
      "pitch": "F4",
      "midi": 65,
      "start": 286.875,
      "duration": 0.313,
      "velocity": 0.71
    },
    {
      "id": "n-07204",
      "pitch": "F4",
      "midi": 65,
      "start": 286.875,
      "duration": 0.313,
      "velocity": 0.71
    },
    {
      "id": "n-07205",
      "pitch": "G#4",
      "midi": 68,
      "start": 286.875,
      "duration": 0.313,
      "velocity": 0.71
    },
    {
      "id": "n-07206",
      "pitch": "F5",
      "midi": 77,
      "start": 286.875,
      "duration": 0.313,
      "velocity": 0.71
    },
    {
      "id": "n-07207",
      "pitch": "F5",
      "midi": 77,
      "start": 286.875,
      "duration": 0.313,
      "velocity": 0.71
    },
    {
      "id": "n-07208",
      "pitch": "G#5",
      "midi": 80,
      "start": 286.875,
      "duration": 0.313,
      "velocity": 0.71
    },
    {
      "id": "n-07209",
      "pitch": "G#5",
      "midi": 80,
      "start": 286.875,
      "duration": 0.313,
      "velocity": 0.71
    },
    {
      "id": "n-07210",
      "pitch": "C3",
      "midi": 48,
      "start": 287.188,
      "duration": 0.313,
      "velocity": 0.71
    },
    {
      "id": "n-07211",
      "pitch": "D#3",
      "midi": 51,
      "start": 287.188,
      "duration": 0.313,
      "velocity": 0.71
    },
    {
      "id": "n-07212",
      "pitch": "G3",
      "midi": 55,
      "start": 287.188,
      "duration": 0.313,
      "velocity": 0.71
    },
    {
      "id": "n-07213",
      "pitch": "D#4",
      "midi": 63,
      "start": 287.188,
      "duration": 0.313,
      "velocity": 0.71
    },
    {
      "id": "n-07214",
      "pitch": "D#4",
      "midi": 63,
      "start": 287.188,
      "duration": 0.313,
      "velocity": 0.71
    },
    {
      "id": "n-07215",
      "pitch": "G4",
      "midi": 67,
      "start": 287.188,
      "duration": 0.313,
      "velocity": 0.71
    },
    {
      "id": "n-07216",
      "pitch": "D#5",
      "midi": 75,
      "start": 287.188,
      "duration": 0.313,
      "velocity": 0.71
    },
    {
      "id": "n-07217",
      "pitch": "D#5",
      "midi": 75,
      "start": 287.188,
      "duration": 0.313,
      "velocity": 0.71
    },
    {
      "id": "n-07218",
      "pitch": "G5",
      "midi": 79,
      "start": 287.188,
      "duration": 0.313,
      "velocity": 0.71
    },
    {
      "id": "n-07219",
      "pitch": "G5",
      "midi": 79,
      "start": 287.188,
      "duration": 0.313,
      "velocity": 0.71
    },
    {
      "id": "n-07220",
      "pitch": "C3",
      "midi": 48,
      "start": 287.5,
      "duration": 0.313,
      "velocity": 0.71
    },
    {
      "id": "n-07221",
      "pitch": "F3",
      "midi": 53,
      "start": 287.5,
      "duration": 0.313,
      "velocity": 0.71
    },
    {
      "id": "n-07222",
      "pitch": "F3",
      "midi": 53,
      "start": 287.5,
      "duration": 0.313,
      "velocity": 0.71
    },
    {
      "id": "n-07223",
      "pitch": "F3",
      "midi": 53,
      "start": 287.5,
      "duration": 0.313,
      "velocity": 0.71
    },
    {
      "id": "n-07224",
      "pitch": "G#3",
      "midi": 56,
      "start": 287.5,
      "duration": 0.313,
      "velocity": 0.71
    },
    {
      "id": "n-07225",
      "pitch": "C4",
      "midi": 60,
      "start": 287.5,
      "duration": 0.313,
      "velocity": 0.71
    },
    {
      "id": "n-07226",
      "pitch": "F4",
      "midi": 65,
      "start": 287.5,
      "duration": 0.313,
      "velocity": 0.71
    },
    {
      "id": "n-07227",
      "pitch": "G#4",
      "midi": 68,
      "start": 287.5,
      "duration": 0.313,
      "velocity": 0.71
    },
    {
      "id": "n-07228",
      "pitch": "C5",
      "midi": 72,
      "start": 287.5,
      "duration": 0.313,
      "velocity": 0.71
    },
    {
      "id": "n-07229",
      "pitch": "C3",
      "midi": 48,
      "start": 287.813,
      "duration": 0.313,
      "velocity": 0.71
    },
    {
      "id": "n-07230",
      "pitch": "C3",
      "midi": 48,
      "start": 287.813,
      "duration": 0.313,
      "velocity": 0.71
    },
    {
      "id": "n-07231",
      "pitch": "C3",
      "midi": 48,
      "start": 287.813,
      "duration": 0.313,
      "velocity": 0.71
    },
    {
      "id": "n-07232",
      "pitch": "D#3",
      "midi": 51,
      "start": 287.813,
      "duration": 0.313,
      "velocity": 0.71
    },
    {
      "id": "n-07233",
      "pitch": "G3",
      "midi": 55,
      "start": 287.813,
      "duration": 0.313,
      "velocity": 0.71
    },
    {
      "id": "n-07234",
      "pitch": "C4",
      "midi": 60,
      "start": 287.813,
      "duration": 0.313,
      "velocity": 0.71
    },
    {
      "id": "n-07235",
      "pitch": "D#4",
      "midi": 63,
      "start": 287.813,
      "duration": 0.313,
      "velocity": 0.71
    },
    {
      "id": "n-07236",
      "pitch": "G4",
      "midi": 67,
      "start": 287.813,
      "duration": 0.313,
      "velocity": 0.71
    },
    {
      "id": "n-07237",
      "pitch": "C5",
      "midi": 72,
      "start": 287.813,
      "duration": 0.313,
      "velocity": 0.71
    },
    {
      "id": "n-07238",
      "pitch": "F3",
      "midi": 53,
      "start": 288.125,
      "duration": 0.313,
      "velocity": 0.71
    },
    {
      "id": "n-07239",
      "pitch": "G#3",
      "midi": 56,
      "start": 288.125,
      "duration": 0.313,
      "velocity": 0.71
    },
    {
      "id": "n-07240",
      "pitch": "C4",
      "midi": 60,
      "start": 288.125,
      "duration": 0.313,
      "velocity": 0.71
    },
    {
      "id": "n-07241",
      "pitch": "F4",
      "midi": 65,
      "start": 288.125,
      "duration": 0.313,
      "velocity": 0.71
    },
    {
      "id": "n-07242",
      "pitch": "G#4",
      "midi": 68,
      "start": 288.125,
      "duration": 0.313,
      "velocity": 0.71
    },
    {
      "id": "n-07243",
      "pitch": "C5",
      "midi": 72,
      "start": 288.125,
      "duration": 0.313,
      "velocity": 0.71
    },
    {
      "id": "n-07244",
      "pitch": "F5",
      "midi": 77,
      "start": 288.125,
      "duration": 0.313,
      "velocity": 0.71
    },
    {
      "id": "n-07245",
      "pitch": "F5",
      "midi": 77,
      "start": 288.125,
      "duration": 0.313,
      "velocity": 0.71
    },
    {
      "id": "n-07246",
      "pitch": "G#5",
      "midi": 80,
      "start": 288.125,
      "duration": 0.313,
      "velocity": 0.71
    },
    {
      "id": "n-07247",
      "pitch": "G#5",
      "midi": 80,
      "start": 288.125,
      "duration": 0.313,
      "velocity": 0.71
    },
    {
      "id": "n-07248",
      "pitch": "C3",
      "midi": 48,
      "start": 288.438,
      "duration": 0.313,
      "velocity": 0.71
    },
    {
      "id": "n-07249",
      "pitch": "G3",
      "midi": 55,
      "start": 288.438,
      "duration": 0.313,
      "velocity": 0.71
    },
    {
      "id": "n-07250",
      "pitch": "C4",
      "midi": 60,
      "start": 288.438,
      "duration": 0.313,
      "velocity": 0.71
    },
    {
      "id": "n-07251",
      "pitch": "D#4",
      "midi": 63,
      "start": 288.438,
      "duration": 0.313,
      "velocity": 0.71
    },
    {
      "id": "n-07252",
      "pitch": "G4",
      "midi": 67,
      "start": 288.438,
      "duration": 0.313,
      "velocity": 0.71
    },
    {
      "id": "n-07253",
      "pitch": "C5",
      "midi": 72,
      "start": 288.438,
      "duration": 0.313,
      "velocity": 0.71
    },
    {
      "id": "n-07254",
      "pitch": "D#5",
      "midi": 75,
      "start": 288.438,
      "duration": 0.313,
      "velocity": 0.71
    },
    {
      "id": "n-07255",
      "pitch": "D#5",
      "midi": 75,
      "start": 288.438,
      "duration": 0.313,
      "velocity": 0.71
    },
    {
      "id": "n-07256",
      "pitch": "G5",
      "midi": 79,
      "start": 288.438,
      "duration": 0.313,
      "velocity": 0.71
    },
    {
      "id": "n-07257",
      "pitch": "G5",
      "midi": 79,
      "start": 288.438,
      "duration": 0.313,
      "velocity": 0.71
    },
    {
      "id": "n-07258",
      "pitch": "C3",
      "midi": 48,
      "start": 288.75,
      "duration": 0.313,
      "velocity": 0.71
    },
    {
      "id": "n-07259",
      "pitch": "F3",
      "midi": 53,
      "start": 288.75,
      "duration": 0.313,
      "velocity": 0.71
    },
    {
      "id": "n-07260",
      "pitch": "F3",
      "midi": 53,
      "start": 288.75,
      "duration": 0.313,
      "velocity": 0.71
    },
    {
      "id": "n-07261",
      "pitch": "F3",
      "midi": 53,
      "start": 288.75,
      "duration": 0.313,
      "velocity": 0.71
    },
    {
      "id": "n-07262",
      "pitch": "F3",
      "midi": 53,
      "start": 288.75,
      "duration": 0.313,
      "velocity": 0.71
    },
    {
      "id": "n-07263",
      "pitch": "G#3",
      "midi": 56,
      "start": 288.75,
      "duration": 0.313,
      "velocity": 0.71
    },
    {
      "id": "n-07264",
      "pitch": "C4",
      "midi": 60,
      "start": 288.75,
      "duration": 0.313,
      "velocity": 0.71
    },
    {
      "id": "n-07265",
      "pitch": "F4",
      "midi": 65,
      "start": 288.75,
      "duration": 0.313,
      "velocity": 0.71
    },
    {
      "id": "n-07266",
      "pitch": "F4",
      "midi": 65,
      "start": 288.75,
      "duration": 0.313,
      "velocity": 0.71
    },
    {
      "id": "n-07267",
      "pitch": "G#4",
      "midi": 68,
      "start": 288.75,
      "duration": 0.313,
      "velocity": 0.71
    },
    {
      "id": "n-07268",
      "pitch": "C5",
      "midi": 72,
      "start": 288.75,
      "duration": 0.313,
      "velocity": 0.71
    },
    {
      "id": "n-07269",
      "pitch": "F5",
      "midi": 77,
      "start": 288.75,
      "duration": 0.313,
      "velocity": 0.71
    },
    {
      "id": "n-07270",
      "pitch": "F5",
      "midi": 77,
      "start": 288.75,
      "duration": 0.313,
      "velocity": 0.71
    },
    {
      "id": "n-07271",
      "pitch": "G#5",
      "midi": 80,
      "start": 288.75,
      "duration": 0.313,
      "velocity": 0.71
    },
    {
      "id": "n-07272",
      "pitch": "G#5",
      "midi": 80,
      "start": 288.75,
      "duration": 0.313,
      "velocity": 0.71
    },
    {
      "id": "n-07273",
      "pitch": "C6",
      "midi": 84,
      "start": 288.75,
      "duration": 0.313,
      "velocity": 0.71
    },
    {
      "id": "n-07274",
      "pitch": "F6",
      "midi": 89,
      "start": 288.75,
      "duration": 0.313,
      "velocity": 0.71
    },
    {
      "id": "n-07275",
      "pitch": "G#6",
      "midi": 92,
      "start": 288.75,
      "duration": 0.313,
      "velocity": 0.71
    },
    {
      "id": "n-07276",
      "pitch": "C3",
      "midi": 48,
      "start": 289.063,
      "duration": 0.313,
      "velocity": 0.71
    },
    {
      "id": "n-07277",
      "pitch": "C3",
      "midi": 48,
      "start": 289.063,
      "duration": 0.313,
      "velocity": 0.71
    },
    {
      "id": "n-07278",
      "pitch": "C3",
      "midi": 48,
      "start": 289.063,
      "duration": 0.313,
      "velocity": 0.71
    },
    {
      "id": "n-07279",
      "pitch": "D#3",
      "midi": 51,
      "start": 289.063,
      "duration": 0.313,
      "velocity": 0.71
    },
    {
      "id": "n-07280",
      "pitch": "G3",
      "midi": 55,
      "start": 289.063,
      "duration": 0.313,
      "velocity": 0.71
    },
    {
      "id": "n-07281",
      "pitch": "C4",
      "midi": 60,
      "start": 289.063,
      "duration": 0.313,
      "velocity": 0.71
    },
    {
      "id": "n-07282",
      "pitch": "C4",
      "midi": 60,
      "start": 289.063,
      "duration": 0.313,
      "velocity": 0.71
    },
    {
      "id": "n-07283",
      "pitch": "D#4",
      "midi": 63,
      "start": 289.063,
      "duration": 0.313,
      "velocity": 0.71
    },
    {
      "id": "n-07284",
      "pitch": "D#4",
      "midi": 63,
      "start": 289.063,
      "duration": 0.313,
      "velocity": 0.71
    },
    {
      "id": "n-07285",
      "pitch": "G4",
      "midi": 67,
      "start": 289.063,
      "duration": 0.313,
      "velocity": 0.71
    },
    {
      "id": "n-07286",
      "pitch": "C5",
      "midi": 72,
      "start": 289.063,
      "duration": 0.313,
      "velocity": 0.71
    },
    {
      "id": "n-07287",
      "pitch": "D#5",
      "midi": 75,
      "start": 289.063,
      "duration": 0.313,
      "velocity": 0.71
    },
    {
      "id": "n-07288",
      "pitch": "D#5",
      "midi": 75,
      "start": 289.063,
      "duration": 0.313,
      "velocity": 0.71
    },
    {
      "id": "n-07289",
      "pitch": "G5",
      "midi": 79,
      "start": 289.063,
      "duration": 0.313,
      "velocity": 0.71
    },
    {
      "id": "n-07290",
      "pitch": "G5",
      "midi": 79,
      "start": 289.063,
      "duration": 0.313,
      "velocity": 0.71
    },
    {
      "id": "n-07291",
      "pitch": "C6",
      "midi": 84,
      "start": 289.063,
      "duration": 0.313,
      "velocity": 0.71
    },
    {
      "id": "n-07292",
      "pitch": "D#6",
      "midi": 87,
      "start": 289.063,
      "duration": 0.313,
      "velocity": 0.71
    },
    {
      "id": "n-07293",
      "pitch": "G6",
      "midi": 91,
      "start": 289.063,
      "duration": 0.313,
      "velocity": 0.71
    },
    {
      "id": "n-07294",
      "pitch": "G3",
      "midi": 55,
      "start": 289.375,
      "duration": 0.313,
      "velocity": 0.71
    },
    {
      "id": "n-07295",
      "pitch": "G3",
      "midi": 55,
      "start": 289.375,
      "duration": 0.313,
      "velocity": 0.71
    },
    {
      "id": "n-07296",
      "pitch": "G3",
      "midi": 55,
      "start": 289.375,
      "duration": 0.313,
      "velocity": 0.71
    },
    {
      "id": "n-07297",
      "pitch": "G3",
      "midi": 55,
      "start": 289.375,
      "duration": 0.313,
      "velocity": 0.71
    },
    {
      "id": "n-07298",
      "pitch": "G3",
      "midi": 55,
      "start": 289.375,
      "duration": 0.313,
      "velocity": 0.71
    },
    {
      "id": "n-07299",
      "pitch": "D#4",
      "midi": 63,
      "start": 289.375,
      "duration": 0.313,
      "velocity": 0.71
    },
    {
      "id": "n-07300",
      "pitch": "D#4",
      "midi": 63,
      "start": 289.375,
      "duration": 0.313,
      "velocity": 0.71
    },
    {
      "id": "n-07301",
      "pitch": "G4",
      "midi": 67,
      "start": 289.375,
      "duration": 0.313,
      "velocity": 0.71
    },
    {
      "id": "n-07302",
      "pitch": "C5",
      "midi": 72,
      "start": 289.375,
      "duration": 0.313,
      "velocity": 0.71
    },
    {
      "id": "n-07303",
      "pitch": "C5",
      "midi": 72,
      "start": 289.375,
      "duration": 0.313,
      "velocity": 0.71
    },
    {
      "id": "n-07304",
      "pitch": "G5",
      "midi": 79,
      "start": 289.375,
      "duration": 0.313,
      "velocity": 0.71
    },
    {
      "id": "n-07305",
      "pitch": "G5",
      "midi": 79,
      "start": 289.375,
      "duration": 0.313,
      "velocity": 0.71
    },
    {
      "id": "n-07306",
      "pitch": "G2",
      "midi": 43,
      "start": 289.688,
      "duration": 0.313,
      "velocity": 0.71
    },
    {
      "id": "n-07307",
      "pitch": "G3",
      "midi": 55,
      "start": 289.688,
      "duration": 0.313,
      "velocity": 0.71
    },
    {
      "id": "n-07308",
      "pitch": "C4",
      "midi": 60,
      "start": 289.688,
      "duration": 0.313,
      "velocity": 0.71
    },
    {
      "id": "n-07309",
      "pitch": "D#4",
      "midi": 63,
      "start": 289.688,
      "duration": 0.313,
      "velocity": 0.71
    },
    {
      "id": "n-07310",
      "pitch": "D#4",
      "midi": 63,
      "start": 289.688,
      "duration": 0.313,
      "velocity": 0.71
    },
    {
      "id": "n-07311",
      "pitch": "G4",
      "midi": 67,
      "start": 289.688,
      "duration": 0.313,
      "velocity": 0.71
    },
    {
      "id": "n-07312",
      "pitch": "C5",
      "midi": 72,
      "start": 289.688,
      "duration": 0.313,
      "velocity": 0.71
    },
    {
      "id": "n-07313",
      "pitch": "D#5",
      "midi": 75,
      "start": 289.688,
      "duration": 0.313,
      "velocity": 0.71
    },
    {
      "id": "n-07314",
      "pitch": "D#5",
      "midi": 75,
      "start": 289.688,
      "duration": 0.313,
      "velocity": 0.71
    },
    {
      "id": "n-07315",
      "pitch": "C6",
      "midi": 84,
      "start": 289.688,
      "duration": 0.313,
      "velocity": 0.71
    },
    {
      "id": "n-07316",
      "pitch": "C6",
      "midi": 84,
      "start": 289.688,
      "duration": 0.313,
      "velocity": 0.71
    },
    {
      "id": "n-07317",
      "pitch": "G6",
      "midi": 91,
      "start": 289.688,
      "duration": 0.313,
      "velocity": 0.71
    },
    {
      "id": "n-07318",
      "pitch": "G2",
      "midi": 43,
      "start": 290,
      "duration": 0.313,
      "velocity": 0.71
    },
    {
      "id": "n-07319",
      "pitch": "G2",
      "midi": 43,
      "start": 290,
      "duration": 0.313,
      "velocity": 0.71
    },
    {
      "id": "n-07320",
      "pitch": "G3",
      "midi": 55,
      "start": 290,
      "duration": 0.313,
      "velocity": 0.71
    },
    {
      "id": "n-07321",
      "pitch": "G3",
      "midi": 55,
      "start": 290,
      "duration": 0.313,
      "velocity": 0.71
    },
    {
      "id": "n-07322",
      "pitch": "G3",
      "midi": 55,
      "start": 290,
      "duration": 0.313,
      "velocity": 0.71
    },
    {
      "id": "n-07323",
      "pitch": "D4",
      "midi": 62,
      "start": 290,
      "duration": 0.313,
      "velocity": 0.71
    },
    {
      "id": "n-07324",
      "pitch": "D4",
      "midi": 62,
      "start": 290,
      "duration": 0.313,
      "velocity": 0.71
    },
    {
      "id": "n-07325",
      "pitch": "B4",
      "midi": 71,
      "start": 290,
      "duration": 0.313,
      "velocity": 0.71
    },
    {
      "id": "n-07326",
      "pitch": "B4",
      "midi": 71,
      "start": 290,
      "duration": 0.313,
      "velocity": 0.71
    },
    {
      "id": "n-07327",
      "pitch": "G5",
      "midi": 79,
      "start": 290,
      "duration": 0.313,
      "velocity": 0.71
    },
    {
      "id": "n-07328",
      "pitch": "G5",
      "midi": 79,
      "start": 290,
      "duration": 0.313,
      "velocity": 0.71
    },
    {
      "id": "n-07329",
      "pitch": "G2",
      "midi": 43,
      "start": 290.313,
      "duration": 0.313,
      "velocity": 0.71
    },
    {
      "id": "n-07330",
      "pitch": "G3",
      "midi": 55,
      "start": 290.313,
      "duration": 0.313,
      "velocity": 0.71
    },
    {
      "id": "n-07331",
      "pitch": "B3",
      "midi": 59,
      "start": 290.313,
      "duration": 0.313,
      "velocity": 0.71
    },
    {
      "id": "n-07332",
      "pitch": "D4",
      "midi": 62,
      "start": 290.313,
      "duration": 0.313,
      "velocity": 0.71
    },
    {
      "id": "n-07333",
      "pitch": "G4",
      "midi": 67,
      "start": 290.313,
      "duration": 0.313,
      "velocity": 0.71
    },
    {
      "id": "n-07334",
      "pitch": "G4",
      "midi": 67,
      "start": 290.313,
      "duration": 0.313,
      "velocity": 0.71
    },
    {
      "id": "n-07335",
      "pitch": "B4",
      "midi": 71,
      "start": 290.313,
      "duration": 0.313,
      "velocity": 0.71
    },
    {
      "id": "n-07336",
      "pitch": "D5",
      "midi": 74,
      "start": 290.313,
      "duration": 0.313,
      "velocity": 0.71
    },
    {
      "id": "n-07337",
      "pitch": "G5",
      "midi": 79,
      "start": 290.313,
      "duration": 0.313,
      "velocity": 0.71
    },
    {
      "id": "n-07338",
      "pitch": "B5",
      "midi": 83,
      "start": 290.313,
      "duration": 0.313,
      "velocity": 0.71
    },
    {
      "id": "n-07339",
      "pitch": "D6",
      "midi": 86,
      "start": 290.313,
      "duration": 0.313,
      "velocity": 0.71
    },
    {
      "id": "n-07340",
      "pitch": "G6",
      "midi": 91,
      "start": 290.313,
      "duration": 0.313,
      "velocity": 0.71
    },
    {
      "id": "n-07341",
      "pitch": "C4",
      "midi": 60,
      "start": 290.625,
      "duration": 0.313,
      "velocity": 0.71
    },
    {
      "id": "n-07342",
      "pitch": "C4",
      "midi": 60,
      "start": 290.625,
      "duration": 0.313,
      "velocity": 0.71
    },
    {
      "id": "n-07343",
      "pitch": "C4",
      "midi": 60,
      "start": 290.625,
      "duration": 0.313,
      "velocity": 0.71
    },
    {
      "id": "n-07344",
      "pitch": "D#4",
      "midi": 63,
      "start": 290.625,
      "duration": 0.313,
      "velocity": 0.71
    },
    {
      "id": "n-07345",
      "pitch": "D#5",
      "midi": 75,
      "start": 290.625,
      "duration": 0.313,
      "velocity": 0.71
    },
    {
      "id": "n-07346",
      "pitch": "G3",
      "midi": 55,
      "start": 290.938,
      "duration": 0.313,
      "velocity": 0.71
    },
    {
      "id": "n-07347",
      "pitch": "G3",
      "midi": 55,
      "start": 290.938,
      "duration": 0.313,
      "velocity": 0.71
    },
    {
      "id": "n-07348",
      "pitch": "A#3",
      "midi": 58,
      "start": 290.938,
      "duration": 0.313,
      "velocity": 0.71
    },
    {
      "id": "n-07349",
      "pitch": "A#4",
      "midi": 70,
      "start": 290.938,
      "duration": 0.313,
      "velocity": 0.71
    },
    {
      "id": "n-07350",
      "pitch": "D5",
      "midi": 74,
      "start": 290.938,
      "duration": 0.313,
      "velocity": 0.71
    },
    {
      "id": "n-07351",
      "pitch": "G#3",
      "midi": 56,
      "start": 291.25,
      "duration": 0.313,
      "velocity": 0.71
    },
    {
      "id": "n-07352",
      "pitch": "G#3",
      "midi": 56,
      "start": 291.25,
      "duration": 0.313,
      "velocity": 0.71
    },
    {
      "id": "n-07353",
      "pitch": "G#3",
      "midi": 56,
      "start": 291.25,
      "duration": 0.313,
      "velocity": 0.71
    },
    {
      "id": "n-07354",
      "pitch": "C4",
      "midi": 60,
      "start": 291.25,
      "duration": 0.313,
      "velocity": 0.71
    },
    {
      "id": "n-07355",
      "pitch": "C5",
      "midi": 72,
      "start": 291.25,
      "duration": 0.313,
      "velocity": 0.71
    },
    {
      "id": "n-07356",
      "pitch": "D#3",
      "midi": 51,
      "start": 291.563,
      "duration": 0.313,
      "velocity": 0.71
    },
    {
      "id": "n-07357",
      "pitch": "D#3",
      "midi": 51,
      "start": 291.563,
      "duration": 0.313,
      "velocity": 0.71
    },
    {
      "id": "n-07358",
      "pitch": "G3",
      "midi": 55,
      "start": 291.563,
      "duration": 0.313,
      "velocity": 0.71
    },
    {
      "id": "n-07359",
      "pitch": "G4",
      "midi": 67,
      "start": 291.563,
      "duration": 0.313,
      "velocity": 0.71
    },
    {
      "id": "n-07360",
      "pitch": "A#4",
      "midi": 70,
      "start": 291.563,
      "duration": 0.313,
      "velocity": 0.71
    },
    {
      "id": "n-07361",
      "pitch": "C3",
      "midi": 48,
      "start": 291.875,
      "duration": 0.313,
      "velocity": 0.71
    },
    {
      "id": "n-07362",
      "pitch": "F3",
      "midi": 53,
      "start": 291.875,
      "duration": 0.313,
      "velocity": 0.71
    },
    {
      "id": "n-07363",
      "pitch": "F3",
      "midi": 53,
      "start": 291.875,
      "duration": 0.313,
      "velocity": 0.71
    },
    {
      "id": "n-07364",
      "pitch": "F3",
      "midi": 53,
      "start": 291.875,
      "duration": 0.313,
      "velocity": 0.71
    },
    {
      "id": "n-07365",
      "pitch": "G#3",
      "midi": 56,
      "start": 291.875,
      "duration": 0.313,
      "velocity": 0.71
    },
    {
      "id": "n-07366",
      "pitch": "C4",
      "midi": 60,
      "start": 291.875,
      "duration": 0.313,
      "velocity": 0.71
    },
    {
      "id": "n-07367",
      "pitch": "F4",
      "midi": 65,
      "start": 291.875,
      "duration": 0.313,
      "velocity": 0.71
    },
    {
      "id": "n-07368",
      "pitch": "G#4",
      "midi": 68,
      "start": 291.875,
      "duration": 0.313,
      "velocity": 0.71
    },
    {
      "id": "n-07369",
      "pitch": "G#4",
      "midi": 68,
      "start": 291.875,
      "duration": 0.313,
      "velocity": 0.71
    },
    {
      "id": "n-07370",
      "pitch": "C5",
      "midi": 72,
      "start": 291.875,
      "duration": 0.313,
      "velocity": 0.71
    },
    {
      "id": "n-07371",
      "pitch": "C3",
      "midi": 48,
      "start": 292.188,
      "duration": 0.313,
      "velocity": 0.71
    },
    {
      "id": "n-07372",
      "pitch": "C3",
      "midi": 48,
      "start": 292.188,
      "duration": 0.313,
      "velocity": 0.71
    },
    {
      "id": "n-07373",
      "pitch": "C3",
      "midi": 48,
      "start": 292.188,
      "duration": 0.313,
      "velocity": 0.71
    },
    {
      "id": "n-07374",
      "pitch": "D#3",
      "midi": 51,
      "start": 292.188,
      "duration": 0.313,
      "velocity": 0.71
    },
    {
      "id": "n-07375",
      "pitch": "C4",
      "midi": 60,
      "start": 292.188,
      "duration": 0.313,
      "velocity": 0.71
    },
    {
      "id": "n-07376",
      "pitch": "D#4",
      "midi": 63,
      "start": 292.188,
      "duration": 0.313,
      "velocity": 0.71
    },
    {
      "id": "n-07377",
      "pitch": "D#4",
      "midi": 63,
      "start": 292.188,
      "duration": 0.313,
      "velocity": 0.71
    },
    {
      "id": "n-07378",
      "pitch": "G4",
      "midi": 67,
      "start": 292.188,
      "duration": 0.313,
      "velocity": 0.71
    },
    {
      "id": "n-07379",
      "pitch": "G4",
      "midi": 67,
      "start": 292.188,
      "duration": 0.313,
      "velocity": 0.71
    },
    {
      "id": "n-07380",
      "pitch": "C5",
      "midi": 72,
      "start": 292.188,
      "duration": 0.313,
      "velocity": 0.71
    },
    {
      "id": "n-07381",
      "pitch": "C3",
      "midi": 48,
      "start": 292.5,
      "duration": 0.313,
      "velocity": 0.71
    },
    {
      "id": "n-07382",
      "pitch": "F3",
      "midi": 53,
      "start": 292.5,
      "duration": 0.313,
      "velocity": 0.71
    },
    {
      "id": "n-07383",
      "pitch": "G#3",
      "midi": 56,
      "start": 292.5,
      "duration": 0.313,
      "velocity": 0.71
    },
    {
      "id": "n-07384",
      "pitch": "C4",
      "midi": 60,
      "start": 292.5,
      "duration": 0.313,
      "velocity": 0.71
    },
    {
      "id": "n-07385",
      "pitch": "C4",
      "midi": 60,
      "start": 292.5,
      "duration": 0.313,
      "velocity": 0.71
    },
    {
      "id": "n-07386",
      "pitch": "F4",
      "midi": 65,
      "start": 292.5,
      "duration": 0.313,
      "velocity": 0.71
    },
    {
      "id": "n-07387",
      "pitch": "G#4",
      "midi": 68,
      "start": 292.5,
      "duration": 0.313,
      "velocity": 0.71
    },
    {
      "id": "n-07388",
      "pitch": "C5",
      "midi": 72,
      "start": 292.5,
      "duration": 0.313,
      "velocity": 0.71
    },
    {
      "id": "n-07389",
      "pitch": "C5",
      "midi": 72,
      "start": 292.5,
      "duration": 0.313,
      "velocity": 0.71
    },
    {
      "id": "n-07390",
      "pitch": "F5",
      "midi": 77,
      "start": 292.5,
      "duration": 0.313,
      "velocity": 0.71
    },
    {
      "id": "n-07391",
      "pitch": "G#5",
      "midi": 80,
      "start": 292.5,
      "duration": 0.313,
      "velocity": 0.71
    },
    {
      "id": "n-07392",
      "pitch": "G#5",
      "midi": 80,
      "start": 292.5,
      "duration": 0.313,
      "velocity": 0.71
    },
    {
      "id": "n-07393",
      "pitch": "C3",
      "midi": 48,
      "start": 292.813,
      "duration": 0.313,
      "velocity": 0.71
    },
    {
      "id": "n-07394",
      "pitch": "D#3",
      "midi": 51,
      "start": 292.813,
      "duration": 0.313,
      "velocity": 0.71
    },
    {
      "id": "n-07395",
      "pitch": "G3",
      "midi": 55,
      "start": 292.813,
      "duration": 0.313,
      "velocity": 0.71
    },
    {
      "id": "n-07396",
      "pitch": "C4",
      "midi": 60,
      "start": 292.813,
      "duration": 0.313,
      "velocity": 0.71
    },
    {
      "id": "n-07397",
      "pitch": "C4",
      "midi": 60,
      "start": 292.813,
      "duration": 0.313,
      "velocity": 0.71
    },
    {
      "id": "n-07398",
      "pitch": "D#4",
      "midi": 63,
      "start": 292.813,
      "duration": 0.313,
      "velocity": 0.71
    },
    {
      "id": "n-07399",
      "pitch": "G4",
      "midi": 67,
      "start": 292.813,
      "duration": 0.313,
      "velocity": 0.71
    },
    {
      "id": "n-07400",
      "pitch": "C5",
      "midi": 72,
      "start": 292.813,
      "duration": 0.313,
      "velocity": 0.71
    },
    {
      "id": "n-07401",
      "pitch": "C5",
      "midi": 72,
      "start": 292.813,
      "duration": 0.313,
      "velocity": 0.71
    },
    {
      "id": "n-07402",
      "pitch": "D#5",
      "midi": 75,
      "start": 292.813,
      "duration": 0.313,
      "velocity": 0.71
    },
    {
      "id": "n-07403",
      "pitch": "G5",
      "midi": 79,
      "start": 292.813,
      "duration": 0.313,
      "velocity": 0.71
    },
    {
      "id": "n-07404",
      "pitch": "G5",
      "midi": 79,
      "start": 292.813,
      "duration": 0.313,
      "velocity": 0.71
    },
    {
      "id": "n-07405",
      "pitch": "C3",
      "midi": 48,
      "start": 293.125,
      "duration": 0.313,
      "velocity": 0.71
    },
    {
      "id": "n-07406",
      "pitch": "F3",
      "midi": 53,
      "start": 293.125,
      "duration": 0.313,
      "velocity": 0.71
    },
    {
      "id": "n-07407",
      "pitch": "F3",
      "midi": 53,
      "start": 293.125,
      "duration": 0.313,
      "velocity": 0.71
    },
    {
      "id": "n-07408",
      "pitch": "F3",
      "midi": 53,
      "start": 293.125,
      "duration": 0.313,
      "velocity": 0.71
    },
    {
      "id": "n-07409",
      "pitch": "G#3",
      "midi": 56,
      "start": 293.125,
      "duration": 0.313,
      "velocity": 0.71
    },
    {
      "id": "n-07410",
      "pitch": "C4",
      "midi": 60,
      "start": 293.125,
      "duration": 0.313,
      "velocity": 0.71
    },
    {
      "id": "n-07411",
      "pitch": "F4",
      "midi": 65,
      "start": 293.125,
      "duration": 0.313,
      "velocity": 0.71
    },
    {
      "id": "n-07412",
      "pitch": "F4",
      "midi": 65,
      "start": 293.125,
      "duration": 0.313,
      "velocity": 0.71
    },
    {
      "id": "n-07413",
      "pitch": "G#4",
      "midi": 68,
      "start": 293.125,
      "duration": 0.313,
      "velocity": 0.71
    },
    {
      "id": "n-07414",
      "pitch": "G#4",
      "midi": 68,
      "start": 293.125,
      "duration": 0.313,
      "velocity": 0.71
    },
    {
      "id": "n-07415",
      "pitch": "C5",
      "midi": 72,
      "start": 293.125,
      "duration": 0.313,
      "velocity": 0.71
    },
    {
      "id": "n-07416",
      "pitch": "C3",
      "midi": 48,
      "start": 293.438,
      "duration": 0.313,
      "velocity": 0.71
    },
    {
      "id": "n-07417",
      "pitch": "C3",
      "midi": 48,
      "start": 293.438,
      "duration": 0.313,
      "velocity": 0.71
    },
    {
      "id": "n-07418",
      "pitch": "C3",
      "midi": 48,
      "start": 293.438,
      "duration": 0.313,
      "velocity": 0.71
    },
    {
      "id": "n-07419",
      "pitch": "D#3",
      "midi": 51,
      "start": 293.438,
      "duration": 0.313,
      "velocity": 0.71
    },
    {
      "id": "n-07420",
      "pitch": "G3",
      "midi": 55,
      "start": 293.438,
      "duration": 0.313,
      "velocity": 0.71
    },
    {
      "id": "n-07421",
      "pitch": "C4",
      "midi": 60,
      "start": 293.438,
      "duration": 0.313,
      "velocity": 0.71
    },
    {
      "id": "n-07422",
      "pitch": "D#4",
      "midi": 63,
      "start": 293.438,
      "duration": 0.313,
      "velocity": 0.71
    },
    {
      "id": "n-07423",
      "pitch": "D#4",
      "midi": 63,
      "start": 293.438,
      "duration": 0.313,
      "velocity": 0.71
    },
    {
      "id": "n-07424",
      "pitch": "G4",
      "midi": 67,
      "start": 293.438,
      "duration": 0.313,
      "velocity": 0.71
    },
    {
      "id": "n-07425",
      "pitch": "G4",
      "midi": 67,
      "start": 293.438,
      "duration": 0.313,
      "velocity": 0.71
    },
    {
      "id": "n-07426",
      "pitch": "C5",
      "midi": 72,
      "start": 293.438,
      "duration": 0.313,
      "velocity": 0.71
    },
    {
      "id": "n-07427",
      "pitch": "C3",
      "midi": 48,
      "start": 293.75,
      "duration": 0.313,
      "velocity": 0.71
    },
    {
      "id": "n-07428",
      "pitch": "F3",
      "midi": 53,
      "start": 293.75,
      "duration": 0.313,
      "velocity": 0.71
    },
    {
      "id": "n-07429",
      "pitch": "F3",
      "midi": 53,
      "start": 293.75,
      "duration": 0.313,
      "velocity": 0.71
    },
    {
      "id": "n-07430",
      "pitch": "F3",
      "midi": 53,
      "start": 293.75,
      "duration": 0.313,
      "velocity": 0.71
    },
    {
      "id": "n-07431",
      "pitch": "G#3",
      "midi": 56,
      "start": 293.75,
      "duration": 0.313,
      "velocity": 0.71
    },
    {
      "id": "n-07432",
      "pitch": "C4",
      "midi": 60,
      "start": 293.75,
      "duration": 0.313,
      "velocity": 0.71
    },
    {
      "id": "n-07433",
      "pitch": "F4",
      "midi": 65,
      "start": 293.75,
      "duration": 0.313,
      "velocity": 0.71
    },
    {
      "id": "n-07434",
      "pitch": "F4",
      "midi": 65,
      "start": 293.75,
      "duration": 0.313,
      "velocity": 0.71
    },
    {
      "id": "n-07435",
      "pitch": "F4",
      "midi": 65,
      "start": 293.75,
      "duration": 0.313,
      "velocity": 0.71
    },
    {
      "id": "n-07436",
      "pitch": "G#4",
      "midi": 68,
      "start": 293.75,
      "duration": 0.313,
      "velocity": 0.71
    },
    {
      "id": "n-07437",
      "pitch": "G#4",
      "midi": 68,
      "start": 293.75,
      "duration": 0.313,
      "velocity": 0.71
    },
    {
      "id": "n-07438",
      "pitch": "C5",
      "midi": 72,
      "start": 293.75,
      "duration": 0.313,
      "velocity": 0.71
    },
    {
      "id": "n-07439",
      "pitch": "F5",
      "midi": 77,
      "start": 293.75,
      "duration": 0.313,
      "velocity": 0.71
    },
    {
      "id": "n-07440",
      "pitch": "F5",
      "midi": 77,
      "start": 293.75,
      "duration": 0.313,
      "velocity": 0.71
    },
    {
      "id": "n-07441",
      "pitch": "G#5",
      "midi": 80,
      "start": 293.75,
      "duration": 0.313,
      "velocity": 0.71
    },
    {
      "id": "n-07442",
      "pitch": "C6",
      "midi": 84,
      "start": 293.75,
      "duration": 0.313,
      "velocity": 0.71
    },
    {
      "id": "n-07443",
      "pitch": "F6",
      "midi": 89,
      "start": 293.75,
      "duration": 0.313,
      "velocity": 0.71
    },
    {
      "id": "n-07444",
      "pitch": "G#6",
      "midi": 92,
      "start": 293.75,
      "duration": 0.313,
      "velocity": 0.71
    },
    {
      "id": "n-07445",
      "pitch": "C3",
      "midi": 48,
      "start": 294.063,
      "duration": 0.313,
      "velocity": 0.71
    },
    {
      "id": "n-07446",
      "pitch": "C3",
      "midi": 48,
      "start": 294.063,
      "duration": 0.313,
      "velocity": 0.71
    },
    {
      "id": "n-07447",
      "pitch": "C3",
      "midi": 48,
      "start": 294.063,
      "duration": 0.313,
      "velocity": 0.71
    },
    {
      "id": "n-07448",
      "pitch": "D#3",
      "midi": 51,
      "start": 294.063,
      "duration": 0.313,
      "velocity": 0.71
    },
    {
      "id": "n-07449",
      "pitch": "G3",
      "midi": 55,
      "start": 294.063,
      "duration": 0.313,
      "velocity": 0.71
    },
    {
      "id": "n-07450",
      "pitch": "C4",
      "midi": 60,
      "start": 294.063,
      "duration": 0.313,
      "velocity": 0.71
    },
    {
      "id": "n-07451",
      "pitch": "C4",
      "midi": 60,
      "start": 294.063,
      "duration": 0.313,
      "velocity": 0.71
    },
    {
      "id": "n-07452",
      "pitch": "D#4",
      "midi": 63,
      "start": 294.063,
      "duration": 0.313,
      "velocity": 0.71
    },
    {
      "id": "n-07453",
      "pitch": "D#4",
      "midi": 63,
      "start": 294.063,
      "duration": 0.313,
      "velocity": 0.71
    },
    {
      "id": "n-07454",
      "pitch": "G4",
      "midi": 67,
      "start": 294.063,
      "duration": 0.313,
      "velocity": 0.71
    },
    {
      "id": "n-07455",
      "pitch": "G4",
      "midi": 67,
      "start": 294.063,
      "duration": 0.313,
      "velocity": 0.71
    },
    {
      "id": "n-07456",
      "pitch": "C5",
      "midi": 72,
      "start": 294.063,
      "duration": 0.313,
      "velocity": 0.71
    },
    {
      "id": "n-07457",
      "pitch": "D#5",
      "midi": 75,
      "start": 294.063,
      "duration": 0.313,
      "velocity": 0.71
    },
    {
      "id": "n-07458",
      "pitch": "D#5",
      "midi": 75,
      "start": 294.063,
      "duration": 0.313,
      "velocity": 0.71
    },
    {
      "id": "n-07459",
      "pitch": "G5",
      "midi": 79,
      "start": 294.063,
      "duration": 0.313,
      "velocity": 0.71
    },
    {
      "id": "n-07460",
      "pitch": "C6",
      "midi": 84,
      "start": 294.063,
      "duration": 0.313,
      "velocity": 0.71
    },
    {
      "id": "n-07461",
      "pitch": "D#6",
      "midi": 87,
      "start": 294.063,
      "duration": 0.313,
      "velocity": 0.71
    },
    {
      "id": "n-07462",
      "pitch": "G6",
      "midi": 91,
      "start": 294.063,
      "duration": 0.313,
      "velocity": 0.71
    },
    {
      "id": "n-07463",
      "pitch": "G3",
      "midi": 55,
      "start": 294.375,
      "duration": 0.313,
      "velocity": 0.71
    },
    {
      "id": "n-07464",
      "pitch": "G3",
      "midi": 55,
      "start": 294.375,
      "duration": 0.313,
      "velocity": 0.71
    },
    {
      "id": "n-07465",
      "pitch": "G3",
      "midi": 55,
      "start": 294.375,
      "duration": 0.313,
      "velocity": 0.71
    },
    {
      "id": "n-07466",
      "pitch": "G3",
      "midi": 55,
      "start": 294.375,
      "duration": 0.313,
      "velocity": 0.71
    },
    {
      "id": "n-07467",
      "pitch": "G3",
      "midi": 55,
      "start": 294.375,
      "duration": 0.313,
      "velocity": 0.71
    },
    {
      "id": "n-07468",
      "pitch": "D#4",
      "midi": 63,
      "start": 294.375,
      "duration": 0.313,
      "velocity": 0.71
    },
    {
      "id": "n-07469",
      "pitch": "D#4",
      "midi": 63,
      "start": 294.375,
      "duration": 0.313,
      "velocity": 0.71
    },
    {
      "id": "n-07470",
      "pitch": "G4",
      "midi": 67,
      "start": 294.375,
      "duration": 0.313,
      "velocity": 0.71
    },
    {
      "id": "n-07471",
      "pitch": "C5",
      "midi": 72,
      "start": 294.375,
      "duration": 0.313,
      "velocity": 0.71
    },
    {
      "id": "n-07472",
      "pitch": "C5",
      "midi": 72,
      "start": 294.375,
      "duration": 0.313,
      "velocity": 0.71
    },
    {
      "id": "n-07473",
      "pitch": "G5",
      "midi": 79,
      "start": 294.375,
      "duration": 0.313,
      "velocity": 0.71
    },
    {
      "id": "n-07474",
      "pitch": "G5",
      "midi": 79,
      "start": 294.375,
      "duration": 0.313,
      "velocity": 0.71
    },
    {
      "id": "n-07475",
      "pitch": "G2",
      "midi": 43,
      "start": 294.688,
      "duration": 0.313,
      "velocity": 0.71
    },
    {
      "id": "n-07476",
      "pitch": "G3",
      "midi": 55,
      "start": 294.688,
      "duration": 0.313,
      "velocity": 0.71
    },
    {
      "id": "n-07477",
      "pitch": "G3",
      "midi": 55,
      "start": 294.688,
      "duration": 0.313,
      "velocity": 0.71
    },
    {
      "id": "n-07478",
      "pitch": "C4",
      "midi": 60,
      "start": 294.688,
      "duration": 0.313,
      "velocity": 0.71
    },
    {
      "id": "n-07479",
      "pitch": "G4",
      "midi": 67,
      "start": 294.688,
      "duration": 0.313,
      "velocity": 0.71
    },
    {
      "id": "n-07480",
      "pitch": "G4",
      "midi": 67,
      "start": 294.688,
      "duration": 0.313,
      "velocity": 0.71
    },
    {
      "id": "n-07481",
      "pitch": "D#5",
      "midi": 75,
      "start": 294.688,
      "duration": 0.313,
      "velocity": 0.71
    },
    {
      "id": "n-07482",
      "pitch": "D#5",
      "midi": 75,
      "start": 294.688,
      "duration": 0.313,
      "velocity": 0.71
    },
    {
      "id": "n-07483",
      "pitch": "G5",
      "midi": 79,
      "start": 294.688,
      "duration": 0.313,
      "velocity": 0.71
    },
    {
      "id": "n-07484",
      "pitch": "C6",
      "midi": 84,
      "start": 294.688,
      "duration": 0.313,
      "velocity": 0.71
    },
    {
      "id": "n-07485",
      "pitch": "D#6",
      "midi": 87,
      "start": 294.688,
      "duration": 0.313,
      "velocity": 0.71
    },
    {
      "id": "n-07486",
      "pitch": "G6",
      "midi": 91,
      "start": 294.688,
      "duration": 0.313,
      "velocity": 0.71
    },
    {
      "id": "n-07487",
      "pitch": "G2",
      "midi": 43,
      "start": 295,
      "duration": 0.313,
      "velocity": 0.71
    },
    {
      "id": "n-07488",
      "pitch": "G2",
      "midi": 43,
      "start": 295,
      "duration": 0.313,
      "velocity": 0.71
    },
    {
      "id": "n-07489",
      "pitch": "G3",
      "midi": 55,
      "start": 295,
      "duration": 0.313,
      "velocity": 0.71
    },
    {
      "id": "n-07490",
      "pitch": "G3",
      "midi": 55,
      "start": 295,
      "duration": 0.313,
      "velocity": 0.71
    },
    {
      "id": "n-07491",
      "pitch": "G3",
      "midi": 55,
      "start": 295,
      "duration": 0.313,
      "velocity": 0.71
    },
    {
      "id": "n-07492",
      "pitch": "D4",
      "midi": 62,
      "start": 295,
      "duration": 0.313,
      "velocity": 0.71
    },
    {
      "id": "n-07493",
      "pitch": "D4",
      "midi": 62,
      "start": 295,
      "duration": 0.313,
      "velocity": 0.71
    },
    {
      "id": "n-07494",
      "pitch": "G4",
      "midi": 67,
      "start": 295,
      "duration": 0.313,
      "velocity": 0.71
    },
    {
      "id": "n-07495",
      "pitch": "B4",
      "midi": 71,
      "start": 295,
      "duration": 0.313,
      "velocity": 0.71
    },
    {
      "id": "n-07496",
      "pitch": "B4",
      "midi": 71,
      "start": 295,
      "duration": 0.313,
      "velocity": 0.71
    },
    {
      "id": "n-07497",
      "pitch": "G5",
      "midi": 79,
      "start": 295,
      "duration": 0.313,
      "velocity": 0.71
    },
    {
      "id": "n-07498",
      "pitch": "G5",
      "midi": 79,
      "start": 295,
      "duration": 0.313,
      "velocity": 0.71
    },
    {
      "id": "n-07499",
      "pitch": "G2",
      "midi": 43,
      "start": 295.313,
      "duration": 0.313,
      "velocity": 0.71
    },
    {
      "id": "n-07500",
      "pitch": "G3",
      "midi": 55,
      "start": 295.313,
      "duration": 0.313,
      "velocity": 0.71
    },
    {
      "id": "n-07501",
      "pitch": "G3",
      "midi": 55,
      "start": 295.313,
      "duration": 0.313,
      "velocity": 0.71
    },
    {
      "id": "n-07502",
      "pitch": "B3",
      "midi": 59,
      "start": 295.313,
      "duration": 0.313,
      "velocity": 0.71
    },
    {
      "id": "n-07503",
      "pitch": "G4",
      "midi": 67,
      "start": 295.313,
      "duration": 0.313,
      "velocity": 0.71
    },
    {
      "id": "n-07504",
      "pitch": "G4",
      "midi": 67,
      "start": 295.313,
      "duration": 0.313,
      "velocity": 0.71
    },
    {
      "id": "n-07505",
      "pitch": "D5",
      "midi": 74,
      "start": 295.313,
      "duration": 0.313,
      "velocity": 0.71
    },
    {
      "id": "n-07506",
      "pitch": "D5",
      "midi": 74,
      "start": 295.313,
      "duration": 0.313,
      "velocity": 0.71
    },
    {
      "id": "n-07507",
      "pitch": "G5",
      "midi": 79,
      "start": 295.313,
      "duration": 0.313,
      "velocity": 0.71
    },
    {
      "id": "n-07508",
      "pitch": "B5",
      "midi": 83,
      "start": 295.313,
      "duration": 0.313,
      "velocity": 0.71
    },
    {
      "id": "n-07509",
      "pitch": "D6",
      "midi": 86,
      "start": 295.313,
      "duration": 0.313,
      "velocity": 0.71
    },
    {
      "id": "n-07510",
      "pitch": "G6",
      "midi": 91,
      "start": 295.313,
      "duration": 0.313,
      "velocity": 0.71
    },
    {
      "id": "n-07511",
      "pitch": "C3",
      "midi": 48,
      "start": 295.625,
      "duration": 0.313,
      "velocity": 0.71
    },
    {
      "id": "n-07512",
      "pitch": "C3",
      "midi": 48,
      "start": 295.625,
      "duration": 0.313,
      "velocity": 0.71
    },
    {
      "id": "n-07513",
      "pitch": "C3",
      "midi": 48,
      "start": 295.625,
      "duration": 0.313,
      "velocity": 0.71
    },
    {
      "id": "n-07514",
      "pitch": "C3",
      "midi": 48,
      "start": 295.625,
      "duration": 0.313,
      "velocity": 0.71
    },
    {
      "id": "n-07515",
      "pitch": "C3",
      "midi": 48,
      "start": 295.625,
      "duration": 0.156,
      "velocity": 0.71
    },
    {
      "id": "n-07516",
      "pitch": "G3",
      "midi": 55,
      "start": 295.625,
      "duration": 0.156,
      "velocity": 0.71
    },
    {
      "id": "n-07517",
      "pitch": "G3",
      "midi": 55,
      "start": 295.625,
      "duration": 0.156,
      "velocity": 0.71
    },
    {
      "id": "n-07518",
      "pitch": "C4",
      "midi": 60,
      "start": 295.625,
      "duration": 0.313,
      "velocity": 0.71
    },
    {
      "id": "n-07519",
      "pitch": "C4",
      "midi": 60,
      "start": 295.625,
      "duration": 0.313,
      "velocity": 0.71
    },
    {
      "id": "n-07520",
      "pitch": "C4",
      "midi": 60,
      "start": 295.625,
      "duration": 0.156,
      "velocity": 0.71
    },
    {
      "id": "n-07521",
      "pitch": "D#4",
      "midi": 63,
      "start": 295.625,
      "duration": 0.313,
      "velocity": 0.71
    },
    {
      "id": "n-07522",
      "pitch": "D#4",
      "midi": 63,
      "start": 295.625,
      "duration": 0.156,
      "velocity": 0.71
    },
    {
      "id": "n-07523",
      "pitch": "D#4",
      "midi": 63,
      "start": 295.625,
      "duration": 0.156,
      "velocity": 0.71
    },
    {
      "id": "n-07524",
      "pitch": "G4",
      "midi": 67,
      "start": 295.625,
      "duration": 0.313,
      "velocity": 0.71
    },
    {
      "id": "n-07525",
      "pitch": "C5",
      "midi": 72,
      "start": 295.625,
      "duration": 0.313,
      "velocity": 0.71
    },
    {
      "id": "n-07526",
      "pitch": "C5",
      "midi": 72,
      "start": 295.625,
      "duration": 0.313,
      "velocity": 0.71
    },
    {
      "id": "n-07527",
      "pitch": "C5",
      "midi": 72,
      "start": 295.625,
      "duration": 0.156,
      "velocity": 0.71
    },
    {
      "id": "n-07528",
      "pitch": "C5",
      "midi": 72,
      "start": 295.625,
      "duration": 0.156,
      "velocity": 0.71
    },
    {
      "id": "n-07529",
      "pitch": "D#5",
      "midi": 75,
      "start": 295.625,
      "duration": 0.313,
      "velocity": 0.71
    },
    {
      "id": "n-07530",
      "pitch": "C6",
      "midi": 84,
      "start": 295.625,
      "duration": 0.313,
      "velocity": 0.71
    },
    {
      "id": "n-07531",
      "pitch": "C6",
      "midi": 84,
      "start": 295.625,
      "duration": 0.313,
      "velocity": 0.71
    },
    {
      "id": "n-07532",
      "pitch": "G3",
      "midi": 55,
      "start": 295.781,
      "duration": 0.156,
      "velocity": 0.71
    },
    {
      "id": "n-07533",
      "pitch": "G4",
      "midi": 67,
      "start": 295.781,
      "duration": 0.156,
      "velocity": 0.71
    },
    {
      "id": "n-07534",
      "pitch": "G5",
      "midi": 79,
      "start": 295.781,
      "duration": 0.156,
      "velocity": 0.71
    },
    {
      "id": "n-07535",
      "pitch": "G3",
      "midi": 55,
      "start": 295.938,
      "duration": 0.156,
      "velocity": 0.71
    },
    {
      "id": "n-07536",
      "pitch": "G4",
      "midi": 67,
      "start": 295.938,
      "duration": 0.156,
      "velocity": 0.71
    },
    {
      "id": "n-07537",
      "pitch": "G5",
      "midi": 79,
      "start": 295.938,
      "duration": 0.156,
      "velocity": 0.71
    },
    {
      "id": "n-07538",
      "pitch": "G3",
      "midi": 55,
      "start": 296.094,
      "duration": 0.156,
      "velocity": 0.71
    },
    {
      "id": "n-07539",
      "pitch": "G4",
      "midi": 67,
      "start": 296.094,
      "duration": 0.156,
      "velocity": 0.71
    },
    {
      "id": "n-07540",
      "pitch": "G5",
      "midi": 79,
      "start": 296.094,
      "duration": 0.156,
      "velocity": 0.71
    },
    {
      "id": "n-07541",
      "pitch": "G3",
      "midi": 55,
      "start": 296.25,
      "duration": 2.656,
      "velocity": 0.71
    },
    {
      "id": "n-07542",
      "pitch": "G4",
      "midi": 67,
      "start": 296.25,
      "duration": 3.125,
      "velocity": 0.71
    },
    {
      "id": "n-07543",
      "pitch": "G5",
      "midi": 79,
      "start": 296.25,
      "duration": 3.125,
      "velocity": 0.71
    },
    {
      "id": "n-07544",
      "pitch": "D4",
      "midi": 62,
      "start": 296.406,
      "duration": 0.156,
      "velocity": 0.71
    },
    {
      "id": "n-07545",
      "pitch": "F4",
      "midi": 65,
      "start": 296.406,
      "duration": 0.156,
      "velocity": 0.71
    },
    {
      "id": "n-07546",
      "pitch": "B4",
      "midi": 71,
      "start": 296.406,
      "duration": 0.156,
      "velocity": 0.71
    },
    {
      "id": "n-07547",
      "pitch": "D5",
      "midi": 74,
      "start": 296.406,
      "duration": 0.156,
      "velocity": 0.71
    },
    {
      "id": "n-07548",
      "pitch": "D5",
      "midi": 74,
      "start": 296.406,
      "duration": 0.156,
      "velocity": 0.71
    },
    {
      "id": "n-07549",
      "pitch": "B5",
      "midi": 83,
      "start": 296.406,
      "duration": 0.156,
      "velocity": 0.71
    },
    {
      "id": "n-07550",
      "pitch": "D6",
      "midi": 86,
      "start": 296.406,
      "duration": 0.156,
      "velocity": 0.71
    },
    {
      "id": "n-07551",
      "pitch": "G6",
      "midi": 91,
      "start": 296.406,
      "duration": 0.156,
      "velocity": 0.71
    },
    {
      "id": "n-07552",
      "pitch": "D4",
      "midi": 62,
      "start": 296.563,
      "duration": 0.156,
      "velocity": 0.71
    },
    {
      "id": "n-07553",
      "pitch": "F4",
      "midi": 65,
      "start": 296.563,
      "duration": 0.156,
      "velocity": 0.71
    },
    {
      "id": "n-07554",
      "pitch": "B4",
      "midi": 71,
      "start": 296.563,
      "duration": 0.156,
      "velocity": 0.71
    },
    {
      "id": "n-07555",
      "pitch": "D5",
      "midi": 74,
      "start": 296.563,
      "duration": 0.156,
      "velocity": 0.71
    },
    {
      "id": "n-07556",
      "pitch": "D5",
      "midi": 74,
      "start": 296.563,
      "duration": 0.156,
      "velocity": 0.71
    },
    {
      "id": "n-07557",
      "pitch": "B5",
      "midi": 83,
      "start": 296.563,
      "duration": 0.156,
      "velocity": 0.71
    },
    {
      "id": "n-07558",
      "pitch": "D6",
      "midi": 86,
      "start": 296.563,
      "duration": 0.156,
      "velocity": 0.71
    },
    {
      "id": "n-07559",
      "pitch": "G6",
      "midi": 91,
      "start": 296.563,
      "duration": 0.156,
      "velocity": 0.71
    },
    {
      "id": "n-07560",
      "pitch": "D4",
      "midi": 62,
      "start": 296.719,
      "duration": 0.156,
      "velocity": 0.71
    },
    {
      "id": "n-07561",
      "pitch": "F4",
      "midi": 65,
      "start": 296.719,
      "duration": 0.156,
      "velocity": 0.71
    },
    {
      "id": "n-07562",
      "pitch": "B4",
      "midi": 71,
      "start": 296.719,
      "duration": 0.156,
      "velocity": 0.71
    },
    {
      "id": "n-07563",
      "pitch": "D5",
      "midi": 74,
      "start": 296.719,
      "duration": 0.156,
      "velocity": 0.71
    },
    {
      "id": "n-07564",
      "pitch": "D5",
      "midi": 74,
      "start": 296.719,
      "duration": 0.156,
      "velocity": 0.71
    },
    {
      "id": "n-07565",
      "pitch": "B5",
      "midi": 83,
      "start": 296.719,
      "duration": 0.156,
      "velocity": 0.71
    },
    {
      "id": "n-07566",
      "pitch": "D6",
      "midi": 86,
      "start": 296.719,
      "duration": 0.156,
      "velocity": 0.71
    },
    {
      "id": "n-07567",
      "pitch": "G6",
      "midi": 91,
      "start": 296.719,
      "duration": 0.156,
      "velocity": 0.71
    },
    {
      "id": "n-07568",
      "pitch": "D4",
      "midi": 62,
      "start": 296.875,
      "duration": 0.938,
      "velocity": 0.71
    },
    {
      "id": "n-07569",
      "pitch": "F4",
      "midi": 65,
      "start": 296.875,
      "duration": 0.938,
      "velocity": 0.71
    },
    {
      "id": "n-07570",
      "pitch": "B4",
      "midi": 71,
      "start": 296.875,
      "duration": 0.938,
      "velocity": 0.71
    },
    {
      "id": "n-07571",
      "pitch": "D5",
      "midi": 74,
      "start": 296.875,
      "duration": 0.938,
      "velocity": 0.71
    },
    {
      "id": "n-07572",
      "pitch": "D5",
      "midi": 74,
      "start": 296.875,
      "duration": 0.938,
      "velocity": 0.71
    },
    {
      "id": "n-07573",
      "pitch": "B5",
      "midi": 83,
      "start": 296.875,
      "duration": 0.938,
      "velocity": 0.71
    },
    {
      "id": "n-07574",
      "pitch": "D6",
      "midi": 86,
      "start": 296.875,
      "duration": 0.938,
      "velocity": 0.71
    },
    {
      "id": "n-07575",
      "pitch": "G6",
      "midi": 91,
      "start": 296.875,
      "duration": 2.5,
      "velocity": 0.71
    },
    {
      "id": "n-07576",
      "pitch": "C4",
      "midi": 60,
      "start": 297.813,
      "duration": 0.313,
      "velocity": 0.71
    },
    {
      "id": "n-07577",
      "pitch": "D#4",
      "midi": 63,
      "start": 297.813,
      "duration": 0.313,
      "velocity": 0.71
    },
    {
      "id": "n-07578",
      "pitch": "C5",
      "midi": 72,
      "start": 297.813,
      "duration": 0.313,
      "velocity": 0.71
    },
    {
      "id": "n-07579",
      "pitch": "D#5",
      "midi": 75,
      "start": 297.813,
      "duration": 0.313,
      "velocity": 0.71
    },
    {
      "id": "n-07580",
      "pitch": "D#5",
      "midi": 75,
      "start": 297.813,
      "duration": 0.313,
      "velocity": 0.71
    },
    {
      "id": "n-07581",
      "pitch": "C6",
      "midi": 84,
      "start": 297.813,
      "duration": 0.313,
      "velocity": 0.71
    },
    {
      "id": "n-07582",
      "pitch": "D#6",
      "midi": 87,
      "start": 297.813,
      "duration": 0.313,
      "velocity": 0.71
    },
    {
      "id": "n-07583",
      "pitch": "B3",
      "midi": 59,
      "start": 298.125,
      "duration": 0.313,
      "velocity": 0.71
    },
    {
      "id": "n-07584",
      "pitch": "D4",
      "midi": 62,
      "start": 298.125,
      "duration": 0.313,
      "velocity": 0.71
    },
    {
      "id": "n-07585",
      "pitch": "D5",
      "midi": 74,
      "start": 298.125,
      "duration": 0.313,
      "velocity": 0.71
    },
    {
      "id": "n-07586",
      "pitch": "F5",
      "midi": 77,
      "start": 298.125,
      "duration": 0.313,
      "velocity": 0.71
    },
    {
      "id": "n-07587",
      "pitch": "F5",
      "midi": 77,
      "start": 298.125,
      "duration": 0.313,
      "velocity": 0.71
    },
    {
      "id": "n-07588",
      "pitch": "D6",
      "midi": 86,
      "start": 298.125,
      "duration": 0.313,
      "velocity": 0.71
    },
    {
      "id": "n-07589",
      "pitch": "F6",
      "midi": 89,
      "start": 298.125,
      "duration": 0.313,
      "velocity": 0.71
    },
    {
      "id": "n-07590",
      "pitch": "D4",
      "midi": 62,
      "start": 298.438,
      "duration": 0.313,
      "velocity": 0.71
    },
    {
      "id": "n-07591",
      "pitch": "F4",
      "midi": 65,
      "start": 298.438,
      "duration": 0.313,
      "velocity": 0.71
    },
    {
      "id": "n-07592",
      "pitch": "F4",
      "midi": 65,
      "start": 298.438,
      "duration": 0.313,
      "velocity": 0.71
    },
    {
      "id": "n-07593",
      "pitch": "G4",
      "midi": 67,
      "start": 298.438,
      "duration": 0.313,
      "velocity": 0.71
    },
    {
      "id": "n-07594",
      "pitch": "B4",
      "midi": 71,
      "start": 298.438,
      "duration": 0.313,
      "velocity": 0.71
    },
    {
      "id": "n-07595",
      "pitch": "D5",
      "midi": 74,
      "start": 298.438,
      "duration": 0.313,
      "velocity": 0.71
    },
    {
      "id": "n-07596",
      "pitch": "D5",
      "midi": 74,
      "start": 298.438,
      "duration": 0.313,
      "velocity": 0.71
    },
    {
      "id": "n-07597",
      "pitch": "B5",
      "midi": 83,
      "start": 298.438,
      "duration": 0.313,
      "velocity": 0.71
    },
    {
      "id": "n-07598",
      "pitch": "D6",
      "midi": 86,
      "start": 298.438,
      "duration": 0.313,
      "velocity": 0.71
    },
    {
      "id": "n-07599",
      "pitch": "C4",
      "midi": 60,
      "start": 298.75,
      "duration": 0.313,
      "velocity": 0.71
    },
    {
      "id": "n-07600",
      "pitch": "D#4",
      "midi": 63,
      "start": 298.75,
      "duration": 0.313,
      "velocity": 0.71
    },
    {
      "id": "n-07601",
      "pitch": "D#4",
      "midi": 63,
      "start": 298.75,
      "duration": 0.313,
      "velocity": 0.71
    },
    {
      "id": "n-07602",
      "pitch": "G4",
      "midi": 67,
      "start": 298.75,
      "duration": 0.313,
      "velocity": 0.71
    },
    {
      "id": "n-07603",
      "pitch": "C5",
      "midi": 72,
      "start": 298.75,
      "duration": 0.313,
      "velocity": 0.71
    },
    {
      "id": "n-07604",
      "pitch": "D#5",
      "midi": 75,
      "start": 298.75,
      "duration": 0.313,
      "velocity": 0.71
    },
    {
      "id": "n-07605",
      "pitch": "D#5",
      "midi": 75,
      "start": 298.75,
      "duration": 0.313,
      "velocity": 0.71
    },
    {
      "id": "n-07606",
      "pitch": "C6",
      "midi": 84,
      "start": 298.75,
      "duration": 0.313,
      "velocity": 0.71
    },
    {
      "id": "n-07607",
      "pitch": "D#6",
      "midi": 87,
      "start": 298.75,
      "duration": 0.313,
      "velocity": 0.71
    },
    {
      "id": "n-07608",
      "pitch": "G2",
      "midi": 43,
      "start": 298.906,
      "duration": 0.156,
      "velocity": 0.71
    },
    {
      "id": "n-07609",
      "pitch": "G2",
      "midi": 43,
      "start": 298.906,
      "duration": 0.156,
      "velocity": 0.71
    },
    {
      "id": "n-07610",
      "pitch": "G2",
      "midi": 43,
      "start": 298.906,
      "duration": 0.156,
      "velocity": 0.71
    },
    {
      "id": "n-07611",
      "pitch": "G3",
      "midi": 55,
      "start": 298.906,
      "duration": 0.156,
      "velocity": 0.71
    },
    {
      "id": "n-07612",
      "pitch": "G3",
      "midi": 55,
      "start": 298.906,
      "duration": 0.156,
      "velocity": 0.71
    },
    {
      "id": "n-07613",
      "pitch": "G4",
      "midi": 67,
      "start": 298.906,
      "duration": 0.156,
      "velocity": 0.71
    },
    {
      "id": "n-07614",
      "pitch": "G2",
      "midi": 43,
      "start": 299.063,
      "duration": 0.156,
      "velocity": 0.71
    },
    {
      "id": "n-07615",
      "pitch": "G2",
      "midi": 43,
      "start": 299.063,
      "duration": 0.156,
      "velocity": 0.71
    },
    {
      "id": "n-07616",
      "pitch": "G2",
      "midi": 43,
      "start": 299.063,
      "duration": 0.156,
      "velocity": 0.71
    },
    {
      "id": "n-07617",
      "pitch": "G3",
      "midi": 55,
      "start": 299.063,
      "duration": 0.156,
      "velocity": 0.71
    },
    {
      "id": "n-07618",
      "pitch": "G3",
      "midi": 55,
      "start": 299.063,
      "duration": 0.156,
      "velocity": 0.71
    },
    {
      "id": "n-07619",
      "pitch": "B3",
      "midi": 59,
      "start": 299.063,
      "duration": 0.313,
      "velocity": 0.71
    },
    {
      "id": "n-07620",
      "pitch": "D4",
      "midi": 62,
      "start": 299.063,
      "duration": 0.313,
      "velocity": 0.71
    },
    {
      "id": "n-07621",
      "pitch": "F4",
      "midi": 65,
      "start": 299.063,
      "duration": 0.313,
      "velocity": 0.71
    },
    {
      "id": "n-07622",
      "pitch": "G4",
      "midi": 67,
      "start": 299.063,
      "duration": 0.313,
      "velocity": 0.71
    },
    {
      "id": "n-07623",
      "pitch": "G4",
      "midi": 67,
      "start": 299.063,
      "duration": 0.156,
      "velocity": 0.71
    },
    {
      "id": "n-07624",
      "pitch": "D5",
      "midi": 74,
      "start": 299.063,
      "duration": 0.313,
      "velocity": 0.71
    },
    {
      "id": "n-07625",
      "pitch": "F5",
      "midi": 77,
      "start": 299.063,
      "duration": 0.313,
      "velocity": 0.71
    },
    {
      "id": "n-07626",
      "pitch": "F5",
      "midi": 77,
      "start": 299.063,
      "duration": 0.313,
      "velocity": 0.71
    },
    {
      "id": "n-07627",
      "pitch": "D6",
      "midi": 86,
      "start": 299.063,
      "duration": 0.313,
      "velocity": 0.71
    },
    {
      "id": "n-07628",
      "pitch": "F6",
      "midi": 89,
      "start": 299.063,
      "duration": 0.313,
      "velocity": 0.71
    },
    {
      "id": "n-07629",
      "pitch": "G2",
      "midi": 43,
      "start": 299.219,
      "duration": 0.156,
      "velocity": 0.71
    },
    {
      "id": "n-07630",
      "pitch": "G2",
      "midi": 43,
      "start": 299.219,
      "duration": 0.156,
      "velocity": 0.71
    },
    {
      "id": "n-07631",
      "pitch": "G2",
      "midi": 43,
      "start": 299.219,
      "duration": 0.156,
      "velocity": 0.71
    },
    {
      "id": "n-07632",
      "pitch": "G3",
      "midi": 55,
      "start": 299.219,
      "duration": 0.156,
      "velocity": 0.71
    },
    {
      "id": "n-07633",
      "pitch": "G3",
      "midi": 55,
      "start": 299.219,
      "duration": 0.156,
      "velocity": 0.71
    },
    {
      "id": "n-07634",
      "pitch": "G4",
      "midi": 67,
      "start": 299.219,
      "duration": 0.156,
      "velocity": 0.71
    },
    {
      "id": "n-07635",
      "pitch": "C3",
      "midi": 48,
      "start": 299.375,
      "duration": 0.313,
      "velocity": 0.71
    },
    {
      "id": "n-07636",
      "pitch": "C3",
      "midi": 48,
      "start": 299.375,
      "duration": 0.156,
      "velocity": 0.71
    },
    {
      "id": "n-07637",
      "pitch": "C3",
      "midi": 48,
      "start": 299.375,
      "duration": 0.156,
      "velocity": 0.71
    },
    {
      "id": "n-07638",
      "pitch": "C4",
      "midi": 60,
      "start": 299.375,
      "duration": 0.313,
      "velocity": 0.71
    },
    {
      "id": "n-07639",
      "pitch": "C4",
      "midi": 60,
      "start": 299.375,
      "duration": 0.313,
      "velocity": 0.71
    },
    {
      "id": "n-07640",
      "pitch": "C4",
      "midi": 60,
      "start": 299.375,
      "duration": 0.156,
      "velocity": 0.71
    },
    {
      "id": "n-07641",
      "pitch": "C4",
      "midi": 60,
      "start": 299.375,
      "duration": 0.156,
      "velocity": 0.71
    },
    {
      "id": "n-07642",
      "pitch": "D#4",
      "midi": 63,
      "start": 299.375,
      "duration": 0.313,
      "velocity": 0.71
    },
    {
      "id": "n-07643",
      "pitch": "D#4",
      "midi": 63,
      "start": 299.375,
      "duration": 0.313,
      "velocity": 0.71
    },
    {
      "id": "n-07644",
      "pitch": "C5",
      "midi": 72,
      "start": 299.375,
      "duration": 0.313,
      "velocity": 0.71
    },
    {
      "id": "n-07645",
      "pitch": "C5",
      "midi": 72,
      "start": 299.375,
      "duration": 0.313,
      "velocity": 0.71
    },
    {
      "id": "n-07646",
      "pitch": "C5",
      "midi": 72,
      "start": 299.375,
      "duration": 0.156,
      "velocity": 0.71
    },
    {
      "id": "n-07647",
      "pitch": "D#5",
      "midi": 75,
      "start": 299.375,
      "duration": 0.313,
      "velocity": 0.71
    },
    {
      "id": "n-07648",
      "pitch": "D#5",
      "midi": 75,
      "start": 299.375,
      "duration": 0.313,
      "velocity": 0.71
    },
    {
      "id": "n-07649",
      "pitch": "C6",
      "midi": 84,
      "start": 299.375,
      "duration": 0.313,
      "velocity": 0.71
    },
    {
      "id": "n-07650",
      "pitch": "D#6",
      "midi": 87,
      "start": 299.375,
      "duration": 0.313,
      "velocity": 0.71
    },
    {
      "id": "n-07651",
      "pitch": "G6",
      "midi": 91,
      "start": 299.375,
      "duration": 0.313,
      "velocity": 0.71
    },
    {
      "id": "n-07652",
      "pitch": "G2",
      "midi": 43,
      "start": 299.531,
      "duration": 0.156,
      "velocity": 0.71
    },
    {
      "id": "n-07653",
      "pitch": "G2",
      "midi": 43,
      "start": 299.531,
      "duration": 0.156,
      "velocity": 0.71
    },
    {
      "id": "n-07654",
      "pitch": "G3",
      "midi": 55,
      "start": 299.531,
      "duration": 0.156,
      "velocity": 0.71
    },
    {
      "id": "n-07655",
      "pitch": "G4",
      "midi": 67,
      "start": 299.531,
      "duration": 0.156,
      "velocity": 0.71
    },
    {
      "id": "n-07656",
      "pitch": "G5",
      "midi": 79,
      "start": 299.531,
      "duration": 0.156,
      "velocity": 0.71
    },
    {
      "id": "n-07657",
      "pitch": "G2",
      "midi": 43,
      "start": 299.688,
      "duration": 0.156,
      "velocity": 0.71
    },
    {
      "id": "n-07658",
      "pitch": "G2",
      "midi": 43,
      "start": 299.688,
      "duration": 0.156,
      "velocity": 0.71
    },
    {
      "id": "n-07659",
      "pitch": "G3",
      "midi": 55,
      "start": 299.688,
      "duration": 0.156,
      "velocity": 0.71
    },
    {
      "id": "n-07660",
      "pitch": "G4",
      "midi": 67,
      "start": 299.688,
      "duration": 0.156,
      "velocity": 0.71
    },
    {
      "id": "n-07661",
      "pitch": "G5",
      "midi": 79,
      "start": 299.688,
      "duration": 0.156,
      "velocity": 0.71
    },
    {
      "id": "n-07662",
      "pitch": "G2",
      "midi": 43,
      "start": 299.844,
      "duration": 0.156,
      "velocity": 0.71
    },
    {
      "id": "n-07663",
      "pitch": "G2",
      "midi": 43,
      "start": 299.844,
      "duration": 0.156,
      "velocity": 0.71
    },
    {
      "id": "n-07664",
      "pitch": "G3",
      "midi": 55,
      "start": 299.844,
      "duration": 0.156,
      "velocity": 0.71
    },
    {
      "id": "n-07665",
      "pitch": "G4",
      "midi": 67,
      "start": 299.844,
      "duration": 0.156,
      "velocity": 0.71
    },
    {
      "id": "n-07666",
      "pitch": "G5",
      "midi": 79,
      "start": 299.844,
      "duration": 0.156,
      "velocity": 0.71
    },
    {
      "id": "n-07667",
      "pitch": "G2",
      "midi": 43,
      "start": 300,
      "duration": 0.625,
      "velocity": 0.71
    },
    {
      "id": "n-07668",
      "pitch": "G2",
      "midi": 43,
      "start": 300,
      "duration": 0.625,
      "velocity": 0.71
    },
    {
      "id": "n-07669",
      "pitch": "G3",
      "midi": 55,
      "start": 300,
      "duration": 0.625,
      "velocity": 0.71
    },
    {
      "id": "n-07670",
      "pitch": "G4",
      "midi": 67,
      "start": 300,
      "duration": 0.625,
      "velocity": 0.71
    },
    {
      "id": "n-07671",
      "pitch": "G5",
      "midi": 79,
      "start": 300,
      "duration": 0.625,
      "velocity": 0.71
    },
    {
      "id": "n-07672",
      "pitch": "G2",
      "midi": 43,
      "start": 300.156,
      "duration": 0.156,
      "velocity": 0.71
    },
    {
      "id": "n-07673",
      "pitch": "G3",
      "midi": 55,
      "start": 300.156,
      "duration": 0.156,
      "velocity": 0.71
    },
    {
      "id": "n-07674",
      "pitch": "G4",
      "midi": 67,
      "start": 300.156,
      "duration": 0.156,
      "velocity": 0.71
    },
    {
      "id": "n-07675",
      "pitch": "G4",
      "midi": 67,
      "start": 300.156,
      "duration": 0.156,
      "velocity": 0.71
    },
    {
      "id": "n-07676",
      "pitch": "G5",
      "midi": 79,
      "start": 300.156,
      "duration": 0.156,
      "velocity": 0.71
    },
    {
      "id": "n-07677",
      "pitch": "G5",
      "midi": 79,
      "start": 300.156,
      "duration": 0.156,
      "velocity": 0.71
    },
    {
      "id": "n-07678",
      "pitch": "G5",
      "midi": 79,
      "start": 300.156,
      "duration": 0.156,
      "velocity": 0.71
    },
    {
      "id": "n-07679",
      "pitch": "G6",
      "midi": 91,
      "start": 300.156,
      "duration": 0.156,
      "velocity": 0.71
    },
    {
      "id": "n-07680",
      "pitch": "G2",
      "midi": 43,
      "start": 300.313,
      "duration": 0.156,
      "velocity": 0.71
    },
    {
      "id": "n-07681",
      "pitch": "G3",
      "midi": 55,
      "start": 300.313,
      "duration": 0.156,
      "velocity": 0.71
    },
    {
      "id": "n-07682",
      "pitch": "G4",
      "midi": 67,
      "start": 300.313,
      "duration": 0.156,
      "velocity": 0.71
    },
    {
      "id": "n-07683",
      "pitch": "G4",
      "midi": 67,
      "start": 300.313,
      "duration": 0.156,
      "velocity": 0.71
    },
    {
      "id": "n-07684",
      "pitch": "G5",
      "midi": 79,
      "start": 300.313,
      "duration": 0.156,
      "velocity": 0.71
    },
    {
      "id": "n-07685",
      "pitch": "G5",
      "midi": 79,
      "start": 300.313,
      "duration": 0.156,
      "velocity": 0.71
    },
    {
      "id": "n-07686",
      "pitch": "G5",
      "midi": 79,
      "start": 300.313,
      "duration": 0.156,
      "velocity": 0.71
    },
    {
      "id": "n-07687",
      "pitch": "G6",
      "midi": 91,
      "start": 300.313,
      "duration": 0.156,
      "velocity": 0.71
    },
    {
      "id": "n-07688",
      "pitch": "G2",
      "midi": 43,
      "start": 300.469,
      "duration": 0.156,
      "velocity": 0.71
    },
    {
      "id": "n-07689",
      "pitch": "G3",
      "midi": 55,
      "start": 300.469,
      "duration": 0.156,
      "velocity": 0.71
    },
    {
      "id": "n-07690",
      "pitch": "G4",
      "midi": 67,
      "start": 300.469,
      "duration": 0.156,
      "velocity": 0.71
    },
    {
      "id": "n-07691",
      "pitch": "G4",
      "midi": 67,
      "start": 300.469,
      "duration": 0.156,
      "velocity": 0.71
    },
    {
      "id": "n-07692",
      "pitch": "G5",
      "midi": 79,
      "start": 300.469,
      "duration": 0.156,
      "velocity": 0.71
    },
    {
      "id": "n-07693",
      "pitch": "G5",
      "midi": 79,
      "start": 300.469,
      "duration": 0.156,
      "velocity": 0.71
    },
    {
      "id": "n-07694",
      "pitch": "G5",
      "midi": 79,
      "start": 300.469,
      "duration": 0.156,
      "velocity": 0.71
    },
    {
      "id": "n-07695",
      "pitch": "G6",
      "midi": 91,
      "start": 300.469,
      "duration": 0.156,
      "velocity": 0.71
    },
    {
      "id": "n-07696",
      "pitch": "G2",
      "midi": 43,
      "start": 300.625,
      "duration": 0.625,
      "velocity": 0.71
    },
    {
      "id": "n-07697",
      "pitch": "G2",
      "midi": 43,
      "start": 300.625,
      "duration": 0.625,
      "velocity": 0.71
    },
    {
      "id": "n-07698",
      "pitch": "G2",
      "midi": 43,
      "start": 300.625,
      "duration": 0.625,
      "velocity": 0.71
    },
    {
      "id": "n-07699",
      "pitch": "G3",
      "midi": 55,
      "start": 300.625,
      "duration": 0.625,
      "velocity": 0.71
    },
    {
      "id": "n-07700",
      "pitch": "G3",
      "midi": 55,
      "start": 300.625,
      "duration": 0.625,
      "velocity": 0.71
    },
    {
      "id": "n-07701",
      "pitch": "G4",
      "midi": 67,
      "start": 300.625,
      "duration": 0.625,
      "velocity": 0.71
    },
    {
      "id": "n-07702",
      "pitch": "G4",
      "midi": 67,
      "start": 300.625,
      "duration": 0.625,
      "velocity": 0.71
    },
    {
      "id": "n-07703",
      "pitch": "G4",
      "midi": 67,
      "start": 300.625,
      "duration": 0.625,
      "velocity": 0.71
    },
    {
      "id": "n-07704",
      "pitch": "G5",
      "midi": 79,
      "start": 300.625,
      "duration": 0.625,
      "velocity": 0.71
    },
    {
      "id": "n-07705",
      "pitch": "G5",
      "midi": 79,
      "start": 300.625,
      "duration": 0.625,
      "velocity": 0.71
    },
    {
      "id": "n-07706",
      "pitch": "G5",
      "midi": 79,
      "start": 300.625,
      "duration": 0.625,
      "velocity": 0.71
    },
    {
      "id": "n-07707",
      "pitch": "G5",
      "midi": 79,
      "start": 300.625,
      "duration": 0.625,
      "velocity": 0.71
    },
    {
      "id": "n-07708",
      "pitch": "G6",
      "midi": 91,
      "start": 300.625,
      "duration": 0.625,
      "velocity": 0.71
    },
    {
      "id": "n-07709",
      "pitch": "G2",
      "midi": 43,
      "start": 301.25,
      "duration": 0.625,
      "velocity": 0.71
    },
    {
      "id": "n-07710",
      "pitch": "G2",
      "midi": 43,
      "start": 301.25,
      "duration": 0.625,
      "velocity": 0.71
    },
    {
      "id": "n-07711",
      "pitch": "G2",
      "midi": 43,
      "start": 301.25,
      "duration": 0.625,
      "velocity": 0.71
    },
    {
      "id": "n-07712",
      "pitch": "G3",
      "midi": 55,
      "start": 301.25,
      "duration": 0.625,
      "velocity": 0.71
    },
    {
      "id": "n-07713",
      "pitch": "G3",
      "midi": 55,
      "start": 301.25,
      "duration": 0.625,
      "velocity": 0.71
    },
    {
      "id": "n-07714",
      "pitch": "G4",
      "midi": 67,
      "start": 301.25,
      "duration": 0.625,
      "velocity": 0.71
    },
    {
      "id": "n-07715",
      "pitch": "G4",
      "midi": 67,
      "start": 301.25,
      "duration": 0.625,
      "velocity": 0.71
    },
    {
      "id": "n-07716",
      "pitch": "G4",
      "midi": 67,
      "start": 301.25,
      "duration": 0.625,
      "velocity": 0.71
    },
    {
      "id": "n-07717",
      "pitch": "G5",
      "midi": 79,
      "start": 301.25,
      "duration": 0.625,
      "velocity": 0.71
    },
    {
      "id": "n-07718",
      "pitch": "G5",
      "midi": 79,
      "start": 301.25,
      "duration": 0.625,
      "velocity": 0.71
    },
    {
      "id": "n-07719",
      "pitch": "G5",
      "midi": 79,
      "start": 301.25,
      "duration": 0.625,
      "velocity": 0.71
    },
    {
      "id": "n-07720",
      "pitch": "G5",
      "midi": 79,
      "start": 301.25,
      "duration": 0.625,
      "velocity": 0.71
    },
    {
      "id": "n-07721",
      "pitch": "G6",
      "midi": 91,
      "start": 301.25,
      "duration": 0.625,
      "velocity": 0.71
    },
    {
      "id": "n-07722",
      "pitch": "G2",
      "midi": 43,
      "start": 301.406,
      "duration": 0.156,
      "velocity": 0.71
    },
    {
      "id": "n-07723",
      "pitch": "G3",
      "midi": 55,
      "start": 301.406,
      "duration": 0.156,
      "velocity": 0.71
    },
    {
      "id": "n-07724",
      "pitch": "G4",
      "midi": 67,
      "start": 301.406,
      "duration": 0.156,
      "velocity": 0.71
    },
    {
      "id": "n-07725",
      "pitch": "G2",
      "midi": 43,
      "start": 301.563,
      "duration": 0.156,
      "velocity": 0.71
    },
    {
      "id": "n-07726",
      "pitch": "G3",
      "midi": 55,
      "start": 301.563,
      "duration": 0.156,
      "velocity": 0.71
    },
    {
      "id": "n-07727",
      "pitch": "G4",
      "midi": 67,
      "start": 301.563,
      "duration": 0.156,
      "velocity": 0.71
    },
    {
      "id": "n-07728",
      "pitch": "G2",
      "midi": 43,
      "start": 301.719,
      "duration": 0.156,
      "velocity": 0.71
    },
    {
      "id": "n-07729",
      "pitch": "G3",
      "midi": 55,
      "start": 301.719,
      "duration": 0.156,
      "velocity": 0.71
    },
    {
      "id": "n-07730",
      "pitch": "G4",
      "midi": 67,
      "start": 301.719,
      "duration": 0.156,
      "velocity": 0.71
    },
    {
      "id": "n-07731",
      "pitch": "D#2",
      "midi": 39,
      "start": 301.875,
      "duration": 0.625,
      "velocity": 0.71
    },
    {
      "id": "n-07732",
      "pitch": "D#2",
      "midi": 39,
      "start": 301.875,
      "duration": 0.625,
      "velocity": 0.71
    },
    {
      "id": "n-07733",
      "pitch": "D#2",
      "midi": 39,
      "start": 301.875,
      "duration": 0.625,
      "velocity": 0.71
    },
    {
      "id": "n-07734",
      "pitch": "G2",
      "midi": 43,
      "start": 301.875,
      "duration": 0.625,
      "velocity": 0.71
    },
    {
      "id": "n-07735",
      "pitch": "D#3",
      "midi": 51,
      "start": 301.875,
      "duration": 0.625,
      "velocity": 0.71
    },
    {
      "id": "n-07736",
      "pitch": "D#3",
      "midi": 51,
      "start": 301.875,
      "duration": 0.625,
      "velocity": 0.71
    },
    {
      "id": "n-07737",
      "pitch": "G3",
      "midi": 55,
      "start": 301.875,
      "duration": 0.625,
      "velocity": 0.71
    },
    {
      "id": "n-07738",
      "pitch": "D#4",
      "midi": 63,
      "start": 301.875,
      "duration": 0.625,
      "velocity": 0.71
    },
    {
      "id": "n-07739",
      "pitch": "D#4",
      "midi": 63,
      "start": 301.875,
      "duration": 0.625,
      "velocity": 0.71
    },
    {
      "id": "n-07740",
      "pitch": "D#4",
      "midi": 63,
      "start": 301.875,
      "duration": 0.625,
      "velocity": 0.71
    },
    {
      "id": "n-07741",
      "pitch": "G4",
      "midi": 67,
      "start": 301.875,
      "duration": 0.625,
      "velocity": 0.71
    },
    {
      "id": "n-07742",
      "pitch": "D#5",
      "midi": 75,
      "start": 301.875,
      "duration": 0.625,
      "velocity": 0.71
    },
    {
      "id": "n-07743",
      "pitch": "D#5",
      "midi": 75,
      "start": 301.875,
      "duration": 0.625,
      "velocity": 0.71
    },
    {
      "id": "n-07744",
      "pitch": "D#5",
      "midi": 75,
      "start": 301.875,
      "duration": 0.625,
      "velocity": 0.71
    },
    {
      "id": "n-07745",
      "pitch": "G5",
      "midi": 79,
      "start": 301.875,
      "duration": 0.625,
      "velocity": 0.71
    },
    {
      "id": "n-07746",
      "pitch": "D#6",
      "midi": 87,
      "start": 301.875,
      "duration": 0.625,
      "velocity": 0.71
    },
    {
      "id": "n-07747",
      "pitch": "G6",
      "midi": 91,
      "start": 301.875,
      "duration": 0.625,
      "velocity": 0.71
    },
    {
      "id": "n-07748",
      "pitch": "F2",
      "midi": 41,
      "start": 302.656,
      "duration": 0.156,
      "velocity": 0.71
    },
    {
      "id": "n-07749",
      "pitch": "F2",
      "midi": 41,
      "start": 302.656,
      "duration": 0.156,
      "velocity": 0.71
    },
    {
      "id": "n-07750",
      "pitch": "F2",
      "midi": 41,
      "start": 302.656,
      "duration": 0.156,
      "velocity": 0.71
    },
    {
      "id": "n-07751",
      "pitch": "G2",
      "midi": 43,
      "start": 302.656,
      "duration": 0.156,
      "velocity": 0.71
    },
    {
      "id": "n-07752",
      "pitch": "F3",
      "midi": 53,
      "start": 302.656,
      "duration": 0.156,
      "velocity": 0.71
    },
    {
      "id": "n-07753",
      "pitch": "F3",
      "midi": 53,
      "start": 302.656,
      "duration": 0.156,
      "velocity": 0.71
    },
    {
      "id": "n-07754",
      "pitch": "G3",
      "midi": 55,
      "start": 302.656,
      "duration": 0.156,
      "velocity": 0.71
    },
    {
      "id": "n-07755",
      "pitch": "F4",
      "midi": 65,
      "start": 302.656,
      "duration": 0.156,
      "velocity": 0.71
    },
    {
      "id": "n-07756",
      "pitch": "F4",
      "midi": 65,
      "start": 302.656,
      "duration": 0.156,
      "velocity": 0.71
    },
    {
      "id": "n-07757",
      "pitch": "G4",
      "midi": 67,
      "start": 302.656,
      "duration": 0.156,
      "velocity": 0.71
    },
    {
      "id": "n-07758",
      "pitch": "G4",
      "midi": 67,
      "start": 302.656,
      "duration": 0.156,
      "velocity": 0.71
    },
    {
      "id": "n-07759",
      "pitch": "F5",
      "midi": 77,
      "start": 302.656,
      "duration": 0.156,
      "velocity": 0.71
    },
    {
      "id": "n-07760",
      "pitch": "F5",
      "midi": 77,
      "start": 302.656,
      "duration": 0.156,
      "velocity": 0.71
    },
    {
      "id": "n-07761",
      "pitch": "F5",
      "midi": 77,
      "start": 302.656,
      "duration": 0.156,
      "velocity": 0.71
    },
    {
      "id": "n-07762",
      "pitch": "G5",
      "midi": 79,
      "start": 302.656,
      "duration": 0.156,
      "velocity": 0.71
    },
    {
      "id": "n-07763",
      "pitch": "F6",
      "midi": 89,
      "start": 302.656,
      "duration": 0.156,
      "velocity": 0.71
    },
    {
      "id": "n-07764",
      "pitch": "G6",
      "midi": 91,
      "start": 302.656,
      "duration": 0.156,
      "velocity": 0.71
    },
    {
      "id": "n-07765",
      "pitch": "F2",
      "midi": 41,
      "start": 302.813,
      "duration": 0.156,
      "velocity": 0.71
    },
    {
      "id": "n-07766",
      "pitch": "F2",
      "midi": 41,
      "start": 302.813,
      "duration": 0.156,
      "velocity": 0.71
    },
    {
      "id": "n-07767",
      "pitch": "F2",
      "midi": 41,
      "start": 302.813,
      "duration": 0.156,
      "velocity": 0.71
    },
    {
      "id": "n-07768",
      "pitch": "G2",
      "midi": 43,
      "start": 302.813,
      "duration": 0.156,
      "velocity": 0.71
    },
    {
      "id": "n-07769",
      "pitch": "F3",
      "midi": 53,
      "start": 302.813,
      "duration": 0.156,
      "velocity": 0.71
    },
    {
      "id": "n-07770",
      "pitch": "F3",
      "midi": 53,
      "start": 302.813,
      "duration": 0.156,
      "velocity": 0.71
    },
    {
      "id": "n-07771",
      "pitch": "G3",
      "midi": 55,
      "start": 302.813,
      "duration": 0.156,
      "velocity": 0.71
    },
    {
      "id": "n-07772",
      "pitch": "F4",
      "midi": 65,
      "start": 302.813,
      "duration": 0.156,
      "velocity": 0.71
    },
    {
      "id": "n-07773",
      "pitch": "F4",
      "midi": 65,
      "start": 302.813,
      "duration": 0.156,
      "velocity": 0.71
    },
    {
      "id": "n-07774",
      "pitch": "G4",
      "midi": 67,
      "start": 302.813,
      "duration": 0.156,
      "velocity": 0.71
    },
    {
      "id": "n-07775",
      "pitch": "G4",
      "midi": 67,
      "start": 302.813,
      "duration": 0.156,
      "velocity": 0.71
    },
    {
      "id": "n-07776",
      "pitch": "F5",
      "midi": 77,
      "start": 302.813,
      "duration": 0.156,
      "velocity": 0.71
    },
    {
      "id": "n-07777",
      "pitch": "F5",
      "midi": 77,
      "start": 302.813,
      "duration": 0.156,
      "velocity": 0.71
    },
    {
      "id": "n-07778",
      "pitch": "F5",
      "midi": 77,
      "start": 302.813,
      "duration": 0.156,
      "velocity": 0.71
    },
    {
      "id": "n-07779",
      "pitch": "G5",
      "midi": 79,
      "start": 302.813,
      "duration": 0.156,
      "velocity": 0.71
    },
    {
      "id": "n-07780",
      "pitch": "F6",
      "midi": 89,
      "start": 302.813,
      "duration": 0.156,
      "velocity": 0.71
    },
    {
      "id": "n-07781",
      "pitch": "G6",
      "midi": 91,
      "start": 302.813,
      "duration": 0.156,
      "velocity": 0.71
    },
    {
      "id": "n-07782",
      "pitch": "F2",
      "midi": 41,
      "start": 302.969,
      "duration": 0.156,
      "velocity": 0.71
    },
    {
      "id": "n-07783",
      "pitch": "F2",
      "midi": 41,
      "start": 302.969,
      "duration": 0.156,
      "velocity": 0.71
    },
    {
      "id": "n-07784",
      "pitch": "F2",
      "midi": 41,
      "start": 302.969,
      "duration": 0.156,
      "velocity": 0.71
    },
    {
      "id": "n-07785",
      "pitch": "G2",
      "midi": 43,
      "start": 302.969,
      "duration": 0.156,
      "velocity": 0.71
    },
    {
      "id": "n-07786",
      "pitch": "F3",
      "midi": 53,
      "start": 302.969,
      "duration": 0.156,
      "velocity": 0.71
    },
    {
      "id": "n-07787",
      "pitch": "F3",
      "midi": 53,
      "start": 302.969,
      "duration": 0.156,
      "velocity": 0.71
    },
    {
      "id": "n-07788",
      "pitch": "G3",
      "midi": 55,
      "start": 302.969,
      "duration": 0.156,
      "velocity": 0.71
    },
    {
      "id": "n-07789",
      "pitch": "F4",
      "midi": 65,
      "start": 302.969,
      "duration": 0.156,
      "velocity": 0.71
    },
    {
      "id": "n-07790",
      "pitch": "F4",
      "midi": 65,
      "start": 302.969,
      "duration": 0.156,
      "velocity": 0.71
    },
    {
      "id": "n-07791",
      "pitch": "G4",
      "midi": 67,
      "start": 302.969,
      "duration": 0.156,
      "velocity": 0.71
    },
    {
      "id": "n-07792",
      "pitch": "G4",
      "midi": 67,
      "start": 302.969,
      "duration": 0.156,
      "velocity": 0.71
    },
    {
      "id": "n-07793",
      "pitch": "F5",
      "midi": 77,
      "start": 302.969,
      "duration": 0.156,
      "velocity": 0.71
    },
    {
      "id": "n-07794",
      "pitch": "F5",
      "midi": 77,
      "start": 302.969,
      "duration": 0.156,
      "velocity": 0.71
    },
    {
      "id": "n-07795",
      "pitch": "F5",
      "midi": 77,
      "start": 302.969,
      "duration": 0.156,
      "velocity": 0.71
    },
    {
      "id": "n-07796",
      "pitch": "G5",
      "midi": 79,
      "start": 302.969,
      "duration": 0.156,
      "velocity": 0.71
    },
    {
      "id": "n-07797",
      "pitch": "F6",
      "midi": 89,
      "start": 302.969,
      "duration": 0.156,
      "velocity": 0.71
    },
    {
      "id": "n-07798",
      "pitch": "G6",
      "midi": 91,
      "start": 302.969,
      "duration": 0.156,
      "velocity": 0.71
    },
    {
      "id": "n-07799",
      "pitch": "D2",
      "midi": 38,
      "start": 303.125,
      "duration": 1.25,
      "velocity": 0.71
    },
    {
      "id": "n-07800",
      "pitch": "D2",
      "midi": 38,
      "start": 303.125,
      "duration": 1.25,
      "velocity": 0.71
    },
    {
      "id": "n-07801",
      "pitch": "D2",
      "midi": 38,
      "start": 303.125,
      "duration": 1.25,
      "velocity": 0.71
    },
    {
      "id": "n-07802",
      "pitch": "G2",
      "midi": 43,
      "start": 303.125,
      "duration": 1.25,
      "velocity": 0.71
    },
    {
      "id": "n-07803",
      "pitch": "D3",
      "midi": 50,
      "start": 303.125,
      "duration": 1.25,
      "velocity": 0.71
    },
    {
      "id": "n-07804",
      "pitch": "D3",
      "midi": 50,
      "start": 303.125,
      "duration": 1.25,
      "velocity": 0.71
    },
    {
      "id": "n-07805",
      "pitch": "G3",
      "midi": 55,
      "start": 303.125,
      "duration": 1.25,
      "velocity": 0.71
    },
    {
      "id": "n-07806",
      "pitch": "D4",
      "midi": 62,
      "start": 303.125,
      "duration": 1.25,
      "velocity": 0.71
    },
    {
      "id": "n-07807",
      "pitch": "D4",
      "midi": 62,
      "start": 303.125,
      "duration": 1.25,
      "velocity": 0.71
    },
    {
      "id": "n-07808",
      "pitch": "G4",
      "midi": 67,
      "start": 303.125,
      "duration": 1.25,
      "velocity": 0.71
    },
    {
      "id": "n-07809",
      "pitch": "G4",
      "midi": 67,
      "start": 303.125,
      "duration": 1.25,
      "velocity": 0.71
    },
    {
      "id": "n-07810",
      "pitch": "D5",
      "midi": 74,
      "start": 303.125,
      "duration": 1.25,
      "velocity": 0.71
    },
    {
      "id": "n-07811",
      "pitch": "D5",
      "midi": 74,
      "start": 303.125,
      "duration": 1.25,
      "velocity": 0.71
    },
    {
      "id": "n-07812",
      "pitch": "D5",
      "midi": 74,
      "start": 303.125,
      "duration": 1.25,
      "velocity": 0.71
    },
    {
      "id": "n-07813",
      "pitch": "G5",
      "midi": 79,
      "start": 303.125,
      "duration": 1.25,
      "velocity": 0.71
    },
    {
      "id": "n-07814",
      "pitch": "D6",
      "midi": 86,
      "start": 303.125,
      "duration": 1.25,
      "velocity": 0.71
    },
    {
      "id": "n-07815",
      "pitch": "G6",
      "midi": 91,
      "start": 303.125,
      "duration": 1.25,
      "velocity": 0.71
    },
    {
      "id": "n-07816",
      "pitch": "G4",
      "midi": 67,
      "start": 304.531,
      "duration": 0.156,
      "velocity": 0.71
    },
    {
      "id": "n-07817",
      "pitch": "G4",
      "midi": 67,
      "start": 304.688,
      "duration": 0.313,
      "velocity": 0.71
    },
    {
      "id": "n-07818",
      "pitch": "G4",
      "midi": 67,
      "start": 304.688,
      "duration": 0.156,
      "velocity": 0.71
    },
    {
      "id": "n-07819",
      "pitch": "G4",
      "midi": 67,
      "start": 304.844,
      "duration": 0.156,
      "velocity": 0.71
    },
    {
      "id": "n-07820",
      "pitch": "C2",
      "midi": 36,
      "start": 305,
      "duration": 4.375,
      "velocity": 0.71
    },
    {
      "id": "n-07821",
      "pitch": "G2",
      "midi": 43,
      "start": 305,
      "duration": 4.375,
      "velocity": 0.71
    },
    {
      "id": "n-07822",
      "pitch": "D#4",
      "midi": 63,
      "start": 305,
      "duration": 2.188,
      "velocity": 0.71
    },
    {
      "id": "n-07823",
      "pitch": "D#4",
      "midi": 63,
      "start": 305,
      "duration": 2.031,
      "velocity": 0.71
    },
    {
      "id": "n-07824",
      "pitch": "G#4",
      "midi": 68,
      "start": 305.156,
      "duration": 0.156,
      "velocity": 0.71
    },
    {
      "id": "n-07825",
      "pitch": "G#4",
      "midi": 68,
      "start": 305.313,
      "duration": 0.313,
      "velocity": 0.71
    },
    {
      "id": "n-07826",
      "pitch": "G#4",
      "midi": 68,
      "start": 305.313,
      "duration": 0.156,
      "velocity": 0.71
    },
    {
      "id": "n-07827",
      "pitch": "G#4",
      "midi": 68,
      "start": 305.469,
      "duration": 0.156,
      "velocity": 0.71
    },
    {
      "id": "n-07828",
      "pitch": "G4",
      "midi": 67,
      "start": 305.625,
      "duration": 0.313,
      "velocity": 0.71
    },
    {
      "id": "n-07829",
      "pitch": "G4",
      "midi": 67,
      "start": 305.625,
      "duration": 0.156,
      "velocity": 0.71
    },
    {
      "id": "n-07830",
      "pitch": "D#5",
      "midi": 75,
      "start": 305.781,
      "duration": 0.156,
      "velocity": 0.71
    },
    {
      "id": "n-07831",
      "pitch": "D#5",
      "midi": 75,
      "start": 305.938,
      "duration": 0.313,
      "velocity": 0.71
    },
    {
      "id": "n-07832",
      "pitch": "D#5",
      "midi": 75,
      "start": 305.938,
      "duration": 0.156,
      "velocity": 0.71
    },
    {
      "id": "n-07833",
      "pitch": "D#5",
      "midi": 75,
      "start": 306.094,
      "duration": 0.156,
      "velocity": 0.71
    },
    {
      "id": "n-07834",
      "pitch": "C5",
      "midi": 72,
      "start": 306.25,
      "duration": 0.938,
      "velocity": 0.71
    },
    {
      "id": "n-07835",
      "pitch": "C5",
      "midi": 72,
      "start": 306.25,
      "duration": 0.938,
      "velocity": 0.71
    },
    {
      "id": "n-07836",
      "pitch": "G#5",
      "midi": 80,
      "start": 306.563,
      "duration": 0.313,
      "velocity": 0.71
    },
    {
      "id": "n-07837",
      "pitch": "G5",
      "midi": 79,
      "start": 306.875,
      "duration": 0.625,
      "velocity": 0.71
    },
    {
      "id": "n-07838",
      "pitch": "G4",
      "midi": 67,
      "start": 307.031,
      "duration": 0.156,
      "velocity": 0.71
    },
    {
      "id": "n-07839",
      "pitch": "G4",
      "midi": 67,
      "start": 307.188,
      "duration": 0.313,
      "velocity": 0.71
    },
    {
      "id": "n-07840",
      "pitch": "G4",
      "midi": 67,
      "start": 307.188,
      "duration": 0.156,
      "velocity": 0.71
    },
    {
      "id": "n-07841",
      "pitch": "G4",
      "midi": 67,
      "start": 307.344,
      "duration": 0.156,
      "velocity": 0.71
    },
    {
      "id": "n-07842",
      "pitch": "D#4",
      "midi": 63,
      "start": 307.5,
      "duration": 2.031,
      "velocity": 0.71
    },
    {
      "id": "n-07843",
      "pitch": "D#4",
      "midi": 63,
      "start": 307.5,
      "duration": 2.031,
      "velocity": 0.71
    },
    {
      "id": "n-07844",
      "pitch": "G#4",
      "midi": 68,
      "start": 307.656,
      "duration": 0.156,
      "velocity": 0.71
    },
    {
      "id": "n-07845",
      "pitch": "G#4",
      "midi": 68,
      "start": 307.813,
      "duration": 0.313,
      "velocity": 0.71
    },
    {
      "id": "n-07846",
      "pitch": "G#4",
      "midi": 68,
      "start": 307.813,
      "duration": 0.156,
      "velocity": 0.71
    },
    {
      "id": "n-07847",
      "pitch": "G#4",
      "midi": 68,
      "start": 307.969,
      "duration": 0.156,
      "velocity": 0.71
    },
    {
      "id": "n-07848",
      "pitch": "G4",
      "midi": 67,
      "start": 308.125,
      "duration": 0.313,
      "velocity": 0.71
    },
    {
      "id": "n-07849",
      "pitch": "G4",
      "midi": 67,
      "start": 308.125,
      "duration": 0.156,
      "velocity": 0.71
    },
    {
      "id": "n-07850",
      "pitch": "D#5",
      "midi": 75,
      "start": 308.281,
      "duration": 0.156,
      "velocity": 0.71
    },
    {
      "id": "n-07851",
      "pitch": "D#5",
      "midi": 75,
      "start": 308.438,
      "duration": 0.313,
      "velocity": 0.71
    },
    {
      "id": "n-07852",
      "pitch": "D#5",
      "midi": 75,
      "start": 308.438,
      "duration": 0.156,
      "velocity": 0.71
    },
    {
      "id": "n-07853",
      "pitch": "D#5",
      "midi": 75,
      "start": 308.594,
      "duration": 0.156,
      "velocity": 0.71
    },
    {
      "id": "n-07854",
      "pitch": "C5",
      "midi": 72,
      "start": 308.75,
      "duration": 0.781,
      "velocity": 0.71
    },
    {
      "id": "n-07855",
      "pitch": "C5",
      "midi": 72,
      "start": 308.75,
      "duration": 0.781,
      "velocity": 0.71
    },
    {
      "id": "n-07856",
      "pitch": "G#5",
      "midi": 80,
      "start": 309.063,
      "duration": 0.313,
      "velocity": 0.71
    },
    {
      "id": "n-07857",
      "pitch": "C2",
      "midi": 36,
      "start": 309.375,
      "duration": 0.156,
      "velocity": 0.71
    },
    {
      "id": "n-07858",
      "pitch": "G2",
      "midi": 43,
      "start": 309.375,
      "duration": 0.156,
      "velocity": 0.71
    },
    {
      "id": "n-07859",
      "pitch": "G5",
      "midi": 79,
      "start": 309.375,
      "duration": 0.156,
      "velocity": 0.71
    },
    {
      "id": "n-07860",
      "pitch": "G2",
      "midi": 43,
      "start": 309.531,
      "duration": 0.156,
      "velocity": 0.71
    },
    {
      "id": "n-07861",
      "pitch": "G2",
      "midi": 43,
      "start": 309.531,
      "duration": 0.156,
      "velocity": 0.71
    },
    {
      "id": "n-07862",
      "pitch": "G2",
      "midi": 43,
      "start": 309.531,
      "duration": 0.156,
      "velocity": 0.71
    },
    {
      "id": "n-07863",
      "pitch": "G3",
      "midi": 55,
      "start": 309.531,
      "duration": 0.156,
      "velocity": 0.71
    },
    {
      "id": "n-07864",
      "pitch": "G3",
      "midi": 55,
      "start": 309.531,
      "duration": 0.156,
      "velocity": 0.71
    },
    {
      "id": "n-07865",
      "pitch": "B3",
      "midi": 59,
      "start": 309.531,
      "duration": 0.156,
      "velocity": 0.71
    },
    {
      "id": "n-07866",
      "pitch": "D4",
      "midi": 62,
      "start": 309.531,
      "duration": 0.156,
      "velocity": 0.71
    },
    {
      "id": "n-07867",
      "pitch": "D4",
      "midi": 62,
      "start": 309.531,
      "duration": 0.156,
      "velocity": 0.71
    },
    {
      "id": "n-07868",
      "pitch": "G4",
      "midi": 67,
      "start": 309.531,
      "duration": 0.156,
      "velocity": 0.71
    },
    {
      "id": "n-07869",
      "pitch": "G4",
      "midi": 67,
      "start": 309.531,
      "duration": 0.156,
      "velocity": 0.71
    },
    {
      "id": "n-07870",
      "pitch": "B4",
      "midi": 71,
      "start": 309.531,
      "duration": 0.156,
      "velocity": 0.71
    },
    {
      "id": "n-07871",
      "pitch": "B4",
      "midi": 71,
      "start": 309.531,
      "duration": 0.156,
      "velocity": 0.71
    },
    {
      "id": "n-07872",
      "pitch": "B4",
      "midi": 71,
      "start": 309.531,
      "duration": 0.156,
      "velocity": 0.71
    },
    {
      "id": "n-07873",
      "pitch": "D5",
      "midi": 74,
      "start": 309.531,
      "duration": 0.156,
      "velocity": 0.71
    },
    {
      "id": "n-07874",
      "pitch": "D5",
      "midi": 74,
      "start": 309.531,
      "duration": 0.156,
      "velocity": 0.71
    },
    {
      "id": "n-07875",
      "pitch": "G5",
      "midi": 79,
      "start": 309.531,
      "duration": 0.156,
      "velocity": 0.71
    },
    {
      "id": "n-07876",
      "pitch": "G5",
      "midi": 79,
      "start": 309.531,
      "duration": 0.156,
      "velocity": 0.71
    },
    {
      "id": "n-07877",
      "pitch": "B5",
      "midi": 83,
      "start": 309.531,
      "duration": 0.156,
      "velocity": 0.71
    },
    {
      "id": "n-07878",
      "pitch": "D6",
      "midi": 86,
      "start": 309.531,
      "duration": 0.156,
      "velocity": 0.71
    },
    {
      "id": "n-07879",
      "pitch": "G2",
      "midi": 43,
      "start": 309.688,
      "duration": 0.156,
      "velocity": 0.71
    },
    {
      "id": "n-07880",
      "pitch": "G2",
      "midi": 43,
      "start": 309.688,
      "duration": 0.156,
      "velocity": 0.71
    },
    {
      "id": "n-07881",
      "pitch": "G2",
      "midi": 43,
      "start": 309.688,
      "duration": 0.156,
      "velocity": 0.71
    },
    {
      "id": "n-07882",
      "pitch": "G3",
      "midi": 55,
      "start": 309.688,
      "duration": 0.156,
      "velocity": 0.71
    },
    {
      "id": "n-07883",
      "pitch": "G3",
      "midi": 55,
      "start": 309.688,
      "duration": 0.156,
      "velocity": 0.71
    },
    {
      "id": "n-07884",
      "pitch": "B3",
      "midi": 59,
      "start": 309.688,
      "duration": 0.156,
      "velocity": 0.71
    },
    {
      "id": "n-07885",
      "pitch": "D4",
      "midi": 62,
      "start": 309.688,
      "duration": 0.156,
      "velocity": 0.71
    },
    {
      "id": "n-07886",
      "pitch": "D4",
      "midi": 62,
      "start": 309.688,
      "duration": 0.156,
      "velocity": 0.71
    },
    {
      "id": "n-07887",
      "pitch": "G4",
      "midi": 67,
      "start": 309.688,
      "duration": 0.156,
      "velocity": 0.71
    },
    {
      "id": "n-07888",
      "pitch": "G4",
      "midi": 67,
      "start": 309.688,
      "duration": 0.156,
      "velocity": 0.71
    },
    {
      "id": "n-07889",
      "pitch": "B4",
      "midi": 71,
      "start": 309.688,
      "duration": 0.156,
      "velocity": 0.71
    },
    {
      "id": "n-07890",
      "pitch": "B4",
      "midi": 71,
      "start": 309.688,
      "duration": 0.156,
      "velocity": 0.71
    },
    {
      "id": "n-07891",
      "pitch": "B4",
      "midi": 71,
      "start": 309.688,
      "duration": 0.156,
      "velocity": 0.71
    },
    {
      "id": "n-07892",
      "pitch": "D5",
      "midi": 74,
      "start": 309.688,
      "duration": 0.156,
      "velocity": 0.71
    },
    {
      "id": "n-07893",
      "pitch": "D5",
      "midi": 74,
      "start": 309.688,
      "duration": 0.156,
      "velocity": 0.71
    },
    {
      "id": "n-07894",
      "pitch": "G5",
      "midi": 79,
      "start": 309.688,
      "duration": 0.156,
      "velocity": 0.71
    },
    {
      "id": "n-07895",
      "pitch": "G5",
      "midi": 79,
      "start": 309.688,
      "duration": 0.156,
      "velocity": 0.71
    },
    {
      "id": "n-07896",
      "pitch": "B5",
      "midi": 83,
      "start": 309.688,
      "duration": 0.156,
      "velocity": 0.71
    },
    {
      "id": "n-07897",
      "pitch": "D6",
      "midi": 86,
      "start": 309.688,
      "duration": 0.156,
      "velocity": 0.71
    },
    {
      "id": "n-07898",
      "pitch": "G2",
      "midi": 43,
      "start": 309.844,
      "duration": 0.156,
      "velocity": 0.71
    },
    {
      "id": "n-07899",
      "pitch": "G2",
      "midi": 43,
      "start": 309.844,
      "duration": 0.156,
      "velocity": 0.71
    },
    {
      "id": "n-07900",
      "pitch": "G2",
      "midi": 43,
      "start": 309.844,
      "duration": 0.156,
      "velocity": 0.71
    },
    {
      "id": "n-07901",
      "pitch": "G3",
      "midi": 55,
      "start": 309.844,
      "duration": 0.156,
      "velocity": 0.71
    },
    {
      "id": "n-07902",
      "pitch": "G3",
      "midi": 55,
      "start": 309.844,
      "duration": 0.156,
      "velocity": 0.71
    },
    {
      "id": "n-07903",
      "pitch": "B3",
      "midi": 59,
      "start": 309.844,
      "duration": 0.156,
      "velocity": 0.71
    },
    {
      "id": "n-07904",
      "pitch": "D4",
      "midi": 62,
      "start": 309.844,
      "duration": 0.156,
      "velocity": 0.71
    },
    {
      "id": "n-07905",
      "pitch": "D4",
      "midi": 62,
      "start": 309.844,
      "duration": 0.156,
      "velocity": 0.71
    },
    {
      "id": "n-07906",
      "pitch": "G4",
      "midi": 67,
      "start": 309.844,
      "duration": 0.156,
      "velocity": 0.71
    },
    {
      "id": "n-07907",
      "pitch": "G4",
      "midi": 67,
      "start": 309.844,
      "duration": 0.156,
      "velocity": 0.71
    },
    {
      "id": "n-07908",
      "pitch": "B4",
      "midi": 71,
      "start": 309.844,
      "duration": 0.156,
      "velocity": 0.71
    },
    {
      "id": "n-07909",
      "pitch": "B4",
      "midi": 71,
      "start": 309.844,
      "duration": 0.156,
      "velocity": 0.71
    },
    {
      "id": "n-07910",
      "pitch": "B4",
      "midi": 71,
      "start": 309.844,
      "duration": 0.156,
      "velocity": 0.71
    },
    {
      "id": "n-07911",
      "pitch": "D5",
      "midi": 74,
      "start": 309.844,
      "duration": 0.156,
      "velocity": 0.71
    },
    {
      "id": "n-07912",
      "pitch": "D5",
      "midi": 74,
      "start": 309.844,
      "duration": 0.156,
      "velocity": 0.71
    },
    {
      "id": "n-07913",
      "pitch": "G5",
      "midi": 79,
      "start": 309.844,
      "duration": 0.156,
      "velocity": 0.71
    },
    {
      "id": "n-07914",
      "pitch": "G5",
      "midi": 79,
      "start": 309.844,
      "duration": 0.156,
      "velocity": 0.71
    },
    {
      "id": "n-07915",
      "pitch": "B5",
      "midi": 83,
      "start": 309.844,
      "duration": 0.156,
      "velocity": 0.71
    },
    {
      "id": "n-07916",
      "pitch": "D6",
      "midi": 86,
      "start": 309.844,
      "duration": 0.156,
      "velocity": 0.71
    },
    {
      "id": "n-07917",
      "pitch": "C3",
      "midi": 48,
      "start": 310,
      "duration": 0.313,
      "velocity": 0.71
    },
    {
      "id": "n-07918",
      "pitch": "C3",
      "midi": 48,
      "start": 310,
      "duration": 0.313,
      "velocity": 0.71
    },
    {
      "id": "n-07919",
      "pitch": "C3",
      "midi": 48,
      "start": 310,
      "duration": 0.313,
      "velocity": 0.71
    },
    {
      "id": "n-07920",
      "pitch": "C4",
      "midi": 60,
      "start": 310,
      "duration": 0.313,
      "velocity": 0.71
    },
    {
      "id": "n-07921",
      "pitch": "C4",
      "midi": 60,
      "start": 310,
      "duration": 0.313,
      "velocity": 0.71
    },
    {
      "id": "n-07922",
      "pitch": "C4",
      "midi": 60,
      "start": 310,
      "duration": 0.313,
      "velocity": 0.71
    },
    {
      "id": "n-07923",
      "pitch": "D#4",
      "midi": 63,
      "start": 310,
      "duration": 0.313,
      "velocity": 0.71
    },
    {
      "id": "n-07924",
      "pitch": "D#4",
      "midi": 63,
      "start": 310,
      "duration": 0.313,
      "velocity": 0.71
    },
    {
      "id": "n-07925",
      "pitch": "G4",
      "midi": 67,
      "start": 310,
      "duration": 0.313,
      "velocity": 0.71
    },
    {
      "id": "n-07926",
      "pitch": "C5",
      "midi": 72,
      "start": 310,
      "duration": 0.313,
      "velocity": 0.71
    },
    {
      "id": "n-07927",
      "pitch": "C5",
      "midi": 72,
      "start": 310,
      "duration": 0.313,
      "velocity": 0.71
    },
    {
      "id": "n-07928",
      "pitch": "C5",
      "midi": 72,
      "start": 310,
      "duration": 0.313,
      "velocity": 0.71
    },
    {
      "id": "n-07929",
      "pitch": "C5",
      "midi": 72,
      "start": 310,
      "duration": 0.313,
      "velocity": 0.71
    },
    {
      "id": "n-07930",
      "pitch": "D#5",
      "midi": 75,
      "start": 310,
      "duration": 0.313,
      "velocity": 0.71
    },
    {
      "id": "n-07931",
      "pitch": "D#5",
      "midi": 75,
      "start": 310,
      "duration": 0.313,
      "velocity": 0.71
    },
    {
      "id": "n-07932",
      "pitch": "G5",
      "midi": 79,
      "start": 310,
      "duration": 0.313,
      "velocity": 0.71
    },
    {
      "id": "n-07933",
      "pitch": "G5",
      "midi": 79,
      "start": 310,
      "duration": 0.313,
      "velocity": 0.71
    },
    {
      "id": "n-07934",
      "pitch": "C6",
      "midi": 84,
      "start": 310,
      "duration": 0.313,
      "velocity": 0.71
    },
    {
      "id": "n-07935",
      "pitch": "D#6",
      "midi": 87,
      "start": 310,
      "duration": 0.313,
      "velocity": 0.71
    },
    {
      "id": "n-07936",
      "pitch": "G2",
      "midi": 43,
      "start": 310.781,
      "duration": 0.156,
      "velocity": 0.71
    },
    {
      "id": "n-07937",
      "pitch": "G2",
      "midi": 43,
      "start": 310.781,
      "duration": 0.156,
      "velocity": 0.71
    },
    {
      "id": "n-07938",
      "pitch": "G2",
      "midi": 43,
      "start": 310.781,
      "duration": 0.156,
      "velocity": 0.71
    },
    {
      "id": "n-07939",
      "pitch": "G3",
      "midi": 55,
      "start": 310.781,
      "duration": 0.156,
      "velocity": 0.71
    },
    {
      "id": "n-07940",
      "pitch": "G3",
      "midi": 55,
      "start": 310.781,
      "duration": 0.156,
      "velocity": 0.71
    },
    {
      "id": "n-07941",
      "pitch": "B3",
      "midi": 59,
      "start": 310.781,
      "duration": 0.156,
      "velocity": 0.71
    },
    {
      "id": "n-07942",
      "pitch": "D4",
      "midi": 62,
      "start": 310.781,
      "duration": 0.156,
      "velocity": 0.71
    },
    {
      "id": "n-07943",
      "pitch": "D4",
      "midi": 62,
      "start": 310.781,
      "duration": 0.156,
      "velocity": 0.71
    },
    {
      "id": "n-07944",
      "pitch": "G4",
      "midi": 67,
      "start": 310.781,
      "duration": 0.156,
      "velocity": 0.71
    },
    {
      "id": "n-07945",
      "pitch": "G4",
      "midi": 67,
      "start": 310.781,
      "duration": 0.156,
      "velocity": 0.71
    },
    {
      "id": "n-07946",
      "pitch": "B4",
      "midi": 71,
      "start": 310.781,
      "duration": 0.156,
      "velocity": 0.71
    },
    {
      "id": "n-07947",
      "pitch": "B4",
      "midi": 71,
      "start": 310.781,
      "duration": 0.156,
      "velocity": 0.71
    },
    {
      "id": "n-07948",
      "pitch": "B4",
      "midi": 71,
      "start": 310.781,
      "duration": 0.156,
      "velocity": 0.71
    },
    {
      "id": "n-07949",
      "pitch": "D5",
      "midi": 74,
      "start": 310.781,
      "duration": 0.156,
      "velocity": 0.71
    },
    {
      "id": "n-07950",
      "pitch": "D5",
      "midi": 74,
      "start": 310.781,
      "duration": 0.156,
      "velocity": 0.71
    },
    {
      "id": "n-07951",
      "pitch": "G5",
      "midi": 79,
      "start": 310.781,
      "duration": 0.156,
      "velocity": 0.71
    },
    {
      "id": "n-07952",
      "pitch": "B5",
      "midi": 83,
      "start": 310.781,
      "duration": 0.156,
      "velocity": 0.71
    },
    {
      "id": "n-07953",
      "pitch": "B5",
      "midi": 83,
      "start": 310.781,
      "duration": 0.156,
      "velocity": 0.71
    },
    {
      "id": "n-07954",
      "pitch": "D6",
      "midi": 86,
      "start": 310.781,
      "duration": 0.156,
      "velocity": 0.71
    },
    {
      "id": "n-07955",
      "pitch": "G2",
      "midi": 43,
      "start": 310.938,
      "duration": 0.156,
      "velocity": 0.71
    },
    {
      "id": "n-07956",
      "pitch": "G2",
      "midi": 43,
      "start": 310.938,
      "duration": 0.156,
      "velocity": 0.71
    },
    {
      "id": "n-07957",
      "pitch": "G2",
      "midi": 43,
      "start": 310.938,
      "duration": 0.156,
      "velocity": 0.71
    },
    {
      "id": "n-07958",
      "pitch": "G3",
      "midi": 55,
      "start": 310.938,
      "duration": 0.156,
      "velocity": 0.71
    },
    {
      "id": "n-07959",
      "pitch": "G3",
      "midi": 55,
      "start": 310.938,
      "duration": 0.156,
      "velocity": 0.71
    },
    {
      "id": "n-07960",
      "pitch": "B3",
      "midi": 59,
      "start": 310.938,
      "duration": 0.156,
      "velocity": 0.71
    },
    {
      "id": "n-07961",
      "pitch": "D4",
      "midi": 62,
      "start": 310.938,
      "duration": 0.156,
      "velocity": 0.71
    },
    {
      "id": "n-07962",
      "pitch": "D4",
      "midi": 62,
      "start": 310.938,
      "duration": 0.156,
      "velocity": 0.71
    },
    {
      "id": "n-07963",
      "pitch": "G4",
      "midi": 67,
      "start": 310.938,
      "duration": 0.156,
      "velocity": 0.71
    },
    {
      "id": "n-07964",
      "pitch": "G4",
      "midi": 67,
      "start": 310.938,
      "duration": 0.156,
      "velocity": 0.71
    },
    {
      "id": "n-07965",
      "pitch": "B4",
      "midi": 71,
      "start": 310.938,
      "duration": 0.156,
      "velocity": 0.71
    },
    {
      "id": "n-07966",
      "pitch": "B4",
      "midi": 71,
      "start": 310.938,
      "duration": 0.156,
      "velocity": 0.71
    },
    {
      "id": "n-07967",
      "pitch": "B4",
      "midi": 71,
      "start": 310.938,
      "duration": 0.156,
      "velocity": 0.71
    },
    {
      "id": "n-07968",
      "pitch": "D5",
      "midi": 74,
      "start": 310.938,
      "duration": 0.156,
      "velocity": 0.71
    },
    {
      "id": "n-07969",
      "pitch": "D5",
      "midi": 74,
      "start": 310.938,
      "duration": 0.156,
      "velocity": 0.71
    },
    {
      "id": "n-07970",
      "pitch": "G5",
      "midi": 79,
      "start": 310.938,
      "duration": 0.156,
      "velocity": 0.71
    },
    {
      "id": "n-07971",
      "pitch": "B5",
      "midi": 83,
      "start": 310.938,
      "duration": 0.156,
      "velocity": 0.71
    },
    {
      "id": "n-07972",
      "pitch": "B5",
      "midi": 83,
      "start": 310.938,
      "duration": 0.156,
      "velocity": 0.71
    },
    {
      "id": "n-07973",
      "pitch": "D6",
      "midi": 86,
      "start": 310.938,
      "duration": 0.156,
      "velocity": 0.71
    },
    {
      "id": "n-07974",
      "pitch": "G2",
      "midi": 43,
      "start": 311.094,
      "duration": 0.156,
      "velocity": 0.71
    },
    {
      "id": "n-07975",
      "pitch": "G2",
      "midi": 43,
      "start": 311.094,
      "duration": 0.156,
      "velocity": 0.71
    },
    {
      "id": "n-07976",
      "pitch": "G2",
      "midi": 43,
      "start": 311.094,
      "duration": 0.156,
      "velocity": 0.71
    },
    {
      "id": "n-07977",
      "pitch": "G3",
      "midi": 55,
      "start": 311.094,
      "duration": 0.156,
      "velocity": 0.71
    },
    {
      "id": "n-07978",
      "pitch": "G3",
      "midi": 55,
      "start": 311.094,
      "duration": 0.156,
      "velocity": 0.71
    },
    {
      "id": "n-07979",
      "pitch": "B3",
      "midi": 59,
      "start": 311.094,
      "duration": 0.156,
      "velocity": 0.71
    },
    {
      "id": "n-07980",
      "pitch": "D4",
      "midi": 62,
      "start": 311.094,
      "duration": 0.156,
      "velocity": 0.71
    },
    {
      "id": "n-07981",
      "pitch": "D4",
      "midi": 62,
      "start": 311.094,
      "duration": 0.156,
      "velocity": 0.71
    },
    {
      "id": "n-07982",
      "pitch": "G4",
      "midi": 67,
      "start": 311.094,
      "duration": 0.156,
      "velocity": 0.71
    },
    {
      "id": "n-07983",
      "pitch": "G4",
      "midi": 67,
      "start": 311.094,
      "duration": 0.156,
      "velocity": 0.71
    },
    {
      "id": "n-07984",
      "pitch": "B4",
      "midi": 71,
      "start": 311.094,
      "duration": 0.156,
      "velocity": 0.71
    },
    {
      "id": "n-07985",
      "pitch": "B4",
      "midi": 71,
      "start": 311.094,
      "duration": 0.156,
      "velocity": 0.71
    },
    {
      "id": "n-07986",
      "pitch": "B4",
      "midi": 71,
      "start": 311.094,
      "duration": 0.156,
      "velocity": 0.71
    },
    {
      "id": "n-07987",
      "pitch": "D5",
      "midi": 74,
      "start": 311.094,
      "duration": 0.156,
      "velocity": 0.71
    },
    {
      "id": "n-07988",
      "pitch": "D5",
      "midi": 74,
      "start": 311.094,
      "duration": 0.156,
      "velocity": 0.71
    },
    {
      "id": "n-07989",
      "pitch": "G5",
      "midi": 79,
      "start": 311.094,
      "duration": 0.156,
      "velocity": 0.71
    },
    {
      "id": "n-07990",
      "pitch": "B5",
      "midi": 83,
      "start": 311.094,
      "duration": 0.156,
      "velocity": 0.71
    },
    {
      "id": "n-07991",
      "pitch": "B5",
      "midi": 83,
      "start": 311.094,
      "duration": 0.156,
      "velocity": 0.71
    },
    {
      "id": "n-07992",
      "pitch": "D6",
      "midi": 86,
      "start": 311.094,
      "duration": 0.156,
      "velocity": 0.71
    },
    {
      "id": "n-07993",
      "pitch": "C3",
      "midi": 48,
      "start": 311.25,
      "duration": 0.313,
      "velocity": 0.71
    },
    {
      "id": "n-07994",
      "pitch": "C3",
      "midi": 48,
      "start": 311.25,
      "duration": 0.313,
      "velocity": 0.71
    },
    {
      "id": "n-07995",
      "pitch": "C3",
      "midi": 48,
      "start": 311.25,
      "duration": 0.313,
      "velocity": 0.71
    },
    {
      "id": "n-07996",
      "pitch": "C4",
      "midi": 60,
      "start": 311.25,
      "duration": 0.313,
      "velocity": 0.71
    },
    {
      "id": "n-07997",
      "pitch": "C4",
      "midi": 60,
      "start": 311.25,
      "duration": 0.313,
      "velocity": 0.71
    },
    {
      "id": "n-07998",
      "pitch": "C4",
      "midi": 60,
      "start": 311.25,
      "duration": 0.313,
      "velocity": 0.71
    },
    {
      "id": "n-07999",
      "pitch": "D#4",
      "midi": 63,
      "start": 311.25,
      "duration": 0.313,
      "velocity": 0.71
    },
    {
      "id": "n-08000",
      "pitch": "D#4",
      "midi": 63,
      "start": 311.25,
      "duration": 0.313,
      "velocity": 0.71
    },
    {
      "id": "n-08001",
      "pitch": "G4",
      "midi": 67,
      "start": 311.25,
      "duration": 0.313,
      "velocity": 0.71
    },
    {
      "id": "n-08002",
      "pitch": "C5",
      "midi": 72,
      "start": 311.25,
      "duration": 0.313,
      "velocity": 0.71
    },
    {
      "id": "n-08003",
      "pitch": "C5",
      "midi": 72,
      "start": 311.25,
      "duration": 0.313,
      "velocity": 0.71
    },
    {
      "id": "n-08004",
      "pitch": "C5",
      "midi": 72,
      "start": 311.25,
      "duration": 0.313,
      "velocity": 0.71
    },
    {
      "id": "n-08005",
      "pitch": "C5",
      "midi": 72,
      "start": 311.25,
      "duration": 0.313,
      "velocity": 0.71
    },
    {
      "id": "n-08006",
      "pitch": "D#5",
      "midi": 75,
      "start": 311.25,
      "duration": 0.313,
      "velocity": 0.71
    },
    {
      "id": "n-08007",
      "pitch": "D#5",
      "midi": 75,
      "start": 311.25,
      "duration": 0.313,
      "velocity": 0.71
    },
    {
      "id": "n-08008",
      "pitch": "G5",
      "midi": 79,
      "start": 311.25,
      "duration": 0.313,
      "velocity": 0.71
    },
    {
      "id": "n-08009",
      "pitch": "C6",
      "midi": 84,
      "start": 311.25,
      "duration": 0.313,
      "velocity": 0.71
    },
    {
      "id": "n-08010",
      "pitch": "C6",
      "midi": 84,
      "start": 311.25,
      "duration": 0.313,
      "velocity": 0.71
    },
    {
      "id": "n-08011",
      "pitch": "D#6",
      "midi": 87,
      "start": 311.25,
      "duration": 0.313,
      "velocity": 0.71
    },
    {
      "id": "n-08012",
      "pitch": "G2",
      "midi": 43,
      "start": 312.031,
      "duration": 0.156,
      "velocity": 0.71
    },
    {
      "id": "n-08013",
      "pitch": "G2",
      "midi": 43,
      "start": 312.031,
      "duration": 0.156,
      "velocity": 0.71
    },
    {
      "id": "n-08014",
      "pitch": "G2",
      "midi": 43,
      "start": 312.031,
      "duration": 0.156,
      "velocity": 0.71
    },
    {
      "id": "n-08015",
      "pitch": "G3",
      "midi": 55,
      "start": 312.031,
      "duration": 0.156,
      "velocity": 0.71
    },
    {
      "id": "n-08016",
      "pitch": "G3",
      "midi": 55,
      "start": 312.031,
      "duration": 0.156,
      "velocity": 0.71
    },
    {
      "id": "n-08017",
      "pitch": "B3",
      "midi": 59,
      "start": 312.031,
      "duration": 0.156,
      "velocity": 0.71
    },
    {
      "id": "n-08018",
      "pitch": "D4",
      "midi": 62,
      "start": 312.031,
      "duration": 0.156,
      "velocity": 0.71
    },
    {
      "id": "n-08019",
      "pitch": "D4",
      "midi": 62,
      "start": 312.031,
      "duration": 0.156,
      "velocity": 0.71
    },
    {
      "id": "n-08020",
      "pitch": "G4",
      "midi": 67,
      "start": 312.031,
      "duration": 0.156,
      "velocity": 0.71
    },
    {
      "id": "n-08021",
      "pitch": "G4",
      "midi": 67,
      "start": 312.031,
      "duration": 0.156,
      "velocity": 0.71
    },
    {
      "id": "n-08022",
      "pitch": "B4",
      "midi": 71,
      "start": 312.031,
      "duration": 0.156,
      "velocity": 0.71
    },
    {
      "id": "n-08023",
      "pitch": "B4",
      "midi": 71,
      "start": 312.031,
      "duration": 0.156,
      "velocity": 0.71
    },
    {
      "id": "n-08024",
      "pitch": "B4",
      "midi": 71,
      "start": 312.031,
      "duration": 0.156,
      "velocity": 0.71
    },
    {
      "id": "n-08025",
      "pitch": "D5",
      "midi": 74,
      "start": 312.031,
      "duration": 0.156,
      "velocity": 0.71
    },
    {
      "id": "n-08026",
      "pitch": "D5",
      "midi": 74,
      "start": 312.031,
      "duration": 0.156,
      "velocity": 0.71
    },
    {
      "id": "n-08027",
      "pitch": "G5",
      "midi": 79,
      "start": 312.031,
      "duration": 0.156,
      "velocity": 0.71
    },
    {
      "id": "n-08028",
      "pitch": "B5",
      "midi": 83,
      "start": 312.031,
      "duration": 0.156,
      "velocity": 0.71
    },
    {
      "id": "n-08029",
      "pitch": "B5",
      "midi": 83,
      "start": 312.031,
      "duration": 0.156,
      "velocity": 0.71
    },
    {
      "id": "n-08030",
      "pitch": "D6",
      "midi": 86,
      "start": 312.031,
      "duration": 0.156,
      "velocity": 0.71
    },
    {
      "id": "n-08031",
      "pitch": "G2",
      "midi": 43,
      "start": 312.188,
      "duration": 0.156,
      "velocity": 0.71
    },
    {
      "id": "n-08032",
      "pitch": "G2",
      "midi": 43,
      "start": 312.188,
      "duration": 0.156,
      "velocity": 0.71
    },
    {
      "id": "n-08033",
      "pitch": "G2",
      "midi": 43,
      "start": 312.188,
      "duration": 0.156,
      "velocity": 0.71
    },
    {
      "id": "n-08034",
      "pitch": "G3",
      "midi": 55,
      "start": 312.188,
      "duration": 0.156,
      "velocity": 0.71
    },
    {
      "id": "n-08035",
      "pitch": "G3",
      "midi": 55,
      "start": 312.188,
      "duration": 0.156,
      "velocity": 0.71
    },
    {
      "id": "n-08036",
      "pitch": "B3",
      "midi": 59,
      "start": 312.188,
      "duration": 0.156,
      "velocity": 0.71
    },
    {
      "id": "n-08037",
      "pitch": "D4",
      "midi": 62,
      "start": 312.188,
      "duration": 0.156,
      "velocity": 0.71
    },
    {
      "id": "n-08038",
      "pitch": "D4",
      "midi": 62,
      "start": 312.188,
      "duration": 0.156,
      "velocity": 0.71
    },
    {
      "id": "n-08039",
      "pitch": "G4",
      "midi": 67,
      "start": 312.188,
      "duration": 0.156,
      "velocity": 0.71
    },
    {
      "id": "n-08040",
      "pitch": "G4",
      "midi": 67,
      "start": 312.188,
      "duration": 0.156,
      "velocity": 0.71
    },
    {
      "id": "n-08041",
      "pitch": "B4",
      "midi": 71,
      "start": 312.188,
      "duration": 0.156,
      "velocity": 0.71
    },
    {
      "id": "n-08042",
      "pitch": "B4",
      "midi": 71,
      "start": 312.188,
      "duration": 0.156,
      "velocity": 0.71
    },
    {
      "id": "n-08043",
      "pitch": "B4",
      "midi": 71,
      "start": 312.188,
      "duration": 0.156,
      "velocity": 0.71
    },
    {
      "id": "n-08044",
      "pitch": "D5",
      "midi": 74,
      "start": 312.188,
      "duration": 0.156,
      "velocity": 0.71
    },
    {
      "id": "n-08045",
      "pitch": "D5",
      "midi": 74,
      "start": 312.188,
      "duration": 0.156,
      "velocity": 0.71
    },
    {
      "id": "n-08046",
      "pitch": "G5",
      "midi": 79,
      "start": 312.188,
      "duration": 0.156,
      "velocity": 0.71
    },
    {
      "id": "n-08047",
      "pitch": "B5",
      "midi": 83,
      "start": 312.188,
      "duration": 0.156,
      "velocity": 0.71
    },
    {
      "id": "n-08048",
      "pitch": "B5",
      "midi": 83,
      "start": 312.188,
      "duration": 0.156,
      "velocity": 0.71
    },
    {
      "id": "n-08049",
      "pitch": "D6",
      "midi": 86,
      "start": 312.188,
      "duration": 0.156,
      "velocity": 0.71
    },
    {
      "id": "n-08050",
      "pitch": "G2",
      "midi": 43,
      "start": 312.344,
      "duration": 0.156,
      "velocity": 0.71
    },
    {
      "id": "n-08051",
      "pitch": "G2",
      "midi": 43,
      "start": 312.344,
      "duration": 0.156,
      "velocity": 0.71
    },
    {
      "id": "n-08052",
      "pitch": "G2",
      "midi": 43,
      "start": 312.344,
      "duration": 0.156,
      "velocity": 0.71
    },
    {
      "id": "n-08053",
      "pitch": "G3",
      "midi": 55,
      "start": 312.344,
      "duration": 0.156,
      "velocity": 0.71
    },
    {
      "id": "n-08054",
      "pitch": "G3",
      "midi": 55,
      "start": 312.344,
      "duration": 0.156,
      "velocity": 0.71
    },
    {
      "id": "n-08055",
      "pitch": "B3",
      "midi": 59,
      "start": 312.344,
      "duration": 0.156,
      "velocity": 0.71
    },
    {
      "id": "n-08056",
      "pitch": "D4",
      "midi": 62,
      "start": 312.344,
      "duration": 0.156,
      "velocity": 0.71
    },
    {
      "id": "n-08057",
      "pitch": "D4",
      "midi": 62,
      "start": 312.344,
      "duration": 0.156,
      "velocity": 0.71
    },
    {
      "id": "n-08058",
      "pitch": "G4",
      "midi": 67,
      "start": 312.344,
      "duration": 0.156,
      "velocity": 0.71
    },
    {
      "id": "n-08059",
      "pitch": "G4",
      "midi": 67,
      "start": 312.344,
      "duration": 0.156,
      "velocity": 0.71
    },
    {
      "id": "n-08060",
      "pitch": "B4",
      "midi": 71,
      "start": 312.344,
      "duration": 0.156,
      "velocity": 0.71
    },
    {
      "id": "n-08061",
      "pitch": "B4",
      "midi": 71,
      "start": 312.344,
      "duration": 0.156,
      "velocity": 0.71
    },
    {
      "id": "n-08062",
      "pitch": "B4",
      "midi": 71,
      "start": 312.344,
      "duration": 0.156,
      "velocity": 0.71
    },
    {
      "id": "n-08063",
      "pitch": "D5",
      "midi": 74,
      "start": 312.344,
      "duration": 0.156,
      "velocity": 0.71
    },
    {
      "id": "n-08064",
      "pitch": "D5",
      "midi": 74,
      "start": 312.344,
      "duration": 0.156,
      "velocity": 0.71
    },
    {
      "id": "n-08065",
      "pitch": "G5",
      "midi": 79,
      "start": 312.344,
      "duration": 0.156,
      "velocity": 0.71
    },
    {
      "id": "n-08066",
      "pitch": "B5",
      "midi": 83,
      "start": 312.344,
      "duration": 0.156,
      "velocity": 0.71
    },
    {
      "id": "n-08067",
      "pitch": "B5",
      "midi": 83,
      "start": 312.344,
      "duration": 0.156,
      "velocity": 0.71
    },
    {
      "id": "n-08068",
      "pitch": "D6",
      "midi": 86,
      "start": 312.344,
      "duration": 0.156,
      "velocity": 0.71
    },
    {
      "id": "n-08069",
      "pitch": "C3",
      "midi": 48,
      "start": 312.5,
      "duration": 0.313,
      "velocity": 0.71
    },
    {
      "id": "n-08070",
      "pitch": "C3",
      "midi": 48,
      "start": 312.5,
      "duration": 0.313,
      "velocity": 0.71
    },
    {
      "id": "n-08071",
      "pitch": "C3",
      "midi": 48,
      "start": 312.5,
      "duration": 0.313,
      "velocity": 0.71
    },
    {
      "id": "n-08072",
      "pitch": "C4",
      "midi": 60,
      "start": 312.5,
      "duration": 0.313,
      "velocity": 0.71
    },
    {
      "id": "n-08073",
      "pitch": "C4",
      "midi": 60,
      "start": 312.5,
      "duration": 0.313,
      "velocity": 0.71
    },
    {
      "id": "n-08074",
      "pitch": "C4",
      "midi": 60,
      "start": 312.5,
      "duration": 0.313,
      "velocity": 0.71
    },
    {
      "id": "n-08075",
      "pitch": "D#4",
      "midi": 63,
      "start": 312.5,
      "duration": 0.313,
      "velocity": 0.71
    },
    {
      "id": "n-08076",
      "pitch": "D#4",
      "midi": 63,
      "start": 312.5,
      "duration": 0.313,
      "velocity": 0.71
    },
    {
      "id": "n-08077",
      "pitch": "G4",
      "midi": 67,
      "start": 312.5,
      "duration": 0.313,
      "velocity": 0.71
    },
    {
      "id": "n-08078",
      "pitch": "C5",
      "midi": 72,
      "start": 312.5,
      "duration": 0.313,
      "velocity": 0.71
    },
    {
      "id": "n-08079",
      "pitch": "C5",
      "midi": 72,
      "start": 312.5,
      "duration": 0.313,
      "velocity": 0.71
    },
    {
      "id": "n-08080",
      "pitch": "C5",
      "midi": 72,
      "start": 312.5,
      "duration": 0.313,
      "velocity": 0.71
    },
    {
      "id": "n-08081",
      "pitch": "C5",
      "midi": 72,
      "start": 312.5,
      "duration": 0.313,
      "velocity": 0.71
    },
    {
      "id": "n-08082",
      "pitch": "D#5",
      "midi": 75,
      "start": 312.5,
      "duration": 0.313,
      "velocity": 0.71
    },
    {
      "id": "n-08083",
      "pitch": "D#5",
      "midi": 75,
      "start": 312.5,
      "duration": 0.313,
      "velocity": 0.71
    },
    {
      "id": "n-08084",
      "pitch": "G5",
      "midi": 79,
      "start": 312.5,
      "duration": 0.313,
      "velocity": 0.71
    },
    {
      "id": "n-08085",
      "pitch": "C6",
      "midi": 84,
      "start": 312.5,
      "duration": 0.313,
      "velocity": 0.71
    },
    {
      "id": "n-08086",
      "pitch": "C6",
      "midi": 84,
      "start": 312.5,
      "duration": 0.313,
      "velocity": 0.71
    },
    {
      "id": "n-08087",
      "pitch": "D#6",
      "midi": 87,
      "start": 312.5,
      "duration": 0.313,
      "velocity": 0.71
    },
    {
      "id": "n-08088",
      "pitch": "G2",
      "midi": 43,
      "start": 312.813,
      "duration": 0.313,
      "velocity": 0.71
    },
    {
      "id": "n-08089",
      "pitch": "G2",
      "midi": 43,
      "start": 312.813,
      "duration": 0.313,
      "velocity": 0.71
    },
    {
      "id": "n-08090",
      "pitch": "G2",
      "midi": 43,
      "start": 312.813,
      "duration": 0.313,
      "velocity": 0.71
    },
    {
      "id": "n-08091",
      "pitch": "G3",
      "midi": 55,
      "start": 312.813,
      "duration": 0.313,
      "velocity": 0.71
    },
    {
      "id": "n-08092",
      "pitch": "G3",
      "midi": 55,
      "start": 312.813,
      "duration": 0.313,
      "velocity": 0.71
    },
    {
      "id": "n-08093",
      "pitch": "G3",
      "midi": 55,
      "start": 312.813,
      "duration": 0.313,
      "velocity": 0.71
    },
    {
      "id": "n-08094",
      "pitch": "B3",
      "midi": 59,
      "start": 312.813,
      "duration": 0.313,
      "velocity": 0.71
    },
    {
      "id": "n-08095",
      "pitch": "D4",
      "midi": 62,
      "start": 312.813,
      "duration": 0.313,
      "velocity": 0.71
    },
    {
      "id": "n-08096",
      "pitch": "D4",
      "midi": 62,
      "start": 312.813,
      "duration": 0.313,
      "velocity": 0.71
    },
    {
      "id": "n-08097",
      "pitch": "D4",
      "midi": 62,
      "start": 312.813,
      "duration": 0.313,
      "velocity": 0.71
    },
    {
      "id": "n-08098",
      "pitch": "G4",
      "midi": 67,
      "start": 312.813,
      "duration": 0.313,
      "velocity": 0.71
    },
    {
      "id": "n-08099",
      "pitch": "G4",
      "midi": 67,
      "start": 312.813,
      "duration": 0.313,
      "velocity": 0.71
    },
    {
      "id": "n-08100",
      "pitch": "B4",
      "midi": 71,
      "start": 312.813,
      "duration": 0.313,
      "velocity": 0.71
    },
    {
      "id": "n-08101",
      "pitch": "B4",
      "midi": 71,
      "start": 312.813,
      "duration": 0.313,
      "velocity": 0.71
    },
    {
      "id": "n-08102",
      "pitch": "B4",
      "midi": 71,
      "start": 312.813,
      "duration": 0.313,
      "velocity": 0.71
    },
    {
      "id": "n-08103",
      "pitch": "D5",
      "midi": 74,
      "start": 312.813,
      "duration": 0.313,
      "velocity": 0.71
    },
    {
      "id": "n-08104",
      "pitch": "D5",
      "midi": 74,
      "start": 312.813,
      "duration": 0.313,
      "velocity": 0.71
    },
    {
      "id": "n-08105",
      "pitch": "G5",
      "midi": 79,
      "start": 312.813,
      "duration": 0.313,
      "velocity": 0.71
    },
    {
      "id": "n-08106",
      "pitch": "B5",
      "midi": 83,
      "start": 312.813,
      "duration": 0.313,
      "velocity": 0.71
    },
    {
      "id": "n-08107",
      "pitch": "D6",
      "midi": 86,
      "start": 312.813,
      "duration": 0.313,
      "velocity": 0.71
    },
    {
      "id": "n-08108",
      "pitch": "G6",
      "midi": 91,
      "start": 312.813,
      "duration": 0.313,
      "velocity": 0.71
    },
    {
      "id": "n-08109",
      "pitch": "C3",
      "midi": 48,
      "start": 313.125,
      "duration": 0.313,
      "velocity": 0.71
    },
    {
      "id": "n-08110",
      "pitch": "C3",
      "midi": 48,
      "start": 313.125,
      "duration": 0.313,
      "velocity": 0.71
    },
    {
      "id": "n-08111",
      "pitch": "C3",
      "midi": 48,
      "start": 313.125,
      "duration": 0.313,
      "velocity": 0.71
    },
    {
      "id": "n-08112",
      "pitch": "G3",
      "midi": 55,
      "start": 313.125,
      "duration": 0.313,
      "velocity": 0.71
    },
    {
      "id": "n-08113",
      "pitch": "C4",
      "midi": 60,
      "start": 313.125,
      "duration": 0.313,
      "velocity": 0.71
    },
    {
      "id": "n-08114",
      "pitch": "C4",
      "midi": 60,
      "start": 313.125,
      "duration": 0.313,
      "velocity": 0.71
    },
    {
      "id": "n-08115",
      "pitch": "C4",
      "midi": 60,
      "start": 313.125,
      "duration": 0.313,
      "velocity": 0.71
    },
    {
      "id": "n-08116",
      "pitch": "D#4",
      "midi": 63,
      "start": 313.125,
      "duration": 0.313,
      "velocity": 0.71
    },
    {
      "id": "n-08117",
      "pitch": "D#4",
      "midi": 63,
      "start": 313.125,
      "duration": 0.313,
      "velocity": 0.71
    },
    {
      "id": "n-08118",
      "pitch": "D#4",
      "midi": 63,
      "start": 313.125,
      "duration": 0.313,
      "velocity": 0.71
    },
    {
      "id": "n-08119",
      "pitch": "G4",
      "midi": 67,
      "start": 313.125,
      "duration": 0.313,
      "velocity": 0.71
    },
    {
      "id": "n-08120",
      "pitch": "C5",
      "midi": 72,
      "start": 313.125,
      "duration": 0.313,
      "velocity": 0.71
    },
    {
      "id": "n-08121",
      "pitch": "C5",
      "midi": 72,
      "start": 313.125,
      "duration": 0.313,
      "velocity": 0.71
    },
    {
      "id": "n-08122",
      "pitch": "C5",
      "midi": 72,
      "start": 313.125,
      "duration": 0.313,
      "velocity": 0.71
    },
    {
      "id": "n-08123",
      "pitch": "C5",
      "midi": 72,
      "start": 313.125,
      "duration": 0.313,
      "velocity": 0.71
    },
    {
      "id": "n-08124",
      "pitch": "D#5",
      "midi": 75,
      "start": 313.125,
      "duration": 0.313,
      "velocity": 0.71
    },
    {
      "id": "n-08125",
      "pitch": "D#5",
      "midi": 75,
      "start": 313.125,
      "duration": 0.313,
      "velocity": 0.71
    },
    {
      "id": "n-08126",
      "pitch": "G5",
      "midi": 79,
      "start": 313.125,
      "duration": 0.313,
      "velocity": 0.71
    },
    {
      "id": "n-08127",
      "pitch": "C6",
      "midi": 84,
      "start": 313.125,
      "duration": 0.313,
      "velocity": 0.71
    },
    {
      "id": "n-08128",
      "pitch": "D#6",
      "midi": 87,
      "start": 313.125,
      "duration": 0.313,
      "velocity": 0.71
    },
    {
      "id": "n-08129",
      "pitch": "G6",
      "midi": 91,
      "start": 313.125,
      "duration": 0.313,
      "velocity": 0.71
    },
    {
      "id": "n-08130",
      "pitch": "G2",
      "midi": 43,
      "start": 313.438,
      "duration": 0.313,
      "velocity": 0.71
    },
    {
      "id": "n-08131",
      "pitch": "G2",
      "midi": 43,
      "start": 313.438,
      "duration": 0.313,
      "velocity": 0.71
    },
    {
      "id": "n-08132",
      "pitch": "G2",
      "midi": 43,
      "start": 313.438,
      "duration": 0.313,
      "velocity": 0.71
    },
    {
      "id": "n-08133",
      "pitch": "G3",
      "midi": 55,
      "start": 313.438,
      "duration": 0.313,
      "velocity": 0.71
    },
    {
      "id": "n-08134",
      "pitch": "G3",
      "midi": 55,
      "start": 313.438,
      "duration": 0.313,
      "velocity": 0.71
    },
    {
      "id": "n-08135",
      "pitch": "G3",
      "midi": 55,
      "start": 313.438,
      "duration": 0.313,
      "velocity": 0.71
    },
    {
      "id": "n-08136",
      "pitch": "B3",
      "midi": 59,
      "start": 313.438,
      "duration": 0.313,
      "velocity": 0.71
    },
    {
      "id": "n-08137",
      "pitch": "D4",
      "midi": 62,
      "start": 313.438,
      "duration": 0.313,
      "velocity": 0.71
    },
    {
      "id": "n-08138",
      "pitch": "D4",
      "midi": 62,
      "start": 313.438,
      "duration": 0.313,
      "velocity": 0.71
    },
    {
      "id": "n-08139",
      "pitch": "D4",
      "midi": 62,
      "start": 313.438,
      "duration": 0.313,
      "velocity": 0.71
    },
    {
      "id": "n-08140",
      "pitch": "G4",
      "midi": 67,
      "start": 313.438,
      "duration": 0.313,
      "velocity": 0.71
    },
    {
      "id": "n-08141",
      "pitch": "G4",
      "midi": 67,
      "start": 313.438,
      "duration": 0.313,
      "velocity": 0.71
    },
    {
      "id": "n-08142",
      "pitch": "B4",
      "midi": 71,
      "start": 313.438,
      "duration": 0.313,
      "velocity": 0.71
    },
    {
      "id": "n-08143",
      "pitch": "B4",
      "midi": 71,
      "start": 313.438,
      "duration": 0.313,
      "velocity": 0.71
    },
    {
      "id": "n-08144",
      "pitch": "B4",
      "midi": 71,
      "start": 313.438,
      "duration": 0.313,
      "velocity": 0.71
    },
    {
      "id": "n-08145",
      "pitch": "D5",
      "midi": 74,
      "start": 313.438,
      "duration": 0.313,
      "velocity": 0.71
    },
    {
      "id": "n-08146",
      "pitch": "D5",
      "midi": 74,
      "start": 313.438,
      "duration": 0.313,
      "velocity": 0.71
    },
    {
      "id": "n-08147",
      "pitch": "G5",
      "midi": 79,
      "start": 313.438,
      "duration": 0.313,
      "velocity": 0.71
    },
    {
      "id": "n-08148",
      "pitch": "B5",
      "midi": 83,
      "start": 313.438,
      "duration": 0.313,
      "velocity": 0.71
    },
    {
      "id": "n-08149",
      "pitch": "D6",
      "midi": 86,
      "start": 313.438,
      "duration": 0.313,
      "velocity": 0.71
    },
    {
      "id": "n-08150",
      "pitch": "G6",
      "midi": 91,
      "start": 313.438,
      "duration": 0.313,
      "velocity": 0.71
    },
    {
      "id": "n-08151",
      "pitch": "C3",
      "midi": 48,
      "start": 313.75,
      "duration": 0.313,
      "velocity": 0.71
    },
    {
      "id": "n-08152",
      "pitch": "C3",
      "midi": 48,
      "start": 313.75,
      "duration": 0.313,
      "velocity": 0.71
    },
    {
      "id": "n-08153",
      "pitch": "C3",
      "midi": 48,
      "start": 313.75,
      "duration": 0.313,
      "velocity": 0.71
    },
    {
      "id": "n-08154",
      "pitch": "G3",
      "midi": 55,
      "start": 313.75,
      "duration": 0.313,
      "velocity": 0.71
    },
    {
      "id": "n-08155",
      "pitch": "C4",
      "midi": 60,
      "start": 313.75,
      "duration": 0.313,
      "velocity": 0.71
    },
    {
      "id": "n-08156",
      "pitch": "C4",
      "midi": 60,
      "start": 313.75,
      "duration": 0.313,
      "velocity": 0.71
    },
    {
      "id": "n-08157",
      "pitch": "C4",
      "midi": 60,
      "start": 313.75,
      "duration": 0.313,
      "velocity": 0.71
    },
    {
      "id": "n-08158",
      "pitch": "D#4",
      "midi": 63,
      "start": 313.75,
      "duration": 0.313,
      "velocity": 0.71
    },
    {
      "id": "n-08159",
      "pitch": "D#4",
      "midi": 63,
      "start": 313.75,
      "duration": 0.313,
      "velocity": 0.71
    },
    {
      "id": "n-08160",
      "pitch": "D#4",
      "midi": 63,
      "start": 313.75,
      "duration": 0.313,
      "velocity": 0.71
    },
    {
      "id": "n-08161",
      "pitch": "G4",
      "midi": 67,
      "start": 313.75,
      "duration": 0.313,
      "velocity": 0.71
    },
    {
      "id": "n-08162",
      "pitch": "C5",
      "midi": 72,
      "start": 313.75,
      "duration": 0.313,
      "velocity": 0.71
    },
    {
      "id": "n-08163",
      "pitch": "C5",
      "midi": 72,
      "start": 313.75,
      "duration": 0.313,
      "velocity": 0.71
    },
    {
      "id": "n-08164",
      "pitch": "C5",
      "midi": 72,
      "start": 313.75,
      "duration": 0.313,
      "velocity": 0.71
    },
    {
      "id": "n-08165",
      "pitch": "C5",
      "midi": 72,
      "start": 313.75,
      "duration": 0.313,
      "velocity": 0.71
    },
    {
      "id": "n-08166",
      "pitch": "D#5",
      "midi": 75,
      "start": 313.75,
      "duration": 0.313,
      "velocity": 0.71
    },
    {
      "id": "n-08167",
      "pitch": "D#5",
      "midi": 75,
      "start": 313.75,
      "duration": 0.313,
      "velocity": 0.71
    },
    {
      "id": "n-08168",
      "pitch": "G5",
      "midi": 79,
      "start": 313.75,
      "duration": 0.313,
      "velocity": 0.71
    },
    {
      "id": "n-08169",
      "pitch": "C6",
      "midi": 84,
      "start": 313.75,
      "duration": 0.313,
      "velocity": 0.71
    },
    {
      "id": "n-08170",
      "pitch": "D#6",
      "midi": 87,
      "start": 313.75,
      "duration": 0.313,
      "velocity": 0.71
    },
    {
      "id": "n-08171",
      "pitch": "G6",
      "midi": 91,
      "start": 313.75,
      "duration": 0.313,
      "velocity": 0.71
    },
    {
      "id": "n-08172",
      "pitch": "G2",
      "midi": 43,
      "start": 314.063,
      "duration": 0.313,
      "velocity": 0.71
    },
    {
      "id": "n-08173",
      "pitch": "G3",
      "midi": 55,
      "start": 314.063,
      "duration": 0.313,
      "velocity": 0.71
    },
    {
      "id": "n-08174",
      "pitch": "G3",
      "midi": 55,
      "start": 314.063,
      "duration": 0.313,
      "velocity": 0.71
    },
    {
      "id": "n-08175",
      "pitch": "G3",
      "midi": 55,
      "start": 314.063,
      "duration": 0.313,
      "velocity": 0.71
    },
    {
      "id": "n-08176",
      "pitch": "B3",
      "midi": 59,
      "start": 314.063,
      "duration": 0.313,
      "velocity": 0.71
    },
    {
      "id": "n-08177",
      "pitch": "D4",
      "midi": 62,
      "start": 314.063,
      "duration": 0.313,
      "velocity": 0.71
    },
    {
      "id": "n-08178",
      "pitch": "D4",
      "midi": 62,
      "start": 314.063,
      "duration": 0.313,
      "velocity": 0.71
    },
    {
      "id": "n-08179",
      "pitch": "G4",
      "midi": 67,
      "start": 314.063,
      "duration": 0.313,
      "velocity": 0.71
    },
    {
      "id": "n-08180",
      "pitch": "G4",
      "midi": 67,
      "start": 314.063,
      "duration": 0.313,
      "velocity": 0.71
    },
    {
      "id": "n-08181",
      "pitch": "G4",
      "midi": 67,
      "start": 314.063,
      "duration": 0.313,
      "velocity": 0.71
    },
    {
      "id": "n-08182",
      "pitch": "G4",
      "midi": 67,
      "start": 314.063,
      "duration": 0.313,
      "velocity": 0.71
    },
    {
      "id": "n-08183",
      "pitch": "B4",
      "midi": 71,
      "start": 314.063,
      "duration": 0.313,
      "velocity": 0.71
    },
    {
      "id": "n-08184",
      "pitch": "B4",
      "midi": 71,
      "start": 314.063,
      "duration": 0.313,
      "velocity": 0.71
    },
    {
      "id": "n-08185",
      "pitch": "D5",
      "midi": 74,
      "start": 314.063,
      "duration": 0.313,
      "velocity": 0.71
    },
    {
      "id": "n-08186",
      "pitch": "D5",
      "midi": 74,
      "start": 314.063,
      "duration": 0.313,
      "velocity": 0.71
    },
    {
      "id": "n-08187",
      "pitch": "D5",
      "midi": 74,
      "start": 314.063,
      "duration": 0.313,
      "velocity": 0.71
    },
    {
      "id": "n-08188",
      "pitch": "G5",
      "midi": 79,
      "start": 314.063,
      "duration": 0.313,
      "velocity": 0.71
    },
    {
      "id": "n-08189",
      "pitch": "B5",
      "midi": 83,
      "start": 314.063,
      "duration": 0.313,
      "velocity": 0.71
    },
    {
      "id": "n-08190",
      "pitch": "B5",
      "midi": 83,
      "start": 314.063,
      "duration": 0.313,
      "velocity": 0.71
    },
    {
      "id": "n-08191",
      "pitch": "D6",
      "midi": 86,
      "start": 314.063,
      "duration": 0.313,
      "velocity": 0.71
    },
    {
      "id": "n-08192",
      "pitch": "G6",
      "midi": 91,
      "start": 314.063,
      "duration": 0.313,
      "velocity": 0.71
    },
    {
      "id": "n-08193",
      "pitch": "C3",
      "midi": 48,
      "start": 314.375,
      "duration": 0.313,
      "velocity": 0.71
    },
    {
      "id": "n-08194",
      "pitch": "C4",
      "midi": 60,
      "start": 314.375,
      "duration": 0.313,
      "velocity": 0.71
    },
    {
      "id": "n-08195",
      "pitch": "C4",
      "midi": 60,
      "start": 314.375,
      "duration": 0.313,
      "velocity": 0.71
    },
    {
      "id": "n-08196",
      "pitch": "C4",
      "midi": 60,
      "start": 314.375,
      "duration": 0.313,
      "velocity": 0.71
    },
    {
      "id": "n-08197",
      "pitch": "C4",
      "midi": 60,
      "start": 314.375,
      "duration": 0.313,
      "velocity": 0.71
    },
    {
      "id": "n-08198",
      "pitch": "D#4",
      "midi": 63,
      "start": 314.375,
      "duration": 0.313,
      "velocity": 0.71
    },
    {
      "id": "n-08199",
      "pitch": "D#4",
      "midi": 63,
      "start": 314.375,
      "duration": 0.313,
      "velocity": 0.71
    },
    {
      "id": "n-08200",
      "pitch": "G4",
      "midi": 67,
      "start": 314.375,
      "duration": 0.313,
      "velocity": 0.71
    },
    {
      "id": "n-08201",
      "pitch": "G4",
      "midi": 67,
      "start": 314.375,
      "duration": 0.313,
      "velocity": 0.71
    },
    {
      "id": "n-08202",
      "pitch": "C5",
      "midi": 72,
      "start": 314.375,
      "duration": 0.313,
      "velocity": 0.71
    },
    {
      "id": "n-08203",
      "pitch": "C5",
      "midi": 72,
      "start": 314.375,
      "duration": 0.313,
      "velocity": 0.71
    },
    {
      "id": "n-08204",
      "pitch": "C5",
      "midi": 72,
      "start": 314.375,
      "duration": 0.313,
      "velocity": 0.71
    },
    {
      "id": "n-08205",
      "pitch": "C5",
      "midi": 72,
      "start": 314.375,
      "duration": 0.313,
      "velocity": 0.71
    },
    {
      "id": "n-08206",
      "pitch": "D#5",
      "midi": 75,
      "start": 314.375,
      "duration": 0.313,
      "velocity": 0.71
    },
    {
      "id": "n-08207",
      "pitch": "D#5",
      "midi": 75,
      "start": 314.375,
      "duration": 0.313,
      "velocity": 0.71
    },
    {
      "id": "n-08208",
      "pitch": "D#5",
      "midi": 75,
      "start": 314.375,
      "duration": 0.313,
      "velocity": 0.71
    },
    {
      "id": "n-08209",
      "pitch": "G5",
      "midi": 79,
      "start": 314.375,
      "duration": 0.313,
      "velocity": 0.71
    },
    {
      "id": "n-08210",
      "pitch": "C6",
      "midi": 84,
      "start": 314.375,
      "duration": 0.313,
      "velocity": 0.71
    },
    {
      "id": "n-08211",
      "pitch": "C6",
      "midi": 84,
      "start": 314.375,
      "duration": 0.313,
      "velocity": 0.71
    },
    {
      "id": "n-08212",
      "pitch": "D#6",
      "midi": 87,
      "start": 314.375,
      "duration": 0.313,
      "velocity": 0.71
    },
    {
      "id": "n-08213",
      "pitch": "G6",
      "midi": 91,
      "start": 314.375,
      "duration": 0.313,
      "velocity": 0.71
    },
    {
      "id": "n-08214",
      "pitch": "G2",
      "midi": 43,
      "start": 314.688,
      "duration": 0.313,
      "velocity": 0.71
    },
    {
      "id": "n-08215",
      "pitch": "G3",
      "midi": 55,
      "start": 314.688,
      "duration": 0.313,
      "velocity": 0.71
    },
    {
      "id": "n-08216",
      "pitch": "G3",
      "midi": 55,
      "start": 314.688,
      "duration": 0.313,
      "velocity": 0.71
    },
    {
      "id": "n-08217",
      "pitch": "G3",
      "midi": 55,
      "start": 314.688,
      "duration": 0.313,
      "velocity": 0.71
    },
    {
      "id": "n-08218",
      "pitch": "B3",
      "midi": 59,
      "start": 314.688,
      "duration": 0.313,
      "velocity": 0.71
    },
    {
      "id": "n-08219",
      "pitch": "D4",
      "midi": 62,
      "start": 314.688,
      "duration": 0.313,
      "velocity": 0.71
    },
    {
      "id": "n-08220",
      "pitch": "D4",
      "midi": 62,
      "start": 314.688,
      "duration": 0.313,
      "velocity": 0.71
    },
    {
      "id": "n-08221",
      "pitch": "G4",
      "midi": 67,
      "start": 314.688,
      "duration": 0.313,
      "velocity": 0.71
    },
    {
      "id": "n-08222",
      "pitch": "G4",
      "midi": 67,
      "start": 314.688,
      "duration": 0.313,
      "velocity": 0.71
    },
    {
      "id": "n-08223",
      "pitch": "G4",
      "midi": 67,
      "start": 314.688,
      "duration": 0.313,
      "velocity": 0.71
    },
    {
      "id": "n-08224",
      "pitch": "G4",
      "midi": 67,
      "start": 314.688,
      "duration": 0.313,
      "velocity": 0.71
    },
    {
      "id": "n-08225",
      "pitch": "B4",
      "midi": 71,
      "start": 314.688,
      "duration": 0.313,
      "velocity": 0.71
    },
    {
      "id": "n-08226",
      "pitch": "B4",
      "midi": 71,
      "start": 314.688,
      "duration": 0.313,
      "velocity": 0.71
    },
    {
      "id": "n-08227",
      "pitch": "D5",
      "midi": 74,
      "start": 314.688,
      "duration": 0.313,
      "velocity": 0.71
    },
    {
      "id": "n-08228",
      "pitch": "D5",
      "midi": 74,
      "start": 314.688,
      "duration": 0.313,
      "velocity": 0.71
    },
    {
      "id": "n-08229",
      "pitch": "D5",
      "midi": 74,
      "start": 314.688,
      "duration": 0.313,
      "velocity": 0.71
    },
    {
      "id": "n-08230",
      "pitch": "G5",
      "midi": 79,
      "start": 314.688,
      "duration": 0.313,
      "velocity": 0.71
    },
    {
      "id": "n-08231",
      "pitch": "B5",
      "midi": 83,
      "start": 314.688,
      "duration": 0.313,
      "velocity": 0.71
    },
    {
      "id": "n-08232",
      "pitch": "B5",
      "midi": 83,
      "start": 314.688,
      "duration": 0.313,
      "velocity": 0.71
    },
    {
      "id": "n-08233",
      "pitch": "D6",
      "midi": 86,
      "start": 314.688,
      "duration": 0.313,
      "velocity": 0.71
    },
    {
      "id": "n-08234",
      "pitch": "G6",
      "midi": 91,
      "start": 314.688,
      "duration": 0.313,
      "velocity": 0.71
    },
    {
      "id": "n-08235",
      "pitch": "C3",
      "midi": 48,
      "start": 315,
      "duration": 0.313,
      "velocity": 0.71
    },
    {
      "id": "n-08236",
      "pitch": "C4",
      "midi": 60,
      "start": 315,
      "duration": 0.313,
      "velocity": 0.71
    },
    {
      "id": "n-08237",
      "pitch": "C4",
      "midi": 60,
      "start": 315,
      "duration": 0.313,
      "velocity": 0.71
    },
    {
      "id": "n-08238",
      "pitch": "C4",
      "midi": 60,
      "start": 315,
      "duration": 0.313,
      "velocity": 0.71
    },
    {
      "id": "n-08239",
      "pitch": "C4",
      "midi": 60,
      "start": 315,
      "duration": 0.313,
      "velocity": 0.71
    },
    {
      "id": "n-08240",
      "pitch": "D#4",
      "midi": 63,
      "start": 315,
      "duration": 0.313,
      "velocity": 0.71
    },
    {
      "id": "n-08241",
      "pitch": "D#4",
      "midi": 63,
      "start": 315,
      "duration": 0.313,
      "velocity": 0.71
    },
    {
      "id": "n-08242",
      "pitch": "G4",
      "midi": 67,
      "start": 315,
      "duration": 0.313,
      "velocity": 0.71
    },
    {
      "id": "n-08243",
      "pitch": "G4",
      "midi": 67,
      "start": 315,
      "duration": 0.313,
      "velocity": 0.71
    },
    {
      "id": "n-08244",
      "pitch": "C5",
      "midi": 72,
      "start": 315,
      "duration": 0.313,
      "velocity": 0.71
    },
    {
      "id": "n-08245",
      "pitch": "C5",
      "midi": 72,
      "start": 315,
      "duration": 0.313,
      "velocity": 0.71
    },
    {
      "id": "n-08246",
      "pitch": "C5",
      "midi": 72,
      "start": 315,
      "duration": 0.313,
      "velocity": 0.71
    },
    {
      "id": "n-08247",
      "pitch": "C5",
      "midi": 72,
      "start": 315,
      "duration": 0.313,
      "velocity": 0.71
    },
    {
      "id": "n-08248",
      "pitch": "D#5",
      "midi": 75,
      "start": 315,
      "duration": 0.313,
      "velocity": 0.71
    },
    {
      "id": "n-08249",
      "pitch": "D#5",
      "midi": 75,
      "start": 315,
      "duration": 0.313,
      "velocity": 0.71
    },
    {
      "id": "n-08250",
      "pitch": "D#5",
      "midi": 75,
      "start": 315,
      "duration": 0.313,
      "velocity": 0.71
    },
    {
      "id": "n-08251",
      "pitch": "G5",
      "midi": 79,
      "start": 315,
      "duration": 0.313,
      "velocity": 0.71
    },
    {
      "id": "n-08252",
      "pitch": "C6",
      "midi": 84,
      "start": 315,
      "duration": 0.313,
      "velocity": 0.71
    },
    {
      "id": "n-08253",
      "pitch": "C6",
      "midi": 84,
      "start": 315,
      "duration": 0.313,
      "velocity": 0.71
    },
    {
      "id": "n-08254",
      "pitch": "D#6",
      "midi": 87,
      "start": 315,
      "duration": 0.313,
      "velocity": 0.71
    },
    {
      "id": "n-08255",
      "pitch": "G6",
      "midi": 91,
      "start": 315,
      "duration": 0.313,
      "velocity": 0.71
    },
    {
      "id": "n-08256",
      "pitch": "G2",
      "midi": 43,
      "start": 315.625,
      "duration": 0.313,
      "velocity": 0.71
    },
    {
      "id": "n-08257",
      "pitch": "G2",
      "midi": 43,
      "start": 315.625,
      "duration": 0.313,
      "velocity": 0.71
    },
    {
      "id": "n-08258",
      "pitch": "G2",
      "midi": 43,
      "start": 315.625,
      "duration": 0.313,
      "velocity": 0.71
    },
    {
      "id": "n-08259",
      "pitch": "G3",
      "midi": 55,
      "start": 315.625,
      "duration": 0.313,
      "velocity": 0.71
    },
    {
      "id": "n-08260",
      "pitch": "G3",
      "midi": 55,
      "start": 315.625,
      "duration": 0.313,
      "velocity": 0.71
    },
    {
      "id": "n-08261",
      "pitch": "G3",
      "midi": 55,
      "start": 315.625,
      "duration": 0.313,
      "velocity": 0.71
    },
    {
      "id": "n-08262",
      "pitch": "G3",
      "midi": 55,
      "start": 315.625,
      "duration": 0.313,
      "velocity": 0.71
    },
    {
      "id": "n-08263",
      "pitch": "G3",
      "midi": 55,
      "start": 315.625,
      "duration": 0.313,
      "velocity": 0.71
    },
    {
      "id": "n-08264",
      "pitch": "B3",
      "midi": 59,
      "start": 315.625,
      "duration": 0.313,
      "velocity": 0.71
    },
    {
      "id": "n-08265",
      "pitch": "D4",
      "midi": 62,
      "start": 315.625,
      "duration": 0.313,
      "velocity": 0.71
    },
    {
      "id": "n-08266",
      "pitch": "D4",
      "midi": 62,
      "start": 315.625,
      "duration": 0.313,
      "velocity": 0.71
    },
    {
      "id": "n-08267",
      "pitch": "G4",
      "midi": 67,
      "start": 315.625,
      "duration": 0.313,
      "velocity": 0.71
    },
    {
      "id": "n-08268",
      "pitch": "G4",
      "midi": 67,
      "start": 315.625,
      "duration": 0.313,
      "velocity": 0.71
    },
    {
      "id": "n-08269",
      "pitch": "B4",
      "midi": 71,
      "start": 315.625,
      "duration": 0.313,
      "velocity": 0.71
    },
    {
      "id": "n-08270",
      "pitch": "B4",
      "midi": 71,
      "start": 315.625,
      "duration": 0.313,
      "velocity": 0.71
    },
    {
      "id": "n-08271",
      "pitch": "B4",
      "midi": 71,
      "start": 315.625,
      "duration": 0.313,
      "velocity": 0.71
    },
    {
      "id": "n-08272",
      "pitch": "D5",
      "midi": 74,
      "start": 315.625,
      "duration": 0.313,
      "velocity": 0.71
    },
    {
      "id": "n-08273",
      "pitch": "D5",
      "midi": 74,
      "start": 315.625,
      "duration": 0.313,
      "velocity": 0.71
    },
    {
      "id": "n-08274",
      "pitch": "G5",
      "midi": 79,
      "start": 315.625,
      "duration": 0.313,
      "velocity": 0.71
    },
    {
      "id": "n-08275",
      "pitch": "B5",
      "midi": 83,
      "start": 315.625,
      "duration": 0.313,
      "velocity": 0.71
    },
    {
      "id": "n-08276",
      "pitch": "B5",
      "midi": 83,
      "start": 315.625,
      "duration": 0.313,
      "velocity": 0.71
    },
    {
      "id": "n-08277",
      "pitch": "C3",
      "midi": 48,
      "start": 316.25,
      "duration": 0.313,
      "velocity": 0.71
    },
    {
      "id": "n-08278",
      "pitch": "C3",
      "midi": 48,
      "start": 316.25,
      "duration": 0.313,
      "velocity": 0.71
    },
    {
      "id": "n-08279",
      "pitch": "C3",
      "midi": 48,
      "start": 316.25,
      "duration": 0.313,
      "velocity": 0.71
    },
    {
      "id": "n-08280",
      "pitch": "C3",
      "midi": 48,
      "start": 316.25,
      "duration": 0.313,
      "velocity": 0.71
    },
    {
      "id": "n-08281",
      "pitch": "C3",
      "midi": 48,
      "start": 316.25,
      "duration": 0.313,
      "velocity": 0.71
    },
    {
      "id": "n-08282",
      "pitch": "G3",
      "midi": 55,
      "start": 316.25,
      "duration": 0.313,
      "velocity": 0.71
    },
    {
      "id": "n-08283",
      "pitch": "G3",
      "midi": 55,
      "start": 316.25,
      "duration": 0.313,
      "velocity": 0.71
    },
    {
      "id": "n-08284",
      "pitch": "C4",
      "midi": 60,
      "start": 316.25,
      "duration": 0.313,
      "velocity": 0.71
    },
    {
      "id": "n-08285",
      "pitch": "C4",
      "midi": 60,
      "start": 316.25,
      "duration": 0.313,
      "velocity": 0.71
    },
    {
      "id": "n-08286",
      "pitch": "D#4",
      "midi": 63,
      "start": 316.25,
      "duration": 0.313,
      "velocity": 0.71
    },
    {
      "id": "n-08287",
      "pitch": "D#4",
      "midi": 63,
      "start": 316.25,
      "duration": 0.313,
      "velocity": 0.71
    },
    {
      "id": "n-08288",
      "pitch": "G4",
      "midi": 67,
      "start": 316.25,
      "duration": 0.313,
      "velocity": 0.71
    },
    {
      "id": "n-08289",
      "pitch": "C5",
      "midi": 72,
      "start": 316.25,
      "duration": 0.313,
      "velocity": 0.71
    },
    {
      "id": "n-08290",
      "pitch": "C5",
      "midi": 72,
      "start": 316.25,
      "duration": 0.313,
      "velocity": 0.71
    },
    {
      "id": "n-08291",
      "pitch": "C5",
      "midi": 72,
      "start": 316.25,
      "duration": 0.313,
      "velocity": 0.71
    },
    {
      "id": "n-08292",
      "pitch": "D#5",
      "midi": 75,
      "start": 316.25,
      "duration": 0.313,
      "velocity": 0.71
    },
    {
      "id": "n-08293",
      "pitch": "G5",
      "midi": 79,
      "start": 316.25,
      "duration": 0.313,
      "velocity": 0.71
    },
    {
      "id": "n-08294",
      "pitch": "C6",
      "midi": 84,
      "start": 316.25,
      "duration": 0.313,
      "velocity": 0.71
    },
    {
      "id": "n-08295",
      "pitch": "C6",
      "midi": 84,
      "start": 316.25,
      "duration": 0.313,
      "velocity": 0.71
    }
  ]
}
