{
  "id": "beethoven-moonlight-sonata-1",
  "title": "Moonlight Sonata, 1st Movement",
  "source": "L. V. Beethoven; Berners, 1908; edited by A. Winterberger; Mutopia Project",
  "sourceInfo": {
    "provider": "Mutopia Project",
    "sourceUrl": "https://www.mutopiaproject.org/cgibin/piece-info.cgi?id=276",
    "midiUrl": "https://www.mutopiaproject.org/ftp/BeethovenLv/O27/moonlight/moonlight-mids.zip#moonlight1.mid",
    "license": "Creative Commons Attribution-ShareAlike 2.5",
    "composer": "L. V. Beethoven",
    "editor": "Stewart Holmes",
    "mutopiaId": "276"
  },
  "bpm": 60,
  "beatsPerBar": 2,
  "defaultSecondsPerBeat": 1,
  "createdAt": "2026-05-25T23:03:31.643Z",
  "updatedAt": "2026-05-25T23:03:31.643Z",
  "notes": [
    {
      "id": "n-00001",
      "pitch": "C#2",
      "midi": 37,
      "start": 0,
      "duration": 4,
      "velocity": 1
    },
    {
      "id": "n-00002",
      "pitch": "C#3",
      "midi": 49,
      "start": 0,
      "duration": 4,
      "velocity": 1
    },
    {
      "id": "n-00003",
      "pitch": "G#3",
      "midi": 56,
      "start": 0,
      "duration": 0.331,
      "velocity": 1
    },
    {
      "id": "n-00004",
      "pitch": "C#4",
      "midi": 61,
      "start": 0.333,
      "duration": 0.331,
      "velocity": 1
    },
    {
      "id": "n-00005",
      "pitch": "E4",
      "midi": 64,
      "start": 0.667,
      "duration": 0.331,
      "velocity": 1
    },
    {
      "id": "n-00006",
      "pitch": "G#3",
      "midi": 56,
      "start": 1,
      "duration": 0.331,
      "velocity": 1
    },
    {
      "id": "n-00007",
      "pitch": "C#4",
      "midi": 61,
      "start": 1.333,
      "duration": 0.331,
      "velocity": 1
    },
    {
      "id": "n-00008",
      "pitch": "E4",
      "midi": 64,
      "start": 1.667,
      "duration": 0.331,
      "velocity": 1
    },
    {
      "id": "n-00009",
      "pitch": "G#3",
      "midi": 56,
      "start": 2,
      "duration": 0.331,
      "velocity": 1
    },
    {
      "id": "n-00010",
      "pitch": "C#4",
      "midi": 61,
      "start": 2.333,
      "duration": 0.331,
      "velocity": 1
    },
    {
      "id": "n-00011",
      "pitch": "E4",
      "midi": 64,
      "start": 2.667,
      "duration": 0.331,
      "velocity": 1
    },
    {
      "id": "n-00012",
      "pitch": "G#3",
      "midi": 56,
      "start": 3,
      "duration": 0.331,
      "velocity": 1
    },
    {
      "id": "n-00013",
      "pitch": "C#4",
      "midi": 61,
      "start": 3.333,
      "duration": 0.331,
      "velocity": 1
    },
    {
      "id": "n-00014",
      "pitch": "E4",
      "midi": 64,
      "start": 3.667,
      "duration": 0.331,
      "velocity": 1
    },
    {
      "id": "n-00015",
      "pitch": "B1",
      "midi": 35,
      "start": 4,
      "duration": 4,
      "velocity": 1
    },
    {
      "id": "n-00016",
      "pitch": "B2",
      "midi": 47,
      "start": 4,
      "duration": 4,
      "velocity": 1
    },
    {
      "id": "n-00017",
      "pitch": "G#3",
      "midi": 56,
      "start": 4,
      "duration": 0.331,
      "velocity": 1
    },
    {
      "id": "n-00018",
      "pitch": "C#4",
      "midi": 61,
      "start": 4.333,
      "duration": 0.331,
      "velocity": 1
    },
    {
      "id": "n-00019",
      "pitch": "E4",
      "midi": 64,
      "start": 4.667,
      "duration": 0.331,
      "velocity": 1
    },
    {
      "id": "n-00020",
      "pitch": "G#3",
      "midi": 56,
      "start": 5,
      "duration": 0.331,
      "velocity": 1
    },
    {
      "id": "n-00021",
      "pitch": "C#4",
      "midi": 61,
      "start": 5.333,
      "duration": 0.331,
      "velocity": 1
    },
    {
      "id": "n-00022",
      "pitch": "E4",
      "midi": 64,
      "start": 5.667,
      "duration": 0.331,
      "velocity": 1
    },
    {
      "id": "n-00023",
      "pitch": "G#3",
      "midi": 56,
      "start": 6,
      "duration": 0.331,
      "velocity": 1
    },
    {
      "id": "n-00024",
      "pitch": "C#4",
      "midi": 61,
      "start": 6.333,
      "duration": 0.331,
      "velocity": 1
    },
    {
      "id": "n-00025",
      "pitch": "E4",
      "midi": 64,
      "start": 6.667,
      "duration": 0.331,
      "velocity": 1
    },
    {
      "id": "n-00026",
      "pitch": "G#3",
      "midi": 56,
      "start": 7,
      "duration": 0.331,
      "velocity": 1
    },
    {
      "id": "n-00027",
      "pitch": "C#4",
      "midi": 61,
      "start": 7.333,
      "duration": 0.331,
      "velocity": 1
    },
    {
      "id": "n-00028",
      "pitch": "E4",
      "midi": 64,
      "start": 7.667,
      "duration": 0.331,
      "velocity": 1
    },
    {
      "id": "n-00029",
      "pitch": "A1",
      "midi": 33,
      "start": 8,
      "duration": 2,
      "velocity": 1
    },
    {
      "id": "n-00030",
      "pitch": "A2",
      "midi": 45,
      "start": 8,
      "duration": 2,
      "velocity": 1
    },
    {
      "id": "n-00031",
      "pitch": "A3",
      "midi": 57,
      "start": 8,
      "duration": 0.331,
      "velocity": 1
    },
    {
      "id": "n-00032",
      "pitch": "C#4",
      "midi": 61,
      "start": 8.333,
      "duration": 0.331,
      "velocity": 1
    },
    {
      "id": "n-00033",
      "pitch": "E4",
      "midi": 64,
      "start": 8.667,
      "duration": 0.331,
      "velocity": 1
    },
    {
      "id": "n-00034",
      "pitch": "A3",
      "midi": 57,
      "start": 9,
      "duration": 0.331,
      "velocity": 1
    },
    {
      "id": "n-00035",
      "pitch": "C#4",
      "midi": 61,
      "start": 9.333,
      "duration": 0.331,
      "velocity": 1
    },
    {
      "id": "n-00036",
      "pitch": "E4",
      "midi": 64,
      "start": 9.667,
      "duration": 0.331,
      "velocity": 1
    },
    {
      "id": "n-00037",
      "pitch": "F#1",
      "midi": 30,
      "start": 10,
      "duration": 2,
      "velocity": 1
    },
    {
      "id": "n-00038",
      "pitch": "F#2",
      "midi": 42,
      "start": 10,
      "duration": 2,
      "velocity": 1
    },
    {
      "id": "n-00039",
      "pitch": "A3",
      "midi": 57,
      "start": 10,
      "duration": 0.331,
      "velocity": 1
    },
    {
      "id": "n-00040",
      "pitch": "D4",
      "midi": 62,
      "start": 10.333,
      "duration": 0.331,
      "velocity": 1
    },
    {
      "id": "n-00041",
      "pitch": "F#4",
      "midi": 66,
      "start": 10.667,
      "duration": 0.331,
      "velocity": 1
    },
    {
      "id": "n-00042",
      "pitch": "A3",
      "midi": 57,
      "start": 11,
      "duration": 0.331,
      "velocity": 1
    },
    {
      "id": "n-00043",
      "pitch": "D4",
      "midi": 62,
      "start": 11.333,
      "duration": 0.331,
      "velocity": 1
    },
    {
      "id": "n-00044",
      "pitch": "F#4",
      "midi": 66,
      "start": 11.667,
      "duration": 0.331,
      "velocity": 1
    },
    {
      "id": "n-00045",
      "pitch": "G#1",
      "midi": 32,
      "start": 12,
      "duration": 2,
      "velocity": 1
    },
    {
      "id": "n-00046",
      "pitch": "G#2",
      "midi": 44,
      "start": 12,
      "duration": 2,
      "velocity": 1
    },
    {
      "id": "n-00047",
      "pitch": "G#3",
      "midi": 56,
      "start": 12,
      "duration": 0.331,
      "velocity": 1
    },
    {
      "id": "n-00048",
      "pitch": "C4",
      "midi": 60,
      "start": 12.333,
      "duration": 0.331,
      "velocity": 1
    },
    {
      "id": "n-00049",
      "pitch": "F#4",
      "midi": 66,
      "start": 12.667,
      "duration": 0.331,
      "velocity": 1
    },
    {
      "id": "n-00050",
      "pitch": "G#3",
      "midi": 56,
      "start": 13,
      "duration": 0.331,
      "velocity": 1
    },
    {
      "id": "n-00051",
      "pitch": "C#4",
      "midi": 61,
      "start": 13.333,
      "duration": 0.331,
      "velocity": 1
    },
    {
      "id": "n-00052",
      "pitch": "E4",
      "midi": 64,
      "start": 13.667,
      "duration": 0.331,
      "velocity": 1
    },
    {
      "id": "n-00053",
      "pitch": "G#1",
      "midi": 32,
      "start": 14,
      "duration": 2,
      "velocity": 1
    },
    {
      "id": "n-00054",
      "pitch": "G#2",
      "midi": 44,
      "start": 14,
      "duration": 2,
      "velocity": 1
    },
    {
      "id": "n-00055",
      "pitch": "G#3",
      "midi": 56,
      "start": 14,
      "duration": 0.331,
      "velocity": 1
    },
    {
      "id": "n-00056",
      "pitch": "C#4",
      "midi": 61,
      "start": 14.333,
      "duration": 0.331,
      "velocity": 1
    },
    {
      "id": "n-00057",
      "pitch": "D#4",
      "midi": 63,
      "start": 14.667,
      "duration": 0.331,
      "velocity": 1
    },
    {
      "id": "n-00058",
      "pitch": "F#3",
      "midi": 54,
      "start": 15,
      "duration": 0.331,
      "velocity": 1
    },
    {
      "id": "n-00059",
      "pitch": "C4",
      "midi": 60,
      "start": 15.333,
      "duration": 0.331,
      "velocity": 1
    },
    {
      "id": "n-00060",
      "pitch": "D#4",
      "midi": 63,
      "start": 15.667,
      "duration": 0.331,
      "velocity": 1
    },
    {
      "id": "n-00061",
      "pitch": "C#2",
      "midi": 37,
      "start": 16,
      "duration": 4,
      "velocity": 1
    },
    {
      "id": "n-00062",
      "pitch": "G#2",
      "midi": 44,
      "start": 16,
      "duration": 4,
      "velocity": 1
    },
    {
      "id": "n-00063",
      "pitch": "C#3",
      "midi": 49,
      "start": 16,
      "duration": 4,
      "velocity": 1
    },
    {
      "id": "n-00064",
      "pitch": "E3",
      "midi": 52,
      "start": 16,
      "duration": 0.331,
      "velocity": 1
    },
    {
      "id": "n-00065",
      "pitch": "G#3",
      "midi": 56,
      "start": 16.333,
      "duration": 0.331,
      "velocity": 1
    },
    {
      "id": "n-00066",
      "pitch": "C#4",
      "midi": 61,
      "start": 16.667,
      "duration": 0.331,
      "velocity": 1
    },
    {
      "id": "n-00067",
      "pitch": "G#3",
      "midi": 56,
      "start": 17,
      "duration": 0.331,
      "velocity": 1
    },
    {
      "id": "n-00068",
      "pitch": "C#4",
      "midi": 61,
      "start": 17.333,
      "duration": 0.331,
      "velocity": 1
    },
    {
      "id": "n-00069",
      "pitch": "E4",
      "midi": 64,
      "start": 17.667,
      "duration": 0.331,
      "velocity": 1
    },
    {
      "id": "n-00070",
      "pitch": "G#3",
      "midi": 56,
      "start": 18,
      "duration": 0.331,
      "velocity": 1
    },
    {
      "id": "n-00071",
      "pitch": "C#4",
      "midi": 61,
      "start": 18.333,
      "duration": 0.331,
      "velocity": 1
    },
    {
      "id": "n-00072",
      "pitch": "E4",
      "midi": 64,
      "start": 18.667,
      "duration": 0.331,
      "velocity": 1
    },
    {
      "id": "n-00073",
      "pitch": "G#3",
      "midi": 56,
      "start": 19,
      "duration": 0.331,
      "velocity": 1
    },
    {
      "id": "n-00074",
      "pitch": "G#4",
      "midi": 68,
      "start": 19,
      "duration": 0.75,
      "velocity": 1
    },
    {
      "id": "n-00075",
      "pitch": "C#4",
      "midi": 61,
      "start": 19.333,
      "duration": 0.331,
      "velocity": 1
    },
    {
      "id": "n-00076",
      "pitch": "E4",
      "midi": 64,
      "start": 19.667,
      "duration": 0.331,
      "velocity": 1
    },
    {
      "id": "n-00077",
      "pitch": "G#4",
      "midi": 68,
      "start": 19.75,
      "duration": 0.25,
      "velocity": 1
    },
    {
      "id": "n-00078",
      "pitch": "C2",
      "midi": 36,
      "start": 20,
      "duration": 4,
      "velocity": 1
    },
    {
      "id": "n-00079",
      "pitch": "G#2",
      "midi": 44,
      "start": 20,
      "duration": 4,
      "velocity": 1
    },
    {
      "id": "n-00080",
      "pitch": "C3",
      "midi": 48,
      "start": 20,
      "duration": 4,
      "velocity": 1
    },
    {
      "id": "n-00081",
      "pitch": "G#3",
      "midi": 56,
      "start": 20,
      "duration": 0.331,
      "velocity": 1
    },
    {
      "id": "n-00082",
      "pitch": "G#4",
      "midi": 68,
      "start": 20,
      "duration": 3,
      "velocity": 1
    },
    {
      "id": "n-00083",
      "pitch": "D#4",
      "midi": 63,
      "start": 20.333,
      "duration": 0.331,
      "velocity": 1
    },
    {
      "id": "n-00084",
      "pitch": "F#4",
      "midi": 66,
      "start": 20.667,
      "duration": 0.331,
      "velocity": 1
    },
    {
      "id": "n-00085",
      "pitch": "G#3",
      "midi": 56,
      "start": 21,
      "duration": 0.331,
      "velocity": 1
    },
    {
      "id": "n-00086",
      "pitch": "D#4",
      "midi": 63,
      "start": 21.333,
      "duration": 0.331,
      "velocity": 1
    },
    {
      "id": "n-00087",
      "pitch": "F#4",
      "midi": 66,
      "start": 21.667,
      "duration": 0.331,
      "velocity": 1
    },
    {
      "id": "n-00088",
      "pitch": "G#3",
      "midi": 56,
      "start": 22,
      "duration": 0.331,
      "velocity": 1
    },
    {
      "id": "n-00089",
      "pitch": "D#4",
      "midi": 63,
      "start": 22.333,
      "duration": 0.331,
      "velocity": 1
    },
    {
      "id": "n-00090",
      "pitch": "F#4",
      "midi": 66,
      "start": 22.667,
      "duration": 0.331,
      "velocity": 1
    },
    {
      "id": "n-00091",
      "pitch": "G#3",
      "midi": 56,
      "start": 23,
      "duration": 0.331,
      "velocity": 1
    },
    {
      "id": "n-00092",
      "pitch": "G#4",
      "midi": 68,
      "start": 23,
      "duration": 0.75,
      "velocity": 1
    },
    {
      "id": "n-00093",
      "pitch": "D#4",
      "midi": 63,
      "start": 23.333,
      "duration": 0.331,
      "velocity": 1
    },
    {
      "id": "n-00094",
      "pitch": "F#4",
      "midi": 66,
      "start": 23.667,
      "duration": 0.331,
      "velocity": 1
    },
    {
      "id": "n-00095",
      "pitch": "G#4",
      "midi": 68,
      "start": 23.75,
      "duration": 0.25,
      "velocity": 1
    },
    {
      "id": "n-00096",
      "pitch": "C#2",
      "midi": 37,
      "start": 24,
      "duration": 2,
      "velocity": 1
    },
    {
      "id": "n-00097",
      "pitch": "C#3",
      "midi": 49,
      "start": 24,
      "duration": 2,
      "velocity": 1
    },
    {
      "id": "n-00098",
      "pitch": "G#3",
      "midi": 56,
      "start": 24,
      "duration": 0.331,
      "velocity": 1
    },
    {
      "id": "n-00099",
      "pitch": "G#4",
      "midi": 68,
      "start": 24,
      "duration": 2,
      "velocity": 1
    },
    {
      "id": "n-00100",
      "pitch": "C#4",
      "midi": 61,
      "start": 24.333,
      "duration": 0.331,
      "velocity": 1
    },
    {
      "id": "n-00101",
      "pitch": "E4",
      "midi": 64,
      "start": 24.667,
      "duration": 0.331,
      "velocity": 1
    },
    {
      "id": "n-00102",
      "pitch": "G#3",
      "midi": 56,
      "start": 25,
      "duration": 0.331,
      "velocity": 1
    },
    {
      "id": "n-00103",
      "pitch": "C#4",
      "midi": 61,
      "start": 25.333,
      "duration": 0.331,
      "velocity": 1
    },
    {
      "id": "n-00104",
      "pitch": "E4",
      "midi": 64,
      "start": 25.667,
      "duration": 0.331,
      "velocity": 1
    },
    {
      "id": "n-00105",
      "pitch": "F#1",
      "midi": 30,
      "start": 26,
      "duration": 2,
      "velocity": 1
    },
    {
      "id": "n-00106",
      "pitch": "F#2",
      "midi": 42,
      "start": 26,
      "duration": 2,
      "velocity": 1
    },
    {
      "id": "n-00107",
      "pitch": "A3",
      "midi": 57,
      "start": 26,
      "duration": 0.331,
      "velocity": 1
    },
    {
      "id": "n-00108",
      "pitch": "A4",
      "midi": 69,
      "start": 26,
      "duration": 2,
      "velocity": 1
    },
    {
      "id": "n-00109",
      "pitch": "C#4",
      "midi": 61,
      "start": 26.333,
      "duration": 0.331,
      "velocity": 1
    },
    {
      "id": "n-00110",
      "pitch": "F#4",
      "midi": 66,
      "start": 26.667,
      "duration": 0.331,
      "velocity": 1
    },
    {
      "id": "n-00111",
      "pitch": "A3",
      "midi": 57,
      "start": 27,
      "duration": 0.331,
      "velocity": 1
    },
    {
      "id": "n-00112",
      "pitch": "C#4",
      "midi": 61,
      "start": 27.333,
      "duration": 0.331,
      "velocity": 1
    },
    {
      "id": "n-00113",
      "pitch": "F#4",
      "midi": 66,
      "start": 27.667,
      "duration": 0.331,
      "velocity": 1
    },
    {
      "id": "n-00114",
      "pitch": "B1",
      "midi": 35,
      "start": 28,
      "duration": 2,
      "velocity": 1
    },
    {
      "id": "n-00115",
      "pitch": "B2",
      "midi": 47,
      "start": 28,
      "duration": 2,
      "velocity": 1
    },
    {
      "id": "n-00116",
      "pitch": "G#3",
      "midi": 56,
      "start": 28,
      "duration": 0.331,
      "velocity": 1
    },
    {
      "id": "n-00117",
      "pitch": "G#4",
      "midi": 68,
      "start": 28,
      "duration": 2,
      "velocity": 1
    },
    {
      "id": "n-00118",
      "pitch": "B3",
      "midi": 59,
      "start": 28.333,
      "duration": 0.331,
      "velocity": 1
    },
    {
      "id": "n-00119",
      "pitch": "E4",
      "midi": 64,
      "start": 28.667,
      "duration": 0.331,
      "velocity": 1
    },
    {
      "id": "n-00120",
      "pitch": "G#3",
      "midi": 56,
      "start": 29,
      "duration": 0.331,
      "velocity": 1
    },
    {
      "id": "n-00121",
      "pitch": "B3",
      "midi": 59,
      "start": 29.333,
      "duration": 0.331,
      "velocity": 1
    },
    {
      "id": "n-00122",
      "pitch": "E4",
      "midi": 64,
      "start": 29.667,
      "duration": 0.331,
      "velocity": 1
    },
    {
      "id": "n-00123",
      "pitch": "B1",
      "midi": 35,
      "start": 30,
      "duration": 2,
      "velocity": 1
    },
    {
      "id": "n-00124",
      "pitch": "B2",
      "midi": 47,
      "start": 30,
      "duration": 2,
      "velocity": 1
    },
    {
      "id": "n-00125",
      "pitch": "A3",
      "midi": 57,
      "start": 30,
      "duration": 0.331,
      "velocity": 1
    },
    {
      "id": "n-00126",
      "pitch": "F#4",
      "midi": 66,
      "start": 30,
      "duration": 1,
      "velocity": 1
    },
    {
      "id": "n-00127",
      "pitch": "B3",
      "midi": 59,
      "start": 30.333,
      "duration": 0.331,
      "velocity": 1
    },
    {
      "id": "n-00128",
      "pitch": "D#4",
      "midi": 63,
      "start": 30.667,
      "duration": 0.331,
      "velocity": 1
    },
    {
      "id": "n-00129",
      "pitch": "A3",
      "midi": 57,
      "start": 31,
      "duration": 0.331,
      "velocity": 1
    },
    {
      "id": "n-00130",
      "pitch": "B4",
      "midi": 71,
      "start": 31,
      "duration": 1,
      "velocity": 1
    },
    {
      "id": "n-00131",
      "pitch": "B3",
      "midi": 59,
      "start": 31.333,
      "duration": 0.331,
      "velocity": 1
    },
    {
      "id": "n-00132",
      "pitch": "D#4",
      "midi": 63,
      "start": 31.667,
      "duration": 0.331,
      "velocity": 1
    },
    {
      "id": "n-00133",
      "pitch": "E2",
      "midi": 40,
      "start": 32,
      "duration": 4,
      "velocity": 1
    },
    {
      "id": "n-00134",
      "pitch": "E3",
      "midi": 52,
      "start": 32,
      "duration": 4,
      "velocity": 1
    },
    {
      "id": "n-00135",
      "pitch": "G#3",
      "midi": 56,
      "start": 32,
      "duration": 0.331,
      "velocity": 1
    },
    {
      "id": "n-00136",
      "pitch": "E4",
      "midi": 64,
      "start": 32,
      "duration": 1,
      "velocity": 1
    },
    {
      "id": "n-00137",
      "pitch": "B3",
      "midi": 59,
      "start": 32.333,
      "duration": 0.331,
      "velocity": 1
    },
    {
      "id": "n-00138",
      "pitch": "G#3",
      "midi": 56,
      "start": 33,
      "duration": 0.331,
      "velocity": 1
    },
    {
      "id": "n-00139",
      "pitch": "B3",
      "midi": 59,
      "start": 33.333,
      "duration": 0.331,
      "velocity": 1
    },
    {
      "id": "n-00140",
      "pitch": "E4",
      "midi": 64,
      "start": 33.667,
      "duration": 0.331,
      "velocity": 1
    },
    {
      "id": "n-00141",
      "pitch": "G#3",
      "midi": 56,
      "start": 34,
      "duration": 0.331,
      "velocity": 1
    },
    {
      "id": "n-00142",
      "pitch": "B3",
      "midi": 59,
      "start": 34.333,
      "duration": 0.331,
      "velocity": 1
    },
    {
      "id": "n-00143",
      "pitch": "E4",
      "midi": 64,
      "start": 34.667,
      "duration": 0.331,
      "velocity": 1
    },
    {
      "id": "n-00144",
      "pitch": "G#3",
      "midi": 56,
      "start": 35,
      "duration": 0.331,
      "velocity": 1
    },
    {
      "id": "n-00145",
      "pitch": "B3",
      "midi": 59,
      "start": 35.333,
      "duration": 0.331,
      "velocity": 1
    },
    {
      "id": "n-00146",
      "pitch": "E4",
      "midi": 64,
      "start": 35.667,
      "duration": 0.331,
      "velocity": 1
    },
    {
      "id": "n-00147",
      "pitch": "E2",
      "midi": 40,
      "start": 36,
      "duration": 4,
      "velocity": 1
    },
    {
      "id": "n-00148",
      "pitch": "E3",
      "midi": 52,
      "start": 36,
      "duration": 4,
      "velocity": 1
    },
    {
      "id": "n-00149",
      "pitch": "G3",
      "midi": 55,
      "start": 36,
      "duration": 0.331,
      "velocity": 1
    },
    {
      "id": "n-00150",
      "pitch": "B3",
      "midi": 59,
      "start": 36.333,
      "duration": 0.331,
      "velocity": 1
    },
    {
      "id": "n-00151",
      "pitch": "E4",
      "midi": 64,
      "start": 36.667,
      "duration": 0.331,
      "velocity": 1
    },
    {
      "id": "n-00152",
      "pitch": "G3",
      "midi": 55,
      "start": 37,
      "duration": 0.331,
      "velocity": 1
    },
    {
      "id": "n-00153",
      "pitch": "B3",
      "midi": 59,
      "start": 37.333,
      "duration": 0.331,
      "velocity": 1
    },
    {
      "id": "n-00154",
      "pitch": "E4",
      "midi": 64,
      "start": 37.667,
      "duration": 0.331,
      "velocity": 1
    },
    {
      "id": "n-00155",
      "pitch": "G3",
      "midi": 55,
      "start": 38,
      "duration": 0.331,
      "velocity": 1
    },
    {
      "id": "n-00156",
      "pitch": "B3",
      "midi": 59,
      "start": 38.333,
      "duration": 0.331,
      "velocity": 1
    },
    {
      "id": "n-00157",
      "pitch": "E4",
      "midi": 64,
      "start": 38.667,
      "duration": 0.331,
      "velocity": 1
    },
    {
      "id": "n-00158",
      "pitch": "G3",
      "midi": 55,
      "start": 39,
      "duration": 0.331,
      "velocity": 1
    },
    {
      "id": "n-00159",
      "pitch": "G4",
      "midi": 67,
      "start": 39,
      "duration": 0.75,
      "velocity": 1
    },
    {
      "id": "n-00160",
      "pitch": "B3",
      "midi": 59,
      "start": 39.333,
      "duration": 0.331,
      "velocity": 1
    },
    {
      "id": "n-00161",
      "pitch": "E4",
      "midi": 64,
      "start": 39.667,
      "duration": 0.331,
      "velocity": 1
    },
    {
      "id": "n-00162",
      "pitch": "G4",
      "midi": 67,
      "start": 39.75,
      "duration": 0.25,
      "velocity": 1
    },
    {
      "id": "n-00163",
      "pitch": "D2",
      "midi": 38,
      "start": 40,
      "duration": 4,
      "velocity": 1
    },
    {
      "id": "n-00164",
      "pitch": "D3",
      "midi": 50,
      "start": 40,
      "duration": 4,
      "velocity": 1
    },
    {
      "id": "n-00165",
      "pitch": "G3",
      "midi": 55,
      "start": 40,
      "duration": 0.331,
      "velocity": 1
    },
    {
      "id": "n-00166",
      "pitch": "G4",
      "midi": 67,
      "start": 40,
      "duration": 3,
      "velocity": 1
    },
    {
      "id": "n-00167",
      "pitch": "B3",
      "midi": 59,
      "start": 40.333,
      "duration": 0.331,
      "velocity": 1
    },
    {
      "id": "n-00168",
      "pitch": "F4",
      "midi": 65,
      "start": 40.667,
      "duration": 0.331,
      "velocity": 1
    },
    {
      "id": "n-00169",
      "pitch": "G3",
      "midi": 55,
      "start": 41,
      "duration": 0.331,
      "velocity": 1
    },
    {
      "id": "n-00170",
      "pitch": "B3",
      "midi": 59,
      "start": 41.333,
      "duration": 0.331,
      "velocity": 1
    },
    {
      "id": "n-00171",
      "pitch": "F4",
      "midi": 65,
      "start": 41.667,
      "duration": 0.331,
      "velocity": 1
    },
    {
      "id": "n-00172",
      "pitch": "G3",
      "midi": 55,
      "start": 42,
      "duration": 0.331,
      "velocity": 1
    },
    {
      "id": "n-00173",
      "pitch": "B3",
      "midi": 59,
      "start": 42.333,
      "duration": 0.331,
      "velocity": 1
    },
    {
      "id": "n-00174",
      "pitch": "F4",
      "midi": 65,
      "start": 42.667,
      "duration": 0.331,
      "velocity": 1
    },
    {
      "id": "n-00175",
      "pitch": "G3",
      "midi": 55,
      "start": 43,
      "duration": 0.331,
      "velocity": 1
    },
    {
      "id": "n-00176",
      "pitch": "G4",
      "midi": 67,
      "start": 43,
      "duration": 0.75,
      "velocity": 1
    },
    {
      "id": "n-00177",
      "pitch": "B3",
      "midi": 59,
      "start": 43.333,
      "duration": 0.331,
      "velocity": 1
    },
    {
      "id": "n-00178",
      "pitch": "F4",
      "midi": 65,
      "start": 43.667,
      "duration": 0.331,
      "velocity": 1
    },
    {
      "id": "n-00179",
      "pitch": "G4",
      "midi": 67,
      "start": 43.75,
      "duration": 0.25,
      "velocity": 1
    },
    {
      "id": "n-00180",
      "pitch": "C2",
      "midi": 36,
      "start": 44,
      "duration": 1,
      "velocity": 1
    },
    {
      "id": "n-00181",
      "pitch": "C3",
      "midi": 48,
      "start": 44,
      "duration": 1,
      "velocity": 1
    },
    {
      "id": "n-00182",
      "pitch": "G3",
      "midi": 55,
      "start": 44,
      "duration": 0.331,
      "velocity": 1
    },
    {
      "id": "n-00183",
      "pitch": "G4",
      "midi": 67,
      "start": 44,
      "duration": 3,
      "velocity": 1
    },
    {
      "id": "n-00184",
      "pitch": "C4",
      "midi": 60,
      "start": 44.333,
      "duration": 0.331,
      "velocity": 1
    },
    {
      "id": "n-00185",
      "pitch": "E4",
      "midi": 64,
      "start": 44.667,
      "duration": 0.331,
      "velocity": 1
    },
    {
      "id": "n-00186",
      "pitch": "B1",
      "midi": 35,
      "start": 45,
      "duration": 1,
      "velocity": 1
    },
    {
      "id": "n-00187",
      "pitch": "B2",
      "midi": 47,
      "start": 45,
      "duration": 1,
      "velocity": 1
    },
    {
      "id": "n-00188",
      "pitch": "G3",
      "midi": 55,
      "start": 45,
      "duration": 0.331,
      "velocity": 1
    },
    {
      "id": "n-00189",
      "pitch": "B3",
      "midi": 59,
      "start": 45.333,
      "duration": 0.331,
      "velocity": 1
    },
    {
      "id": "n-00190",
      "pitch": "E4",
      "midi": 64,
      "start": 45.667,
      "duration": 0.331,
      "velocity": 1
    },
    {
      "id": "n-00191",
      "pitch": "A#1",
      "midi": 34,
      "start": 46,
      "duration": 2,
      "velocity": 1
    },
    {
      "id": "n-00192",
      "pitch": "A#2",
      "midi": 46,
      "start": 46,
      "duration": 2,
      "velocity": 1
    },
    {
      "id": "n-00193",
      "pitch": "G3",
      "midi": 55,
      "start": 46,
      "duration": 0.331,
      "velocity": 1
    },
    {
      "id": "n-00194",
      "pitch": "C#4",
      "midi": 61,
      "start": 46.333,
      "duration": 0.331,
      "velocity": 1
    },
    {
      "id": "n-00195",
      "pitch": "E4",
      "midi": 64,
      "start": 46.667,
      "duration": 0.331,
      "velocity": 1
    },
    {
      "id": "n-00196",
      "pitch": "F#3",
      "midi": 54,
      "start": 47,
      "duration": 0.331,
      "velocity": 1
    },
    {
      "id": "n-00197",
      "pitch": "F#4",
      "midi": 66,
      "start": 47,
      "duration": 1,
      "velocity": 1
    },
    {
      "id": "n-00198",
      "pitch": "C#4",
      "midi": 61,
      "start": 47.333,
      "duration": 0.331,
      "velocity": 1
    },
    {
      "id": "n-00199",
      "pitch": "E4",
      "midi": 64,
      "start": 47.667,
      "duration": 0.331,
      "velocity": 1
    },
    {
      "id": "n-00200",
      "pitch": "B1",
      "midi": 35,
      "start": 48,
      "duration": 2,
      "velocity": 1
    },
    {
      "id": "n-00201",
      "pitch": "B2",
      "midi": 47,
      "start": 48,
      "duration": 2,
      "velocity": 1
    },
    {
      "id": "n-00202",
      "pitch": "F#3",
      "midi": 54,
      "start": 48,
      "duration": 0.331,
      "velocity": 1
    },
    {
      "id": "n-00203",
      "pitch": "F#4",
      "midi": 66,
      "start": 48,
      "duration": 2,
      "velocity": 1
    },
    {
      "id": "n-00204",
      "pitch": "B3",
      "midi": 59,
      "start": 48.333,
      "duration": 0.331,
      "velocity": 1
    },
    {
      "id": "n-00205",
      "pitch": "D4",
      "midi": 62,
      "start": 48.667,
      "duration": 0.331,
      "velocity": 1
    },
    {
      "id": "n-00206",
      "pitch": "F#3",
      "midi": 54,
      "start": 49,
      "duration": 0.331,
      "velocity": 1
    },
    {
      "id": "n-00207",
      "pitch": "B3",
      "midi": 59,
      "start": 49.333,
      "duration": 0.331,
      "velocity": 1
    },
    {
      "id": "n-00208",
      "pitch": "D4",
      "midi": 62,
      "start": 49.667,
      "duration": 0.331,
      "velocity": 1
    },
    {
      "id": "n-00209",
      "pitch": "E2",
      "midi": 40,
      "start": 50,
      "duration": 1,
      "velocity": 1
    },
    {
      "id": "n-00210",
      "pitch": "G3",
      "midi": 55,
      "start": 50,
      "duration": 0.331,
      "velocity": 1
    },
    {
      "id": "n-00211",
      "pitch": "G4",
      "midi": 67,
      "start": 50,
      "duration": 1,
      "velocity": 1
    },
    {
      "id": "n-00212",
      "pitch": "B3",
      "midi": 59,
      "start": 50.333,
      "duration": 0.331,
      "velocity": 1
    },
    {
      "id": "n-00213",
      "pitch": "C#4",
      "midi": 61,
      "start": 50.667,
      "duration": 0.331,
      "velocity": 1
    },
    {
      "id": "n-00214",
      "pitch": "G2",
      "midi": 43,
      "start": 51,
      "duration": 1,
      "velocity": 1
    },
    {
      "id": "n-00215",
      "pitch": "E3",
      "midi": 52,
      "start": 51,
      "duration": 0.331,
      "velocity": 1
    },
    {
      "id": "n-00216",
      "pitch": "E4",
      "midi": 64,
      "start": 51,
      "duration": 1,
      "velocity": 1
    },
    {
      "id": "n-00217",
      "pitch": "B3",
      "midi": 59,
      "start": 51.333,
      "duration": 0.331,
      "velocity": 1
    },
    {
      "id": "n-00218",
      "pitch": "C#4",
      "midi": 61,
      "start": 51.667,
      "duration": 0.331,
      "velocity": 1
    },
    {
      "id": "n-00219",
      "pitch": "F#2",
      "midi": 42,
      "start": 52,
      "duration": 2,
      "velocity": 1
    },
    {
      "id": "n-00220",
      "pitch": "F#3",
      "midi": 54,
      "start": 52,
      "duration": 0.331,
      "velocity": 1
    },
    {
      "id": "n-00221",
      "pitch": "F#4",
      "midi": 66,
      "start": 52,
      "duration": 2,
      "velocity": 1
    },
    {
      "id": "n-00222",
      "pitch": "B3",
      "midi": 59,
      "start": 52.333,
      "duration": 0.331,
      "velocity": 1
    },
    {
      "id": "n-00223",
      "pitch": "D4",
      "midi": 62,
      "start": 52.667,
      "duration": 0.331,
      "velocity": 1
    },
    {
      "id": "n-00224",
      "pitch": "F#3",
      "midi": 54,
      "start": 53,
      "duration": 0.331,
      "velocity": 1
    },
    {
      "id": "n-00225",
      "pitch": "B3",
      "midi": 59,
      "start": 53.333,
      "duration": 0.331,
      "velocity": 1
    },
    {
      "id": "n-00226",
      "pitch": "D4",
      "midi": 62,
      "start": 53.667,
      "duration": 0.331,
      "velocity": 1
    },
    {
      "id": "n-00227",
      "pitch": "F#1",
      "midi": 30,
      "start": 54,
      "duration": 2,
      "velocity": 1
    },
    {
      "id": "n-00228",
      "pitch": "F#2",
      "midi": 42,
      "start": 54,
      "duration": 2,
      "velocity": 1
    },
    {
      "id": "n-00229",
      "pitch": "F#3",
      "midi": 54,
      "start": 54,
      "duration": 0.331,
      "velocity": 1
    },
    {
      "id": "n-00230",
      "pitch": "F#4",
      "midi": 66,
      "start": 54,
      "duration": 2,
      "velocity": 1
    },
    {
      "id": "n-00231",
      "pitch": "A#3",
      "midi": 58,
      "start": 54.333,
      "duration": 0.331,
      "velocity": 1
    },
    {
      "id": "n-00232",
      "pitch": "C#4",
      "midi": 61,
      "start": 54.667,
      "duration": 0.331,
      "velocity": 1
    },
    {
      "id": "n-00233",
      "pitch": "F#3",
      "midi": 54,
      "start": 55,
      "duration": 0.331,
      "velocity": 1
    },
    {
      "id": "n-00234",
      "pitch": "A#3",
      "midi": 58,
      "start": 55.333,
      "duration": 0.331,
      "velocity": 1
    },
    {
      "id": "n-00235",
      "pitch": "C#4",
      "midi": 61,
      "start": 55.667,
      "duration": 0.331,
      "velocity": 1
    },
    {
      "id": "n-00236",
      "pitch": "B1",
      "midi": 35,
      "start": 56,
      "duration": 5,
      "velocity": 1
    },
    {
      "id": "n-00237",
      "pitch": "B2",
      "midi": 47,
      "start": 56,
      "duration": 5,
      "velocity": 1
    },
    {
      "id": "n-00238",
      "pitch": "B3",
      "midi": 59,
      "start": 56,
      "duration": 1,
      "velocity": 1
    },
    {
      "id": "n-00239",
      "pitch": "D4",
      "midi": 62,
      "start": 56.333,
      "duration": 0.331,
      "velocity": 1
    },
    {
      "id": "n-00240",
      "pitch": "F#4",
      "midi": 66,
      "start": 56.667,
      "duration": 0.331,
      "velocity": 1
    },
    {
      "id": "n-00241",
      "pitch": "B3",
      "midi": 59,
      "start": 57,
      "duration": 0.331,
      "velocity": 1
    },
    {
      "id": "n-00242",
      "pitch": "D4",
      "midi": 62,
      "start": 57.333,
      "duration": 0.331,
      "velocity": 1
    },
    {
      "id": "n-00243",
      "pitch": "F#4",
      "midi": 66,
      "start": 57.667,
      "duration": 0.331,
      "velocity": 1
    },
    {
      "id": "n-00244",
      "pitch": "B3",
      "midi": 59,
      "start": 58,
      "duration": 0.331,
      "velocity": 1
    },
    {
      "id": "n-00245",
      "pitch": "D#4",
      "midi": 63,
      "start": 58.333,
      "duration": 0.331,
      "velocity": 1
    },
    {
      "id": "n-00246",
      "pitch": "F#4",
      "midi": 66,
      "start": 58.667,
      "duration": 0.331,
      "velocity": 1
    },
    {
      "id": "n-00247",
      "pitch": "B3",
      "midi": 59,
      "start": 59,
      "duration": 0.331,
      "velocity": 1
    },
    {
      "id": "n-00248",
      "pitch": "B4",
      "midi": 71,
      "start": 59,
      "duration": 1,
      "velocity": 1
    },
    {
      "id": "n-00249",
      "pitch": "D#4",
      "midi": 63,
      "start": 59.333,
      "duration": 0.331,
      "velocity": 1
    },
    {
      "id": "n-00250",
      "pitch": "F#4",
      "midi": 66,
      "start": 59.667,
      "duration": 0.331,
      "velocity": 1
    },
    {
      "id": "n-00251",
      "pitch": "B3",
      "midi": 59,
      "start": 60,
      "duration": 0.331,
      "velocity": 1
    },
    {
      "id": "n-00252",
      "pitch": "C5",
      "midi": 72,
      "start": 60,
      "duration": 3,
      "velocity": 1
    },
    {
      "id": "n-00253",
      "pitch": "E4",
      "midi": 64,
      "start": 60.333,
      "duration": 0.331,
      "velocity": 1
    },
    {
      "id": "n-00254",
      "pitch": "G4",
      "midi": 67,
      "start": 60.667,
      "duration": 0.331,
      "velocity": 1
    },
    {
      "id": "n-00255",
      "pitch": "E2",
      "midi": 40,
      "start": 61,
      "duration": 1,
      "velocity": 1
    },
    {
      "id": "n-00256",
      "pitch": "E3",
      "midi": 52,
      "start": 61,
      "duration": 1,
      "velocity": 1
    },
    {
      "id": "n-00257",
      "pitch": "B3",
      "midi": 59,
      "start": 61,
      "duration": 0.331,
      "velocity": 1
    },
    {
      "id": "n-00258",
      "pitch": "E4",
      "midi": 64,
      "start": 61.333,
      "duration": 0.331,
      "velocity": 1
    },
    {
      "id": "n-00259",
      "pitch": "G4",
      "midi": 67,
      "start": 61.667,
      "duration": 0.331,
      "velocity": 1
    },
    {
      "id": "n-00260",
      "pitch": "G2",
      "midi": 43,
      "start": 62,
      "duration": 1,
      "velocity": 1
    },
    {
      "id": "n-00261",
      "pitch": "G3",
      "midi": 55,
      "start": 62,
      "duration": 1,
      "velocity": 1
    },
    {
      "id": "n-00262",
      "pitch": "B3",
      "midi": 59,
      "start": 62,
      "duration": 0.331,
      "velocity": 1
    },
    {
      "id": "n-00263",
      "pitch": "E4",
      "midi": 64,
      "start": 62.333,
      "duration": 0.331,
      "velocity": 1
    },
    {
      "id": "n-00264",
      "pitch": "G4",
      "midi": 67,
      "start": 62.667,
      "duration": 0.331,
      "velocity": 1
    },
    {
      "id": "n-00265",
      "pitch": "E2",
      "midi": 40,
      "start": 63,
      "duration": 1,
      "velocity": 1
    },
    {
      "id": "n-00266",
      "pitch": "E3",
      "midi": 52,
      "start": 63,
      "duration": 1,
      "velocity": 1
    },
    {
      "id": "n-00267",
      "pitch": "B3",
      "midi": 59,
      "start": 63,
      "duration": 0.331,
      "velocity": 1
    },
    {
      "id": "n-00268",
      "pitch": "A#4",
      "midi": 70,
      "start": 63,
      "duration": 1,
      "velocity": 1
    },
    {
      "id": "n-00269",
      "pitch": "E4",
      "midi": 64,
      "start": 63.333,
      "duration": 0.331,
      "velocity": 1
    },
    {
      "id": "n-00270",
      "pitch": "G4",
      "midi": 67,
      "start": 63.667,
      "duration": 0.331,
      "velocity": 1
    },
    {
      "id": "n-00271",
      "pitch": "B1",
      "midi": 35,
      "start": 64,
      "duration": 5,
      "velocity": 1
    },
    {
      "id": "n-00272",
      "pitch": "B2",
      "midi": 47,
      "start": 64,
      "duration": 5,
      "velocity": 1
    },
    {
      "id": "n-00273",
      "pitch": "B3",
      "midi": 59,
      "start": 64,
      "duration": 0.331,
      "velocity": 1
    },
    {
      "id": "n-00274",
      "pitch": "B4",
      "midi": 71,
      "start": 64,
      "duration": 3,
      "velocity": 1
    },
    {
      "id": "n-00275",
      "pitch": "D#4",
      "midi": 63,
      "start": 64.333,
      "duration": 0.331,
      "velocity": 1
    },
    {
      "id": "n-00276",
      "pitch": "F#4",
      "midi": 66,
      "start": 64.667,
      "duration": 0.331,
      "velocity": 1
    },
    {
      "id": "n-00277",
      "pitch": "B3",
      "midi": 59,
      "start": 65,
      "duration": 0.331,
      "velocity": 1
    },
    {
      "id": "n-00278",
      "pitch": "D#4",
      "midi": 63,
      "start": 65.333,
      "duration": 0.331,
      "velocity": 1
    },
    {
      "id": "n-00279",
      "pitch": "F#4",
      "midi": 66,
      "start": 65.667,
      "duration": 0.331,
      "velocity": 1
    },
    {
      "id": "n-00280",
      "pitch": "B3",
      "midi": 59,
      "start": 66,
      "duration": 0.331,
      "velocity": 1
    },
    {
      "id": "n-00281",
      "pitch": "D#4",
      "midi": 63,
      "start": 66.333,
      "duration": 0.331,
      "velocity": 1
    },
    {
      "id": "n-00282",
      "pitch": "F#4",
      "midi": 66,
      "start": 66.667,
      "duration": 0.331,
      "velocity": 1
    },
    {
      "id": "n-00283",
      "pitch": "B3",
      "midi": 59,
      "start": 67,
      "duration": 0.331,
      "velocity": 1
    },
    {
      "id": "n-00284",
      "pitch": "B4",
      "midi": 71,
      "start": 67,
      "duration": 1,
      "velocity": 1
    },
    {
      "id": "n-00285",
      "pitch": "D#4",
      "midi": 63,
      "start": 67.333,
      "duration": 0.331,
      "velocity": 1
    },
    {
      "id": "n-00286",
      "pitch": "F#4",
      "midi": 66,
      "start": 67.667,
      "duration": 0.331,
      "velocity": 1
    },
    {
      "id": "n-00287",
      "pitch": "B3",
      "midi": 59,
      "start": 68,
      "duration": 0.331,
      "velocity": 1
    },
    {
      "id": "n-00288",
      "pitch": "C5",
      "midi": 72,
      "start": 68,
      "duration": 3,
      "velocity": 1
    },
    {
      "id": "n-00289",
      "pitch": "E4",
      "midi": 64,
      "start": 68.333,
      "duration": 0.331,
      "velocity": 1
    },
    {
      "id": "n-00290",
      "pitch": "G4",
      "midi": 67,
      "start": 68.667,
      "duration": 0.331,
      "velocity": 1
    },
    {
      "id": "n-00291",
      "pitch": "E2",
      "midi": 40,
      "start": 69,
      "duration": 1,
      "velocity": 1
    },
    {
      "id": "n-00292",
      "pitch": "E3",
      "midi": 52,
      "start": 69,
      "duration": 1,
      "velocity": 1
    },
    {
      "id": "n-00293",
      "pitch": "B3",
      "midi": 59,
      "start": 69,
      "duration": 0.331,
      "velocity": 1
    },
    {
      "id": "n-00294",
      "pitch": "E4",
      "midi": 64,
      "start": 69.333,
      "duration": 0.331,
      "velocity": 1
    },
    {
      "id": "n-00295",
      "pitch": "G4",
      "midi": 67,
      "start": 69.667,
      "duration": 0.331,
      "velocity": 1
    },
    {
      "id": "n-00296",
      "pitch": "G2",
      "midi": 43,
      "start": 70,
      "duration": 1,
      "velocity": 1
    },
    {
      "id": "n-00297",
      "pitch": "G3",
      "midi": 55,
      "start": 70,
      "duration": 1,
      "velocity": 1
    },
    {
      "id": "n-00298",
      "pitch": "B3",
      "midi": 59,
      "start": 70,
      "duration": 0.331,
      "velocity": 1
    },
    {
      "id": "n-00299",
      "pitch": "E4",
      "midi": 64,
      "start": 70.333,
      "duration": 0.331,
      "velocity": 1
    },
    {
      "id": "n-00300",
      "pitch": "G4",
      "midi": 67,
      "start": 70.667,
      "duration": 0.331,
      "velocity": 1
    },
    {
      "id": "n-00301",
      "pitch": "E2",
      "midi": 40,
      "start": 71,
      "duration": 1,
      "velocity": 1
    },
    {
      "id": "n-00302",
      "pitch": "E3",
      "midi": 52,
      "start": 71,
      "duration": 1,
      "velocity": 1
    },
    {
      "id": "n-00303",
      "pitch": "B3",
      "midi": 59,
      "start": 71,
      "duration": 0.331,
      "velocity": 1
    },
    {
      "id": "n-00304",
      "pitch": "A#4",
      "midi": 70,
      "start": 71,
      "duration": 1,
      "velocity": 1
    },
    {
      "id": "n-00305",
      "pitch": "E4",
      "midi": 64,
      "start": 71.333,
      "duration": 0.331,
      "velocity": 1
    },
    {
      "id": "n-00306",
      "pitch": "G4",
      "midi": 67,
      "start": 71.667,
      "duration": 0.331,
      "velocity": 1
    },
    {
      "id": "n-00307",
      "pitch": "B1",
      "midi": 35,
      "start": 72,
      "duration": 2,
      "velocity": 1
    },
    {
      "id": "n-00308",
      "pitch": "B2",
      "midi": 47,
      "start": 72,
      "duration": 2,
      "velocity": 1
    },
    {
      "id": "n-00309",
      "pitch": "B3",
      "midi": 59,
      "start": 72,
      "duration": 0.331,
      "velocity": 1
    },
    {
      "id": "n-00310",
      "pitch": "B4",
      "midi": 71,
      "start": 72,
      "duration": 2,
      "velocity": 1
    },
    {
      "id": "n-00311",
      "pitch": "D#4",
      "midi": 63,
      "start": 72.333,
      "duration": 0.331,
      "velocity": 1
    },
    {
      "id": "n-00312",
      "pitch": "F#4",
      "midi": 66,
      "start": 72.667,
      "duration": 0.331,
      "velocity": 1
    },
    {
      "id": "n-00313",
      "pitch": "B3",
      "midi": 59,
      "start": 73,
      "duration": 0.331,
      "velocity": 1
    },
    {
      "id": "n-00314",
      "pitch": "D#4",
      "midi": 63,
      "start": 73.333,
      "duration": 0.331,
      "velocity": 1
    },
    {
      "id": "n-00315",
      "pitch": "F#4",
      "midi": 66,
      "start": 73.667,
      "duration": 0.331,
      "velocity": 1
    },
    {
      "id": "n-00316",
      "pitch": "G#1",
      "midi": 32,
      "start": 74,
      "duration": 2,
      "velocity": 1
    },
    {
      "id": "n-00317",
      "pitch": "G#2",
      "midi": 44,
      "start": 74,
      "duration": 2,
      "velocity": 1
    },
    {
      "id": "n-00318",
      "pitch": "B3",
      "midi": 59,
      "start": 74,
      "duration": 0.331,
      "velocity": 1
    },
    {
      "id": "n-00319",
      "pitch": "B4",
      "midi": 71,
      "start": 74,
      "duration": 2,
      "velocity": 1
    },
    {
      "id": "n-00320",
      "pitch": "D4",
      "midi": 62,
      "start": 74.333,
      "duration": 0.331,
      "velocity": 1
    },
    {
      "id": "n-00321",
      "pitch": "F4",
      "midi": 65,
      "start": 74.667,
      "duration": 0.331,
      "velocity": 1
    },
    {
      "id": "n-00322",
      "pitch": "B3",
      "midi": 59,
      "start": 75,
      "duration": 0.331,
      "velocity": 1
    },
    {
      "id": "n-00323",
      "pitch": "D4",
      "midi": 62,
      "start": 75.333,
      "duration": 0.331,
      "velocity": 1
    },
    {
      "id": "n-00324",
      "pitch": "F4",
      "midi": 65,
      "start": 75.667,
      "duration": 0.331,
      "velocity": 1
    },
    {
      "id": "n-00325",
      "pitch": "F1",
      "midi": 29,
      "start": 76,
      "duration": 2,
      "velocity": 1
    },
    {
      "id": "n-00326",
      "pitch": "F2",
      "midi": 41,
      "start": 76,
      "duration": 2,
      "velocity": 1
    },
    {
      "id": "n-00327",
      "pitch": "B3",
      "midi": 59,
      "start": 76,
      "duration": 0.331,
      "velocity": 1
    },
    {
      "id": "n-00328",
      "pitch": "B4",
      "midi": 71,
      "start": 76,
      "duration": 2,
      "velocity": 1
    },
    {
      "id": "n-00329",
      "pitch": "C#4",
      "midi": 61,
      "start": 76.333,
      "duration": 0.331,
      "velocity": 1
    },
    {
      "id": "n-00330",
      "pitch": "G#4",
      "midi": 68,
      "start": 76.667,
      "duration": 0.331,
      "velocity": 1
    },
    {
      "id": "n-00331",
      "pitch": "B3",
      "midi": 59,
      "start": 77,
      "duration": 0.331,
      "velocity": 1
    },
    {
      "id": "n-00332",
      "pitch": "C#4",
      "midi": 61,
      "start": 77.333,
      "duration": 0.331,
      "velocity": 1
    },
    {
      "id": "n-00333",
      "pitch": "G#4",
      "midi": 68,
      "start": 77.667,
      "duration": 0.331,
      "velocity": 1
    },
    {
      "id": "n-00334",
      "pitch": "F#1",
      "midi": 30,
      "start": 78,
      "duration": 2,
      "velocity": 1
    },
    {
      "id": "n-00335",
      "pitch": "F#2",
      "midi": 42,
      "start": 78,
      "duration": 2,
      "velocity": 1
    },
    {
      "id": "n-00336",
      "pitch": "A3",
      "midi": 57,
      "start": 78,
      "duration": 0.331,
      "velocity": 1
    },
    {
      "id": "n-00337",
      "pitch": "A4",
      "midi": 69,
      "start": 78,
      "duration": 2,
      "velocity": 1
    },
    {
      "id": "n-00338",
      "pitch": "C#4",
      "midi": 61,
      "start": 78.333,
      "duration": 0.331,
      "velocity": 1
    },
    {
      "id": "n-00339",
      "pitch": "F#4",
      "midi": 66,
      "start": 78.667,
      "duration": 0.331,
      "velocity": 1
    },
    {
      "id": "n-00340",
      "pitch": "A3",
      "midi": 57,
      "start": 79,
      "duration": 0.331,
      "velocity": 1
    },
    {
      "id": "n-00341",
      "pitch": "C#4",
      "midi": 61,
      "start": 79.333,
      "duration": 0.331,
      "velocity": 1
    },
    {
      "id": "n-00342",
      "pitch": "F#4",
      "midi": 66,
      "start": 79.667,
      "duration": 0.331,
      "velocity": 1
    },
    {
      "id": "n-00343",
      "pitch": "B1",
      "midi": 35,
      "start": 80,
      "duration": 2,
      "velocity": 1
    },
    {
      "id": "n-00344",
      "pitch": "B2",
      "midi": 47,
      "start": 80,
      "duration": 2,
      "velocity": 1
    },
    {
      "id": "n-00345",
      "pitch": "G3",
      "midi": 55,
      "start": 80,
      "duration": 0.331,
      "velocity": 1
    },
    {
      "id": "n-00346",
      "pitch": "G4",
      "midi": 67,
      "start": 80,
      "duration": 2,
      "velocity": 1
    },
    {
      "id": "n-00347",
      "pitch": "B3",
      "midi": 59,
      "start": 80.333,
      "duration": 0.331,
      "velocity": 1
    },
    {
      "id": "n-00348",
      "pitch": "D4",
      "midi": 62,
      "start": 80.667,
      "duration": 0.331,
      "velocity": 1
    },
    {
      "id": "n-00349",
      "pitch": "G3",
      "midi": 55,
      "start": 81,
      "duration": 0.331,
      "velocity": 1
    },
    {
      "id": "n-00350",
      "pitch": "B3",
      "midi": 59,
      "start": 81.333,
      "duration": 0.331,
      "velocity": 1
    },
    {
      "id": "n-00351",
      "pitch": "D4",
      "midi": 62,
      "start": 81.667,
      "duration": 0.331,
      "velocity": 1
    },
    {
      "id": "n-00352",
      "pitch": "C2",
      "midi": 36,
      "start": 82,
      "duration": 2,
      "velocity": 1
    },
    {
      "id": "n-00353",
      "pitch": "C3",
      "midi": 48,
      "start": 82,
      "duration": 2,
      "velocity": 1
    },
    {
      "id": "n-00354",
      "pitch": "F#3",
      "midi": 54,
      "start": 82,
      "duration": 0.331,
      "velocity": 1
    },
    {
      "id": "n-00355",
      "pitch": "F#4",
      "midi": 66,
      "start": 82,
      "duration": 2,
      "velocity": 1
    },
    {
      "id": "n-00356",
      "pitch": "A3",
      "midi": 57,
      "start": 82.333,
      "duration": 0.331,
      "velocity": 1
    },
    {
      "id": "n-00357",
      "pitch": "D#4",
      "midi": 63,
      "start": 82.667,
      "duration": 0.331,
      "velocity": 1
    },
    {
      "id": "n-00358",
      "pitch": "F#3",
      "midi": 54,
      "start": 83,
      "duration": 0.331,
      "velocity": 1
    },
    {
      "id": "n-00359",
      "pitch": "A3",
      "midi": 57,
      "start": 83.333,
      "duration": 0.331,
      "velocity": 1
    },
    {
      "id": "n-00360",
      "pitch": "D#4",
      "midi": 63,
      "start": 83.667,
      "duration": 0.331,
      "velocity": 1
    },
    {
      "id": "n-00361",
      "pitch": "C#2",
      "midi": 37,
      "start": 84,
      "duration": 2,
      "velocity": 1
    },
    {
      "id": "n-00362",
      "pitch": "C#3",
      "midi": 49,
      "start": 84,
      "duration": 0.331,
      "velocity": 1
    },
    {
      "id": "n-00363",
      "pitch": "C#4",
      "midi": 61,
      "start": 84,
      "duration": 2,
      "velocity": 1
    },
    {
      "id": "n-00364",
      "pitch": "F#3",
      "midi": 54,
      "start": 84.333,
      "duration": 0.331,
      "velocity": 1
    },
    {
      "id": "n-00365",
      "pitch": "A3",
      "midi": 57,
      "start": 84.667,
      "duration": 0.331,
      "velocity": 1
    },
    {
      "id": "n-00366",
      "pitch": "C#3",
      "midi": 49,
      "start": 85,
      "duration": 0.331,
      "velocity": 1
    },
    {
      "id": "n-00367",
      "pitch": "F#3",
      "midi": 54,
      "start": 85.333,
      "duration": 0.331,
      "velocity": 1
    },
    {
      "id": "n-00368",
      "pitch": "A3",
      "midi": 57,
      "start": 85.667,
      "duration": 0.331,
      "velocity": 1
    },
    {
      "id": "n-00369",
      "pitch": "C#2",
      "midi": 37,
      "start": 86,
      "duration": 2,
      "velocity": 1
    },
    {
      "id": "n-00370",
      "pitch": "C#3",
      "midi": 49,
      "start": 86,
      "duration": 0.331,
      "velocity": 1
    },
    {
      "id": "n-00371",
      "pitch": "C#4",
      "midi": 61,
      "start": 86,
      "duration": 1,
      "velocity": 1
    },
    {
      "id": "n-00372",
      "pitch": "F#3",
      "midi": 54,
      "start": 86.333,
      "duration": 0.331,
      "velocity": 1
    },
    {
      "id": "n-00373",
      "pitch": "G#3",
      "midi": 56,
      "start": 86.667,
      "duration": 0.331,
      "velocity": 1
    },
    {
      "id": "n-00374",
      "pitch": "C#3",
      "midi": 49,
      "start": 87,
      "duration": 0.331,
      "velocity": 1
    },
    {
      "id": "n-00375",
      "pitch": "C#4",
      "midi": 61,
      "start": 87,
      "duration": 1,
      "velocity": 1
    },
    {
      "id": "n-00376",
      "pitch": "F3",
      "midi": 53,
      "start": 87.333,
      "duration": 0.331,
      "velocity": 1
    },
    {
      "id": "n-00377",
      "pitch": "G#3",
      "midi": 56,
      "start": 87.667,
      "duration": 0.331,
      "velocity": 1
    },
    {
      "id": "n-00378",
      "pitch": "F#1",
      "midi": 30,
      "start": 88,
      "duration": 4,
      "velocity": 1
    },
    {
      "id": "n-00379",
      "pitch": "C#2",
      "midi": 37,
      "start": 88,
      "duration": 4,
      "velocity": 1
    },
    {
      "id": "n-00380",
      "pitch": "F#2",
      "midi": 42,
      "start": 88,
      "duration": 4,
      "velocity": 1
    },
    {
      "id": "n-00381",
      "pitch": "F#3",
      "midi": 54,
      "start": 88,
      "duration": 1,
      "velocity": 1
    },
    {
      "id": "n-00382",
      "pitch": "A3",
      "midi": 57,
      "start": 88.333,
      "duration": 0.331,
      "velocity": 1
    },
    {
      "id": "n-00383",
      "pitch": "C#4",
      "midi": 61,
      "start": 88.667,
      "duration": 0.331,
      "velocity": 1
    },
    {
      "id": "n-00384",
      "pitch": "A3",
      "midi": 57,
      "start": 89,
      "duration": 0.331,
      "velocity": 1
    },
    {
      "id": "n-00385",
      "pitch": "C#4",
      "midi": 61,
      "start": 89.333,
      "duration": 0.331,
      "velocity": 1
    },
    {
      "id": "n-00386",
      "pitch": "F#4",
      "midi": 66,
      "start": 89.667,
      "duration": 0.331,
      "velocity": 1
    },
    {
      "id": "n-00387",
      "pitch": "C#4",
      "midi": 61,
      "start": 90,
      "duration": 0.331,
      "velocity": 1
    },
    {
      "id": "n-00388",
      "pitch": "F#4",
      "midi": 66,
      "start": 90.333,
      "duration": 0.331,
      "velocity": 1
    },
    {
      "id": "n-00389",
      "pitch": "A4",
      "midi": 69,
      "start": 90.667,
      "duration": 0.331,
      "velocity": 1
    },
    {
      "id": "n-00390",
      "pitch": "C#4",
      "midi": 61,
      "start": 91,
      "duration": 0.331,
      "velocity": 1
    },
    {
      "id": "n-00391",
      "pitch": "C#5",
      "midi": 73,
      "start": 91,
      "duration": 0.75,
      "velocity": 1
    },
    {
      "id": "n-00392",
      "pitch": "F#4",
      "midi": 66,
      "start": 91.333,
      "duration": 0.331,
      "velocity": 1
    },
    {
      "id": "n-00393",
      "pitch": "A4",
      "midi": 69,
      "start": 91.667,
      "duration": 0.331,
      "velocity": 1
    },
    {
      "id": "n-00394",
      "pitch": "C#5",
      "midi": 73,
      "start": 91.75,
      "duration": 0.25,
      "velocity": 1
    },
    {
      "id": "n-00395",
      "pitch": "F2",
      "midi": 41,
      "start": 92,
      "duration": 4,
      "velocity": 1
    },
    {
      "id": "n-00396",
      "pitch": "C#3",
      "midi": 49,
      "start": 92,
      "duration": 4,
      "velocity": 1
    },
    {
      "id": "n-00397",
      "pitch": "F3",
      "midi": 53,
      "start": 92,
      "duration": 4,
      "velocity": 1
    },
    {
      "id": "n-00398",
      "pitch": "C#4",
      "midi": 61,
      "start": 92,
      "duration": 0.331,
      "velocity": 1
    },
    {
      "id": "n-00399",
      "pitch": "C#5",
      "midi": 73,
      "start": 92,
      "duration": 3,
      "velocity": 1
    },
    {
      "id": "n-00400",
      "pitch": "G#4",
      "midi": 68,
      "start": 92.333,
      "duration": 0.331,
      "velocity": 1
    },
    {
      "id": "n-00401",
      "pitch": "B4",
      "midi": 71,
      "start": 92.667,
      "duration": 0.331,
      "velocity": 1
    },
    {
      "id": "n-00402",
      "pitch": "C#4",
      "midi": 61,
      "start": 93,
      "duration": 0.331,
      "velocity": 1
    },
    {
      "id": "n-00403",
      "pitch": "G#4",
      "midi": 68,
      "start": 93.333,
      "duration": 0.331,
      "velocity": 1
    },
    {
      "id": "n-00404",
      "pitch": "B4",
      "midi": 71,
      "start": 93.667,
      "duration": 0.331,
      "velocity": 1
    },
    {
      "id": "n-00405",
      "pitch": "C#4",
      "midi": 61,
      "start": 94,
      "duration": 0.331,
      "velocity": 1
    },
    {
      "id": "n-00406",
      "pitch": "G#4",
      "midi": 68,
      "start": 94.333,
      "duration": 0.331,
      "velocity": 1
    },
    {
      "id": "n-00407",
      "pitch": "B4",
      "midi": 71,
      "start": 94.667,
      "duration": 0.331,
      "velocity": 1
    },
    {
      "id": "n-00408",
      "pitch": "C#4",
      "midi": 61,
      "start": 95,
      "duration": 0.331,
      "velocity": 1
    },
    {
      "id": "n-00409",
      "pitch": "C#5",
      "midi": 73,
      "start": 95,
      "duration": 0.75,
      "velocity": 1
    },
    {
      "id": "n-00410",
      "pitch": "G#4",
      "midi": 68,
      "start": 95.333,
      "duration": 0.331,
      "velocity": 1
    },
    {
      "id": "n-00411",
      "pitch": "B4",
      "midi": 71,
      "start": 95.667,
      "duration": 0.331,
      "velocity": 1
    },
    {
      "id": "n-00412",
      "pitch": "C#5",
      "midi": 73,
      "start": 95.75,
      "duration": 0.25,
      "velocity": 1
    },
    {
      "id": "n-00413",
      "pitch": "F#2",
      "midi": 42,
      "start": 96,
      "duration": 2,
      "velocity": 1
    },
    {
      "id": "n-00414",
      "pitch": "F#3",
      "midi": 54,
      "start": 96,
      "duration": 2,
      "velocity": 1
    },
    {
      "id": "n-00415",
      "pitch": "C#4",
      "midi": 61,
      "start": 96,
      "duration": 0.331,
      "velocity": 1
    },
    {
      "id": "n-00416",
      "pitch": "C#5",
      "midi": 73,
      "start": 96,
      "duration": 2,
      "velocity": 1
    },
    {
      "id": "n-00417",
      "pitch": "F#4",
      "midi": 66,
      "start": 96.333,
      "duration": 0.331,
      "velocity": 1
    },
    {
      "id": "n-00418",
      "pitch": "A4",
      "midi": 69,
      "start": 96.667,
      "duration": 0.331,
      "velocity": 1
    },
    {
      "id": "n-00419",
      "pitch": "C#4",
      "midi": 61,
      "start": 97,
      "duration": 0.331,
      "velocity": 1
    },
    {
      "id": "n-00420",
      "pitch": "F#4",
      "midi": 66,
      "start": 97.333,
      "duration": 0.331,
      "velocity": 1
    },
    {
      "id": "n-00421",
      "pitch": "A4",
      "midi": 69,
      "start": 97.667,
      "duration": 0.331,
      "velocity": 1
    },
    {
      "id": "n-00422",
      "pitch": "D#2",
      "midi": 39,
      "start": 98,
      "duration": 1,
      "velocity": 1
    },
    {
      "id": "n-00423",
      "pitch": "D#3",
      "midi": 51,
      "start": 98,
      "duration": 1,
      "velocity": 1
    },
    {
      "id": "n-00424",
      "pitch": "C4",
      "midi": 60,
      "start": 98,
      "duration": 0.331,
      "velocity": 1
    },
    {
      "id": "n-00425",
      "pitch": "C5",
      "midi": 72,
      "start": 98,
      "duration": 1,
      "velocity": 1
    },
    {
      "id": "n-00426",
      "pitch": "F#4",
      "midi": 66,
      "start": 98.333,
      "duration": 0.331,
      "velocity": 1
    },
    {
      "id": "n-00427",
      "pitch": "A4",
      "midi": 69,
      "start": 98.667,
      "duration": 0.331,
      "velocity": 1
    },
    {
      "id": "n-00428",
      "pitch": "C#2",
      "midi": 37,
      "start": 99,
      "duration": 1,
      "velocity": 1
    },
    {
      "id": "n-00429",
      "pitch": "C#3",
      "midi": 49,
      "start": 99,
      "duration": 1,
      "velocity": 1
    },
    {
      "id": "n-00430",
      "pitch": "C#4",
      "midi": 61,
      "start": 99,
      "duration": 0.331,
      "velocity": 1
    },
    {
      "id": "n-00431",
      "pitch": "C#5",
      "midi": 73,
      "start": 99,
      "duration": 1,
      "velocity": 1
    },
    {
      "id": "n-00432",
      "pitch": "F#4",
      "midi": 66,
      "start": 99.333,
      "duration": 0.331,
      "velocity": 1
    },
    {
      "id": "n-00433",
      "pitch": "A4",
      "midi": 69,
      "start": 99.667,
      "duration": 0.331,
      "velocity": 1
    },
    {
      "id": "n-00434",
      "pitch": "C2",
      "midi": 36,
      "start": 100,
      "duration": 3,
      "velocity": 1
    },
    {
      "id": "n-00435",
      "pitch": "G#2",
      "midi": 44,
      "start": 100,
      "duration": 3,
      "velocity": 1
    },
    {
      "id": "n-00436",
      "pitch": "C3",
      "midi": 48,
      "start": 100,
      "duration": 3,
      "velocity": 1
    },
    {
      "id": "n-00437",
      "pitch": "D#4",
      "midi": 63,
      "start": 100,
      "duration": 0.331,
      "velocity": 1
    },
    {
      "id": "n-00438",
      "pitch": "D#5",
      "midi": 75,
      "start": 100,
      "duration": 3,
      "velocity": 1
    },
    {
      "id": "n-00439",
      "pitch": "F#4",
      "midi": 66,
      "start": 100.333,
      "duration": 0.331,
      "velocity": 1
    },
    {
      "id": "n-00440",
      "pitch": "G#4",
      "midi": 68,
      "start": 100.667,
      "duration": 0.331,
      "velocity": 1
    },
    {
      "id": "n-00441",
      "pitch": "D#4",
      "midi": 63,
      "start": 101,
      "duration": 0.331,
      "velocity": 1
    },
    {
      "id": "n-00442",
      "pitch": "F#4",
      "midi": 66,
      "start": 101.333,
      "duration": 0.331,
      "velocity": 1
    },
    {
      "id": "n-00443",
      "pitch": "G#4",
      "midi": 68,
      "start": 101.667,
      "duration": 0.331,
      "velocity": 1
    },
    {
      "id": "n-00444",
      "pitch": "D#4",
      "midi": 63,
      "start": 102,
      "duration": 0.331,
      "velocity": 1
    },
    {
      "id": "n-00445",
      "pitch": "F#4",
      "midi": 66,
      "start": 102.333,
      "duration": 0.331,
      "velocity": 1
    },
    {
      "id": "n-00446",
      "pitch": "G#4",
      "midi": 68,
      "start": 102.667,
      "duration": 0.331,
      "velocity": 1
    },
    {
      "id": "n-00447",
      "pitch": "C2",
      "midi": 36,
      "start": 103,
      "duration": 1,
      "velocity": 1
    },
    {
      "id": "n-00448",
      "pitch": "G#2",
      "midi": 44,
      "start": 103,
      "duration": 1,
      "velocity": 1
    },
    {
      "id": "n-00449",
      "pitch": "C3",
      "midi": 48,
      "start": 103,
      "duration": 1,
      "velocity": 1
    },
    {
      "id": "n-00450",
      "pitch": "D#4",
      "midi": 63,
      "start": 103,
      "duration": 0.331,
      "velocity": 1
    },
    {
      "id": "n-00451",
      "pitch": "D#5",
      "midi": 75,
      "start": 103,
      "duration": 1,
      "velocity": 1
    },
    {
      "id": "n-00452",
      "pitch": "F#4",
      "midi": 66,
      "start": 103.333,
      "duration": 0.331,
      "velocity": 1
    },
    {
      "id": "n-00453",
      "pitch": "G#4",
      "midi": 68,
      "start": 103.667,
      "duration": 0.331,
      "velocity": 1
    },
    {
      "id": "n-00454",
      "pitch": "C#2",
      "midi": 37,
      "start": 104,
      "duration": 2,
      "velocity": 1
    },
    {
      "id": "n-00455",
      "pitch": "G#2",
      "midi": 44,
      "start": 104,
      "duration": 2,
      "velocity": 1
    },
    {
      "id": "n-00456",
      "pitch": "C#3",
      "midi": 49,
      "start": 104,
      "duration": 2,
      "velocity": 1
    },
    {
      "id": "n-00457",
      "pitch": "E4",
      "midi": 64,
      "start": 104,
      "duration": 0.331,
      "velocity": 1
    },
    {
      "id": "n-00458",
      "pitch": "E5",
      "midi": 76,
      "start": 104,
      "duration": 2,
      "velocity": 1
    },
    {
      "id": "n-00459",
      "pitch": "G#4",
      "midi": 68,
      "start": 104.333,
      "duration": 0.331,
      "velocity": 1
    },
    {
      "id": "n-00460",
      "pitch": "C#5",
      "midi": 73,
      "start": 104.667,
      "duration": 0.331,
      "velocity": 1
    },
    {
      "id": "n-00461",
      "pitch": "E4",
      "midi": 64,
      "start": 105,
      "duration": 0.331,
      "velocity": 1
    },
    {
      "id": "n-00462",
      "pitch": "G#4",
      "midi": 68,
      "start": 105.333,
      "duration": 0.331,
      "velocity": 1
    },
    {
      "id": "n-00463",
      "pitch": "C#5",
      "midi": 73,
      "start": 105.667,
      "duration": 0.331,
      "velocity": 1
    },
    {
      "id": "n-00464",
      "pitch": "F#1",
      "midi": 30,
      "start": 106,
      "duration": 1,
      "velocity": 1
    },
    {
      "id": "n-00465",
      "pitch": "F#2",
      "midi": 42,
      "start": 106,
      "duration": 1,
      "velocity": 1
    },
    {
      "id": "n-00466",
      "pitch": "D#4",
      "midi": 63,
      "start": 106,
      "duration": 0.331,
      "velocity": 1
    },
    {
      "id": "n-00467",
      "pitch": "D#5",
      "midi": 75,
      "start": 106,
      "duration": 1,
      "velocity": 1
    },
    {
      "id": "n-00468",
      "pitch": "F#4",
      "midi": 66,
      "start": 106.333,
      "duration": 0.331,
      "velocity": 1
    },
    {
      "id": "n-00469",
      "pitch": "A4",
      "midi": 69,
      "start": 106.667,
      "duration": 0.331,
      "velocity": 1
    },
    {
      "id": "n-00470",
      "pitch": "G1",
      "midi": 31,
      "start": 107,
      "duration": 1,
      "velocity": 1
    },
    {
      "id": "n-00471",
      "pitch": "G2",
      "midi": 43,
      "start": 107,
      "duration": 1,
      "velocity": 1
    },
    {
      "id": "n-00472",
      "pitch": "C#4",
      "midi": 61,
      "start": 107,
      "duration": 0.331,
      "velocity": 1
    },
    {
      "id": "n-00473",
      "pitch": "C#5",
      "midi": 73,
      "start": 107,
      "duration": 1,
      "velocity": 1
    },
    {
      "id": "n-00474",
      "pitch": "E4",
      "midi": 64,
      "start": 107.333,
      "duration": 0.331,
      "velocity": 1
    },
    {
      "id": "n-00475",
      "pitch": "A#4",
      "midi": 70,
      "start": 107.667,
      "duration": 0.331,
      "velocity": 1
    },
    {
      "id": "n-00476",
      "pitch": "G#1",
      "midi": 32,
      "start": 108,
      "duration": 4,
      "velocity": 1
    },
    {
      "id": "n-00477",
      "pitch": "G#2",
      "midi": 44,
      "start": 108,
      "duration": 4,
      "velocity": 1
    },
    {
      "id": "n-00478",
      "pitch": "C5",
      "midi": 72,
      "start": 108,
      "duration": 0.331,
      "velocity": 1
    },
    {
      "id": "n-00479",
      "pitch": "C4",
      "midi": 60,
      "start": 108.333,
      "duration": 0.331,
      "velocity": 1
    },
    {
      "id": "n-00480",
      "pitch": "D#4",
      "midi": 63,
      "start": 108.667,
      "duration": 0.331,
      "velocity": 1
    },
    {
      "id": "n-00481",
      "pitch": "G#4",
      "midi": 68,
      "start": 109,
      "duration": 1,
      "velocity": 1
    },
    {
      "id": "n-00482",
      "pitch": "C4",
      "midi": 60,
      "start": 109.333,
      "duration": 0.331,
      "velocity": 1
    },
    {
      "id": "n-00483",
      "pitch": "D#4",
      "midi": 63,
      "start": 109.667,
      "duration": 0.331,
      "velocity": 1
    },
    {
      "id": "n-00484",
      "pitch": "A4",
      "midi": 69,
      "start": 110,
      "duration": 1,
      "velocity": 1
    },
    {
      "id": "n-00485",
      "pitch": "C4",
      "midi": 60,
      "start": 110.333,
      "duration": 0.331,
      "velocity": 1
    },
    {
      "id": "n-00486",
      "pitch": "D#4",
      "midi": 63,
      "start": 110.667,
      "duration": 0.331,
      "velocity": 1
    },
    {
      "id": "n-00487",
      "pitch": "F#4",
      "midi": 66,
      "start": 111,
      "duration": 1,
      "velocity": 1
    },
    {
      "id": "n-00488",
      "pitch": "C4",
      "midi": 60,
      "start": 111.333,
      "duration": 0.331,
      "velocity": 1
    },
    {
      "id": "n-00489",
      "pitch": "D#4",
      "midi": 63,
      "start": 111.667,
      "duration": 0.331,
      "velocity": 1
    },
    {
      "id": "n-00490",
      "pitch": "G#1",
      "midi": 32,
      "start": 112,
      "duration": 4,
      "velocity": 1
    },
    {
      "id": "n-00491",
      "pitch": "G#2",
      "midi": 44,
      "start": 112,
      "duration": 4,
      "velocity": 1
    },
    {
      "id": "n-00492",
      "pitch": "C4",
      "midi": 60,
      "start": 112.333,
      "duration": 0.331,
      "velocity": 1
    },
    {
      "id": "n-00493",
      "pitch": "D#4",
      "midi": 63,
      "start": 112.667,
      "duration": 0.331,
      "velocity": 1
    },
    {
      "id": "n-00494",
      "pitch": "G#3",
      "midi": 56,
      "start": 113,
      "duration": 1,
      "velocity": 1
    },
    {
      "id": "n-00495",
      "pitch": "C4",
      "midi": 60,
      "start": 113.333,
      "duration": 0.331,
      "velocity": 1
    },
    {
      "id": "n-00496",
      "pitch": "D#4",
      "midi": 63,
      "start": 113.667,
      "duration": 0.331,
      "velocity": 1
    },
    {
      "id": "n-00497",
      "pitch": "A3",
      "midi": 57,
      "start": 114,
      "duration": 1,
      "velocity": 1
    },
    {
      "id": "n-00498",
      "pitch": "C4",
      "midi": 60,
      "start": 114.333,
      "duration": 0.331,
      "velocity": 1
    },
    {
      "id": "n-00499",
      "pitch": "D#4",
      "midi": 63,
      "start": 114.667,
      "duration": 0.331,
      "velocity": 1
    },
    {
      "id": "n-00500",
      "pitch": "F#3",
      "midi": 54,
      "start": 115,
      "duration": 1,
      "velocity": 1
    },
    {
      "id": "n-00501",
      "pitch": "C4",
      "midi": 60,
      "start": 115.333,
      "duration": 0.331,
      "velocity": 1
    },
    {
      "id": "n-00502",
      "pitch": "D#4",
      "midi": 63,
      "start": 115.667,
      "duration": 0.331,
      "velocity": 1
    },
    {
      "id": "n-00503",
      "pitch": "G#1",
      "midi": 32,
      "start": 116,
      "duration": 4,
      "velocity": 1
    },
    {
      "id": "n-00504",
      "pitch": "G#2",
      "midi": 44,
      "start": 116,
      "duration": 4,
      "velocity": 1
    },
    {
      "id": "n-00505",
      "pitch": "E3",
      "midi": 52,
      "start": 116,
      "duration": 0.331,
      "velocity": 1
    },
    {
      "id": "n-00506",
      "pitch": "E4",
      "midi": 64,
      "start": 116.333,
      "duration": 0.331,
      "velocity": 1
    },
    {
      "id": "n-00507",
      "pitch": "G#4",
      "midi": 68,
      "start": 116.667,
      "duration": 0.331,
      "velocity": 1
    },
    {
      "id": "n-00508",
      "pitch": "C#5",
      "midi": 73,
      "start": 117,
      "duration": 1,
      "velocity": 1
    },
    {
      "id": "n-00509",
      "pitch": "E4",
      "midi": 64,
      "start": 117.333,
      "duration": 0.331,
      "velocity": 1
    },
    {
      "id": "n-00510",
      "pitch": "G#4",
      "midi": 68,
      "start": 117.667,
      "duration": 0.331,
      "velocity": 1
    },
    {
      "id": "n-00511",
      "pitch": "E5",
      "midi": 76,
      "start": 118,
      "duration": 1,
      "velocity": 1
    },
    {
      "id": "n-00512",
      "pitch": "E4",
      "midi": 64,
      "start": 118.333,
      "duration": 0.331,
      "velocity": 1
    },
    {
      "id": "n-00513",
      "pitch": "G#4",
      "midi": 68,
      "start": 118.667,
      "duration": 0.331,
      "velocity": 1
    },
    {
      "id": "n-00514",
      "pitch": "C#5",
      "midi": 73,
      "start": 119,
      "duration": 1,
      "velocity": 1
    },
    {
      "id": "n-00515",
      "pitch": "E4",
      "midi": 64,
      "start": 119.333,
      "duration": 0.331,
      "velocity": 1
    },
    {
      "id": "n-00516",
      "pitch": "G#4",
      "midi": 68,
      "start": 119.667,
      "duration": 0.331,
      "velocity": 1
    },
    {
      "id": "n-00517",
      "pitch": "G#1",
      "midi": 32,
      "start": 120,
      "duration": 4,
      "velocity": 1
    },
    {
      "id": "n-00518",
      "pitch": "G#2",
      "midi": 44,
      "start": 120,
      "duration": 4,
      "velocity": 1
    },
    {
      "id": "n-00519",
      "pitch": "E3",
      "midi": 52,
      "start": 120.333,
      "duration": 0.331,
      "velocity": 1
    },
    {
      "id": "n-00520",
      "pitch": "G#3",
      "midi": 56,
      "start": 120.667,
      "duration": 0.331,
      "velocity": 1
    },
    {
      "id": "n-00521",
      "pitch": "C#4",
      "midi": 61,
      "start": 121,
      "duration": 1,
      "velocity": 1
    },
    {
      "id": "n-00522",
      "pitch": "E3",
      "midi": 52,
      "start": 121.333,
      "duration": 0.331,
      "velocity": 1
    },
    {
      "id": "n-00523",
      "pitch": "G#3",
      "midi": 56,
      "start": 121.667,
      "duration": 0.331,
      "velocity": 1
    },
    {
      "id": "n-00524",
      "pitch": "E4",
      "midi": 64,
      "start": 122,
      "duration": 1,
      "velocity": 1
    },
    {
      "id": "n-00525",
      "pitch": "E3",
      "midi": 52,
      "start": 122.333,
      "duration": 0.331,
      "velocity": 1
    },
    {
      "id": "n-00526",
      "pitch": "G#3",
      "midi": 56,
      "start": 122.667,
      "duration": 0.331,
      "velocity": 1
    },
    {
      "id": "n-00527",
      "pitch": "C#4",
      "midi": 61,
      "start": 123,
      "duration": 1,
      "velocity": 1
    },
    {
      "id": "n-00528",
      "pitch": "E3",
      "midi": 52,
      "start": 123.333,
      "duration": 0.331,
      "velocity": 1
    },
    {
      "id": "n-00529",
      "pitch": "G#3",
      "midi": 56,
      "start": 123.667,
      "duration": 0.331,
      "velocity": 1
    },
    {
      "id": "n-00530",
      "pitch": "G#1",
      "midi": 32,
      "start": 124,
      "duration": 4,
      "velocity": 1
    },
    {
      "id": "n-00531",
      "pitch": "G#2",
      "midi": 44,
      "start": 124,
      "duration": 4,
      "velocity": 1
    },
    {
      "id": "n-00532",
      "pitch": "D#3",
      "midi": 51,
      "start": 124,
      "duration": 0.331,
      "velocity": 1
    },
    {
      "id": "n-00533",
      "pitch": "A3",
      "midi": 57,
      "start": 124.333,
      "duration": 0.331,
      "velocity": 1
    },
    {
      "id": "n-00534",
      "pitch": "F#3",
      "midi": 54,
      "start": 124.667,
      "duration": 0.331,
      "velocity": 1
    },
    {
      "id": "n-00535",
      "pitch": "C4",
      "midi": 60,
      "start": 125,
      "duration": 0.331,
      "velocity": 1
    },
    {
      "id": "n-00536",
      "pitch": "A3",
      "midi": 57,
      "start": 125.333,
      "duration": 0.331,
      "velocity": 1
    },
    {
      "id": "n-00537",
      "pitch": "D#4",
      "midi": 63,
      "start": 125.667,
      "duration": 0.331,
      "velocity": 1
    },
    {
      "id": "n-00538",
      "pitch": "C4",
      "midi": 60,
      "start": 126,
      "duration": 0.331,
      "velocity": 1
    },
    {
      "id": "n-00539",
      "pitch": "F#4",
      "midi": 66,
      "start": 126.333,
      "duration": 0.331,
      "velocity": 1
    },
    {
      "id": "n-00540",
      "pitch": "D#4",
      "midi": 63,
      "start": 126.667,
      "duration": 0.331,
      "velocity": 1
    },
    {
      "id": "n-00541",
      "pitch": "A4",
      "midi": 69,
      "start": 127,
      "duration": 0.331,
      "velocity": 1
    },
    {
      "id": "n-00542",
      "pitch": "F#4",
      "midi": 66,
      "start": 127.333,
      "duration": 0.331,
      "velocity": 1
    },
    {
      "id": "n-00543",
      "pitch": "C5",
      "midi": 72,
      "start": 127.667,
      "duration": 0.331,
      "velocity": 1
    },
    {
      "id": "n-00544",
      "pitch": "G#1",
      "midi": 32,
      "start": 128,
      "duration": 4,
      "velocity": 1
    },
    {
      "id": "n-00545",
      "pitch": "G#2",
      "midi": 44,
      "start": 128,
      "duration": 4,
      "velocity": 1
    },
    {
      "id": "n-00546",
      "pitch": "E3",
      "midi": 52,
      "start": 128,
      "duration": 0.331,
      "velocity": 1
    },
    {
      "id": "n-00547",
      "pitch": "C#4",
      "midi": 61,
      "start": 128.333,
      "duration": 0.331,
      "velocity": 1
    },
    {
      "id": "n-00548",
      "pitch": "G#3",
      "midi": 56,
      "start": 128.667,
      "duration": 0.331,
      "velocity": 1
    },
    {
      "id": "n-00549",
      "pitch": "E4",
      "midi": 64,
      "start": 129,
      "duration": 0.331,
      "velocity": 1
    },
    {
      "id": "n-00550",
      "pitch": "C#4",
      "midi": 61,
      "start": 129.333,
      "duration": 0.331,
      "velocity": 1
    },
    {
      "id": "n-00551",
      "pitch": "G#4",
      "midi": 68,
      "start": 129.667,
      "duration": 0.331,
      "velocity": 1
    },
    {
      "id": "n-00552",
      "pitch": "E4",
      "midi": 64,
      "start": 130,
      "duration": 0.331,
      "velocity": 1
    },
    {
      "id": "n-00553",
      "pitch": "C#5",
      "midi": 73,
      "start": 130.333,
      "duration": 0.331,
      "velocity": 1
    },
    {
      "id": "n-00554",
      "pitch": "G#4",
      "midi": 68,
      "start": 130.667,
      "duration": 0.331,
      "velocity": 1
    },
    {
      "id": "n-00555",
      "pitch": "E5",
      "midi": 76,
      "start": 131,
      "duration": 0.331,
      "velocity": 1
    },
    {
      "id": "n-00556",
      "pitch": "C#5",
      "midi": 73,
      "start": 131.333,
      "duration": 0.331,
      "velocity": 1
    },
    {
      "id": "n-00557",
      "pitch": "G#4",
      "midi": 68,
      "start": 131.667,
      "duration": 0.331,
      "velocity": 1
    },
    {
      "id": "n-00558",
      "pitch": "G#1",
      "midi": 32,
      "start": 132,
      "duration": 4,
      "velocity": 1
    },
    {
      "id": "n-00559",
      "pitch": "G#2",
      "midi": 44,
      "start": 132,
      "duration": 4,
      "velocity": 1
    },
    {
      "id": "n-00560",
      "pitch": "C#4",
      "midi": 61,
      "start": 132,
      "duration": 0.331,
      "velocity": 1
    },
    {
      "id": "n-00561",
      "pitch": "G4",
      "midi": 67,
      "start": 132.333,
      "duration": 0.331,
      "velocity": 1
    },
    {
      "id": "n-00562",
      "pitch": "E4",
      "midi": 64,
      "start": 132.667,
      "duration": 0.331,
      "velocity": 1
    },
    {
      "id": "n-00563",
      "pitch": "A#4",
      "midi": 70,
      "start": 133,
      "duration": 0.331,
      "velocity": 1
    },
    {
      "id": "n-00564",
      "pitch": "G4",
      "midi": 67,
      "start": 133.333,
      "duration": 0.331,
      "velocity": 1
    },
    {
      "id": "n-00565",
      "pitch": "C#5",
      "midi": 73,
      "start": 133.667,
      "duration": 0.331,
      "velocity": 1
    },
    {
      "id": "n-00566",
      "pitch": "A#4",
      "midi": 70,
      "start": 134,
      "duration": 0.331,
      "velocity": 1
    },
    {
      "id": "n-00567",
      "pitch": "E5",
      "midi": 76,
      "start": 134.333,
      "duration": 0.331,
      "velocity": 1
    },
    {
      "id": "n-00568",
      "pitch": "C#5",
      "midi": 73,
      "start": 134.667,
      "duration": 0.331,
      "velocity": 1
    },
    {
      "id": "n-00569",
      "pitch": "G5",
      "midi": 79,
      "start": 135,
      "duration": 0.331,
      "velocity": 1
    },
    {
      "id": "n-00570",
      "pitch": "E5",
      "midi": 76,
      "start": 135.333,
      "duration": 0.331,
      "velocity": 1
    },
    {
      "id": "n-00571",
      "pitch": "A#5",
      "midi": 82,
      "start": 135.667,
      "duration": 0.331,
      "velocity": 1
    },
    {
      "id": "n-00572",
      "pitch": "G#1",
      "midi": 32,
      "start": 136,
      "duration": 12,
      "velocity": 1
    },
    {
      "id": "n-00573",
      "pitch": "G#2",
      "midi": 44,
      "start": 136,
      "duration": 12,
      "velocity": 1
    },
    {
      "id": "n-00574",
      "pitch": "F#4",
      "midi": 66,
      "start": 136,
      "duration": 0.331,
      "velocity": 1
    },
    {
      "id": "n-00575",
      "pitch": "C5",
      "midi": 72,
      "start": 136.333,
      "duration": 0.331,
      "velocity": 1
    },
    {
      "id": "n-00576",
      "pitch": "A4",
      "midi": 69,
      "start": 136.667,
      "duration": 0.331,
      "velocity": 1
    },
    {
      "id": "n-00577",
      "pitch": "D#5",
      "midi": 75,
      "start": 137,
      "duration": 0.331,
      "velocity": 1
    },
    {
      "id": "n-00578",
      "pitch": "C5",
      "midi": 72,
      "start": 137.333,
      "duration": 0.331,
      "velocity": 1
    },
    {
      "id": "n-00579",
      "pitch": "F#5",
      "midi": 78,
      "start": 137.667,
      "duration": 0.331,
      "velocity": 1
    },
    {
      "id": "n-00580",
      "pitch": "D#5",
      "midi": 75,
      "start": 138,
      "duration": 0.331,
      "velocity": 1
    },
    {
      "id": "n-00581",
      "pitch": "A5",
      "midi": 81,
      "start": 138.333,
      "duration": 0.331,
      "velocity": 1
    },
    {
      "id": "n-00582",
      "pitch": "F#5",
      "midi": 78,
      "start": 138.667,
      "duration": 0.331,
      "velocity": 1
    },
    {
      "id": "n-00583",
      "pitch": "C6",
      "midi": 84,
      "start": 139,
      "duration": 0.331,
      "velocity": 1
    },
    {
      "id": "n-00584",
      "pitch": "A5",
      "midi": 81,
      "start": 139.333,
      "duration": 0.331,
      "velocity": 1
    },
    {
      "id": "n-00585",
      "pitch": "D#6",
      "midi": 87,
      "start": 139.667,
      "duration": 0.331,
      "velocity": 1
    },
    {
      "id": "n-00586",
      "pitch": "C6",
      "midi": 84,
      "start": 140,
      "duration": 0.331,
      "velocity": 1
    },
    {
      "id": "n-00587",
      "pitch": "F#5",
      "midi": 78,
      "start": 140.333,
      "duration": 0.331,
      "velocity": 1
    },
    {
      "id": "n-00588",
      "pitch": "A5",
      "midi": 81,
      "start": 140.667,
      "duration": 0.331,
      "velocity": 1
    },
    {
      "id": "n-00589",
      "pitch": "D#5",
      "midi": 75,
      "start": 141,
      "duration": 0.331,
      "velocity": 1
    },
    {
      "id": "n-00590",
      "pitch": "F#5",
      "midi": 78,
      "start": 141.333,
      "duration": 0.331,
      "velocity": 1
    },
    {
      "id": "n-00591",
      "pitch": "C5",
      "midi": 72,
      "start": 141.667,
      "duration": 0.331,
      "velocity": 1
    },
    {
      "id": "n-00592",
      "pitch": "D#5",
      "midi": 75,
      "start": 142,
      "duration": 0.331,
      "velocity": 1
    },
    {
      "id": "n-00593",
      "pitch": "A4",
      "midi": 69,
      "start": 142.333,
      "duration": 0.331,
      "velocity": 1
    },
    {
      "id": "n-00594",
      "pitch": "C5",
      "midi": 72,
      "start": 142.667,
      "duration": 0.331,
      "velocity": 1
    },
    {
      "id": "n-00595",
      "pitch": "F#4",
      "midi": 66,
      "start": 143,
      "duration": 0.331,
      "velocity": 1
    },
    {
      "id": "n-00596",
      "pitch": "A4",
      "midi": 69,
      "start": 143.333,
      "duration": 0.331,
      "velocity": 1
    },
    {
      "id": "n-00597",
      "pitch": "D#4",
      "midi": 63,
      "start": 143.667,
      "duration": 0.331,
      "velocity": 1
    },
    {
      "id": "n-00598",
      "pitch": "F#4",
      "midi": 66,
      "start": 144,
      "duration": 0.331,
      "velocity": 1
    },
    {
      "id": "n-00599",
      "pitch": "C4",
      "midi": 60,
      "start": 144.333,
      "duration": 0.331,
      "velocity": 1
    },
    {
      "id": "n-00600",
      "pitch": "D#4",
      "midi": 63,
      "start": 144.667,
      "duration": 0.331,
      "velocity": 1
    },
    {
      "id": "n-00601",
      "pitch": "A3",
      "midi": 57,
      "start": 145,
      "duration": 0.331,
      "velocity": 1
    },
    {
      "id": "n-00602",
      "pitch": "C4",
      "midi": 60,
      "start": 145.333,
      "duration": 0.331,
      "velocity": 1
    },
    {
      "id": "n-00603",
      "pitch": "F#3",
      "midi": 54,
      "start": 145.667,
      "duration": 0.331,
      "velocity": 1
    },
    {
      "id": "n-00604",
      "pitch": "A3",
      "midi": 57,
      "start": 146,
      "duration": 0.331,
      "velocity": 1
    },
    {
      "id": "n-00605",
      "pitch": "D#3",
      "midi": 51,
      "start": 146.333,
      "duration": 0.664,
      "velocity": 1
    },
    {
      "id": "n-00606",
      "pitch": "F#3",
      "midi": 54,
      "start": 146.667,
      "duration": 0.331,
      "velocity": 1
    },
    {
      "id": "n-00607",
      "pitch": "C#3",
      "midi": 49,
      "start": 147,
      "duration": 1,
      "velocity": 1
    },
    {
      "id": "n-00608",
      "pitch": "F#3",
      "midi": 54,
      "start": 147.333,
      "duration": 0.331,
      "velocity": 1
    },
    {
      "id": "n-00609",
      "pitch": "A3",
      "midi": 57,
      "start": 147.667,
      "duration": 0.331,
      "velocity": 1
    },
    {
      "id": "n-00610",
      "pitch": "G#1",
      "midi": 32,
      "start": 148,
      "duration": 4,
      "velocity": 1
    },
    {
      "id": "n-00611",
      "pitch": "G#2",
      "midi": 44,
      "start": 148,
      "duration": 4,
      "velocity": 1
    },
    {
      "id": "n-00612",
      "pitch": "C3",
      "midi": 48,
      "start": 148,
      "duration": 2,
      "velocity": 1
    },
    {
      "id": "n-00613",
      "pitch": "F#3",
      "midi": 54,
      "start": 148.333,
      "duration": 0.331,
      "velocity": 1
    },
    {
      "id": "n-00614",
      "pitch": "G#3",
      "midi": 56,
      "start": 148.667,
      "duration": 0.331,
      "velocity": 1
    },
    {
      "id": "n-00615",
      "pitch": "A3",
      "midi": 57,
      "start": 149,
      "duration": 0.331,
      "velocity": 1
    },
    {
      "id": "n-00616",
      "pitch": "G#3",
      "midi": 56,
      "start": 149.333,
      "duration": 0.331,
      "velocity": 1
    },
    {
      "id": "n-00617",
      "pitch": "F#3",
      "midi": 54,
      "start": 149.667,
      "duration": 0.331,
      "velocity": 1
    },
    {
      "id": "n-00618",
      "pitch": "D#3",
      "midi": 51,
      "start": 150,
      "duration": 1,
      "velocity": 1
    },
    {
      "id": "n-00619",
      "pitch": "F#3",
      "midi": 54,
      "start": 150.333,
      "duration": 0.331,
      "velocity": 1
    },
    {
      "id": "n-00620",
      "pitch": "A3",
      "midi": 57,
      "start": 150.667,
      "duration": 0.331,
      "velocity": 1
    },
    {
      "id": "n-00621",
      "pitch": "C#3",
      "midi": 49,
      "start": 151,
      "duration": 1,
      "velocity": 1
    },
    {
      "id": "n-00622",
      "pitch": "F#3",
      "midi": 54,
      "start": 151.333,
      "duration": 0.331,
      "velocity": 1
    },
    {
      "id": "n-00623",
      "pitch": "A3",
      "midi": 57,
      "start": 151.667,
      "duration": 0.331,
      "velocity": 1
    },
    {
      "id": "n-00624",
      "pitch": "G#1",
      "midi": 32,
      "start": 152,
      "duration": 4,
      "velocity": 1
    },
    {
      "id": "n-00625",
      "pitch": "G#2",
      "midi": 44,
      "start": 152,
      "duration": 4,
      "velocity": 1
    },
    {
      "id": "n-00626",
      "pitch": "C3",
      "midi": 48,
      "start": 152,
      "duration": 2,
      "velocity": 1
    },
    {
      "id": "n-00627",
      "pitch": "F#3",
      "midi": 54,
      "start": 152.333,
      "duration": 0.331,
      "velocity": 1
    },
    {
      "id": "n-00628",
      "pitch": "G#3",
      "midi": 56,
      "start": 152.667,
      "duration": 0.331,
      "velocity": 1
    },
    {
      "id": "n-00629",
      "pitch": "A3",
      "midi": 57,
      "start": 153,
      "duration": 0.331,
      "velocity": 1
    },
    {
      "id": "n-00630",
      "pitch": "G#3",
      "midi": 56,
      "start": 153.333,
      "duration": 0.331,
      "velocity": 1
    },
    {
      "id": "n-00631",
      "pitch": "F#3",
      "midi": 54,
      "start": 153.667,
      "duration": 0.331,
      "velocity": 1
    },
    {
      "id": "n-00632",
      "pitch": "D3",
      "midi": 50,
      "start": 154,
      "duration": 1,
      "velocity": 1
    },
    {
      "id": "n-00633",
      "pitch": "F#3",
      "midi": 54,
      "start": 154.333,
      "duration": 0.331,
      "velocity": 1
    },
    {
      "id": "n-00634",
      "pitch": "A3",
      "midi": 57,
      "start": 154.667,
      "duration": 0.331,
      "velocity": 1
    },
    {
      "id": "n-00635",
      "pitch": "C#3",
      "midi": 49,
      "start": 155,
      "duration": 1,
      "velocity": 1
    },
    {
      "id": "n-00636",
      "pitch": "F#3",
      "midi": 54,
      "start": 155.333,
      "duration": 0.331,
      "velocity": 1
    },
    {
      "id": "n-00637",
      "pitch": "A3",
      "midi": 57,
      "start": 155.667,
      "duration": 0.331,
      "velocity": 1
    },
    {
      "id": "n-00638",
      "pitch": "G#1",
      "midi": 32,
      "start": 156,
      "duration": 2,
      "velocity": 1
    },
    {
      "id": "n-00639",
      "pitch": "G#2",
      "midi": 44,
      "start": 156,
      "duration": 2,
      "velocity": 1
    },
    {
      "id": "n-00640",
      "pitch": "C3",
      "midi": 48,
      "start": 156,
      "duration": 2,
      "velocity": 1
    },
    {
      "id": "n-00641",
      "pitch": "F#3",
      "midi": 54,
      "start": 156.333,
      "duration": 0.331,
      "velocity": 1
    },
    {
      "id": "n-00642",
      "pitch": "G#3",
      "midi": 56,
      "start": 156.667,
      "duration": 0.331,
      "velocity": 1
    },
    {
      "id": "n-00643",
      "pitch": "A3",
      "midi": 57,
      "start": 157,
      "duration": 0.331,
      "velocity": 1
    },
    {
      "id": "n-00644",
      "pitch": "G#3",
      "midi": 56,
      "start": 157.333,
      "duration": 0.331,
      "velocity": 1
    },
    {
      "id": "n-00645",
      "pitch": "F#3",
      "midi": 54,
      "start": 157.667,
      "duration": 0.331,
      "velocity": 1
    },
    {
      "id": "n-00646",
      "pitch": "A1",
      "midi": 33,
      "start": 158,
      "duration": 2,
      "velocity": 1
    },
    {
      "id": "n-00647",
      "pitch": "A2",
      "midi": 45,
      "start": 158,
      "duration": 2,
      "velocity": 1
    },
    {
      "id": "n-00648",
      "pitch": "C#3",
      "midi": 49,
      "start": 158,
      "duration": 0.331,
      "velocity": 1
    },
    {
      "id": "n-00649",
      "pitch": "E3",
      "midi": 52,
      "start": 158.333,
      "duration": 0.331,
      "velocity": 1
    },
    {
      "id": "n-00650",
      "pitch": "C#4",
      "midi": 61,
      "start": 158.667,
      "duration": 0.331,
      "velocity": 1
    },
    {
      "id": "n-00651",
      "pitch": "C#3",
      "midi": 49,
      "start": 159,
      "duration": 0.331,
      "velocity": 1
    },
    {
      "id": "n-00652",
      "pitch": "E3",
      "midi": 52,
      "start": 159.333,
      "duration": 0.331,
      "velocity": 1
    },
    {
      "id": "n-00653",
      "pitch": "C#4",
      "midi": 61,
      "start": 159.667,
      "duration": 0.331,
      "velocity": 1
    },
    {
      "id": "n-00654",
      "pitch": "F#1",
      "midi": 30,
      "start": 160,
      "duration": 2,
      "velocity": 1
    },
    {
      "id": "n-00655",
      "pitch": "F#2",
      "midi": 42,
      "start": 160,
      "duration": 2,
      "velocity": 1
    },
    {
      "id": "n-00656",
      "pitch": "D#3",
      "midi": 51,
      "start": 160,
      "duration": 0.331,
      "velocity": 1
    },
    {
      "id": "n-00657",
      "pitch": "A3",
      "midi": 57,
      "start": 160.333,
      "duration": 0.331,
      "velocity": 1
    },
    {
      "id": "n-00658",
      "pitch": "C#4",
      "midi": 61,
      "start": 160.667,
      "duration": 0.331,
      "velocity": 1
    },
    {
      "id": "n-00659",
      "pitch": "D#3",
      "midi": 51,
      "start": 161,
      "duration": 0.331,
      "velocity": 1
    },
    {
      "id": "n-00660",
      "pitch": "A3",
      "midi": 57,
      "start": 161.333,
      "duration": 0.331,
      "velocity": 1
    },
    {
      "id": "n-00661",
      "pitch": "C#4",
      "midi": 61,
      "start": 161.667,
      "duration": 0.331,
      "velocity": 1
    },
    {
      "id": "n-00662",
      "pitch": "G#1",
      "midi": 32,
      "start": 162,
      "duration": 2,
      "velocity": 1
    },
    {
      "id": "n-00663",
      "pitch": "G#2",
      "midi": 44,
      "start": 162,
      "duration": 2,
      "velocity": 1
    },
    {
      "id": "n-00664",
      "pitch": "D#3",
      "midi": 51,
      "start": 162,
      "duration": 0.331,
      "velocity": 1
    },
    {
      "id": "n-00665",
      "pitch": "G#3",
      "midi": 56,
      "start": 162.333,
      "duration": 0.331,
      "velocity": 1
    },
    {
      "id": "n-00666",
      "pitch": "C4",
      "midi": 60,
      "start": 162.667,
      "duration": 0.331,
      "velocity": 1
    },
    {
      "id": "n-00667",
      "pitch": "D#3",
      "midi": 51,
      "start": 163,
      "duration": 0.331,
      "velocity": 1
    },
    {
      "id": "n-00668",
      "pitch": "F#3",
      "midi": 54,
      "start": 163.333,
      "duration": 0.331,
      "velocity": 1
    },
    {
      "id": "n-00669",
      "pitch": "C4",
      "midi": 60,
      "start": 163.667,
      "duration": 0.331,
      "velocity": 1
    },
    {
      "id": "n-00670",
      "pitch": "C#2",
      "midi": 37,
      "start": 164,
      "duration": 4,
      "velocity": 1
    },
    {
      "id": "n-00671",
      "pitch": "G#2",
      "midi": 44,
      "start": 164,
      "duration": 4,
      "velocity": 1
    },
    {
      "id": "n-00672",
      "pitch": "C#3",
      "midi": 49,
      "start": 164,
      "duration": 4,
      "velocity": 1
    },
    {
      "id": "n-00673",
      "pitch": "E3",
      "midi": 52,
      "start": 164,
      "duration": 0.331,
      "velocity": 1
    },
    {
      "id": "n-00674",
      "pitch": "G#3",
      "midi": 56,
      "start": 164.333,
      "duration": 0.331,
      "velocity": 1
    },
    {
      "id": "n-00675",
      "pitch": "C#4",
      "midi": 61,
      "start": 164.667,
      "duration": 0.331,
      "velocity": 1
    },
    {
      "id": "n-00676",
      "pitch": "G#3",
      "midi": 56,
      "start": 165,
      "duration": 0.331,
      "velocity": 1
    },
    {
      "id": "n-00677",
      "pitch": "C#4",
      "midi": 61,
      "start": 165.333,
      "duration": 0.331,
      "velocity": 1
    },
    {
      "id": "n-00678",
      "pitch": "E4",
      "midi": 64,
      "start": 165.667,
      "duration": 0.331,
      "velocity": 1
    },
    {
      "id": "n-00679",
      "pitch": "G#3",
      "midi": 56,
      "start": 166,
      "duration": 0.331,
      "velocity": 1
    },
    {
      "id": "n-00680",
      "pitch": "C#4",
      "midi": 61,
      "start": 166.333,
      "duration": 0.331,
      "velocity": 1
    },
    {
      "id": "n-00681",
      "pitch": "E4",
      "midi": 64,
      "start": 166.667,
      "duration": 0.331,
      "velocity": 1
    },
    {
      "id": "n-00682",
      "pitch": "G#3",
      "midi": 56,
      "start": 167,
      "duration": 0.331,
      "velocity": 1
    },
    {
      "id": "n-00683",
      "pitch": "G#4",
      "midi": 68,
      "start": 167,
      "duration": 0.75,
      "velocity": 1
    },
    {
      "id": "n-00684",
      "pitch": "C#4",
      "midi": 61,
      "start": 167.333,
      "duration": 0.331,
      "velocity": 1
    },
    {
      "id": "n-00685",
      "pitch": "E4",
      "midi": 64,
      "start": 167.667,
      "duration": 0.331,
      "velocity": 1
    },
    {
      "id": "n-00686",
      "pitch": "G#4",
      "midi": 68,
      "start": 167.75,
      "duration": 0.25,
      "velocity": 1
    },
    {
      "id": "n-00687",
      "pitch": "C2",
      "midi": 36,
      "start": 168,
      "duration": 4,
      "velocity": 1
    },
    {
      "id": "n-00688",
      "pitch": "G#2",
      "midi": 44,
      "start": 168,
      "duration": 4,
      "velocity": 1
    },
    {
      "id": "n-00689",
      "pitch": "C3",
      "midi": 48,
      "start": 168,
      "duration": 4,
      "velocity": 1
    },
    {
      "id": "n-00690",
      "pitch": "G#3",
      "midi": 56,
      "start": 168,
      "duration": 0.331,
      "velocity": 1
    },
    {
      "id": "n-00691",
      "pitch": "G#4",
      "midi": 68,
      "start": 168,
      "duration": 3,
      "velocity": 1
    },
    {
      "id": "n-00692",
      "pitch": "D#4",
      "midi": 63,
      "start": 168.333,
      "duration": 0.331,
      "velocity": 1
    },
    {
      "id": "n-00693",
      "pitch": "F#4",
      "midi": 66,
      "start": 168.667,
      "duration": 0.331,
      "velocity": 1
    },
    {
      "id": "n-00694",
      "pitch": "G#3",
      "midi": 56,
      "start": 169,
      "duration": 0.331,
      "velocity": 1
    },
    {
      "id": "n-00695",
      "pitch": "D#4",
      "midi": 63,
      "start": 169.333,
      "duration": 0.331,
      "velocity": 1
    },
    {
      "id": "n-00696",
      "pitch": "F#4",
      "midi": 66,
      "start": 169.667,
      "duration": 0.331,
      "velocity": 1
    },
    {
      "id": "n-00697",
      "pitch": "G#3",
      "midi": 56,
      "start": 170,
      "duration": 0.331,
      "velocity": 1
    },
    {
      "id": "n-00698",
      "pitch": "D#4",
      "midi": 63,
      "start": 170.333,
      "duration": 0.331,
      "velocity": 1
    },
    {
      "id": "n-00699",
      "pitch": "F#4",
      "midi": 66,
      "start": 170.667,
      "duration": 0.331,
      "velocity": 1
    },
    {
      "id": "n-00700",
      "pitch": "G#3",
      "midi": 56,
      "start": 171,
      "duration": 0.331,
      "velocity": 1
    },
    {
      "id": "n-00701",
      "pitch": "G#4",
      "midi": 68,
      "start": 171,
      "duration": 0.75,
      "velocity": 1
    },
    {
      "id": "n-00702",
      "pitch": "D#4",
      "midi": 63,
      "start": 171.333,
      "duration": 0.331,
      "velocity": 1
    },
    {
      "id": "n-00703",
      "pitch": "F#4",
      "midi": 66,
      "start": 171.667,
      "duration": 0.331,
      "velocity": 1
    },
    {
      "id": "n-00704",
      "pitch": "G#4",
      "midi": 68,
      "start": 171.75,
      "duration": 0.25,
      "velocity": 1
    },
    {
      "id": "n-00705",
      "pitch": "C#2",
      "midi": 37,
      "start": 172,
      "duration": 2,
      "velocity": 1
    },
    {
      "id": "n-00706",
      "pitch": "C#3",
      "midi": 49,
      "start": 172,
      "duration": 2,
      "velocity": 1
    },
    {
      "id": "n-00707",
      "pitch": "G#3",
      "midi": 56,
      "start": 172,
      "duration": 0.331,
      "velocity": 1
    },
    {
      "id": "n-00708",
      "pitch": "G#4",
      "midi": 68,
      "start": 172,
      "duration": 2,
      "velocity": 1
    },
    {
      "id": "n-00709",
      "pitch": "C#4",
      "midi": 61,
      "start": 172.333,
      "duration": 0.331,
      "velocity": 1
    },
    {
      "id": "n-00710",
      "pitch": "E4",
      "midi": 64,
      "start": 172.667,
      "duration": 0.331,
      "velocity": 1
    },
    {
      "id": "n-00711",
      "pitch": "G#3",
      "midi": 56,
      "start": 173,
      "duration": 0.331,
      "velocity": 1
    },
    {
      "id": "n-00712",
      "pitch": "C#4",
      "midi": 61,
      "start": 173.333,
      "duration": 0.331,
      "velocity": 1
    },
    {
      "id": "n-00713",
      "pitch": "E4",
      "midi": 64,
      "start": 173.667,
      "duration": 0.331,
      "velocity": 1
    },
    {
      "id": "n-00714",
      "pitch": "F#1",
      "midi": 30,
      "start": 174,
      "duration": 2,
      "velocity": 1
    },
    {
      "id": "n-00715",
      "pitch": "F#2",
      "midi": 42,
      "start": 174,
      "duration": 2,
      "velocity": 1
    },
    {
      "id": "n-00716",
      "pitch": "A3",
      "midi": 57,
      "start": 174,
      "duration": 0.331,
      "velocity": 1
    },
    {
      "id": "n-00717",
      "pitch": "A4",
      "midi": 69,
      "start": 174,
      "duration": 2,
      "velocity": 1
    },
    {
      "id": "n-00718",
      "pitch": "C#4",
      "midi": 61,
      "start": 174.333,
      "duration": 0.331,
      "velocity": 1
    },
    {
      "id": "n-00719",
      "pitch": "F#4",
      "midi": 66,
      "start": 174.667,
      "duration": 0.331,
      "velocity": 1
    },
    {
      "id": "n-00720",
      "pitch": "A3",
      "midi": 57,
      "start": 175,
      "duration": 0.331,
      "velocity": 1
    },
    {
      "id": "n-00721",
      "pitch": "C#4",
      "midi": 61,
      "start": 175.333,
      "duration": 0.331,
      "velocity": 1
    },
    {
      "id": "n-00722",
      "pitch": "F#4",
      "midi": 66,
      "start": 175.667,
      "duration": 0.331,
      "velocity": 1
    },
    {
      "id": "n-00723",
      "pitch": "B1",
      "midi": 35,
      "start": 176,
      "duration": 2,
      "velocity": 1
    },
    {
      "id": "n-00724",
      "pitch": "B2",
      "midi": 47,
      "start": 176,
      "duration": 2,
      "velocity": 1
    },
    {
      "id": "n-00725",
      "pitch": "G#3",
      "midi": 56,
      "start": 176,
      "duration": 0.331,
      "velocity": 1
    },
    {
      "id": "n-00726",
      "pitch": "G#4",
      "midi": 68,
      "start": 176,
      "duration": 2,
      "velocity": 1
    },
    {
      "id": "n-00727",
      "pitch": "B3",
      "midi": 59,
      "start": 176.333,
      "duration": 0.331,
      "velocity": 1
    },
    {
      "id": "n-00728",
      "pitch": "E4",
      "midi": 64,
      "start": 176.667,
      "duration": 0.331,
      "velocity": 1
    },
    {
      "id": "n-00729",
      "pitch": "G#3",
      "midi": 56,
      "start": 177,
      "duration": 0.331,
      "velocity": 1
    },
    {
      "id": "n-00730",
      "pitch": "B3",
      "midi": 59,
      "start": 177.333,
      "duration": 0.331,
      "velocity": 1
    },
    {
      "id": "n-00731",
      "pitch": "E4",
      "midi": 64,
      "start": 177.667,
      "duration": 0.331,
      "velocity": 1
    },
    {
      "id": "n-00732",
      "pitch": "B1",
      "midi": 35,
      "start": 178,
      "duration": 2,
      "velocity": 1
    },
    {
      "id": "n-00733",
      "pitch": "B2",
      "midi": 47,
      "start": 178,
      "duration": 2,
      "velocity": 1
    },
    {
      "id": "n-00734",
      "pitch": "A3",
      "midi": 57,
      "start": 178,
      "duration": 0.331,
      "velocity": 1
    },
    {
      "id": "n-00735",
      "pitch": "F#4",
      "midi": 66,
      "start": 178,
      "duration": 1,
      "velocity": 1
    },
    {
      "id": "n-00736",
      "pitch": "B3",
      "midi": 59,
      "start": 178.333,
      "duration": 0.331,
      "velocity": 1
    },
    {
      "id": "n-00737",
      "pitch": "D#4",
      "midi": 63,
      "start": 178.667,
      "duration": 0.331,
      "velocity": 1
    },
    {
      "id": "n-00738",
      "pitch": "A3",
      "midi": 57,
      "start": 179,
      "duration": 0.331,
      "velocity": 1
    },
    {
      "id": "n-00739",
      "pitch": "B4",
      "midi": 71,
      "start": 179,
      "duration": 1,
      "velocity": 1
    },
    {
      "id": "n-00740",
      "pitch": "B3",
      "midi": 59,
      "start": 179.333,
      "duration": 0.331,
      "velocity": 1
    },
    {
      "id": "n-00741",
      "pitch": "D#4",
      "midi": 63,
      "start": 179.667,
      "duration": 0.331,
      "velocity": 1
    },
    {
      "id": "n-00742",
      "pitch": "E2",
      "midi": 40,
      "start": 180,
      "duration": 4,
      "velocity": 1
    },
    {
      "id": "n-00743",
      "pitch": "E3",
      "midi": 52,
      "start": 180,
      "duration": 4,
      "velocity": 1
    },
    {
      "id": "n-00744",
      "pitch": "G#3",
      "midi": 56,
      "start": 180,
      "duration": 0.331,
      "velocity": 1
    },
    {
      "id": "n-00745",
      "pitch": "E4",
      "midi": 64,
      "start": 180,
      "duration": 1,
      "velocity": 1
    },
    {
      "id": "n-00746",
      "pitch": "B3",
      "midi": 59,
      "start": 180.333,
      "duration": 0.331,
      "velocity": 1
    },
    {
      "id": "n-00747",
      "pitch": "B3",
      "midi": 59,
      "start": 181,
      "duration": 0.331,
      "velocity": 1
    },
    {
      "id": "n-00748",
      "pitch": "E4",
      "midi": 64,
      "start": 181.333,
      "duration": 0.331,
      "velocity": 1
    },
    {
      "id": "n-00749",
      "pitch": "G#4",
      "midi": 68,
      "start": 181.667,
      "duration": 0.331,
      "velocity": 1
    },
    {
      "id": "n-00750",
      "pitch": "B3",
      "midi": 59,
      "start": 182,
      "duration": 0.331,
      "velocity": 1
    },
    {
      "id": "n-00751",
      "pitch": "E4",
      "midi": 64,
      "start": 182.333,
      "duration": 0.331,
      "velocity": 1
    },
    {
      "id": "n-00752",
      "pitch": "G#4",
      "midi": 68,
      "start": 182.667,
      "duration": 0.331,
      "velocity": 1
    },
    {
      "id": "n-00753",
      "pitch": "B3",
      "midi": 59,
      "start": 183,
      "duration": 0.331,
      "velocity": 1
    },
    {
      "id": "n-00754",
      "pitch": "B4",
      "midi": 71,
      "start": 183,
      "duration": 0.75,
      "velocity": 1
    },
    {
      "id": "n-00755",
      "pitch": "E4",
      "midi": 64,
      "start": 183.333,
      "duration": 0.331,
      "velocity": 1
    },
    {
      "id": "n-00756",
      "pitch": "G#4",
      "midi": 68,
      "start": 183.667,
      "duration": 0.331,
      "velocity": 1
    },
    {
      "id": "n-00757",
      "pitch": "B4",
      "midi": 71,
      "start": 183.75,
      "duration": 0.25,
      "velocity": 1
    },
    {
      "id": "n-00758",
      "pitch": "D#2",
      "midi": 39,
      "start": 184,
      "duration": 4,
      "velocity": 1
    },
    {
      "id": "n-00759",
      "pitch": "D#3",
      "midi": 51,
      "start": 184,
      "duration": 4,
      "velocity": 1
    },
    {
      "id": "n-00760",
      "pitch": "B3",
      "midi": 59,
      "start": 184,
      "duration": 0.331,
      "velocity": 1
    },
    {
      "id": "n-00761",
      "pitch": "B4",
      "midi": 71,
      "start": 184,
      "duration": 3,
      "velocity": 1
    },
    {
      "id": "n-00762",
      "pitch": "F#4",
      "midi": 66,
      "start": 184.333,
      "duration": 0.331,
      "velocity": 1
    },
    {
      "id": "n-00763",
      "pitch": "A4",
      "midi": 69,
      "start": 184.667,
      "duration": 0.331,
      "velocity": 1
    },
    {
      "id": "n-00764",
      "pitch": "B3",
      "midi": 59,
      "start": 185,
      "duration": 0.331,
      "velocity": 1
    },
    {
      "id": "n-00765",
      "pitch": "F#4",
      "midi": 66,
      "start": 185.333,
      "duration": 0.331,
      "velocity": 1
    },
    {
      "id": "n-00766",
      "pitch": "A4",
      "midi": 69,
      "start": 185.667,
      "duration": 0.331,
      "velocity": 1
    },
    {
      "id": "n-00767",
      "pitch": "B3",
      "midi": 59,
      "start": 186,
      "duration": 0.331,
      "velocity": 1
    },
    {
      "id": "n-00768",
      "pitch": "F#4",
      "midi": 66,
      "start": 186.333,
      "duration": 0.331,
      "velocity": 1
    },
    {
      "id": "n-00769",
      "pitch": "A4",
      "midi": 69,
      "start": 186.667,
      "duration": 0.331,
      "velocity": 1
    },
    {
      "id": "n-00770",
      "pitch": "B3",
      "midi": 59,
      "start": 187,
      "duration": 0.331,
      "velocity": 1
    },
    {
      "id": "n-00771",
      "pitch": "B4",
      "midi": 71,
      "start": 187,
      "duration": 0.75,
      "velocity": 1
    },
    {
      "id": "n-00772",
      "pitch": "F#4",
      "midi": 66,
      "start": 187.333,
      "duration": 0.331,
      "velocity": 1
    },
    {
      "id": "n-00773",
      "pitch": "A4",
      "midi": 69,
      "start": 187.667,
      "duration": 0.331,
      "velocity": 1
    },
    {
      "id": "n-00774",
      "pitch": "B4",
      "midi": 71,
      "start": 187.75,
      "duration": 0.25,
      "velocity": 1
    },
    {
      "id": "n-00775",
      "pitch": "E2",
      "midi": 40,
      "start": 188,
      "duration": 2,
      "velocity": 1
    },
    {
      "id": "n-00776",
      "pitch": "E3",
      "midi": 52,
      "start": 188,
      "duration": 2,
      "velocity": 1
    },
    {
      "id": "n-00777",
      "pitch": "B3",
      "midi": 59,
      "start": 188,
      "duration": 0.331,
      "velocity": 1
    },
    {
      "id": "n-00778",
      "pitch": "B4",
      "midi": 71,
      "start": 188,
      "duration": 2,
      "velocity": 1
    },
    {
      "id": "n-00779",
      "pitch": "E4",
      "midi": 64,
      "start": 188.333,
      "duration": 0.331,
      "velocity": 1
    },
    {
      "id": "n-00780",
      "pitch": "G#4",
      "midi": 68,
      "start": 188.667,
      "duration": 0.331,
      "velocity": 1
    },
    {
      "id": "n-00781",
      "pitch": "B3",
      "midi": 59,
      "start": 189,
      "duration": 0.331,
      "velocity": 1
    },
    {
      "id": "n-00782",
      "pitch": "E4",
      "midi": 64,
      "start": 189.333,
      "duration": 0.331,
      "velocity": 1
    },
    {
      "id": "n-00783",
      "pitch": "G#4",
      "midi": 68,
      "start": 189.667,
      "duration": 0.331,
      "velocity": 1
    },
    {
      "id": "n-00784",
      "pitch": "D#2",
      "midi": 39,
      "start": 190,
      "duration": 1,
      "velocity": 1
    },
    {
      "id": "n-00785",
      "pitch": "D#3",
      "midi": 51,
      "start": 190,
      "duration": 1,
      "velocity": 1
    },
    {
      "id": "n-00786",
      "pitch": "C4",
      "midi": 60,
      "start": 190,
      "duration": 0.331,
      "velocity": 1
    },
    {
      "id": "n-00787",
      "pitch": "C5",
      "midi": 72,
      "start": 190,
      "duration": 1,
      "velocity": 1
    },
    {
      "id": "n-00788",
      "pitch": "F#4",
      "midi": 66,
      "start": 190.333,
      "duration": 0.331,
      "velocity": 1
    },
    {
      "id": "n-00789",
      "pitch": "G#4",
      "midi": 68,
      "start": 190.667,
      "duration": 0.331,
      "velocity": 1
    },
    {
      "id": "n-00790",
      "pitch": "C#2",
      "midi": 37,
      "start": 191,
      "duration": 1,
      "velocity": 1
    },
    {
      "id": "n-00791",
      "pitch": "C#3",
      "midi": 49,
      "start": 191,
      "duration": 1,
      "velocity": 1
    },
    {
      "id": "n-00792",
      "pitch": "C#4",
      "midi": 61,
      "start": 191,
      "duration": 0.331,
      "velocity": 1
    },
    {
      "id": "n-00793",
      "pitch": "C#5",
      "midi": 73,
      "start": 191,
      "duration": 1,
      "velocity": 1
    },
    {
      "id": "n-00794",
      "pitch": "E4",
      "midi": 64,
      "start": 191.333,
      "duration": 0.331,
      "velocity": 1
    },
    {
      "id": "n-00795",
      "pitch": "G#4",
      "midi": 68,
      "start": 191.667,
      "duration": 0.331,
      "velocity": 1
    },
    {
      "id": "n-00796",
      "pitch": "C2",
      "midi": 36,
      "start": 192,
      "duration": 2,
      "velocity": 1
    },
    {
      "id": "n-00797",
      "pitch": "G#2",
      "midi": 44,
      "start": 192,
      "duration": 2,
      "velocity": 1
    },
    {
      "id": "n-00798",
      "pitch": "C3",
      "midi": 48,
      "start": 192,
      "duration": 2,
      "velocity": 1
    },
    {
      "id": "n-00799",
      "pitch": "D#4",
      "midi": 63,
      "start": 192,
      "duration": 0.331,
      "velocity": 1
    },
    {
      "id": "n-00800",
      "pitch": "D#5",
      "midi": 75,
      "start": 192,
      "duration": 2,
      "velocity": 1
    },
    {
      "id": "n-00801",
      "pitch": "F#4",
      "midi": 66,
      "start": 192.333,
      "duration": 0.331,
      "velocity": 1
    },
    {
      "id": "n-00802",
      "pitch": "G#4",
      "midi": 68,
      "start": 192.667,
      "duration": 0.331,
      "velocity": 1
    },
    {
      "id": "n-00803",
      "pitch": "D#4",
      "midi": 63,
      "start": 193,
      "duration": 0.331,
      "velocity": 1
    },
    {
      "id": "n-00804",
      "pitch": "F#4",
      "midi": 66,
      "start": 193.333,
      "duration": 0.331,
      "velocity": 1
    },
    {
      "id": "n-00805",
      "pitch": "G#4",
      "midi": 68,
      "start": 193.667,
      "duration": 0.331,
      "velocity": 1
    },
    {
      "id": "n-00806",
      "pitch": "C#2",
      "midi": 37,
      "start": 194,
      "duration": 2,
      "velocity": 1
    },
    {
      "id": "n-00807",
      "pitch": "G#2",
      "midi": 44,
      "start": 194,
      "duration": 2,
      "velocity": 1
    },
    {
      "id": "n-00808",
      "pitch": "C#3",
      "midi": 49,
      "start": 194,
      "duration": 2,
      "velocity": 1
    },
    {
      "id": "n-00809",
      "pitch": "E4",
      "midi": 64,
      "start": 194,
      "duration": 0.331,
      "velocity": 1
    },
    {
      "id": "n-00810",
      "pitch": "E5",
      "midi": 76,
      "start": 194,
      "duration": 2,
      "velocity": 1
    },
    {
      "id": "n-00811",
      "pitch": "G#4",
      "midi": 68,
      "start": 194.333,
      "duration": 0.331,
      "velocity": 1
    },
    {
      "id": "n-00812",
      "pitch": "C#5",
      "midi": 73,
      "start": 194.667,
      "duration": 0.331,
      "velocity": 1
    },
    {
      "id": "n-00813",
      "pitch": "E4",
      "midi": 64,
      "start": 195,
      "duration": 0.331,
      "velocity": 1
    },
    {
      "id": "n-00814",
      "pitch": "G#4",
      "midi": 68,
      "start": 195.333,
      "duration": 0.331,
      "velocity": 1
    },
    {
      "id": "n-00815",
      "pitch": "C#5",
      "midi": 73,
      "start": 195.667,
      "duration": 0.331,
      "velocity": 1
    },
    {
      "id": "n-00816",
      "pitch": "F#1",
      "midi": 30,
      "start": 196,
      "duration": 2,
      "velocity": 1
    },
    {
      "id": "n-00817",
      "pitch": "F#2",
      "midi": 42,
      "start": 196,
      "duration": 2,
      "velocity": 1
    },
    {
      "id": "n-00818",
      "pitch": "D4",
      "midi": 62,
      "start": 196,
      "duration": 0.331,
      "velocity": 1
    },
    {
      "id": "n-00819",
      "pitch": "D5",
      "midi": 74,
      "start": 196,
      "duration": 2,
      "velocity": 1
    },
    {
      "id": "n-00820",
      "pitch": "F#4",
      "midi": 66,
      "start": 196.333,
      "duration": 0.331,
      "velocity": 1
    },
    {
      "id": "n-00821",
      "pitch": "A4",
      "midi": 69,
      "start": 196.667,
      "duration": 0.331,
      "velocity": 1
    },
    {
      "id": "n-00822",
      "pitch": "D4",
      "midi": 62,
      "start": 197,
      "duration": 0.331,
      "velocity": 1
    },
    {
      "id": "n-00823",
      "pitch": "F#4",
      "midi": 66,
      "start": 197.333,
      "duration": 0.331,
      "velocity": 1
    },
    {
      "id": "n-00824",
      "pitch": "A4",
      "midi": 69,
      "start": 197.667,
      "duration": 0.331,
      "velocity": 1
    },
    {
      "id": "n-00825",
      "pitch": "G#1",
      "midi": 32,
      "start": 198,
      "duration": 2,
      "velocity": 1
    },
    {
      "id": "n-00826",
      "pitch": "G#2",
      "midi": 44,
      "start": 198,
      "duration": 2,
      "velocity": 1
    },
    {
      "id": "n-00827",
      "pitch": "C4",
      "midi": 60,
      "start": 198,
      "duration": 0.331,
      "velocity": 1
    },
    {
      "id": "n-00828",
      "pitch": "C5",
      "midi": 72,
      "start": 198,
      "duration": 2,
      "velocity": 1
    },
    {
      "id": "n-00829",
      "pitch": "F#4",
      "midi": 66,
      "start": 198.333,
      "duration": 0.331,
      "velocity": 1
    },
    {
      "id": "n-00830",
      "pitch": "G#4",
      "midi": 68,
      "start": 198.667,
      "duration": 0.331,
      "velocity": 1
    },
    {
      "id": "n-00831",
      "pitch": "C4",
      "midi": 60,
      "start": 199,
      "duration": 0.331,
      "velocity": 1
    },
    {
      "id": "n-00832",
      "pitch": "F#4",
      "midi": 66,
      "start": 199.333,
      "duration": 0.331,
      "velocity": 1
    },
    {
      "id": "n-00833",
      "pitch": "G#4",
      "midi": 68,
      "start": 199.667,
      "duration": 0.331,
      "velocity": 1
    },
    {
      "id": "n-00834",
      "pitch": "C#2",
      "midi": 37,
      "start": 200,
      "duration": 5,
      "velocity": 1
    },
    {
      "id": "n-00835",
      "pitch": "C#3",
      "midi": 49,
      "start": 200,
      "duration": 5,
      "velocity": 1
    },
    {
      "id": "n-00836",
      "pitch": "C#4",
      "midi": 61,
      "start": 200,
      "duration": 0.331,
      "velocity": 1
    },
    {
      "id": "n-00837",
      "pitch": "C#5",
      "midi": 73,
      "start": 200,
      "duration": 3,
      "velocity": 1
    },
    {
      "id": "n-00838",
      "pitch": "E4",
      "midi": 64,
      "start": 200.333,
      "duration": 0.331,
      "velocity": 1
    },
    {
      "id": "n-00839",
      "pitch": "G#4",
      "midi": 68,
      "start": 200.667,
      "duration": 0.331,
      "velocity": 1
    },
    {
      "id": "n-00840",
      "pitch": "C#4",
      "midi": 61,
      "start": 201,
      "duration": 0.331,
      "velocity": 1
    },
    {
      "id": "n-00841",
      "pitch": "E4",
      "midi": 64,
      "start": 201.333,
      "duration": 0.331,
      "velocity": 1
    },
    {
      "id": "n-00842",
      "pitch": "G#4",
      "midi": 68,
      "start": 201.667,
      "duration": 0.331,
      "velocity": 1
    },
    {
      "id": "n-00843",
      "pitch": "C#4",
      "midi": 61,
      "start": 202,
      "duration": 0.331,
      "velocity": 1
    },
    {
      "id": "n-00844",
      "pitch": "F4",
      "midi": 65,
      "start": 202.333,
      "duration": 0.331,
      "velocity": 1
    },
    {
      "id": "n-00845",
      "pitch": "G#4",
      "midi": 68,
      "start": 202.667,
      "duration": 0.331,
      "velocity": 1
    },
    {
      "id": "n-00846",
      "pitch": "C#4",
      "midi": 61,
      "start": 203,
      "duration": 0.331,
      "velocity": 1
    },
    {
      "id": "n-00847",
      "pitch": "C#5",
      "midi": 73,
      "start": 203,
      "duration": 1,
      "velocity": 1
    },
    {
      "id": "n-00848",
      "pitch": "F4",
      "midi": 65,
      "start": 203.333,
      "duration": 0.331,
      "velocity": 1
    },
    {
      "id": "n-00849",
      "pitch": "G#4",
      "midi": 68,
      "start": 203.667,
      "duration": 0.331,
      "velocity": 1
    },
    {
      "id": "n-00850",
      "pitch": "C#4",
      "midi": 61,
      "start": 204,
      "duration": 0.331,
      "velocity": 1
    },
    {
      "id": "n-00851",
      "pitch": "D5",
      "midi": 74,
      "start": 204,
      "duration": 3,
      "velocity": 1
    },
    {
      "id": "n-00852",
      "pitch": "F#4",
      "midi": 66,
      "start": 204.333,
      "duration": 0.331,
      "velocity": 1
    },
    {
      "id": "n-00853",
      "pitch": "A4",
      "midi": 69,
      "start": 204.667,
      "duration": 0.331,
      "velocity": 1
    },
    {
      "id": "n-00854",
      "pitch": "F#2",
      "midi": 42,
      "start": 205,
      "duration": 1,
      "velocity": 1
    },
    {
      "id": "n-00855",
      "pitch": "F#3",
      "midi": 54,
      "start": 205,
      "duration": 1,
      "velocity": 1
    },
    {
      "id": "n-00856",
      "pitch": "C#4",
      "midi": 61,
      "start": 205,
      "duration": 0.331,
      "velocity": 1
    },
    {
      "id": "n-00857",
      "pitch": "F#4",
      "midi": 66,
      "start": 205.333,
      "duration": 0.331,
      "velocity": 1
    },
    {
      "id": "n-00858",
      "pitch": "A4",
      "midi": 69,
      "start": 205.667,
      "duration": 0.331,
      "velocity": 1
    },
    {
      "id": "n-00859",
      "pitch": "A2",
      "midi": 45,
      "start": 206,
      "duration": 1,
      "velocity": 1
    },
    {
      "id": "n-00860",
      "pitch": "A3",
      "midi": 57,
      "start": 206,
      "duration": 1,
      "velocity": 1
    },
    {
      "id": "n-00861",
      "pitch": "C#4",
      "midi": 61,
      "start": 206,
      "duration": 0.331,
      "velocity": 1
    },
    {
      "id": "n-00862",
      "pitch": "F#4",
      "midi": 66,
      "start": 206.333,
      "duration": 0.331,
      "velocity": 1
    },
    {
      "id": "n-00863",
      "pitch": "A4",
      "midi": 69,
      "start": 206.667,
      "duration": 0.331,
      "velocity": 1
    },
    {
      "id": "n-00864",
      "pitch": "F#2",
      "midi": 42,
      "start": 207,
      "duration": 1,
      "velocity": 1
    },
    {
      "id": "n-00865",
      "pitch": "F#3",
      "midi": 54,
      "start": 207,
      "duration": 1,
      "velocity": 1
    },
    {
      "id": "n-00866",
      "pitch": "C#4",
      "midi": 61,
      "start": 207,
      "duration": 0.331,
      "velocity": 1
    },
    {
      "id": "n-00867",
      "pitch": "C5",
      "midi": 72,
      "start": 207,
      "duration": 1,
      "velocity": 1
    },
    {
      "id": "n-00868",
      "pitch": "F#4",
      "midi": 66,
      "start": 207.333,
      "duration": 0.331,
      "velocity": 1
    },
    {
      "id": "n-00869",
      "pitch": "A4",
      "midi": 69,
      "start": 207.667,
      "duration": 0.331,
      "velocity": 1
    },
    {
      "id": "n-00870",
      "pitch": "C#2",
      "midi": 37,
      "start": 208,
      "duration": 5,
      "velocity": 1
    },
    {
      "id": "n-00871",
      "pitch": "C#3",
      "midi": 49,
      "start": 208,
      "duration": 5,
      "velocity": 1
    },
    {
      "id": "n-00872",
      "pitch": "C#4",
      "midi": 61,
      "start": 208,
      "duration": 0.331,
      "velocity": 1
    },
    {
      "id": "n-00873",
      "pitch": "C#5",
      "midi": 73,
      "start": 208,
      "duration": 3,
      "velocity": 1
    },
    {
      "id": "n-00874",
      "pitch": "F4",
      "midi": 65,
      "start": 208.333,
      "duration": 0.331,
      "velocity": 1
    },
    {
      "id": "n-00875",
      "pitch": "G#4",
      "midi": 68,
      "start": 208.667,
      "duration": 0.331,
      "velocity": 1
    },
    {
      "id": "n-00876",
      "pitch": "C#4",
      "midi": 61,
      "start": 209,
      "duration": 0.331,
      "velocity": 1
    },
    {
      "id": "n-00877",
      "pitch": "F4",
      "midi": 65,
      "start": 209.333,
      "duration": 0.331,
      "velocity": 1
    },
    {
      "id": "n-00878",
      "pitch": "G#4",
      "midi": 68,
      "start": 209.667,
      "duration": 0.331,
      "velocity": 1
    },
    {
      "id": "n-00879",
      "pitch": "C#4",
      "midi": 61,
      "start": 210,
      "duration": 0.331,
      "velocity": 1
    },
    {
      "id": "n-00880",
      "pitch": "F4",
      "midi": 65,
      "start": 210.333,
      "duration": 0.331,
      "velocity": 1
    },
    {
      "id": "n-00881",
      "pitch": "G#4",
      "midi": 68,
      "start": 210.667,
      "duration": 0.331,
      "velocity": 1
    },
    {
      "id": "n-00882",
      "pitch": "C#4",
      "midi": 61,
      "start": 211,
      "duration": 0.331,
      "velocity": 1
    },
    {
      "id": "n-00883",
      "pitch": "C#5",
      "midi": 73,
      "start": 211,
      "duration": 1,
      "velocity": 1
    },
    {
      "id": "n-00884",
      "pitch": "F4",
      "midi": 65,
      "start": 211.333,
      "duration": 0.331,
      "velocity": 1
    },
    {
      "id": "n-00885",
      "pitch": "G#4",
      "midi": 68,
      "start": 211.667,
      "duration": 0.331,
      "velocity": 1
    },
    {
      "id": "n-00886",
      "pitch": "C#4",
      "midi": 61,
      "start": 212,
      "duration": 0.331,
      "velocity": 1
    },
    {
      "id": "n-00887",
      "pitch": "D5",
      "midi": 74,
      "start": 212,
      "duration": 3,
      "velocity": 1
    },
    {
      "id": "n-00888",
      "pitch": "F#4",
      "midi": 66,
      "start": 212.333,
      "duration": 0.331,
      "velocity": 1
    },
    {
      "id": "n-00889",
      "pitch": "A4",
      "midi": 69,
      "start": 212.667,
      "duration": 0.331,
      "velocity": 1
    },
    {
      "id": "n-00890",
      "pitch": "F#2",
      "midi": 42,
      "start": 213,
      "duration": 1,
      "velocity": 1
    },
    {
      "id": "n-00891",
      "pitch": "F#3",
      "midi": 54,
      "start": 213,
      "duration": 1,
      "velocity": 1
    },
    {
      "id": "n-00892",
      "pitch": "C#4",
      "midi": 61,
      "start": 213,
      "duration": 0.331,
      "velocity": 1
    },
    {
      "id": "n-00893",
      "pitch": "F#4",
      "midi": 66,
      "start": 213.333,
      "duration": 0.331,
      "velocity": 1
    },
    {
      "id": "n-00894",
      "pitch": "A4",
      "midi": 69,
      "start": 213.667,
      "duration": 0.331,
      "velocity": 1
    },
    {
      "id": "n-00895",
      "pitch": "A2",
      "midi": 45,
      "start": 214,
      "duration": 1,
      "velocity": 1
    },
    {
      "id": "n-00896",
      "pitch": "A3",
      "midi": 57,
      "start": 214,
      "duration": 1,
      "velocity": 1
    },
    {
      "id": "n-00897",
      "pitch": "C#4",
      "midi": 61,
      "start": 214,
      "duration": 0.331,
      "velocity": 1
    },
    {
      "id": "n-00898",
      "pitch": "F#4",
      "midi": 66,
      "start": 214.333,
      "duration": 0.331,
      "velocity": 1
    },
    {
      "id": "n-00899",
      "pitch": "A4",
      "midi": 69,
      "start": 214.667,
      "duration": 0.331,
      "velocity": 1
    },
    {
      "id": "n-00900",
      "pitch": "F#2",
      "midi": 42,
      "start": 215,
      "duration": 1,
      "velocity": 1
    },
    {
      "id": "n-00901",
      "pitch": "F#3",
      "midi": 54,
      "start": 215,
      "duration": 1,
      "velocity": 1
    },
    {
      "id": "n-00902",
      "pitch": "C#4",
      "midi": 61,
      "start": 215,
      "duration": 0.331,
      "velocity": 1
    },
    {
      "id": "n-00903",
      "pitch": "C5",
      "midi": 72,
      "start": 215,
      "duration": 1,
      "velocity": 1
    },
    {
      "id": "n-00904",
      "pitch": "F#4",
      "midi": 66,
      "start": 215.333,
      "duration": 0.331,
      "velocity": 1
    },
    {
      "id": "n-00905",
      "pitch": "A4",
      "midi": 69,
      "start": 215.667,
      "duration": 0.331,
      "velocity": 1
    },
    {
      "id": "n-00906",
      "pitch": "C#2",
      "midi": 37,
      "start": 216,
      "duration": 2,
      "velocity": 1
    },
    {
      "id": "n-00907",
      "pitch": "C#3",
      "midi": 49,
      "start": 216,
      "duration": 2,
      "velocity": 1
    },
    {
      "id": "n-00908",
      "pitch": "C#4",
      "midi": 61,
      "start": 216,
      "duration": 0.331,
      "velocity": 1
    },
    {
      "id": "n-00909",
      "pitch": "C#5",
      "midi": 73,
      "start": 216,
      "duration": 2,
      "velocity": 1
    },
    {
      "id": "n-00910",
      "pitch": "F4",
      "midi": 65,
      "start": 216.333,
      "duration": 0.331,
      "velocity": 1
    },
    {
      "id": "n-00911",
      "pitch": "G#4",
      "midi": 68,
      "start": 216.667,
      "duration": 0.331,
      "velocity": 1
    },
    {
      "id": "n-00912",
      "pitch": "C#4",
      "midi": 61,
      "start": 217,
      "duration": 0.331,
      "velocity": 1
    },
    {
      "id": "n-00913",
      "pitch": "F4",
      "midi": 65,
      "start": 217.333,
      "duration": 0.331,
      "velocity": 1
    },
    {
      "id": "n-00914",
      "pitch": "G#4",
      "midi": 68,
      "start": 217.667,
      "duration": 0.331,
      "velocity": 1
    },
    {
      "id": "n-00915",
      "pitch": "F#1",
      "midi": 30,
      "start": 218,
      "duration": 2,
      "velocity": 1
    },
    {
      "id": "n-00916",
      "pitch": "F#2",
      "midi": 42,
      "start": 218,
      "duration": 2,
      "velocity": 1
    },
    {
      "id": "n-00917",
      "pitch": "C#4",
      "midi": 61,
      "start": 218,
      "duration": 0.331,
      "velocity": 1
    },
    {
      "id": "n-00918",
      "pitch": "C#5",
      "midi": 73,
      "start": 218,
      "duration": 2,
      "velocity": 1
    },
    {
      "id": "n-00919",
      "pitch": "F#4",
      "midi": 66,
      "start": 218.333,
      "duration": 0.331,
      "velocity": 1
    },
    {
      "id": "n-00920",
      "pitch": "A4",
      "midi": 69,
      "start": 218.667,
      "duration": 0.331,
      "velocity": 1
    },
    {
      "id": "n-00921",
      "pitch": "C#4",
      "midi": 61,
      "start": 219,
      "duration": 0.331,
      "velocity": 1
    },
    {
      "id": "n-00922",
      "pitch": "F#4",
      "midi": 66,
      "start": 219.333,
      "duration": 0.331,
      "velocity": 1
    },
    {
      "id": "n-00923",
      "pitch": "A4",
      "midi": 69,
      "start": 219.667,
      "duration": 0.331,
      "velocity": 1
    },
    {
      "id": "n-00924",
      "pitch": "D#2",
      "midi": 39,
      "start": 220,
      "duration": 3,
      "velocity": 1
    },
    {
      "id": "n-00925",
      "pitch": "D#3",
      "midi": 51,
      "start": 220,
      "duration": 3,
      "velocity": 1
    },
    {
      "id": "n-00926",
      "pitch": "B3",
      "midi": 59,
      "start": 220,
      "duration": 0.331,
      "velocity": 1
    },
    {
      "id": "n-00927",
      "pitch": "B4",
      "midi": 71,
      "start": 220,
      "duration": 3,
      "velocity": 1
    },
    {
      "id": "n-00928",
      "pitch": "F#4",
      "midi": 66,
      "start": 220.333,
      "duration": 0.331,
      "velocity": 1
    },
    {
      "id": "n-00929",
      "pitch": "A4",
      "midi": 69,
      "start": 220.667,
      "duration": 0.331,
      "velocity": 1
    },
    {
      "id": "n-00930",
      "pitch": "B3",
      "midi": 59,
      "start": 221,
      "duration": 0.331,
      "velocity": 1
    },
    {
      "id": "n-00931",
      "pitch": "F#4",
      "midi": 66,
      "start": 221.333,
      "duration": 0.331,
      "velocity": 1
    },
    {
      "id": "n-00932",
      "pitch": "A4",
      "midi": 69,
      "start": 221.667,
      "duration": 0.331,
      "velocity": 1
    },
    {
      "id": "n-00933",
      "pitch": "B3",
      "midi": 59,
      "start": 222,
      "duration": 0.331,
      "velocity": 1
    },
    {
      "id": "n-00934",
      "pitch": "F#4",
      "midi": 66,
      "start": 222.333,
      "duration": 0.331,
      "velocity": 1
    },
    {
      "id": "n-00935",
      "pitch": "A4",
      "midi": 69,
      "start": 222.667,
      "duration": 0.331,
      "velocity": 1
    },
    {
      "id": "n-00936",
      "pitch": "E2",
      "midi": 40,
      "start": 223,
      "duration": 1,
      "velocity": 1
    },
    {
      "id": "n-00937",
      "pitch": "E3",
      "midi": 52,
      "start": 223,
      "duration": 1,
      "velocity": 1
    },
    {
      "id": "n-00938",
      "pitch": "B3",
      "midi": 59,
      "start": 223,
      "duration": 0.331,
      "velocity": 1
    },
    {
      "id": "n-00939",
      "pitch": "B4",
      "midi": 71,
      "start": 223,
      "duration": 1,
      "velocity": 1
    },
    {
      "id": "n-00940",
      "pitch": "E4",
      "midi": 64,
      "start": 223.333,
      "duration": 0.331,
      "velocity": 1
    },
    {
      "id": "n-00941",
      "pitch": "G#4",
      "midi": 68,
      "start": 223.667,
      "duration": 0.331,
      "velocity": 1
    },
    {
      "id": "n-00942",
      "pitch": "C#2",
      "midi": 37,
      "start": 224,
      "duration": 1,
      "velocity": 1
    },
    {
      "id": "n-00943",
      "pitch": "C#3",
      "midi": 49,
      "start": 224,
      "duration": 1,
      "velocity": 1
    },
    {
      "id": "n-00944",
      "pitch": "A3",
      "midi": 57,
      "start": 224,
      "duration": 0.331,
      "velocity": 1
    },
    {
      "id": "n-00945",
      "pitch": "A4",
      "midi": 69,
      "start": 224,
      "duration": 1,
      "velocity": 1
    },
    {
      "id": "n-00946",
      "pitch": "E4",
      "midi": 64,
      "start": 224.333,
      "duration": 0.331,
      "velocity": 1
    },
    {
      "id": "n-00947",
      "pitch": "G#4",
      "midi": 68,
      "start": 224.667,
      "duration": 0.331,
      "velocity": 1
    },
    {
      "id": "n-00948",
      "pitch": "D#2",
      "midi": 39,
      "start": 225,
      "duration": 1,
      "velocity": 1
    },
    {
      "id": "n-00949",
      "pitch": "D#3",
      "midi": 51,
      "start": 225,
      "duration": 1,
      "velocity": 1
    },
    {
      "id": "n-00950",
      "pitch": "A3",
      "midi": 57,
      "start": 225,
      "duration": 0.331,
      "velocity": 1
    },
    {
      "id": "n-00951",
      "pitch": "A4",
      "midi": 69,
      "start": 225,
      "duration": 1,
      "velocity": 1
    },
    {
      "id": "n-00952",
      "pitch": "D#4",
      "midi": 63,
      "start": 225.333,
      "duration": 0.331,
      "velocity": 1
    },
    {
      "id": "n-00953",
      "pitch": "F#4",
      "midi": 66,
      "start": 225.667,
      "duration": 0.331,
      "velocity": 1
    },
    {
      "id": "n-00954",
      "pitch": "C2",
      "midi": 36,
      "start": 226,
      "duration": 1,
      "velocity": 1
    },
    {
      "id": "n-00955",
      "pitch": "C3",
      "midi": 48,
      "start": 226,
      "duration": 1,
      "velocity": 1
    },
    {
      "id": "n-00956",
      "pitch": "G#3",
      "midi": 56,
      "start": 226,
      "duration": 0.331,
      "velocity": 1
    },
    {
      "id": "n-00957",
      "pitch": "G#4",
      "midi": 68,
      "start": 226,
      "duration": 1,
      "velocity": 1
    },
    {
      "id": "n-00958",
      "pitch": "D#4",
      "midi": 63,
      "start": 226.333,
      "duration": 0.331,
      "velocity": 1
    },
    {
      "id": "n-00959",
      "pitch": "F#4",
      "midi": 66,
      "start": 226.667,
      "duration": 0.331,
      "velocity": 1
    },
    {
      "id": "n-00960",
      "pitch": "C#2",
      "midi": 37,
      "start": 227,
      "duration": 1,
      "velocity": 1
    },
    {
      "id": "n-00961",
      "pitch": "C#3",
      "midi": 49,
      "start": 227,
      "duration": 1,
      "velocity": 1
    },
    {
      "id": "n-00962",
      "pitch": "G#3",
      "midi": 56,
      "start": 227,
      "duration": 0.331,
      "velocity": 1
    },
    {
      "id": "n-00963",
      "pitch": "G#4",
      "midi": 68,
      "start": 227,
      "duration": 1,
      "velocity": 1
    },
    {
      "id": "n-00964",
      "pitch": "C#4",
      "midi": 61,
      "start": 227.333,
      "duration": 0.331,
      "velocity": 1
    },
    {
      "id": "n-00965",
      "pitch": "E4",
      "midi": 64,
      "start": 227.667,
      "duration": 0.331,
      "velocity": 1
    },
    {
      "id": "n-00966",
      "pitch": "A1",
      "midi": 33,
      "start": 228,
      "duration": 2,
      "velocity": 1
    },
    {
      "id": "n-00967",
      "pitch": "A2",
      "midi": 45,
      "start": 228,
      "duration": 2,
      "velocity": 1
    },
    {
      "id": "n-00968",
      "pitch": "F#3",
      "midi": 54,
      "start": 228,
      "duration": 0.331,
      "velocity": 1
    },
    {
      "id": "n-00969",
      "pitch": "F#4",
      "midi": 66,
      "start": 228,
      "duration": 2,
      "velocity": 1
    },
    {
      "id": "n-00970",
      "pitch": "C#4",
      "midi": 61,
      "start": 228.333,
      "duration": 0.331,
      "velocity": 1
    },
    {
      "id": "n-00971",
      "pitch": "D#4",
      "midi": 63,
      "start": 228.667,
      "duration": 0.331,
      "velocity": 1
    },
    {
      "id": "n-00972",
      "pitch": "F#3",
      "midi": 54,
      "start": 229,
      "duration": 0.331,
      "velocity": 1
    },
    {
      "id": "n-00973",
      "pitch": "C#4",
      "midi": 61,
      "start": 229.333,
      "duration": 0.331,
      "velocity": 1
    },
    {
      "id": "n-00974",
      "pitch": "D#4",
      "midi": 63,
      "start": 229.667,
      "duration": 0.331,
      "velocity": 1
    },
    {
      "id": "n-00975",
      "pitch": "G#1",
      "midi": 32,
      "start": 230,
      "duration": 1,
      "velocity": 1
    },
    {
      "id": "n-00976",
      "pitch": "G#2",
      "midi": 44,
      "start": 230,
      "duration": 1,
      "velocity": 1
    },
    {
      "id": "n-00977",
      "pitch": "G#3",
      "midi": 56,
      "start": 230,
      "duration": 0.331,
      "velocity": 1
    },
    {
      "id": "n-00978",
      "pitch": "G#4",
      "midi": 68,
      "start": 230,
      "duration": 1,
      "velocity": 1
    },
    {
      "id": "n-00979",
      "pitch": "C#4",
      "midi": 61,
      "start": 230.333,
      "duration": 0.331,
      "velocity": 1
    },
    {
      "id": "n-00980",
      "pitch": "D#4",
      "midi": 63,
      "start": 230.667,
      "duration": 0.331,
      "velocity": 1
    },
    {
      "id": "n-00981",
      "pitch": "F#1",
      "midi": 30,
      "start": 231,
      "duration": 1,
      "velocity": 1
    },
    {
      "id": "n-00982",
      "pitch": "F#2",
      "midi": 42,
      "start": 231,
      "duration": 1,
      "velocity": 1
    },
    {
      "id": "n-00983",
      "pitch": "A3",
      "midi": 57,
      "start": 231,
      "duration": 0.331,
      "velocity": 1
    },
    {
      "id": "n-00984",
      "pitch": "A4",
      "midi": 69,
      "start": 231,
      "duration": 1,
      "velocity": 1
    },
    {
      "id": "n-00985",
      "pitch": "C#4",
      "midi": 61,
      "start": 231.333,
      "duration": 0.331,
      "velocity": 1
    },
    {
      "id": "n-00986",
      "pitch": "D#4",
      "midi": 63,
      "start": 231.667,
      "duration": 0.331,
      "velocity": 1
    },
    {
      "id": "n-00987",
      "pitch": "G#1",
      "midi": 32,
      "start": 232,
      "duration": 2,
      "velocity": 1
    },
    {
      "id": "n-00988",
      "pitch": "G#2",
      "midi": 44,
      "start": 232,
      "duration": 2,
      "velocity": 1
    },
    {
      "id": "n-00989",
      "pitch": "G#3",
      "midi": 56,
      "start": 232,
      "duration": 0.331,
      "velocity": 1
    },
    {
      "id": "n-00990",
      "pitch": "G#4",
      "midi": 68,
      "start": 232,
      "duration": 2,
      "velocity": 1
    },
    {
      "id": "n-00991",
      "pitch": "C#4",
      "midi": 61,
      "start": 232.333,
      "duration": 0.331,
      "velocity": 1
    },
    {
      "id": "n-00992",
      "pitch": "E4",
      "midi": 64,
      "start": 232.667,
      "duration": 0.331,
      "velocity": 1
    },
    {
      "id": "n-00993",
      "pitch": "G#3",
      "midi": 56,
      "start": 233,
      "duration": 0.331,
      "velocity": 1
    },
    {
      "id": "n-00994",
      "pitch": "C#4",
      "midi": 61,
      "start": 233.333,
      "duration": 0.331,
      "velocity": 1
    },
    {
      "id": "n-00995",
      "pitch": "E4",
      "midi": 64,
      "start": 233.667,
      "duration": 0.331,
      "velocity": 1
    },
    {
      "id": "n-00996",
      "pitch": "G#1",
      "midi": 32,
      "start": 234,
      "duration": 2,
      "velocity": 1
    },
    {
      "id": "n-00997",
      "pitch": "G#2",
      "midi": 44,
      "start": 234,
      "duration": 2,
      "velocity": 1
    },
    {
      "id": "n-00998",
      "pitch": "F#3",
      "midi": 54,
      "start": 234,
      "duration": 0.331,
      "velocity": 1
    },
    {
      "id": "n-00999",
      "pitch": "G#4",
      "midi": 68,
      "start": 234,
      "duration": 2,
      "velocity": 1
    },
    {
      "id": "n-01000",
      "pitch": "C4",
      "midi": 60,
      "start": 234.333,
      "duration": 0.331,
      "velocity": 1
    },
    {
      "id": "n-01001",
      "pitch": "D#4",
      "midi": 63,
      "start": 234.667,
      "duration": 0.331,
      "velocity": 1
    },
    {
      "id": "n-01002",
      "pitch": "F#3",
      "midi": 54,
      "start": 235,
      "duration": 0.331,
      "velocity": 1
    },
    {
      "id": "n-01003",
      "pitch": "C4",
      "midi": 60,
      "start": 235.333,
      "duration": 0.331,
      "velocity": 1
    },
    {
      "id": "n-01004",
      "pitch": "D#4",
      "midi": 63,
      "start": 235.667,
      "duration": 0.331,
      "velocity": 1
    },
    {
      "id": "n-01005",
      "pitch": "C#2",
      "midi": 37,
      "start": 236,
      "duration": 4,
      "velocity": 1
    },
    {
      "id": "n-01006",
      "pitch": "G#2",
      "midi": 44,
      "start": 236,
      "duration": 3,
      "velocity": 1
    },
    {
      "id": "n-01007",
      "pitch": "E3",
      "midi": 52,
      "start": 236,
      "duration": 0.331,
      "velocity": 1
    },
    {
      "id": "n-01008",
      "pitch": "C#4",
      "midi": 61,
      "start": 236,
      "duration": 1,
      "velocity": 1
    },
    {
      "id": "n-01009",
      "pitch": "G#3",
      "midi": 56,
      "start": 236.333,
      "duration": 0.331,
      "velocity": 1
    },
    {
      "id": "n-01010",
      "pitch": "C#4",
      "midi": 61,
      "start": 236.667,
      "duration": 0.331,
      "velocity": 1
    },
    {
      "id": "n-01011",
      "pitch": "G#3",
      "midi": 56,
      "start": 237,
      "duration": 0.331,
      "velocity": 1
    },
    {
      "id": "n-01012",
      "pitch": "C#4",
      "midi": 61,
      "start": 237.333,
      "duration": 0.331,
      "velocity": 1
    },
    {
      "id": "n-01013",
      "pitch": "E4",
      "midi": 64,
      "start": 237.667,
      "duration": 0.331,
      "velocity": 1
    },
    {
      "id": "n-01014",
      "pitch": "G#3",
      "midi": 56,
      "start": 238,
      "duration": 0.331,
      "velocity": 1
    },
    {
      "id": "n-01015",
      "pitch": "C#4",
      "midi": 61,
      "start": 238.333,
      "duration": 0.331,
      "velocity": 1
    },
    {
      "id": "n-01016",
      "pitch": "E4",
      "midi": 64,
      "start": 238.667,
      "duration": 0.331,
      "velocity": 1
    },
    {
      "id": "n-01017",
      "pitch": "G#2",
      "midi": 44,
      "start": 239,
      "duration": 0.75,
      "velocity": 1
    },
    {
      "id": "n-01018",
      "pitch": "G#3",
      "midi": 56,
      "start": 239,
      "duration": 0.331,
      "velocity": 1
    },
    {
      "id": "n-01019",
      "pitch": "C#4",
      "midi": 61,
      "start": 239.333,
      "duration": 0.331,
      "velocity": 1
    },
    {
      "id": "n-01020",
      "pitch": "E4",
      "midi": 64,
      "start": 239.667,
      "duration": 0.331,
      "velocity": 1
    },
    {
      "id": "n-01021",
      "pitch": "G#2",
      "midi": 44,
      "start": 239.75,
      "duration": 0.25,
      "velocity": 1
    },
    {
      "id": "n-01022",
      "pitch": "C2",
      "midi": 36,
      "start": 240,
      "duration": 4,
      "velocity": 1
    },
    {
      "id": "n-01023",
      "pitch": "G#2",
      "midi": 44,
      "start": 240,
      "duration": 3,
      "velocity": 1
    },
    {
      "id": "n-01024",
      "pitch": "G#3",
      "midi": 56,
      "start": 240,
      "duration": 0.331,
      "velocity": 1
    },
    {
      "id": "n-01025",
      "pitch": "D#4",
      "midi": 63,
      "start": 240.333,
      "duration": 0.331,
      "velocity": 1
    },
    {
      "id": "n-01026",
      "pitch": "F#4",
      "midi": 66,
      "start": 240.667,
      "duration": 0.331,
      "velocity": 1
    },
    {
      "id": "n-01027",
      "pitch": "G#3",
      "midi": 56,
      "start": 241,
      "duration": 0.331,
      "velocity": 1
    },
    {
      "id": "n-01028",
      "pitch": "D#4",
      "midi": 63,
      "start": 241.333,
      "duration": 0.331,
      "velocity": 1
    },
    {
      "id": "n-01029",
      "pitch": "F#4",
      "midi": 66,
      "start": 241.667,
      "duration": 0.331,
      "velocity": 1
    },
    {
      "id": "n-01030",
      "pitch": "G#3",
      "midi": 56,
      "start": 242,
      "duration": 0.331,
      "velocity": 1
    },
    {
      "id": "n-01031",
      "pitch": "D#4",
      "midi": 63,
      "start": 242.333,
      "duration": 0.331,
      "velocity": 1
    },
    {
      "id": "n-01032",
      "pitch": "F#4",
      "midi": 66,
      "start": 242.667,
      "duration": 0.331,
      "velocity": 1
    },
    {
      "id": "n-01033",
      "pitch": "G#2",
      "midi": 44,
      "start": 243,
      "duration": 0.75,
      "velocity": 1
    },
    {
      "id": "n-01034",
      "pitch": "G#3",
      "midi": 56,
      "start": 243,
      "duration": 0.331,
      "velocity": 1
    },
    {
      "id": "n-01035",
      "pitch": "D#4",
      "midi": 63,
      "start": 243.333,
      "duration": 0.331,
      "velocity": 1
    },
    {
      "id": "n-01036",
      "pitch": "F#4",
      "midi": 66,
      "start": 243.667,
      "duration": 0.331,
      "velocity": 1
    },
    {
      "id": "n-01037",
      "pitch": "G#2",
      "midi": 44,
      "start": 243.75,
      "duration": 0.25,
      "velocity": 1
    },
    {
      "id": "n-01038",
      "pitch": "C#2",
      "midi": 37,
      "start": 244,
      "duration": 4,
      "velocity": 1
    },
    {
      "id": "n-01039",
      "pitch": "G#2",
      "midi": 44,
      "start": 244,
      "duration": 3,
      "velocity": 1
    },
    {
      "id": "n-01040",
      "pitch": "G#3",
      "midi": 56,
      "start": 244,
      "duration": 0.331,
      "velocity": 1
    },
    {
      "id": "n-01041",
      "pitch": "E4",
      "midi": 64,
      "start": 244.333,
      "duration": 0.331,
      "velocity": 1
    },
    {
      "id": "n-01042",
      "pitch": "C#4",
      "midi": 61,
      "start": 244.667,
      "duration": 0.331,
      "velocity": 1
    },
    {
      "id": "n-01043",
      "pitch": "G#4",
      "midi": 68,
      "start": 245,
      "duration": 0.331,
      "velocity": 1
    },
    {
      "id": "n-01044",
      "pitch": "E4",
      "midi": 64,
      "start": 245.333,
      "duration": 0.331,
      "velocity": 1
    },
    {
      "id": "n-01045",
      "pitch": "C#5",
      "midi": 73,
      "start": 245.667,
      "duration": 0.331,
      "velocity": 1
    },
    {
      "id": "n-01046",
      "pitch": "G#4",
      "midi": 68,
      "start": 246,
      "duration": 0.331,
      "velocity": 1
    },
    {
      "id": "n-01047",
      "pitch": "E5",
      "midi": 76,
      "start": 246.333,
      "duration": 0.331,
      "velocity": 1
    },
    {
      "id": "n-01048",
      "pitch": "C#5",
      "midi": 73,
      "start": 246.667,
      "duration": 0.331,
      "velocity": 1
    },
    {
      "id": "n-01049",
      "pitch": "G#2",
      "midi": 44,
      "start": 247,
      "duration": 0.75,
      "velocity": 1
    },
    {
      "id": "n-01050",
      "pitch": "G#5",
      "midi": 80,
      "start": 247,
      "duration": 0.331,
      "velocity": 1
    },
    {
      "id": "n-01051",
      "pitch": "E5",
      "midi": 76,
      "start": 247.333,
      "duration": 0.331,
      "velocity": 1
    },
    {
      "id": "n-01052",
      "pitch": "C#5",
      "midi": 73,
      "start": 247.667,
      "duration": 0.331,
      "velocity": 1
    },
    {
      "id": "n-01053",
      "pitch": "G#2",
      "midi": 44,
      "start": 247.75,
      "duration": 0.25,
      "velocity": 1
    },
    {
      "id": "n-01054",
      "pitch": "G#1",
      "midi": 32,
      "start": 248,
      "duration": 4,
      "velocity": 1
    },
    {
      "id": "n-01055",
      "pitch": "G#2",
      "midi": 44,
      "start": 248,
      "duration": 3,
      "velocity": 1
    },
    {
      "id": "n-01056",
      "pitch": "C5",
      "midi": 72,
      "start": 248,
      "duration": 0.331,
      "velocity": 1
    },
    {
      "id": "n-01057",
      "pitch": "D#5",
      "midi": 75,
      "start": 248.333,
      "duration": 0.331,
      "velocity": 1
    },
    {
      "id": "n-01058",
      "pitch": "A4",
      "midi": 69,
      "start": 248.667,
      "duration": 0.331,
      "velocity": 1
    },
    {
      "id": "n-01059",
      "pitch": "C5",
      "midi": 72,
      "start": 249,
      "duration": 0.331,
      "velocity": 1
    },
    {
      "id": "n-01060",
      "pitch": "F#4",
      "midi": 66,
      "start": 249.333,
      "duration": 0.331,
      "velocity": 1
    },
    {
      "id": "n-01061",
      "pitch": "A4",
      "midi": 69,
      "start": 249.667,
      "duration": 0.331,
      "velocity": 1
    },
    {
      "id": "n-01062",
      "pitch": "D#4",
      "midi": 63,
      "start": 250,
      "duration": 0.331,
      "velocity": 1
    },
    {
      "id": "n-01063",
      "pitch": "F#4",
      "midi": 66,
      "start": 250.333,
      "duration": 0.331,
      "velocity": 1
    },
    {
      "id": "n-01064",
      "pitch": "A3",
      "midi": 57,
      "start": 250.667,
      "duration": 0.664,
      "velocity": 1
    },
    {
      "id": "n-01065",
      "pitch": "G#2",
      "midi": 44,
      "start": 251,
      "duration": 0.75,
      "velocity": 1
    },
    {
      "id": "n-01066",
      "pitch": "C4",
      "midi": 60,
      "start": 251,
      "duration": 1,
      "velocity": 1
    },
    {
      "id": "n-01067",
      "pitch": "G#3",
      "midi": 56,
      "start": 251.333,
      "duration": 0.331,
      "velocity": 1
    },
    {
      "id": "n-01068",
      "pitch": "F#3",
      "midi": 54,
      "start": 251.667,
      "duration": 0.331,
      "velocity": 1
    },
    {
      "id": "n-01069",
      "pitch": "G#2",
      "midi": 44,
      "start": 251.75,
      "duration": 0.25,
      "velocity": 1
    },
    {
      "id": "n-01070",
      "pitch": "C#2",
      "midi": 37,
      "start": 252,
      "duration": 4,
      "velocity": 1
    },
    {
      "id": "n-01071",
      "pitch": "G#2",
      "midi": 44,
      "start": 252,
      "duration": 3,
      "velocity": 1
    },
    {
      "id": "n-01072",
      "pitch": "E3",
      "midi": 52,
      "start": 252,
      "duration": 0.331,
      "velocity": 1
    },
    {
      "id": "n-01073",
      "pitch": "C#4",
      "midi": 61,
      "start": 252,
      "duration": 0.331,
      "velocity": 1
    },
    {
      "id": "n-01074",
      "pitch": "E4",
      "midi": 64,
      "start": 252.333,
      "duration": 0.331,
      "velocity": 1
    },
    {
      "id": "n-01075",
      "pitch": "C#4",
      "midi": 61,
      "start": 252.667,
      "duration": 0.331,
      "velocity": 1
    },
    {
      "id": "n-01076",
      "pitch": "G#4",
      "midi": 68,
      "start": 253,
      "duration": 0.331,
      "velocity": 1
    },
    {
      "id": "n-01077",
      "pitch": "E4",
      "midi": 64,
      "start": 253.333,
      "duration": 0.331,
      "velocity": 1
    },
    {
      "id": "n-01078",
      "pitch": "C#5",
      "midi": 73,
      "start": 253.667,
      "duration": 0.331,
      "velocity": 1
    },
    {
      "id": "n-01079",
      "pitch": "G#4",
      "midi": 68,
      "start": 254,
      "duration": 0.331,
      "velocity": 1
    },
    {
      "id": "n-01080",
      "pitch": "E5",
      "midi": 76,
      "start": 254.333,
      "duration": 0.331,
      "velocity": 1
    },
    {
      "id": "n-01081",
      "pitch": "C#5",
      "midi": 73,
      "start": 254.667,
      "duration": 0.331,
      "velocity": 1
    },
    {
      "id": "n-01082",
      "pitch": "G#2",
      "midi": 44,
      "start": 255,
      "duration": 0.75,
      "velocity": 1
    },
    {
      "id": "n-01083",
      "pitch": "G#5",
      "midi": 80,
      "start": 255,
      "duration": 0.331,
      "velocity": 1
    },
    {
      "id": "n-01084",
      "pitch": "E5",
      "midi": 76,
      "start": 255.333,
      "duration": 0.331,
      "velocity": 1
    },
    {
      "id": "n-01085",
      "pitch": "C#5",
      "midi": 73,
      "start": 255.667,
      "duration": 0.331,
      "velocity": 1
    },
    {
      "id": "n-01086",
      "pitch": "G#2",
      "midi": 44,
      "start": 255.75,
      "duration": 0.25,
      "velocity": 1
    },
    {
      "id": "n-01087",
      "pitch": "G#1",
      "midi": 32,
      "start": 256,
      "duration": 4,
      "velocity": 1
    },
    {
      "id": "n-01088",
      "pitch": "G#2",
      "midi": 44,
      "start": 256,
      "duration": 3,
      "velocity": 1
    },
    {
      "id": "n-01089",
      "pitch": "C5",
      "midi": 72,
      "start": 256,
      "duration": 0.331,
      "velocity": 1
    },
    {
      "id": "n-01090",
      "pitch": "D#5",
      "midi": 75,
      "start": 256.333,
      "duration": 0.331,
      "velocity": 1
    },
    {
      "id": "n-01091",
      "pitch": "A4",
      "midi": 69,
      "start": 256.667,
      "duration": 0.331,
      "velocity": 1
    },
    {
      "id": "n-01092",
      "pitch": "C5",
      "midi": 72,
      "start": 257,
      "duration": 0.331,
      "velocity": 1
    },
    {
      "id": "n-01093",
      "pitch": "F#4",
      "midi": 66,
      "start": 257.333,
      "duration": 0.331,
      "velocity": 1
    },
    {
      "id": "n-01094",
      "pitch": "A4",
      "midi": 69,
      "start": 257.667,
      "duration": 0.331,
      "velocity": 1
    },
    {
      "id": "n-01095",
      "pitch": "D#4",
      "midi": 63,
      "start": 258,
      "duration": 0.331,
      "velocity": 1
    },
    {
      "id": "n-01096",
      "pitch": "F#4",
      "midi": 66,
      "start": 258.333,
      "duration": 0.331,
      "velocity": 1
    },
    {
      "id": "n-01097",
      "pitch": "A3",
      "midi": 57,
      "start": 258.667,
      "duration": 0.664,
      "velocity": 1
    },
    {
      "id": "n-01098",
      "pitch": "G#2",
      "midi": 44,
      "start": 259,
      "duration": 0.75,
      "velocity": 1
    },
    {
      "id": "n-01099",
      "pitch": "C4",
      "midi": 60,
      "start": 259,
      "duration": 1,
      "velocity": 1
    },
    {
      "id": "n-01100",
      "pitch": "G#3",
      "midi": 56,
      "start": 259.333,
      "duration": 0.331,
      "velocity": 1
    },
    {
      "id": "n-01101",
      "pitch": "F#3",
      "midi": 54,
      "start": 259.667,
      "duration": 0.331,
      "velocity": 1
    },
    {
      "id": "n-01102",
      "pitch": "G#2",
      "midi": 44,
      "start": 259.75,
      "duration": 0.25,
      "velocity": 1
    },
    {
      "id": "n-01103",
      "pitch": "C#2",
      "midi": 37,
      "start": 260,
      "duration": 8,
      "velocity": 1
    },
    {
      "id": "n-01104",
      "pitch": "G#2",
      "midi": 44,
      "start": 260,
      "duration": 2,
      "velocity": 1
    },
    {
      "id": "n-01105",
      "pitch": "E3",
      "midi": 52,
      "start": 260,
      "duration": 0.331,
      "velocity": 1
    },
    {
      "id": "n-01106",
      "pitch": "C#4",
      "midi": 61,
      "start": 260,
      "duration": 0.331,
      "velocity": 1
    },
    {
      "id": "n-01107",
      "pitch": "G#3",
      "midi": 56,
      "start": 260.333,
      "duration": 0.331,
      "velocity": 1
    },
    {
      "id": "n-01108",
      "pitch": "C#4",
      "midi": 61,
      "start": 260.667,
      "duration": 0.331,
      "velocity": 1
    },
    {
      "id": "n-01109",
      "pitch": "E4",
      "midi": 64,
      "start": 261,
      "duration": 0.331,
      "velocity": 1
    },
    {
      "id": "n-01110",
      "pitch": "C#4",
      "midi": 61,
      "start": 261.333,
      "duration": 0.331,
      "velocity": 1
    },
    {
      "id": "n-01111",
      "pitch": "G#3",
      "midi": 56,
      "start": 261.667,
      "duration": 0.331,
      "velocity": 1
    },
    {
      "id": "n-01112",
      "pitch": "C#3",
      "midi": 49,
      "start": 262,
      "duration": 2,
      "velocity": 1
    },
    {
      "id": "n-01113",
      "pitch": "E3",
      "midi": 52,
      "start": 262.333,
      "duration": 0.331,
      "velocity": 1
    },
    {
      "id": "n-01114",
      "pitch": "G#3",
      "midi": 56,
      "start": 262.667,
      "duration": 0.331,
      "velocity": 1
    },
    {
      "id": "n-01115",
      "pitch": "C#4",
      "midi": 61,
      "start": 263,
      "duration": 0.331,
      "velocity": 1
    },
    {
      "id": "n-01116",
      "pitch": "G#3",
      "midi": 56,
      "start": 263.333,
      "duration": 0.331,
      "velocity": 1
    },
    {
      "id": "n-01117",
      "pitch": "E3",
      "midi": 52,
      "start": 263.667,
      "duration": 0.331,
      "velocity": 1
    },
    {
      "id": "n-01118",
      "pitch": "G#2",
      "midi": 44,
      "start": 264,
      "duration": 2,
      "velocity": 1
    },
    {
      "id": "n-01119",
      "pitch": "C#3",
      "midi": 49,
      "start": 264.333,
      "duration": 0.331,
      "velocity": 1
    },
    {
      "id": "n-01120",
      "pitch": "E3",
      "midi": 52,
      "start": 264.667,
      "duration": 0.331,
      "velocity": 1
    },
    {
      "id": "n-01121",
      "pitch": "G#3",
      "midi": 56,
      "start": 265,
      "duration": 0.331,
      "velocity": 1
    },
    {
      "id": "n-01122",
      "pitch": "E3",
      "midi": 52,
      "start": 265.333,
      "duration": 0.331,
      "velocity": 1
    },
    {
      "id": "n-01123",
      "pitch": "C#3",
      "midi": 49,
      "start": 265.667,
      "duration": 0.331,
      "velocity": 1
    },
    {
      "id": "n-01124",
      "pitch": "G#2",
      "midi": 44,
      "start": 266,
      "duration": 0.331,
      "velocity": 1
    },
    {
      "id": "n-01125",
      "pitch": "C#3",
      "midi": 49,
      "start": 266.333,
      "duration": 0.331,
      "velocity": 1
    },
    {
      "id": "n-01126",
      "pitch": "G#2",
      "midi": 44,
      "start": 266.667,
      "duration": 0.331,
      "velocity": 1
    },
    {
      "id": "n-01127",
      "pitch": "E2",
      "midi": 40,
      "start": 267,
      "duration": 0.331,
      "velocity": 1
    },
    {
      "id": "n-01128",
      "pitch": "G#2",
      "midi": 44,
      "start": 267.333,
      "duration": 0.331,
      "velocity": 1
    },
    {
      "id": "n-01129",
      "pitch": "E2",
      "midi": 40,
      "start": 267.667,
      "duration": 0.331,
      "velocity": 1
    },
    {
      "id": "n-01130",
      "pitch": "C#2",
      "midi": 37,
      "start": 268,
      "duration": 2,
      "velocity": 1
    },
    {
      "id": "n-01131",
      "pitch": "C#2",
      "midi": 37,
      "start": 270,
      "duration": 2,
      "velocity": 1
    },
    {
      "id": "n-01132",
      "pitch": "G#2",
      "midi": 44,
      "start": 270,
      "duration": 2,
      "velocity": 1
    },
    {
      "id": "n-01133",
      "pitch": "C#3",
      "midi": 49,
      "start": 270,
      "duration": 2,
      "velocity": 1
    },
    {
      "id": "n-01134",
      "pitch": "E3",
      "midi": 52,
      "start": 270,
      "duration": 2,
      "velocity": 1
    },
    {
      "id": "n-01135",
      "pitch": "G#3",
      "midi": 56,
      "start": 270,
      "duration": 2,
      "velocity": 1
    },
    {
      "id": "n-01136",
      "pitch": "C#4",
      "midi": 61,
      "start": 270,
      "duration": 2,
      "velocity": 1
    },
    {
      "id": "n-01137",
      "pitch": "C#2",
      "midi": 37,
      "start": 272,
      "duration": 4,
      "velocity": 1
    },
    {
      "id": "n-01138",
      "pitch": "G#2",
      "midi": 44,
      "start": 272,
      "duration": 4,
      "velocity": 1
    },
    {
      "id": "n-01139",
      "pitch": "C#3",
      "midi": 49,
      "start": 272,
      "duration": 4,
      "velocity": 1
    },
    {
      "id": "n-01140",
      "pitch": "E3",
      "midi": 52,
      "start": 272,
      "duration": 4,
      "velocity": 1
    },
    {
      "id": "n-01141",
      "pitch": "G#3",
      "midi": 56,
      "start": 272,
      "duration": 4,
      "velocity": 1
    },
    {
      "id": "n-01142",
      "pitch": "C#4",
      "midi": 61,
      "start": 272,
      "duration": 4,
      "velocity": 1
    }
  ]
}
