{
  "id": "chopin-raindrop-prelude",
  "title": "Raindrop Prelude, Op. 28 No. 15",
  "source": "F. F. Chopin; Edition Peters; Mutopia Project",
  "sourceInfo": {
    "provider": "Mutopia Project",
    "sourceUrl": "https://www.mutopiaproject.org/cgibin/piece-info.cgi?id=471",
    "midiUrl": "https://www.mutopiaproject.org/ftp/ChopinFF/O28/Chop-28-15/Chop-28-15.mid",
    "license": "Public Domain",
    "composer": "F. F. Chopin",
    "editor": "Magnus Lewis-Smith",
    "mutopiaId": "471"
  },
  "bpm": 80,
  "beatsPerBar": 4,
  "defaultSecondsPerBeat": 0.75,
  "createdAt": "2026-05-25T23:03:31.643Z",
  "updatedAt": "2026-05-25T23:03:31.643Z",
  "notes": [
    {
      "id": "n-00001",
      "pitch": "C#3",
      "midi": 49,
      "start": 0,
      "duration": 0.375,
      "velocity": 0.71
    },
    {
      "id": "n-00002",
      "pitch": "F5",
      "midi": 77,
      "start": 0,
      "duration": 0.563,
      "velocity": 0.71
    },
    {
      "id": "n-00003",
      "pitch": "G#3",
      "midi": 56,
      "start": 0.375,
      "duration": 0.375,
      "velocity": 0.71
    },
    {
      "id": "n-00004",
      "pitch": "C#5",
      "midi": 73,
      "start": 0.563,
      "duration": 0.188,
      "velocity": 0.71
    },
    {
      "id": "n-00005",
      "pitch": "C#4",
      "midi": 61,
      "start": 0.75,
      "duration": 1.5,
      "velocity": 0.71
    },
    {
      "id": "n-00006",
      "pitch": "F4",
      "midi": 65,
      "start": 0.75,
      "duration": 1.5,
      "velocity": 0.71
    },
    {
      "id": "n-00007",
      "pitch": "G#4",
      "midi": 68,
      "start": 0.75,
      "duration": 1.5,
      "velocity": 0.71
    },
    {
      "id": "n-00008",
      "pitch": "G#3",
      "midi": 56,
      "start": 1.125,
      "duration": 0.375,
      "velocity": 0.71
    },
    {
      "id": "n-00009",
      "pitch": "G#3",
      "midi": 56,
      "start": 1.5,
      "duration": 0.375,
      "velocity": 0.71
    },
    {
      "id": "n-00010",
      "pitch": "G#3",
      "midi": 56,
      "start": 1.875,
      "duration": 0.375,
      "velocity": 0.71
    },
    {
      "id": "n-00011",
      "pitch": "C#4",
      "midi": 61,
      "start": 2.25,
      "duration": 0.375,
      "velocity": 0.71
    },
    {
      "id": "n-00012",
      "pitch": "F4",
      "midi": 65,
      "start": 2.25,
      "duration": 0.375,
      "velocity": 0.71
    },
    {
      "id": "n-00013",
      "pitch": "A#4",
      "midi": 70,
      "start": 2.25,
      "duration": 0.75,
      "velocity": 0.71
    },
    {
      "id": "n-00014",
      "pitch": "G#3",
      "midi": 56,
      "start": 2.625,
      "duration": 0.375,
      "velocity": 0.71
    },
    {
      "id": "n-00015",
      "pitch": "D#4",
      "midi": 63,
      "start": 3,
      "duration": 2.25,
      "velocity": 0.71
    },
    {
      "id": "n-00016",
      "pitch": "F#4",
      "midi": 66,
      "start": 3,
      "duration": 2.25,
      "velocity": 0.71
    },
    {
      "id": "n-00017",
      "pitch": "C5",
      "midi": 72,
      "start": 3,
      "duration": 2.25,
      "velocity": 0.71
    },
    {
      "id": "n-00018",
      "pitch": "G#3",
      "midi": 56,
      "start": 3.375,
      "duration": 0.375,
      "velocity": 0.71
    },
    {
      "id": "n-00019",
      "pitch": "G#3",
      "midi": 56,
      "start": 3.75,
      "duration": 0.375,
      "velocity": 0.71
    },
    {
      "id": "n-00020",
      "pitch": "G#3",
      "midi": 56,
      "start": 4.125,
      "duration": 0.375,
      "velocity": 0.71
    },
    {
      "id": "n-00021",
      "pitch": "A#3",
      "midi": 58,
      "start": 4.5,
      "duration": 0.375,
      "velocity": 0.71
    },
    {
      "id": "n-00022",
      "pitch": "G#3",
      "midi": 56,
      "start": 4.875,
      "duration": 0.375,
      "velocity": 0.71
    },
    {
      "id": "n-00023",
      "pitch": "C#4",
      "midi": 61,
      "start": 5.25,
      "duration": 0.375,
      "velocity": 0.71
    },
    {
      "id": "n-00024",
      "pitch": "F4",
      "midi": 65,
      "start": 5.25,
      "duration": 0.375,
      "velocity": 0.71
    },
    {
      "id": "n-00025",
      "pitch": "C#5",
      "midi": 73,
      "start": 5.25,
      "duration": 0.75,
      "velocity": 0.71
    },
    {
      "id": "n-00026",
      "pitch": "G#3",
      "midi": 56,
      "start": 5.625,
      "duration": 0.375,
      "velocity": 0.71
    },
    {
      "id": "n-00027",
      "pitch": "C4",
      "midi": 60,
      "start": 6,
      "duration": 2.25,
      "velocity": 0.71
    },
    {
      "id": "n-00028",
      "pitch": "F#4",
      "midi": 66,
      "start": 6,
      "duration": 0.375,
      "velocity": 0.71
    },
    {
      "id": "n-00029",
      "pitch": "D#5",
      "midi": 75,
      "start": 6,
      "duration": 0.563,
      "velocity": 0.71
    },
    {
      "id": "n-00030",
      "pitch": "G#3",
      "midi": 56,
      "start": 6.375,
      "duration": 0.75,
      "velocity": 0.71
    },
    {
      "id": "n-00031",
      "pitch": "G#4",
      "midi": 68,
      "start": 6.563,
      "duration": 0.188,
      "velocity": 0.71
    },
    {
      "id": "n-00032",
      "pitch": "F5",
      "midi": 77,
      "start": 6.563,
      "duration": 0.188,
      "velocity": 0.71
    },
    {
      "id": "n-00033",
      "pitch": "A#4",
      "midi": 70,
      "start": 6.75,
      "duration": 1.5,
      "velocity": 0.71
    },
    {
      "id": "n-00034",
      "pitch": "F#5",
      "midi": 78,
      "start": 6.75,
      "duration": 1.5,
      "velocity": 0.71
    },
    {
      "id": "n-00035",
      "pitch": "G#3",
      "midi": 56,
      "start": 7.125,
      "duration": 0.375,
      "velocity": 0.71
    },
    {
      "id": "n-00036",
      "pitch": "G#3",
      "midi": 56,
      "start": 7.5,
      "duration": 0.375,
      "velocity": 0.71
    },
    {
      "id": "n-00037",
      "pitch": "G#3",
      "midi": 56,
      "start": 7.875,
      "duration": 0.75,
      "velocity": 0.71
    },
    {
      "id": "n-00038",
      "pitch": "C#4",
      "midi": 61,
      "start": 8.25,
      "duration": 0.375,
      "velocity": 0.71
    },
    {
      "id": "n-00039",
      "pitch": "G#4",
      "midi": 68,
      "start": 8.25,
      "duration": 0.375,
      "velocity": 0.71
    },
    {
      "id": "n-00040",
      "pitch": "F5",
      "midi": 77,
      "start": 8.25,
      "duration": 0.75,
      "velocity": 0.71
    },
    {
      "id": "n-00041",
      "pitch": "G#3",
      "midi": 56,
      "start": 8.625,
      "duration": 0.375,
      "velocity": 0.71
    },
    {
      "id": "n-00042",
      "pitch": "C4",
      "midi": 60,
      "start": 9,
      "duration": 1.5,
      "velocity": 0.71
    },
    {
      "id": "n-00043",
      "pitch": "G#4",
      "midi": 68,
      "start": 9,
      "duration": 0.375,
      "velocity": 0.71
    },
    {
      "id": "n-00044",
      "pitch": "F5",
      "midi": 77,
      "start": 9,
      "duration": 1.125,
      "velocity": 0.71
    },
    {
      "id": "n-00045",
      "pitch": "G#3",
      "midi": 56,
      "start": 9.375,
      "duration": 0.375,
      "velocity": 0.71
    },
    {
      "id": "n-00046",
      "pitch": "F#4",
      "midi": 66,
      "start": 9.75,
      "duration": 0.375,
      "velocity": 0.71
    },
    {
      "id": "n-00047",
      "pitch": "G#3",
      "midi": 56,
      "start": 10.125,
      "duration": 0.375,
      "velocity": 0.71
    },
    {
      "id": "n-00048",
      "pitch": "D#5",
      "midi": 75,
      "start": 10.125,
      "duration": 0.375,
      "velocity": 0.71
    },
    {
      "id": "n-00049",
      "pitch": "C#4",
      "midi": 61,
      "start": 10.5,
      "duration": 0.375,
      "velocity": 0.71
    },
    {
      "id": "n-00050",
      "pitch": "F4",
      "midi": 65,
      "start": 10.5,
      "duration": 0.375,
      "velocity": 0.71
    },
    {
      "id": "n-00051",
      "pitch": "C#5",
      "midi": 73,
      "start": 10.5,
      "duration": 0.664,
      "velocity": 0.71
    },
    {
      "id": "n-00052",
      "pitch": "G#3",
      "midi": 56,
      "start": 10.875,
      "duration": 0.375,
      "velocity": 0.71
    },
    {
      "id": "n-00053",
      "pitch": "D#5",
      "midi": 75,
      "start": 11.164,
      "duration": 0.084,
      "velocity": 0.71
    },
    {
      "id": "n-00054",
      "pitch": "C4",
      "midi": 60,
      "start": 11.25,
      "duration": 0.375,
      "velocity": 0.71
    },
    {
      "id": "n-00055",
      "pitch": "F#4",
      "midi": 66,
      "start": 11.25,
      "duration": 0.375,
      "velocity": 0.71
    },
    {
      "id": "n-00056",
      "pitch": "D#5",
      "midi": 75,
      "start": 11.25,
      "duration": 0.105,
      "velocity": 0.71
    },
    {
      "id": "n-00057",
      "pitch": "F5",
      "midi": 77,
      "start": 11.355,
      "duration": 0.105,
      "velocity": 0.71
    },
    {
      "id": "n-00058",
      "pitch": "D#5",
      "midi": 75,
      "start": 11.463,
      "duration": 0.105,
      "velocity": 0.71
    },
    {
      "id": "n-00059",
      "pitch": "D5",
      "midi": 74,
      "start": 11.57,
      "duration": 0.105,
      "velocity": 0.71
    },
    {
      "id": "n-00060",
      "pitch": "G#3",
      "midi": 56,
      "start": 11.625,
      "duration": 0.375,
      "velocity": 0.71
    },
    {
      "id": "n-00061",
      "pitch": "D#5",
      "midi": 75,
      "start": 11.678,
      "duration": 0.105,
      "velocity": 0.71
    },
    {
      "id": "n-00062",
      "pitch": "F5",
      "midi": 77,
      "start": 11.785,
      "duration": 0.105,
      "velocity": 0.71
    },
    {
      "id": "n-00063",
      "pitch": "F#5",
      "midi": 78,
      "start": 11.893,
      "duration": 0.105,
      "velocity": 0.71
    },
    {
      "id": "n-00064",
      "pitch": "C#3",
      "midi": 49,
      "start": 12,
      "duration": 0.375,
      "velocity": 0.71
    },
    {
      "id": "n-00065",
      "pitch": "F5",
      "midi": 77,
      "start": 12,
      "duration": 0.563,
      "velocity": 0.71
    },
    {
      "id": "n-00066",
      "pitch": "G#3",
      "midi": 56,
      "start": 12.375,
      "duration": 0.375,
      "velocity": 0.71
    },
    {
      "id": "n-00067",
      "pitch": "C#5",
      "midi": 73,
      "start": 12.563,
      "duration": 0.188,
      "velocity": 0.71
    },
    {
      "id": "n-00068",
      "pitch": "C#4",
      "midi": 61,
      "start": 12.75,
      "duration": 2.25,
      "velocity": 0.71
    },
    {
      "id": "n-00069",
      "pitch": "F4",
      "midi": 65,
      "start": 12.75,
      "duration": 2.25,
      "velocity": 0.71
    },
    {
      "id": "n-00070",
      "pitch": "G#4",
      "midi": 68,
      "start": 12.75,
      "duration": 1.5,
      "velocity": 0.71
    },
    {
      "id": "n-00071",
      "pitch": "G#3",
      "midi": 56,
      "start": 13.125,
      "duration": 0.375,
      "velocity": 0.71
    },
    {
      "id": "n-00072",
      "pitch": "G#3",
      "midi": 56,
      "start": 13.5,
      "duration": 0.375,
      "velocity": 0.71
    },
    {
      "id": "n-00073",
      "pitch": "G#3",
      "midi": 56,
      "start": 13.875,
      "duration": 0.375,
      "velocity": 0.71
    },
    {
      "id": "n-00074",
      "pitch": "G#3",
      "midi": 56,
      "start": 14.25,
      "duration": 0.375,
      "velocity": 0.71
    },
    {
      "id": "n-00075",
      "pitch": "A#4",
      "midi": 70,
      "start": 14.25,
      "duration": 0.75,
      "velocity": 0.71
    },
    {
      "id": "n-00076",
      "pitch": "G#3",
      "midi": 56,
      "start": 14.625,
      "duration": 0.375,
      "velocity": 0.71
    },
    {
      "id": "n-00077",
      "pitch": "D#4",
      "midi": 63,
      "start": 15,
      "duration": 2.25,
      "velocity": 0.71
    },
    {
      "id": "n-00078",
      "pitch": "F#4",
      "midi": 66,
      "start": 15,
      "duration": 2.25,
      "velocity": 0.71
    },
    {
      "id": "n-00079",
      "pitch": "C5",
      "midi": 72,
      "start": 15,
      "duration": 2.25,
      "velocity": 0.71
    },
    {
      "id": "n-00080",
      "pitch": "G#3",
      "midi": 56,
      "start": 15.375,
      "duration": 0.375,
      "velocity": 0.71
    },
    {
      "id": "n-00081",
      "pitch": "G#3",
      "midi": 56,
      "start": 15.75,
      "duration": 0.375,
      "velocity": 0.71
    },
    {
      "id": "n-00082",
      "pitch": "G#3",
      "midi": 56,
      "start": 16.125,
      "duration": 0.375,
      "velocity": 0.71
    },
    {
      "id": "n-00083",
      "pitch": "A#3",
      "midi": 58,
      "start": 16.5,
      "duration": 0.375,
      "velocity": 0.71
    },
    {
      "id": "n-00084",
      "pitch": "G#3",
      "midi": 56,
      "start": 16.875,
      "duration": 0.375,
      "velocity": 0.71
    },
    {
      "id": "n-00085",
      "pitch": "C#4",
      "midi": 61,
      "start": 17.25,
      "duration": 0.375,
      "velocity": 0.71
    },
    {
      "id": "n-00086",
      "pitch": "F4",
      "midi": 65,
      "start": 17.25,
      "duration": 0.375,
      "velocity": 0.71
    },
    {
      "id": "n-00087",
      "pitch": "C#5",
      "midi": 73,
      "start": 17.25,
      "duration": 0.75,
      "velocity": 0.71
    },
    {
      "id": "n-00088",
      "pitch": "G#3",
      "midi": 56,
      "start": 17.625,
      "duration": 0.375,
      "velocity": 0.71
    },
    {
      "id": "n-00089",
      "pitch": "C4",
      "midi": 60,
      "start": 18,
      "duration": 2.25,
      "velocity": 0.71
    },
    {
      "id": "n-00090",
      "pitch": "F#4",
      "midi": 66,
      "start": 18,
      "duration": 0.375,
      "velocity": 0.71
    },
    {
      "id": "n-00091",
      "pitch": "D#5",
      "midi": 75,
      "start": 18,
      "duration": 0.563,
      "velocity": 0.71
    },
    {
      "id": "n-00092",
      "pitch": "G#3",
      "midi": 56,
      "start": 18.375,
      "duration": 0.75,
      "velocity": 0.71
    },
    {
      "id": "n-00093",
      "pitch": "G#4",
      "midi": 68,
      "start": 18.563,
      "duration": 0.188,
      "velocity": 0.71
    },
    {
      "id": "n-00094",
      "pitch": "F5",
      "midi": 77,
      "start": 18.563,
      "duration": 0.188,
      "velocity": 0.71
    },
    {
      "id": "n-00095",
      "pitch": "A#4",
      "midi": 70,
      "start": 18.75,
      "duration": 1.5,
      "velocity": 0.71
    },
    {
      "id": "n-00096",
      "pitch": "F#5",
      "midi": 78,
      "start": 18.75,
      "duration": 1.5,
      "velocity": 0.71
    },
    {
      "id": "n-00097",
      "pitch": "G#3",
      "midi": 56,
      "start": 19.125,
      "duration": 0.375,
      "velocity": 0.71
    },
    {
      "id": "n-00098",
      "pitch": "G#3",
      "midi": 56,
      "start": 19.5,
      "duration": 0.375,
      "velocity": 0.71
    },
    {
      "id": "n-00099",
      "pitch": "G#3",
      "midi": 56,
      "start": 19.875,
      "duration": 0.75,
      "velocity": 0.71
    },
    {
      "id": "n-00100",
      "pitch": "C#4",
      "midi": 61,
      "start": 20.25,
      "duration": 0.375,
      "velocity": 0.71
    },
    {
      "id": "n-00101",
      "pitch": "G#4",
      "midi": 68,
      "start": 20.25,
      "duration": 0.375,
      "velocity": 0.71
    },
    {
      "id": "n-00102",
      "pitch": "F5",
      "midi": 77,
      "start": 20.25,
      "duration": 0.75,
      "velocity": 0.71
    },
    {
      "id": "n-00103",
      "pitch": "G#3",
      "midi": 56,
      "start": 20.625,
      "duration": 0.375,
      "velocity": 0.71
    },
    {
      "id": "n-00104",
      "pitch": "C4",
      "midi": 60,
      "start": 21,
      "duration": 1.5,
      "velocity": 0.71
    },
    {
      "id": "n-00105",
      "pitch": "G#4",
      "midi": 68,
      "start": 21,
      "duration": 0.375,
      "velocity": 0.71
    },
    {
      "id": "n-00106",
      "pitch": "F5",
      "midi": 77,
      "start": 21,
      "duration": 1.125,
      "velocity": 0.71
    },
    {
      "id": "n-00107",
      "pitch": "G#3",
      "midi": 56,
      "start": 21.375,
      "duration": 0.375,
      "velocity": 0.71
    },
    {
      "id": "n-00108",
      "pitch": "D#4",
      "midi": 63,
      "start": 21.75,
      "duration": 0.375,
      "velocity": 0.71
    },
    {
      "id": "n-00109",
      "pitch": "G#3",
      "midi": 56,
      "start": 22.125,
      "duration": 0.375,
      "velocity": 0.71
    },
    {
      "id": "n-00110",
      "pitch": "D#5",
      "midi": 75,
      "start": 22.125,
      "duration": 0.375,
      "velocity": 0.71
    },
    {
      "id": "n-00111",
      "pitch": "C#4",
      "midi": 61,
      "start": 22.5,
      "duration": 0.375,
      "velocity": 0.71
    },
    {
      "id": "n-00112",
      "pitch": "F4",
      "midi": 65,
      "start": 22.5,
      "duration": 0.375,
      "velocity": 0.71
    },
    {
      "id": "n-00113",
      "pitch": "C#5",
      "midi": 73,
      "start": 22.5,
      "duration": 0.75,
      "velocity": 0.71
    },
    {
      "id": "n-00114",
      "pitch": "G#3",
      "midi": 56,
      "start": 22.875,
      "duration": 0.375,
      "velocity": 0.71
    },
    {
      "id": "n-00115",
      "pitch": "C#4",
      "midi": 61,
      "start": 23.25,
      "duration": 0.375,
      "velocity": 0.71
    },
    {
      "id": "n-00116",
      "pitch": "F4",
      "midi": 65,
      "start": 23.25,
      "duration": 0.375,
      "velocity": 0.71
    },
    {
      "id": "n-00117",
      "pitch": "C5",
      "midi": 72,
      "start": 23.25,
      "duration": 0.375,
      "velocity": 0.71
    },
    {
      "id": "n-00118",
      "pitch": "G#3",
      "midi": 56,
      "start": 23.625,
      "duration": 0.375,
      "velocity": 0.71
    },
    {
      "id": "n-00119",
      "pitch": "C#5",
      "midi": 73,
      "start": 23.625,
      "duration": 0.375,
      "velocity": 0.71
    },
    {
      "id": "n-00120",
      "pitch": "G#2",
      "midi": 44,
      "start": 24,
      "duration": 0.375,
      "velocity": 0.71
    },
    {
      "id": "n-00121",
      "pitch": "D#5",
      "midi": 75,
      "start": 24,
      "duration": 0.75,
      "velocity": 0.71
    },
    {
      "id": "n-00122",
      "pitch": "G#3",
      "midi": 56,
      "start": 24.375,
      "duration": 0.375,
      "velocity": 0.71
    },
    {
      "id": "n-00123",
      "pitch": "D#4",
      "midi": 63,
      "start": 24.75,
      "duration": 0.375,
      "velocity": 0.71
    },
    {
      "id": "n-00124",
      "pitch": "D#5",
      "midi": 75,
      "start": 24.75,
      "duration": 1.5,
      "velocity": 0.71
    },
    {
      "id": "n-00125",
      "pitch": "G#3",
      "midi": 56,
      "start": 25.125,
      "duration": 0.375,
      "velocity": 0.71
    },
    {
      "id": "n-00126",
      "pitch": "B3",
      "midi": 59,
      "start": 25.5,
      "duration": 0.375,
      "velocity": 0.71
    },
    {
      "id": "n-00127",
      "pitch": "D#4",
      "midi": 63,
      "start": 25.5,
      "duration": 0.375,
      "velocity": 0.71
    },
    {
      "id": "n-00128",
      "pitch": "G#3",
      "midi": 56,
      "start": 25.875,
      "duration": 0.375,
      "velocity": 0.71
    },
    {
      "id": "n-00129",
      "pitch": "C#3",
      "midi": 49,
      "start": 26.25,
      "duration": 0.375,
      "velocity": 0.71
    },
    {
      "id": "n-00130",
      "pitch": "B3",
      "midi": 59,
      "start": 26.25,
      "duration": 0.375,
      "velocity": 0.71
    },
    {
      "id": "n-00131",
      "pitch": "F4",
      "midi": 65,
      "start": 26.25,
      "duration": 0.375,
      "velocity": 0.71
    },
    {
      "id": "n-00132",
      "pitch": "F5",
      "midi": 77,
      "start": 26.25,
      "duration": 0.75,
      "velocity": 0.71
    },
    {
      "id": "n-00133",
      "pitch": "C#4",
      "midi": 61,
      "start": 26.625,
      "duration": 0.375,
      "velocity": 0.71
    },
    {
      "id": "n-00134",
      "pitch": "F#3",
      "midi": 54,
      "start": 27,
      "duration": 0.375,
      "velocity": 0.71
    },
    {
      "id": "n-00135",
      "pitch": "A#3",
      "midi": 58,
      "start": 27,
      "duration": 0.375,
      "velocity": 0.71
    },
    {
      "id": "n-00136",
      "pitch": "F#5",
      "midi": 78,
      "start": 27,
      "duration": 0.375,
      "velocity": 0.71
    },
    {
      "id": "n-00137",
      "pitch": "C#4",
      "midi": 61,
      "start": 27.375,
      "duration": 0.375,
      "velocity": 0.71
    },
    {
      "id": "n-00138",
      "pitch": "F5",
      "midi": 77,
      "start": 27.375,
      "duration": 0.375,
      "velocity": 0.71
    },
    {
      "id": "n-00139",
      "pitch": "A#3",
      "midi": 58,
      "start": 27.75,
      "duration": 0.375,
      "velocity": 0.71
    },
    {
      "id": "n-00140",
      "pitch": "F#4",
      "midi": 66,
      "start": 27.75,
      "duration": 0.375,
      "velocity": 0.71
    },
    {
      "id": "n-00141",
      "pitch": "D#5",
      "midi": 75,
      "start": 27.75,
      "duration": 0.375,
      "velocity": 0.71
    },
    {
      "id": "n-00142",
      "pitch": "C#4",
      "midi": 61,
      "start": 28.125,
      "duration": 0.375,
      "velocity": 0.71
    },
    {
      "id": "n-00143",
      "pitch": "C#5",
      "midi": 73,
      "start": 28.125,
      "duration": 0.375,
      "velocity": 0.71
    },
    {
      "id": "n-00144",
      "pitch": "C#3",
      "midi": 49,
      "start": 28.5,
      "duration": 0.375,
      "velocity": 0.71
    },
    {
      "id": "n-00145",
      "pitch": "F5",
      "midi": 77,
      "start": 28.5,
      "duration": 1.5,
      "velocity": 0.71
    },
    {
      "id": "n-00146",
      "pitch": "G#3",
      "midi": 56,
      "start": 28.875,
      "duration": 0.375,
      "velocity": 0.71
    },
    {
      "id": "n-00147",
      "pitch": "C#4",
      "midi": 61,
      "start": 29.25,
      "duration": 0.375,
      "velocity": 0.71
    },
    {
      "id": "n-00148",
      "pitch": "F4",
      "midi": 65,
      "start": 29.25,
      "duration": 0.375,
      "velocity": 0.71
    },
    {
      "id": "n-00149",
      "pitch": "G#3",
      "midi": 56,
      "start": 29.625,
      "duration": 0.375,
      "velocity": 0.71
    },
    {
      "id": "n-00150",
      "pitch": "D#3",
      "midi": 51,
      "start": 30,
      "duration": 0.375,
      "velocity": 0.71
    },
    {
      "id": "n-00151",
      "pitch": "D#5",
      "midi": 75,
      "start": 30,
      "duration": 0.375,
      "velocity": 0.71
    },
    {
      "id": "n-00152",
      "pitch": "G#3",
      "midi": 56,
      "start": 30.375,
      "duration": 0.375,
      "velocity": 0.71
    },
    {
      "id": "n-00153",
      "pitch": "B4",
      "midi": 71,
      "start": 30.375,
      "duration": 0.375,
      "velocity": 0.71
    },
    {
      "id": "n-00154",
      "pitch": "B3",
      "midi": 59,
      "start": 30.75,
      "duration": 0.375,
      "velocity": 0.71
    },
    {
      "id": "n-00155",
      "pitch": "D#4",
      "midi": 63,
      "start": 30.75,
      "duration": 0.375,
      "velocity": 0.71
    },
    {
      "id": "n-00156",
      "pitch": "A#4",
      "midi": 70,
      "start": 30.75,
      "duration": 0.375,
      "velocity": 0.71
    },
    {
      "id": "n-00157",
      "pitch": "G#3",
      "midi": 56,
      "start": 31.125,
      "duration": 0.375,
      "velocity": 0.71
    },
    {
      "id": "n-00158",
      "pitch": "G#4",
      "midi": 68,
      "start": 31.125,
      "duration": 0.375,
      "velocity": 0.71
    },
    {
      "id": "n-00159",
      "pitch": "D#3",
      "midi": 51,
      "start": 31.5,
      "duration": 0.375,
      "velocity": 0.71
    },
    {
      "id": "n-00160",
      "pitch": "A#4",
      "midi": 70,
      "start": 31.5,
      "duration": 0.496,
      "velocity": 0.71
    },
    {
      "id": "n-00161",
      "pitch": "G3",
      "midi": 55,
      "start": 31.875,
      "duration": 0.375,
      "velocity": 0.71
    },
    {
      "id": "n-00162",
      "pitch": "B4",
      "midi": 71,
      "start": 31.996,
      "duration": 0.084,
      "velocity": 0.71
    },
    {
      "id": "n-00163",
      "pitch": "A#4",
      "midi": 70,
      "start": 32.08,
      "duration": 0.084,
      "velocity": 0.71
    },
    {
      "id": "n-00164",
      "pitch": "G#4",
      "midi": 68,
      "start": 32.164,
      "duration": 0.084,
      "velocity": 0.71
    },
    {
      "id": "n-00165",
      "pitch": "C#4",
      "midi": 61,
      "start": 32.25,
      "duration": 0.375,
      "velocity": 0.71
    },
    {
      "id": "n-00166",
      "pitch": "D#4",
      "midi": 63,
      "start": 32.25,
      "duration": 0.375,
      "velocity": 0.71
    },
    {
      "id": "n-00167",
      "pitch": "A#4",
      "midi": 70,
      "start": 32.25,
      "duration": 0.563,
      "velocity": 0.71
    },
    {
      "id": "n-00168",
      "pitch": "G3",
      "midi": 55,
      "start": 32.625,
      "duration": 0.375,
      "velocity": 0.71
    },
    {
      "id": "n-00169",
      "pitch": "B4",
      "midi": 71,
      "start": 32.813,
      "duration": 0.188,
      "velocity": 0.71
    },
    {
      "id": "n-00170",
      "pitch": "G#2",
      "midi": 44,
      "start": 33,
      "duration": 0.375,
      "velocity": 0.71
    },
    {
      "id": "n-00171",
      "pitch": "G#4",
      "midi": 68,
      "start": 33,
      "duration": 0.75,
      "velocity": 0.71
    },
    {
      "id": "n-00172",
      "pitch": "G#3",
      "midi": 56,
      "start": 33.375,
      "duration": 0.375,
      "velocity": 0.71
    },
    {
      "id": "n-00173",
      "pitch": "B3",
      "midi": 59,
      "start": 33.75,
      "duration": 0.375,
      "velocity": 0.71
    },
    {
      "id": "n-00174",
      "pitch": "D#4",
      "midi": 63,
      "start": 33.75,
      "duration": 0.375,
      "velocity": 0.71
    },
    {
      "id": "n-00175",
      "pitch": "D#5",
      "midi": 75,
      "start": 33.75,
      "duration": 0.75,
      "velocity": 0.71
    },
    {
      "id": "n-00176",
      "pitch": "G#3",
      "midi": 56,
      "start": 34.125,
      "duration": 0.375,
      "velocity": 0.71
    },
    {
      "id": "n-00177",
      "pitch": "A#3",
      "midi": 58,
      "start": 34.5,
      "duration": 0.375,
      "velocity": 0.71
    },
    {
      "id": "n-00178",
      "pitch": "C#4",
      "midi": 61,
      "start": 34.5,
      "duration": 0.375,
      "velocity": 0.71
    },
    {
      "id": "n-00179",
      "pitch": "C#5",
      "midi": 73,
      "start": 34.5,
      "duration": 0.75,
      "velocity": 0.71
    },
    {
      "id": "n-00180",
      "pitch": "G#3",
      "midi": 56,
      "start": 34.875,
      "duration": 0.375,
      "velocity": 0.71
    },
    {
      "id": "n-00181",
      "pitch": "C#4",
      "midi": 61,
      "start": 35.25,
      "duration": 0.375,
      "velocity": 0.71
    },
    {
      "id": "n-00182",
      "pitch": "E4",
      "midi": 64,
      "start": 35.25,
      "duration": 0.375,
      "velocity": 0.71
    },
    {
      "id": "n-00183",
      "pitch": "E5",
      "midi": 76,
      "start": 35.25,
      "duration": 0.75,
      "velocity": 0.71
    },
    {
      "id": "n-00184",
      "pitch": "G#3",
      "midi": 56,
      "start": 35.625,
      "duration": 0.375,
      "velocity": 0.71
    },
    {
      "id": "n-00185",
      "pitch": "G#2",
      "midi": 44,
      "start": 36,
      "duration": 0.375,
      "velocity": 0.71
    },
    {
      "id": "n-00186",
      "pitch": "D#5",
      "midi": 75,
      "start": 36,
      "duration": 0.75,
      "velocity": 0.71
    },
    {
      "id": "n-00187",
      "pitch": "G#3",
      "midi": 56,
      "start": 36.375,
      "duration": 0.375,
      "velocity": 0.71
    },
    {
      "id": "n-00188",
      "pitch": "B3",
      "midi": 59,
      "start": 36.75,
      "duration": 1.5,
      "velocity": 0.71
    },
    {
      "id": "n-00189",
      "pitch": "D#4",
      "midi": 63,
      "start": 36.75,
      "duration": 1.5,
      "velocity": 0.71
    },
    {
      "id": "n-00190",
      "pitch": "D#5",
      "midi": 75,
      "start": 36.75,
      "duration": 1.5,
      "velocity": 0.71
    },
    {
      "id": "n-00191",
      "pitch": "G#3",
      "midi": 56,
      "start": 37.125,
      "duration": 0.375,
      "velocity": 0.71
    },
    {
      "id": "n-00192",
      "pitch": "G#3",
      "midi": 56,
      "start": 37.5,
      "duration": 0.375,
      "velocity": 0.71
    },
    {
      "id": "n-00193",
      "pitch": "G#3",
      "midi": 56,
      "start": 37.875,
      "duration": 0.375,
      "velocity": 0.71
    },
    {
      "id": "n-00194",
      "pitch": "B3",
      "midi": 59,
      "start": 38.25,
      "duration": 0.375,
      "velocity": 0.71
    },
    {
      "id": "n-00195",
      "pitch": "F4",
      "midi": 65,
      "start": 38.25,
      "duration": 0.375,
      "velocity": 0.71
    },
    {
      "id": "n-00196",
      "pitch": "F5",
      "midi": 77,
      "start": 38.25,
      "duration": 0.75,
      "velocity": 0.71
    },
    {
      "id": "n-00197",
      "pitch": "G#3",
      "midi": 56,
      "start": 38.625,
      "duration": 0.375,
      "velocity": 0.71
    },
    {
      "id": "n-00198",
      "pitch": "D#3",
      "midi": 51,
      "start": 39,
      "duration": 0.375,
      "velocity": 0.71
    },
    {
      "id": "n-00199",
      "pitch": "F#5",
      "midi": 78,
      "start": 39,
      "duration": 0.375,
      "velocity": 0.71
    },
    {
      "id": "n-00200",
      "pitch": "F#3",
      "midi": 54,
      "start": 39.375,
      "duration": 0.375,
      "velocity": 0.71
    },
    {
      "id": "n-00201",
      "pitch": "F5",
      "midi": 77,
      "start": 39.375,
      "duration": 0.375,
      "velocity": 0.71
    },
    {
      "id": "n-00202",
      "pitch": "A#3",
      "midi": 58,
      "start": 39.75,
      "duration": 0.375,
      "velocity": 0.71
    },
    {
      "id": "n-00203",
      "pitch": "F#4",
      "midi": 66,
      "start": 39.75,
      "duration": 0.375,
      "velocity": 0.71
    },
    {
      "id": "n-00204",
      "pitch": "D#5",
      "midi": 75,
      "start": 39.75,
      "duration": 0.375,
      "velocity": 0.71
    },
    {
      "id": "n-00205",
      "pitch": "F#3",
      "midi": 54,
      "start": 40.125,
      "duration": 0.375,
      "velocity": 0.71
    },
    {
      "id": "n-00206",
      "pitch": "C#5",
      "midi": 73,
      "start": 40.125,
      "duration": 0.375,
      "velocity": 0.71
    },
    {
      "id": "n-00207",
      "pitch": "A#2",
      "midi": 46,
      "start": 40.5,
      "duration": 0.375,
      "velocity": 0.71
    },
    {
      "id": "n-00208",
      "pitch": "F5",
      "midi": 77,
      "start": 40.5,
      "duration": 1.875,
      "velocity": 0.71
    },
    {
      "id": "n-00209",
      "pitch": "F3",
      "midi": 53,
      "start": 40.875,
      "duration": 0.375,
      "velocity": 0.71
    },
    {
      "id": "n-00210",
      "pitch": "A#3",
      "midi": 58,
      "start": 41.25,
      "duration": 0.375,
      "velocity": 0.71
    },
    {
      "id": "n-00211",
      "pitch": "C#4",
      "midi": 61,
      "start": 41.25,
      "duration": 0.375,
      "velocity": 0.71
    },
    {
      "id": "n-00212",
      "pitch": "F4",
      "midi": 65,
      "start": 41.25,
      "duration": 0.375,
      "velocity": 0.71
    },
    {
      "id": "n-00213",
      "pitch": "F3",
      "midi": 53,
      "start": 41.625,
      "duration": 0.375,
      "velocity": 0.71
    },
    {
      "id": "n-00214",
      "pitch": "F2",
      "midi": 41,
      "start": 42,
      "duration": 0.375,
      "velocity": 0.71
    },
    {
      "id": "n-00215",
      "pitch": "F3",
      "midi": 53,
      "start": 42.375,
      "duration": 0.375,
      "velocity": 0.71
    },
    {
      "id": "n-00216",
      "pitch": "C#5",
      "midi": 73,
      "start": 42.375,
      "duration": 0.375,
      "velocity": 0.71
    },
    {
      "id": "n-00217",
      "pitch": "A#3",
      "midi": 58,
      "start": 42.75,
      "duration": 0.375,
      "velocity": 0.71
    },
    {
      "id": "n-00218",
      "pitch": "C#4",
      "midi": 61,
      "start": 42.75,
      "duration": 0.375,
      "velocity": 0.71
    },
    {
      "id": "n-00219",
      "pitch": "F4",
      "midi": 65,
      "start": 42.75,
      "duration": 0.375,
      "velocity": 0.71
    },
    {
      "id": "n-00220",
      "pitch": "C5",
      "midi": 72,
      "start": 42.75,
      "duration": 0.375,
      "velocity": 0.71
    },
    {
      "id": "n-00221",
      "pitch": "F3",
      "midi": 53,
      "start": 43.125,
      "duration": 0.375,
      "velocity": 0.71
    },
    {
      "id": "n-00222",
      "pitch": "A#4",
      "midi": 70,
      "start": 43.125,
      "duration": 0.375,
      "velocity": 0.71
    },
    {
      "id": "n-00223",
      "pitch": "F2",
      "midi": 41,
      "start": 43.5,
      "duration": 0.375,
      "velocity": 0.71
    },
    {
      "id": "n-00224",
      "pitch": "C5",
      "midi": 72,
      "start": 43.5,
      "duration": 0.496,
      "velocity": 0.71
    },
    {
      "id": "n-00225",
      "pitch": "F3",
      "midi": 53,
      "start": 43.875,
      "duration": 0.375,
      "velocity": 0.71
    },
    {
      "id": "n-00226",
      "pitch": "C#5",
      "midi": 73,
      "start": 43.996,
      "duration": 0.084,
      "velocity": 0.71
    },
    {
      "id": "n-00227",
      "pitch": "C5",
      "midi": 72,
      "start": 44.08,
      "duration": 0.084,
      "velocity": 0.71
    },
    {
      "id": "n-00228",
      "pitch": "A#4",
      "midi": 70,
      "start": 44.164,
      "duration": 0.084,
      "velocity": 0.71
    },
    {
      "id": "n-00229",
      "pitch": "A3",
      "midi": 57,
      "start": 44.25,
      "duration": 0.375,
      "velocity": 0.71
    },
    {
      "id": "n-00230",
      "pitch": "D#4",
      "midi": 63,
      "start": 44.25,
      "duration": 0.375,
      "velocity": 0.71
    },
    {
      "id": "n-00231",
      "pitch": "F4",
      "midi": 65,
      "start": 44.25,
      "duration": 0.375,
      "velocity": 0.71
    },
    {
      "id": "n-00232",
      "pitch": "C5",
      "midi": 72,
      "start": 44.25,
      "duration": 0.375,
      "velocity": 0.71
    },
    {
      "id": "n-00233",
      "pitch": "F3",
      "midi": 53,
      "start": 44.625,
      "duration": 0.375,
      "velocity": 0.71
    },
    {
      "id": "n-00234",
      "pitch": "C#5",
      "midi": 73,
      "start": 44.625,
      "duration": 0.375,
      "velocity": 0.71
    },
    {
      "id": "n-00235",
      "pitch": "A#2",
      "midi": 46,
      "start": 45,
      "duration": 0.375,
      "velocity": 0.71
    },
    {
      "id": "n-00236",
      "pitch": "A#4",
      "midi": 70,
      "start": 45,
      "duration": 0.75,
      "velocity": 0.71
    },
    {
      "id": "n-00237",
      "pitch": "F3",
      "midi": 53,
      "start": 45.375,
      "duration": 0.375,
      "velocity": 0.71
    },
    {
      "id": "n-00238",
      "pitch": "C#4",
      "midi": 61,
      "start": 45.75,
      "duration": 0.375,
      "velocity": 0.71
    },
    {
      "id": "n-00239",
      "pitch": "F4",
      "midi": 65,
      "start": 45.75,
      "duration": 0.375,
      "velocity": 0.71
    },
    {
      "id": "n-00240",
      "pitch": "F5",
      "midi": 77,
      "start": 45.75,
      "duration": 0.75,
      "velocity": 0.71
    },
    {
      "id": "n-00241",
      "pitch": "F3",
      "midi": 53,
      "start": 46.125,
      "duration": 0.375,
      "velocity": 0.71
    },
    {
      "id": "n-00242",
      "pitch": "C4",
      "midi": 60,
      "start": 46.5,
      "duration": 0.375,
      "velocity": 0.71
    },
    {
      "id": "n-00243",
      "pitch": "D#4",
      "midi": 63,
      "start": 46.5,
      "duration": 0.375,
      "velocity": 0.71
    },
    {
      "id": "n-00244",
      "pitch": "D#5",
      "midi": 75,
      "start": 46.5,
      "duration": 0.75,
      "velocity": 0.71
    },
    {
      "id": "n-00245",
      "pitch": "F3",
      "midi": 53,
      "start": 46.875,
      "duration": 0.375,
      "velocity": 0.71
    },
    {
      "id": "n-00246",
      "pitch": "D#4",
      "midi": 63,
      "start": 47.25,
      "duration": 0.375,
      "velocity": 0.71
    },
    {
      "id": "n-00247",
      "pitch": "F#4",
      "midi": 66,
      "start": 47.25,
      "duration": 0.375,
      "velocity": 0.71
    },
    {
      "id": "n-00248",
      "pitch": "F#5",
      "midi": 78,
      "start": 47.25,
      "duration": 0.75,
      "velocity": 0.71
    },
    {
      "id": "n-00249",
      "pitch": "F3",
      "midi": 53,
      "start": 47.625,
      "duration": 0.375,
      "velocity": 0.71
    },
    {
      "id": "n-00250",
      "pitch": "C#4",
      "midi": 61,
      "start": 48,
      "duration": 0.375,
      "velocity": 0.71
    },
    {
      "id": "n-00251",
      "pitch": "F4",
      "midi": 65,
      "start": 48,
      "duration": 0.375,
      "velocity": 0.71
    },
    {
      "id": "n-00252",
      "pitch": "F5",
      "midi": 77,
      "start": 48,
      "duration": 0.375,
      "velocity": 0.71
    },
    {
      "id": "n-00253",
      "pitch": "F3",
      "midi": 53,
      "start": 48.375,
      "duration": 0.375,
      "velocity": 0.71
    },
    {
      "id": "n-00254",
      "pitch": "C#5",
      "midi": 73,
      "start": 48.375,
      "duration": 0.375,
      "velocity": 0.71
    },
    {
      "id": "n-00255",
      "pitch": "A#3",
      "midi": 58,
      "start": 48.75,
      "duration": 0.375,
      "velocity": 0.71
    },
    {
      "id": "n-00256",
      "pitch": "C#4",
      "midi": 61,
      "start": 48.75,
      "duration": 0.375,
      "velocity": 0.71
    },
    {
      "id": "n-00257",
      "pitch": "F4",
      "midi": 65,
      "start": 48.75,
      "duration": 0.375,
      "velocity": 0.71
    },
    {
      "id": "n-00258",
      "pitch": "C5",
      "midi": 72,
      "start": 48.75,
      "duration": 0.375,
      "velocity": 0.71
    },
    {
      "id": "n-00259",
      "pitch": "F3",
      "midi": 53,
      "start": 49.125,
      "duration": 0.375,
      "velocity": 0.71
    },
    {
      "id": "n-00260",
      "pitch": "A#4",
      "midi": 70,
      "start": 49.125,
      "duration": 0.375,
      "velocity": 0.71
    },
    {
      "id": "n-00261",
      "pitch": "A3",
      "midi": 57,
      "start": 49.5,
      "duration": 0.375,
      "velocity": 0.71
    },
    {
      "id": "n-00262",
      "pitch": "D#4",
      "midi": 63,
      "start": 49.5,
      "duration": 0.375,
      "velocity": 0.71
    },
    {
      "id": "n-00263",
      "pitch": "C5",
      "midi": 72,
      "start": 49.5,
      "duration": 0.496,
      "velocity": 0.71
    },
    {
      "id": "n-00264",
      "pitch": "F3",
      "midi": 53,
      "start": 49.875,
      "duration": 0.375,
      "velocity": 0.71
    },
    {
      "id": "n-00265",
      "pitch": "C#5",
      "midi": 73,
      "start": 49.996,
      "duration": 0.084,
      "velocity": 0.71
    },
    {
      "id": "n-00266",
      "pitch": "C5",
      "midi": 72,
      "start": 50.08,
      "duration": 0.084,
      "velocity": 0.71
    },
    {
      "id": "n-00267",
      "pitch": "A#4",
      "midi": 70,
      "start": 50.164,
      "duration": 0.084,
      "velocity": 0.71
    },
    {
      "id": "n-00268",
      "pitch": "D#4",
      "midi": 63,
      "start": 50.25,
      "duration": 0.375,
      "velocity": 0.71
    },
    {
      "id": "n-00269",
      "pitch": "F4",
      "midi": 65,
      "start": 50.25,
      "duration": 0.375,
      "velocity": 0.71
    },
    {
      "id": "n-00270",
      "pitch": "C5",
      "midi": 72,
      "start": 50.25,
      "duration": 0.563,
      "velocity": 0.71
    },
    {
      "id": "n-00271",
      "pitch": "F3",
      "midi": 53,
      "start": 50.625,
      "duration": 0.375,
      "velocity": 0.71
    },
    {
      "id": "n-00272",
      "pitch": "C#5",
      "midi": 73,
      "start": 50.813,
      "duration": 0.188,
      "velocity": 0.71
    },
    {
      "id": "n-00273",
      "pitch": "A#2",
      "midi": 46,
      "start": 51,
      "duration": 0.375,
      "velocity": 0.71
    },
    {
      "id": "n-00274",
      "pitch": "A#4",
      "midi": 70,
      "start": 51,
      "duration": 0.75,
      "velocity": 0.71
    },
    {
      "id": "n-00275",
      "pitch": "F3",
      "midi": 53,
      "start": 51.375,
      "duration": 0.375,
      "velocity": 0.71
    },
    {
      "id": "n-00276",
      "pitch": "C4",
      "midi": 60,
      "start": 51.75,
      "duration": 0.375,
      "velocity": 0.71
    },
    {
      "id": "n-00277",
      "pitch": "D#4",
      "midi": 63,
      "start": 51.75,
      "duration": 0.375,
      "velocity": 0.71
    },
    {
      "id": "n-00278",
      "pitch": "D#5",
      "midi": 75,
      "start": 51.75,
      "duration": 0.75,
      "velocity": 0.71
    },
    {
      "id": "n-00279",
      "pitch": "F3",
      "midi": 53,
      "start": 52.125,
      "duration": 0.375,
      "velocity": 0.71
    },
    {
      "id": "n-00280",
      "pitch": "C#4",
      "midi": 61,
      "start": 52.5,
      "duration": 0.375,
      "velocity": 0.71
    },
    {
      "id": "n-00281",
      "pitch": "F4",
      "midi": 65,
      "start": 52.5,
      "duration": 0.375,
      "velocity": 0.71
    },
    {
      "id": "n-00282",
      "pitch": "F5",
      "midi": 77,
      "start": 52.5,
      "duration": 0.75,
      "velocity": 0.71
    },
    {
      "id": "n-00283",
      "pitch": "F3",
      "midi": 53,
      "start": 52.875,
      "duration": 0.375,
      "velocity": 0.71
    },
    {
      "id": "n-00284",
      "pitch": "C4",
      "midi": 60,
      "start": 53.25,
      "duration": 0.375,
      "velocity": 0.71
    },
    {
      "id": "n-00285",
      "pitch": "D#4",
      "midi": 63,
      "start": 53.25,
      "duration": 0.375,
      "velocity": 0.71
    },
    {
      "id": "n-00286",
      "pitch": "D#5",
      "midi": 75,
      "start": 53.25,
      "duration": 0.75,
      "velocity": 0.71
    },
    {
      "id": "n-00287",
      "pitch": "F3",
      "midi": 53,
      "start": 53.625,
      "duration": 0.375,
      "velocity": 0.71
    },
    {
      "id": "n-00288",
      "pitch": "C#4",
      "midi": 61,
      "start": 54,
      "duration": 1.5,
      "velocity": 0.71
    },
    {
      "id": "n-00289",
      "pitch": "F4",
      "midi": 65,
      "start": 54,
      "duration": 1.5,
      "velocity": 0.71
    },
    {
      "id": "n-00290",
      "pitch": "F5",
      "midi": 77,
      "start": 54,
      "duration": 2.25,
      "velocity": 0.71
    },
    {
      "id": "n-00291",
      "pitch": "F3",
      "midi": 53,
      "start": 54.375,
      "duration": 0.375,
      "velocity": 0.71
    },
    {
      "id": "n-00292",
      "pitch": "F3",
      "midi": 53,
      "start": 54.75,
      "duration": 0.375,
      "velocity": 0.71
    },
    {
      "id": "n-00293",
      "pitch": "F3",
      "midi": 53,
      "start": 55.125,
      "duration": 0.375,
      "velocity": 0.71
    },
    {
      "id": "n-00294",
      "pitch": "C#4",
      "midi": 61,
      "start": 55.5,
      "duration": 0.375,
      "velocity": 0.71
    },
    {
      "id": "n-00295",
      "pitch": "F4",
      "midi": 65,
      "start": 55.5,
      "duration": 0.375,
      "velocity": 0.71
    },
    {
      "id": "n-00296",
      "pitch": "F#3",
      "midi": 54,
      "start": 55.875,
      "duration": 0.75,
      "velocity": 0.71
    },
    {
      "id": "n-00297",
      "pitch": "C4",
      "midi": 60,
      "start": 56.25,
      "duration": 0.375,
      "velocity": 0.71
    },
    {
      "id": "n-00298",
      "pitch": "D#4",
      "midi": 63,
      "start": 56.25,
      "duration": 0.375,
      "velocity": 0.71
    },
    {
      "id": "n-00299",
      "pitch": "D#5",
      "midi": 75,
      "start": 56.25,
      "duration": 0.75,
      "velocity": 0.71
    },
    {
      "id": "n-00300",
      "pitch": "G#3",
      "midi": 56,
      "start": 56.625,
      "duration": 0.375,
      "velocity": 0.71
    },
    {
      "id": "n-00301",
      "pitch": "C#3",
      "midi": 49,
      "start": 57,
      "duration": 0.375,
      "velocity": 0.71
    },
    {
      "id": "n-00302",
      "pitch": "F5",
      "midi": 77,
      "start": 57,
      "duration": 0.563,
      "velocity": 0.71
    },
    {
      "id": "n-00303",
      "pitch": "G#3",
      "midi": 56,
      "start": 57.375,
      "duration": 0.375,
      "velocity": 0.71
    },
    {
      "id": "n-00304",
      "pitch": "C#5",
      "midi": 73,
      "start": 57.563,
      "duration": 0.188,
      "velocity": 0.71
    },
    {
      "id": "n-00305",
      "pitch": "C#4",
      "midi": 61,
      "start": 57.75,
      "duration": 1.5,
      "velocity": 0.71
    },
    {
      "id": "n-00306",
      "pitch": "F4",
      "midi": 65,
      "start": 57.75,
      "duration": 1.5,
      "velocity": 0.71
    },
    {
      "id": "n-00307",
      "pitch": "G#4",
      "midi": 68,
      "start": 57.75,
      "duration": 1.5,
      "velocity": 0.71
    },
    {
      "id": "n-00308",
      "pitch": "G#3",
      "midi": 56,
      "start": 58.125,
      "duration": 0.375,
      "velocity": 0.71
    },
    {
      "id": "n-00309",
      "pitch": "G#3",
      "midi": 56,
      "start": 58.5,
      "duration": 0.375,
      "velocity": 0.71
    },
    {
      "id": "n-00310",
      "pitch": "G#3",
      "midi": 56,
      "start": 58.875,
      "duration": 0.375,
      "velocity": 0.71
    },
    {
      "id": "n-00311",
      "pitch": "C#4",
      "midi": 61,
      "start": 59.25,
      "duration": 0.375,
      "velocity": 0.71
    },
    {
      "id": "n-00312",
      "pitch": "F4",
      "midi": 65,
      "start": 59.25,
      "duration": 0.375,
      "velocity": 0.71
    },
    {
      "id": "n-00313",
      "pitch": "A#4",
      "midi": 70,
      "start": 59.25,
      "duration": 0.75,
      "velocity": 0.71
    },
    {
      "id": "n-00314",
      "pitch": "G#3",
      "midi": 56,
      "start": 59.625,
      "duration": 0.375,
      "velocity": 0.71
    },
    {
      "id": "n-00315",
      "pitch": "D#4",
      "midi": 63,
      "start": 60,
      "duration": 1.5,
      "velocity": 0.71
    },
    {
      "id": "n-00316",
      "pitch": "F#4",
      "midi": 66,
      "start": 60,
      "duration": 1.5,
      "velocity": 0.71
    },
    {
      "id": "n-00317",
      "pitch": "C5",
      "midi": 72,
      "start": 60,
      "duration": 2.25,
      "velocity": 0.71
    },
    {
      "id": "n-00318",
      "pitch": "G#3",
      "midi": 56,
      "start": 60.375,
      "duration": 0.375,
      "velocity": 0.71
    },
    {
      "id": "n-00319",
      "pitch": "G#3",
      "midi": 56,
      "start": 60.75,
      "duration": 0.375,
      "velocity": 0.71
    },
    {
      "id": "n-00320",
      "pitch": "G#3",
      "midi": 56,
      "start": 61.125,
      "duration": 0.375,
      "velocity": 0.71
    },
    {
      "id": "n-00321",
      "pitch": "A#3",
      "midi": 58,
      "start": 61.5,
      "duration": 0.375,
      "velocity": 0.71
    },
    {
      "id": "n-00322",
      "pitch": "G#3",
      "midi": 56,
      "start": 61.875,
      "duration": 0.375,
      "velocity": 0.71
    },
    {
      "id": "n-00323",
      "pitch": "C#4",
      "midi": 61,
      "start": 62.25,
      "duration": 0.375,
      "velocity": 0.71
    },
    {
      "id": "n-00324",
      "pitch": "F4",
      "midi": 65,
      "start": 62.25,
      "duration": 0.375,
      "velocity": 0.71
    },
    {
      "id": "n-00325",
      "pitch": "C#5",
      "midi": 73,
      "start": 62.25,
      "duration": 0.75,
      "velocity": 0.71
    },
    {
      "id": "n-00326",
      "pitch": "G#3",
      "midi": 56,
      "start": 62.625,
      "duration": 0.375,
      "velocity": 0.71
    },
    {
      "id": "n-00327",
      "pitch": "C4",
      "midi": 60,
      "start": 63,
      "duration": 2.25,
      "velocity": 0.71
    },
    {
      "id": "n-00328",
      "pitch": "F#4",
      "midi": 66,
      "start": 63,
      "duration": 0.375,
      "velocity": 0.71
    },
    {
      "id": "n-00329",
      "pitch": "D#5",
      "midi": 75,
      "start": 63,
      "duration": 0.563,
      "velocity": 0.71
    },
    {
      "id": "n-00330",
      "pitch": "G#3",
      "midi": 56,
      "start": 63.375,
      "duration": 0.75,
      "velocity": 0.71
    },
    {
      "id": "n-00331",
      "pitch": "G#4",
      "midi": 68,
      "start": 63.563,
      "duration": 0.188,
      "velocity": 0.71
    },
    {
      "id": "n-00332",
      "pitch": "F5",
      "midi": 77,
      "start": 63.563,
      "duration": 0.188,
      "velocity": 0.71
    },
    {
      "id": "n-00333",
      "pitch": "A#4",
      "midi": 70,
      "start": 63.75,
      "duration": 1.5,
      "velocity": 0.71
    },
    {
      "id": "n-00334",
      "pitch": "F#5",
      "midi": 78,
      "start": 63.75,
      "duration": 1.5,
      "velocity": 0.71
    },
    {
      "id": "n-00335",
      "pitch": "G#3",
      "midi": 56,
      "start": 64.125,
      "duration": 0.375,
      "velocity": 0.71
    },
    {
      "id": "n-00336",
      "pitch": "G#3",
      "midi": 56,
      "start": 64.5,
      "duration": 0.375,
      "velocity": 0.71
    },
    {
      "id": "n-00337",
      "pitch": "G#3",
      "midi": 56,
      "start": 64.875,
      "duration": 0.75,
      "velocity": 0.71
    },
    {
      "id": "n-00338",
      "pitch": "C#4",
      "midi": 61,
      "start": 65.25,
      "duration": 0.375,
      "velocity": 0.71
    },
    {
      "id": "n-00339",
      "pitch": "G#4",
      "midi": 68,
      "start": 65.25,
      "duration": 0.375,
      "velocity": 0.71
    },
    {
      "id": "n-00340",
      "pitch": "F5",
      "midi": 77,
      "start": 65.25,
      "duration": 0.75,
      "velocity": 0.71
    },
    {
      "id": "n-00341",
      "pitch": "G#3",
      "midi": 56,
      "start": 65.625,
      "duration": 0.375,
      "velocity": 0.71
    },
    {
      "id": "n-00342",
      "pitch": "C4",
      "midi": 60,
      "start": 66,
      "duration": 0.375,
      "velocity": 0.71
    },
    {
      "id": "n-00343",
      "pitch": "G#4",
      "midi": 68,
      "start": 66,
      "duration": 0.375,
      "velocity": 0.71
    },
    {
      "id": "n-00344",
      "pitch": "F5",
      "midi": 77,
      "start": 66,
      "duration": 1.125,
      "velocity": 0.71
    },
    {
      "id": "n-00345",
      "pitch": "G#3",
      "midi": 56,
      "start": 66.375,
      "duration": 0.375,
      "velocity": 0.71
    },
    {
      "id": "n-00346",
      "pitch": "C4",
      "midi": 60,
      "start": 66.75,
      "duration": 0.375,
      "velocity": 0.71
    },
    {
      "id": "n-00347",
      "pitch": "F#4",
      "midi": 66,
      "start": 66.75,
      "duration": 0.375,
      "velocity": 0.71
    },
    {
      "id": "n-00348",
      "pitch": "G#3",
      "midi": 56,
      "start": 67.125,
      "duration": 0.375,
      "velocity": 0.71
    },
    {
      "id": "n-00349",
      "pitch": "D#5",
      "midi": 75,
      "start": 67.125,
      "duration": 0.375,
      "velocity": 0.71
    },
    {
      "id": "n-00350",
      "pitch": "C#4",
      "midi": 61,
      "start": 67.5,
      "duration": 0.375,
      "velocity": 0.71
    },
    {
      "id": "n-00351",
      "pitch": "F4",
      "midi": 65,
      "start": 67.5,
      "duration": 0.375,
      "velocity": 0.71
    },
    {
      "id": "n-00352",
      "pitch": "C#5",
      "midi": 73,
      "start": 67.5,
      "duration": 0.75,
      "velocity": 0.71
    },
    {
      "id": "n-00353",
      "pitch": "G#3",
      "midi": 56,
      "start": 67.875,
      "duration": 0.375,
      "velocity": 0.71
    },
    {
      "id": "n-00354",
      "pitch": "C4",
      "midi": 60,
      "start": 68.25,
      "duration": 0.375,
      "velocity": 0.71
    },
    {
      "id": "n-00355",
      "pitch": "F#4",
      "midi": 66,
      "start": 68.25,
      "duration": 0.375,
      "velocity": 0.71
    },
    {
      "id": "n-00356",
      "pitch": "D5",
      "midi": 74,
      "start": 68.25,
      "duration": 0.105,
      "velocity": 0.71
    },
    {
      "id": "n-00357",
      "pitch": "D#5",
      "midi": 75,
      "start": 68.355,
      "duration": 0.105,
      "velocity": 0.71
    },
    {
      "id": "n-00358",
      "pitch": "E5",
      "midi": 76,
      "start": 68.463,
      "duration": 0.105,
      "velocity": 0.71
    },
    {
      "id": "n-00359",
      "pitch": "F5",
      "midi": 77,
      "start": 68.57,
      "duration": 0.105,
      "velocity": 0.71
    },
    {
      "id": "n-00360",
      "pitch": "G#3",
      "midi": 56,
      "start": 68.625,
      "duration": 0.375,
      "velocity": 0.71
    },
    {
      "id": "n-00361",
      "pitch": "G#5",
      "midi": 80,
      "start": 68.678,
      "duration": 0.105,
      "velocity": 0.71
    },
    {
      "id": "n-00362",
      "pitch": "G5",
      "midi": 79,
      "start": 68.785,
      "duration": 0.105,
      "velocity": 0.71
    },
    {
      "id": "n-00363",
      "pitch": "F#5",
      "midi": 78,
      "start": 68.893,
      "duration": 0.105,
      "velocity": 0.71
    },
    {
      "id": "n-00364",
      "pitch": "C#3",
      "midi": 49,
      "start": 69,
      "duration": 0.375,
      "velocity": 0.71
    },
    {
      "id": "n-00365",
      "pitch": "F5",
      "midi": 77,
      "start": 69,
      "duration": 0.563,
      "velocity": 0.71
    },
    {
      "id": "n-00366",
      "pitch": "G#3",
      "midi": 56,
      "start": 69.375,
      "duration": 0.375,
      "velocity": 0.71
    },
    {
      "id": "n-00367",
      "pitch": "C#5",
      "midi": 73,
      "start": 69.563,
      "duration": 0.188,
      "velocity": 0.71
    },
    {
      "id": "n-00368",
      "pitch": "C#4",
      "midi": 61,
      "start": 69.75,
      "duration": 1.5,
      "velocity": 0.71
    },
    {
      "id": "n-00369",
      "pitch": "F4",
      "midi": 65,
      "start": 69.75,
      "duration": 1.5,
      "velocity": 0.71
    },
    {
      "id": "n-00370",
      "pitch": "G#4",
      "midi": 68,
      "start": 69.75,
      "duration": 1.5,
      "velocity": 0.71
    },
    {
      "id": "n-00371",
      "pitch": "G#3",
      "midi": 56,
      "start": 70.125,
      "duration": 0.375,
      "velocity": 0.71
    },
    {
      "id": "n-00372",
      "pitch": "G#3",
      "midi": 56,
      "start": 70.5,
      "duration": 0.375,
      "velocity": 0.71
    },
    {
      "id": "n-00373",
      "pitch": "G#3",
      "midi": 56,
      "start": 70.875,
      "duration": 0.375,
      "velocity": 0.71
    },
    {
      "id": "n-00374",
      "pitch": "G#3",
      "midi": 56,
      "start": 71.25,
      "duration": 0.375,
      "velocity": 0.71
    },
    {
      "id": "n-00375",
      "pitch": "A#4",
      "midi": 70,
      "start": 71.25,
      "duration": 0.75,
      "velocity": 0.71
    },
    {
      "id": "n-00376",
      "pitch": "G#3",
      "midi": 56,
      "start": 71.625,
      "duration": 0.375,
      "velocity": 0.71
    },
    {
      "id": "n-00377",
      "pitch": "D#4",
      "midi": 63,
      "start": 72,
      "duration": 1.5,
      "velocity": 0.71
    },
    {
      "id": "n-00378",
      "pitch": "F#4",
      "midi": 66,
      "start": 72,
      "duration": 1.5,
      "velocity": 0.71
    },
    {
      "id": "n-00379",
      "pitch": "C5",
      "midi": 72,
      "start": 72,
      "duration": 2.25,
      "velocity": 0.71
    },
    {
      "id": "n-00380",
      "pitch": "G#3",
      "midi": 56,
      "start": 72.375,
      "duration": 0.375,
      "velocity": 0.71
    },
    {
      "id": "n-00381",
      "pitch": "G#3",
      "midi": 56,
      "start": 72.75,
      "duration": 0.375,
      "velocity": 0.71
    },
    {
      "id": "n-00382",
      "pitch": "G#3",
      "midi": 56,
      "start": 73.125,
      "duration": 0.375,
      "velocity": 0.71
    },
    {
      "id": "n-00383",
      "pitch": "A#3",
      "midi": 58,
      "start": 73.5,
      "duration": 0.375,
      "velocity": 0.71
    },
    {
      "id": "n-00384",
      "pitch": "G#3",
      "midi": 56,
      "start": 73.875,
      "duration": 0.375,
      "velocity": 0.71
    },
    {
      "id": "n-00385",
      "pitch": "C#4",
      "midi": 61,
      "start": 74.25,
      "duration": 0.375,
      "velocity": 0.71
    },
    {
      "id": "n-00386",
      "pitch": "F4",
      "midi": 65,
      "start": 74.25,
      "duration": 0.375,
      "velocity": 0.71
    },
    {
      "id": "n-00387",
      "pitch": "C#5",
      "midi": 73,
      "start": 74.25,
      "duration": 0.75,
      "velocity": 0.71
    },
    {
      "id": "n-00388",
      "pitch": "G#3",
      "midi": 56,
      "start": 74.625,
      "duration": 0.375,
      "velocity": 0.71
    },
    {
      "id": "n-00389",
      "pitch": "C4",
      "midi": 60,
      "start": 75,
      "duration": 2.25,
      "velocity": 0.71
    },
    {
      "id": "n-00390",
      "pitch": "F#4",
      "midi": 66,
      "start": 75,
      "duration": 0.375,
      "velocity": 0.71
    },
    {
      "id": "n-00391",
      "pitch": "D#5",
      "midi": 75,
      "start": 75,
      "duration": 0.563,
      "velocity": 0.71
    },
    {
      "id": "n-00392",
      "pitch": "G#3",
      "midi": 56,
      "start": 75.375,
      "duration": 0.75,
      "velocity": 0.71
    },
    {
      "id": "n-00393",
      "pitch": "G#4",
      "midi": 68,
      "start": 75.563,
      "duration": 0.188,
      "velocity": 0.71
    },
    {
      "id": "n-00394",
      "pitch": "F5",
      "midi": 77,
      "start": 75.563,
      "duration": 0.188,
      "velocity": 0.71
    },
    {
      "id": "n-00395",
      "pitch": "A#4",
      "midi": 70,
      "start": 75.75,
      "duration": 1.5,
      "velocity": 0.71
    },
    {
      "id": "n-00396",
      "pitch": "F#5",
      "midi": 78,
      "start": 75.75,
      "duration": 1.5,
      "velocity": 0.71
    },
    {
      "id": "n-00397",
      "pitch": "G#3",
      "midi": 56,
      "start": 76.125,
      "duration": 0.375,
      "velocity": 0.71
    },
    {
      "id": "n-00398",
      "pitch": "G#3",
      "midi": 56,
      "start": 76.5,
      "duration": 0.375,
      "velocity": 0.71
    },
    {
      "id": "n-00399",
      "pitch": "G#3",
      "midi": 56,
      "start": 76.875,
      "duration": 0.75,
      "velocity": 0.71
    },
    {
      "id": "n-00400",
      "pitch": "D#4",
      "midi": 63,
      "start": 77.25,
      "duration": 0.375,
      "velocity": 0.71
    },
    {
      "id": "n-00401",
      "pitch": "C5",
      "midi": 72,
      "start": 77.25,
      "duration": 0.75,
      "velocity": 0.71
    },
    {
      "id": "n-00402",
      "pitch": "G#3",
      "midi": 56,
      "start": 77.625,
      "duration": 0.375,
      "velocity": 0.71
    },
    {
      "id": "n-00403",
      "pitch": "F#4",
      "midi": 66,
      "start": 78,
      "duration": 1.5,
      "velocity": 0.71
    },
    {
      "id": "n-00404",
      "pitch": "D#5",
      "midi": 75,
      "start": 78,
      "duration": 1.5,
      "velocity": 0.71
    },
    {
      "id": "n-00405",
      "pitch": "G#3",
      "midi": 56,
      "start": 78.375,
      "duration": 0.375,
      "velocity": 0.71
    },
    {
      "id": "n-00406",
      "pitch": "G#3",
      "midi": 56,
      "start": 78.75,
      "duration": 0.375,
      "velocity": 0.71
    },
    {
      "id": "n-00407",
      "pitch": "G#3",
      "midi": 56,
      "start": 79.125,
      "duration": 0.375,
      "velocity": 0.71
    },
    {
      "id": "n-00408",
      "pitch": "G#3",
      "midi": 56,
      "start": 79.5,
      "duration": 0.375,
      "velocity": 0.71
    },
    {
      "id": "n-00409",
      "pitch": "G#3",
      "midi": 56,
      "start": 79.875,
      "duration": 0.375,
      "velocity": 0.71
    },
    {
      "id": "n-00410",
      "pitch": "G#3",
      "midi": 56,
      "start": 80.25,
      "duration": 0.375,
      "velocity": 0.71
    },
    {
      "id": "n-00411",
      "pitch": "G#3",
      "midi": 56,
      "start": 80.625,
      "duration": 0.375,
      "velocity": 0.71
    },
    {
      "id": "n-00412",
      "pitch": "C#2",
      "midi": 37,
      "start": 81,
      "duration": 0.75,
      "velocity": 0.71
    },
    {
      "id": "n-00413",
      "pitch": "G#2",
      "midi": 44,
      "start": 81,
      "duration": 0.75,
      "velocity": 0.71
    },
    {
      "id": "n-00414",
      "pitch": "G#3",
      "midi": 56,
      "start": 81,
      "duration": 0.375,
      "velocity": 0.71
    },
    {
      "id": "n-00415",
      "pitch": "G#3",
      "midi": 56,
      "start": 81.375,
      "duration": 0.375,
      "velocity": 0.71
    },
    {
      "id": "n-00416",
      "pitch": "D#2",
      "midi": 39,
      "start": 81.75,
      "duration": 0.75,
      "velocity": 0.71
    },
    {
      "id": "n-00417",
      "pitch": "G#2",
      "midi": 44,
      "start": 81.75,
      "duration": 0.75,
      "velocity": 0.71
    },
    {
      "id": "n-00418",
      "pitch": "G#3",
      "midi": 56,
      "start": 81.75,
      "duration": 0.375,
      "velocity": 0.71
    },
    {
      "id": "n-00419",
      "pitch": "G#3",
      "midi": 56,
      "start": 82.125,
      "duration": 0.375,
      "velocity": 0.71
    },
    {
      "id": "n-00420",
      "pitch": "E2",
      "midi": 40,
      "start": 82.5,
      "duration": 0.75,
      "velocity": 0.71
    },
    {
      "id": "n-00421",
      "pitch": "C#3",
      "midi": 49,
      "start": 82.5,
      "duration": 0.75,
      "velocity": 0.71
    },
    {
      "id": "n-00422",
      "pitch": "G#3",
      "midi": 56,
      "start": 82.5,
      "duration": 0.375,
      "velocity": 0.71
    },
    {
      "id": "n-00423",
      "pitch": "G#3",
      "midi": 56,
      "start": 82.875,
      "duration": 0.375,
      "velocity": 0.71
    },
    {
      "id": "n-00424",
      "pitch": "D#2",
      "midi": 39,
      "start": 83.25,
      "duration": 0.75,
      "velocity": 0.71
    },
    {
      "id": "n-00425",
      "pitch": "C3",
      "midi": 48,
      "start": 83.25,
      "duration": 0.75,
      "velocity": 0.71
    },
    {
      "id": "n-00426",
      "pitch": "G#3",
      "midi": 56,
      "start": 83.25,
      "duration": 0.375,
      "velocity": 0.71
    },
    {
      "id": "n-00427",
      "pitch": "G#3",
      "midi": 56,
      "start": 83.625,
      "duration": 0.375,
      "velocity": 0.71
    },
    {
      "id": "n-00428",
      "pitch": "D#2",
      "midi": 39,
      "start": 84,
      "duration": 0.75,
      "velocity": 0.71
    },
    {
      "id": "n-00429",
      "pitch": "G#2",
      "midi": 44,
      "start": 84,
      "duration": 0.75,
      "velocity": 0.71
    },
    {
      "id": "n-00430",
      "pitch": "G#3",
      "midi": 56,
      "start": 84,
      "duration": 0.375,
      "velocity": 0.71
    },
    {
      "id": "n-00431",
      "pitch": "G#3",
      "midi": 56,
      "start": 84.375,
      "duration": 0.375,
      "velocity": 0.71
    },
    {
      "id": "n-00432",
      "pitch": "E2",
      "midi": 40,
      "start": 84.75,
      "duration": 0.75,
      "velocity": 0.71
    },
    {
      "id": "n-00433",
      "pitch": "G#2",
      "midi": 44,
      "start": 84.75,
      "duration": 0.75,
      "velocity": 0.71
    },
    {
      "id": "n-00434",
      "pitch": "G#3",
      "midi": 56,
      "start": 84.75,
      "duration": 0.375,
      "velocity": 0.71
    },
    {
      "id": "n-00435",
      "pitch": "G#3",
      "midi": 56,
      "start": 85.125,
      "duration": 0.375,
      "velocity": 0.71
    },
    {
      "id": "n-00436",
      "pitch": "F#2",
      "midi": 42,
      "start": 85.5,
      "duration": 0.75,
      "velocity": 0.71
    },
    {
      "id": "n-00437",
      "pitch": "D#3",
      "midi": 51,
      "start": 85.5,
      "duration": 0.75,
      "velocity": 0.71
    },
    {
      "id": "n-00438",
      "pitch": "G#3",
      "midi": 56,
      "start": 85.5,
      "duration": 0.375,
      "velocity": 0.71
    },
    {
      "id": "n-00439",
      "pitch": "G#3",
      "midi": 56,
      "start": 85.875,
      "duration": 0.375,
      "velocity": 0.71
    },
    {
      "id": "n-00440",
      "pitch": "E2",
      "midi": 40,
      "start": 86.25,
      "duration": 0.75,
      "velocity": 0.71
    },
    {
      "id": "n-00441",
      "pitch": "C#3",
      "midi": 49,
      "start": 86.25,
      "duration": 0.75,
      "velocity": 0.71
    },
    {
      "id": "n-00442",
      "pitch": "G#3",
      "midi": 56,
      "start": 86.25,
      "duration": 0.375,
      "velocity": 0.71
    },
    {
      "id": "n-00443",
      "pitch": "G#3",
      "midi": 56,
      "start": 86.625,
      "duration": 0.375,
      "velocity": 0.71
    },
    {
      "id": "n-00444",
      "pitch": "E2",
      "midi": 40,
      "start": 87,
      "duration": 0.75,
      "velocity": 0.71
    },
    {
      "id": "n-00445",
      "pitch": "C#3",
      "midi": 49,
      "start": 87,
      "duration": 0.75,
      "velocity": 0.71
    },
    {
      "id": "n-00446",
      "pitch": "G#3",
      "midi": 56,
      "start": 87,
      "duration": 0.375,
      "velocity": 0.71
    },
    {
      "id": "n-00447",
      "pitch": "G#3",
      "midi": 56,
      "start": 87.375,
      "duration": 0.375,
      "velocity": 0.71
    },
    {
      "id": "n-00448",
      "pitch": "G#2",
      "midi": 44,
      "start": 87.75,
      "duration": 0.75,
      "velocity": 0.71
    },
    {
      "id": "n-00449",
      "pitch": "D#3",
      "midi": 51,
      "start": 87.75,
      "duration": 0.75,
      "velocity": 0.71
    },
    {
      "id": "n-00450",
      "pitch": "G#3",
      "midi": 56,
      "start": 87.75,
      "duration": 0.375,
      "velocity": 0.71
    },
    {
      "id": "n-00451",
      "pitch": "G#3",
      "midi": 56,
      "start": 88.125,
      "duration": 0.375,
      "velocity": 0.71
    },
    {
      "id": "n-00452",
      "pitch": "C#3",
      "midi": 49,
      "start": 88.5,
      "duration": 0.75,
      "velocity": 0.71
    },
    {
      "id": "n-00453",
      "pitch": "E3",
      "midi": 52,
      "start": 88.5,
      "duration": 0.75,
      "velocity": 0.71
    },
    {
      "id": "n-00454",
      "pitch": "G#3",
      "midi": 56,
      "start": 88.5,
      "duration": 0.375,
      "velocity": 0.71
    },
    {
      "id": "n-00455",
      "pitch": "G#3",
      "midi": 56,
      "start": 88.875,
      "duration": 0.375,
      "velocity": 0.71
    },
    {
      "id": "n-00456",
      "pitch": "G#2",
      "midi": 44,
      "start": 89.25,
      "duration": 0.75,
      "velocity": 0.71
    },
    {
      "id": "n-00457",
      "pitch": "D#3",
      "midi": 51,
      "start": 89.25,
      "duration": 0.75,
      "velocity": 0.71
    },
    {
      "id": "n-00458",
      "pitch": "G#3",
      "midi": 56,
      "start": 89.25,
      "duration": 0.375,
      "velocity": 0.71
    },
    {
      "id": "n-00459",
      "pitch": "G#3",
      "midi": 56,
      "start": 89.625,
      "duration": 0.375,
      "velocity": 0.71
    },
    {
      "id": "n-00460",
      "pitch": "G#2",
      "midi": 44,
      "start": 90,
      "duration": 3.75,
      "velocity": 0.71
    },
    {
      "id": "n-00461",
      "pitch": "D#3",
      "midi": 51,
      "start": 90,
      "duration": 3.75,
      "velocity": 0.71
    },
    {
      "id": "n-00462",
      "pitch": "G#3",
      "midi": 56,
      "start": 90,
      "duration": 0.375,
      "velocity": 0.71
    },
    {
      "id": "n-00463",
      "pitch": "G#3",
      "midi": 56,
      "start": 90.375,
      "duration": 0.375,
      "velocity": 0.71
    },
    {
      "id": "n-00464",
      "pitch": "G#3",
      "midi": 56,
      "start": 90.75,
      "duration": 0.375,
      "velocity": 0.71
    },
    {
      "id": "n-00465",
      "pitch": "G#3",
      "midi": 56,
      "start": 91.125,
      "duration": 0.375,
      "velocity": 0.71
    },
    {
      "id": "n-00466",
      "pitch": "G#3",
      "midi": 56,
      "start": 91.5,
      "duration": 0.375,
      "velocity": 0.71
    },
    {
      "id": "n-00467",
      "pitch": "G#3",
      "midi": 56,
      "start": 91.875,
      "duration": 0.375,
      "velocity": 0.71
    },
    {
      "id": "n-00468",
      "pitch": "G#3",
      "midi": 56,
      "start": 92.25,
      "duration": 0.375,
      "velocity": 0.71
    },
    {
      "id": "n-00469",
      "pitch": "G#3",
      "midi": 56,
      "start": 92.625,
      "duration": 0.375,
      "velocity": 0.71
    },
    {
      "id": "n-00470",
      "pitch": "G#3",
      "midi": 56,
      "start": 93,
      "duration": 0.375,
      "velocity": 0.71
    },
    {
      "id": "n-00471",
      "pitch": "G#3",
      "midi": 56,
      "start": 93.375,
      "duration": 0.375,
      "velocity": 0.71
    },
    {
      "id": "n-00472",
      "pitch": "C#3",
      "midi": 49,
      "start": 93.75,
      "duration": 0.75,
      "velocity": 0.71
    },
    {
      "id": "n-00473",
      "pitch": "E3",
      "midi": 52,
      "start": 93.75,
      "duration": 0.75,
      "velocity": 0.71
    },
    {
      "id": "n-00474",
      "pitch": "G#3",
      "midi": 56,
      "start": 93.75,
      "duration": 0.375,
      "velocity": 0.71
    },
    {
      "id": "n-00475",
      "pitch": "G#3",
      "midi": 56,
      "start": 94.125,
      "duration": 0.375,
      "velocity": 0.71
    },
    {
      "id": "n-00476",
      "pitch": "G#2",
      "midi": 44,
      "start": 94.5,
      "duration": 0.75,
      "velocity": 0.71
    },
    {
      "id": "n-00477",
      "pitch": "D#3",
      "midi": 51,
      "start": 94.5,
      "duration": 0.75,
      "velocity": 0.71
    },
    {
      "id": "n-00478",
      "pitch": "G#3",
      "midi": 56,
      "start": 94.5,
      "duration": 0.375,
      "velocity": 0.71
    },
    {
      "id": "n-00479",
      "pitch": "G#3",
      "midi": 56,
      "start": 94.875,
      "duration": 0.375,
      "velocity": 0.71
    },
    {
      "id": "n-00480",
      "pitch": "E2",
      "midi": 40,
      "start": 95.25,
      "duration": 0.75,
      "velocity": 0.71
    },
    {
      "id": "n-00481",
      "pitch": "C#3",
      "midi": 49,
      "start": 95.25,
      "duration": 0.75,
      "velocity": 0.71
    },
    {
      "id": "n-00482",
      "pitch": "G#3",
      "midi": 56,
      "start": 95.25,
      "duration": 0.375,
      "velocity": 0.71
    },
    {
      "id": "n-00483",
      "pitch": "G#3",
      "midi": 56,
      "start": 95.625,
      "duration": 0.375,
      "velocity": 0.71
    },
    {
      "id": "n-00484",
      "pitch": "G#2",
      "midi": 44,
      "start": 96,
      "duration": 0.75,
      "velocity": 0.71
    },
    {
      "id": "n-00485",
      "pitch": "D#3",
      "midi": 51,
      "start": 96,
      "duration": 0.75,
      "velocity": 0.71
    },
    {
      "id": "n-00486",
      "pitch": "G#3",
      "midi": 56,
      "start": 96,
      "duration": 0.375,
      "velocity": 0.71
    },
    {
      "id": "n-00487",
      "pitch": "G#3",
      "midi": 56,
      "start": 96.375,
      "duration": 0.375,
      "velocity": 0.71
    },
    {
      "id": "n-00488",
      "pitch": "E2",
      "midi": 40,
      "start": 96.75,
      "duration": 0.75,
      "velocity": 0.71
    },
    {
      "id": "n-00489",
      "pitch": "C#3",
      "midi": 49,
      "start": 96.75,
      "duration": 0.75,
      "velocity": 0.71
    },
    {
      "id": "n-00490",
      "pitch": "G#3",
      "midi": 56,
      "start": 96.75,
      "duration": 0.375,
      "velocity": 0.71
    },
    {
      "id": "n-00491",
      "pitch": "G#3",
      "midi": 56,
      "start": 97.125,
      "duration": 0.375,
      "velocity": 0.71
    },
    {
      "id": "n-00492",
      "pitch": "D#2",
      "midi": 39,
      "start": 97.5,
      "duration": 0.75,
      "velocity": 0.71
    },
    {
      "id": "n-00493",
      "pitch": "C3",
      "midi": 48,
      "start": 97.5,
      "duration": 0.75,
      "velocity": 0.71
    },
    {
      "id": "n-00494",
      "pitch": "G#3",
      "midi": 56,
      "start": 97.5,
      "duration": 0.375,
      "velocity": 0.71
    },
    {
      "id": "n-00495",
      "pitch": "G#3",
      "midi": 56,
      "start": 97.875,
      "duration": 0.375,
      "velocity": 0.71
    },
    {
      "id": "n-00496",
      "pitch": "E2",
      "midi": 40,
      "start": 98.25,
      "duration": 0.75,
      "velocity": 0.71
    },
    {
      "id": "n-00497",
      "pitch": "C#3",
      "midi": 49,
      "start": 98.25,
      "duration": 0.75,
      "velocity": 0.71
    },
    {
      "id": "n-00498",
      "pitch": "G#3",
      "midi": 56,
      "start": 98.25,
      "duration": 0.375,
      "velocity": 0.71
    },
    {
      "id": "n-00499",
      "pitch": "G#3",
      "midi": 56,
      "start": 98.625,
      "duration": 0.375,
      "velocity": 0.71
    },
    {
      "id": "n-00500",
      "pitch": "D#2",
      "midi": 39,
      "start": 99,
      "duration": 0.75,
      "velocity": 0.71
    },
    {
      "id": "n-00501",
      "pitch": "C3",
      "midi": 48,
      "start": 99,
      "duration": 0.75,
      "velocity": 0.71
    },
    {
      "id": "n-00502",
      "pitch": "G#3",
      "midi": 56,
      "start": 99,
      "duration": 0.375,
      "velocity": 0.71
    },
    {
      "id": "n-00503",
      "pitch": "G#3",
      "midi": 56,
      "start": 99.375,
      "duration": 0.375,
      "velocity": 0.71
    },
    {
      "id": "n-00504",
      "pitch": "E2",
      "midi": 40,
      "start": 99.75,
      "duration": 0.75,
      "velocity": 0.71
    },
    {
      "id": "n-00505",
      "pitch": "C#3",
      "midi": 49,
      "start": 99.75,
      "duration": 0.75,
      "velocity": 0.71
    },
    {
      "id": "n-00506",
      "pitch": "G#3",
      "midi": 56,
      "start": 99.75,
      "duration": 0.375,
      "velocity": 0.71
    },
    {
      "id": "n-00507",
      "pitch": "G#3",
      "midi": 56,
      "start": 100.125,
      "duration": 0.375,
      "velocity": 0.71
    },
    {
      "id": "n-00508",
      "pitch": "D#2",
      "midi": 39,
      "start": 100.5,
      "duration": 0.75,
      "velocity": 0.71
    },
    {
      "id": "n-00509",
      "pitch": "D#3",
      "midi": 51,
      "start": 100.5,
      "duration": 0.75,
      "velocity": 0.71
    },
    {
      "id": "n-00510",
      "pitch": "G#3",
      "midi": 56,
      "start": 100.5,
      "duration": 0.375,
      "velocity": 0.71
    },
    {
      "id": "n-00511",
      "pitch": "G#3",
      "midi": 56,
      "start": 100.875,
      "duration": 0.375,
      "velocity": 0.71
    },
    {
      "id": "n-00512",
      "pitch": "C#2",
      "midi": 37,
      "start": 101.25,
      "duration": 0.75,
      "velocity": 0.71
    },
    {
      "id": "n-00513",
      "pitch": "E3",
      "midi": 52,
      "start": 101.25,
      "duration": 0.75,
      "velocity": 0.71
    },
    {
      "id": "n-00514",
      "pitch": "G#3",
      "midi": 56,
      "start": 101.25,
      "duration": 0.375,
      "velocity": 0.71
    },
    {
      "id": "n-00515",
      "pitch": "G#3",
      "midi": 56,
      "start": 101.625,
      "duration": 0.375,
      "velocity": 0.71
    },
    {
      "id": "n-00516",
      "pitch": "G#2",
      "midi": 44,
      "start": 102,
      "duration": 3,
      "velocity": 0.71
    },
    {
      "id": "n-00517",
      "pitch": "D#3",
      "midi": 51,
      "start": 102,
      "duration": 3,
      "velocity": 0.71
    },
    {
      "id": "n-00518",
      "pitch": "G#3",
      "midi": 56,
      "start": 102,
      "duration": 0.375,
      "velocity": 0.71
    },
    {
      "id": "n-00519",
      "pitch": "G#3",
      "midi": 56,
      "start": 102.375,
      "duration": 0.375,
      "velocity": 0.71
    },
    {
      "id": "n-00520",
      "pitch": "G#4",
      "midi": 68,
      "start": 102.375,
      "duration": 0.375,
      "velocity": 0.71
    },
    {
      "id": "n-00521",
      "pitch": "G#3",
      "midi": 56,
      "start": 102.75,
      "duration": 0.375,
      "velocity": 0.71
    },
    {
      "id": "n-00522",
      "pitch": "G#4",
      "midi": 68,
      "start": 102.75,
      "duration": 0.375,
      "velocity": 0.71
    },
    {
      "id": "n-00523",
      "pitch": "G#3",
      "midi": 56,
      "start": 103.125,
      "duration": 0.375,
      "velocity": 0.71
    },
    {
      "id": "n-00524",
      "pitch": "G#4",
      "midi": 68,
      "start": 103.125,
      "duration": 0.375,
      "velocity": 0.71
    },
    {
      "id": "n-00525",
      "pitch": "G#3",
      "midi": 56,
      "start": 103.5,
      "duration": 0.375,
      "velocity": 0.71
    },
    {
      "id": "n-00526",
      "pitch": "G#4",
      "midi": 68,
      "start": 103.5,
      "duration": 0.375,
      "velocity": 0.71
    },
    {
      "id": "n-00527",
      "pitch": "G#3",
      "midi": 56,
      "start": 103.875,
      "duration": 0.375,
      "velocity": 0.71
    },
    {
      "id": "n-00528",
      "pitch": "G#4",
      "midi": 68,
      "start": 103.875,
      "duration": 0.375,
      "velocity": 0.71
    },
    {
      "id": "n-00529",
      "pitch": "G#3",
      "midi": 56,
      "start": 104.25,
      "duration": 0.375,
      "velocity": 0.71
    },
    {
      "id": "n-00530",
      "pitch": "G#4",
      "midi": 68,
      "start": 104.25,
      "duration": 0.375,
      "velocity": 0.71
    },
    {
      "id": "n-00531",
      "pitch": "G#3",
      "midi": 56,
      "start": 104.625,
      "duration": 0.375,
      "velocity": 0.71
    },
    {
      "id": "n-00532",
      "pitch": "G#4",
      "midi": 68,
      "start": 104.625,
      "duration": 0.375,
      "velocity": 0.71
    },
    {
      "id": "n-00533",
      "pitch": "C#2",
      "midi": 37,
      "start": 105,
      "duration": 0.75,
      "velocity": 0.71
    },
    {
      "id": "n-00534",
      "pitch": "G#2",
      "midi": 44,
      "start": 105,
      "duration": 0.75,
      "velocity": 0.71
    },
    {
      "id": "n-00535",
      "pitch": "G#3",
      "midi": 56,
      "start": 105,
      "duration": 0.375,
      "velocity": 0.71
    },
    {
      "id": "n-00536",
      "pitch": "G#4",
      "midi": 68,
      "start": 105,
      "duration": 0.375,
      "velocity": 0.71
    },
    {
      "id": "n-00537",
      "pitch": "G#3",
      "midi": 56,
      "start": 105.375,
      "duration": 0.375,
      "velocity": 0.71
    },
    {
      "id": "n-00538",
      "pitch": "G#4",
      "midi": 68,
      "start": 105.375,
      "duration": 0.375,
      "velocity": 0.71
    },
    {
      "id": "n-00539",
      "pitch": "D#2",
      "midi": 39,
      "start": 105.75,
      "duration": 0.75,
      "velocity": 0.71
    },
    {
      "id": "n-00540",
      "pitch": "G#2",
      "midi": 44,
      "start": 105.75,
      "duration": 0.75,
      "velocity": 0.71
    },
    {
      "id": "n-00541",
      "pitch": "G#3",
      "midi": 56,
      "start": 105.75,
      "duration": 0.375,
      "velocity": 0.71
    },
    {
      "id": "n-00542",
      "pitch": "G#4",
      "midi": 68,
      "start": 105.75,
      "duration": 0.375,
      "velocity": 0.71
    },
    {
      "id": "n-00543",
      "pitch": "G#3",
      "midi": 56,
      "start": 106.125,
      "duration": 0.375,
      "velocity": 0.71
    },
    {
      "id": "n-00544",
      "pitch": "G#4",
      "midi": 68,
      "start": 106.125,
      "duration": 0.375,
      "velocity": 0.71
    },
    {
      "id": "n-00545",
      "pitch": "E2",
      "midi": 40,
      "start": 106.5,
      "duration": 0.75,
      "velocity": 0.71
    },
    {
      "id": "n-00546",
      "pitch": "C#3",
      "midi": 49,
      "start": 106.5,
      "duration": 0.75,
      "velocity": 0.71
    },
    {
      "id": "n-00547",
      "pitch": "G#3",
      "midi": 56,
      "start": 106.5,
      "duration": 0.375,
      "velocity": 0.71
    },
    {
      "id": "n-00548",
      "pitch": "C#4",
      "midi": 61,
      "start": 106.5,
      "duration": 0.75,
      "velocity": 0.71
    },
    {
      "id": "n-00549",
      "pitch": "G#4",
      "midi": 68,
      "start": 106.5,
      "duration": 0.375,
      "velocity": 0.71
    },
    {
      "id": "n-00550",
      "pitch": "G#3",
      "midi": 56,
      "start": 106.875,
      "duration": 0.375,
      "velocity": 0.71
    },
    {
      "id": "n-00551",
      "pitch": "G#4",
      "midi": 68,
      "start": 106.875,
      "duration": 0.375,
      "velocity": 0.71
    },
    {
      "id": "n-00552",
      "pitch": "D#2",
      "midi": 39,
      "start": 107.25,
      "duration": 0.75,
      "velocity": 0.71
    },
    {
      "id": "n-00553",
      "pitch": "C3",
      "midi": 48,
      "start": 107.25,
      "duration": 0.75,
      "velocity": 0.71
    },
    {
      "id": "n-00554",
      "pitch": "G#3",
      "midi": 56,
      "start": 107.25,
      "duration": 0.375,
      "velocity": 0.71
    },
    {
      "id": "n-00555",
      "pitch": "C4",
      "midi": 60,
      "start": 107.25,
      "duration": 0.75,
      "velocity": 0.71
    },
    {
      "id": "n-00556",
      "pitch": "G#4",
      "midi": 68,
      "start": 107.25,
      "duration": 0.375,
      "velocity": 0.71
    },
    {
      "id": "n-00557",
      "pitch": "G#3",
      "midi": 56,
      "start": 107.625,
      "duration": 0.375,
      "velocity": 0.71
    },
    {
      "id": "n-00558",
      "pitch": "G#4",
      "midi": 68,
      "start": 107.625,
      "duration": 0.375,
      "velocity": 0.71
    },
    {
      "id": "n-00559",
      "pitch": "D#2",
      "midi": 39,
      "start": 108,
      "duration": 0.75,
      "velocity": 0.71
    },
    {
      "id": "n-00560",
      "pitch": "G#2",
      "midi": 44,
      "start": 108,
      "duration": 0.75,
      "velocity": 0.71
    },
    {
      "id": "n-00561",
      "pitch": "G#3",
      "midi": 56,
      "start": 108,
      "duration": 0.375,
      "velocity": 0.71
    },
    {
      "id": "n-00562",
      "pitch": "G#4",
      "midi": 68,
      "start": 108,
      "duration": 0.375,
      "velocity": 0.71
    },
    {
      "id": "n-00563",
      "pitch": "G#3",
      "midi": 56,
      "start": 108.375,
      "duration": 0.375,
      "velocity": 0.71
    },
    {
      "id": "n-00564",
      "pitch": "G#4",
      "midi": 68,
      "start": 108.375,
      "duration": 0.375,
      "velocity": 0.71
    },
    {
      "id": "n-00565",
      "pitch": "E2",
      "midi": 40,
      "start": 108.75,
      "duration": 0.75,
      "velocity": 0.71
    },
    {
      "id": "n-00566",
      "pitch": "G#2",
      "midi": 44,
      "start": 108.75,
      "duration": 0.75,
      "velocity": 0.71
    },
    {
      "id": "n-00567",
      "pitch": "G#3",
      "midi": 56,
      "start": 108.75,
      "duration": 0.375,
      "velocity": 0.71
    },
    {
      "id": "n-00568",
      "pitch": "G#4",
      "midi": 68,
      "start": 108.75,
      "duration": 0.375,
      "velocity": 0.71
    },
    {
      "id": "n-00569",
      "pitch": "G#3",
      "midi": 56,
      "start": 109.125,
      "duration": 0.375,
      "velocity": 0.71
    },
    {
      "id": "n-00570",
      "pitch": "G#4",
      "midi": 68,
      "start": 109.125,
      "duration": 0.375,
      "velocity": 0.71
    },
    {
      "id": "n-00571",
      "pitch": "F#2",
      "midi": 42,
      "start": 109.5,
      "duration": 0.75,
      "velocity": 0.71
    },
    {
      "id": "n-00572",
      "pitch": "D#3",
      "midi": 51,
      "start": 109.5,
      "duration": 0.75,
      "velocity": 0.71
    },
    {
      "id": "n-00573",
      "pitch": "G#3",
      "midi": 56,
      "start": 109.5,
      "duration": 0.375,
      "velocity": 0.71
    },
    {
      "id": "n-00574",
      "pitch": "D#4",
      "midi": 63,
      "start": 109.5,
      "duration": 0.75,
      "velocity": 0.71
    },
    {
      "id": "n-00575",
      "pitch": "G#4",
      "midi": 68,
      "start": 109.5,
      "duration": 0.375,
      "velocity": 0.71
    },
    {
      "id": "n-00576",
      "pitch": "G#3",
      "midi": 56,
      "start": 109.875,
      "duration": 0.375,
      "velocity": 0.71
    },
    {
      "id": "n-00577",
      "pitch": "G#4",
      "midi": 68,
      "start": 109.875,
      "duration": 0.375,
      "velocity": 0.71
    },
    {
      "id": "n-00578",
      "pitch": "E2",
      "midi": 40,
      "start": 110.25,
      "duration": 0.75,
      "velocity": 0.71
    },
    {
      "id": "n-00579",
      "pitch": "C#3",
      "midi": 49,
      "start": 110.25,
      "duration": 0.75,
      "velocity": 0.71
    },
    {
      "id": "n-00580",
      "pitch": "G#3",
      "midi": 56,
      "start": 110.25,
      "duration": 0.375,
      "velocity": 0.71
    },
    {
      "id": "n-00581",
      "pitch": "C#4",
      "midi": 61,
      "start": 110.25,
      "duration": 1.5,
      "velocity": 0.71
    },
    {
      "id": "n-00582",
      "pitch": "G#4",
      "midi": 68,
      "start": 110.25,
      "duration": 0.375,
      "velocity": 0.71
    },
    {
      "id": "n-00583",
      "pitch": "G#3",
      "midi": 56,
      "start": 110.625,
      "duration": 0.375,
      "velocity": 0.71
    },
    {
      "id": "n-00584",
      "pitch": "G#4",
      "midi": 68,
      "start": 110.625,
      "duration": 0.375,
      "velocity": 0.71
    },
    {
      "id": "n-00585",
      "pitch": "E2",
      "midi": 40,
      "start": 111,
      "duration": 0.75,
      "velocity": 0.71
    },
    {
      "id": "n-00586",
      "pitch": "C#3",
      "midi": 49,
      "start": 111,
      "duration": 0.75,
      "velocity": 0.71
    },
    {
      "id": "n-00587",
      "pitch": "G#3",
      "midi": 56,
      "start": 111,
      "duration": 0.375,
      "velocity": 0.71
    },
    {
      "id": "n-00588",
      "pitch": "G#4",
      "midi": 68,
      "start": 111,
      "duration": 0.375,
      "velocity": 0.71
    },
    {
      "id": "n-00589",
      "pitch": "G#3",
      "midi": 56,
      "start": 111.375,
      "duration": 0.375,
      "velocity": 0.71
    },
    {
      "id": "n-00590",
      "pitch": "G#4",
      "midi": 68,
      "start": 111.375,
      "duration": 0.375,
      "velocity": 0.71
    },
    {
      "id": "n-00591",
      "pitch": "G#2",
      "midi": 44,
      "start": 111.75,
      "duration": 0.75,
      "velocity": 0.71
    },
    {
      "id": "n-00592",
      "pitch": "D#3",
      "midi": 51,
      "start": 111.75,
      "duration": 0.75,
      "velocity": 0.71
    },
    {
      "id": "n-00593",
      "pitch": "G#3",
      "midi": 56,
      "start": 111.75,
      "duration": 0.375,
      "velocity": 0.71
    },
    {
      "id": "n-00594",
      "pitch": "D#4",
      "midi": 63,
      "start": 111.75,
      "duration": 0.75,
      "velocity": 0.71
    },
    {
      "id": "n-00595",
      "pitch": "G#4",
      "midi": 68,
      "start": 111.75,
      "duration": 0.375,
      "velocity": 0.71
    },
    {
      "id": "n-00596",
      "pitch": "G#3",
      "midi": 56,
      "start": 112.125,
      "duration": 0.375,
      "velocity": 0.71
    },
    {
      "id": "n-00597",
      "pitch": "G#4",
      "midi": 68,
      "start": 112.125,
      "duration": 0.375,
      "velocity": 0.71
    },
    {
      "id": "n-00598",
      "pitch": "C#3",
      "midi": 49,
      "start": 112.5,
      "duration": 0.75,
      "velocity": 0.71
    },
    {
      "id": "n-00599",
      "pitch": "E3",
      "midi": 52,
      "start": 112.5,
      "duration": 0.75,
      "velocity": 0.71
    },
    {
      "id": "n-00600",
      "pitch": "G#3",
      "midi": 56,
      "start": 112.5,
      "duration": 0.375,
      "velocity": 0.71
    },
    {
      "id": "n-00601",
      "pitch": "E4",
      "midi": 64,
      "start": 112.5,
      "duration": 0.75,
      "velocity": 0.71
    },
    {
      "id": "n-00602",
      "pitch": "G#4",
      "midi": 68,
      "start": 112.5,
      "duration": 0.375,
      "velocity": 0.71
    },
    {
      "id": "n-00603",
      "pitch": "G#3",
      "midi": 56,
      "start": 112.875,
      "duration": 0.375,
      "velocity": 0.71
    },
    {
      "id": "n-00604",
      "pitch": "G#4",
      "midi": 68,
      "start": 112.875,
      "duration": 0.375,
      "velocity": 0.71
    },
    {
      "id": "n-00605",
      "pitch": "G#2",
      "midi": 44,
      "start": 113.25,
      "duration": 0.664,
      "velocity": 0.71
    },
    {
      "id": "n-00606",
      "pitch": "D#3",
      "midi": 51,
      "start": 113.25,
      "duration": 0.664,
      "velocity": 0.71
    },
    {
      "id": "n-00607",
      "pitch": "G#3",
      "midi": 56,
      "start": 113.25,
      "duration": 0.375,
      "velocity": 0.71
    },
    {
      "id": "n-00608",
      "pitch": "D#4",
      "midi": 63,
      "start": 113.25,
      "duration": 0.75,
      "velocity": 0.71
    },
    {
      "id": "n-00609",
      "pitch": "G#4",
      "midi": 68,
      "start": 113.25,
      "duration": 0.375,
      "velocity": 0.71
    },
    {
      "id": "n-00610",
      "pitch": "G#3",
      "midi": 56,
      "start": 113.625,
      "duration": 0.375,
      "velocity": 0.71
    },
    {
      "id": "n-00611",
      "pitch": "G#4",
      "midi": 68,
      "start": 113.625,
      "duration": 0.375,
      "velocity": 0.71
    },
    {
      "id": "n-00612",
      "pitch": "G#1",
      "midi": 32,
      "start": 113.914,
      "duration": 0.084,
      "velocity": 0.71
    },
    {
      "id": "n-00613",
      "pitch": "G#2",
      "midi": 44,
      "start": 114,
      "duration": 3,
      "velocity": 0.71
    },
    {
      "id": "n-00614",
      "pitch": "D#3",
      "midi": 51,
      "start": 114,
      "duration": 3,
      "velocity": 0.71
    },
    {
      "id": "n-00615",
      "pitch": "G#3",
      "midi": 56,
      "start": 114,
      "duration": 0.375,
      "velocity": 0.71
    },
    {
      "id": "n-00616",
      "pitch": "D#4",
      "midi": 63,
      "start": 114,
      "duration": 3,
      "velocity": 0.71
    },
    {
      "id": "n-00617",
      "pitch": "G#4",
      "midi": 68,
      "start": 114,
      "duration": 0.375,
      "velocity": 0.71
    },
    {
      "id": "n-00618",
      "pitch": "G#3",
      "midi": 56,
      "start": 114.375,
      "duration": 0.375,
      "velocity": 0.71
    },
    {
      "id": "n-00619",
      "pitch": "G#4",
      "midi": 68,
      "start": 114.375,
      "duration": 0.375,
      "velocity": 0.71
    },
    {
      "id": "n-00620",
      "pitch": "G#3",
      "midi": 56,
      "start": 114.75,
      "duration": 0.375,
      "velocity": 0.71
    },
    {
      "id": "n-00621",
      "pitch": "G#4",
      "midi": 68,
      "start": 114.75,
      "duration": 0.375,
      "velocity": 0.71
    },
    {
      "id": "n-00622",
      "pitch": "G#3",
      "midi": 56,
      "start": 115.125,
      "duration": 0.375,
      "velocity": 0.71
    },
    {
      "id": "n-00623",
      "pitch": "G#4",
      "midi": 68,
      "start": 115.125,
      "duration": 0.375,
      "velocity": 0.71
    },
    {
      "id": "n-00624",
      "pitch": "G#3",
      "midi": 56,
      "start": 115.5,
      "duration": 0.375,
      "velocity": 0.71
    },
    {
      "id": "n-00625",
      "pitch": "G#4",
      "midi": 68,
      "start": 115.5,
      "duration": 0.375,
      "velocity": 0.71
    },
    {
      "id": "n-00626",
      "pitch": "G#3",
      "midi": 56,
      "start": 115.875,
      "duration": 0.375,
      "velocity": 0.71
    },
    {
      "id": "n-00627",
      "pitch": "G#4",
      "midi": 68,
      "start": 115.875,
      "duration": 0.375,
      "velocity": 0.71
    },
    {
      "id": "n-00628",
      "pitch": "G#3",
      "midi": 56,
      "start": 116.25,
      "duration": 0.375,
      "velocity": 0.71
    },
    {
      "id": "n-00629",
      "pitch": "G#4",
      "midi": 68,
      "start": 116.25,
      "duration": 0.375,
      "velocity": 0.71
    },
    {
      "id": "n-00630",
      "pitch": "G#3",
      "midi": 56,
      "start": 116.625,
      "duration": 0.375,
      "velocity": 0.71
    },
    {
      "id": "n-00631",
      "pitch": "G#4",
      "midi": 68,
      "start": 116.625,
      "duration": 0.375,
      "velocity": 0.71
    },
    {
      "id": "n-00632",
      "pitch": "E1",
      "midi": 28,
      "start": 117,
      "duration": 1.5,
      "velocity": 0.71
    },
    {
      "id": "n-00633",
      "pitch": "E2",
      "midi": 40,
      "start": 117,
      "duration": 1.5,
      "velocity": 0.71
    },
    {
      "id": "n-00634",
      "pitch": "B3",
      "midi": 59,
      "start": 117,
      "duration": 0.375,
      "velocity": 0.71
    },
    {
      "id": "n-00635",
      "pitch": "E4",
      "midi": 64,
      "start": 117,
      "duration": 1.5,
      "velocity": 0.71
    },
    {
      "id": "n-00636",
      "pitch": "G#4",
      "midi": 68,
      "start": 117,
      "duration": 1.5,
      "velocity": 0.71
    },
    {
      "id": "n-00637",
      "pitch": "B4",
      "midi": 71,
      "start": 117,
      "duration": 0.375,
      "velocity": 0.71
    },
    {
      "id": "n-00638",
      "pitch": "B3",
      "midi": 59,
      "start": 117.375,
      "duration": 0.375,
      "velocity": 0.71
    },
    {
      "id": "n-00639",
      "pitch": "B4",
      "midi": 71,
      "start": 117.375,
      "duration": 0.375,
      "velocity": 0.71
    },
    {
      "id": "n-00640",
      "pitch": "B3",
      "midi": 59,
      "start": 117.75,
      "duration": 0.375,
      "velocity": 0.71
    },
    {
      "id": "n-00641",
      "pitch": "B4",
      "midi": 71,
      "start": 117.75,
      "duration": 0.375,
      "velocity": 0.71
    },
    {
      "id": "n-00642",
      "pitch": "B3",
      "midi": 59,
      "start": 118.125,
      "duration": 0.375,
      "velocity": 0.71
    },
    {
      "id": "n-00643",
      "pitch": "B4",
      "midi": 71,
      "start": 118.125,
      "duration": 0.375,
      "velocity": 0.71
    },
    {
      "id": "n-00644",
      "pitch": "B1",
      "midi": 35,
      "start": 118.5,
      "duration": 1.5,
      "velocity": 0.71
    },
    {
      "id": "n-00645",
      "pitch": "B2",
      "midi": 47,
      "start": 118.5,
      "duration": 1.5,
      "velocity": 0.71
    },
    {
      "id": "n-00646",
      "pitch": "B3",
      "midi": 59,
      "start": 118.5,
      "duration": 0.375,
      "velocity": 0.71
    },
    {
      "id": "n-00647",
      "pitch": "D#4",
      "midi": 63,
      "start": 118.5,
      "duration": 1.5,
      "velocity": 0.71
    },
    {
      "id": "n-00648",
      "pitch": "G#4",
      "midi": 68,
      "start": 118.5,
      "duration": 1.5,
      "velocity": 0.71
    },
    {
      "id": "n-00649",
      "pitch": "B4",
      "midi": 71,
      "start": 118.5,
      "duration": 0.375,
      "velocity": 0.71
    },
    {
      "id": "n-00650",
      "pitch": "B3",
      "midi": 59,
      "start": 118.875,
      "duration": 0.375,
      "velocity": 0.71
    },
    {
      "id": "n-00651",
      "pitch": "B4",
      "midi": 71,
      "start": 118.875,
      "duration": 0.375,
      "velocity": 0.71
    },
    {
      "id": "n-00652",
      "pitch": "B3",
      "midi": 59,
      "start": 119.25,
      "duration": 0.375,
      "velocity": 0.71
    },
    {
      "id": "n-00653",
      "pitch": "B4",
      "midi": 71,
      "start": 119.25,
      "duration": 0.375,
      "velocity": 0.71
    },
    {
      "id": "n-00654",
      "pitch": "B3",
      "midi": 59,
      "start": 119.625,
      "duration": 0.375,
      "velocity": 0.71
    },
    {
      "id": "n-00655",
      "pitch": "B4",
      "midi": 71,
      "start": 119.625,
      "duration": 0.375,
      "velocity": 0.71
    },
    {
      "id": "n-00656",
      "pitch": "E1",
      "midi": 28,
      "start": 120,
      "duration": 1.5,
      "velocity": 0.71
    },
    {
      "id": "n-00657",
      "pitch": "E2",
      "midi": 40,
      "start": 120,
      "duration": 1.5,
      "velocity": 0.71
    },
    {
      "id": "n-00658",
      "pitch": "B3",
      "midi": 59,
      "start": 120,
      "duration": 0.375,
      "velocity": 0.71
    },
    {
      "id": "n-00659",
      "pitch": "E4",
      "midi": 64,
      "start": 120,
      "duration": 1.5,
      "velocity": 0.71
    },
    {
      "id": "n-00660",
      "pitch": "G#4",
      "midi": 68,
      "start": 120,
      "duration": 1.5,
      "velocity": 0.71
    },
    {
      "id": "n-00661",
      "pitch": "B4",
      "midi": 71,
      "start": 120,
      "duration": 0.375,
      "velocity": 0.71
    },
    {
      "id": "n-00662",
      "pitch": "B3",
      "midi": 59,
      "start": 120.375,
      "duration": 0.375,
      "velocity": 0.71
    },
    {
      "id": "n-00663",
      "pitch": "B4",
      "midi": 71,
      "start": 120.375,
      "duration": 0.375,
      "velocity": 0.71
    },
    {
      "id": "n-00664",
      "pitch": "B3",
      "midi": 59,
      "start": 120.75,
      "duration": 0.375,
      "velocity": 0.71
    },
    {
      "id": "n-00665",
      "pitch": "B4",
      "midi": 71,
      "start": 120.75,
      "duration": 0.375,
      "velocity": 0.71
    },
    {
      "id": "n-00666",
      "pitch": "B3",
      "midi": 59,
      "start": 121.125,
      "duration": 0.375,
      "velocity": 0.71
    },
    {
      "id": "n-00667",
      "pitch": "B4",
      "midi": 71,
      "start": 121.125,
      "duration": 0.375,
      "velocity": 0.71
    },
    {
      "id": "n-00668",
      "pitch": "B1",
      "midi": 35,
      "start": 121.5,
      "duration": 1.125,
      "velocity": 0.71
    },
    {
      "id": "n-00669",
      "pitch": "B2",
      "midi": 47,
      "start": 121.5,
      "duration": 1.125,
      "velocity": 0.71
    },
    {
      "id": "n-00670",
      "pitch": "B3",
      "midi": 59,
      "start": 121.5,
      "duration": 0.375,
      "velocity": 0.71
    },
    {
      "id": "n-00671",
      "pitch": "D#4",
      "midi": 63,
      "start": 121.5,
      "duration": 1.5,
      "velocity": 0.71
    },
    {
      "id": "n-00672",
      "pitch": "G#4",
      "midi": 68,
      "start": 121.5,
      "duration": 1.5,
      "velocity": 0.71
    },
    {
      "id": "n-00673",
      "pitch": "B4",
      "midi": 71,
      "start": 121.5,
      "duration": 0.375,
      "velocity": 0.71
    },
    {
      "id": "n-00674",
      "pitch": "B3",
      "midi": 59,
      "start": 121.875,
      "duration": 0.375,
      "velocity": 0.71
    },
    {
      "id": "n-00675",
      "pitch": "B4",
      "midi": 71,
      "start": 121.875,
      "duration": 0.375,
      "velocity": 0.71
    },
    {
      "id": "n-00676",
      "pitch": "B3",
      "midi": 59,
      "start": 122.25,
      "duration": 0.375,
      "velocity": 0.71
    },
    {
      "id": "n-00677",
      "pitch": "B4",
      "midi": 71,
      "start": 122.25,
      "duration": 0.375,
      "velocity": 0.71
    },
    {
      "id": "n-00678",
      "pitch": "A#1",
      "midi": 34,
      "start": 122.625,
      "duration": 0.375,
      "velocity": 0.71
    },
    {
      "id": "n-00679",
      "pitch": "A#2",
      "midi": 46,
      "start": 122.625,
      "duration": 0.375,
      "velocity": 0.71
    },
    {
      "id": "n-00680",
      "pitch": "B3",
      "midi": 59,
      "start": 122.625,
      "duration": 0.375,
      "velocity": 0.71
    },
    {
      "id": "n-00681",
      "pitch": "B4",
      "midi": 71,
      "start": 122.625,
      "duration": 0.375,
      "velocity": 0.71
    },
    {
      "id": "n-00682",
      "pitch": "G#1",
      "midi": 32,
      "start": 123,
      "duration": 1.5,
      "velocity": 0.71
    },
    {
      "id": "n-00683",
      "pitch": "G#2",
      "midi": 44,
      "start": 123,
      "duration": 1.5,
      "velocity": 0.71
    },
    {
      "id": "n-00684",
      "pitch": "B3",
      "midi": 59,
      "start": 123,
      "duration": 0.375,
      "velocity": 0.71
    },
    {
      "id": "n-00685",
      "pitch": "D#4",
      "midi": 63,
      "start": 123,
      "duration": 1.5,
      "velocity": 0.71
    },
    {
      "id": "n-00686",
      "pitch": "G#4",
      "midi": 68,
      "start": 123,
      "duration": 1.5,
      "velocity": 0.71
    },
    {
      "id": "n-00687",
      "pitch": "B4",
      "midi": 71,
      "start": 123,
      "duration": 0.375,
      "velocity": 0.71
    },
    {
      "id": "n-00688",
      "pitch": "B3",
      "midi": 59,
      "start": 123.375,
      "duration": 0.375,
      "velocity": 0.71
    },
    {
      "id": "n-00689",
      "pitch": "B4",
      "midi": 71,
      "start": 123.375,
      "duration": 0.375,
      "velocity": 0.71
    },
    {
      "id": "n-00690",
      "pitch": "B3",
      "midi": 59,
      "start": 123.75,
      "duration": 0.375,
      "velocity": 0.71
    },
    {
      "id": "n-00691",
      "pitch": "B4",
      "midi": 71,
      "start": 123.75,
      "duration": 0.375,
      "velocity": 0.71
    },
    {
      "id": "n-00692",
      "pitch": "B3",
      "midi": 59,
      "start": 124.125,
      "duration": 0.375,
      "velocity": 0.71
    },
    {
      "id": "n-00693",
      "pitch": "B4",
      "midi": 71,
      "start": 124.125,
      "duration": 0.375,
      "velocity": 0.71
    },
    {
      "id": "n-00694",
      "pitch": "D#2",
      "midi": 39,
      "start": 124.5,
      "duration": 1.5,
      "velocity": 0.71
    },
    {
      "id": "n-00695",
      "pitch": "D#3",
      "midi": 51,
      "start": 124.5,
      "duration": 1.5,
      "velocity": 0.71
    },
    {
      "id": "n-00696",
      "pitch": "B3",
      "midi": 59,
      "start": 124.5,
      "duration": 0.375,
      "velocity": 0.71
    },
    {
      "id": "n-00697",
      "pitch": "D#4",
      "midi": 63,
      "start": 124.5,
      "duration": 1.5,
      "velocity": 0.71
    },
    {
      "id": "n-00698",
      "pitch": "G4",
      "midi": 67,
      "start": 124.5,
      "duration": 1.5,
      "velocity": 0.71
    },
    {
      "id": "n-00699",
      "pitch": "B4",
      "midi": 71,
      "start": 124.5,
      "duration": 0.375,
      "velocity": 0.71
    },
    {
      "id": "n-00700",
      "pitch": "B3",
      "midi": 59,
      "start": 124.875,
      "duration": 0.375,
      "velocity": 0.71
    },
    {
      "id": "n-00701",
      "pitch": "B4",
      "midi": 71,
      "start": 124.875,
      "duration": 0.375,
      "velocity": 0.71
    },
    {
      "id": "n-00702",
      "pitch": "B3",
      "midi": 59,
      "start": 125.25,
      "duration": 0.375,
      "velocity": 0.71
    },
    {
      "id": "n-00703",
      "pitch": "B4",
      "midi": 71,
      "start": 125.25,
      "duration": 0.375,
      "velocity": 0.71
    },
    {
      "id": "n-00704",
      "pitch": "B3",
      "midi": 59,
      "start": 125.625,
      "duration": 0.375,
      "velocity": 0.71
    },
    {
      "id": "n-00705",
      "pitch": "B4",
      "midi": 71,
      "start": 125.625,
      "duration": 0.375,
      "velocity": 0.71
    },
    {
      "id": "n-00706",
      "pitch": "G#1",
      "midi": 32,
      "start": 126,
      "duration": 1.5,
      "velocity": 0.71
    },
    {
      "id": "n-00707",
      "pitch": "G#2",
      "midi": 44,
      "start": 126,
      "duration": 1.5,
      "velocity": 0.71
    },
    {
      "id": "n-00708",
      "pitch": "B3",
      "midi": 59,
      "start": 126,
      "duration": 0.375,
      "velocity": 0.71
    },
    {
      "id": "n-00709",
      "pitch": "D#4",
      "midi": 63,
      "start": 126,
      "duration": 0.375,
      "velocity": 0.71
    },
    {
      "id": "n-00710",
      "pitch": "G#4",
      "midi": 68,
      "start": 126,
      "duration": 0.375,
      "velocity": 0.71
    },
    {
      "id": "n-00711",
      "pitch": "B4",
      "midi": 71,
      "start": 126,
      "duration": 0.375,
      "velocity": 0.71
    },
    {
      "id": "n-00712",
      "pitch": "G#3",
      "midi": 56,
      "start": 126.375,
      "duration": 0.375,
      "velocity": 0.71
    },
    {
      "id": "n-00713",
      "pitch": "G#3",
      "midi": 56,
      "start": 126.75,
      "duration": 0.375,
      "velocity": 0.71
    },
    {
      "id": "n-00714",
      "pitch": "G#3",
      "midi": 56,
      "start": 127.125,
      "duration": 0.375,
      "velocity": 0.71
    },
    {
      "id": "n-00715",
      "pitch": "G#3",
      "midi": 56,
      "start": 127.5,
      "duration": 0.375,
      "velocity": 0.71
    },
    {
      "id": "n-00716",
      "pitch": "G#3",
      "midi": 56,
      "start": 127.875,
      "duration": 0.375,
      "velocity": 0.71
    },
    {
      "id": "n-00717",
      "pitch": "G#3",
      "midi": 56,
      "start": 128.25,
      "duration": 0.375,
      "velocity": 0.71
    },
    {
      "id": "n-00718",
      "pitch": "G#3",
      "midi": 56,
      "start": 128.625,
      "duration": 0.375,
      "velocity": 0.71
    },
    {
      "id": "n-00719",
      "pitch": "C#2",
      "midi": 37,
      "start": 129,
      "duration": 0.75,
      "velocity": 0.71
    },
    {
      "id": "n-00720",
      "pitch": "G#2",
      "midi": 44,
      "start": 129,
      "duration": 0.75,
      "velocity": 0.71
    },
    {
      "id": "n-00721",
      "pitch": "G#3",
      "midi": 56,
      "start": 129,
      "duration": 0.375,
      "velocity": 0.71
    },
    {
      "id": "n-00722",
      "pitch": "G#3",
      "midi": 56,
      "start": 129.375,
      "duration": 0.375,
      "velocity": 0.71
    },
    {
      "id": "n-00723",
      "pitch": "D#2",
      "midi": 39,
      "start": 129.75,
      "duration": 0.75,
      "velocity": 0.71
    },
    {
      "id": "n-00724",
      "pitch": "G#2",
      "midi": 44,
      "start": 129.75,
      "duration": 0.75,
      "velocity": 0.71
    },
    {
      "id": "n-00725",
      "pitch": "G#3",
      "midi": 56,
      "start": 129.75,
      "duration": 0.375,
      "velocity": 0.71
    },
    {
      "id": "n-00726",
      "pitch": "G#3",
      "midi": 56,
      "start": 130.125,
      "duration": 0.375,
      "velocity": 0.71
    },
    {
      "id": "n-00727",
      "pitch": "E2",
      "midi": 40,
      "start": 130.5,
      "duration": 0.75,
      "velocity": 0.71
    },
    {
      "id": "n-00728",
      "pitch": "C#3",
      "midi": 49,
      "start": 130.5,
      "duration": 0.75,
      "velocity": 0.71
    },
    {
      "id": "n-00729",
      "pitch": "G#3",
      "midi": 56,
      "start": 130.5,
      "duration": 0.375,
      "velocity": 0.71
    },
    {
      "id": "n-00730",
      "pitch": "G#3",
      "midi": 56,
      "start": 130.875,
      "duration": 0.375,
      "velocity": 0.71
    },
    {
      "id": "n-00731",
      "pitch": "D#2",
      "midi": 39,
      "start": 131.25,
      "duration": 0.75,
      "velocity": 0.71
    },
    {
      "id": "n-00732",
      "pitch": "C3",
      "midi": 48,
      "start": 131.25,
      "duration": 0.75,
      "velocity": 0.71
    },
    {
      "id": "n-00733",
      "pitch": "G#3",
      "midi": 56,
      "start": 131.25,
      "duration": 0.375,
      "velocity": 0.71
    },
    {
      "id": "n-00734",
      "pitch": "G#3",
      "midi": 56,
      "start": 131.625,
      "duration": 0.375,
      "velocity": 0.71
    },
    {
      "id": "n-00735",
      "pitch": "D#2",
      "midi": 39,
      "start": 132,
      "duration": 0.75,
      "velocity": 0.71
    },
    {
      "id": "n-00736",
      "pitch": "G#2",
      "midi": 44,
      "start": 132,
      "duration": 0.75,
      "velocity": 0.71
    },
    {
      "id": "n-00737",
      "pitch": "G#3",
      "midi": 56,
      "start": 132,
      "duration": 0.375,
      "velocity": 0.71
    },
    {
      "id": "n-00738",
      "pitch": "G#3",
      "midi": 56,
      "start": 132.375,
      "duration": 0.375,
      "velocity": 0.71
    },
    {
      "id": "n-00739",
      "pitch": "E2",
      "midi": 40,
      "start": 132.75,
      "duration": 0.75,
      "velocity": 0.71
    },
    {
      "id": "n-00740",
      "pitch": "G#2",
      "midi": 44,
      "start": 132.75,
      "duration": 0.75,
      "velocity": 0.71
    },
    {
      "id": "n-00741",
      "pitch": "G#3",
      "midi": 56,
      "start": 132.75,
      "duration": 0.375,
      "velocity": 0.71
    },
    {
      "id": "n-00742",
      "pitch": "G#3",
      "midi": 56,
      "start": 133.125,
      "duration": 0.375,
      "velocity": 0.71
    },
    {
      "id": "n-00743",
      "pitch": "F#2",
      "midi": 42,
      "start": 133.5,
      "duration": 0.75,
      "velocity": 0.71
    },
    {
      "id": "n-00744",
      "pitch": "D#3",
      "midi": 51,
      "start": 133.5,
      "duration": 0.75,
      "velocity": 0.71
    },
    {
      "id": "n-00745",
      "pitch": "G#3",
      "midi": 56,
      "start": 133.5,
      "duration": 0.375,
      "velocity": 0.71
    },
    {
      "id": "n-00746",
      "pitch": "G#3",
      "midi": 56,
      "start": 133.875,
      "duration": 0.375,
      "velocity": 0.71
    },
    {
      "id": "n-00747",
      "pitch": "E2",
      "midi": 40,
      "start": 134.25,
      "duration": 0.75,
      "velocity": 0.71
    },
    {
      "id": "n-00748",
      "pitch": "C#3",
      "midi": 49,
      "start": 134.25,
      "duration": 0.75,
      "velocity": 0.71
    },
    {
      "id": "n-00749",
      "pitch": "G#3",
      "midi": 56,
      "start": 134.25,
      "duration": 0.375,
      "velocity": 0.71
    },
    {
      "id": "n-00750",
      "pitch": "G#3",
      "midi": 56,
      "start": 134.625,
      "duration": 0.375,
      "velocity": 0.71
    },
    {
      "id": "n-00751",
      "pitch": "E2",
      "midi": 40,
      "start": 135,
      "duration": 0.75,
      "velocity": 0.71
    },
    {
      "id": "n-00752",
      "pitch": "C#3",
      "midi": 49,
      "start": 135,
      "duration": 0.75,
      "velocity": 0.71
    },
    {
      "id": "n-00753",
      "pitch": "G#3",
      "midi": 56,
      "start": 135,
      "duration": 0.375,
      "velocity": 0.71
    },
    {
      "id": "n-00754",
      "pitch": "G#3",
      "midi": 56,
      "start": 135.375,
      "duration": 0.375,
      "velocity": 0.71
    },
    {
      "id": "n-00755",
      "pitch": "G#2",
      "midi": 44,
      "start": 135.75,
      "duration": 0.75,
      "velocity": 0.71
    },
    {
      "id": "n-00756",
      "pitch": "D#3",
      "midi": 51,
      "start": 135.75,
      "duration": 0.75,
      "velocity": 0.71
    },
    {
      "id": "n-00757",
      "pitch": "G#3",
      "midi": 56,
      "start": 135.75,
      "duration": 0.375,
      "velocity": 0.71
    },
    {
      "id": "n-00758",
      "pitch": "G#3",
      "midi": 56,
      "start": 136.125,
      "duration": 0.375,
      "velocity": 0.71
    },
    {
      "id": "n-00759",
      "pitch": "C#3",
      "midi": 49,
      "start": 136.5,
      "duration": 0.75,
      "velocity": 0.71
    },
    {
      "id": "n-00760",
      "pitch": "E3",
      "midi": 52,
      "start": 136.5,
      "duration": 0.75,
      "velocity": 0.71
    },
    {
      "id": "n-00761",
      "pitch": "G#3",
      "midi": 56,
      "start": 136.5,
      "duration": 0.375,
      "velocity": 0.71
    },
    {
      "id": "n-00762",
      "pitch": "G#3",
      "midi": 56,
      "start": 136.875,
      "duration": 0.375,
      "velocity": 0.71
    },
    {
      "id": "n-00763",
      "pitch": "G#2",
      "midi": 44,
      "start": 137.25,
      "duration": 0.75,
      "velocity": 0.71
    },
    {
      "id": "n-00764",
      "pitch": "D#3",
      "midi": 51,
      "start": 137.25,
      "duration": 0.75,
      "velocity": 0.71
    },
    {
      "id": "n-00765",
      "pitch": "G#3",
      "midi": 56,
      "start": 137.25,
      "duration": 0.375,
      "velocity": 0.71
    },
    {
      "id": "n-00766",
      "pitch": "G#3",
      "midi": 56,
      "start": 137.625,
      "duration": 0.375,
      "velocity": 0.71
    },
    {
      "id": "n-00767",
      "pitch": "G#2",
      "midi": 44,
      "start": 138,
      "duration": 3.75,
      "velocity": 0.71
    },
    {
      "id": "n-00768",
      "pitch": "D#3",
      "midi": 51,
      "start": 138,
      "duration": 3.75,
      "velocity": 0.71
    },
    {
      "id": "n-00769",
      "pitch": "G#3",
      "midi": 56,
      "start": 138,
      "duration": 0.375,
      "velocity": 0.71
    },
    {
      "id": "n-00770",
      "pitch": "G#3",
      "midi": 56,
      "start": 138.375,
      "duration": 0.375,
      "velocity": 0.71
    },
    {
      "id": "n-00771",
      "pitch": "G#3",
      "midi": 56,
      "start": 138.75,
      "duration": 0.375,
      "velocity": 0.71
    },
    {
      "id": "n-00772",
      "pitch": "G#3",
      "midi": 56,
      "start": 139.125,
      "duration": 0.375,
      "velocity": 0.71
    },
    {
      "id": "n-00773",
      "pitch": "G#3",
      "midi": 56,
      "start": 139.5,
      "duration": 0.375,
      "velocity": 0.71
    },
    {
      "id": "n-00774",
      "pitch": "G#3",
      "midi": 56,
      "start": 139.875,
      "duration": 0.375,
      "velocity": 0.71
    },
    {
      "id": "n-00775",
      "pitch": "G#3",
      "midi": 56,
      "start": 140.25,
      "duration": 0.375,
      "velocity": 0.71
    },
    {
      "id": "n-00776",
      "pitch": "G#3",
      "midi": 56,
      "start": 140.625,
      "duration": 0.375,
      "velocity": 0.71
    },
    {
      "id": "n-00777",
      "pitch": "G#3",
      "midi": 56,
      "start": 141,
      "duration": 0.375,
      "velocity": 0.71
    },
    {
      "id": "n-00778",
      "pitch": "G#3",
      "midi": 56,
      "start": 141.375,
      "duration": 0.375,
      "velocity": 0.71
    },
    {
      "id": "n-00779",
      "pitch": "C#3",
      "midi": 49,
      "start": 141.75,
      "duration": 0.75,
      "velocity": 0.71
    },
    {
      "id": "n-00780",
      "pitch": "E3",
      "midi": 52,
      "start": 141.75,
      "duration": 0.75,
      "velocity": 0.71
    },
    {
      "id": "n-00781",
      "pitch": "G#3",
      "midi": 56,
      "start": 141.75,
      "duration": 0.375,
      "velocity": 0.71
    },
    {
      "id": "n-00782",
      "pitch": "G#3",
      "midi": 56,
      "start": 142.125,
      "duration": 0.375,
      "velocity": 0.71
    },
    {
      "id": "n-00783",
      "pitch": "G#2",
      "midi": 44,
      "start": 142.5,
      "duration": 0.75,
      "velocity": 0.71
    },
    {
      "id": "n-00784",
      "pitch": "D#3",
      "midi": 51,
      "start": 142.5,
      "duration": 0.75,
      "velocity": 0.71
    },
    {
      "id": "n-00785",
      "pitch": "G#3",
      "midi": 56,
      "start": 142.5,
      "duration": 0.375,
      "velocity": 0.71
    },
    {
      "id": "n-00786",
      "pitch": "G#3",
      "midi": 56,
      "start": 142.875,
      "duration": 0.375,
      "velocity": 0.71
    },
    {
      "id": "n-00787",
      "pitch": "E2",
      "midi": 40,
      "start": 143.25,
      "duration": 0.75,
      "velocity": 0.71
    },
    {
      "id": "n-00788",
      "pitch": "C#3",
      "midi": 49,
      "start": 143.25,
      "duration": 0.75,
      "velocity": 0.71
    },
    {
      "id": "n-00789",
      "pitch": "G#3",
      "midi": 56,
      "start": 143.25,
      "duration": 0.375,
      "velocity": 0.71
    },
    {
      "id": "n-00790",
      "pitch": "G#3",
      "midi": 56,
      "start": 143.625,
      "duration": 0.375,
      "velocity": 0.71
    },
    {
      "id": "n-00791",
      "pitch": "G#2",
      "midi": 44,
      "start": 144,
      "duration": 0.75,
      "velocity": 0.71
    },
    {
      "id": "n-00792",
      "pitch": "D#3",
      "midi": 51,
      "start": 144,
      "duration": 0.75,
      "velocity": 0.71
    },
    {
      "id": "n-00793",
      "pitch": "G#3",
      "midi": 56,
      "start": 144,
      "duration": 0.375,
      "velocity": 0.71
    },
    {
      "id": "n-00794",
      "pitch": "G#3",
      "midi": 56,
      "start": 144.375,
      "duration": 0.375,
      "velocity": 0.71
    },
    {
      "id": "n-00795",
      "pitch": "E2",
      "midi": 40,
      "start": 144.75,
      "duration": 0.75,
      "velocity": 0.71
    },
    {
      "id": "n-00796",
      "pitch": "C#3",
      "midi": 49,
      "start": 144.75,
      "duration": 0.75,
      "velocity": 0.71
    },
    {
      "id": "n-00797",
      "pitch": "G#3",
      "midi": 56,
      "start": 144.75,
      "duration": 0.375,
      "velocity": 0.71
    },
    {
      "id": "n-00798",
      "pitch": "G#3",
      "midi": 56,
      "start": 145.125,
      "duration": 0.375,
      "velocity": 0.71
    },
    {
      "id": "n-00799",
      "pitch": "D#2",
      "midi": 39,
      "start": 145.5,
      "duration": 0.75,
      "velocity": 0.71
    },
    {
      "id": "n-00800",
      "pitch": "C3",
      "midi": 48,
      "start": 145.5,
      "duration": 0.75,
      "velocity": 0.71
    },
    {
      "id": "n-00801",
      "pitch": "G#3",
      "midi": 56,
      "start": 145.5,
      "duration": 0.375,
      "velocity": 0.71
    },
    {
      "id": "n-00802",
      "pitch": "G#3",
      "midi": 56,
      "start": 145.875,
      "duration": 0.375,
      "velocity": 0.71
    },
    {
      "id": "n-00803",
      "pitch": "E2",
      "midi": 40,
      "start": 146.25,
      "duration": 0.75,
      "velocity": 0.71
    },
    {
      "id": "n-00804",
      "pitch": "C#3",
      "midi": 49,
      "start": 146.25,
      "duration": 0.75,
      "velocity": 0.71
    },
    {
      "id": "n-00805",
      "pitch": "G#3",
      "midi": 56,
      "start": 146.25,
      "duration": 0.375,
      "velocity": 0.71
    },
    {
      "id": "n-00806",
      "pitch": "G#3",
      "midi": 56,
      "start": 146.625,
      "duration": 0.375,
      "velocity": 0.71
    },
    {
      "id": "n-00807",
      "pitch": "D#2",
      "midi": 39,
      "start": 147,
      "duration": 0.75,
      "velocity": 0.71
    },
    {
      "id": "n-00808",
      "pitch": "C3",
      "midi": 48,
      "start": 147,
      "duration": 0.75,
      "velocity": 0.71
    },
    {
      "id": "n-00809",
      "pitch": "G#3",
      "midi": 56,
      "start": 147,
      "duration": 0.375,
      "velocity": 0.71
    },
    {
      "id": "n-00810",
      "pitch": "G#3",
      "midi": 56,
      "start": 147.375,
      "duration": 0.375,
      "velocity": 0.71
    },
    {
      "id": "n-00811",
      "pitch": "E2",
      "midi": 40,
      "start": 147.75,
      "duration": 0.75,
      "velocity": 0.71
    },
    {
      "id": "n-00812",
      "pitch": "C#3",
      "midi": 49,
      "start": 147.75,
      "duration": 0.75,
      "velocity": 0.71
    },
    {
      "id": "n-00813",
      "pitch": "G#3",
      "midi": 56,
      "start": 147.75,
      "duration": 0.375,
      "velocity": 0.71
    },
    {
      "id": "n-00814",
      "pitch": "G#3",
      "midi": 56,
      "start": 148.125,
      "duration": 0.375,
      "velocity": 0.71
    },
    {
      "id": "n-00815",
      "pitch": "D#2",
      "midi": 39,
      "start": 148.5,
      "duration": 0.75,
      "velocity": 0.71
    },
    {
      "id": "n-00816",
      "pitch": "D#3",
      "midi": 51,
      "start": 148.5,
      "duration": 0.75,
      "velocity": 0.71
    },
    {
      "id": "n-00817",
      "pitch": "G#3",
      "midi": 56,
      "start": 148.5,
      "duration": 0.375,
      "velocity": 0.71
    },
    {
      "id": "n-00818",
      "pitch": "G#3",
      "midi": 56,
      "start": 148.875,
      "duration": 0.375,
      "velocity": 0.71
    },
    {
      "id": "n-00819",
      "pitch": "C#2",
      "midi": 37,
      "start": 149.25,
      "duration": 0.75,
      "velocity": 0.71
    },
    {
      "id": "n-00820",
      "pitch": "E3",
      "midi": 52,
      "start": 149.25,
      "duration": 0.75,
      "velocity": 0.71
    },
    {
      "id": "n-00821",
      "pitch": "G#3",
      "midi": 56,
      "start": 149.25,
      "duration": 0.375,
      "velocity": 0.71
    },
    {
      "id": "n-00822",
      "pitch": "G#3",
      "midi": 56,
      "start": 149.625,
      "duration": 0.375,
      "velocity": 0.71
    },
    {
      "id": "n-00823",
      "pitch": "G#2",
      "midi": 44,
      "start": 150,
      "duration": 3,
      "velocity": 0.71
    },
    {
      "id": "n-00824",
      "pitch": "D#3",
      "midi": 51,
      "start": 150,
      "duration": 3,
      "velocity": 0.71
    },
    {
      "id": "n-00825",
      "pitch": "G#3",
      "midi": 56,
      "start": 150,
      "duration": 0.375,
      "velocity": 0.71
    },
    {
      "id": "n-00826",
      "pitch": "G#3",
      "midi": 56,
      "start": 150.375,
      "duration": 0.375,
      "velocity": 0.71
    },
    {
      "id": "n-00827",
      "pitch": "G#4",
      "midi": 68,
      "start": 150.375,
      "duration": 0.375,
      "velocity": 0.71
    },
    {
      "id": "n-00828",
      "pitch": "G#3",
      "midi": 56,
      "start": 150.75,
      "duration": 0.375,
      "velocity": 0.71
    },
    {
      "id": "n-00829",
      "pitch": "G#4",
      "midi": 68,
      "start": 150.75,
      "duration": 0.375,
      "velocity": 0.71
    },
    {
      "id": "n-00830",
      "pitch": "G#3",
      "midi": 56,
      "start": 151.125,
      "duration": 0.375,
      "velocity": 0.71
    },
    {
      "id": "n-00831",
      "pitch": "G#4",
      "midi": 68,
      "start": 151.125,
      "duration": 0.375,
      "velocity": 0.71
    },
    {
      "id": "n-00832",
      "pitch": "G#3",
      "midi": 56,
      "start": 151.5,
      "duration": 0.375,
      "velocity": 0.71
    },
    {
      "id": "n-00833",
      "pitch": "G#4",
      "midi": 68,
      "start": 151.5,
      "duration": 0.375,
      "velocity": 0.71
    },
    {
      "id": "n-00834",
      "pitch": "G#3",
      "midi": 56,
      "start": 151.875,
      "duration": 0.375,
      "velocity": 0.71
    },
    {
      "id": "n-00835",
      "pitch": "G#4",
      "midi": 68,
      "start": 151.875,
      "duration": 0.375,
      "velocity": 0.71
    },
    {
      "id": "n-00836",
      "pitch": "G#3",
      "midi": 56,
      "start": 152.25,
      "duration": 0.375,
      "velocity": 0.71
    },
    {
      "id": "n-00837",
      "pitch": "G#4",
      "midi": 68,
      "start": 152.25,
      "duration": 0.375,
      "velocity": 0.71
    },
    {
      "id": "n-00838",
      "pitch": "G#3",
      "midi": 56,
      "start": 152.625,
      "duration": 0.375,
      "velocity": 0.71
    },
    {
      "id": "n-00839",
      "pitch": "G#4",
      "midi": 68,
      "start": 152.625,
      "duration": 0.375,
      "velocity": 0.71
    },
    {
      "id": "n-00840",
      "pitch": "C#2",
      "midi": 37,
      "start": 153,
      "duration": 0.75,
      "velocity": 0.71
    },
    {
      "id": "n-00841",
      "pitch": "G#2",
      "midi": 44,
      "start": 153,
      "duration": 0.75,
      "velocity": 0.71
    },
    {
      "id": "n-00842",
      "pitch": "G#3",
      "midi": 56,
      "start": 153,
      "duration": 0.375,
      "velocity": 0.71
    },
    {
      "id": "n-00843",
      "pitch": "G#4",
      "midi": 68,
      "start": 153,
      "duration": 0.375,
      "velocity": 0.71
    },
    {
      "id": "n-00844",
      "pitch": "G#3",
      "midi": 56,
      "start": 153.375,
      "duration": 0.375,
      "velocity": 0.71
    },
    {
      "id": "n-00845",
      "pitch": "G#4",
      "midi": 68,
      "start": 153.375,
      "duration": 0.375,
      "velocity": 0.71
    },
    {
      "id": "n-00846",
      "pitch": "D#2",
      "midi": 39,
      "start": 153.75,
      "duration": 0.75,
      "velocity": 0.71
    },
    {
      "id": "n-00847",
      "pitch": "G#2",
      "midi": 44,
      "start": 153.75,
      "duration": 0.75,
      "velocity": 0.71
    },
    {
      "id": "n-00848",
      "pitch": "G#3",
      "midi": 56,
      "start": 153.75,
      "duration": 0.375,
      "velocity": 0.71
    },
    {
      "id": "n-00849",
      "pitch": "G#4",
      "midi": 68,
      "start": 153.75,
      "duration": 0.375,
      "velocity": 0.71
    },
    {
      "id": "n-00850",
      "pitch": "G#3",
      "midi": 56,
      "start": 154.125,
      "duration": 0.375,
      "velocity": 0.71
    },
    {
      "id": "n-00851",
      "pitch": "G#4",
      "midi": 68,
      "start": 154.125,
      "duration": 0.375,
      "velocity": 0.71
    },
    {
      "id": "n-00852",
      "pitch": "E2",
      "midi": 40,
      "start": 154.5,
      "duration": 0.75,
      "velocity": 0.71
    },
    {
      "id": "n-00853",
      "pitch": "C#3",
      "midi": 49,
      "start": 154.5,
      "duration": 0.75,
      "velocity": 0.71
    },
    {
      "id": "n-00854",
      "pitch": "G#3",
      "midi": 56,
      "start": 154.5,
      "duration": 0.375,
      "velocity": 0.71
    },
    {
      "id": "n-00855",
      "pitch": "C#4",
      "midi": 61,
      "start": 154.5,
      "duration": 0.75,
      "velocity": 0.71
    },
    {
      "id": "n-00856",
      "pitch": "G#4",
      "midi": 68,
      "start": 154.5,
      "duration": 0.375,
      "velocity": 0.71
    },
    {
      "id": "n-00857",
      "pitch": "G#3",
      "midi": 56,
      "start": 154.875,
      "duration": 0.375,
      "velocity": 0.71
    },
    {
      "id": "n-00858",
      "pitch": "G#4",
      "midi": 68,
      "start": 154.875,
      "duration": 0.375,
      "velocity": 0.71
    },
    {
      "id": "n-00859",
      "pitch": "D#2",
      "midi": 39,
      "start": 155.25,
      "duration": 0.75,
      "velocity": 0.71
    },
    {
      "id": "n-00860",
      "pitch": "C3",
      "midi": 48,
      "start": 155.25,
      "duration": 0.75,
      "velocity": 0.71
    },
    {
      "id": "n-00861",
      "pitch": "G#3",
      "midi": 56,
      "start": 155.25,
      "duration": 0.375,
      "velocity": 0.71
    },
    {
      "id": "n-00862",
      "pitch": "C4",
      "midi": 60,
      "start": 155.25,
      "duration": 0.75,
      "velocity": 0.71
    },
    {
      "id": "n-00863",
      "pitch": "G#4",
      "midi": 68,
      "start": 155.25,
      "duration": 0.375,
      "velocity": 0.71
    },
    {
      "id": "n-00864",
      "pitch": "G#3",
      "midi": 56,
      "start": 155.625,
      "duration": 0.375,
      "velocity": 0.71
    },
    {
      "id": "n-00865",
      "pitch": "G#4",
      "midi": 68,
      "start": 155.625,
      "duration": 0.375,
      "velocity": 0.71
    },
    {
      "id": "n-00866",
      "pitch": "D#2",
      "midi": 39,
      "start": 156,
      "duration": 0.75,
      "velocity": 0.71
    },
    {
      "id": "n-00867",
      "pitch": "G#2",
      "midi": 44,
      "start": 156,
      "duration": 0.75,
      "velocity": 0.71
    },
    {
      "id": "n-00868",
      "pitch": "G#3",
      "midi": 56,
      "start": 156,
      "duration": 0.375,
      "velocity": 0.71
    },
    {
      "id": "n-00869",
      "pitch": "G#4",
      "midi": 68,
      "start": 156,
      "duration": 0.375,
      "velocity": 0.71
    },
    {
      "id": "n-00870",
      "pitch": "G#3",
      "midi": 56,
      "start": 156.375,
      "duration": 0.375,
      "velocity": 0.71
    },
    {
      "id": "n-00871",
      "pitch": "G#4",
      "midi": 68,
      "start": 156.375,
      "duration": 0.375,
      "velocity": 0.71
    },
    {
      "id": "n-00872",
      "pitch": "E2",
      "midi": 40,
      "start": 156.75,
      "duration": 0.75,
      "velocity": 0.71
    },
    {
      "id": "n-00873",
      "pitch": "G#2",
      "midi": 44,
      "start": 156.75,
      "duration": 0.75,
      "velocity": 0.71
    },
    {
      "id": "n-00874",
      "pitch": "G#3",
      "midi": 56,
      "start": 156.75,
      "duration": 0.375,
      "velocity": 0.71
    },
    {
      "id": "n-00875",
      "pitch": "G#4",
      "midi": 68,
      "start": 156.75,
      "duration": 0.375,
      "velocity": 0.71
    },
    {
      "id": "n-00876",
      "pitch": "G#3",
      "midi": 56,
      "start": 157.125,
      "duration": 0.375,
      "velocity": 0.71
    },
    {
      "id": "n-00877",
      "pitch": "G#4",
      "midi": 68,
      "start": 157.125,
      "duration": 0.375,
      "velocity": 0.71
    },
    {
      "id": "n-00878",
      "pitch": "F#2",
      "midi": 42,
      "start": 157.5,
      "duration": 0.75,
      "velocity": 0.71
    },
    {
      "id": "n-00879",
      "pitch": "D#3",
      "midi": 51,
      "start": 157.5,
      "duration": 0.75,
      "velocity": 0.71
    },
    {
      "id": "n-00880",
      "pitch": "G#3",
      "midi": 56,
      "start": 157.5,
      "duration": 0.375,
      "velocity": 0.71
    },
    {
      "id": "n-00881",
      "pitch": "D#4",
      "midi": 63,
      "start": 157.5,
      "duration": 0.75,
      "velocity": 0.71
    },
    {
      "id": "n-00882",
      "pitch": "G#4",
      "midi": 68,
      "start": 157.5,
      "duration": 0.375,
      "velocity": 0.71
    },
    {
      "id": "n-00883",
      "pitch": "G#3",
      "midi": 56,
      "start": 157.875,
      "duration": 0.375,
      "velocity": 0.71
    },
    {
      "id": "n-00884",
      "pitch": "G#4",
      "midi": 68,
      "start": 157.875,
      "duration": 0.375,
      "velocity": 0.71
    },
    {
      "id": "n-00885",
      "pitch": "E2",
      "midi": 40,
      "start": 158.25,
      "duration": 0.75,
      "velocity": 0.71
    },
    {
      "id": "n-00886",
      "pitch": "C#3",
      "midi": 49,
      "start": 158.25,
      "duration": 0.75,
      "velocity": 0.71
    },
    {
      "id": "n-00887",
      "pitch": "G#3",
      "midi": 56,
      "start": 158.25,
      "duration": 0.375,
      "velocity": 0.71
    },
    {
      "id": "n-00888",
      "pitch": "C#4",
      "midi": 61,
      "start": 158.25,
      "duration": 1.5,
      "velocity": 0.71
    },
    {
      "id": "n-00889",
      "pitch": "G#4",
      "midi": 68,
      "start": 158.25,
      "duration": 0.375,
      "velocity": 0.71
    },
    {
      "id": "n-00890",
      "pitch": "G#3",
      "midi": 56,
      "start": 158.625,
      "duration": 0.375,
      "velocity": 0.71
    },
    {
      "id": "n-00891",
      "pitch": "G#4",
      "midi": 68,
      "start": 158.625,
      "duration": 0.375,
      "velocity": 0.71
    },
    {
      "id": "n-00892",
      "pitch": "E2",
      "midi": 40,
      "start": 159,
      "duration": 0.75,
      "velocity": 0.71
    },
    {
      "id": "n-00893",
      "pitch": "C#3",
      "midi": 49,
      "start": 159,
      "duration": 0.75,
      "velocity": 0.71
    },
    {
      "id": "n-00894",
      "pitch": "G#3",
      "midi": 56,
      "start": 159,
      "duration": 0.375,
      "velocity": 0.71
    },
    {
      "id": "n-00895",
      "pitch": "G#4",
      "midi": 68,
      "start": 159,
      "duration": 0.375,
      "velocity": 0.71
    },
    {
      "id": "n-00896",
      "pitch": "G#3",
      "midi": 56,
      "start": 159.375,
      "duration": 0.375,
      "velocity": 0.71
    },
    {
      "id": "n-00897",
      "pitch": "G#4",
      "midi": 68,
      "start": 159.375,
      "duration": 0.375,
      "velocity": 0.71
    },
    {
      "id": "n-00898",
      "pitch": "G#2",
      "midi": 44,
      "start": 159.75,
      "duration": 0.75,
      "velocity": 0.71
    },
    {
      "id": "n-00899",
      "pitch": "D#3",
      "midi": 51,
      "start": 159.75,
      "duration": 0.75,
      "velocity": 0.71
    },
    {
      "id": "n-00900",
      "pitch": "G#3",
      "midi": 56,
      "start": 159.75,
      "duration": 0.375,
      "velocity": 0.71
    },
    {
      "id": "n-00901",
      "pitch": "D#4",
      "midi": 63,
      "start": 159.75,
      "duration": 0.75,
      "velocity": 0.71
    },
    {
      "id": "n-00902",
      "pitch": "G#4",
      "midi": 68,
      "start": 159.75,
      "duration": 0.375,
      "velocity": 0.71
    },
    {
      "id": "n-00903",
      "pitch": "G#3",
      "midi": 56,
      "start": 160.125,
      "duration": 0.375,
      "velocity": 0.71
    },
    {
      "id": "n-00904",
      "pitch": "G#4",
      "midi": 68,
      "start": 160.125,
      "duration": 0.375,
      "velocity": 0.71
    },
    {
      "id": "n-00905",
      "pitch": "C#3",
      "midi": 49,
      "start": 160.5,
      "duration": 0.75,
      "velocity": 0.71
    },
    {
      "id": "n-00906",
      "pitch": "E3",
      "midi": 52,
      "start": 160.5,
      "duration": 0.75,
      "velocity": 0.71
    },
    {
      "id": "n-00907",
      "pitch": "G#3",
      "midi": 56,
      "start": 160.5,
      "duration": 0.375,
      "velocity": 0.71
    },
    {
      "id": "n-00908",
      "pitch": "E4",
      "midi": 64,
      "start": 160.5,
      "duration": 0.75,
      "velocity": 0.71
    },
    {
      "id": "n-00909",
      "pitch": "G#4",
      "midi": 68,
      "start": 160.5,
      "duration": 0.375,
      "velocity": 0.71
    },
    {
      "id": "n-00910",
      "pitch": "G#3",
      "midi": 56,
      "start": 160.875,
      "duration": 0.375,
      "velocity": 0.71
    },
    {
      "id": "n-00911",
      "pitch": "G#4",
      "midi": 68,
      "start": 160.875,
      "duration": 0.375,
      "velocity": 0.71
    },
    {
      "id": "n-00912",
      "pitch": "G#2",
      "midi": 44,
      "start": 161.25,
      "duration": 0.664,
      "velocity": 0.71
    },
    {
      "id": "n-00913",
      "pitch": "D#3",
      "midi": 51,
      "start": 161.25,
      "duration": 0.664,
      "velocity": 0.71
    },
    {
      "id": "n-00914",
      "pitch": "G#3",
      "midi": 56,
      "start": 161.25,
      "duration": 0.375,
      "velocity": 0.71
    },
    {
      "id": "n-00915",
      "pitch": "D#4",
      "midi": 63,
      "start": 161.25,
      "duration": 0.75,
      "velocity": 0.71
    },
    {
      "id": "n-00916",
      "pitch": "G#4",
      "midi": 68,
      "start": 161.25,
      "duration": 0.375,
      "velocity": 0.71
    },
    {
      "id": "n-00917",
      "pitch": "G#3",
      "midi": 56,
      "start": 161.625,
      "duration": 0.375,
      "velocity": 0.71
    },
    {
      "id": "n-00918",
      "pitch": "G#4",
      "midi": 68,
      "start": 161.625,
      "duration": 0.375,
      "velocity": 0.71
    },
    {
      "id": "n-00919",
      "pitch": "G#1",
      "midi": 32,
      "start": 161.914,
      "duration": 0.084,
      "velocity": 0.71
    },
    {
      "id": "n-00920",
      "pitch": "G#2",
      "midi": 44,
      "start": 162,
      "duration": 3,
      "velocity": 0.71
    },
    {
      "id": "n-00921",
      "pitch": "D#3",
      "midi": 51,
      "start": 162,
      "duration": 3,
      "velocity": 0.71
    },
    {
      "id": "n-00922",
      "pitch": "G#3",
      "midi": 56,
      "start": 162,
      "duration": 0.375,
      "velocity": 0.71
    },
    {
      "id": "n-00923",
      "pitch": "D#4",
      "midi": 63,
      "start": 162,
      "duration": 3,
      "velocity": 0.71
    },
    {
      "id": "n-00924",
      "pitch": "G#4",
      "midi": 68,
      "start": 162,
      "duration": 0.375,
      "velocity": 0.71
    },
    {
      "id": "n-00925",
      "pitch": "G#3",
      "midi": 56,
      "start": 162.375,
      "duration": 0.375,
      "velocity": 0.71
    },
    {
      "id": "n-00926",
      "pitch": "G#4",
      "midi": 68,
      "start": 162.375,
      "duration": 0.375,
      "velocity": 0.71
    },
    {
      "id": "n-00927",
      "pitch": "G#3",
      "midi": 56,
      "start": 162.75,
      "duration": 0.375,
      "velocity": 0.71
    },
    {
      "id": "n-00928",
      "pitch": "G#4",
      "midi": 68,
      "start": 162.75,
      "duration": 0.375,
      "velocity": 0.71
    },
    {
      "id": "n-00929",
      "pitch": "G#3",
      "midi": 56,
      "start": 163.125,
      "duration": 0.375,
      "velocity": 0.71
    },
    {
      "id": "n-00930",
      "pitch": "G#4",
      "midi": 68,
      "start": 163.125,
      "duration": 0.375,
      "velocity": 0.71
    },
    {
      "id": "n-00931",
      "pitch": "G#3",
      "midi": 56,
      "start": 163.5,
      "duration": 0.375,
      "velocity": 0.71
    },
    {
      "id": "n-00932",
      "pitch": "G#4",
      "midi": 68,
      "start": 163.5,
      "duration": 0.375,
      "velocity": 0.71
    },
    {
      "id": "n-00933",
      "pitch": "G#3",
      "midi": 56,
      "start": 163.875,
      "duration": 0.375,
      "velocity": 0.71
    },
    {
      "id": "n-00934",
      "pitch": "G#4",
      "midi": 68,
      "start": 163.875,
      "duration": 0.375,
      "velocity": 0.71
    },
    {
      "id": "n-00935",
      "pitch": "G#3",
      "midi": 56,
      "start": 164.25,
      "duration": 0.375,
      "velocity": 0.71
    },
    {
      "id": "n-00936",
      "pitch": "G#4",
      "midi": 68,
      "start": 164.25,
      "duration": 0.375,
      "velocity": 0.71
    },
    {
      "id": "n-00937",
      "pitch": "G#3",
      "midi": 56,
      "start": 164.625,
      "duration": 0.375,
      "velocity": 0.71
    },
    {
      "id": "n-00938",
      "pitch": "G#4",
      "midi": 68,
      "start": 164.625,
      "duration": 0.375,
      "velocity": 0.71
    },
    {
      "id": "n-00939",
      "pitch": "E1",
      "midi": 28,
      "start": 165,
      "duration": 1.5,
      "velocity": 0.71
    },
    {
      "id": "n-00940",
      "pitch": "E2",
      "midi": 40,
      "start": 165,
      "duration": 1.5,
      "velocity": 0.71
    },
    {
      "id": "n-00941",
      "pitch": "B3",
      "midi": 59,
      "start": 165,
      "duration": 0.375,
      "velocity": 0.71
    },
    {
      "id": "n-00942",
      "pitch": "E4",
      "midi": 64,
      "start": 165,
      "duration": 1.5,
      "velocity": 0.71
    },
    {
      "id": "n-00943",
      "pitch": "G#4",
      "midi": 68,
      "start": 165,
      "duration": 1.5,
      "velocity": 0.71
    },
    {
      "id": "n-00944",
      "pitch": "B4",
      "midi": 71,
      "start": 165,
      "duration": 0.375,
      "velocity": 0.71
    },
    {
      "id": "n-00945",
      "pitch": "B3",
      "midi": 59,
      "start": 165.375,
      "duration": 0.375,
      "velocity": 0.71
    },
    {
      "id": "n-00946",
      "pitch": "B4",
      "midi": 71,
      "start": 165.375,
      "duration": 0.375,
      "velocity": 0.71
    },
    {
      "id": "n-00947",
      "pitch": "B3",
      "midi": 59,
      "start": 165.75,
      "duration": 0.375,
      "velocity": 0.71
    },
    {
      "id": "n-00948",
      "pitch": "B4",
      "midi": 71,
      "start": 165.75,
      "duration": 0.375,
      "velocity": 0.71
    },
    {
      "id": "n-00949",
      "pitch": "B3",
      "midi": 59,
      "start": 166.125,
      "duration": 0.375,
      "velocity": 0.71
    },
    {
      "id": "n-00950",
      "pitch": "B4",
      "midi": 71,
      "start": 166.125,
      "duration": 0.375,
      "velocity": 0.71
    },
    {
      "id": "n-00951",
      "pitch": "B1",
      "midi": 35,
      "start": 166.5,
      "duration": 1.5,
      "velocity": 0.71
    },
    {
      "id": "n-00952",
      "pitch": "B2",
      "midi": 47,
      "start": 166.5,
      "duration": 1.5,
      "velocity": 0.71
    },
    {
      "id": "n-00953",
      "pitch": "B3",
      "midi": 59,
      "start": 166.5,
      "duration": 0.375,
      "velocity": 0.71
    },
    {
      "id": "n-00954",
      "pitch": "D#4",
      "midi": 63,
      "start": 166.5,
      "duration": 1.5,
      "velocity": 0.71
    },
    {
      "id": "n-00955",
      "pitch": "G#4",
      "midi": 68,
      "start": 166.5,
      "duration": 1.5,
      "velocity": 0.71
    },
    {
      "id": "n-00956",
      "pitch": "B4",
      "midi": 71,
      "start": 166.5,
      "duration": 0.375,
      "velocity": 0.71
    },
    {
      "id": "n-00957",
      "pitch": "B3",
      "midi": 59,
      "start": 166.875,
      "duration": 0.375,
      "velocity": 0.71
    },
    {
      "id": "n-00958",
      "pitch": "B4",
      "midi": 71,
      "start": 166.875,
      "duration": 0.375,
      "velocity": 0.71
    },
    {
      "id": "n-00959",
      "pitch": "B3",
      "midi": 59,
      "start": 167.25,
      "duration": 0.375,
      "velocity": 0.71
    },
    {
      "id": "n-00960",
      "pitch": "B4",
      "midi": 71,
      "start": 167.25,
      "duration": 0.375,
      "velocity": 0.71
    },
    {
      "id": "n-00961",
      "pitch": "B3",
      "midi": 59,
      "start": 167.625,
      "duration": 0.375,
      "velocity": 0.71
    },
    {
      "id": "n-00962",
      "pitch": "B4",
      "midi": 71,
      "start": 167.625,
      "duration": 0.375,
      "velocity": 0.71
    },
    {
      "id": "n-00963",
      "pitch": "E1",
      "midi": 28,
      "start": 168,
      "duration": 1.5,
      "velocity": 0.71
    },
    {
      "id": "n-00964",
      "pitch": "E2",
      "midi": 40,
      "start": 168,
      "duration": 1.5,
      "velocity": 0.71
    },
    {
      "id": "n-00965",
      "pitch": "B3",
      "midi": 59,
      "start": 168,
      "duration": 0.375,
      "velocity": 0.71
    },
    {
      "id": "n-00966",
      "pitch": "E4",
      "midi": 64,
      "start": 168,
      "duration": 1.5,
      "velocity": 0.71
    },
    {
      "id": "n-00967",
      "pitch": "G#4",
      "midi": 68,
      "start": 168,
      "duration": 1.5,
      "velocity": 0.71
    },
    {
      "id": "n-00968",
      "pitch": "B4",
      "midi": 71,
      "start": 168,
      "duration": 0.375,
      "velocity": 0.71
    },
    {
      "id": "n-00969",
      "pitch": "B3",
      "midi": 59,
      "start": 168.375,
      "duration": 0.375,
      "velocity": 0.71
    },
    {
      "id": "n-00970",
      "pitch": "B4",
      "midi": 71,
      "start": 168.375,
      "duration": 0.375,
      "velocity": 0.71
    },
    {
      "id": "n-00971",
      "pitch": "B3",
      "midi": 59,
      "start": 168.75,
      "duration": 0.375,
      "velocity": 0.71
    },
    {
      "id": "n-00972",
      "pitch": "B4",
      "midi": 71,
      "start": 168.75,
      "duration": 0.375,
      "velocity": 0.71
    },
    {
      "id": "n-00973",
      "pitch": "B3",
      "midi": 59,
      "start": 169.125,
      "duration": 0.375,
      "velocity": 0.71
    },
    {
      "id": "n-00974",
      "pitch": "B4",
      "midi": 71,
      "start": 169.125,
      "duration": 0.375,
      "velocity": 0.71
    },
    {
      "id": "n-00975",
      "pitch": "B1",
      "midi": 35,
      "start": 169.5,
      "duration": 1.125,
      "velocity": 0.71
    },
    {
      "id": "n-00976",
      "pitch": "B2",
      "midi": 47,
      "start": 169.5,
      "duration": 1.125,
      "velocity": 0.71
    },
    {
      "id": "n-00977",
      "pitch": "B3",
      "midi": 59,
      "start": 169.5,
      "duration": 0.375,
      "velocity": 0.71
    },
    {
      "id": "n-00978",
      "pitch": "D#4",
      "midi": 63,
      "start": 169.5,
      "duration": 1.5,
      "velocity": 0.71
    },
    {
      "id": "n-00979",
      "pitch": "G#4",
      "midi": 68,
      "start": 169.5,
      "duration": 1.5,
      "velocity": 0.71
    },
    {
      "id": "n-00980",
      "pitch": "B4",
      "midi": 71,
      "start": 169.5,
      "duration": 0.375,
      "velocity": 0.71
    },
    {
      "id": "n-00981",
      "pitch": "B3",
      "midi": 59,
      "start": 169.875,
      "duration": 0.375,
      "velocity": 0.71
    },
    {
      "id": "n-00982",
      "pitch": "B4",
      "midi": 71,
      "start": 169.875,
      "duration": 0.375,
      "velocity": 0.71
    },
    {
      "id": "n-00983",
      "pitch": "B3",
      "midi": 59,
      "start": 170.25,
      "duration": 0.375,
      "velocity": 0.71
    },
    {
      "id": "n-00984",
      "pitch": "B4",
      "midi": 71,
      "start": 170.25,
      "duration": 0.375,
      "velocity": 0.71
    },
    {
      "id": "n-00985",
      "pitch": "A#1",
      "midi": 34,
      "start": 170.625,
      "duration": 0.375,
      "velocity": 0.71
    },
    {
      "id": "n-00986",
      "pitch": "A#2",
      "midi": 46,
      "start": 170.625,
      "duration": 0.375,
      "velocity": 0.71
    },
    {
      "id": "n-00987",
      "pitch": "B3",
      "midi": 59,
      "start": 170.625,
      "duration": 0.375,
      "velocity": 0.71
    },
    {
      "id": "n-00988",
      "pitch": "B4",
      "midi": 71,
      "start": 170.625,
      "duration": 0.375,
      "velocity": 0.71
    },
    {
      "id": "n-00989",
      "pitch": "G#1",
      "midi": 32,
      "start": 171,
      "duration": 1.5,
      "velocity": 0.71
    },
    {
      "id": "n-00990",
      "pitch": "G#2",
      "midi": 44,
      "start": 171,
      "duration": 1.5,
      "velocity": 0.71
    },
    {
      "id": "n-00991",
      "pitch": "B3",
      "midi": 59,
      "start": 171,
      "duration": 0.375,
      "velocity": 0.71
    },
    {
      "id": "n-00992",
      "pitch": "D#4",
      "midi": 63,
      "start": 171,
      "duration": 1.5,
      "velocity": 0.71
    },
    {
      "id": "n-00993",
      "pitch": "G#4",
      "midi": 68,
      "start": 171,
      "duration": 1.5,
      "velocity": 0.71
    },
    {
      "id": "n-00994",
      "pitch": "B4",
      "midi": 71,
      "start": 171,
      "duration": 0.375,
      "velocity": 0.71
    },
    {
      "id": "n-00995",
      "pitch": "B3",
      "midi": 59,
      "start": 171.375,
      "duration": 0.375,
      "velocity": 0.71
    },
    {
      "id": "n-00996",
      "pitch": "B4",
      "midi": 71,
      "start": 171.375,
      "duration": 0.375,
      "velocity": 0.71
    },
    {
      "id": "n-00997",
      "pitch": "B3",
      "midi": 59,
      "start": 171.75,
      "duration": 0.375,
      "velocity": 0.71
    },
    {
      "id": "n-00998",
      "pitch": "B4",
      "midi": 71,
      "start": 171.75,
      "duration": 0.375,
      "velocity": 0.71
    },
    {
      "id": "n-00999",
      "pitch": "B3",
      "midi": 59,
      "start": 172.125,
      "duration": 0.375,
      "velocity": 0.71
    },
    {
      "id": "n-01000",
      "pitch": "B4",
      "midi": 71,
      "start": 172.125,
      "duration": 0.375,
      "velocity": 0.71
    },
    {
      "id": "n-01001",
      "pitch": "D#2",
      "midi": 39,
      "start": 172.5,
      "duration": 1.5,
      "velocity": 0.71
    },
    {
      "id": "n-01002",
      "pitch": "D#3",
      "midi": 51,
      "start": 172.5,
      "duration": 1.5,
      "velocity": 0.71
    },
    {
      "id": "n-01003",
      "pitch": "B3",
      "midi": 59,
      "start": 172.5,
      "duration": 0.375,
      "velocity": 0.71
    },
    {
      "id": "n-01004",
      "pitch": "D#4",
      "midi": 63,
      "start": 172.5,
      "duration": 1.5,
      "velocity": 0.71
    },
    {
      "id": "n-01005",
      "pitch": "G4",
      "midi": 67,
      "start": 172.5,
      "duration": 1.5,
      "velocity": 0.71
    },
    {
      "id": "n-01006",
      "pitch": "B4",
      "midi": 71,
      "start": 172.5,
      "duration": 0.375,
      "velocity": 0.71
    },
    {
      "id": "n-01007",
      "pitch": "B3",
      "midi": 59,
      "start": 172.875,
      "duration": 0.375,
      "velocity": 0.71
    },
    {
      "id": "n-01008",
      "pitch": "B4",
      "midi": 71,
      "start": 172.875,
      "duration": 0.375,
      "velocity": 0.71
    },
    {
      "id": "n-01009",
      "pitch": "B3",
      "midi": 59,
      "start": 173.25,
      "duration": 0.375,
      "velocity": 0.71
    },
    {
      "id": "n-01010",
      "pitch": "B4",
      "midi": 71,
      "start": 173.25,
      "duration": 0.375,
      "velocity": 0.71
    },
    {
      "id": "n-01011",
      "pitch": "B3",
      "midi": 59,
      "start": 173.625,
      "duration": 0.375,
      "velocity": 0.71
    },
    {
      "id": "n-01012",
      "pitch": "B4",
      "midi": 71,
      "start": 173.625,
      "duration": 0.375,
      "velocity": 0.71
    },
    {
      "id": "n-01013",
      "pitch": "G#1",
      "midi": 32,
      "start": 174,
      "duration": 1.5,
      "velocity": 0.71
    },
    {
      "id": "n-01014",
      "pitch": "G#2",
      "midi": 44,
      "start": 174,
      "duration": 1.5,
      "velocity": 0.71
    },
    {
      "id": "n-01015",
      "pitch": "B3",
      "midi": 59,
      "start": 174,
      "duration": 0.375,
      "velocity": 0.71
    },
    {
      "id": "n-01016",
      "pitch": "D#4",
      "midi": 63,
      "start": 174,
      "duration": 0.375,
      "velocity": 0.71
    },
    {
      "id": "n-01017",
      "pitch": "G#4",
      "midi": 68,
      "start": 174,
      "duration": 0.375,
      "velocity": 0.71
    },
    {
      "id": "n-01018",
      "pitch": "B4",
      "midi": 71,
      "start": 174,
      "duration": 0.375,
      "velocity": 0.71
    },
    {
      "id": "n-01019",
      "pitch": "G#4",
      "midi": 68,
      "start": 174.375,
      "duration": 0.375,
      "velocity": 0.71
    },
    {
      "id": "n-01020",
      "pitch": "G#4",
      "midi": 68,
      "start": 174.75,
      "duration": 0.375,
      "velocity": 0.71
    },
    {
      "id": "n-01021",
      "pitch": "G#4",
      "midi": 68,
      "start": 175.125,
      "duration": 0.375,
      "velocity": 0.71
    },
    {
      "id": "n-01022",
      "pitch": "G#4",
      "midi": 68,
      "start": 175.5,
      "duration": 0.375,
      "velocity": 0.71
    },
    {
      "id": "n-01023",
      "pitch": "G#4",
      "midi": 68,
      "start": 175.875,
      "duration": 0.375,
      "velocity": 0.71
    },
    {
      "id": "n-01024",
      "pitch": "G#4",
      "midi": 68,
      "start": 176.25,
      "duration": 0.375,
      "velocity": 0.71
    },
    {
      "id": "n-01025",
      "pitch": "G#4",
      "midi": 68,
      "start": 176.625,
      "duration": 0.375,
      "velocity": 0.71
    },
    {
      "id": "n-01026",
      "pitch": "F#2",
      "midi": 42,
      "start": 177,
      "duration": 1.5,
      "velocity": 0.71
    },
    {
      "id": "n-01027",
      "pitch": "G#2",
      "midi": 44,
      "start": 177,
      "duration": 1.5,
      "velocity": 0.71
    },
    {
      "id": "n-01028",
      "pitch": "D#3",
      "midi": 51,
      "start": 177,
      "duration": 1.5,
      "velocity": 0.71
    },
    {
      "id": "n-01029",
      "pitch": "C4",
      "midi": 60,
      "start": 177,
      "duration": 1.5,
      "velocity": 0.71
    },
    {
      "id": "n-01030",
      "pitch": "G#4",
      "midi": 68,
      "start": 177,
      "duration": 0.375,
      "velocity": 0.71
    },
    {
      "id": "n-01031",
      "pitch": "C5",
      "midi": 72,
      "start": 177,
      "duration": 1.5,
      "velocity": 0.71
    },
    {
      "id": "n-01032",
      "pitch": "G#4",
      "midi": 68,
      "start": 177.375,
      "duration": 0.375,
      "velocity": 0.71
    },
    {
      "id": "n-01033",
      "pitch": "G#4",
      "midi": 68,
      "start": 177.75,
      "duration": 0.375,
      "velocity": 0.71
    },
    {
      "id": "n-01034",
      "pitch": "G#4",
      "midi": 68,
      "start": 178.125,
      "duration": 0.375,
      "velocity": 0.71
    },
    {
      "id": "n-01035",
      "pitch": "E2",
      "midi": 40,
      "start": 178.5,
      "duration": 0.75,
      "velocity": 0.71
    },
    {
      "id": "n-01036",
      "pitch": "G#2",
      "midi": 44,
      "start": 178.5,
      "duration": 1.5,
      "velocity": 0.71
    },
    {
      "id": "n-01037",
      "pitch": "E3",
      "midi": 52,
      "start": 178.5,
      "duration": 0.75,
      "velocity": 0.71
    },
    {
      "id": "n-01038",
      "pitch": "C#4",
      "midi": 61,
      "start": 178.5,
      "duration": 1.5,
      "velocity": 0.71
    },
    {
      "id": "n-01039",
      "pitch": "G#4",
      "midi": 68,
      "start": 178.5,
      "duration": 0.375,
      "velocity": 0.71
    },
    {
      "id": "n-01040",
      "pitch": "C#5",
      "midi": 73,
      "start": 178.5,
      "duration": 1.5,
      "velocity": 0.71
    },
    {
      "id": "n-01041",
      "pitch": "G#4",
      "midi": 68,
      "start": 178.875,
      "duration": 0.375,
      "velocity": 0.71
    },
    {
      "id": "n-01042",
      "pitch": "C#2",
      "midi": 37,
      "start": 179.25,
      "duration": 0.75,
      "velocity": 0.71
    },
    {
      "id": "n-01043",
      "pitch": "C#3",
      "midi": 49,
      "start": 179.25,
      "duration": 0.75,
      "velocity": 0.71
    },
    {
      "id": "n-01044",
      "pitch": "G#4",
      "midi": 68,
      "start": 179.25,
      "duration": 0.375,
      "velocity": 0.71
    },
    {
      "id": "n-01045",
      "pitch": "G#4",
      "midi": 68,
      "start": 179.625,
      "duration": 0.375,
      "velocity": 0.71
    },
    {
      "id": "n-01046",
      "pitch": "G#1",
      "midi": 32,
      "start": 180,
      "duration": 2.25,
      "velocity": 0.71
    },
    {
      "id": "n-01047",
      "pitch": "G#2",
      "midi": 44,
      "start": 180,
      "duration": 2.25,
      "velocity": 0.71
    },
    {
      "id": "n-01048",
      "pitch": "D#4",
      "midi": 63,
      "start": 180,
      "duration": 2.25,
      "velocity": 0.71
    },
    {
      "id": "n-01049",
      "pitch": "G#4",
      "midi": 68,
      "start": 180,
      "duration": 0.375,
      "velocity": 0.71
    },
    {
      "id": "n-01050",
      "pitch": "C#5",
      "midi": 73,
      "start": 180,
      "duration": 2.25,
      "velocity": 0.71
    },
    {
      "id": "n-01051",
      "pitch": "D#5",
      "midi": 75,
      "start": 180,
      "duration": 2.25,
      "velocity": 0.71
    },
    {
      "id": "n-01052",
      "pitch": "G#4",
      "midi": 68,
      "start": 180.375,
      "duration": 0.375,
      "velocity": 0.71
    },
    {
      "id": "n-01053",
      "pitch": "G#4",
      "midi": 68,
      "start": 180.75,
      "duration": 0.375,
      "velocity": 0.71
    },
    {
      "id": "n-01054",
      "pitch": "G#4",
      "midi": 68,
      "start": 181.125,
      "duration": 0.375,
      "velocity": 0.71
    },
    {
      "id": "n-01055",
      "pitch": "G#4",
      "midi": 68,
      "start": 181.5,
      "duration": 0.375,
      "velocity": 0.71
    },
    {
      "id": "n-01056",
      "pitch": "G#4",
      "midi": 68,
      "start": 181.875,
      "duration": 0.375,
      "velocity": 0.71
    },
    {
      "id": "n-01057",
      "pitch": "G#2",
      "midi": 44,
      "start": 182.25,
      "duration": 0.75,
      "velocity": 0.71
    },
    {
      "id": "n-01058",
      "pitch": "G#3",
      "midi": 56,
      "start": 182.25,
      "duration": 0.75,
      "velocity": 0.71
    },
    {
      "id": "n-01059",
      "pitch": "D#4",
      "midi": 63,
      "start": 182.25,
      "duration": 0.75,
      "velocity": 0.71
    },
    {
      "id": "n-01060",
      "pitch": "G#4",
      "midi": 68,
      "start": 182.25,
      "duration": 0.375,
      "velocity": 0.71
    },
    {
      "id": "n-01061",
      "pitch": "C5",
      "midi": 72,
      "start": 182.25,
      "duration": 0.75,
      "velocity": 0.71
    },
    {
      "id": "n-01062",
      "pitch": "D#5",
      "midi": 75,
      "start": 182.25,
      "duration": 0.75,
      "velocity": 0.71
    },
    {
      "id": "n-01063",
      "pitch": "G#4",
      "midi": 68,
      "start": 182.625,
      "duration": 0.375,
      "velocity": 0.71
    },
    {
      "id": "n-01064",
      "pitch": "C#3",
      "midi": 49,
      "start": 183,
      "duration": 1.5,
      "velocity": 0.71
    },
    {
      "id": "n-01065",
      "pitch": "G#3",
      "midi": 56,
      "start": 183,
      "duration": 1.5,
      "velocity": 0.71
    },
    {
      "id": "n-01066",
      "pitch": "E4",
      "midi": 64,
      "start": 183,
      "duration": 0.75,
      "velocity": 0.71
    },
    {
      "id": "n-01067",
      "pitch": "G#4",
      "midi": 68,
      "start": 183,
      "duration": 0.375,
      "velocity": 0.71
    },
    {
      "id": "n-01068",
      "pitch": "D#5",
      "midi": 75,
      "start": 183,
      "duration": 0.75,
      "velocity": 0.71
    },
    {
      "id": "n-01069",
      "pitch": "E5",
      "midi": 76,
      "start": 183,
      "duration": 0.75,
      "velocity": 0.71
    },
    {
      "id": "n-01070",
      "pitch": "G#4",
      "midi": 68,
      "start": 183.375,
      "duration": 0.375,
      "velocity": 0.71
    },
    {
      "id": "n-01071",
      "pitch": "E4",
      "midi": 64,
      "start": 183.75,
      "duration": 0.75,
      "velocity": 0.71
    },
    {
      "id": "n-01072",
      "pitch": "G#4",
      "midi": 68,
      "start": 183.75,
      "duration": 0.375,
      "velocity": 0.71
    },
    {
      "id": "n-01073",
      "pitch": "C#5",
      "midi": 73,
      "start": 183.75,
      "duration": 0.75,
      "velocity": 0.71
    },
    {
      "id": "n-01074",
      "pitch": "E5",
      "midi": 76,
      "start": 183.75,
      "duration": 0.75,
      "velocity": 0.71
    },
    {
      "id": "n-01075",
      "pitch": "G#4",
      "midi": 68,
      "start": 184.125,
      "duration": 0.375,
      "velocity": 0.71
    },
    {
      "id": "n-01076",
      "pitch": "G#2",
      "midi": 44,
      "start": 184.5,
      "duration": 1.5,
      "velocity": 0.71
    },
    {
      "id": "n-01077",
      "pitch": "G#3",
      "midi": 56,
      "start": 184.5,
      "duration": 1.5,
      "velocity": 0.71
    },
    {
      "id": "n-01078",
      "pitch": "D#4",
      "midi": 63,
      "start": 184.5,
      "duration": 0.75,
      "velocity": 0.71
    },
    {
      "id": "n-01079",
      "pitch": "G#4",
      "midi": 68,
      "start": 184.5,
      "duration": 0.375,
      "velocity": 0.71
    },
    {
      "id": "n-01080",
      "pitch": "C#5",
      "midi": 73,
      "start": 184.5,
      "duration": 0.75,
      "velocity": 0.71
    },
    {
      "id": "n-01081",
      "pitch": "D#5",
      "midi": 75,
      "start": 184.5,
      "duration": 0.75,
      "velocity": 0.71
    },
    {
      "id": "n-01082",
      "pitch": "G#4",
      "midi": 68,
      "start": 184.875,
      "duration": 0.375,
      "velocity": 0.71
    },
    {
      "id": "n-01083",
      "pitch": "D#4",
      "midi": 63,
      "start": 185.25,
      "duration": 0.75,
      "velocity": 0.71
    },
    {
      "id": "n-01084",
      "pitch": "G#4",
      "midi": 68,
      "start": 185.25,
      "duration": 0.375,
      "velocity": 0.71
    },
    {
      "id": "n-01085",
      "pitch": "C5",
      "midi": 72,
      "start": 185.25,
      "duration": 0.75,
      "velocity": 0.71
    },
    {
      "id": "n-01086",
      "pitch": "D#5",
      "midi": 75,
      "start": 185.25,
      "duration": 0.75,
      "velocity": 0.71
    },
    {
      "id": "n-01087",
      "pitch": "G#4",
      "midi": 68,
      "start": 185.625,
      "duration": 0.375,
      "velocity": 0.71
    },
    {
      "id": "n-01088",
      "pitch": "A2",
      "midi": 45,
      "start": 186,
      "duration": 1.5,
      "velocity": 0.71
    },
    {
      "id": "n-01089",
      "pitch": "A3",
      "midi": 57,
      "start": 186,
      "duration": 1.5,
      "velocity": 0.71
    },
    {
      "id": "n-01090",
      "pitch": "C#4",
      "midi": 61,
      "start": 186,
      "duration": 3,
      "velocity": 0.71
    },
    {
      "id": "n-01091",
      "pitch": "G#4",
      "midi": 68,
      "start": 186,
      "duration": 0.375,
      "velocity": 0.71
    },
    {
      "id": "n-01092",
      "pitch": "C#5",
      "midi": 73,
      "start": 186,
      "duration": 3,
      "velocity": 0.71
    },
    {
      "id": "n-01093",
      "pitch": "G#4",
      "midi": 68,
      "start": 186.375,
      "duration": 0.375,
      "velocity": 0.71
    },
    {
      "id": "n-01094",
      "pitch": "F#4",
      "midi": 66,
      "start": 186.75,
      "duration": 0.375,
      "velocity": 0.71
    },
    {
      "id": "n-01095",
      "pitch": "F#4",
      "midi": 66,
      "start": 187.125,
      "duration": 0.375,
      "velocity": 0.71
    },
    {
      "id": "n-01096",
      "pitch": "G#2",
      "midi": 44,
      "start": 187.5,
      "duration": 0.75,
      "velocity": 0.71
    },
    {
      "id": "n-01097",
      "pitch": "G#3",
      "midi": 56,
      "start": 187.5,
      "duration": 0.75,
      "velocity": 0.71
    },
    {
      "id": "n-01098",
      "pitch": "G#4",
      "midi": 68,
      "start": 187.5,
      "duration": 0.375,
      "velocity": 0.71
    },
    {
      "id": "n-01099",
      "pitch": "G#4",
      "midi": 68,
      "start": 187.875,
      "duration": 0.375,
      "velocity": 0.71
    },
    {
      "id": "n-01100",
      "pitch": "F#2",
      "midi": 42,
      "start": 188.25,
      "duration": 0.75,
      "velocity": 0.71
    },
    {
      "id": "n-01101",
      "pitch": "F#3",
      "midi": 54,
      "start": 188.25,
      "duration": 0.75,
      "velocity": 0.71
    },
    {
      "id": "n-01102",
      "pitch": "A4",
      "midi": 69,
      "start": 188.25,
      "duration": 0.375,
      "velocity": 0.71
    },
    {
      "id": "n-01103",
      "pitch": "A4",
      "midi": 69,
      "start": 188.625,
      "duration": 0.375,
      "velocity": 0.71
    },
    {
      "id": "n-01104",
      "pitch": "G#2",
      "midi": 44,
      "start": 189,
      "duration": 1.5,
      "velocity": 0.71
    },
    {
      "id": "n-01105",
      "pitch": "G#3",
      "midi": 56,
      "start": 189,
      "duration": 0.375,
      "velocity": 0.71
    },
    {
      "id": "n-01106",
      "pitch": "C4",
      "midi": 60,
      "start": 189,
      "duration": 1.5,
      "velocity": 0.71
    },
    {
      "id": "n-01107",
      "pitch": "D#4",
      "midi": 63,
      "start": 189,
      "duration": 1.5,
      "velocity": 0.71
    },
    {
      "id": "n-01108",
      "pitch": "G#4",
      "midi": 68,
      "start": 189,
      "duration": 1.5,
      "velocity": 0.71
    },
    {
      "id": "n-01109",
      "pitch": "G#3",
      "midi": 56,
      "start": 189.375,
      "duration": 0.375,
      "velocity": 0.71
    },
    {
      "id": "n-01110",
      "pitch": "G#3",
      "midi": 56,
      "start": 189.75,
      "duration": 0.375,
      "velocity": 0.71
    },
    {
      "id": "n-01111",
      "pitch": "G#3",
      "midi": 56,
      "start": 190.125,
      "duration": 0.375,
      "velocity": 0.71
    },
    {
      "id": "n-01112",
      "pitch": "C#2",
      "midi": 37,
      "start": 190.5,
      "duration": 1.5,
      "velocity": 0.71
    },
    {
      "id": "n-01113",
      "pitch": "G#2",
      "midi": 44,
      "start": 190.5,
      "duration": 1.5,
      "velocity": 0.71
    },
    {
      "id": "n-01114",
      "pitch": "G#3",
      "midi": 56,
      "start": 190.5,
      "duration": 0.375,
      "velocity": 0.71
    },
    {
      "id": "n-01115",
      "pitch": "C#4",
      "midi": 61,
      "start": 190.5,
      "duration": 0.75,
      "velocity": 0.71
    },
    {
      "id": "n-01116",
      "pitch": "E4",
      "midi": 64,
      "start": 190.5,
      "duration": 0.75,
      "velocity": 0.71
    },
    {
      "id": "n-01117",
      "pitch": "G#4",
      "midi": 68,
      "start": 190.5,
      "duration": 0.75,
      "velocity": 0.71
    },
    {
      "id": "n-01118",
      "pitch": "G#3",
      "midi": 56,
      "start": 190.875,
      "duration": 0.375,
      "velocity": 0.71
    },
    {
      "id": "n-01119",
      "pitch": "G#3",
      "midi": 56,
      "start": 191.25,
      "duration": 0.375,
      "velocity": 0.71
    },
    {
      "id": "n-01120",
      "pitch": "A#3",
      "midi": 58,
      "start": 191.25,
      "duration": 0.75,
      "velocity": 0.71
    },
    {
      "id": "n-01121",
      "pitch": "C#4",
      "midi": 61,
      "start": 191.25,
      "duration": 0.75,
      "velocity": 0.71
    },
    {
      "id": "n-01122",
      "pitch": "G#4",
      "midi": 68,
      "start": 191.25,
      "duration": 0.75,
      "velocity": 0.71
    },
    {
      "id": "n-01123",
      "pitch": "G#3",
      "midi": 56,
      "start": 191.625,
      "duration": 0.375,
      "velocity": 0.71
    },
    {
      "id": "n-01124",
      "pitch": "G#1",
      "midi": 32,
      "start": 192,
      "duration": 0.75,
      "velocity": 0.71
    },
    {
      "id": "n-01125",
      "pitch": "G#2",
      "midi": 44,
      "start": 192,
      "duration": 0.75,
      "velocity": 0.71
    },
    {
      "id": "n-01126",
      "pitch": "G#3",
      "midi": 56,
      "start": 192,
      "duration": 0.375,
      "velocity": 0.71
    },
    {
      "id": "n-01127",
      "pitch": "C4",
      "midi": 60,
      "start": 192,
      "duration": 0.75,
      "velocity": 0.71
    },
    {
      "id": "n-01128",
      "pitch": "D#4",
      "midi": 63,
      "start": 192,
      "duration": 0.75,
      "velocity": 0.71
    },
    {
      "id": "n-01129",
      "pitch": "G#4",
      "midi": 68,
      "start": 192,
      "duration": 0.75,
      "velocity": 0.71
    },
    {
      "id": "n-01130",
      "pitch": "G#3",
      "midi": 56,
      "start": 192.375,
      "duration": 0.375,
      "velocity": 0.71
    },
    {
      "id": "n-01131",
      "pitch": "C#2",
      "midi": 37,
      "start": 192.75,
      "duration": 2.25,
      "velocity": 0.71
    },
    {
      "id": "n-01132",
      "pitch": "G#2",
      "midi": 44,
      "start": 192.75,
      "duration": 2.25,
      "velocity": 0.71
    },
    {
      "id": "n-01133",
      "pitch": "G#3",
      "midi": 56,
      "start": 192.75,
      "duration": 0.375,
      "velocity": 0.71
    },
    {
      "id": "n-01134",
      "pitch": "C#4",
      "midi": 61,
      "start": 192.75,
      "duration": 0.75,
      "velocity": 0.71
    },
    {
      "id": "n-01135",
      "pitch": "E4",
      "midi": 64,
      "start": 192.75,
      "duration": 0.75,
      "velocity": 0.71
    },
    {
      "id": "n-01136",
      "pitch": "G#4",
      "midi": 68,
      "start": 192.75,
      "duration": 0.75,
      "velocity": 0.71
    },
    {
      "id": "n-01137",
      "pitch": "G#3",
      "midi": 56,
      "start": 193.125,
      "duration": 0.375,
      "velocity": 0.71
    },
    {
      "id": "n-01138",
      "pitch": "G#3",
      "midi": 56,
      "start": 193.5,
      "duration": 0.375,
      "velocity": 0.71
    },
    {
      "id": "n-01139",
      "pitch": "A#3",
      "midi": 58,
      "start": 193.5,
      "duration": 0.75,
      "velocity": 0.71
    },
    {
      "id": "n-01140",
      "pitch": "C#4",
      "midi": 61,
      "start": 193.5,
      "duration": 0.75,
      "velocity": 0.71
    },
    {
      "id": "n-01141",
      "pitch": "G#4",
      "midi": 68,
      "start": 193.5,
      "duration": 0.75,
      "velocity": 0.71
    },
    {
      "id": "n-01142",
      "pitch": "G#3",
      "midi": 56,
      "start": 193.875,
      "duration": 0.375,
      "velocity": 0.71
    },
    {
      "id": "n-01143",
      "pitch": "G#3",
      "midi": 56,
      "start": 194.25,
      "duration": 0.375,
      "velocity": 0.71
    },
    {
      "id": "n-01144",
      "pitch": "C#4",
      "midi": 61,
      "start": 194.25,
      "duration": 0.75,
      "velocity": 0.71
    },
    {
      "id": "n-01145",
      "pitch": "E4",
      "midi": 64,
      "start": 194.25,
      "duration": 0.75,
      "velocity": 0.71
    },
    {
      "id": "n-01146",
      "pitch": "G#4",
      "midi": 68,
      "start": 194.25,
      "duration": 0.75,
      "velocity": 0.71
    },
    {
      "id": "n-01147",
      "pitch": "G#3",
      "midi": 56,
      "start": 194.625,
      "duration": 0.375,
      "velocity": 0.71
    },
    {
      "id": "n-01148",
      "pitch": "C#2",
      "midi": 37,
      "start": 195,
      "duration": 0.75,
      "velocity": 0.71
    },
    {
      "id": "n-01149",
      "pitch": "G#2",
      "midi": 44,
      "start": 195,
      "duration": 0.75,
      "velocity": 0.71
    },
    {
      "id": "n-01150",
      "pitch": "G#3",
      "midi": 56,
      "start": 195,
      "duration": 0.375,
      "velocity": 0.71
    },
    {
      "id": "n-01151",
      "pitch": "C#4",
      "midi": 61,
      "start": 195,
      "duration": 0.75,
      "velocity": 0.71
    },
    {
      "id": "n-01152",
      "pitch": "E4",
      "midi": 64,
      "start": 195,
      "duration": 0.75,
      "velocity": 0.71
    },
    {
      "id": "n-01153",
      "pitch": "G#4",
      "midi": 68,
      "start": 195,
      "duration": 0.75,
      "velocity": 0.71
    },
    {
      "id": "n-01154",
      "pitch": "G#3",
      "midi": 56,
      "start": 195.375,
      "duration": 0.375,
      "velocity": 0.71
    },
    {
      "id": "n-01155",
      "pitch": "G#1",
      "midi": 32,
      "start": 195.75,
      "duration": 1.5,
      "velocity": 0.71
    },
    {
      "id": "n-01156",
      "pitch": "G#2",
      "midi": 44,
      "start": 195.75,
      "duration": 1.5,
      "velocity": 0.71
    },
    {
      "id": "n-01157",
      "pitch": "G#3",
      "midi": 56,
      "start": 195.75,
      "duration": 0.375,
      "velocity": 0.71
    },
    {
      "id": "n-01158",
      "pitch": "C4",
      "midi": 60,
      "start": 195.75,
      "duration": 0.75,
      "velocity": 0.71
    },
    {
      "id": "n-01159",
      "pitch": "D#4",
      "midi": 63,
      "start": 195.75,
      "duration": 0.75,
      "velocity": 0.71
    },
    {
      "id": "n-01160",
      "pitch": "G#4",
      "midi": 68,
      "start": 195.75,
      "duration": 0.75,
      "velocity": 0.71
    },
    {
      "id": "n-01161",
      "pitch": "G#3",
      "midi": 56,
      "start": 196.125,
      "duration": 0.375,
      "velocity": 0.71
    },
    {
      "id": "n-01162",
      "pitch": "G#3",
      "midi": 56,
      "start": 196.5,
      "duration": 0.375,
      "velocity": 0.71
    },
    {
      "id": "n-01163",
      "pitch": "D#4",
      "midi": 63,
      "start": 196.5,
      "duration": 0.75,
      "velocity": 0.71
    },
    {
      "id": "n-01164",
      "pitch": "F#4",
      "midi": 66,
      "start": 196.5,
      "duration": 0.75,
      "velocity": 0.71
    },
    {
      "id": "n-01165",
      "pitch": "G#4",
      "midi": 68,
      "start": 196.5,
      "duration": 0.75,
      "velocity": 0.71
    },
    {
      "id": "n-01166",
      "pitch": "G#3",
      "midi": 56,
      "start": 196.875,
      "duration": 0.375,
      "velocity": 0.71
    },
    {
      "id": "n-01167",
      "pitch": "C#2",
      "midi": 37,
      "start": 197.25,
      "duration": 0.75,
      "velocity": 0.71
    },
    {
      "id": "n-01168",
      "pitch": "G#2",
      "midi": 44,
      "start": 197.25,
      "duration": 0.75,
      "velocity": 0.71
    },
    {
      "id": "n-01169",
      "pitch": "G#3",
      "midi": 56,
      "start": 197.25,
      "duration": 0.375,
      "velocity": 0.71
    },
    {
      "id": "n-01170",
      "pitch": "C#4",
      "midi": 61,
      "start": 197.25,
      "duration": 0.75,
      "velocity": 0.71
    },
    {
      "id": "n-01171",
      "pitch": "E4",
      "midi": 64,
      "start": 197.25,
      "duration": 0.75,
      "velocity": 0.71
    },
    {
      "id": "n-01172",
      "pitch": "G#4",
      "midi": 68,
      "start": 197.25,
      "duration": 0.75,
      "velocity": 0.71
    },
    {
      "id": "n-01173",
      "pitch": "G#3",
      "midi": 56,
      "start": 197.625,
      "duration": 0.375,
      "velocity": 0.71
    },
    {
      "id": "n-01174",
      "pitch": "G#1",
      "midi": 32,
      "start": 198,
      "duration": 3,
      "velocity": 0.71
    },
    {
      "id": "n-01175",
      "pitch": "G#2",
      "midi": 44,
      "start": 198,
      "duration": 3,
      "velocity": 0.71
    },
    {
      "id": "n-01176",
      "pitch": "G#3",
      "midi": 56,
      "start": 198,
      "duration": 0.375,
      "velocity": 0.71
    },
    {
      "id": "n-01177",
      "pitch": "C4",
      "midi": 60,
      "start": 198,
      "duration": 3,
      "velocity": 0.71
    },
    {
      "id": "n-01178",
      "pitch": "D#4",
      "midi": 63,
      "start": 198,
      "duration": 3,
      "velocity": 0.71
    },
    {
      "id": "n-01179",
      "pitch": "G#4",
      "midi": 68,
      "start": 198,
      "duration": 3,
      "velocity": 0.71
    },
    {
      "id": "n-01180",
      "pitch": "G#3",
      "midi": 56,
      "start": 198.375,
      "duration": 0.375,
      "velocity": 0.71
    },
    {
      "id": "n-01181",
      "pitch": "G#3",
      "midi": 56,
      "start": 198.75,
      "duration": 0.375,
      "velocity": 0.71
    },
    {
      "id": "n-01182",
      "pitch": "G#3",
      "midi": 56,
      "start": 199.125,
      "duration": 0.375,
      "velocity": 0.71
    },
    {
      "id": "n-01183",
      "pitch": "G#3",
      "midi": 56,
      "start": 199.5,
      "duration": 0.375,
      "velocity": 0.71
    },
    {
      "id": "n-01184",
      "pitch": "G#3",
      "midi": 56,
      "start": 199.875,
      "duration": 0.375,
      "velocity": 0.71
    },
    {
      "id": "n-01185",
      "pitch": "G#3",
      "midi": 56,
      "start": 200.25,
      "duration": 0.375,
      "velocity": 0.71
    },
    {
      "id": "n-01186",
      "pitch": "G#3",
      "midi": 56,
      "start": 200.625,
      "duration": 0.375,
      "velocity": 0.71
    },
    {
      "id": "n-01187",
      "pitch": "F#2",
      "midi": 42,
      "start": 201,
      "duration": 1.5,
      "velocity": 0.71
    },
    {
      "id": "n-01188",
      "pitch": "G#2",
      "midi": 44,
      "start": 201,
      "duration": 0.375,
      "velocity": 0.71
    },
    {
      "id": "n-01189",
      "pitch": "F#3",
      "midi": 54,
      "start": 201,
      "duration": 1.5,
      "velocity": 0.71
    },
    {
      "id": "n-01190",
      "pitch": "C4",
      "midi": 60,
      "start": 201,
      "duration": 1.5,
      "velocity": 0.71
    },
    {
      "id": "n-01191",
      "pitch": "D#4",
      "midi": 63,
      "start": 201,
      "duration": 1.5,
      "velocity": 0.71
    },
    {
      "id": "n-01192",
      "pitch": "G#4",
      "midi": 68,
      "start": 201,
      "duration": 0.375,
      "velocity": 0.71
    },
    {
      "id": "n-01193",
      "pitch": "C5",
      "midi": 72,
      "start": 201,
      "duration": 1.5,
      "velocity": 0.71
    },
    {
      "id": "n-01194",
      "pitch": "G#2",
      "midi": 44,
      "start": 201.375,
      "duration": 0.375,
      "velocity": 0.71
    },
    {
      "id": "n-01195",
      "pitch": "G#4",
      "midi": 68,
      "start": 201.375,
      "duration": 0.375,
      "velocity": 0.71
    },
    {
      "id": "n-01196",
      "pitch": "G#2",
      "midi": 44,
      "start": 201.75,
      "duration": 0.375,
      "velocity": 0.71
    },
    {
      "id": "n-01197",
      "pitch": "G#4",
      "midi": 68,
      "start": 201.75,
      "duration": 0.375,
      "velocity": 0.71
    },
    {
      "id": "n-01198",
      "pitch": "G#2",
      "midi": 44,
      "start": 202.125,
      "duration": 0.375,
      "velocity": 0.71
    },
    {
      "id": "n-01199",
      "pitch": "G#4",
      "midi": 68,
      "start": 202.125,
      "duration": 0.375,
      "velocity": 0.71
    },
    {
      "id": "n-01200",
      "pitch": "E2",
      "midi": 40,
      "start": 202.5,
      "duration": 0.75,
      "velocity": 0.71
    },
    {
      "id": "n-01201",
      "pitch": "G#2",
      "midi": 44,
      "start": 202.5,
      "duration": 0.75,
      "velocity": 0.71
    },
    {
      "id": "n-01202",
      "pitch": "E3",
      "midi": 52,
      "start": 202.5,
      "duration": 0.75,
      "velocity": 0.71
    },
    {
      "id": "n-01203",
      "pitch": "C#4",
      "midi": 61,
      "start": 202.5,
      "duration": 1.5,
      "velocity": 0.71
    },
    {
      "id": "n-01204",
      "pitch": "G#4",
      "midi": 68,
      "start": 202.5,
      "duration": 0.375,
      "velocity": 0.71
    },
    {
      "id": "n-01205",
      "pitch": "C#5",
      "midi": 73,
      "start": 202.5,
      "duration": 1.5,
      "velocity": 0.71
    },
    {
      "id": "n-01206",
      "pitch": "G#4",
      "midi": 68,
      "start": 202.875,
      "duration": 0.375,
      "velocity": 0.71
    },
    {
      "id": "n-01207",
      "pitch": "C#2",
      "midi": 37,
      "start": 203.25,
      "duration": 0.75,
      "velocity": 0.71
    },
    {
      "id": "n-01208",
      "pitch": "C#3",
      "midi": 49,
      "start": 203.25,
      "duration": 0.75,
      "velocity": 0.71
    },
    {
      "id": "n-01209",
      "pitch": "G#4",
      "midi": 68,
      "start": 203.25,
      "duration": 0.375,
      "velocity": 0.71
    },
    {
      "id": "n-01210",
      "pitch": "G#4",
      "midi": 68,
      "start": 203.625,
      "duration": 0.375,
      "velocity": 0.71
    },
    {
      "id": "n-01211",
      "pitch": "G#1",
      "midi": 32,
      "start": 204,
      "duration": 3,
      "velocity": 0.71
    },
    {
      "id": "n-01212",
      "pitch": "G#2",
      "midi": 44,
      "start": 204,
      "duration": 3,
      "velocity": 0.71
    },
    {
      "id": "n-01213",
      "pitch": "D#4",
      "midi": 63,
      "start": 204,
      "duration": 2.25,
      "velocity": 0.71
    },
    {
      "id": "n-01214",
      "pitch": "G#4",
      "midi": 68,
      "start": 204,
      "duration": 0.375,
      "velocity": 0.71
    },
    {
      "id": "n-01215",
      "pitch": "C#5",
      "midi": 73,
      "start": 204,
      "duration": 2.25,
      "velocity": 0.71
    },
    {
      "id": "n-01216",
      "pitch": "D#5",
      "midi": 75,
      "start": 204,
      "duration": 2.25,
      "velocity": 0.71
    },
    {
      "id": "n-01217",
      "pitch": "G#4",
      "midi": 68,
      "start": 204.375,
      "duration": 0.375,
      "velocity": 0.71
    },
    {
      "id": "n-01218",
      "pitch": "G#4",
      "midi": 68,
      "start": 204.75,
      "duration": 0.375,
      "velocity": 0.71
    },
    {
      "id": "n-01219",
      "pitch": "G#4",
      "midi": 68,
      "start": 205.125,
      "duration": 0.375,
      "velocity": 0.71
    },
    {
      "id": "n-01220",
      "pitch": "G#4",
      "midi": 68,
      "start": 205.5,
      "duration": 0.375,
      "velocity": 0.71
    },
    {
      "id": "n-01221",
      "pitch": "G#4",
      "midi": 68,
      "start": 205.875,
      "duration": 0.375,
      "velocity": 0.71
    },
    {
      "id": "n-01222",
      "pitch": "D#4",
      "midi": 63,
      "start": 206.25,
      "duration": 0.75,
      "velocity": 0.71
    },
    {
      "id": "n-01223",
      "pitch": "G#4",
      "midi": 68,
      "start": 206.25,
      "duration": 0.375,
      "velocity": 0.71
    },
    {
      "id": "n-01224",
      "pitch": "C5",
      "midi": 72,
      "start": 206.25,
      "duration": 0.75,
      "velocity": 0.71
    },
    {
      "id": "n-01225",
      "pitch": "D#5",
      "midi": 75,
      "start": 206.25,
      "duration": 0.75,
      "velocity": 0.71
    },
    {
      "id": "n-01226",
      "pitch": "G#4",
      "midi": 68,
      "start": 206.625,
      "duration": 0.375,
      "velocity": 0.71
    },
    {
      "id": "n-01227",
      "pitch": "C#2",
      "midi": 37,
      "start": 207,
      "duration": 1.5,
      "velocity": 0.71
    },
    {
      "id": "n-01228",
      "pitch": "G#2",
      "midi": 44,
      "start": 207,
      "duration": 1.5,
      "velocity": 0.71
    },
    {
      "id": "n-01229",
      "pitch": "E4",
      "midi": 64,
      "start": 207,
      "duration": 0.75,
      "velocity": 0.71
    },
    {
      "id": "n-01230",
      "pitch": "G#4",
      "midi": 68,
      "start": 207,
      "duration": 0.375,
      "velocity": 0.71
    },
    {
      "id": "n-01231",
      "pitch": "D#5",
      "midi": 75,
      "start": 207,
      "duration": 0.75,
      "velocity": 0.71
    },
    {
      "id": "n-01232",
      "pitch": "E5",
      "midi": 76,
      "start": 207,
      "duration": 0.75,
      "velocity": 0.71
    },
    {
      "id": "n-01233",
      "pitch": "G#4",
      "midi": 68,
      "start": 207.375,
      "duration": 0.375,
      "velocity": 0.71
    },
    {
      "id": "n-01234",
      "pitch": "E4",
      "midi": 64,
      "start": 207.75,
      "duration": 0.75,
      "velocity": 0.71
    },
    {
      "id": "n-01235",
      "pitch": "G#4",
      "midi": 68,
      "start": 207.75,
      "duration": 0.375,
      "velocity": 0.71
    },
    {
      "id": "n-01236",
      "pitch": "C#5",
      "midi": 73,
      "start": 207.75,
      "duration": 0.75,
      "velocity": 0.71
    },
    {
      "id": "n-01237",
      "pitch": "E5",
      "midi": 76,
      "start": 207.75,
      "duration": 0.75,
      "velocity": 0.71
    },
    {
      "id": "n-01238",
      "pitch": "G#4",
      "midi": 68,
      "start": 208.125,
      "duration": 0.375,
      "velocity": 0.71
    },
    {
      "id": "n-01239",
      "pitch": "G#2",
      "midi": 44,
      "start": 208.5,
      "duration": 1.5,
      "velocity": 0.71
    },
    {
      "id": "n-01240",
      "pitch": "G#3",
      "midi": 56,
      "start": 208.5,
      "duration": 1.5,
      "velocity": 0.71
    },
    {
      "id": "n-01241",
      "pitch": "D#4",
      "midi": 63,
      "start": 208.5,
      "duration": 0.75,
      "velocity": 0.71
    },
    {
      "id": "n-01242",
      "pitch": "G#4",
      "midi": 68,
      "start": 208.5,
      "duration": 0.375,
      "velocity": 0.71
    },
    {
      "id": "n-01243",
      "pitch": "C#5",
      "midi": 73,
      "start": 208.5,
      "duration": 0.75,
      "velocity": 0.71
    },
    {
      "id": "n-01244",
      "pitch": "D#5",
      "midi": 75,
      "start": 208.5,
      "duration": 0.75,
      "velocity": 0.71
    },
    {
      "id": "n-01245",
      "pitch": "G#4",
      "midi": 68,
      "start": 208.875,
      "duration": 0.375,
      "velocity": 0.71
    },
    {
      "id": "n-01246",
      "pitch": "D#4",
      "midi": 63,
      "start": 209.25,
      "duration": 0.75,
      "velocity": 0.71
    },
    {
      "id": "n-01247",
      "pitch": "G#4",
      "midi": 68,
      "start": 209.25,
      "duration": 0.375,
      "velocity": 0.71
    },
    {
      "id": "n-01248",
      "pitch": "C5",
      "midi": 72,
      "start": 209.25,
      "duration": 0.75,
      "velocity": 0.71
    },
    {
      "id": "n-01249",
      "pitch": "D#5",
      "midi": 75,
      "start": 209.25,
      "duration": 0.75,
      "velocity": 0.71
    },
    {
      "id": "n-01250",
      "pitch": "G#4",
      "midi": 68,
      "start": 209.625,
      "duration": 0.375,
      "velocity": 0.71
    },
    {
      "id": "n-01251",
      "pitch": "F2",
      "midi": 41,
      "start": 210,
      "duration": 1.5,
      "velocity": 0.71
    },
    {
      "id": "n-01252",
      "pitch": "F3",
      "midi": 53,
      "start": 210,
      "duration": 1.5,
      "velocity": 0.71
    },
    {
      "id": "n-01253",
      "pitch": "C#4",
      "midi": 61,
      "start": 210,
      "duration": 0.375,
      "velocity": 0.71
    },
    {
      "id": "n-01254",
      "pitch": "G#4",
      "midi": 68,
      "start": 210,
      "duration": 1.5,
      "velocity": 0.71
    },
    {
      "id": "n-01255",
      "pitch": "B4",
      "midi": 71,
      "start": 210,
      "duration": 1.5,
      "velocity": 0.71
    },
    {
      "id": "n-01256",
      "pitch": "C#5",
      "midi": 73,
      "start": 210,
      "duration": 1.5,
      "velocity": 0.71
    },
    {
      "id": "n-01257",
      "pitch": "C#4",
      "midi": 61,
      "start": 210.375,
      "duration": 0.375,
      "velocity": 0.71
    },
    {
      "id": "n-01258",
      "pitch": "C#4",
      "midi": 61,
      "start": 210.75,
      "duration": 0.375,
      "velocity": 0.71
    },
    {
      "id": "n-01259",
      "pitch": "C#4",
      "midi": 61,
      "start": 211.125,
      "duration": 0.375,
      "velocity": 0.71
    },
    {
      "id": "n-01260",
      "pitch": "F#2",
      "midi": 42,
      "start": 211.5,
      "duration": 1.5,
      "velocity": 0.71
    },
    {
      "id": "n-01261",
      "pitch": "F#3",
      "midi": 54,
      "start": 211.5,
      "duration": 1.5,
      "velocity": 0.71
    },
    {
      "id": "n-01262",
      "pitch": "C#4",
      "midi": 61,
      "start": 211.5,
      "duration": 0.375,
      "velocity": 0.71
    },
    {
      "id": "n-01263",
      "pitch": "G#4",
      "midi": 68,
      "start": 211.5,
      "duration": 0.75,
      "velocity": 0.71
    },
    {
      "id": "n-01264",
      "pitch": "A4",
      "midi": 69,
      "start": 211.5,
      "duration": 0.75,
      "velocity": 0.71
    },
    {
      "id": "n-01265",
      "pitch": "C#5",
      "midi": 73,
      "start": 211.5,
      "duration": 0.75,
      "velocity": 0.71
    },
    {
      "id": "n-01266",
      "pitch": "C#4",
      "midi": 61,
      "start": 211.875,
      "duration": 0.375,
      "velocity": 0.71
    },
    {
      "id": "n-01267",
      "pitch": "C#4",
      "midi": 61,
      "start": 212.25,
      "duration": 0.375,
      "velocity": 0.71
    },
    {
      "id": "n-01268",
      "pitch": "F#4",
      "midi": 66,
      "start": 212.25,
      "duration": 0.75,
      "velocity": 0.71
    },
    {
      "id": "n-01269",
      "pitch": "A4",
      "midi": 69,
      "start": 212.25,
      "duration": 0.75,
      "velocity": 0.71
    },
    {
      "id": "n-01270",
      "pitch": "C#5",
      "midi": 73,
      "start": 212.25,
      "duration": 0.75,
      "velocity": 0.71
    },
    {
      "id": "n-01271",
      "pitch": "C#4",
      "midi": 61,
      "start": 212.625,
      "duration": 0.375,
      "velocity": 0.71
    },
    {
      "id": "n-01272",
      "pitch": "C2",
      "midi": 36,
      "start": 213,
      "duration": 1.5,
      "velocity": 0.71
    },
    {
      "id": "n-01273",
      "pitch": "C3",
      "midi": 48,
      "start": 213,
      "duration": 1.5,
      "velocity": 0.71
    },
    {
      "id": "n-01274",
      "pitch": "G#3",
      "midi": 56,
      "start": 213,
      "duration": 0.375,
      "velocity": 0.71
    },
    {
      "id": "n-01275",
      "pitch": "D#4",
      "midi": 63,
      "start": 213,
      "duration": 1.5,
      "velocity": 0.71
    },
    {
      "id": "n-01276",
      "pitch": "F#4",
      "midi": 66,
      "start": 213,
      "duration": 1.5,
      "velocity": 0.71
    },
    {
      "id": "n-01277",
      "pitch": "G#4",
      "midi": 68,
      "start": 213,
      "duration": 1.5,
      "velocity": 0.71
    },
    {
      "id": "n-01278",
      "pitch": "G#3",
      "midi": 56,
      "start": 213.375,
      "duration": 0.375,
      "velocity": 0.71
    },
    {
      "id": "n-01279",
      "pitch": "G#3",
      "midi": 56,
      "start": 213.75,
      "duration": 0.375,
      "velocity": 0.71
    },
    {
      "id": "n-01280",
      "pitch": "G#3",
      "midi": 56,
      "start": 214.125,
      "duration": 0.375,
      "velocity": 0.71
    },
    {
      "id": "n-01281",
      "pitch": "C#2",
      "midi": 37,
      "start": 214.5,
      "duration": 1.5,
      "velocity": 0.71
    },
    {
      "id": "n-01282",
      "pitch": "C#3",
      "midi": 49,
      "start": 214.5,
      "duration": 1.5,
      "velocity": 0.71
    },
    {
      "id": "n-01283",
      "pitch": "G#3",
      "midi": 56,
      "start": 214.5,
      "duration": 0.375,
      "velocity": 0.71
    },
    {
      "id": "n-01284",
      "pitch": "C#4",
      "midi": 61,
      "start": 214.5,
      "duration": 0.75,
      "velocity": 0.71
    },
    {
      "id": "n-01285",
      "pitch": "F#4",
      "midi": 66,
      "start": 214.5,
      "duration": 0.75,
      "velocity": 0.71
    },
    {
      "id": "n-01286",
      "pitch": "G#4",
      "midi": 68,
      "start": 214.5,
      "duration": 0.75,
      "velocity": 0.71
    },
    {
      "id": "n-01287",
      "pitch": "G#3",
      "midi": 56,
      "start": 214.875,
      "duration": 0.375,
      "velocity": 0.71
    },
    {
      "id": "n-01288",
      "pitch": "G#3",
      "midi": 56,
      "start": 215.25,
      "duration": 0.375,
      "velocity": 0.71
    },
    {
      "id": "n-01289",
      "pitch": "C#4",
      "midi": 61,
      "start": 215.25,
      "duration": 0.75,
      "velocity": 0.71
    },
    {
      "id": "n-01290",
      "pitch": "E4",
      "midi": 64,
      "start": 215.25,
      "duration": 0.75,
      "velocity": 0.71
    },
    {
      "id": "n-01291",
      "pitch": "A#4",
      "midi": 70,
      "start": 215.25,
      "duration": 0.75,
      "velocity": 0.71
    },
    {
      "id": "n-01292",
      "pitch": "G#3",
      "midi": 56,
      "start": 215.625,
      "duration": 0.375,
      "velocity": 0.71
    },
    {
      "id": "n-01293",
      "pitch": "G#1",
      "midi": 32,
      "start": 216,
      "duration": 2.25,
      "velocity": 0.71
    },
    {
      "id": "n-01294",
      "pitch": "G#2",
      "midi": 44,
      "start": 216,
      "duration": 2.25,
      "velocity": 0.71
    },
    {
      "id": "n-01295",
      "pitch": "G#3",
      "midi": 56,
      "start": 216,
      "duration": 0.375,
      "velocity": 0.71
    },
    {
      "id": "n-01296",
      "pitch": "C#4",
      "midi": 61,
      "start": 216,
      "duration": 1.5,
      "velocity": 0.71
    },
    {
      "id": "n-01297",
      "pitch": "E4",
      "midi": 64,
      "start": 216,
      "duration": 1.5,
      "velocity": 0.71
    },
    {
      "id": "n-01298",
      "pitch": "A#4",
      "midi": 70,
      "start": 216,
      "duration": 1.5,
      "velocity": 0.71
    },
    {
      "id": "n-01299",
      "pitch": "G#3",
      "midi": 56,
      "start": 216.375,
      "duration": 0.375,
      "velocity": 0.71
    },
    {
      "id": "n-01300",
      "pitch": "G#3",
      "midi": 56,
      "start": 216.75,
      "duration": 0.375,
      "velocity": 0.71
    },
    {
      "id": "n-01301",
      "pitch": "G#3",
      "midi": 56,
      "start": 217.125,
      "duration": 0.375,
      "velocity": 0.71
    },
    {
      "id": "n-01302",
      "pitch": "G#3",
      "midi": 56,
      "start": 217.5,
      "duration": 0.375,
      "velocity": 0.71
    },
    {
      "id": "n-01303",
      "pitch": "C4",
      "midi": 60,
      "start": 217.5,
      "duration": 0.75,
      "velocity": 0.71
    },
    {
      "id": "n-01304",
      "pitch": "D#4",
      "midi": 63,
      "start": 217.5,
      "duration": 0.75,
      "velocity": 0.71
    },
    {
      "id": "n-01305",
      "pitch": "G#4",
      "midi": 68,
      "start": 217.5,
      "duration": 0.75,
      "velocity": 0.71
    },
    {
      "id": "n-01306",
      "pitch": "G#3",
      "midi": 56,
      "start": 217.875,
      "duration": 0.375,
      "velocity": 0.71
    },
    {
      "id": "n-01307",
      "pitch": "C#2",
      "midi": 37,
      "start": 218.25,
      "duration": 0.75,
      "velocity": 0.71
    },
    {
      "id": "n-01308",
      "pitch": "G#2",
      "midi": 44,
      "start": 218.25,
      "duration": 0.75,
      "velocity": 0.71
    },
    {
      "id": "n-01309",
      "pitch": "G#3",
      "midi": 56,
      "start": 218.25,
      "duration": 0.375,
      "velocity": 0.71
    },
    {
      "id": "n-01310",
      "pitch": "C#4",
      "midi": 61,
      "start": 218.25,
      "duration": 0.75,
      "velocity": 0.71
    },
    {
      "id": "n-01311",
      "pitch": "E4",
      "midi": 64,
      "start": 218.25,
      "duration": 0.75,
      "velocity": 0.71
    },
    {
      "id": "n-01312",
      "pitch": "A#4",
      "midi": 70,
      "start": 218.25,
      "duration": 0.75,
      "velocity": 0.71
    },
    {
      "id": "n-01313",
      "pitch": "G#3",
      "midi": 56,
      "start": 218.625,
      "duration": 0.375,
      "velocity": 0.71
    },
    {
      "id": "n-01314",
      "pitch": "G#1",
      "midi": 32,
      "start": 219,
      "duration": 2.25,
      "velocity": 0.71
    },
    {
      "id": "n-01315",
      "pitch": "G#2",
      "midi": 44,
      "start": 219,
      "duration": 2.25,
      "velocity": 0.71
    },
    {
      "id": "n-01316",
      "pitch": "G#3",
      "midi": 56,
      "start": 219,
      "duration": 0.375,
      "velocity": 0.71
    },
    {
      "id": "n-01317",
      "pitch": "C#4",
      "midi": 61,
      "start": 219,
      "duration": 1.5,
      "velocity": 0.71
    },
    {
      "id": "n-01318",
      "pitch": "E4",
      "midi": 64,
      "start": 219,
      "duration": 1.5,
      "velocity": 0.71
    },
    {
      "id": "n-01319",
      "pitch": "A#4",
      "midi": 70,
      "start": 219,
      "duration": 1.5,
      "velocity": 0.71
    },
    {
      "id": "n-01320",
      "pitch": "G#3",
      "midi": 56,
      "start": 219.375,
      "duration": 0.375,
      "velocity": 0.71
    },
    {
      "id": "n-01321",
      "pitch": "G#3",
      "midi": 56,
      "start": 219.75,
      "duration": 0.375,
      "velocity": 0.71
    },
    {
      "id": "n-01322",
      "pitch": "G#3",
      "midi": 56,
      "start": 220.125,
      "duration": 0.375,
      "velocity": 0.71
    },
    {
      "id": "n-01323",
      "pitch": "G#3",
      "midi": 56,
      "start": 220.5,
      "duration": 0.375,
      "velocity": 0.71
    },
    {
      "id": "n-01324",
      "pitch": "C4",
      "midi": 60,
      "start": 220.5,
      "duration": 0.75,
      "velocity": 0.71
    },
    {
      "id": "n-01325",
      "pitch": "D#4",
      "midi": 63,
      "start": 220.5,
      "duration": 0.75,
      "velocity": 0.71
    },
    {
      "id": "n-01326",
      "pitch": "G#4",
      "midi": 68,
      "start": 220.5,
      "duration": 0.75,
      "velocity": 0.71
    },
    {
      "id": "n-01327",
      "pitch": "G#3",
      "midi": 56,
      "start": 220.875,
      "duration": 0.375,
      "velocity": 0.71
    },
    {
      "id": "n-01328",
      "pitch": "C#2",
      "midi": 37,
      "start": 221.25,
      "duration": 0.75,
      "velocity": 0.71
    },
    {
      "id": "n-01329",
      "pitch": "G#2",
      "midi": 44,
      "start": 221.25,
      "duration": 0.75,
      "velocity": 0.71
    },
    {
      "id": "n-01330",
      "pitch": "G#3",
      "midi": 56,
      "start": 221.25,
      "duration": 0.375,
      "velocity": 0.71
    },
    {
      "id": "n-01331",
      "pitch": "C#4",
      "midi": 61,
      "start": 221.25,
      "duration": 0.75,
      "velocity": 0.71
    },
    {
      "id": "n-01332",
      "pitch": "E4",
      "midi": 64,
      "start": 221.25,
      "duration": 0.75,
      "velocity": 0.71
    },
    {
      "id": "n-01333",
      "pitch": "A#4",
      "midi": 70,
      "start": 221.25,
      "duration": 0.75,
      "velocity": 0.71
    },
    {
      "id": "n-01334",
      "pitch": "G#3",
      "midi": 56,
      "start": 221.625,
      "duration": 0.375,
      "velocity": 0.71
    },
    {
      "id": "n-01335",
      "pitch": "G#1",
      "midi": 32,
      "start": 222,
      "duration": 1.5,
      "velocity": 0.71
    },
    {
      "id": "n-01336",
      "pitch": "G#2",
      "midi": 44,
      "start": 222,
      "duration": 0.75,
      "velocity": 0.71
    },
    {
      "id": "n-01337",
      "pitch": "G#3",
      "midi": 56,
      "start": 222,
      "duration": 0.375,
      "velocity": 0.71
    },
    {
      "id": "n-01338",
      "pitch": "C#4",
      "midi": 61,
      "start": 222,
      "duration": 0.75,
      "velocity": 0.71
    },
    {
      "id": "n-01339",
      "pitch": "E4",
      "midi": 64,
      "start": 222,
      "duration": 0.75,
      "velocity": 0.71
    },
    {
      "id": "n-01340",
      "pitch": "A#4",
      "midi": 70,
      "start": 222,
      "duration": 0.75,
      "velocity": 0.71
    },
    {
      "id": "n-01341",
      "pitch": "G#3",
      "midi": 56,
      "start": 222.375,
      "duration": 0.375,
      "velocity": 0.71
    },
    {
      "id": "n-01342",
      "pitch": "G#2",
      "midi": 44,
      "start": 222.75,
      "duration": 0.75,
      "velocity": 0.71
    },
    {
      "id": "n-01343",
      "pitch": "G#3",
      "midi": 56,
      "start": 222.75,
      "duration": 0.375,
      "velocity": 0.71
    },
    {
      "id": "n-01344",
      "pitch": "C4",
      "midi": 60,
      "start": 222.75,
      "duration": 0.75,
      "velocity": 0.71
    },
    {
      "id": "n-01345",
      "pitch": "D#4",
      "midi": 63,
      "start": 222.75,
      "duration": 0.75,
      "velocity": 0.71
    },
    {
      "id": "n-01346",
      "pitch": "G#4",
      "midi": 68,
      "start": 222.75,
      "duration": 0.75,
      "velocity": 0.71
    },
    {
      "id": "n-01347",
      "pitch": "G#3",
      "midi": 56,
      "start": 223.125,
      "duration": 0.375,
      "velocity": 0.71
    },
    {
      "id": "n-01348",
      "pitch": "G#3",
      "midi": 56,
      "start": 223.5,
      "duration": 0.375,
      "velocity": 0.71
    },
    {
      "id": "n-01349",
      "pitch": "G#3",
      "midi": 56,
      "start": 223.5,
      "duration": 0.375,
      "velocity": 0.71
    },
    {
      "id": "n-01350",
      "pitch": "F3",
      "midi": 53,
      "start": 223.875,
      "duration": 0.375,
      "velocity": 0.71
    },
    {
      "id": "n-01351",
      "pitch": "G#3",
      "midi": 56,
      "start": 223.875,
      "duration": 0.375,
      "velocity": 0.71
    },
    {
      "id": "n-01352",
      "pitch": "F#3",
      "midi": 54,
      "start": 224.25,
      "duration": 0.375,
      "velocity": 0.71
    },
    {
      "id": "n-01353",
      "pitch": "G#3",
      "midi": 56,
      "start": 224.25,
      "duration": 0.375,
      "velocity": 0.71
    },
    {
      "id": "n-01354",
      "pitch": "D#3",
      "midi": 51,
      "start": 224.625,
      "duration": 0.375,
      "velocity": 0.71
    },
    {
      "id": "n-01355",
      "pitch": "G#3",
      "midi": 56,
      "start": 224.625,
      "duration": 0.375,
      "velocity": 0.71
    },
    {
      "id": "n-01356",
      "pitch": "C#3",
      "midi": 49,
      "start": 225,
      "duration": 0.375,
      "velocity": 0.71
    },
    {
      "id": "n-01357",
      "pitch": "F5",
      "midi": 77,
      "start": 225,
      "duration": 0.563,
      "velocity": 0.71
    },
    {
      "id": "n-01358",
      "pitch": "G#3",
      "midi": 56,
      "start": 225.375,
      "duration": 0.375,
      "velocity": 0.71
    },
    {
      "id": "n-01359",
      "pitch": "C#5",
      "midi": 73,
      "start": 225.563,
      "duration": 0.188,
      "velocity": 0.71
    },
    {
      "id": "n-01360",
      "pitch": "C#4",
      "midi": 61,
      "start": 225.75,
      "duration": 1.5,
      "velocity": 0.71
    },
    {
      "id": "n-01361",
      "pitch": "F4",
      "midi": 65,
      "start": 225.75,
      "duration": 1.5,
      "velocity": 0.71
    },
    {
      "id": "n-01362",
      "pitch": "G#4",
      "midi": 68,
      "start": 225.75,
      "duration": 1.5,
      "velocity": 0.71
    },
    {
      "id": "n-01363",
      "pitch": "G#3",
      "midi": 56,
      "start": 226.125,
      "duration": 0.375,
      "velocity": 0.71
    },
    {
      "id": "n-01364",
      "pitch": "G#3",
      "midi": 56,
      "start": 226.5,
      "duration": 0.375,
      "velocity": 0.71
    },
    {
      "id": "n-01365",
      "pitch": "G#3",
      "midi": 56,
      "start": 226.875,
      "duration": 0.375,
      "velocity": 0.71
    },
    {
      "id": "n-01366",
      "pitch": "G#3",
      "midi": 56,
      "start": 227.25,
      "duration": 0.375,
      "velocity": 0.71
    },
    {
      "id": "n-01367",
      "pitch": "A#4",
      "midi": 70,
      "start": 227.25,
      "duration": 0.75,
      "velocity": 0.71
    },
    {
      "id": "n-01368",
      "pitch": "G#3",
      "midi": 56,
      "start": 227.625,
      "duration": 0.375,
      "velocity": 0.71
    },
    {
      "id": "n-01369",
      "pitch": "D#4",
      "midi": 63,
      "start": 228,
      "duration": 2.25,
      "velocity": 0.71
    },
    {
      "id": "n-01370",
      "pitch": "F#4",
      "midi": 66,
      "start": 228,
      "duration": 2.25,
      "velocity": 0.71
    },
    {
      "id": "n-01371",
      "pitch": "C5",
      "midi": 72,
      "start": 228,
      "duration": 2.25,
      "velocity": 0.71
    },
    {
      "id": "n-01372",
      "pitch": "G#3",
      "midi": 56,
      "start": 228.375,
      "duration": 0.375,
      "velocity": 0.71
    },
    {
      "id": "n-01373",
      "pitch": "G#3",
      "midi": 56,
      "start": 228.75,
      "duration": 0.375,
      "velocity": 0.71
    },
    {
      "id": "n-01374",
      "pitch": "G#3",
      "midi": 56,
      "start": 229.125,
      "duration": 0.375,
      "velocity": 0.71
    },
    {
      "id": "n-01375",
      "pitch": "A#3",
      "midi": 58,
      "start": 229.5,
      "duration": 0.375,
      "velocity": 0.71
    },
    {
      "id": "n-01376",
      "pitch": "G#3",
      "midi": 56,
      "start": 229.875,
      "duration": 0.375,
      "velocity": 0.71
    },
    {
      "id": "n-01377",
      "pitch": "C#4",
      "midi": 61,
      "start": 230.25,
      "duration": 0.375,
      "velocity": 0.71
    },
    {
      "id": "n-01378",
      "pitch": "F4",
      "midi": 65,
      "start": 230.25,
      "duration": 0.375,
      "velocity": 0.71
    },
    {
      "id": "n-01379",
      "pitch": "C#5",
      "midi": 73,
      "start": 230.25,
      "duration": 0.75,
      "velocity": 0.71
    },
    {
      "id": "n-01380",
      "pitch": "G#3",
      "midi": 56,
      "start": 230.625,
      "duration": 0.375,
      "velocity": 0.71
    },
    {
      "id": "n-01381",
      "pitch": "C4",
      "midi": 60,
      "start": 231,
      "duration": 2.25,
      "velocity": 0.71
    },
    {
      "id": "n-01382",
      "pitch": "F#4",
      "midi": 66,
      "start": 231,
      "duration": 0.375,
      "velocity": 0.71
    },
    {
      "id": "n-01383",
      "pitch": "D#5",
      "midi": 75,
      "start": 231,
      "duration": 0.563,
      "velocity": 0.71
    },
    {
      "id": "n-01384",
      "pitch": "G#3",
      "midi": 56,
      "start": 231.375,
      "duration": 0.75,
      "velocity": 0.71
    },
    {
      "id": "n-01385",
      "pitch": "G#4",
      "midi": 68,
      "start": 231.563,
      "duration": 0.188,
      "velocity": 0.71
    },
    {
      "id": "n-01386",
      "pitch": "F5",
      "midi": 77,
      "start": 231.563,
      "duration": 0.188,
      "velocity": 0.71
    },
    {
      "id": "n-01387",
      "pitch": "A#4",
      "midi": 70,
      "start": 231.75,
      "duration": 1.5,
      "velocity": 0.71
    },
    {
      "id": "n-01388",
      "pitch": "F#5",
      "midi": 78,
      "start": 231.75,
      "duration": 1.5,
      "velocity": 0.71
    },
    {
      "id": "n-01389",
      "pitch": "G#3",
      "midi": 56,
      "start": 232.125,
      "duration": 0.375,
      "velocity": 0.71
    },
    {
      "id": "n-01390",
      "pitch": "G#3",
      "midi": 56,
      "start": 232.5,
      "duration": 0.375,
      "velocity": 0.71
    },
    {
      "id": "n-01391",
      "pitch": "G#3",
      "midi": 56,
      "start": 232.875,
      "duration": 0.75,
      "velocity": 0.71
    },
    {
      "id": "n-01392",
      "pitch": "C#4",
      "midi": 61,
      "start": 233.25,
      "duration": 0.375,
      "velocity": 0.71
    },
    {
      "id": "n-01393",
      "pitch": "G#4",
      "midi": 68,
      "start": 233.25,
      "duration": 0.375,
      "velocity": 0.71
    },
    {
      "id": "n-01394",
      "pitch": "F5",
      "midi": 77,
      "start": 233.25,
      "duration": 0.75,
      "velocity": 0.71
    },
    {
      "id": "n-01395",
      "pitch": "G#3",
      "midi": 56,
      "start": 233.625,
      "duration": 0.375,
      "velocity": 0.71
    },
    {
      "id": "n-01396",
      "pitch": "C4",
      "midi": 60,
      "start": 234,
      "duration": 1.5,
      "velocity": 0.71
    },
    {
      "id": "n-01397",
      "pitch": "G#4",
      "midi": 68,
      "start": 234,
      "duration": 0.375,
      "velocity": 0.71
    },
    {
      "id": "n-01398",
      "pitch": "F5",
      "midi": 77,
      "start": 234,
      "duration": 1.125,
      "velocity": 0.71
    },
    {
      "id": "n-01399",
      "pitch": "G#3",
      "midi": 56,
      "start": 234.375,
      "duration": 0.375,
      "velocity": 0.71
    },
    {
      "id": "n-01400",
      "pitch": "F#4",
      "midi": 66,
      "start": 234.75,
      "duration": 0.375,
      "velocity": 0.71
    },
    {
      "id": "n-01401",
      "pitch": "G#3",
      "midi": 56,
      "start": 235.125,
      "duration": 0.375,
      "velocity": 0.71
    },
    {
      "id": "n-01402",
      "pitch": "D#5",
      "midi": 75,
      "start": 235.125,
      "duration": 0.375,
      "velocity": 0.71
    },
    {
      "id": "n-01403",
      "pitch": "C#4",
      "midi": 61,
      "start": 235.5,
      "duration": 0.375,
      "velocity": 0.71
    },
    {
      "id": "n-01404",
      "pitch": "F4",
      "midi": 65,
      "start": 235.5,
      "duration": 0.375,
      "velocity": 0.71
    },
    {
      "id": "n-01405",
      "pitch": "C#5",
      "midi": 73,
      "start": 235.5,
      "duration": 0.563,
      "velocity": 0.71
    },
    {
      "id": "n-01406",
      "pitch": "G#3",
      "midi": 56,
      "start": 235.875,
      "duration": 0.375,
      "velocity": 0.71
    },
    {
      "id": "n-01407",
      "pitch": "D5",
      "midi": 74,
      "start": 236.063,
      "duration": 0.188,
      "velocity": 0.71
    },
    {
      "id": "n-01408",
      "pitch": "C4",
      "midi": 60,
      "start": 236.25,
      "duration": 0.375,
      "velocity": 0.71
    },
    {
      "id": "n-01409",
      "pitch": "F#4",
      "midi": 66,
      "start": 236.25,
      "duration": 0.375,
      "velocity": 0.71
    },
    {
      "id": "n-01410",
      "pitch": "D#5",
      "midi": 75,
      "start": 236.25,
      "duration": 0.074,
      "velocity": 0.71
    },
    {
      "id": "n-01411",
      "pitch": "F5",
      "midi": 77,
      "start": 236.324,
      "duration": 0.074,
      "velocity": 0.71
    },
    {
      "id": "n-01412",
      "pitch": "D#5",
      "midi": 75,
      "start": 236.398,
      "duration": 0.074,
      "velocity": 0.71
    },
    {
      "id": "n-01413",
      "pitch": "D5",
      "midi": 74,
      "start": 236.475,
      "duration": 0.074,
      "velocity": 0.71
    },
    {
      "id": "n-01414",
      "pitch": "D#5",
      "midi": 75,
      "start": 236.549,
      "duration": 0.074,
      "velocity": 0.71
    },
    {
      "id": "n-01415",
      "pitch": "G#3",
      "midi": 56,
      "start": 236.625,
      "duration": 0.375,
      "velocity": 0.71
    },
    {
      "id": "n-01416",
      "pitch": "E5",
      "midi": 76,
      "start": 236.625,
      "duration": 0.074,
      "velocity": 0.71
    },
    {
      "id": "n-01417",
      "pitch": "F5",
      "midi": 77,
      "start": 236.699,
      "duration": 0.074,
      "velocity": 0.71
    },
    {
      "id": "n-01418",
      "pitch": "G#5",
      "midi": 80,
      "start": 236.773,
      "duration": 0.074,
      "velocity": 0.71
    },
    {
      "id": "n-01419",
      "pitch": "G5",
      "midi": 79,
      "start": 236.85,
      "duration": 0.074,
      "velocity": 0.71
    },
    {
      "id": "n-01420",
      "pitch": "F#5",
      "midi": 78,
      "start": 236.924,
      "duration": 0.074,
      "velocity": 0.71
    },
    {
      "id": "n-01421",
      "pitch": "C#3",
      "midi": 49,
      "start": 237,
      "duration": 0.375,
      "velocity": 0.71
    },
    {
      "id": "n-01422",
      "pitch": "F5",
      "midi": 77,
      "start": 237,
      "duration": 0.563,
      "velocity": 0.71
    },
    {
      "id": "n-01423",
      "pitch": "G#3",
      "midi": 56,
      "start": 237.375,
      "duration": 0.375,
      "velocity": 0.71
    },
    {
      "id": "n-01424",
      "pitch": "C#5",
      "midi": 73,
      "start": 237.563,
      "duration": 0.188,
      "velocity": 0.71
    },
    {
      "id": "n-01425",
      "pitch": "C#4",
      "midi": 61,
      "start": 237.75,
      "duration": 1.5,
      "velocity": 0.71
    },
    {
      "id": "n-01426",
      "pitch": "F4",
      "midi": 65,
      "start": 237.75,
      "duration": 1.5,
      "velocity": 0.71
    },
    {
      "id": "n-01427",
      "pitch": "G#4",
      "midi": 68,
      "start": 237.75,
      "duration": 1.5,
      "velocity": 0.71
    },
    {
      "id": "n-01428",
      "pitch": "G#3",
      "midi": 56,
      "start": 238.125,
      "duration": 0.375,
      "velocity": 0.71
    },
    {
      "id": "n-01429",
      "pitch": "G#3",
      "midi": 56,
      "start": 238.5,
      "duration": 0.375,
      "velocity": 0.71
    },
    {
      "id": "n-01430",
      "pitch": "G#3",
      "midi": 56,
      "start": 238.875,
      "duration": 0.375,
      "velocity": 0.71
    },
    {
      "id": "n-01431",
      "pitch": "G#3",
      "midi": 56,
      "start": 239.25,
      "duration": 0.375,
      "velocity": 0.71
    },
    {
      "id": "n-01432",
      "pitch": "A#4",
      "midi": 70,
      "start": 239.25,
      "duration": 0.75,
      "velocity": 0.71
    },
    {
      "id": "n-01433",
      "pitch": "G#3",
      "midi": 56,
      "start": 239.625,
      "duration": 0.375,
      "velocity": 0.71
    },
    {
      "id": "n-01434",
      "pitch": "D#4",
      "midi": 63,
      "start": 240,
      "duration": 0.375,
      "velocity": 0.71
    },
    {
      "id": "n-01435",
      "pitch": "F#4",
      "midi": 66,
      "start": 240,
      "duration": 0.375,
      "velocity": 0.71
    },
    {
      "id": "n-01436",
      "pitch": "C5",
      "midi": 72,
      "start": 240,
      "duration": 0.75,
      "velocity": 0.71
    },
    {
      "id": "n-01437",
      "pitch": "G#3",
      "midi": 56,
      "start": 240.375,
      "duration": 0.375,
      "velocity": 0.71
    },
    {
      "id": "n-01438",
      "pitch": "G#3",
      "midi": 56,
      "start": 240.75,
      "duration": 0.375,
      "velocity": 0.71
    },
    {
      "id": "n-01439",
      "pitch": "G#3",
      "midi": 56,
      "start": 241.125,
      "duration": 0.375,
      "velocity": 0.71
    },
    {
      "id": "n-01440",
      "pitch": "A#3",
      "midi": 58,
      "start": 241.5,
      "duration": 0.375,
      "velocity": 0.71
    },
    {
      "id": "n-01441",
      "pitch": "G#3",
      "midi": 56,
      "start": 241.875,
      "duration": 0.375,
      "velocity": 0.71
    },
    {
      "id": "n-01442",
      "pitch": "A#5",
      "midi": 82,
      "start": 242.25,
      "duration": 1.5,
      "velocity": 0.71
    },
    {
      "id": "n-01443",
      "pitch": "G#5",
      "midi": 80,
      "start": 243.75,
      "duration": 0.75,
      "velocity": 0.71
    },
    {
      "id": "n-01444",
      "pitch": "F#5",
      "midi": 78,
      "start": 244.5,
      "duration": 0.75,
      "velocity": 0.71
    },
    {
      "id": "n-01445",
      "pitch": "C5",
      "midi": 72,
      "start": 245.25,
      "duration": 0.75,
      "velocity": 0.71
    },
    {
      "id": "n-01446",
      "pitch": "F5",
      "midi": 77,
      "start": 246,
      "duration": 0.75,
      "velocity": 0.71
    },
    {
      "id": "n-01447",
      "pitch": "D#5",
      "midi": 75,
      "start": 246.75,
      "duration": 0.75,
      "velocity": 0.71
    },
    {
      "id": "n-01448",
      "pitch": "C#5",
      "midi": 73,
      "start": 247.5,
      "duration": 0.75,
      "velocity": 0.71
    },
    {
      "id": "n-01449",
      "pitch": "A#4",
      "midi": 70,
      "start": 248.25,
      "duration": 0.75,
      "velocity": 0.71
    },
    {
      "id": "n-01450",
      "pitch": "G#2",
      "midi": 44,
      "start": 249,
      "duration": 3,
      "velocity": 0.71
    },
    {
      "id": "n-01451",
      "pitch": "A#3",
      "midi": 58,
      "start": 249,
      "duration": 1.5,
      "velocity": 0.71
    },
    {
      "id": "n-01452",
      "pitch": "D#4",
      "midi": 63,
      "start": 249,
      "duration": 3,
      "velocity": 0.71
    },
    {
      "id": "n-01453",
      "pitch": "F#4",
      "midi": 66,
      "start": 249,
      "duration": 3,
      "velocity": 0.71
    },
    {
      "id": "n-01454",
      "pitch": "G#3",
      "midi": 56,
      "start": 249.375,
      "duration": 0.375,
      "velocity": 0.71
    },
    {
      "id": "n-01455",
      "pitch": "G#3",
      "midi": 56,
      "start": 249.75,
      "duration": 0.375,
      "velocity": 0.71
    },
    {
      "id": "n-01456",
      "pitch": "G#3",
      "midi": 56,
      "start": 250.125,
      "duration": 0.375,
      "velocity": 0.71
    },
    {
      "id": "n-01457",
      "pitch": "G#3",
      "midi": 56,
      "start": 250.5,
      "duration": 0.375,
      "velocity": 0.71
    },
    {
      "id": "n-01458",
      "pitch": "C4",
      "midi": 60,
      "start": 250.5,
      "duration": 1.5,
      "velocity": 0.71
    },
    {
      "id": "n-01459",
      "pitch": "G#3",
      "midi": 56,
      "start": 250.875,
      "duration": 0.375,
      "velocity": 0.71
    },
    {
      "id": "n-01460",
      "pitch": "G#3",
      "midi": 56,
      "start": 251.25,
      "duration": 0.375,
      "velocity": 0.71
    },
    {
      "id": "n-01461",
      "pitch": "G#3",
      "midi": 56,
      "start": 251.625,
      "duration": 0.375,
      "velocity": 0.71
    },
    {
      "id": "n-01462",
      "pitch": "C#3",
      "midi": 49,
      "start": 252,
      "duration": 3,
      "velocity": 0.71
    },
    {
      "id": "n-01463",
      "pitch": "G#3",
      "midi": 56,
      "start": 252,
      "duration": 0.375,
      "velocity": 0.71
    },
    {
      "id": "n-01464",
      "pitch": "C#4",
      "midi": 61,
      "start": 252,
      "duration": 1.875,
      "velocity": 0.71
    },
    {
      "id": "n-01465",
      "pitch": "F4",
      "midi": 65,
      "start": 252,
      "duration": 3,
      "velocity": 0.71
    },
    {
      "id": "n-01466",
      "pitch": "G#3",
      "midi": 56,
      "start": 252.375,
      "duration": 0.375,
      "velocity": 0.71
    },
    {
      "id": "n-01467",
      "pitch": "G#3",
      "midi": 56,
      "start": 252.75,
      "duration": 0.375,
      "velocity": 0.71
    },
    {
      "id": "n-01468",
      "pitch": "G#3",
      "midi": 56,
      "start": 253.125,
      "duration": 0.375,
      "velocity": 0.71
    },
    {
      "id": "n-01469",
      "pitch": "G#3",
      "midi": 56,
      "start": 253.5,
      "duration": 0.375,
      "velocity": 0.71
    },
    {
      "id": "n-01470",
      "pitch": "G#3",
      "midi": 56,
      "start": 253.875,
      "duration": 0.375,
      "velocity": 0.71
    },
    {
      "id": "n-01471",
      "pitch": "C#4",
      "midi": 61,
      "start": 253.875,
      "duration": 0.375,
      "velocity": 0.71
    },
    {
      "id": "n-01472",
      "pitch": "G#3",
      "midi": 56,
      "start": 254.25,
      "duration": 0.375,
      "velocity": 0.71
    },
    {
      "id": "n-01473",
      "pitch": "D#4",
      "midi": 63,
      "start": 254.25,
      "duration": 0.563,
      "velocity": 0.71
    },
    {
      "id": "n-01474",
      "pitch": "G#3",
      "midi": 56,
      "start": 254.625,
      "duration": 0.375,
      "velocity": 0.71
    },
    {
      "id": "n-01475",
      "pitch": "C#4",
      "midi": 61,
      "start": 254.813,
      "duration": 0.188,
      "velocity": 0.71
    },
    {
      "id": "n-01476",
      "pitch": "G#2",
      "midi": 44,
      "start": 255,
      "duration": 3,
      "velocity": 0.71
    },
    {
      "id": "n-01477",
      "pitch": "G#3",
      "midi": 56,
      "start": 255,
      "duration": 0.375,
      "velocity": 0.71
    },
    {
      "id": "n-01478",
      "pitch": "C#4",
      "midi": 61,
      "start": 255,
      "duration": 0.75,
      "velocity": 0.71
    },
    {
      "id": "n-01479",
      "pitch": "D#4",
      "midi": 63,
      "start": 255,
      "duration": 3,
      "velocity": 0.71
    },
    {
      "id": "n-01480",
      "pitch": "F#4",
      "midi": 66,
      "start": 255,
      "duration": 3,
      "velocity": 0.71
    },
    {
      "id": "n-01481",
      "pitch": "G#3",
      "midi": 56,
      "start": 255.375,
      "duration": 0.375,
      "velocity": 0.71
    },
    {
      "id": "n-01482",
      "pitch": "G#3",
      "midi": 56,
      "start": 255.75,
      "duration": 0.375,
      "velocity": 0.71
    },
    {
      "id": "n-01483",
      "pitch": "C4",
      "midi": 60,
      "start": 255.75,
      "duration": 0.75,
      "velocity": 0.71
    },
    {
      "id": "n-01484",
      "pitch": "G#3",
      "midi": 56,
      "start": 256.125,
      "duration": 0.375,
      "velocity": 0.71
    },
    {
      "id": "n-01485",
      "pitch": "G#3",
      "midi": 56,
      "start": 256.5,
      "duration": 0.375,
      "velocity": 0.71
    },
    {
      "id": "n-01486",
      "pitch": "A#4",
      "midi": 70,
      "start": 256.5,
      "duration": 0.75,
      "velocity": 0.71
    },
    {
      "id": "n-01487",
      "pitch": "G#3",
      "midi": 56,
      "start": 256.875,
      "duration": 0.375,
      "velocity": 0.71
    },
    {
      "id": "n-01488",
      "pitch": "G#3",
      "midi": 56,
      "start": 257.25,
      "duration": 0.375,
      "velocity": 0.71
    },
    {
      "id": "n-01489",
      "pitch": "C4",
      "midi": 60,
      "start": 257.25,
      "duration": 0.75,
      "velocity": 0.71
    },
    {
      "id": "n-01490",
      "pitch": "G#3",
      "midi": 56,
      "start": 257.625,
      "duration": 0.375,
      "velocity": 0.71
    },
    {
      "id": "n-01491",
      "pitch": "G#2",
      "midi": 44,
      "start": 258,
      "duration": 3,
      "velocity": 0.71
    },
    {
      "id": "n-01492",
      "pitch": "G#3",
      "midi": 56,
      "start": 258,
      "duration": 0.375,
      "velocity": 0.71
    },
    {
      "id": "n-01493",
      "pitch": "C4",
      "midi": 60,
      "start": 258,
      "duration": 3,
      "velocity": 0.71
    },
    {
      "id": "n-01494",
      "pitch": "D#4",
      "midi": 63,
      "start": 258,
      "duration": 3,
      "velocity": 0.71
    },
    {
      "id": "n-01495",
      "pitch": "F#4",
      "midi": 66,
      "start": 258,
      "duration": 3,
      "velocity": 0.71
    },
    {
      "id": "n-01496",
      "pitch": "G#3",
      "midi": 56,
      "start": 258.375,
      "duration": 0.375,
      "velocity": 0.71
    },
    {
      "id": "n-01497",
      "pitch": "G#3",
      "midi": 56,
      "start": 258.75,
      "duration": 0.375,
      "velocity": 0.71
    },
    {
      "id": "n-01498",
      "pitch": "G#3",
      "midi": 56,
      "start": 259.125,
      "duration": 0.375,
      "velocity": 0.71
    },
    {
      "id": "n-01499",
      "pitch": "G#3",
      "midi": 56,
      "start": 259.5,
      "duration": 0.375,
      "velocity": 0.71
    },
    {
      "id": "n-01500",
      "pitch": "G#3",
      "midi": 56,
      "start": 259.875,
      "duration": 0.375,
      "velocity": 0.71
    },
    {
      "id": "n-01501",
      "pitch": "G#3",
      "midi": 56,
      "start": 260.25,
      "duration": 0.375,
      "velocity": 0.71
    },
    {
      "id": "n-01502",
      "pitch": "G#3",
      "midi": 56,
      "start": 260.625,
      "duration": 0.375,
      "velocity": 0.71
    },
    {
      "id": "n-01503",
      "pitch": "C#3",
      "midi": 49,
      "start": 261,
      "duration": 1.5,
      "velocity": 0.71
    },
    {
      "id": "n-01504",
      "pitch": "G#3",
      "midi": 56,
      "start": 261,
      "duration": 0.375,
      "velocity": 0.71
    },
    {
      "id": "n-01505",
      "pitch": "C#4",
      "midi": 61,
      "start": 261,
      "duration": 3,
      "velocity": 0.71
    },
    {
      "id": "n-01506",
      "pitch": "F4",
      "midi": 65,
      "start": 261,
      "duration": 3,
      "velocity": 0.71
    },
    {
      "id": "n-01507",
      "pitch": "G#3",
      "midi": 56,
      "start": 261.375,
      "duration": 0.375,
      "velocity": 0.71
    },
    {
      "id": "n-01508",
      "pitch": "G#3",
      "midi": 56,
      "start": 261.75,
      "duration": 0.375,
      "velocity": 0.71
    },
    {
      "id": "n-01509",
      "pitch": "G#3",
      "midi": 56,
      "start": 262.125,
      "duration": 0.375,
      "velocity": 0.71
    },
    {
      "id": "n-01510",
      "pitch": "G#2",
      "midi": 44,
      "start": 262.5,
      "duration": 1.5,
      "velocity": 0.71
    },
    {
      "id": "n-01511",
      "pitch": "G#3",
      "midi": 56,
      "start": 262.5,
      "duration": 0.375,
      "velocity": 0.71
    },
    {
      "id": "n-01512",
      "pitch": "G#3",
      "midi": 56,
      "start": 262.875,
      "duration": 0.375,
      "velocity": 0.71
    },
    {
      "id": "n-01513",
      "pitch": "G#3",
      "midi": 56,
      "start": 263.25,
      "duration": 0.375,
      "velocity": 0.71
    },
    {
      "id": "n-01514",
      "pitch": "G#3",
      "midi": 56,
      "start": 263.625,
      "duration": 0.375,
      "velocity": 0.71
    },
    {
      "id": "n-01515",
      "pitch": "C#2",
      "midi": 37,
      "start": 264,
      "duration": 3,
      "velocity": 0.71
    },
    {
      "id": "n-01516",
      "pitch": "G#3",
      "midi": 56,
      "start": 264,
      "duration": 3,
      "velocity": 0.71
    },
    {
      "id": "n-01517",
      "pitch": "C#4",
      "midi": 61,
      "start": 264,
      "duration": 3,
      "velocity": 0.71
    },
    {
      "id": "n-01518",
      "pitch": "F4",
      "midi": 65,
      "start": 264,
      "duration": 3,
      "velocity": 0.71
    }
  ]
}
