{
  "id": "chopin-nocturne-op-9-no-2",
  "title": "Nocturne No. 2 in E-Flat Major, Op. 9 No. 2",
  "source": "F. F. Chopin; G. Schirmer, New York, 1881; Mutopia Project",
  "sourceInfo": {
    "provider": "Mutopia Project",
    "sourceUrl": "https://www.mutopiaproject.org/cgibin/piece-info.cgi?id=1590",
    "midiUrl": "https://www.mutopiaproject.org/ftp/ChopinFF/O9/chopin_nocturne_op9_n2/chopin_nocturne_op9_n2.mid",
    "license": "Creative Commons Attribution-ShareAlike 3.0",
    "composer": "F. F. Chopin",
    "editor": "Renato Biolcati Rinaldi",
    "mutopiaId": "1590"
  },
  "bpm": 66,
  "beatsPerBar": 12,
  "defaultSecondsPerBeat": 0.9091,
  "createdAt": "2026-05-25T23:03:31.643Z",
  "updatedAt": "2026-05-25T23:03:31.643Z",
  "notes": [
    {
      "id": "n-00001",
      "pitch": "A#4",
      "midi": 70,
      "start": 0,
      "duration": 0.455,
      "velocity": 0.71
    },
    {
      "id": "n-00002",
      "pitch": "D#2",
      "midi": 39,
      "start": 0.455,
      "duration": 0.455,
      "velocity": 0.71
    },
    {
      "id": "n-00003",
      "pitch": "G5",
      "midi": 79,
      "start": 0.455,
      "duration": 1.818,
      "velocity": 0.71
    },
    {
      "id": "n-00004",
      "pitch": "G3",
      "midi": 55,
      "start": 0.909,
      "duration": 0.455,
      "velocity": 0.71
    },
    {
      "id": "n-00005",
      "pitch": "D#4",
      "midi": 63,
      "start": 0.909,
      "duration": 0.455,
      "velocity": 0.71
    },
    {
      "id": "n-00006",
      "pitch": "A#3",
      "midi": 58,
      "start": 1.364,
      "duration": 0.455,
      "velocity": 0.71
    },
    {
      "id": "n-00007",
      "pitch": "D#4",
      "midi": 63,
      "start": 1.364,
      "duration": 0.455,
      "velocity": 0.71
    },
    {
      "id": "n-00008",
      "pitch": "G4",
      "midi": 67,
      "start": 1.364,
      "duration": 0.455,
      "velocity": 0.71
    },
    {
      "id": "n-00009",
      "pitch": "D#3",
      "midi": 51,
      "start": 1.818,
      "duration": 0.455,
      "velocity": 0.71
    },
    {
      "id": "n-00010",
      "pitch": "G#3",
      "midi": 56,
      "start": 2.273,
      "duration": 0.455,
      "velocity": 0.71
    },
    {
      "id": "n-00011",
      "pitch": "D4",
      "midi": 62,
      "start": 2.273,
      "duration": 0.455,
      "velocity": 0.71
    },
    {
      "id": "n-00012",
      "pitch": "F5",
      "midi": 77,
      "start": 2.273,
      "duration": 0.455,
      "velocity": 0.71
    },
    {
      "id": "n-00013",
      "pitch": "B3",
      "midi": 59,
      "start": 2.727,
      "duration": 0.455,
      "velocity": 0.71
    },
    {
      "id": "n-00014",
      "pitch": "D4",
      "midi": 62,
      "start": 2.727,
      "duration": 0.455,
      "velocity": 0.71
    },
    {
      "id": "n-00015",
      "pitch": "G#4",
      "midi": 68,
      "start": 2.727,
      "duration": 0.455,
      "velocity": 0.71
    },
    {
      "id": "n-00016",
      "pitch": "G5",
      "midi": 79,
      "start": 2.727,
      "duration": 0.455,
      "velocity": 0.71
    },
    {
      "id": "n-00017",
      "pitch": "D#2",
      "midi": 39,
      "start": 3.182,
      "duration": 0.455,
      "velocity": 0.71
    },
    {
      "id": "n-00018",
      "pitch": "F5",
      "midi": 77,
      "start": 3.182,
      "duration": 1.364,
      "velocity": 0.71
    },
    {
      "id": "n-00019",
      "pitch": "G3",
      "midi": 55,
      "start": 3.636,
      "duration": 0.455,
      "velocity": 0.71
    },
    {
      "id": "n-00020",
      "pitch": "D#4",
      "midi": 63,
      "start": 3.636,
      "duration": 0.455,
      "velocity": 0.71
    },
    {
      "id": "n-00021",
      "pitch": "A#3",
      "midi": 58,
      "start": 4.091,
      "duration": 0.455,
      "velocity": 0.71
    },
    {
      "id": "n-00022",
      "pitch": "D#4",
      "midi": 63,
      "start": 4.091,
      "duration": 0.455,
      "velocity": 0.71
    },
    {
      "id": "n-00023",
      "pitch": "G4",
      "midi": 67,
      "start": 4.091,
      "duration": 0.455,
      "velocity": 0.71
    },
    {
      "id": "n-00024",
      "pitch": "D2",
      "midi": 38,
      "start": 4.545,
      "duration": 0.455,
      "velocity": 0.71
    },
    {
      "id": "n-00025",
      "pitch": "D#5",
      "midi": 75,
      "start": 4.545,
      "duration": 0.909,
      "velocity": 0.71
    },
    {
      "id": "n-00026",
      "pitch": "G3",
      "midi": 55,
      "start": 5,
      "duration": 0.455,
      "velocity": 0.71
    },
    {
      "id": "n-00027",
      "pitch": "D#4",
      "midi": 63,
      "start": 5,
      "duration": 0.455,
      "velocity": 0.71
    },
    {
      "id": "n-00028",
      "pitch": "A#3",
      "midi": 58,
      "start": 5.455,
      "duration": 0.455,
      "velocity": 0.71
    },
    {
      "id": "n-00029",
      "pitch": "D#4",
      "midi": 63,
      "start": 5.455,
      "duration": 0.455,
      "velocity": 0.71
    },
    {
      "id": "n-00030",
      "pitch": "G4",
      "midi": 67,
      "start": 5.455,
      "duration": 0.455,
      "velocity": 0.71
    },
    {
      "id": "n-00031",
      "pitch": "A#4",
      "midi": 70,
      "start": 5.455,
      "duration": 0.455,
      "velocity": 0.71
    },
    {
      "id": "n-00032",
      "pitch": "C2",
      "midi": 36,
      "start": 5.909,
      "duration": 0.455,
      "velocity": 0.71
    },
    {
      "id": "n-00033",
      "pitch": "G5",
      "midi": 79,
      "start": 5.909,
      "duration": 0.909,
      "velocity": 0.71
    },
    {
      "id": "n-00034",
      "pitch": "G3",
      "midi": 55,
      "start": 6.364,
      "duration": 0.455,
      "velocity": 0.71
    },
    {
      "id": "n-00035",
      "pitch": "E4",
      "midi": 64,
      "start": 6.364,
      "duration": 0.455,
      "velocity": 0.71
    },
    {
      "id": "n-00036",
      "pitch": "A#3",
      "midi": 58,
      "start": 6.818,
      "duration": 0.455,
      "velocity": 0.71
    },
    {
      "id": "n-00037",
      "pitch": "E4",
      "midi": 64,
      "start": 6.818,
      "duration": 0.455,
      "velocity": 0.71
    },
    {
      "id": "n-00038",
      "pitch": "G4",
      "midi": 67,
      "start": 6.818,
      "duration": 0.455,
      "velocity": 0.71
    },
    {
      "id": "n-00039",
      "pitch": "C5",
      "midi": 72,
      "start": 6.818,
      "duration": 0.455,
      "velocity": 0.71
    },
    {
      "id": "n-00040",
      "pitch": "C3",
      "midi": 48,
      "start": 7.273,
      "duration": 0.455,
      "velocity": 0.71
    },
    {
      "id": "n-00041",
      "pitch": "C6",
      "midi": 84,
      "start": 7.273,
      "duration": 0.909,
      "velocity": 0.71
    },
    {
      "id": "n-00042",
      "pitch": "G3",
      "midi": 55,
      "start": 7.727,
      "duration": 0.455,
      "velocity": 0.71
    },
    {
      "id": "n-00043",
      "pitch": "E4",
      "midi": 64,
      "start": 7.727,
      "duration": 0.455,
      "velocity": 0.71
    },
    {
      "id": "n-00044",
      "pitch": "C4",
      "midi": 60,
      "start": 8.182,
      "duration": 0.455,
      "velocity": 0.71
    },
    {
      "id": "n-00045",
      "pitch": "E4",
      "midi": 64,
      "start": 8.182,
      "duration": 0.455,
      "velocity": 0.71
    },
    {
      "id": "n-00046",
      "pitch": "A#4",
      "midi": 70,
      "start": 8.182,
      "duration": 0.455,
      "velocity": 0.71
    },
    {
      "id": "n-00047",
      "pitch": "G5",
      "midi": 79,
      "start": 8.182,
      "duration": 0.455,
      "velocity": 0.71
    },
    {
      "id": "n-00048",
      "pitch": "F2",
      "midi": 41,
      "start": 8.636,
      "duration": 0.455,
      "velocity": 0.71
    },
    {
      "id": "n-00049",
      "pitch": "A#5",
      "midi": 82,
      "start": 8.636,
      "duration": 1.364,
      "velocity": 0.71
    },
    {
      "id": "n-00050",
      "pitch": "F3",
      "midi": 53,
      "start": 9.091,
      "duration": 0.455,
      "velocity": 0.71
    },
    {
      "id": "n-00051",
      "pitch": "C#4",
      "midi": 61,
      "start": 9.091,
      "duration": 0.455,
      "velocity": 0.71
    },
    {
      "id": "n-00052",
      "pitch": "A#3",
      "midi": 58,
      "start": 9.545,
      "duration": 0.455,
      "velocity": 0.71
    },
    {
      "id": "n-00053",
      "pitch": "C#4",
      "midi": 61,
      "start": 9.545,
      "duration": 0.455,
      "velocity": 0.71
    },
    {
      "id": "n-00054",
      "pitch": "E4",
      "midi": 64,
      "start": 9.545,
      "duration": 0.455,
      "velocity": 0.71
    },
    {
      "id": "n-00055",
      "pitch": "F2",
      "midi": 41,
      "start": 10,
      "duration": 0.455,
      "velocity": 0.71
    },
    {
      "id": "n-00056",
      "pitch": "G#5",
      "midi": 80,
      "start": 10,
      "duration": 0.909,
      "velocity": 0.71
    },
    {
      "id": "n-00057",
      "pitch": "F3",
      "midi": 53,
      "start": 10.455,
      "duration": 0.455,
      "velocity": 0.71
    },
    {
      "id": "n-00058",
      "pitch": "C4",
      "midi": 60,
      "start": 10.455,
      "duration": 0.455,
      "velocity": 0.71
    },
    {
      "id": "n-00059",
      "pitch": "G#3",
      "midi": 56,
      "start": 10.909,
      "duration": 0.455,
      "velocity": 0.71
    },
    {
      "id": "n-00060",
      "pitch": "C4",
      "midi": 60,
      "start": 10.909,
      "duration": 0.455,
      "velocity": 0.71
    },
    {
      "id": "n-00061",
      "pitch": "F4",
      "midi": 65,
      "start": 10.909,
      "duration": 0.455,
      "velocity": 0.71
    },
    {
      "id": "n-00062",
      "pitch": "G5",
      "midi": 79,
      "start": 10.909,
      "duration": 0.455,
      "velocity": 0.71
    },
    {
      "id": "n-00063",
      "pitch": "A#2",
      "midi": 46,
      "start": 11.364,
      "duration": 0.455,
      "velocity": 0.71
    },
    {
      "id": "n-00064",
      "pitch": "F5",
      "midi": 77,
      "start": 11.364,
      "duration": 1.364,
      "velocity": 0.71
    },
    {
      "id": "n-00065",
      "pitch": "F3",
      "midi": 53,
      "start": 11.818,
      "duration": 0.455,
      "velocity": 0.71
    },
    {
      "id": "n-00066",
      "pitch": "D4",
      "midi": 62,
      "start": 11.818,
      "duration": 0.455,
      "velocity": 0.71
    },
    {
      "id": "n-00067",
      "pitch": "A#3",
      "midi": 58,
      "start": 12.273,
      "duration": 0.455,
      "velocity": 0.71
    },
    {
      "id": "n-00068",
      "pitch": "D4",
      "midi": 62,
      "start": 12.273,
      "duration": 0.455,
      "velocity": 0.71
    },
    {
      "id": "n-00069",
      "pitch": "G#4",
      "midi": 68,
      "start": 12.273,
      "duration": 0.455,
      "velocity": 0.71
    },
    {
      "id": "n-00070",
      "pitch": "B2",
      "midi": 47,
      "start": 12.727,
      "duration": 0.455,
      "velocity": 0.71
    },
    {
      "id": "n-00071",
      "pitch": "G5",
      "midi": 79,
      "start": 12.727,
      "duration": 0.909,
      "velocity": 0.71
    },
    {
      "id": "n-00072",
      "pitch": "G3",
      "midi": 55,
      "start": 13.182,
      "duration": 0.455,
      "velocity": 0.71
    },
    {
      "id": "n-00073",
      "pitch": "F4",
      "midi": 65,
      "start": 13.182,
      "duration": 0.455,
      "velocity": 0.71
    },
    {
      "id": "n-00074",
      "pitch": "D4",
      "midi": 62,
      "start": 13.636,
      "duration": 0.455,
      "velocity": 0.71
    },
    {
      "id": "n-00075",
      "pitch": "F4",
      "midi": 65,
      "start": 13.636,
      "duration": 0.455,
      "velocity": 0.71
    },
    {
      "id": "n-00076",
      "pitch": "G4",
      "midi": 67,
      "start": 13.636,
      "duration": 0.455,
      "velocity": 0.71
    },
    {
      "id": "n-00077",
      "pitch": "D5",
      "midi": 74,
      "start": 13.636,
      "duration": 0.455,
      "velocity": 0.71
    },
    {
      "id": "n-00078",
      "pitch": "C3",
      "midi": 48,
      "start": 14.091,
      "duration": 0.455,
      "velocity": 0.71
    },
    {
      "id": "n-00079",
      "pitch": "D#5",
      "midi": 75,
      "start": 14.091,
      "duration": 1.364,
      "velocity": 0.71
    },
    {
      "id": "n-00080",
      "pitch": "G3",
      "midi": 55,
      "start": 14.545,
      "duration": 0.455,
      "velocity": 0.71
    },
    {
      "id": "n-00081",
      "pitch": "D#4",
      "midi": 63,
      "start": 14.545,
      "duration": 0.455,
      "velocity": 0.71
    },
    {
      "id": "n-00082",
      "pitch": "C4",
      "midi": 60,
      "start": 15,
      "duration": 0.455,
      "velocity": 0.71
    },
    {
      "id": "n-00083",
      "pitch": "D#4",
      "midi": 63,
      "start": 15,
      "duration": 0.455,
      "velocity": 0.71
    },
    {
      "id": "n-00084",
      "pitch": "G4",
      "midi": 67,
      "start": 15,
      "duration": 0.455,
      "velocity": 0.71
    },
    {
      "id": "n-00085",
      "pitch": "A2",
      "midi": 45,
      "start": 15.455,
      "duration": 0.455,
      "velocity": 0.71
    },
    {
      "id": "n-00086",
      "pitch": "C5",
      "midi": 72,
      "start": 15.455,
      "duration": 1.364,
      "velocity": 0.71
    },
    {
      "id": "n-00087",
      "pitch": "F#3",
      "midi": 54,
      "start": 15.909,
      "duration": 0.455,
      "velocity": 0.71
    },
    {
      "id": "n-00088",
      "pitch": "D#4",
      "midi": 63,
      "start": 15.909,
      "duration": 0.455,
      "velocity": 0.71
    },
    {
      "id": "n-00089",
      "pitch": "C4",
      "midi": 60,
      "start": 16.364,
      "duration": 0.455,
      "velocity": 0.71
    },
    {
      "id": "n-00090",
      "pitch": "D#4",
      "midi": 63,
      "start": 16.364,
      "duration": 0.455,
      "velocity": 0.71
    },
    {
      "id": "n-00091",
      "pitch": "F#4",
      "midi": 66,
      "start": 16.364,
      "duration": 0.455,
      "velocity": 0.71
    },
    {
      "id": "n-00092",
      "pitch": "A#2",
      "midi": 46,
      "start": 16.818,
      "duration": 0.455,
      "velocity": 0.71
    },
    {
      "id": "n-00093",
      "pitch": "A#4",
      "midi": 70,
      "start": 16.818,
      "duration": 0.455,
      "velocity": 0.71
    },
    {
      "id": "n-00094",
      "pitch": "F3",
      "midi": 53,
      "start": 17.273,
      "duration": 0.455,
      "velocity": 0.71
    },
    {
      "id": "n-00095",
      "pitch": "D#4",
      "midi": 63,
      "start": 17.273,
      "duration": 0.455,
      "velocity": 0.71
    },
    {
      "id": "n-00096",
      "pitch": "D6",
      "midi": 86,
      "start": 17.273,
      "duration": 0.455,
      "velocity": 0.71
    },
    {
      "id": "n-00097",
      "pitch": "A#3",
      "midi": 58,
      "start": 17.727,
      "duration": 0.455,
      "velocity": 0.71
    },
    {
      "id": "n-00098",
      "pitch": "D#4",
      "midi": 63,
      "start": 17.727,
      "duration": 0.455,
      "velocity": 0.71
    },
    {
      "id": "n-00099",
      "pitch": "G#4",
      "midi": 68,
      "start": 17.727,
      "duration": 0.455,
      "velocity": 0.71
    },
    {
      "id": "n-00100",
      "pitch": "C6",
      "midi": 84,
      "start": 17.727,
      "duration": 0.455,
      "velocity": 0.71
    },
    {
      "id": "n-00101",
      "pitch": "A#1",
      "midi": 34,
      "start": 18.182,
      "duration": 0.455,
      "velocity": 0.71
    },
    {
      "id": "n-00102",
      "pitch": "A#5",
      "midi": 82,
      "start": 18.182,
      "duration": 0.227,
      "velocity": 0.71
    },
    {
      "id": "n-00103",
      "pitch": "G#5",
      "midi": 80,
      "start": 18.409,
      "duration": 0.227,
      "velocity": 0.71
    },
    {
      "id": "n-00104",
      "pitch": "F3",
      "midi": 53,
      "start": 18.636,
      "duration": 0.455,
      "velocity": 0.71
    },
    {
      "id": "n-00105",
      "pitch": "D4",
      "midi": 62,
      "start": 18.636,
      "duration": 0.455,
      "velocity": 0.71
    },
    {
      "id": "n-00106",
      "pitch": "G5",
      "midi": 79,
      "start": 18.636,
      "duration": 0.227,
      "velocity": 0.71
    },
    {
      "id": "n-00107",
      "pitch": "G#5",
      "midi": 80,
      "start": 18.864,
      "duration": 0.227,
      "velocity": 0.71
    },
    {
      "id": "n-00108",
      "pitch": "A#3",
      "midi": 58,
      "start": 19.091,
      "duration": 0.455,
      "velocity": 0.71
    },
    {
      "id": "n-00109",
      "pitch": "G#4",
      "midi": 68,
      "start": 19.091,
      "duration": 0.455,
      "velocity": 0.71
    },
    {
      "id": "n-00110",
      "pitch": "C5",
      "midi": 72,
      "start": 19.091,
      "duration": 0.227,
      "velocity": 0.71
    },
    {
      "id": "n-00111",
      "pitch": "D5",
      "midi": 74,
      "start": 19.318,
      "duration": 0.227,
      "velocity": 0.71
    },
    {
      "id": "n-00112",
      "pitch": "D#2",
      "midi": 39,
      "start": 19.545,
      "duration": 0.455,
      "velocity": 0.71
    },
    {
      "id": "n-00113",
      "pitch": "D#5",
      "midi": 75,
      "start": 19.545,
      "duration": 1.364,
      "velocity": 0.71
    },
    {
      "id": "n-00114",
      "pitch": "G3",
      "midi": 55,
      "start": 20,
      "duration": 0.455,
      "velocity": 0.71
    },
    {
      "id": "n-00115",
      "pitch": "D#4",
      "midi": 63,
      "start": 20,
      "duration": 0.455,
      "velocity": 0.71
    },
    {
      "id": "n-00116",
      "pitch": "A#3",
      "midi": 58,
      "start": 20.455,
      "duration": 0.455,
      "velocity": 0.71
    },
    {
      "id": "n-00117",
      "pitch": "D#4",
      "midi": 63,
      "start": 20.455,
      "duration": 0.455,
      "velocity": 0.71
    },
    {
      "id": "n-00118",
      "pitch": "G4",
      "midi": 67,
      "start": 20.455,
      "duration": 0.455,
      "velocity": 0.71
    },
    {
      "id": "n-00119",
      "pitch": "D#3",
      "midi": 51,
      "start": 20.909,
      "duration": 0.455,
      "velocity": 0.71
    },
    {
      "id": "n-00120",
      "pitch": "G3",
      "midi": 55,
      "start": 21.364,
      "duration": 0.455,
      "velocity": 0.71
    },
    {
      "id": "n-00121",
      "pitch": "D#4",
      "midi": 63,
      "start": 21.364,
      "duration": 0.455,
      "velocity": 0.71
    },
    {
      "id": "n-00122",
      "pitch": "A#3",
      "midi": 58,
      "start": 21.818,
      "duration": 0.455,
      "velocity": 0.71
    },
    {
      "id": "n-00123",
      "pitch": "D#4",
      "midi": 63,
      "start": 21.818,
      "duration": 0.455,
      "velocity": 0.71
    },
    {
      "id": "n-00124",
      "pitch": "G4",
      "midi": 67,
      "start": 21.818,
      "duration": 0.455,
      "velocity": 0.71
    },
    {
      "id": "n-00125",
      "pitch": "A#4",
      "midi": 70,
      "start": 21.818,
      "duration": 0.455,
      "velocity": 0.71
    },
    {
      "id": "n-00126",
      "pitch": "D#3",
      "midi": 51,
      "start": 22.273,
      "duration": 0.455,
      "velocity": 0.71
    },
    {
      "id": "n-00127",
      "pitch": "G5",
      "midi": 79,
      "start": 22.273,
      "duration": 1.364,
      "velocity": 0.71
    },
    {
      "id": "n-00128",
      "pitch": "G3",
      "midi": 55,
      "start": 22.727,
      "duration": 0.455,
      "velocity": 0.71
    },
    {
      "id": "n-00129",
      "pitch": "D#4",
      "midi": 63,
      "start": 22.727,
      "duration": 0.455,
      "velocity": 0.71
    },
    {
      "id": "n-00130",
      "pitch": "A#3",
      "midi": 58,
      "start": 23.182,
      "duration": 0.455,
      "velocity": 0.71
    },
    {
      "id": "n-00131",
      "pitch": "D#4",
      "midi": 63,
      "start": 23.182,
      "duration": 0.455,
      "velocity": 0.71
    },
    {
      "id": "n-00132",
      "pitch": "G4",
      "midi": 67,
      "start": 23.182,
      "duration": 0.455,
      "velocity": 0.71
    },
    {
      "id": "n-00133",
      "pitch": "D#3",
      "midi": 51,
      "start": 23.636,
      "duration": 0.455,
      "velocity": 0.71
    },
    {
      "id": "n-00134",
      "pitch": "F5",
      "midi": 77,
      "start": 23.636,
      "duration": 0.227,
      "velocity": 0.71
    },
    {
      "id": "n-00135",
      "pitch": "G5",
      "midi": 79,
      "start": 23.864,
      "duration": 0.227,
      "velocity": 0.71
    },
    {
      "id": "n-00136",
      "pitch": "G#3",
      "midi": 56,
      "start": 24.091,
      "duration": 0.455,
      "velocity": 0.71
    },
    {
      "id": "n-00137",
      "pitch": "D4",
      "midi": 62,
      "start": 24.091,
      "duration": 0.455,
      "velocity": 0.71
    },
    {
      "id": "n-00138",
      "pitch": "F5",
      "midi": 77,
      "start": 24.091,
      "duration": 0.227,
      "velocity": 0.71
    },
    {
      "id": "n-00139",
      "pitch": "E5",
      "midi": 76,
      "start": 24.318,
      "duration": 0.227,
      "velocity": 0.71
    },
    {
      "id": "n-00140",
      "pitch": "B3",
      "midi": 59,
      "start": 24.545,
      "duration": 0.455,
      "velocity": 0.71
    },
    {
      "id": "n-00141",
      "pitch": "D4",
      "midi": 62,
      "start": 24.545,
      "duration": 0.455,
      "velocity": 0.71
    },
    {
      "id": "n-00142",
      "pitch": "G#4",
      "midi": 68,
      "start": 24.545,
      "duration": 0.455,
      "velocity": 0.71
    },
    {
      "id": "n-00143",
      "pitch": "F5",
      "midi": 77,
      "start": 24.545,
      "duration": 0.227,
      "velocity": 0.71
    },
    {
      "id": "n-00144",
      "pitch": "G5",
      "midi": 79,
      "start": 24.773,
      "duration": 0.227,
      "velocity": 0.71
    },
    {
      "id": "n-00145",
      "pitch": "D#3",
      "midi": 51,
      "start": 25,
      "duration": 0.455,
      "velocity": 0.71
    },
    {
      "id": "n-00146",
      "pitch": "F5",
      "midi": 77,
      "start": 25,
      "duration": 0.455,
      "velocity": 0.71
    },
    {
      "id": "n-00147",
      "pitch": "G3",
      "midi": 55,
      "start": 25.455,
      "duration": 0.455,
      "velocity": 0.71
    },
    {
      "id": "n-00148",
      "pitch": "D#4",
      "midi": 63,
      "start": 25.455,
      "duration": 0.455,
      "velocity": 0.71
    },
    {
      "id": "n-00149",
      "pitch": "D#5",
      "midi": 75,
      "start": 25.455,
      "duration": 1.136,
      "velocity": 0.71
    },
    {
      "id": "n-00150",
      "pitch": "A#3",
      "midi": 58,
      "start": 25.909,
      "duration": 0.455,
      "velocity": 0.71
    },
    {
      "id": "n-00151",
      "pitch": "D#4",
      "midi": 63,
      "start": 25.909,
      "duration": 0.455,
      "velocity": 0.71
    },
    {
      "id": "n-00152",
      "pitch": "G4",
      "midi": 67,
      "start": 25.909,
      "duration": 0.455,
      "velocity": 0.71
    },
    {
      "id": "n-00153",
      "pitch": "D3",
      "midi": 50,
      "start": 26.364,
      "duration": 0.455,
      "velocity": 0.71
    },
    {
      "id": "n-00154",
      "pitch": "F5",
      "midi": 77,
      "start": 26.591,
      "duration": 0.227,
      "velocity": 0.71
    },
    {
      "id": "n-00155",
      "pitch": "G3",
      "midi": 55,
      "start": 26.818,
      "duration": 0.455,
      "velocity": 0.71
    },
    {
      "id": "n-00156",
      "pitch": "D#4",
      "midi": 63,
      "start": 26.818,
      "duration": 0.455,
      "velocity": 0.71
    },
    {
      "id": "n-00157",
      "pitch": "D#5",
      "midi": 75,
      "start": 26.818,
      "duration": 0.227,
      "velocity": 0.71
    },
    {
      "id": "n-00158",
      "pitch": "D5",
      "midi": 74,
      "start": 27.045,
      "duration": 0.227,
      "velocity": 0.71
    },
    {
      "id": "n-00159",
      "pitch": "A#3",
      "midi": 58,
      "start": 27.273,
      "duration": 0.455,
      "velocity": 0.71
    },
    {
      "id": "n-00160",
      "pitch": "D#4",
      "midi": 63,
      "start": 27.273,
      "duration": 0.455,
      "velocity": 0.71
    },
    {
      "id": "n-00161",
      "pitch": "G4",
      "midi": 67,
      "start": 27.273,
      "duration": 0.455,
      "velocity": 0.71
    },
    {
      "id": "n-00162",
      "pitch": "D#5",
      "midi": 75,
      "start": 27.273,
      "duration": 0.227,
      "velocity": 0.71
    },
    {
      "id": "n-00163",
      "pitch": "F5",
      "midi": 77,
      "start": 27.5,
      "duration": 0.227,
      "velocity": 0.71
    },
    {
      "id": "n-00164",
      "pitch": "C3",
      "midi": 48,
      "start": 27.727,
      "duration": 0.455,
      "velocity": 0.71
    },
    {
      "id": "n-00165",
      "pitch": "G5",
      "midi": 79,
      "start": 27.727,
      "duration": 0.227,
      "velocity": 0.71
    },
    {
      "id": "n-00166",
      "pitch": "B4",
      "midi": 71,
      "start": 27.955,
      "duration": 0.227,
      "velocity": 0.71
    },
    {
      "id": "n-00167",
      "pitch": "G3",
      "midi": 55,
      "start": 28.182,
      "duration": 0.455,
      "velocity": 0.71
    },
    {
      "id": "n-00168",
      "pitch": "E4",
      "midi": 64,
      "start": 28.182,
      "duration": 0.455,
      "velocity": 0.71
    },
    {
      "id": "n-00169",
      "pitch": "C5",
      "midi": 72,
      "start": 28.182,
      "duration": 0.227,
      "velocity": 0.71
    },
    {
      "id": "n-00170",
      "pitch": "C#5",
      "midi": 73,
      "start": 28.409,
      "duration": 0.227,
      "velocity": 0.71
    },
    {
      "id": "n-00171",
      "pitch": "A#3",
      "midi": 58,
      "start": 28.636,
      "duration": 0.455,
      "velocity": 0.71
    },
    {
      "id": "n-00172",
      "pitch": "E4",
      "midi": 64,
      "start": 28.636,
      "duration": 0.455,
      "velocity": 0.71
    },
    {
      "id": "n-00173",
      "pitch": "G4",
      "midi": 67,
      "start": 28.636,
      "duration": 0.455,
      "velocity": 0.71
    },
    {
      "id": "n-00174",
      "pitch": "C5",
      "midi": 72,
      "start": 28.636,
      "duration": 0.227,
      "velocity": 0.71
    },
    {
      "id": "n-00175",
      "pitch": "F5",
      "midi": 77,
      "start": 28.864,
      "duration": 0.227,
      "velocity": 0.71
    },
    {
      "id": "n-00176",
      "pitch": "C3",
      "midi": 48,
      "start": 29.091,
      "duration": 0.455,
      "velocity": 0.71
    },
    {
      "id": "n-00177",
      "pitch": "E5",
      "midi": 76,
      "start": 29.091,
      "duration": 0.227,
      "velocity": 0.71
    },
    {
      "id": "n-00178",
      "pitch": "G#5",
      "midi": 80,
      "start": 29.318,
      "duration": 0.227,
      "velocity": 0.71
    },
    {
      "id": "n-00179",
      "pitch": "G3",
      "midi": 55,
      "start": 29.545,
      "duration": 0.455,
      "velocity": 0.71
    },
    {
      "id": "n-00180",
      "pitch": "E4",
      "midi": 64,
      "start": 29.545,
      "duration": 0.455,
      "velocity": 0.71
    },
    {
      "id": "n-00181",
      "pitch": "G5",
      "midi": 79,
      "start": 29.545,
      "duration": 0.227,
      "velocity": 0.71
    },
    {
      "id": "n-00182",
      "pitch": "C#6",
      "midi": 85,
      "start": 29.773,
      "duration": 0.227,
      "velocity": 0.71
    },
    {
      "id": "n-00183",
      "pitch": "C4",
      "midi": 60,
      "start": 30,
      "duration": 0.455,
      "velocity": 0.71
    },
    {
      "id": "n-00184",
      "pitch": "E4",
      "midi": 64,
      "start": 30,
      "duration": 0.455,
      "velocity": 0.71
    },
    {
      "id": "n-00185",
      "pitch": "A#4",
      "midi": 70,
      "start": 30,
      "duration": 0.455,
      "velocity": 0.71
    },
    {
      "id": "n-00186",
      "pitch": "C6",
      "midi": 84,
      "start": 30,
      "duration": 0.227,
      "velocity": 0.71
    },
    {
      "id": "n-00187",
      "pitch": "G5",
      "midi": 79,
      "start": 30.227,
      "duration": 0.227,
      "velocity": 0.71
    },
    {
      "id": "n-00188",
      "pitch": "F2",
      "midi": 41,
      "start": 30.455,
      "duration": 0.455,
      "velocity": 0.71
    },
    {
      "id": "n-00189",
      "pitch": "A#5",
      "midi": 82,
      "start": 30.455,
      "duration": 1.364,
      "velocity": 0.71
    },
    {
      "id": "n-00190",
      "pitch": "F3",
      "midi": 53,
      "start": 30.909,
      "duration": 0.455,
      "velocity": 0.71
    },
    {
      "id": "n-00191",
      "pitch": "C#4",
      "midi": 61,
      "start": 30.909,
      "duration": 0.455,
      "velocity": 0.71
    },
    {
      "id": "n-00192",
      "pitch": "A#3",
      "midi": 58,
      "start": 31.364,
      "duration": 0.455,
      "velocity": 0.71
    },
    {
      "id": "n-00193",
      "pitch": "C#4",
      "midi": 61,
      "start": 31.364,
      "duration": 0.455,
      "velocity": 0.71
    },
    {
      "id": "n-00194",
      "pitch": "E4",
      "midi": 64,
      "start": 31.364,
      "duration": 0.455,
      "velocity": 0.71
    },
    {
      "id": "n-00195",
      "pitch": "F2",
      "midi": 41,
      "start": 31.818,
      "duration": 0.455,
      "velocity": 0.71
    },
    {
      "id": "n-00196",
      "pitch": "G#5",
      "midi": 80,
      "start": 31.818,
      "duration": 0.909,
      "velocity": 0.71
    },
    {
      "id": "n-00197",
      "pitch": "F3",
      "midi": 53,
      "start": 32.273,
      "duration": 0.455,
      "velocity": 0.71
    },
    {
      "id": "n-00198",
      "pitch": "C4",
      "midi": 60,
      "start": 32.273,
      "duration": 0.455,
      "velocity": 0.71
    },
    {
      "id": "n-00199",
      "pitch": "G#3",
      "midi": 56,
      "start": 32.727,
      "duration": 0.455,
      "velocity": 0.71
    },
    {
      "id": "n-00200",
      "pitch": "C4",
      "midi": 60,
      "start": 32.727,
      "duration": 0.455,
      "velocity": 0.71
    },
    {
      "id": "n-00201",
      "pitch": "F4",
      "midi": 65,
      "start": 32.727,
      "duration": 0.455,
      "velocity": 0.71
    },
    {
      "id": "n-00202",
      "pitch": "G5",
      "midi": 79,
      "start": 32.727,
      "duration": 0.455,
      "velocity": 0.71
    },
    {
      "id": "n-00203",
      "pitch": "A#2",
      "midi": 46,
      "start": 33.182,
      "duration": 0.455,
      "velocity": 0.71
    },
    {
      "id": "n-00204",
      "pitch": "F5",
      "midi": 77,
      "start": 33.182,
      "duration": 1.259,
      "velocity": 0.71
    },
    {
      "id": "n-00205",
      "pitch": "F3",
      "midi": 53,
      "start": 33.636,
      "duration": 0.455,
      "velocity": 0.71
    },
    {
      "id": "n-00206",
      "pitch": "D4",
      "midi": 62,
      "start": 33.636,
      "duration": 0.455,
      "velocity": 0.71
    },
    {
      "id": "n-00207",
      "pitch": "A#3",
      "midi": 58,
      "start": 34.091,
      "duration": 0.455,
      "velocity": 0.71
    },
    {
      "id": "n-00208",
      "pitch": "D4",
      "midi": 62,
      "start": 34.091,
      "duration": 0.455,
      "velocity": 0.71
    },
    {
      "id": "n-00209",
      "pitch": "G#4",
      "midi": 68,
      "start": 34.091,
      "duration": 0.455,
      "velocity": 0.71
    },
    {
      "id": "n-00210",
      "pitch": "E5",
      "midi": 76,
      "start": 34.441,
      "duration": 0.05,
      "velocity": 0.71
    },
    {
      "id": "n-00211",
      "pitch": "F5",
      "midi": 77,
      "start": 34.493,
      "duration": 0.05,
      "velocity": 0.71
    },
    {
      "id": "n-00212",
      "pitch": "B2",
      "midi": 47,
      "start": 34.545,
      "duration": 0.455,
      "velocity": 0.71
    },
    {
      "id": "n-00213",
      "pitch": "G5",
      "midi": 79,
      "start": 34.545,
      "duration": 0.455,
      "velocity": 0.71
    },
    {
      "id": "n-00214",
      "pitch": "G3",
      "midi": 55,
      "start": 35,
      "duration": 0.455,
      "velocity": 0.71
    },
    {
      "id": "n-00215",
      "pitch": "F4",
      "midi": 65,
      "start": 35,
      "duration": 0.455,
      "velocity": 0.71
    },
    {
      "id": "n-00216",
      "pitch": "G5",
      "midi": 79,
      "start": 35,
      "duration": 0.455,
      "velocity": 0.71
    },
    {
      "id": "n-00217",
      "pitch": "D4",
      "midi": 62,
      "start": 35.455,
      "duration": 0.455,
      "velocity": 0.71
    },
    {
      "id": "n-00218",
      "pitch": "F4",
      "midi": 65,
      "start": 35.455,
      "duration": 0.455,
      "velocity": 0.71
    },
    {
      "id": "n-00219",
      "pitch": "G4",
      "midi": 67,
      "start": 35.455,
      "duration": 0.455,
      "velocity": 0.71
    },
    {
      "id": "n-00220",
      "pitch": "D5",
      "midi": 74,
      "start": 35.455,
      "duration": 0.455,
      "velocity": 0.71
    },
    {
      "id": "n-00221",
      "pitch": "C3",
      "midi": 48,
      "start": 35.909,
      "duration": 0.455,
      "velocity": 0.71
    },
    {
      "id": "n-00222",
      "pitch": "D#5",
      "midi": 75,
      "start": 35.909,
      "duration": 1.364,
      "velocity": 0.71
    },
    {
      "id": "n-00223",
      "pitch": "G3",
      "midi": 55,
      "start": 36.364,
      "duration": 0.455,
      "velocity": 0.71
    },
    {
      "id": "n-00224",
      "pitch": "D#4",
      "midi": 63,
      "start": 36.364,
      "duration": 0.455,
      "velocity": 0.71
    },
    {
      "id": "n-00225",
      "pitch": "C4",
      "midi": 60,
      "start": 36.818,
      "duration": 0.455,
      "velocity": 0.71
    },
    {
      "id": "n-00226",
      "pitch": "D#4",
      "midi": 63,
      "start": 36.818,
      "duration": 0.455,
      "velocity": 0.71
    },
    {
      "id": "n-00227",
      "pitch": "G4",
      "midi": 67,
      "start": 36.818,
      "duration": 0.455,
      "velocity": 0.71
    },
    {
      "id": "n-00228",
      "pitch": "A2",
      "midi": 45,
      "start": 37.273,
      "duration": 0.455,
      "velocity": 0.71
    },
    {
      "id": "n-00229",
      "pitch": "C5",
      "midi": 72,
      "start": 37.273,
      "duration": 1.364,
      "velocity": 0.71
    },
    {
      "id": "n-00230",
      "pitch": "F#3",
      "midi": 54,
      "start": 37.727,
      "duration": 0.455,
      "velocity": 0.71
    },
    {
      "id": "n-00231",
      "pitch": "D#4",
      "midi": 63,
      "start": 37.727,
      "duration": 0.455,
      "velocity": 0.71
    },
    {
      "id": "n-00232",
      "pitch": "C4",
      "midi": 60,
      "start": 38.182,
      "duration": 0.455,
      "velocity": 0.71
    },
    {
      "id": "n-00233",
      "pitch": "D#4",
      "midi": 63,
      "start": 38.182,
      "duration": 0.455,
      "velocity": 0.71
    },
    {
      "id": "n-00234",
      "pitch": "F#4",
      "midi": 66,
      "start": 38.182,
      "duration": 0.455,
      "velocity": 0.71
    },
    {
      "id": "n-00235",
      "pitch": "A#2",
      "midi": 46,
      "start": 38.636,
      "duration": 0.455,
      "velocity": 0.71
    },
    {
      "id": "n-00236",
      "pitch": "A#4",
      "midi": 70,
      "start": 38.636,
      "duration": 0.455,
      "velocity": 0.71
    },
    {
      "id": "n-00237",
      "pitch": "F3",
      "midi": 53,
      "start": 39.091,
      "duration": 0.455,
      "velocity": 0.71
    },
    {
      "id": "n-00238",
      "pitch": "D#4",
      "midi": 63,
      "start": 39.091,
      "duration": 0.455,
      "velocity": 0.71
    },
    {
      "id": "n-00239",
      "pitch": "D6",
      "midi": 86,
      "start": 39.091,
      "duration": 0.455,
      "velocity": 0.71
    },
    {
      "id": "n-00240",
      "pitch": "A#3",
      "midi": 58,
      "start": 39.545,
      "duration": 0.455,
      "velocity": 0.71
    },
    {
      "id": "n-00241",
      "pitch": "D#4",
      "midi": 63,
      "start": 39.545,
      "duration": 0.455,
      "velocity": 0.71
    },
    {
      "id": "n-00242",
      "pitch": "G#4",
      "midi": 68,
      "start": 39.545,
      "duration": 0.455,
      "velocity": 0.71
    },
    {
      "id": "n-00243",
      "pitch": "C6",
      "midi": 84,
      "start": 39.545,
      "duration": 0.455,
      "velocity": 0.71
    },
    {
      "id": "n-00244",
      "pitch": "A#1",
      "midi": 34,
      "start": 40,
      "duration": 0.455,
      "velocity": 0.71
    },
    {
      "id": "n-00245",
      "pitch": "A#5",
      "midi": 82,
      "start": 40,
      "duration": 0.227,
      "velocity": 0.71
    },
    {
      "id": "n-00246",
      "pitch": "G#5",
      "midi": 80,
      "start": 40.227,
      "duration": 0.227,
      "velocity": 0.71
    },
    {
      "id": "n-00247",
      "pitch": "F3",
      "midi": 53,
      "start": 40.455,
      "duration": 0.455,
      "velocity": 0.71
    },
    {
      "id": "n-00248",
      "pitch": "D4",
      "midi": 62,
      "start": 40.455,
      "duration": 0.455,
      "velocity": 0.71
    },
    {
      "id": "n-00249",
      "pitch": "G5",
      "midi": 79,
      "start": 40.455,
      "duration": 0.227,
      "velocity": 0.71
    },
    {
      "id": "n-00250",
      "pitch": "G#5",
      "midi": 80,
      "start": 40.682,
      "duration": 0.123,
      "velocity": 0.71
    },
    {
      "id": "n-00251",
      "pitch": "G#5",
      "midi": 80,
      "start": 40.805,
      "duration": 0.102,
      "velocity": 0.71
    },
    {
      "id": "n-00252",
      "pitch": "A#3",
      "midi": 58,
      "start": 40.909,
      "duration": 0.455,
      "velocity": 0.71
    },
    {
      "id": "n-00253",
      "pitch": "G#4",
      "midi": 68,
      "start": 40.909,
      "duration": 0.455,
      "velocity": 0.71
    },
    {
      "id": "n-00254",
      "pitch": "C5",
      "midi": 72,
      "start": 40.909,
      "duration": 0.227,
      "velocity": 0.71
    },
    {
      "id": "n-00255",
      "pitch": "D5",
      "midi": 74,
      "start": 41.136,
      "duration": 0.227,
      "velocity": 0.71
    },
    {
      "id": "n-00256",
      "pitch": "D#2",
      "midi": 39,
      "start": 41.364,
      "duration": 0.455,
      "velocity": 0.71
    },
    {
      "id": "n-00257",
      "pitch": "D#5",
      "midi": 75,
      "start": 41.364,
      "duration": 1.818,
      "velocity": 0.71
    },
    {
      "id": "n-00258",
      "pitch": "G3",
      "midi": 55,
      "start": 41.818,
      "duration": 0.455,
      "velocity": 0.71
    },
    {
      "id": "n-00259",
      "pitch": "D#4",
      "midi": 63,
      "start": 41.818,
      "duration": 0.455,
      "velocity": 0.71
    },
    {
      "id": "n-00260",
      "pitch": "A#3",
      "midi": 58,
      "start": 42.273,
      "duration": 0.455,
      "velocity": 0.71
    },
    {
      "id": "n-00261",
      "pitch": "D#4",
      "midi": 63,
      "start": 42.273,
      "duration": 0.455,
      "velocity": 0.71
    },
    {
      "id": "n-00262",
      "pitch": "G4",
      "midi": 67,
      "start": 42.273,
      "duration": 0.455,
      "velocity": 0.71
    },
    {
      "id": "n-00263",
      "pitch": "D#3",
      "midi": 51,
      "start": 42.727,
      "duration": 0.455,
      "velocity": 0.71
    },
    {
      "id": "n-00264",
      "pitch": "G3",
      "midi": 55,
      "start": 43.182,
      "duration": 0.455,
      "velocity": 0.71
    },
    {
      "id": "n-00265",
      "pitch": "D#4",
      "midi": 63,
      "start": 43.182,
      "duration": 0.455,
      "velocity": 0.71
    },
    {
      "id": "n-00266",
      "pitch": "D5",
      "midi": 74,
      "start": 43.182,
      "duration": 0.455,
      "velocity": 0.71
    },
    {
      "id": "n-00267",
      "pitch": "A#3",
      "midi": 58,
      "start": 43.636,
      "duration": 0.455,
      "velocity": 0.71
    },
    {
      "id": "n-00268",
      "pitch": "D#4",
      "midi": 63,
      "start": 43.636,
      "duration": 0.455,
      "velocity": 0.71
    },
    {
      "id": "n-00269",
      "pitch": "G4",
      "midi": 67,
      "start": 43.636,
      "duration": 0.455,
      "velocity": 0.71
    },
    {
      "id": "n-00270",
      "pitch": "D#5",
      "midi": 75,
      "start": 43.636,
      "duration": 0.455,
      "velocity": 0.71
    },
    {
      "id": "n-00271",
      "pitch": "A#2",
      "midi": 46,
      "start": 44.091,
      "duration": 0.455,
      "velocity": 0.71
    },
    {
      "id": "n-00272",
      "pitch": "F5",
      "midi": 77,
      "start": 44.091,
      "duration": 1.364,
      "velocity": 0.71
    },
    {
      "id": "n-00273",
      "pitch": "F3",
      "midi": 53,
      "start": 44.545,
      "duration": 0.455,
      "velocity": 0.71
    },
    {
      "id": "n-00274",
      "pitch": "D4",
      "midi": 62,
      "start": 44.545,
      "duration": 0.455,
      "velocity": 0.71
    },
    {
      "id": "n-00275",
      "pitch": "A#3",
      "midi": 58,
      "start": 45,
      "duration": 0.455,
      "velocity": 0.71
    },
    {
      "id": "n-00276",
      "pitch": "D4",
      "midi": 62,
      "start": 45,
      "duration": 0.455,
      "velocity": 0.71
    },
    {
      "id": "n-00277",
      "pitch": "F4",
      "midi": 65,
      "start": 45,
      "duration": 0.455,
      "velocity": 0.71
    },
    {
      "id": "n-00278",
      "pitch": "A#2",
      "midi": 46,
      "start": 45.455,
      "duration": 0.455,
      "velocity": 0.71
    },
    {
      "id": "n-00279",
      "pitch": "G5",
      "midi": 79,
      "start": 45.455,
      "duration": 0.909,
      "velocity": 0.71
    },
    {
      "id": "n-00280",
      "pitch": "F3",
      "midi": 53,
      "start": 45.909,
      "duration": 0.455,
      "velocity": 0.71
    },
    {
      "id": "n-00281",
      "pitch": "D4",
      "midi": 62,
      "start": 45.909,
      "duration": 0.455,
      "velocity": 0.71
    },
    {
      "id": "n-00282",
      "pitch": "A#3",
      "midi": 58,
      "start": 46.364,
      "duration": 0.455,
      "velocity": 0.71
    },
    {
      "id": "n-00283",
      "pitch": "D4",
      "midi": 62,
      "start": 46.364,
      "duration": 0.455,
      "velocity": 0.71
    },
    {
      "id": "n-00284",
      "pitch": "F4",
      "midi": 65,
      "start": 46.364,
      "duration": 0.455,
      "velocity": 0.71
    },
    {
      "id": "n-00285",
      "pitch": "F5",
      "midi": 77,
      "start": 46.364,
      "duration": 0.455,
      "velocity": 0.71
    },
    {
      "id": "n-00286",
      "pitch": "A2",
      "midi": 45,
      "start": 46.818,
      "duration": 0.455,
      "velocity": 0.71
    },
    {
      "id": "n-00287",
      "pitch": "F5",
      "midi": 77,
      "start": 46.818,
      "duration": 1.364,
      "velocity": 0.71
    },
    {
      "id": "n-00288",
      "pitch": "F3",
      "midi": 53,
      "start": 47.273,
      "duration": 0.455,
      "velocity": 0.71
    },
    {
      "id": "n-00289",
      "pitch": "C4",
      "midi": 60,
      "start": 47.273,
      "duration": 0.455,
      "velocity": 0.71
    },
    {
      "id": "n-00290",
      "pitch": "C4",
      "midi": 60,
      "start": 47.727,
      "duration": 0.455,
      "velocity": 0.71
    },
    {
      "id": "n-00291",
      "pitch": "F4",
      "midi": 65,
      "start": 47.727,
      "duration": 0.455,
      "velocity": 0.71
    },
    {
      "id": "n-00292",
      "pitch": "A2",
      "midi": 45,
      "start": 48.182,
      "duration": 0.455,
      "velocity": 0.71
    },
    {
      "id": "n-00293",
      "pitch": "C5",
      "midi": 72,
      "start": 48.182,
      "duration": 1.364,
      "velocity": 0.71
    },
    {
      "id": "n-00294",
      "pitch": "F3",
      "midi": 53,
      "start": 48.636,
      "duration": 0.455,
      "velocity": 0.71
    },
    {
      "id": "n-00295",
      "pitch": "C4",
      "midi": 60,
      "start": 48.636,
      "duration": 0.455,
      "velocity": 0.71
    },
    {
      "id": "n-00296",
      "pitch": "C4",
      "midi": 60,
      "start": 49.091,
      "duration": 0.455,
      "velocity": 0.71
    },
    {
      "id": "n-00297",
      "pitch": "F4",
      "midi": 65,
      "start": 49.091,
      "duration": 0.455,
      "velocity": 0.71
    },
    {
      "id": "n-00298",
      "pitch": "G#2",
      "midi": 44,
      "start": 49.545,
      "duration": 0.455,
      "velocity": 0.71
    },
    {
      "id": "n-00299",
      "pitch": "D#5",
      "midi": 75,
      "start": 49.545,
      "duration": 0.455,
      "velocity": 0.71
    },
    {
      "id": "n-00300",
      "pitch": "D#3",
      "midi": 51,
      "start": 50,
      "duration": 0.455,
      "velocity": 0.71
    },
    {
      "id": "n-00301",
      "pitch": "C4",
      "midi": 60,
      "start": 50,
      "duration": 0.455,
      "velocity": 0.71
    },
    {
      "id": "n-00302",
      "pitch": "D#5",
      "midi": 75,
      "start": 50,
      "duration": 0.455,
      "velocity": 0.71
    },
    {
      "id": "n-00303",
      "pitch": "G#3",
      "midi": 56,
      "start": 50.454,
      "duration": 0.455,
      "velocity": 0.71
    },
    {
      "id": "n-00304",
      "pitch": "C4",
      "midi": 60,
      "start": 50.454,
      "duration": 0.455,
      "velocity": 0.71
    },
    {
      "id": "n-00305",
      "pitch": "D#4",
      "midi": 63,
      "start": 50.454,
      "duration": 0.455,
      "velocity": 0.71
    },
    {
      "id": "n-00306",
      "pitch": "D#5",
      "midi": 75,
      "start": 50.454,
      "duration": 0.455,
      "velocity": 0.71
    },
    {
      "id": "n-00307",
      "pitch": "G#1",
      "midi": 32,
      "start": 50.909,
      "duration": 0.455,
      "velocity": 0.71
    },
    {
      "id": "n-00308",
      "pitch": "D#5",
      "midi": 75,
      "start": 50.909,
      "duration": 0.455,
      "velocity": 0.71
    },
    {
      "id": "n-00309",
      "pitch": "D#3",
      "midi": 51,
      "start": 51.364,
      "duration": 0.455,
      "velocity": 0.71
    },
    {
      "id": "n-00310",
      "pitch": "B3",
      "midi": 59,
      "start": 51.364,
      "duration": 0.455,
      "velocity": 0.71
    },
    {
      "id": "n-00311",
      "pitch": "D5",
      "midi": 74,
      "start": 51.364,
      "duration": 0.227,
      "velocity": 0.71
    },
    {
      "id": "n-00312",
      "pitch": "D#5",
      "midi": 75,
      "start": 51.591,
      "duration": 0.227,
      "velocity": 0.71
    },
    {
      "id": "n-00313",
      "pitch": "G#3",
      "midi": 56,
      "start": 51.818,
      "duration": 0.455,
      "velocity": 0.71
    },
    {
      "id": "n-00314",
      "pitch": "B3",
      "midi": 59,
      "start": 51.818,
      "duration": 0.455,
      "velocity": 0.71
    },
    {
      "id": "n-00315",
      "pitch": "D#4",
      "midi": 63,
      "start": 51.818,
      "duration": 0.455,
      "velocity": 0.71
    },
    {
      "id": "n-00316",
      "pitch": "F5",
      "midi": 77,
      "start": 51.818,
      "duration": 0.341,
      "velocity": 0.71
    },
    {
      "id": "n-00317",
      "pitch": "D#5",
      "midi": 75,
      "start": 52.159,
      "duration": 0.114,
      "velocity": 0.71
    },
    {
      "id": "n-00318",
      "pitch": "D#2",
      "midi": 39,
      "start": 52.273,
      "duration": 0.455,
      "velocity": 0.71
    },
    {
      "id": "n-00319",
      "pitch": "D#5",
      "midi": 75,
      "start": 52.273,
      "duration": 1.364,
      "velocity": 0.71
    },
    {
      "id": "n-00320",
      "pitch": "G3",
      "midi": 55,
      "start": 52.727,
      "duration": 0.455,
      "velocity": 0.71
    },
    {
      "id": "n-00321",
      "pitch": "D#4",
      "midi": 63,
      "start": 52.727,
      "duration": 0.455,
      "velocity": 0.71
    },
    {
      "id": "n-00322",
      "pitch": "A#3",
      "midi": 58,
      "start": 53.182,
      "duration": 0.455,
      "velocity": 0.71
    },
    {
      "id": "n-00323",
      "pitch": "D#4",
      "midi": 63,
      "start": 53.182,
      "duration": 0.455,
      "velocity": 0.71
    },
    {
      "id": "n-00324",
      "pitch": "G4",
      "midi": 67,
      "start": 53.182,
      "duration": 0.455,
      "velocity": 0.71
    },
    {
      "id": "n-00325",
      "pitch": "D#3",
      "midi": 51,
      "start": 53.636,
      "duration": 0.455,
      "velocity": 0.71
    },
    {
      "id": "n-00326",
      "pitch": "A#4",
      "midi": 70,
      "start": 53.636,
      "duration": 1.364,
      "velocity": 0.71
    },
    {
      "id": "n-00327",
      "pitch": "G3",
      "midi": 55,
      "start": 54.091,
      "duration": 0.455,
      "velocity": 0.71
    },
    {
      "id": "n-00328",
      "pitch": "D#4",
      "midi": 63,
      "start": 54.091,
      "duration": 0.455,
      "velocity": 0.71
    },
    {
      "id": "n-00329",
      "pitch": "A#3",
      "midi": 58,
      "start": 54.545,
      "duration": 0.455,
      "velocity": 0.71
    },
    {
      "id": "n-00330",
      "pitch": "D#4",
      "midi": 63,
      "start": 54.545,
      "duration": 0.455,
      "velocity": 0.71
    },
    {
      "id": "n-00331",
      "pitch": "G4",
      "midi": 67,
      "start": 54.545,
      "duration": 0.455,
      "velocity": 0.71
    },
    {
      "id": "n-00332",
      "pitch": "E2",
      "midi": 40,
      "start": 55,
      "duration": 0.455,
      "velocity": 0.71
    },
    {
      "id": "n-00333",
      "pitch": "A#5",
      "midi": 82,
      "start": 55,
      "duration": 1.364,
      "velocity": 0.71
    },
    {
      "id": "n-00334",
      "pitch": "E3",
      "midi": 52,
      "start": 55.454,
      "duration": 0.455,
      "velocity": 0.71
    },
    {
      "id": "n-00335",
      "pitch": "C#4",
      "midi": 61,
      "start": 55.454,
      "duration": 0.455,
      "velocity": 0.71
    },
    {
      "id": "n-00336",
      "pitch": "A#3",
      "midi": 58,
      "start": 55.909,
      "duration": 0.455,
      "velocity": 0.71
    },
    {
      "id": "n-00337",
      "pitch": "C#4",
      "midi": 61,
      "start": 55.909,
      "duration": 0.455,
      "velocity": 0.71
    },
    {
      "id": "n-00338",
      "pitch": "G4",
      "midi": 67,
      "start": 55.909,
      "duration": 0.455,
      "velocity": 0.71
    },
    {
      "id": "n-00339",
      "pitch": "E2",
      "midi": 40,
      "start": 56.364,
      "duration": 0.455,
      "velocity": 0.71
    },
    {
      "id": "n-00340",
      "pitch": "A5",
      "midi": 81,
      "start": 56.364,
      "duration": 0.909,
      "velocity": 0.71
    },
    {
      "id": "n-00341",
      "pitch": "E3",
      "midi": 52,
      "start": 56.818,
      "duration": 0.455,
      "velocity": 0.71
    },
    {
      "id": "n-00342",
      "pitch": "C4",
      "midi": 60,
      "start": 56.818,
      "duration": 0.455,
      "velocity": 0.71
    },
    {
      "id": "n-00343",
      "pitch": "A#3",
      "midi": 58,
      "start": 57.273,
      "duration": 0.455,
      "velocity": 0.71
    },
    {
      "id": "n-00344",
      "pitch": "C4",
      "midi": 60,
      "start": 57.273,
      "duration": 0.455,
      "velocity": 0.71
    },
    {
      "id": "n-00345",
      "pitch": "G4",
      "midi": 67,
      "start": 57.273,
      "duration": 0.455,
      "velocity": 0.71
    },
    {
      "id": "n-00346",
      "pitch": "G5",
      "midi": 79,
      "start": 57.273,
      "duration": 0.455,
      "velocity": 0.71
    },
    {
      "id": "n-00347",
      "pitch": "F2",
      "midi": 41,
      "start": 57.727,
      "duration": 0.455,
      "velocity": 0.71
    },
    {
      "id": "n-00348",
      "pitch": "A4",
      "midi": 69,
      "start": 57.727,
      "duration": 1.364,
      "velocity": 0.71
    },
    {
      "id": "n-00349",
      "pitch": "F5",
      "midi": 77,
      "start": 57.727,
      "duration": 1.364,
      "velocity": 0.71
    },
    {
      "id": "n-00350",
      "pitch": "F3",
      "midi": 53,
      "start": 58.182,
      "duration": 0.455,
      "velocity": 0.71
    },
    {
      "id": "n-00351",
      "pitch": "D#4",
      "midi": 63,
      "start": 58.182,
      "duration": 0.455,
      "velocity": 0.71
    },
    {
      "id": "n-00352",
      "pitch": "C4",
      "midi": 60,
      "start": 58.636,
      "duration": 0.455,
      "velocity": 0.71
    },
    {
      "id": "n-00353",
      "pitch": "D#4",
      "midi": 63,
      "start": 58.636,
      "duration": 0.455,
      "velocity": 0.71
    },
    {
      "id": "n-00354",
      "pitch": "F4",
      "midi": 65,
      "start": 58.636,
      "duration": 0.455,
      "velocity": 0.71
    },
    {
      "id": "n-00355",
      "pitch": "G2",
      "midi": 43,
      "start": 59.091,
      "duration": 0.455,
      "velocity": 0.71
    },
    {
      "id": "n-00356",
      "pitch": "A#4",
      "midi": 70,
      "start": 59.091,
      "duration": 1.364,
      "velocity": 0.71
    },
    {
      "id": "n-00357",
      "pitch": "D5",
      "midi": 74,
      "start": 59.091,
      "duration": 1.364,
      "velocity": 0.71
    },
    {
      "id": "n-00358",
      "pitch": "G3",
      "midi": 55,
      "start": 59.545,
      "duration": 0.455,
      "velocity": 0.71
    },
    {
      "id": "n-00359",
      "pitch": "D4",
      "midi": 62,
      "start": 59.545,
      "duration": 0.455,
      "velocity": 0.71
    },
    {
      "id": "n-00360",
      "pitch": "A#3",
      "midi": 58,
      "start": 60,
      "duration": 0.455,
      "velocity": 0.71
    },
    {
      "id": "n-00361",
      "pitch": "D4",
      "midi": 62,
      "start": 60,
      "duration": 0.455,
      "velocity": 0.71
    },
    {
      "id": "n-00362",
      "pitch": "G4",
      "midi": 67,
      "start": 60,
      "duration": 0.455,
      "velocity": 0.71
    },
    {
      "id": "n-00363",
      "pitch": "C2",
      "midi": 36,
      "start": 60.454,
      "duration": 0.455,
      "velocity": 0.71
    },
    {
      "id": "n-00364",
      "pitch": "G4",
      "midi": 67,
      "start": 60.454,
      "duration": 1.364,
      "velocity": 0.71
    },
    {
      "id": "n-00365",
      "pitch": "D#5",
      "midi": 75,
      "start": 60.454,
      "duration": 1.364,
      "velocity": 0.71
    },
    {
      "id": "n-00366",
      "pitch": "G3",
      "midi": 55,
      "start": 60.909,
      "duration": 0.455,
      "velocity": 0.71
    },
    {
      "id": "n-00367",
      "pitch": "D#4",
      "midi": 63,
      "start": 60.909,
      "duration": 0.455,
      "velocity": 0.71
    },
    {
      "id": "n-00368",
      "pitch": "C4",
      "midi": 60,
      "start": 61.364,
      "duration": 0.455,
      "velocity": 0.71
    },
    {
      "id": "n-00369",
      "pitch": "D#4",
      "midi": 63,
      "start": 61.364,
      "duration": 0.455,
      "velocity": 0.71
    },
    {
      "id": "n-00370",
      "pitch": "G4",
      "midi": 67,
      "start": 61.364,
      "duration": 0.455,
      "velocity": 0.71
    },
    {
      "id": "n-00371",
      "pitch": "F2",
      "midi": 41,
      "start": 61.818,
      "duration": 0.455,
      "velocity": 0.71
    },
    {
      "id": "n-00372",
      "pitch": "A4",
      "midi": 69,
      "start": 61.818,
      "duration": 0.455,
      "velocity": 0.71
    },
    {
      "id": "n-00373",
      "pitch": "D5",
      "midi": 74,
      "start": 61.818,
      "duration": 0.455,
      "velocity": 0.71
    },
    {
      "id": "n-00374",
      "pitch": "F3",
      "midi": 53,
      "start": 62.273,
      "duration": 0.455,
      "velocity": 0.71
    },
    {
      "id": "n-00375",
      "pitch": "D#4",
      "midi": 63,
      "start": 62.273,
      "duration": 0.455,
      "velocity": 0.71
    },
    {
      "id": "n-00376",
      "pitch": "A4",
      "midi": 69,
      "start": 62.273,
      "duration": 0.455,
      "velocity": 0.71
    },
    {
      "id": "n-00377",
      "pitch": "C5",
      "midi": 72,
      "start": 62.273,
      "duration": 0.455,
      "velocity": 0.71
    },
    {
      "id": "n-00378",
      "pitch": "C4",
      "midi": 60,
      "start": 62.727,
      "duration": 0.455,
      "velocity": 0.71
    },
    {
      "id": "n-00379",
      "pitch": "D#4",
      "midi": 63,
      "start": 62.727,
      "duration": 0.455,
      "velocity": 0.71
    },
    {
      "id": "n-00380",
      "pitch": "F4",
      "midi": 65,
      "start": 62.727,
      "duration": 0.455,
      "velocity": 0.71
    },
    {
      "id": "n-00381",
      "pitch": "A4",
      "midi": 69,
      "start": 62.727,
      "duration": 0.455,
      "velocity": 0.71
    },
    {
      "id": "n-00382",
      "pitch": "D5",
      "midi": 74,
      "start": 62.727,
      "duration": 0.455,
      "velocity": 0.71
    },
    {
      "id": "n-00383",
      "pitch": "A#3",
      "midi": 58,
      "start": 63.182,
      "duration": 0.455,
      "velocity": 0.71
    },
    {
      "id": "n-00384",
      "pitch": "D4",
      "midi": 62,
      "start": 63.182,
      "duration": 0.455,
      "velocity": 0.71
    },
    {
      "id": "n-00385",
      "pitch": "F4",
      "midi": 65,
      "start": 63.182,
      "duration": 0.455,
      "velocity": 0.71
    },
    {
      "id": "n-00386",
      "pitch": "A#4",
      "midi": 70,
      "start": 63.182,
      "duration": 0.455,
      "velocity": 0.71
    },
    {
      "id": "n-00387",
      "pitch": "A3",
      "midi": 57,
      "start": 63.636,
      "duration": 0.455,
      "velocity": 0.71
    },
    {
      "id": "n-00388",
      "pitch": "D#4",
      "midi": 63,
      "start": 63.636,
      "duration": 0.455,
      "velocity": 0.71
    },
    {
      "id": "n-00389",
      "pitch": "F#4",
      "midi": 66,
      "start": 63.636,
      "duration": 0.455,
      "velocity": 0.71
    },
    {
      "id": "n-00390",
      "pitch": "B4",
      "midi": 71,
      "start": 63.636,
      "duration": 0.455,
      "velocity": 0.71
    },
    {
      "id": "n-00391",
      "pitch": "G#3",
      "midi": 56,
      "start": 64.091,
      "duration": 0.455,
      "velocity": 0.71
    },
    {
      "id": "n-00392",
      "pitch": "E4",
      "midi": 64,
      "start": 64.091,
      "duration": 0.455,
      "velocity": 0.71
    },
    {
      "id": "n-00393",
      "pitch": "B4",
      "midi": 71,
      "start": 64.091,
      "duration": 0.455,
      "velocity": 0.71
    },
    {
      "id": "n-00394",
      "pitch": "G3",
      "midi": 55,
      "start": 64.545,
      "duration": 0.455,
      "velocity": 0.71
    },
    {
      "id": "n-00395",
      "pitch": "E4",
      "midi": 64,
      "start": 64.545,
      "duration": 0.455,
      "velocity": 0.71
    },
    {
      "id": "n-00396",
      "pitch": "A#4",
      "midi": 70,
      "start": 64.545,
      "duration": 0.455,
      "velocity": 0.71
    },
    {
      "id": "n-00397",
      "pitch": "C5",
      "midi": 72,
      "start": 64.545,
      "duration": 0.455,
      "velocity": 0.71
    },
    {
      "id": "n-00398",
      "pitch": "F3",
      "midi": 53,
      "start": 65,
      "duration": 0.455,
      "velocity": 0.71
    },
    {
      "id": "n-00399",
      "pitch": "C4",
      "midi": 60,
      "start": 65,
      "duration": 0.455,
      "velocity": 0.71
    },
    {
      "id": "n-00400",
      "pitch": "D#4",
      "midi": 63,
      "start": 65,
      "duration": 0.455,
      "velocity": 0.71
    },
    {
      "id": "n-00401",
      "pitch": "F4",
      "midi": 65,
      "start": 65,
      "duration": 0.455,
      "velocity": 0.71
    },
    {
      "id": "n-00402",
      "pitch": "A4",
      "midi": 69,
      "start": 65,
      "duration": 0.455,
      "velocity": 0.71
    },
    {
      "id": "n-00403",
      "pitch": "C5",
      "midi": 72,
      "start": 65,
      "duration": 0.455,
      "velocity": 0.71
    },
    {
      "id": "n-00404",
      "pitch": "A#3",
      "midi": 58,
      "start": 65.454,
      "duration": 0.455,
      "velocity": 0.71
    },
    {
      "id": "n-00405",
      "pitch": "F4",
      "midi": 65,
      "start": 65.454,
      "duration": 0.455,
      "velocity": 0.71
    },
    {
      "id": "n-00406",
      "pitch": "G#4",
      "midi": 68,
      "start": 65.454,
      "duration": 0.301,
      "velocity": 0.71
    },
    {
      "id": "n-00407",
      "pitch": "D5",
      "midi": 74,
      "start": 65.454,
      "duration": 0.301,
      "velocity": 0.71
    },
    {
      "id": "n-00408",
      "pitch": "G4",
      "midi": 67,
      "start": 65.755,
      "duration": 0.05,
      "velocity": 0.71
    },
    {
      "id": "n-00409",
      "pitch": "A#4",
      "midi": 70,
      "start": 65.805,
      "duration": 0.05,
      "velocity": 0.71
    },
    {
      "id": "n-00410",
      "pitch": "D#5",
      "midi": 75,
      "start": 65.857,
      "duration": 0.05,
      "velocity": 0.71
    },
    {
      "id": "n-00411",
      "pitch": "D#2",
      "midi": 39,
      "start": 65.909,
      "duration": 0.455,
      "velocity": 0.71
    },
    {
      "id": "n-00412",
      "pitch": "G5",
      "midi": 79,
      "start": 65.909,
      "duration": 0.909,
      "velocity": 0.71
    },
    {
      "id": "n-00413",
      "pitch": "G3",
      "midi": 55,
      "start": 66.364,
      "duration": 0.455,
      "velocity": 0.71
    },
    {
      "id": "n-00414",
      "pitch": "D#4",
      "midi": 63,
      "start": 66.364,
      "duration": 0.455,
      "velocity": 0.71
    },
    {
      "id": "n-00415",
      "pitch": "A#3",
      "midi": 58,
      "start": 66.818,
      "duration": 0.455,
      "velocity": 0.71
    },
    {
      "id": "n-00416",
      "pitch": "D#4",
      "midi": 63,
      "start": 66.818,
      "duration": 0.455,
      "velocity": 0.71
    },
    {
      "id": "n-00417",
      "pitch": "G4",
      "midi": 67,
      "start": 66.818,
      "duration": 0.455,
      "velocity": 0.71
    },
    {
      "id": "n-00418",
      "pitch": "A4",
      "midi": 69,
      "start": 66.818,
      "duration": 0.227,
      "velocity": 0.71
    },
    {
      "id": "n-00419",
      "pitch": "A#4",
      "midi": 70,
      "start": 67.045,
      "duration": 0.227,
      "velocity": 0.71
    },
    {
      "id": "n-00420",
      "pitch": "D#3",
      "midi": 51,
      "start": 67.273,
      "duration": 0.455,
      "velocity": 0.71
    },
    {
      "id": "n-00421",
      "pitch": "B4",
      "midi": 71,
      "start": 67.273,
      "duration": 0.227,
      "velocity": 0.71
    },
    {
      "id": "n-00422",
      "pitch": "A#4",
      "midi": 70,
      "start": 67.5,
      "duration": 0.227,
      "velocity": 0.71
    },
    {
      "id": "n-00423",
      "pitch": "G#3",
      "midi": 56,
      "start": 67.727,
      "duration": 0.455,
      "velocity": 0.71
    },
    {
      "id": "n-00424",
      "pitch": "D4",
      "midi": 62,
      "start": 67.727,
      "duration": 0.455,
      "velocity": 0.71
    },
    {
      "id": "n-00425",
      "pitch": "C#5",
      "midi": 73,
      "start": 67.727,
      "duration": 0.227,
      "velocity": 0.71
    },
    {
      "id": "n-00426",
      "pitch": "D5",
      "midi": 74,
      "start": 67.954,
      "duration": 0.227,
      "velocity": 0.71
    },
    {
      "id": "n-00427",
      "pitch": "A#3",
      "midi": 58,
      "start": 68.182,
      "duration": 0.455,
      "velocity": 0.71
    },
    {
      "id": "n-00428",
      "pitch": "D4",
      "midi": 62,
      "start": 68.182,
      "duration": 0.455,
      "velocity": 0.71
    },
    {
      "id": "n-00429",
      "pitch": "G#4",
      "midi": 68,
      "start": 68.182,
      "duration": 0.455,
      "velocity": 0.71
    },
    {
      "id": "n-00430",
      "pitch": "G5",
      "midi": 79,
      "start": 68.182,
      "duration": 0.341,
      "velocity": 0.71
    },
    {
      "id": "n-00431",
      "pitch": "F5",
      "midi": 77,
      "start": 68.523,
      "duration": 0.114,
      "velocity": 0.71
    },
    {
      "id": "n-00432",
      "pitch": "D#3",
      "midi": 51,
      "start": 68.636,
      "duration": 0.455,
      "velocity": 0.71
    },
    {
      "id": "n-00433",
      "pitch": "F5",
      "midi": 77,
      "start": 68.636,
      "duration": 0.909,
      "velocity": 0.71
    },
    {
      "id": "n-00434",
      "pitch": "G3",
      "midi": 55,
      "start": 69.091,
      "duration": 0.455,
      "velocity": 0.71
    },
    {
      "id": "n-00435",
      "pitch": "D#4",
      "midi": 63,
      "start": 69.091,
      "duration": 0.455,
      "velocity": 0.71
    },
    {
      "id": "n-00436",
      "pitch": "A#3",
      "midi": 58,
      "start": 69.545,
      "duration": 0.455,
      "velocity": 0.71
    },
    {
      "id": "n-00437",
      "pitch": "G4",
      "midi": 67,
      "start": 69.545,
      "duration": 0.455,
      "velocity": 0.71
    },
    {
      "id": "n-00438",
      "pitch": "D#5",
      "midi": 75,
      "start": 69.545,
      "duration": 0.682,
      "velocity": 0.71
    },
    {
      "id": "n-00439",
      "pitch": "D3",
      "midi": 50,
      "start": 70,
      "duration": 0.455,
      "velocity": 0.71
    },
    {
      "id": "n-00440",
      "pitch": "F5",
      "midi": 77,
      "start": 70.227,
      "duration": 0.227,
      "velocity": 0.71
    },
    {
      "id": "n-00441",
      "pitch": "G3",
      "midi": 55,
      "start": 70.454,
      "duration": 0.455,
      "velocity": 0.71
    },
    {
      "id": "n-00442",
      "pitch": "D#4",
      "midi": 63,
      "start": 70.454,
      "duration": 0.455,
      "velocity": 0.71
    },
    {
      "id": "n-00443",
      "pitch": "D#5",
      "midi": 75,
      "start": 70.454,
      "duration": 0.227,
      "velocity": 0.71
    },
    {
      "id": "n-00444",
      "pitch": "D5",
      "midi": 74,
      "start": 70.682,
      "duration": 0.227,
      "velocity": 0.71
    },
    {
      "id": "n-00445",
      "pitch": "A#3",
      "midi": 58,
      "start": 70.909,
      "duration": 0.455,
      "velocity": 0.71
    },
    {
      "id": "n-00446",
      "pitch": "D#4",
      "midi": 63,
      "start": 70.909,
      "duration": 0.455,
      "velocity": 0.71
    },
    {
      "id": "n-00447",
      "pitch": "G4",
      "midi": 67,
      "start": 70.909,
      "duration": 0.455,
      "velocity": 0.71
    },
    {
      "id": "n-00448",
      "pitch": "D#5",
      "midi": 75,
      "start": 70.909,
      "duration": 0.227,
      "velocity": 0.71
    },
    {
      "id": "n-00449",
      "pitch": "F5",
      "midi": 77,
      "start": 71.136,
      "duration": 0.227,
      "velocity": 0.71
    },
    {
      "id": "n-00450",
      "pitch": "C3",
      "midi": 48,
      "start": 71.364,
      "duration": 0.455,
      "velocity": 0.71
    },
    {
      "id": "n-00451",
      "pitch": "G5",
      "midi": 79,
      "start": 71.364,
      "duration": 0.227,
      "velocity": 0.71
    },
    {
      "id": "n-00452",
      "pitch": "B4",
      "midi": 71,
      "start": 71.591,
      "duration": 0.227,
      "velocity": 0.71
    },
    {
      "id": "n-00453",
      "pitch": "G3",
      "midi": 55,
      "start": 71.818,
      "duration": 0.455,
      "velocity": 0.71
    },
    {
      "id": "n-00454",
      "pitch": "E4",
      "midi": 64,
      "start": 71.818,
      "duration": 0.455,
      "velocity": 0.71
    },
    {
      "id": "n-00455",
      "pitch": "C5",
      "midi": 72,
      "start": 71.818,
      "duration": 0.227,
      "velocity": 0.71
    },
    {
      "id": "n-00456",
      "pitch": "C#5",
      "midi": 73,
      "start": 72.045,
      "duration": 0.227,
      "velocity": 0.71
    },
    {
      "id": "n-00457",
      "pitch": "A#3",
      "midi": 58,
      "start": 72.273,
      "duration": 0.455,
      "velocity": 0.71
    },
    {
      "id": "n-00458",
      "pitch": "E4",
      "midi": 64,
      "start": 72.273,
      "duration": 0.455,
      "velocity": 0.71
    },
    {
      "id": "n-00459",
      "pitch": "G4",
      "midi": 67,
      "start": 72.273,
      "duration": 0.455,
      "velocity": 0.71
    },
    {
      "id": "n-00460",
      "pitch": "C5",
      "midi": 72,
      "start": 72.273,
      "duration": 0.227,
      "velocity": 0.71
    },
    {
      "id": "n-00461",
      "pitch": "F5",
      "midi": 77,
      "start": 72.5,
      "duration": 0.227,
      "velocity": 0.71
    },
    {
      "id": "n-00462",
      "pitch": "C3",
      "midi": 48,
      "start": 72.727,
      "duration": 0.455,
      "velocity": 0.71
    },
    {
      "id": "n-00463",
      "pitch": "E5",
      "midi": 76,
      "start": 72.727,
      "duration": 0.227,
      "velocity": 0.71
    },
    {
      "id": "n-00464",
      "pitch": "G#5",
      "midi": 80,
      "start": 72.954,
      "duration": 0.227,
      "velocity": 0.71
    },
    {
      "id": "n-00465",
      "pitch": "G3",
      "midi": 55,
      "start": 73.182,
      "duration": 0.455,
      "velocity": 0.71
    },
    {
      "id": "n-00466",
      "pitch": "E4",
      "midi": 64,
      "start": 73.182,
      "duration": 0.455,
      "velocity": 0.71
    },
    {
      "id": "n-00467",
      "pitch": "G5",
      "midi": 79,
      "start": 73.182,
      "duration": 0.227,
      "velocity": 0.71
    },
    {
      "id": "n-00468",
      "pitch": "C#6",
      "midi": 85,
      "start": 73.409,
      "duration": 0.227,
      "velocity": 0.71
    },
    {
      "id": "n-00469",
      "pitch": "C4",
      "midi": 60,
      "start": 73.636,
      "duration": 0.455,
      "velocity": 0.71
    },
    {
      "id": "n-00470",
      "pitch": "E4",
      "midi": 64,
      "start": 73.636,
      "duration": 0.455,
      "velocity": 0.71
    },
    {
      "id": "n-00471",
      "pitch": "A#4",
      "midi": 70,
      "start": 73.636,
      "duration": 0.455,
      "velocity": 0.71
    },
    {
      "id": "n-00472",
      "pitch": "C6",
      "midi": 84,
      "start": 73.636,
      "duration": 0.227,
      "velocity": 0.71
    },
    {
      "id": "n-00473",
      "pitch": "G5",
      "midi": 79,
      "start": 73.864,
      "duration": 0.227,
      "velocity": 0.71
    },
    {
      "id": "n-00474",
      "pitch": "F2",
      "midi": 41,
      "start": 74.091,
      "duration": 0.455,
      "velocity": 0.71
    },
    {
      "id": "n-00475",
      "pitch": "A#5",
      "midi": 82,
      "start": 74.091,
      "duration": 1.364,
      "velocity": 0.71
    },
    {
      "id": "n-00476",
      "pitch": "F3",
      "midi": 53,
      "start": 74.545,
      "duration": 0.455,
      "velocity": 0.71
    },
    {
      "id": "n-00477",
      "pitch": "C#4",
      "midi": 61,
      "start": 74.545,
      "duration": 0.455,
      "velocity": 0.71
    },
    {
      "id": "n-00478",
      "pitch": "A#3",
      "midi": 58,
      "start": 75,
      "duration": 0.455,
      "velocity": 0.71
    },
    {
      "id": "n-00479",
      "pitch": "C#4",
      "midi": 61,
      "start": 75,
      "duration": 0.455,
      "velocity": 0.71
    },
    {
      "id": "n-00480",
      "pitch": "E4",
      "midi": 64,
      "start": 75,
      "duration": 0.455,
      "velocity": 0.71
    },
    {
      "id": "n-00481",
      "pitch": "F2",
      "midi": 41,
      "start": 75.454,
      "duration": 0.455,
      "velocity": 0.71
    },
    {
      "id": "n-00482",
      "pitch": "G#5",
      "midi": 80,
      "start": 75.454,
      "duration": 0.909,
      "velocity": 0.71
    },
    {
      "id": "n-00483",
      "pitch": "F3",
      "midi": 53,
      "start": 75.909,
      "duration": 0.455,
      "velocity": 0.71
    },
    {
      "id": "n-00484",
      "pitch": "C4",
      "midi": 60,
      "start": 75.909,
      "duration": 0.455,
      "velocity": 0.71
    },
    {
      "id": "n-00485",
      "pitch": "G#3",
      "midi": 56,
      "start": 76.364,
      "duration": 0.455,
      "velocity": 0.71
    },
    {
      "id": "n-00486",
      "pitch": "C4",
      "midi": 60,
      "start": 76.364,
      "duration": 0.455,
      "velocity": 0.71
    },
    {
      "id": "n-00487",
      "pitch": "F4",
      "midi": 65,
      "start": 76.364,
      "duration": 0.455,
      "velocity": 0.71
    },
    {
      "id": "n-00488",
      "pitch": "G5",
      "midi": 79,
      "start": 76.364,
      "duration": 0.455,
      "velocity": 0.71
    },
    {
      "id": "n-00489",
      "pitch": "A#2",
      "midi": 46,
      "start": 76.818,
      "duration": 0.455,
      "velocity": 0.71
    },
    {
      "id": "n-00490",
      "pitch": "F5",
      "midi": 77,
      "start": 76.818,
      "duration": 1.259,
      "velocity": 0.71
    },
    {
      "id": "n-00491",
      "pitch": "F3",
      "midi": 53,
      "start": 77.273,
      "duration": 0.455,
      "velocity": 0.71
    },
    {
      "id": "n-00492",
      "pitch": "D4",
      "midi": 62,
      "start": 77.273,
      "duration": 0.455,
      "velocity": 0.71
    },
    {
      "id": "n-00493",
      "pitch": "A#3",
      "midi": 58,
      "start": 77.727,
      "duration": 0.455,
      "velocity": 0.71
    },
    {
      "id": "n-00494",
      "pitch": "D4",
      "midi": 62,
      "start": 77.727,
      "duration": 0.455,
      "velocity": 0.71
    },
    {
      "id": "n-00495",
      "pitch": "G#4",
      "midi": 68,
      "start": 77.727,
      "duration": 0.455,
      "velocity": 0.71
    },
    {
      "id": "n-00496",
      "pitch": "E5",
      "midi": 76,
      "start": 78.078,
      "duration": 0.05,
      "velocity": 0.71
    },
    {
      "id": "n-00497",
      "pitch": "F5",
      "midi": 77,
      "start": 78.13,
      "duration": 0.05,
      "velocity": 0.71
    },
    {
      "id": "n-00498",
      "pitch": "B2",
      "midi": 47,
      "start": 78.182,
      "duration": 0.455,
      "velocity": 0.71
    },
    {
      "id": "n-00499",
      "pitch": "G5",
      "midi": 79,
      "start": 78.182,
      "duration": 0.455,
      "velocity": 0.71
    },
    {
      "id": "n-00500",
      "pitch": "G3",
      "midi": 55,
      "start": 78.636,
      "duration": 0.455,
      "velocity": 0.71
    },
    {
      "id": "n-00501",
      "pitch": "F4",
      "midi": 65,
      "start": 78.636,
      "duration": 0.455,
      "velocity": 0.71
    },
    {
      "id": "n-00502",
      "pitch": "G5",
      "midi": 79,
      "start": 78.636,
      "duration": 0.455,
      "velocity": 0.71
    },
    {
      "id": "n-00503",
      "pitch": "D4",
      "midi": 62,
      "start": 79.091,
      "duration": 0.455,
      "velocity": 0.71
    },
    {
      "id": "n-00504",
      "pitch": "F4",
      "midi": 65,
      "start": 79.091,
      "duration": 0.455,
      "velocity": 0.71
    },
    {
      "id": "n-00505",
      "pitch": "G4",
      "midi": 67,
      "start": 79.091,
      "duration": 0.455,
      "velocity": 0.71
    },
    {
      "id": "n-00506",
      "pitch": "D5",
      "midi": 74,
      "start": 79.091,
      "duration": 0.455,
      "velocity": 0.71
    },
    {
      "id": "n-00507",
      "pitch": "C3",
      "midi": 48,
      "start": 79.545,
      "duration": 0.455,
      "velocity": 0.71
    },
    {
      "id": "n-00508",
      "pitch": "D#5",
      "midi": 75,
      "start": 79.545,
      "duration": 1.364,
      "velocity": 0.71
    },
    {
      "id": "n-00509",
      "pitch": "G3",
      "midi": 55,
      "start": 80,
      "duration": 0.455,
      "velocity": 0.71
    },
    {
      "id": "n-00510",
      "pitch": "D#4",
      "midi": 63,
      "start": 80,
      "duration": 0.455,
      "velocity": 0.71
    },
    {
      "id": "n-00511",
      "pitch": "C4",
      "midi": 60,
      "start": 80.454,
      "duration": 0.455,
      "velocity": 0.71
    },
    {
      "id": "n-00512",
      "pitch": "D#4",
      "midi": 63,
      "start": 80.454,
      "duration": 0.455,
      "velocity": 0.71
    },
    {
      "id": "n-00513",
      "pitch": "G4",
      "midi": 67,
      "start": 80.454,
      "duration": 0.455,
      "velocity": 0.71
    },
    {
      "id": "n-00514",
      "pitch": "A2",
      "midi": 45,
      "start": 80.909,
      "duration": 0.455,
      "velocity": 0.71
    },
    {
      "id": "n-00515",
      "pitch": "C5",
      "midi": 72,
      "start": 80.909,
      "duration": 1.364,
      "velocity": 0.71
    },
    {
      "id": "n-00516",
      "pitch": "F#3",
      "midi": 54,
      "start": 81.364,
      "duration": 0.455,
      "velocity": 0.71
    },
    {
      "id": "n-00517",
      "pitch": "D#4",
      "midi": 63,
      "start": 81.364,
      "duration": 0.455,
      "velocity": 0.71
    },
    {
      "id": "n-00518",
      "pitch": "C4",
      "midi": 60,
      "start": 81.818,
      "duration": 0.455,
      "velocity": 0.71
    },
    {
      "id": "n-00519",
      "pitch": "D#4",
      "midi": 63,
      "start": 81.818,
      "duration": 0.455,
      "velocity": 0.71
    },
    {
      "id": "n-00520",
      "pitch": "F#4",
      "midi": 66,
      "start": 81.818,
      "duration": 0.455,
      "velocity": 0.71
    },
    {
      "id": "n-00521",
      "pitch": "A#2",
      "midi": 46,
      "start": 82.273,
      "duration": 0.455,
      "velocity": 0.71
    },
    {
      "id": "n-00522",
      "pitch": "A#4",
      "midi": 70,
      "start": 82.273,
      "duration": 0.455,
      "velocity": 0.71
    },
    {
      "id": "n-00523",
      "pitch": "F3",
      "midi": 53,
      "start": 82.727,
      "duration": 0.455,
      "velocity": 0.71
    },
    {
      "id": "n-00524",
      "pitch": "D#4",
      "midi": 63,
      "start": 82.727,
      "duration": 0.455,
      "velocity": 0.71
    },
    {
      "id": "n-00525",
      "pitch": "D6",
      "midi": 86,
      "start": 82.727,
      "duration": 0.455,
      "velocity": 0.71
    },
    {
      "id": "n-00526",
      "pitch": "A#3",
      "midi": 58,
      "start": 83.182,
      "duration": 0.455,
      "velocity": 0.71
    },
    {
      "id": "n-00527",
      "pitch": "D#4",
      "midi": 63,
      "start": 83.182,
      "duration": 0.455,
      "velocity": 0.71
    },
    {
      "id": "n-00528",
      "pitch": "G#4",
      "midi": 68,
      "start": 83.182,
      "duration": 0.455,
      "velocity": 0.71
    },
    {
      "id": "n-00529",
      "pitch": "C#6",
      "midi": 85,
      "start": 83.182,
      "duration": 0.455,
      "velocity": 0.71
    },
    {
      "id": "n-00530",
      "pitch": "A#1",
      "midi": 34,
      "start": 83.636,
      "duration": 0.455,
      "velocity": 0.71
    },
    {
      "id": "n-00531",
      "pitch": "C6",
      "midi": 84,
      "start": 83.636,
      "duration": 0.114,
      "velocity": 0.71
    },
    {
      "id": "n-00532",
      "pitch": "B5",
      "midi": 83,
      "start": 83.75,
      "duration": 0.114,
      "velocity": 0.71
    },
    {
      "id": "n-00533",
      "pitch": "A#5",
      "midi": 82,
      "start": 83.864,
      "duration": 0.114,
      "velocity": 0.71
    },
    {
      "id": "n-00534",
      "pitch": "A5",
      "midi": 81,
      "start": 83.977,
      "duration": 0.114,
      "velocity": 0.71
    },
    {
      "id": "n-00535",
      "pitch": "F3",
      "midi": 53,
      "start": 84.091,
      "duration": 0.455,
      "velocity": 0.71
    },
    {
      "id": "n-00536",
      "pitch": "D4",
      "midi": 62,
      "start": 84.091,
      "duration": 0.455,
      "velocity": 0.71
    },
    {
      "id": "n-00537",
      "pitch": "G#5",
      "midi": 80,
      "start": 84.091,
      "duration": 0.114,
      "velocity": 0.71
    },
    {
      "id": "n-00538",
      "pitch": "F5",
      "midi": 77,
      "start": 84.204,
      "duration": 0.114,
      "velocity": 0.71
    },
    {
      "id": "n-00539",
      "pitch": "D5",
      "midi": 74,
      "start": 84.318,
      "duration": 0.114,
      "velocity": 0.71
    },
    {
      "id": "n-00540",
      "pitch": "B4",
      "midi": 71,
      "start": 84.432,
      "duration": 0.114,
      "velocity": 0.71
    },
    {
      "id": "n-00541",
      "pitch": "A#3",
      "midi": 58,
      "start": 84.545,
      "duration": 0.455,
      "velocity": 0.71
    },
    {
      "id": "n-00542",
      "pitch": "D4",
      "midi": 62,
      "start": 84.545,
      "duration": 0.455,
      "velocity": 0.71
    },
    {
      "id": "n-00543",
      "pitch": "G#4",
      "midi": 68,
      "start": 84.545,
      "duration": 0.455,
      "velocity": 0.71
    },
    {
      "id": "n-00544",
      "pitch": "A#4",
      "midi": 70,
      "start": 84.545,
      "duration": 0.114,
      "velocity": 0.71
    },
    {
      "id": "n-00545",
      "pitch": "D5",
      "midi": 74,
      "start": 84.659,
      "duration": 0.114,
      "velocity": 0.71
    },
    {
      "id": "n-00546",
      "pitch": "G5",
      "midi": 79,
      "start": 84.773,
      "duration": 0.076,
      "velocity": 0.71
    },
    {
      "id": "n-00547",
      "pitch": "F5",
      "midi": 77,
      "start": 84.848,
      "duration": 0.076,
      "velocity": 0.71
    },
    {
      "id": "n-00548",
      "pitch": "D#5",
      "midi": 75,
      "start": 84.924,
      "duration": 0.076,
      "velocity": 0.71
    },
    {
      "id": "n-00549",
      "pitch": "D#2",
      "midi": 39,
      "start": 85,
      "duration": 0.455,
      "velocity": 0.71
    },
    {
      "id": "n-00550",
      "pitch": "D#5",
      "midi": 75,
      "start": 85,
      "duration": 1.818,
      "velocity": 0.71
    },
    {
      "id": "n-00551",
      "pitch": "G3",
      "midi": 55,
      "start": 85.454,
      "duration": 0.455,
      "velocity": 0.71
    },
    {
      "id": "n-00552",
      "pitch": "D#4",
      "midi": 63,
      "start": 85.454,
      "duration": 0.455,
      "velocity": 0.71
    },
    {
      "id": "n-00553",
      "pitch": "A#3",
      "midi": 58,
      "start": 85.909,
      "duration": 0.455,
      "velocity": 0.71
    },
    {
      "id": "n-00554",
      "pitch": "G4",
      "midi": 67,
      "start": 85.909,
      "duration": 0.455,
      "velocity": 0.71
    },
    {
      "id": "n-00555",
      "pitch": "D#3",
      "midi": 51,
      "start": 86.364,
      "duration": 0.455,
      "velocity": 0.71
    },
    {
      "id": "n-00556",
      "pitch": "G3",
      "midi": 55,
      "start": 86.818,
      "duration": 0.455,
      "velocity": 0.71
    },
    {
      "id": "n-00557",
      "pitch": "D#4",
      "midi": 63,
      "start": 86.818,
      "duration": 0.455,
      "velocity": 0.71
    },
    {
      "id": "n-00558",
      "pitch": "D5",
      "midi": 74,
      "start": 86.818,
      "duration": 0.455,
      "velocity": 0.71
    },
    {
      "id": "n-00559",
      "pitch": "A#3",
      "midi": 58,
      "start": 87.273,
      "duration": 0.455,
      "velocity": 0.71
    },
    {
      "id": "n-00560",
      "pitch": "G4",
      "midi": 67,
      "start": 87.273,
      "duration": 0.455,
      "velocity": 0.71
    },
    {
      "id": "n-00561",
      "pitch": "D#5",
      "midi": 75,
      "start": 87.273,
      "duration": 0.455,
      "velocity": 0.71
    },
    {
      "id": "n-00562",
      "pitch": "A#2",
      "midi": 46,
      "start": 87.727,
      "duration": 0.455,
      "velocity": 0.71
    },
    {
      "id": "n-00563",
      "pitch": "F5",
      "midi": 77,
      "start": 87.727,
      "duration": 1.364,
      "velocity": 0.71
    },
    {
      "id": "n-00564",
      "pitch": "F3",
      "midi": 53,
      "start": 88.182,
      "duration": 0.455,
      "velocity": 0.71
    },
    {
      "id": "n-00565",
      "pitch": "D4",
      "midi": 62,
      "start": 88.182,
      "duration": 0.455,
      "velocity": 0.71
    },
    {
      "id": "n-00566",
      "pitch": "A#3",
      "midi": 58,
      "start": 88.636,
      "duration": 0.455,
      "velocity": 0.71
    },
    {
      "id": "n-00567",
      "pitch": "D4",
      "midi": 62,
      "start": 88.636,
      "duration": 0.455,
      "velocity": 0.71
    },
    {
      "id": "n-00568",
      "pitch": "F4",
      "midi": 65,
      "start": 88.636,
      "duration": 0.455,
      "velocity": 0.71
    },
    {
      "id": "n-00569",
      "pitch": "A#2",
      "midi": 46,
      "start": 89.091,
      "duration": 0.455,
      "velocity": 0.71
    },
    {
      "id": "n-00570",
      "pitch": "G5",
      "midi": 79,
      "start": 89.091,
      "duration": 0.909,
      "velocity": 0.71
    },
    {
      "id": "n-00571",
      "pitch": "F3",
      "midi": 53,
      "start": 89.545,
      "duration": 0.455,
      "velocity": 0.71
    },
    {
      "id": "n-00572",
      "pitch": "D4",
      "midi": 62,
      "start": 89.545,
      "duration": 0.455,
      "velocity": 0.71
    },
    {
      "id": "n-00573",
      "pitch": "A#3",
      "midi": 58,
      "start": 90,
      "duration": 0.455,
      "velocity": 0.71
    },
    {
      "id": "n-00574",
      "pitch": "D4",
      "midi": 62,
      "start": 90,
      "duration": 0.455,
      "velocity": 0.71
    },
    {
      "id": "n-00575",
      "pitch": "F4",
      "midi": 65,
      "start": 90,
      "duration": 0.455,
      "velocity": 0.71
    },
    {
      "id": "n-00576",
      "pitch": "F5",
      "midi": 77,
      "start": 90,
      "duration": 0.455,
      "velocity": 0.71
    },
    {
      "id": "n-00577",
      "pitch": "A2",
      "midi": 45,
      "start": 90.454,
      "duration": 0.455,
      "velocity": 0.71
    },
    {
      "id": "n-00578",
      "pitch": "F5",
      "midi": 77,
      "start": 90.454,
      "duration": 1.364,
      "velocity": 0.71
    },
    {
      "id": "n-00579",
      "pitch": "F3",
      "midi": 53,
      "start": 90.909,
      "duration": 0.455,
      "velocity": 0.71
    },
    {
      "id": "n-00580",
      "pitch": "C4",
      "midi": 60,
      "start": 90.909,
      "duration": 0.455,
      "velocity": 0.71
    },
    {
      "id": "n-00581",
      "pitch": "C4",
      "midi": 60,
      "start": 91.364,
      "duration": 0.455,
      "velocity": 0.71
    },
    {
      "id": "n-00582",
      "pitch": "F4",
      "midi": 65,
      "start": 91.364,
      "duration": 0.455,
      "velocity": 0.71
    },
    {
      "id": "n-00583",
      "pitch": "A2",
      "midi": 45,
      "start": 91.818,
      "duration": 0.455,
      "velocity": 0.71
    },
    {
      "id": "n-00584",
      "pitch": "C5",
      "midi": 72,
      "start": 91.818,
      "duration": 1.364,
      "velocity": 0.71
    },
    {
      "id": "n-00585",
      "pitch": "F3",
      "midi": 53,
      "start": 92.273,
      "duration": 0.455,
      "velocity": 0.71
    },
    {
      "id": "n-00586",
      "pitch": "C4",
      "midi": 60,
      "start": 92.273,
      "duration": 0.455,
      "velocity": 0.71
    },
    {
      "id": "n-00587",
      "pitch": "C4",
      "midi": 60,
      "start": 92.727,
      "duration": 0.455,
      "velocity": 0.71
    },
    {
      "id": "n-00588",
      "pitch": "F4",
      "midi": 65,
      "start": 92.727,
      "duration": 0.455,
      "velocity": 0.71
    },
    {
      "id": "n-00589",
      "pitch": "G#2",
      "midi": 44,
      "start": 93.182,
      "duration": 0.455,
      "velocity": 0.71
    },
    {
      "id": "n-00590",
      "pitch": "D#5",
      "midi": 75,
      "start": 93.182,
      "duration": 0.341,
      "velocity": 0.71
    },
    {
      "id": "n-00591",
      "pitch": "D#5",
      "midi": 75,
      "start": 93.523,
      "duration": 0.341,
      "velocity": 0.71
    },
    {
      "id": "n-00592",
      "pitch": "D#3",
      "midi": 51,
      "start": 93.636,
      "duration": 0.455,
      "velocity": 0.71
    },
    {
      "id": "n-00593",
      "pitch": "C4",
      "midi": 60,
      "start": 93.636,
      "duration": 0.455,
      "velocity": 0.71
    },
    {
      "id": "n-00594",
      "pitch": "D#5",
      "midi": 75,
      "start": 93.864,
      "duration": 0.341,
      "velocity": 0.71
    },
    {
      "id": "n-00595",
      "pitch": "G#3",
      "midi": 56,
      "start": 94.091,
      "duration": 0.455,
      "velocity": 0.71
    },
    {
      "id": "n-00596",
      "pitch": "C4",
      "midi": 60,
      "start": 94.091,
      "duration": 0.455,
      "velocity": 0.71
    },
    {
      "id": "n-00597",
      "pitch": "D#4",
      "midi": 63,
      "start": 94.091,
      "duration": 0.455,
      "velocity": 0.71
    },
    {
      "id": "n-00598",
      "pitch": "D#5",
      "midi": 75,
      "start": 94.204,
      "duration": 0.341,
      "velocity": 0.71
    },
    {
      "id": "n-00599",
      "pitch": "G#1",
      "midi": 32,
      "start": 94.545,
      "duration": 0.455,
      "velocity": 0.71
    },
    {
      "id": "n-00600",
      "pitch": "D#5",
      "midi": 75,
      "start": 94.545,
      "duration": 0.455,
      "velocity": 0.71
    },
    {
      "id": "n-00601",
      "pitch": "D#3",
      "midi": 51,
      "start": 95,
      "duration": 0.455,
      "velocity": 0.71
    },
    {
      "id": "n-00602",
      "pitch": "B3",
      "midi": 59,
      "start": 95,
      "duration": 0.455,
      "velocity": 0.71
    },
    {
      "id": "n-00603",
      "pitch": "D5",
      "midi": 74,
      "start": 95,
      "duration": 0.227,
      "velocity": 0.71
    },
    {
      "id": "n-00604",
      "pitch": "D#5",
      "midi": 75,
      "start": 95.227,
      "duration": 0.227,
      "velocity": 0.71
    },
    {
      "id": "n-00605",
      "pitch": "G#3",
      "midi": 56,
      "start": 95.454,
      "duration": 0.455,
      "velocity": 0.71
    },
    {
      "id": "n-00606",
      "pitch": "B3",
      "midi": 59,
      "start": 95.454,
      "duration": 0.455,
      "velocity": 0.71
    },
    {
      "id": "n-00607",
      "pitch": "D#4",
      "midi": 63,
      "start": 95.454,
      "duration": 0.455,
      "velocity": 0.71
    },
    {
      "id": "n-00608",
      "pitch": "F5",
      "midi": 77,
      "start": 95.454,
      "duration": 0.341,
      "velocity": 0.71
    },
    {
      "id": "n-00609",
      "pitch": "D#5",
      "midi": 75,
      "start": 95.795,
      "duration": 0.114,
      "velocity": 0.71
    },
    {
      "id": "n-00610",
      "pitch": "D#2",
      "midi": 39,
      "start": 95.909,
      "duration": 0.455,
      "velocity": 0.71
    },
    {
      "id": "n-00611",
      "pitch": "D#5",
      "midi": 75,
      "start": 95.909,
      "duration": 1.364,
      "velocity": 0.71
    },
    {
      "id": "n-00612",
      "pitch": "G3",
      "midi": 55,
      "start": 96.364,
      "duration": 0.455,
      "velocity": 0.71
    },
    {
      "id": "n-00613",
      "pitch": "D#4",
      "midi": 63,
      "start": 96.364,
      "duration": 0.455,
      "velocity": 0.71
    },
    {
      "id": "n-00614",
      "pitch": "A#3",
      "midi": 58,
      "start": 96.818,
      "duration": 0.455,
      "velocity": 0.71
    },
    {
      "id": "n-00615",
      "pitch": "D#4",
      "midi": 63,
      "start": 96.818,
      "duration": 0.455,
      "velocity": 0.71
    },
    {
      "id": "n-00616",
      "pitch": "G4",
      "midi": 67,
      "start": 96.818,
      "duration": 0.455,
      "velocity": 0.71
    },
    {
      "id": "n-00617",
      "pitch": "D#3",
      "midi": 51,
      "start": 97.273,
      "duration": 0.455,
      "velocity": 0.71
    },
    {
      "id": "n-00618",
      "pitch": "A#4",
      "midi": 70,
      "start": 97.273,
      "duration": 1.364,
      "velocity": 0.71
    },
    {
      "id": "n-00619",
      "pitch": "G3",
      "midi": 55,
      "start": 97.727,
      "duration": 0.455,
      "velocity": 0.71
    },
    {
      "id": "n-00620",
      "pitch": "D#4",
      "midi": 63,
      "start": 97.727,
      "duration": 0.455,
      "velocity": 0.71
    },
    {
      "id": "n-00621",
      "pitch": "A#3",
      "midi": 58,
      "start": 98.182,
      "duration": 0.455,
      "velocity": 0.71
    },
    {
      "id": "n-00622",
      "pitch": "D#4",
      "midi": 63,
      "start": 98.182,
      "duration": 0.455,
      "velocity": 0.71
    },
    {
      "id": "n-00623",
      "pitch": "G4",
      "midi": 67,
      "start": 98.182,
      "duration": 0.455,
      "velocity": 0.71
    },
    {
      "id": "n-00624",
      "pitch": "E2",
      "midi": 40,
      "start": 98.636,
      "duration": 0.455,
      "velocity": 0.71
    },
    {
      "id": "n-00625",
      "pitch": "A#5",
      "midi": 82,
      "start": 98.636,
      "duration": 1.364,
      "velocity": 0.71
    },
    {
      "id": "n-00626",
      "pitch": "E3",
      "midi": 52,
      "start": 99.091,
      "duration": 0.455,
      "velocity": 0.71
    },
    {
      "id": "n-00627",
      "pitch": "C#4",
      "midi": 61,
      "start": 99.091,
      "duration": 0.455,
      "velocity": 0.71
    },
    {
      "id": "n-00628",
      "pitch": "A#3",
      "midi": 58,
      "start": 99.545,
      "duration": 0.455,
      "velocity": 0.71
    },
    {
      "id": "n-00629",
      "pitch": "C#4",
      "midi": 61,
      "start": 99.545,
      "duration": 0.455,
      "velocity": 0.71
    },
    {
      "id": "n-00630",
      "pitch": "G4",
      "midi": 67,
      "start": 99.545,
      "duration": 0.455,
      "velocity": 0.71
    },
    {
      "id": "n-00631",
      "pitch": "E2",
      "midi": 40,
      "start": 100,
      "duration": 0.455,
      "velocity": 0.71
    },
    {
      "id": "n-00632",
      "pitch": "A5",
      "midi": 81,
      "start": 100,
      "duration": 0.909,
      "velocity": 0.71
    },
    {
      "id": "n-00633",
      "pitch": "E3",
      "midi": 52,
      "start": 100.454,
      "duration": 0.455,
      "velocity": 0.71
    },
    {
      "id": "n-00634",
      "pitch": "C4",
      "midi": 60,
      "start": 100.454,
      "duration": 0.455,
      "velocity": 0.71
    },
    {
      "id": "n-00635",
      "pitch": "A#3",
      "midi": 58,
      "start": 100.909,
      "duration": 0.455,
      "velocity": 0.71
    },
    {
      "id": "n-00636",
      "pitch": "C4",
      "midi": 60,
      "start": 100.909,
      "duration": 0.455,
      "velocity": 0.71
    },
    {
      "id": "n-00637",
      "pitch": "G4",
      "midi": 67,
      "start": 100.909,
      "duration": 0.455,
      "velocity": 0.71
    },
    {
      "id": "n-00638",
      "pitch": "G5",
      "midi": 79,
      "start": 100.909,
      "duration": 0.455,
      "velocity": 0.71
    },
    {
      "id": "n-00639",
      "pitch": "F2",
      "midi": 41,
      "start": 101.364,
      "duration": 0.455,
      "velocity": 0.71
    },
    {
      "id": "n-00640",
      "pitch": "A4",
      "midi": 69,
      "start": 101.364,
      "duration": 1.364,
      "velocity": 0.71
    },
    {
      "id": "n-00641",
      "pitch": "F5",
      "midi": 77,
      "start": 101.364,
      "duration": 1.364,
      "velocity": 0.71
    },
    {
      "id": "n-00642",
      "pitch": "F3",
      "midi": 53,
      "start": 101.818,
      "duration": 0.455,
      "velocity": 0.71
    },
    {
      "id": "n-00643",
      "pitch": "D#4",
      "midi": 63,
      "start": 101.818,
      "duration": 0.455,
      "velocity": 0.71
    },
    {
      "id": "n-00644",
      "pitch": "C4",
      "midi": 60,
      "start": 102.273,
      "duration": 0.455,
      "velocity": 0.71
    },
    {
      "id": "n-00645",
      "pitch": "D#4",
      "midi": 63,
      "start": 102.273,
      "duration": 0.455,
      "velocity": 0.71
    },
    {
      "id": "n-00646",
      "pitch": "A4",
      "midi": 69,
      "start": 102.273,
      "duration": 0.455,
      "velocity": 0.71
    },
    {
      "id": "n-00647",
      "pitch": "G2",
      "midi": 43,
      "start": 102.727,
      "duration": 0.455,
      "velocity": 0.71
    },
    {
      "id": "n-00648",
      "pitch": "A#4",
      "midi": 70,
      "start": 102.727,
      "duration": 1.364,
      "velocity": 0.71
    },
    {
      "id": "n-00649",
      "pitch": "D5",
      "midi": 74,
      "start": 102.727,
      "duration": 1.364,
      "velocity": 0.71
    },
    {
      "id": "n-00650",
      "pitch": "G3",
      "midi": 55,
      "start": 103.182,
      "duration": 0.455,
      "velocity": 0.71
    },
    {
      "id": "n-00651",
      "pitch": "D4",
      "midi": 62,
      "start": 103.182,
      "duration": 0.455,
      "velocity": 0.71
    },
    {
      "id": "n-00652",
      "pitch": "A#3",
      "midi": 58,
      "start": 103.636,
      "duration": 0.455,
      "velocity": 0.71
    },
    {
      "id": "n-00653",
      "pitch": "D4",
      "midi": 62,
      "start": 103.636,
      "duration": 0.455,
      "velocity": 0.71
    },
    {
      "id": "n-00654",
      "pitch": "A#4",
      "midi": 70,
      "start": 103.636,
      "duration": 0.455,
      "velocity": 0.71
    },
    {
      "id": "n-00655",
      "pitch": "C2",
      "midi": 36,
      "start": 104.091,
      "duration": 0.455,
      "velocity": 0.71
    },
    {
      "id": "n-00656",
      "pitch": "G4",
      "midi": 67,
      "start": 104.091,
      "duration": 1.364,
      "velocity": 0.71
    },
    {
      "id": "n-00657",
      "pitch": "D#5",
      "midi": 75,
      "start": 104.091,
      "duration": 1.364,
      "velocity": 0.71
    },
    {
      "id": "n-00658",
      "pitch": "G3",
      "midi": 55,
      "start": 104.545,
      "duration": 0.455,
      "velocity": 0.71
    },
    {
      "id": "n-00659",
      "pitch": "D#4",
      "midi": 63,
      "start": 104.545,
      "duration": 0.455,
      "velocity": 0.71
    },
    {
      "id": "n-00660",
      "pitch": "C4",
      "midi": 60,
      "start": 105,
      "duration": 0.455,
      "velocity": 0.71
    },
    {
      "id": "n-00661",
      "pitch": "D#4",
      "midi": 63,
      "start": 105,
      "duration": 0.455,
      "velocity": 0.71
    },
    {
      "id": "n-00662",
      "pitch": "G4",
      "midi": 67,
      "start": 105,
      "duration": 0.455,
      "velocity": 0.71
    },
    {
      "id": "n-00663",
      "pitch": "F2",
      "midi": 41,
      "start": 105.454,
      "duration": 0.455,
      "velocity": 0.71
    },
    {
      "id": "n-00664",
      "pitch": "A4",
      "midi": 69,
      "start": 105.454,
      "duration": 0.455,
      "velocity": 0.71
    },
    {
      "id": "n-00665",
      "pitch": "D5",
      "midi": 74,
      "start": 105.454,
      "duration": 0.455,
      "velocity": 0.71
    },
    {
      "id": "n-00666",
      "pitch": "F3",
      "midi": 53,
      "start": 105.909,
      "duration": 0.455,
      "velocity": 0.71
    },
    {
      "id": "n-00667",
      "pitch": "D#4",
      "midi": 63,
      "start": 105.909,
      "duration": 0.455,
      "velocity": 0.71
    },
    {
      "id": "n-00668",
      "pitch": "A4",
      "midi": 69,
      "start": 105.909,
      "duration": 0.455,
      "velocity": 0.71
    },
    {
      "id": "n-00669",
      "pitch": "C5",
      "midi": 72,
      "start": 105.909,
      "duration": 0.455,
      "velocity": 0.71
    },
    {
      "id": "n-00670",
      "pitch": "C4",
      "midi": 60,
      "start": 106.364,
      "duration": 0.455,
      "velocity": 0.71
    },
    {
      "id": "n-00671",
      "pitch": "D#4",
      "midi": 63,
      "start": 106.364,
      "duration": 0.455,
      "velocity": 0.71
    },
    {
      "id": "n-00672",
      "pitch": "F4",
      "midi": 65,
      "start": 106.364,
      "duration": 0.455,
      "velocity": 0.71
    },
    {
      "id": "n-00673",
      "pitch": "A4",
      "midi": 69,
      "start": 106.364,
      "duration": 0.455,
      "velocity": 0.71
    },
    {
      "id": "n-00674",
      "pitch": "D5",
      "midi": 74,
      "start": 106.364,
      "duration": 0.455,
      "velocity": 0.71
    },
    {
      "id": "n-00675",
      "pitch": "A#3",
      "midi": 58,
      "start": 106.818,
      "duration": 0.455,
      "velocity": 0.71
    },
    {
      "id": "n-00676",
      "pitch": "D4",
      "midi": 62,
      "start": 106.818,
      "duration": 0.455,
      "velocity": 0.71
    },
    {
      "id": "n-00677",
      "pitch": "F4",
      "midi": 65,
      "start": 106.818,
      "duration": 0.455,
      "velocity": 0.71
    },
    {
      "id": "n-00678",
      "pitch": "A#4",
      "midi": 70,
      "start": 106.818,
      "duration": 0.455,
      "velocity": 0.71
    },
    {
      "id": "n-00679",
      "pitch": "A3",
      "midi": 57,
      "start": 107.273,
      "duration": 0.455,
      "velocity": 0.71
    },
    {
      "id": "n-00680",
      "pitch": "D#4",
      "midi": 63,
      "start": 107.273,
      "duration": 0.455,
      "velocity": 0.71
    },
    {
      "id": "n-00681",
      "pitch": "F#4",
      "midi": 66,
      "start": 107.273,
      "duration": 0.455,
      "velocity": 0.71
    },
    {
      "id": "n-00682",
      "pitch": "B4",
      "midi": 71,
      "start": 107.273,
      "duration": 0.455,
      "velocity": 0.71
    },
    {
      "id": "n-00683",
      "pitch": "G#3",
      "midi": 56,
      "start": 107.727,
      "duration": 0.455,
      "velocity": 0.71
    },
    {
      "id": "n-00684",
      "pitch": "E4",
      "midi": 64,
      "start": 107.727,
      "duration": 0.455,
      "velocity": 0.71
    },
    {
      "id": "n-00685",
      "pitch": "B4",
      "midi": 71,
      "start": 107.727,
      "duration": 0.455,
      "velocity": 0.71
    },
    {
      "id": "n-00686",
      "pitch": "G3",
      "midi": 55,
      "start": 108.182,
      "duration": 0.455,
      "velocity": 0.71
    },
    {
      "id": "n-00687",
      "pitch": "E4",
      "midi": 64,
      "start": 108.182,
      "duration": 0.455,
      "velocity": 0.71
    },
    {
      "id": "n-00688",
      "pitch": "A#4",
      "midi": 70,
      "start": 108.182,
      "duration": 0.455,
      "velocity": 0.71
    },
    {
      "id": "n-00689",
      "pitch": "C5",
      "midi": 72,
      "start": 108.182,
      "duration": 0.455,
      "velocity": 0.71
    },
    {
      "id": "n-00690",
      "pitch": "F3",
      "midi": 53,
      "start": 108.636,
      "duration": 0.455,
      "velocity": 0.71
    },
    {
      "id": "n-00691",
      "pitch": "C4",
      "midi": 60,
      "start": 108.636,
      "duration": 0.455,
      "velocity": 0.71
    },
    {
      "id": "n-00692",
      "pitch": "D#4",
      "midi": 63,
      "start": 108.636,
      "duration": 0.455,
      "velocity": 0.71
    },
    {
      "id": "n-00693",
      "pitch": "F4",
      "midi": 65,
      "start": 108.636,
      "duration": 0.455,
      "velocity": 0.71
    },
    {
      "id": "n-00694",
      "pitch": "A4",
      "midi": 69,
      "start": 108.636,
      "duration": 0.455,
      "velocity": 0.71
    },
    {
      "id": "n-00695",
      "pitch": "C5",
      "midi": 72,
      "start": 108.636,
      "duration": 0.455,
      "velocity": 0.71
    },
    {
      "id": "n-00696",
      "pitch": "A#3",
      "midi": 58,
      "start": 109.091,
      "duration": 0.455,
      "velocity": 0.71
    },
    {
      "id": "n-00697",
      "pitch": "F4",
      "midi": 65,
      "start": 109.091,
      "duration": 0.455,
      "velocity": 0.71
    },
    {
      "id": "n-00698",
      "pitch": "G#4",
      "midi": 68,
      "start": 109.091,
      "duration": 0.301,
      "velocity": 0.71
    },
    {
      "id": "n-00699",
      "pitch": "D5",
      "midi": 74,
      "start": 109.091,
      "duration": 0.301,
      "velocity": 0.71
    },
    {
      "id": "n-00700",
      "pitch": "G4",
      "midi": 67,
      "start": 109.391,
      "duration": 0.05,
      "velocity": 0.71
    },
    {
      "id": "n-00701",
      "pitch": "A#4",
      "midi": 70,
      "start": 109.441,
      "duration": 0.05,
      "velocity": 0.71
    },
    {
      "id": "n-00702",
      "pitch": "D#5",
      "midi": 75,
      "start": 109.493,
      "duration": 0.05,
      "velocity": 0.71
    },
    {
      "id": "n-00703",
      "pitch": "D#2",
      "midi": 39,
      "start": 109.545,
      "duration": 0.455,
      "velocity": 0.71
    },
    {
      "id": "n-00704",
      "pitch": "G5",
      "midi": 79,
      "start": 109.545,
      "duration": 0.909,
      "velocity": 0.71
    },
    {
      "id": "n-00705",
      "pitch": "G3",
      "midi": 55,
      "start": 110,
      "duration": 0.455,
      "velocity": 0.71
    },
    {
      "id": "n-00706",
      "pitch": "D#4",
      "midi": 63,
      "start": 110,
      "duration": 0.455,
      "velocity": 0.71
    },
    {
      "id": "n-00707",
      "pitch": "A#3",
      "midi": 58,
      "start": 110.454,
      "duration": 0.455,
      "velocity": 0.71
    },
    {
      "id": "n-00708",
      "pitch": "D#4",
      "midi": 63,
      "start": 110.454,
      "duration": 0.455,
      "velocity": 0.71
    },
    {
      "id": "n-00709",
      "pitch": "G4",
      "midi": 67,
      "start": 110.454,
      "duration": 0.455,
      "velocity": 0.71
    },
    {
      "id": "n-00710",
      "pitch": "A4",
      "midi": 69,
      "start": 110.454,
      "duration": 0.227,
      "velocity": 0.71
    },
    {
      "id": "n-00711",
      "pitch": "A#4",
      "midi": 70,
      "start": 110.682,
      "duration": 0.227,
      "velocity": 0.71
    },
    {
      "id": "n-00712",
      "pitch": "D#3",
      "midi": 51,
      "start": 110.909,
      "duration": 0.455,
      "velocity": 0.71
    },
    {
      "id": "n-00713",
      "pitch": "B4",
      "midi": 71,
      "start": 110.909,
      "duration": 0.227,
      "velocity": 0.71
    },
    {
      "id": "n-00714",
      "pitch": "A#4",
      "midi": 70,
      "start": 111.136,
      "duration": 0.227,
      "velocity": 0.71
    },
    {
      "id": "n-00715",
      "pitch": "G#3",
      "midi": 56,
      "start": 111.364,
      "duration": 0.455,
      "velocity": 0.71
    },
    {
      "id": "n-00716",
      "pitch": "D4",
      "midi": 62,
      "start": 111.364,
      "duration": 0.455,
      "velocity": 0.71
    },
    {
      "id": "n-00717",
      "pitch": "C#5",
      "midi": 73,
      "start": 111.364,
      "duration": 0.227,
      "velocity": 0.71
    },
    {
      "id": "n-00718",
      "pitch": "D5",
      "midi": 74,
      "start": 111.591,
      "duration": 0.227,
      "velocity": 0.71
    },
    {
      "id": "n-00719",
      "pitch": "A#3",
      "midi": 58,
      "start": 111.818,
      "duration": 0.455,
      "velocity": 0.71
    },
    {
      "id": "n-00720",
      "pitch": "D4",
      "midi": 62,
      "start": 111.818,
      "duration": 0.455,
      "velocity": 0.71
    },
    {
      "id": "n-00721",
      "pitch": "G#4",
      "midi": 68,
      "start": 111.818,
      "duration": 0.455,
      "velocity": 0.71
    },
    {
      "id": "n-00722",
      "pitch": "G5",
      "midi": 79,
      "start": 111.818,
      "duration": 0.341,
      "velocity": 0.71
    },
    {
      "id": "n-00723",
      "pitch": "F5",
      "midi": 77,
      "start": 112.159,
      "duration": 0.114,
      "velocity": 0.71
    },
    {
      "id": "n-00724",
      "pitch": "D#3",
      "midi": 51,
      "start": 112.273,
      "duration": 0.455,
      "velocity": 0.71
    },
    {
      "id": "n-00725",
      "pitch": "F5",
      "midi": 77,
      "start": 112.273,
      "duration": 0.909,
      "velocity": 0.71
    },
    {
      "id": "n-00726",
      "pitch": "G3",
      "midi": 55,
      "start": 112.727,
      "duration": 0.455,
      "velocity": 0.71
    },
    {
      "id": "n-00727",
      "pitch": "D#4",
      "midi": 63,
      "start": 112.727,
      "duration": 0.455,
      "velocity": 0.71
    },
    {
      "id": "n-00728",
      "pitch": "A#3",
      "midi": 58,
      "start": 113.182,
      "duration": 0.455,
      "velocity": 0.71
    },
    {
      "id": "n-00729",
      "pitch": "D#4",
      "midi": 63,
      "start": 113.182,
      "duration": 0.455,
      "velocity": 0.71
    },
    {
      "id": "n-00730",
      "pitch": "G4",
      "midi": 67,
      "start": 113.182,
      "duration": 0.455,
      "velocity": 0.71
    },
    {
      "id": "n-00731",
      "pitch": "D#5",
      "midi": 75,
      "start": 113.182,
      "duration": 0.682,
      "velocity": 0.71
    },
    {
      "id": "n-00732",
      "pitch": "D3",
      "midi": 50,
      "start": 113.636,
      "duration": 0.455,
      "velocity": 0.71
    },
    {
      "id": "n-00733",
      "pitch": "F5",
      "midi": 77,
      "start": 113.864,
      "duration": 0.227,
      "velocity": 0.71
    },
    {
      "id": "n-00734",
      "pitch": "G3",
      "midi": 55,
      "start": 114.091,
      "duration": 0.455,
      "velocity": 0.71
    },
    {
      "id": "n-00735",
      "pitch": "D#4",
      "midi": 63,
      "start": 114.091,
      "duration": 0.455,
      "velocity": 0.71
    },
    {
      "id": "n-00736",
      "pitch": "D#5",
      "midi": 75,
      "start": 114.091,
      "duration": 0.227,
      "velocity": 0.71
    },
    {
      "id": "n-00737",
      "pitch": "D5",
      "midi": 74,
      "start": 114.318,
      "duration": 0.227,
      "velocity": 0.71
    },
    {
      "id": "n-00738",
      "pitch": "A#3",
      "midi": 58,
      "start": 114.545,
      "duration": 0.455,
      "velocity": 0.71
    },
    {
      "id": "n-00739",
      "pitch": "D#4",
      "midi": 63,
      "start": 114.545,
      "duration": 0.455,
      "velocity": 0.71
    },
    {
      "id": "n-00740",
      "pitch": "G4",
      "midi": 67,
      "start": 114.545,
      "duration": 0.455,
      "velocity": 0.71
    },
    {
      "id": "n-00741",
      "pitch": "D#5",
      "midi": 75,
      "start": 114.545,
      "duration": 0.227,
      "velocity": 0.71
    },
    {
      "id": "n-00742",
      "pitch": "F5",
      "midi": 77,
      "start": 114.773,
      "duration": 0.227,
      "velocity": 0.71
    },
    {
      "id": "n-00743",
      "pitch": "C3",
      "midi": 48,
      "start": 115,
      "duration": 0.455,
      "velocity": 0.71
    },
    {
      "id": "n-00744",
      "pitch": "G5",
      "midi": 79,
      "start": 115,
      "duration": 0.227,
      "velocity": 0.71
    },
    {
      "id": "n-00745",
      "pitch": "B4",
      "midi": 71,
      "start": 115.227,
      "duration": 0.227,
      "velocity": 0.71
    },
    {
      "id": "n-00746",
      "pitch": "G3",
      "midi": 55,
      "start": 115.454,
      "duration": 0.455,
      "velocity": 0.71
    },
    {
      "id": "n-00747",
      "pitch": "E4",
      "midi": 64,
      "start": 115.454,
      "duration": 0.455,
      "velocity": 0.71
    },
    {
      "id": "n-00748",
      "pitch": "C5",
      "midi": 72,
      "start": 115.454,
      "duration": 0.227,
      "velocity": 0.71
    },
    {
      "id": "n-00749",
      "pitch": "C#5",
      "midi": 73,
      "start": 115.682,
      "duration": 0.227,
      "velocity": 0.71
    },
    {
      "id": "n-00750",
      "pitch": "A#3",
      "midi": 58,
      "start": 115.909,
      "duration": 0.455,
      "velocity": 0.71
    },
    {
      "id": "n-00751",
      "pitch": "E4",
      "midi": 64,
      "start": 115.909,
      "duration": 0.455,
      "velocity": 0.71
    },
    {
      "id": "n-00752",
      "pitch": "G4",
      "midi": 67,
      "start": 115.909,
      "duration": 0.455,
      "velocity": 0.71
    },
    {
      "id": "n-00753",
      "pitch": "C5",
      "midi": 72,
      "start": 115.909,
      "duration": 0.227,
      "velocity": 0.71
    },
    {
      "id": "n-00754",
      "pitch": "F5",
      "midi": 77,
      "start": 116.136,
      "duration": 0.227,
      "velocity": 0.71
    },
    {
      "id": "n-00755",
      "pitch": "C3",
      "midi": 48,
      "start": 116.364,
      "duration": 0.455,
      "velocity": 0.71
    },
    {
      "id": "n-00756",
      "pitch": "E5",
      "midi": 76,
      "start": 116.364,
      "duration": 0.227,
      "velocity": 0.71
    },
    {
      "id": "n-00757",
      "pitch": "G#5",
      "midi": 80,
      "start": 116.591,
      "duration": 0.227,
      "velocity": 0.71
    },
    {
      "id": "n-00758",
      "pitch": "G3",
      "midi": 55,
      "start": 116.818,
      "duration": 0.455,
      "velocity": 0.71
    },
    {
      "id": "n-00759",
      "pitch": "E4",
      "midi": 64,
      "start": 116.818,
      "duration": 0.455,
      "velocity": 0.71
    },
    {
      "id": "n-00760",
      "pitch": "G5",
      "midi": 79,
      "start": 116.818,
      "duration": 0.227,
      "velocity": 0.71
    },
    {
      "id": "n-00761",
      "pitch": "C#6",
      "midi": 85,
      "start": 117.045,
      "duration": 0.227,
      "velocity": 0.71
    },
    {
      "id": "n-00762",
      "pitch": "C4",
      "midi": 60,
      "start": 117.273,
      "duration": 0.455,
      "velocity": 0.71
    },
    {
      "id": "n-00763",
      "pitch": "E4",
      "midi": 64,
      "start": 117.273,
      "duration": 0.455,
      "velocity": 0.71
    },
    {
      "id": "n-00764",
      "pitch": "A#4",
      "midi": 70,
      "start": 117.273,
      "duration": 0.455,
      "velocity": 0.71
    },
    {
      "id": "n-00765",
      "pitch": "C6",
      "midi": 84,
      "start": 117.273,
      "duration": 0.227,
      "velocity": 0.71
    },
    {
      "id": "n-00766",
      "pitch": "G5",
      "midi": 79,
      "start": 117.5,
      "duration": 0.123,
      "velocity": 0.71
    },
    {
      "id": "n-00767",
      "pitch": "G5",
      "midi": 79,
      "start": 117.623,
      "duration": 0.102,
      "velocity": 0.71
    },
    {
      "id": "n-00768",
      "pitch": "F2",
      "midi": 41,
      "start": 117.727,
      "duration": 0.455,
      "velocity": 0.71
    },
    {
      "id": "n-00769",
      "pitch": "A#5",
      "midi": 82,
      "start": 117.727,
      "duration": 1.364,
      "velocity": 0.71
    },
    {
      "id": "n-00770",
      "pitch": "F3",
      "midi": 53,
      "start": 118.182,
      "duration": 0.455,
      "velocity": 0.71
    },
    {
      "id": "n-00771",
      "pitch": "A#3",
      "midi": 58,
      "start": 118.182,
      "duration": 0.455,
      "velocity": 0.71
    },
    {
      "id": "n-00772",
      "pitch": "C#4",
      "midi": 61,
      "start": 118.182,
      "duration": 0.455,
      "velocity": 0.71
    },
    {
      "id": "n-00773",
      "pitch": "A#3",
      "midi": 58,
      "start": 118.636,
      "duration": 0.455,
      "velocity": 0.71
    },
    {
      "id": "n-00774",
      "pitch": "C#4",
      "midi": 61,
      "start": 118.636,
      "duration": 0.455,
      "velocity": 0.71
    },
    {
      "id": "n-00775",
      "pitch": "E4",
      "midi": 64,
      "start": 118.636,
      "duration": 0.455,
      "velocity": 0.71
    },
    {
      "id": "n-00776",
      "pitch": "F2",
      "midi": 41,
      "start": 119.091,
      "duration": 0.455,
      "velocity": 0.71
    },
    {
      "id": "n-00777",
      "pitch": "G#5",
      "midi": 80,
      "start": 119.091,
      "duration": 0.909,
      "velocity": 0.71
    },
    {
      "id": "n-00778",
      "pitch": "F3",
      "midi": 53,
      "start": 119.545,
      "duration": 0.455,
      "velocity": 0.71
    },
    {
      "id": "n-00779",
      "pitch": "C4",
      "midi": 60,
      "start": 119.545,
      "duration": 0.455,
      "velocity": 0.71
    },
    {
      "id": "n-00780",
      "pitch": "G#3",
      "midi": 56,
      "start": 120,
      "duration": 0.455,
      "velocity": 0.71
    },
    {
      "id": "n-00781",
      "pitch": "C4",
      "midi": 60,
      "start": 120,
      "duration": 0.455,
      "velocity": 0.71
    },
    {
      "id": "n-00782",
      "pitch": "F4",
      "midi": 65,
      "start": 120,
      "duration": 0.455,
      "velocity": 0.71
    },
    {
      "id": "n-00783",
      "pitch": "G5",
      "midi": 79,
      "start": 120,
      "duration": 0.455,
      "velocity": 0.71
    },
    {
      "id": "n-00784",
      "pitch": "A#2",
      "midi": 46,
      "start": 120.454,
      "duration": 0.455,
      "velocity": 0.71
    },
    {
      "id": "n-00785",
      "pitch": "F5",
      "midi": 77,
      "start": 120.454,
      "duration": 1.259,
      "velocity": 0.71
    },
    {
      "id": "n-00786",
      "pitch": "F3",
      "midi": 53,
      "start": 120.909,
      "duration": 0.455,
      "velocity": 0.71
    },
    {
      "id": "n-00787",
      "pitch": "D4",
      "midi": 62,
      "start": 120.909,
      "duration": 0.455,
      "velocity": 0.71
    },
    {
      "id": "n-00788",
      "pitch": "A#3",
      "midi": 58,
      "start": 121.364,
      "duration": 0.455,
      "velocity": 0.71
    },
    {
      "id": "n-00789",
      "pitch": "D4",
      "midi": 62,
      "start": 121.364,
      "duration": 0.455,
      "velocity": 0.71
    },
    {
      "id": "n-00790",
      "pitch": "G#4",
      "midi": 68,
      "start": 121.364,
      "duration": 0.455,
      "velocity": 0.71
    },
    {
      "id": "n-00791",
      "pitch": "E5",
      "midi": 76,
      "start": 121.714,
      "duration": 0.05,
      "velocity": 0.71
    },
    {
      "id": "n-00792",
      "pitch": "F5",
      "midi": 77,
      "start": 121.766,
      "duration": 0.05,
      "velocity": 0.71
    },
    {
      "id": "n-00793",
      "pitch": "B2",
      "midi": 47,
      "start": 121.818,
      "duration": 0.455,
      "velocity": 0.71
    },
    {
      "id": "n-00794",
      "pitch": "G5",
      "midi": 79,
      "start": 121.818,
      "duration": 0.455,
      "velocity": 0.71
    },
    {
      "id": "n-00795",
      "pitch": "G3",
      "midi": 55,
      "start": 122.273,
      "duration": 0.455,
      "velocity": 0.71
    },
    {
      "id": "n-00796",
      "pitch": "F4",
      "midi": 65,
      "start": 122.273,
      "duration": 0.455,
      "velocity": 0.71
    },
    {
      "id": "n-00797",
      "pitch": "G5",
      "midi": 79,
      "start": 122.273,
      "duration": 0.455,
      "velocity": 0.71
    },
    {
      "id": "n-00798",
      "pitch": "D4",
      "midi": 62,
      "start": 122.727,
      "duration": 0.455,
      "velocity": 0.71
    },
    {
      "id": "n-00799",
      "pitch": "F4",
      "midi": 65,
      "start": 122.727,
      "duration": 0.455,
      "velocity": 0.71
    },
    {
      "id": "n-00800",
      "pitch": "G4",
      "midi": 67,
      "start": 122.727,
      "duration": 0.455,
      "velocity": 0.71
    },
    {
      "id": "n-00801",
      "pitch": "D5",
      "midi": 74,
      "start": 122.727,
      "duration": 0.455,
      "velocity": 0.71
    },
    {
      "id": "n-00802",
      "pitch": "C3",
      "midi": 48,
      "start": 123.182,
      "duration": 0.455,
      "velocity": 0.71
    },
    {
      "id": "n-00803",
      "pitch": "D#5",
      "midi": 75,
      "start": 123.182,
      "duration": 1.364,
      "velocity": 0.71
    },
    {
      "id": "n-00804",
      "pitch": "G3",
      "midi": 55,
      "start": 123.636,
      "duration": 0.455,
      "velocity": 0.71
    },
    {
      "id": "n-00805",
      "pitch": "D#4",
      "midi": 63,
      "start": 123.636,
      "duration": 0.455,
      "velocity": 0.71
    },
    {
      "id": "n-00806",
      "pitch": "C4",
      "midi": 60,
      "start": 124.091,
      "duration": 0.455,
      "velocity": 0.71
    },
    {
      "id": "n-00807",
      "pitch": "D#4",
      "midi": 63,
      "start": 124.091,
      "duration": 0.455,
      "velocity": 0.71
    },
    {
      "id": "n-00808",
      "pitch": "G4",
      "midi": 67,
      "start": 124.091,
      "duration": 0.455,
      "velocity": 0.71
    },
    {
      "id": "n-00809",
      "pitch": "A2",
      "midi": 45,
      "start": 124.545,
      "duration": 0.455,
      "velocity": 0.71
    },
    {
      "id": "n-00810",
      "pitch": "C5",
      "midi": 72,
      "start": 124.545,
      "duration": 1.364,
      "velocity": 0.71
    },
    {
      "id": "n-00811",
      "pitch": "F#3",
      "midi": 54,
      "start": 125,
      "duration": 0.455,
      "velocity": 0.71
    },
    {
      "id": "n-00812",
      "pitch": "D#4",
      "midi": 63,
      "start": 125,
      "duration": 0.455,
      "velocity": 0.71
    },
    {
      "id": "n-00813",
      "pitch": "C4",
      "midi": 60,
      "start": 125.454,
      "duration": 0.455,
      "velocity": 0.71
    },
    {
      "id": "n-00814",
      "pitch": "D#4",
      "midi": 63,
      "start": 125.454,
      "duration": 0.455,
      "velocity": 0.71
    },
    {
      "id": "n-00815",
      "pitch": "F#4",
      "midi": 66,
      "start": 125.454,
      "duration": 0.455,
      "velocity": 0.71
    },
    {
      "id": "n-00816",
      "pitch": "A#2",
      "midi": 46,
      "start": 125.909,
      "duration": 0.455,
      "velocity": 0.71
    },
    {
      "id": "n-00817",
      "pitch": "A#4",
      "midi": 70,
      "start": 125.909,
      "duration": 0.227,
      "velocity": 0.71
    },
    {
      "id": "n-00818",
      "pitch": "D6",
      "midi": 86,
      "start": 126.136,
      "duration": 0.455,
      "velocity": 0.71
    },
    {
      "id": "n-00819",
      "pitch": "F3",
      "midi": 53,
      "start": 126.364,
      "duration": 0.455,
      "velocity": 0.71
    },
    {
      "id": "n-00820",
      "pitch": "D#4",
      "midi": 63,
      "start": 126.364,
      "duration": 0.455,
      "velocity": 0.71
    },
    {
      "id": "n-00821",
      "pitch": "C#6",
      "midi": 85,
      "start": 126.591,
      "duration": 0.227,
      "velocity": 0.71
    },
    {
      "id": "n-00822",
      "pitch": "A#3",
      "midi": 58,
      "start": 126.818,
      "duration": 0.455,
      "velocity": 0.71
    },
    {
      "id": "n-00823",
      "pitch": "D#4",
      "midi": 63,
      "start": 126.818,
      "duration": 0.455,
      "velocity": 0.71
    },
    {
      "id": "n-00824",
      "pitch": "G#4",
      "midi": 68,
      "start": 126.818,
      "duration": 0.455,
      "velocity": 0.71
    },
    {
      "id": "n-00825",
      "pitch": "C6",
      "midi": 84,
      "start": 126.818,
      "duration": 0.227,
      "velocity": 0.71
    },
    {
      "id": "n-00826",
      "pitch": "B5",
      "midi": 83,
      "start": 127.045,
      "duration": 0.114,
      "velocity": 0.71
    },
    {
      "id": "n-00827",
      "pitch": "A#5",
      "midi": 82,
      "start": 127.159,
      "duration": 0.227,
      "velocity": 0.71
    },
    {
      "id": "n-00828",
      "pitch": "A#1",
      "midi": 34,
      "start": 127.273,
      "duration": 0.455,
      "velocity": 0.71
    },
    {
      "id": "n-00829",
      "pitch": "A5",
      "midi": 81,
      "start": 127.386,
      "duration": 0.227,
      "velocity": 0.71
    },
    {
      "id": "n-00830",
      "pitch": "G#5",
      "midi": 80,
      "start": 127.614,
      "duration": 0.114,
      "velocity": 0.71
    },
    {
      "id": "n-00831",
      "pitch": "F3",
      "midi": 53,
      "start": 127.727,
      "duration": 0.455,
      "velocity": 0.71
    },
    {
      "id": "n-00832",
      "pitch": "D4",
      "midi": 62,
      "start": 127.727,
      "duration": 0.455,
      "velocity": 0.71
    },
    {
      "id": "n-00833",
      "pitch": "A4",
      "midi": 69,
      "start": 127.727,
      "duration": 0.114,
      "velocity": 0.71
    },
    {
      "id": "n-00834",
      "pitch": "A#4",
      "midi": 70,
      "start": 127.841,
      "duration": 0.114,
      "velocity": 0.71
    },
    {
      "id": "n-00835",
      "pitch": "B4",
      "midi": 71,
      "start": 127.954,
      "duration": 0.114,
      "velocity": 0.71
    },
    {
      "id": "n-00836",
      "pitch": "C5",
      "midi": 72,
      "start": 128.068,
      "duration": 0.114,
      "velocity": 0.71
    },
    {
      "id": "n-00837",
      "pitch": "A#3",
      "midi": 58,
      "start": 128.182,
      "duration": 0.455,
      "velocity": 0.71
    },
    {
      "id": "n-00838",
      "pitch": "D4",
      "midi": 62,
      "start": 128.182,
      "duration": 0.455,
      "velocity": 0.71
    },
    {
      "id": "n-00839",
      "pitch": "G#4",
      "midi": 68,
      "start": 128.182,
      "duration": 0.455,
      "velocity": 0.71
    },
    {
      "id": "n-00840",
      "pitch": "C#5",
      "midi": 73,
      "start": 128.182,
      "duration": 0.114,
      "velocity": 0.71
    },
    {
      "id": "n-00841",
      "pitch": "D5",
      "midi": 74,
      "start": 128.295,
      "duration": 0.114,
      "velocity": 0.71
    },
    {
      "id": "n-00842",
      "pitch": "G5",
      "midi": 79,
      "start": 128.409,
      "duration": 0.076,
      "velocity": 0.71
    },
    {
      "id": "n-00843",
      "pitch": "F5",
      "midi": 77,
      "start": 128.485,
      "duration": 0.076,
      "velocity": 0.71
    },
    {
      "id": "n-00844",
      "pitch": "D#5",
      "midi": 75,
      "start": 128.56,
      "duration": 0.076,
      "velocity": 0.71
    },
    {
      "id": "n-00845",
      "pitch": "D#2",
      "midi": 39,
      "start": 128.636,
      "duration": 0.455,
      "velocity": 0.71
    },
    {
      "id": "n-00846",
      "pitch": "D#5",
      "midi": 75,
      "start": 128.636,
      "duration": 2.727,
      "velocity": 0.71
    },
    {
      "id": "n-00847",
      "pitch": "G3",
      "midi": 55,
      "start": 129.091,
      "duration": 0.455,
      "velocity": 0.71
    },
    {
      "id": "n-00848",
      "pitch": "D#4",
      "midi": 63,
      "start": 129.091,
      "duration": 0.455,
      "velocity": 0.71
    },
    {
      "id": "n-00849",
      "pitch": "A#3",
      "midi": 58,
      "start": 129.545,
      "duration": 0.455,
      "velocity": 0.71
    },
    {
      "id": "n-00850",
      "pitch": "D#4",
      "midi": 63,
      "start": 129.545,
      "duration": 0.455,
      "velocity": 0.71
    },
    {
      "id": "n-00851",
      "pitch": "G4",
      "midi": 67,
      "start": 129.545,
      "duration": 0.455,
      "velocity": 0.71
    },
    {
      "id": "n-00852",
      "pitch": "D#3",
      "midi": 51,
      "start": 130,
      "duration": 0.455,
      "velocity": 0.71
    },
    {
      "id": "n-00853",
      "pitch": "G3",
      "midi": 55,
      "start": 130.454,
      "duration": 0.455,
      "velocity": 0.71
    },
    {
      "id": "n-00854",
      "pitch": "D#4",
      "midi": 63,
      "start": 130.454,
      "duration": 0.455,
      "velocity": 0.71
    },
    {
      "id": "n-00855",
      "pitch": "A#3",
      "midi": 58,
      "start": 130.909,
      "duration": 0.455,
      "velocity": 0.71
    },
    {
      "id": "n-00856",
      "pitch": "D#4",
      "midi": 63,
      "start": 130.909,
      "duration": 0.455,
      "velocity": 0.71
    },
    {
      "id": "n-00857",
      "pitch": "G4",
      "midi": 67,
      "start": 130.909,
      "duration": 0.455,
      "velocity": 0.71
    },
    {
      "id": "n-00858",
      "pitch": "D#2",
      "midi": 39,
      "start": 131.364,
      "duration": 0.455,
      "velocity": 0.71
    },
    {
      "id": "n-00859",
      "pitch": "D#5",
      "midi": 75,
      "start": 131.364,
      "duration": 1.364,
      "velocity": 0.71
    },
    {
      "id": "n-00860",
      "pitch": "G#3",
      "midi": 56,
      "start": 131.818,
      "duration": 0.455,
      "velocity": 0.71
    },
    {
      "id": "n-00861",
      "pitch": "B3",
      "midi": 59,
      "start": 131.818,
      "duration": 0.455,
      "velocity": 0.71
    },
    {
      "id": "n-00862",
      "pitch": "D#4",
      "midi": 63,
      "start": 131.818,
      "duration": 0.455,
      "velocity": 0.71
    },
    {
      "id": "n-00863",
      "pitch": "B3",
      "midi": 59,
      "start": 132.273,
      "duration": 0.455,
      "velocity": 0.71
    },
    {
      "id": "n-00864",
      "pitch": "D#4",
      "midi": 63,
      "start": 132.273,
      "duration": 0.455,
      "velocity": 0.71
    },
    {
      "id": "n-00865",
      "pitch": "G#4",
      "midi": 68,
      "start": 132.273,
      "duration": 0.455,
      "velocity": 0.71
    },
    {
      "id": "n-00866",
      "pitch": "D#3",
      "midi": 51,
      "start": 132.727,
      "duration": 0.455,
      "velocity": 0.71
    },
    {
      "id": "n-00867",
      "pitch": "F5",
      "midi": 77,
      "start": 132.727,
      "duration": 0.455,
      "velocity": 0.71
    },
    {
      "id": "n-00868",
      "pitch": "G#3",
      "midi": 56,
      "start": 133.182,
      "duration": 0.455,
      "velocity": 0.71
    },
    {
      "id": "n-00869",
      "pitch": "B3",
      "midi": 59,
      "start": 133.182,
      "duration": 0.455,
      "velocity": 0.71
    },
    {
      "id": "n-00870",
      "pitch": "D#4",
      "midi": 63,
      "start": 133.182,
      "duration": 0.455,
      "velocity": 0.71
    },
    {
      "id": "n-00871",
      "pitch": "D#5",
      "midi": 75,
      "start": 133.182,
      "duration": 0.455,
      "velocity": 0.71
    },
    {
      "id": "n-00872",
      "pitch": "B3",
      "midi": 59,
      "start": 133.636,
      "duration": 0.455,
      "velocity": 0.71
    },
    {
      "id": "n-00873",
      "pitch": "D#4",
      "midi": 63,
      "start": 133.636,
      "duration": 0.455,
      "velocity": 0.71
    },
    {
      "id": "n-00874",
      "pitch": "G#4",
      "midi": 68,
      "start": 133.636,
      "duration": 0.455,
      "velocity": 0.71
    },
    {
      "id": "n-00875",
      "pitch": "F5",
      "midi": 77,
      "start": 133.636,
      "duration": 0.455,
      "velocity": 0.71
    },
    {
      "id": "n-00876",
      "pitch": "D#2",
      "midi": 39,
      "start": 134.091,
      "duration": 0.455,
      "velocity": 0.71
    },
    {
      "id": "n-00877",
      "pitch": "G5",
      "midi": 79,
      "start": 134.091,
      "duration": 2.727,
      "velocity": 0.71
    },
    {
      "id": "n-00878",
      "pitch": "G3",
      "midi": 55,
      "start": 134.545,
      "duration": 0.455,
      "velocity": 0.71
    },
    {
      "id": "n-00879",
      "pitch": "D#4",
      "midi": 63,
      "start": 134.545,
      "duration": 0.455,
      "velocity": 0.71
    },
    {
      "id": "n-00880",
      "pitch": "A#3",
      "midi": 58,
      "start": 135,
      "duration": 0.455,
      "velocity": 0.71
    },
    {
      "id": "n-00881",
      "pitch": "D#4",
      "midi": 63,
      "start": 135,
      "duration": 0.455,
      "velocity": 0.71
    },
    {
      "id": "n-00882",
      "pitch": "G4",
      "midi": 67,
      "start": 135,
      "duration": 0.455,
      "velocity": 0.71
    },
    {
      "id": "n-00883",
      "pitch": "D#3",
      "midi": 51,
      "start": 135.454,
      "duration": 0.455,
      "velocity": 0.71
    },
    {
      "id": "n-00884",
      "pitch": "G3",
      "midi": 55,
      "start": 135.909,
      "duration": 0.455,
      "velocity": 0.71
    },
    {
      "id": "n-00885",
      "pitch": "D#4",
      "midi": 63,
      "start": 135.909,
      "duration": 0.455,
      "velocity": 0.71
    },
    {
      "id": "n-00886",
      "pitch": "A#3",
      "midi": 58,
      "start": 136.364,
      "duration": 0.455,
      "velocity": 0.71
    },
    {
      "id": "n-00887",
      "pitch": "D#4",
      "midi": 63,
      "start": 136.364,
      "duration": 0.455,
      "velocity": 0.71
    },
    {
      "id": "n-00888",
      "pitch": "G4",
      "midi": 67,
      "start": 136.364,
      "duration": 0.455,
      "velocity": 0.71
    },
    {
      "id": "n-00889",
      "pitch": "D#2",
      "midi": 39,
      "start": 136.818,
      "duration": 0.455,
      "velocity": 0.71
    },
    {
      "id": "n-00890",
      "pitch": "D#5",
      "midi": 75,
      "start": 136.818,
      "duration": 1.591,
      "velocity": 0.71
    },
    {
      "id": "n-00891",
      "pitch": "G#3",
      "midi": 56,
      "start": 137.273,
      "duration": 0.455,
      "velocity": 0.71
    },
    {
      "id": "n-00892",
      "pitch": "B3",
      "midi": 59,
      "start": 137.273,
      "duration": 0.455,
      "velocity": 0.71
    },
    {
      "id": "n-00893",
      "pitch": "D#4",
      "midi": 63,
      "start": 137.273,
      "duration": 0.455,
      "velocity": 0.71
    },
    {
      "id": "n-00894",
      "pitch": "B3",
      "midi": 59,
      "start": 137.727,
      "duration": 0.455,
      "velocity": 0.71
    },
    {
      "id": "n-00895",
      "pitch": "D#4",
      "midi": 63,
      "start": 137.727,
      "duration": 0.455,
      "velocity": 0.71
    },
    {
      "id": "n-00896",
      "pitch": "G#4",
      "midi": 68,
      "start": 137.727,
      "duration": 0.455,
      "velocity": 0.71
    },
    {
      "id": "n-00897",
      "pitch": "D#3",
      "midi": 51,
      "start": 138.182,
      "duration": 0.455,
      "velocity": 0.71
    },
    {
      "id": "n-00898",
      "pitch": "F5",
      "midi": 77,
      "start": 138.409,
      "duration": 0.227,
      "velocity": 0.71
    },
    {
      "id": "n-00899",
      "pitch": "G#3",
      "midi": 56,
      "start": 138.636,
      "duration": 0.455,
      "velocity": 0.71
    },
    {
      "id": "n-00900",
      "pitch": "B3",
      "midi": 59,
      "start": 138.636,
      "duration": 0.455,
      "velocity": 0.71
    },
    {
      "id": "n-00901",
      "pitch": "D#4",
      "midi": 63,
      "start": 138.636,
      "duration": 0.455,
      "velocity": 0.71
    },
    {
      "id": "n-00902",
      "pitch": "D#5",
      "midi": 75,
      "start": 138.636,
      "duration": 0.227,
      "velocity": 0.71
    },
    {
      "id": "n-00903",
      "pitch": "F5",
      "midi": 77,
      "start": 138.863,
      "duration": 0.227,
      "velocity": 0.71
    },
    {
      "id": "n-00904",
      "pitch": "B3",
      "midi": 59,
      "start": 139.091,
      "duration": 0.455,
      "velocity": 0.71
    },
    {
      "id": "n-00905",
      "pitch": "D#4",
      "midi": 63,
      "start": 139.091,
      "duration": 0.455,
      "velocity": 0.71
    },
    {
      "id": "n-00906",
      "pitch": "G#4",
      "midi": 68,
      "start": 139.091,
      "duration": 0.455,
      "velocity": 0.71
    },
    {
      "id": "n-00907",
      "pitch": "D#5",
      "midi": 75,
      "start": 139.091,
      "duration": 0.227,
      "velocity": 0.71
    },
    {
      "id": "n-00908",
      "pitch": "F5",
      "midi": 77,
      "start": 139.318,
      "duration": 0.227,
      "velocity": 0.71
    },
    {
      "id": "n-00909",
      "pitch": "D#2",
      "midi": 39,
      "start": 139.545,
      "duration": 0.455,
      "velocity": 0.71
    },
    {
      "id": "n-00910",
      "pitch": "G5",
      "midi": 79,
      "start": 139.545,
      "duration": 0.909,
      "velocity": 0.71
    },
    {
      "id": "n-00911",
      "pitch": "G3",
      "midi": 55,
      "start": 140,
      "duration": 0.455,
      "velocity": 0.71
    },
    {
      "id": "n-00912",
      "pitch": "A#3",
      "midi": 58,
      "start": 140,
      "duration": 0.455,
      "velocity": 0.71
    },
    {
      "id": "n-00913",
      "pitch": "D#4",
      "midi": 63,
      "start": 140,
      "duration": 0.455,
      "velocity": 0.71
    },
    {
      "id": "n-00914",
      "pitch": "A#3",
      "midi": 58,
      "start": 140.454,
      "duration": 0.455,
      "velocity": 0.71
    },
    {
      "id": "n-00915",
      "pitch": "D#4",
      "midi": 63,
      "start": 140.454,
      "duration": 0.455,
      "velocity": 0.71
    },
    {
      "id": "n-00916",
      "pitch": "G4",
      "midi": 67,
      "start": 140.454,
      "duration": 0.455,
      "velocity": 0.71
    },
    {
      "id": "n-00917",
      "pitch": "D#5",
      "midi": 75,
      "start": 140.454,
      "duration": 0.455,
      "velocity": 0.71
    },
    {
      "id": "n-00918",
      "pitch": "D#3",
      "midi": 51,
      "start": 140.909,
      "duration": 0.455,
      "velocity": 0.71
    },
    {
      "id": "n-00919",
      "pitch": "D#6",
      "midi": 87,
      "start": 140.909,
      "duration": 0.455,
      "velocity": 0.71
    },
    {
      "id": "n-00920",
      "pitch": "G3",
      "midi": 55,
      "start": 141.363,
      "duration": 0.455,
      "velocity": 0.71
    },
    {
      "id": "n-00921",
      "pitch": "D#4",
      "midi": 63,
      "start": 141.363,
      "duration": 0.455,
      "velocity": 0.71
    },
    {
      "id": "n-00922",
      "pitch": "D6",
      "midi": 86,
      "start": 141.363,
      "duration": 0.455,
      "velocity": 0.71
    },
    {
      "id": "n-00923",
      "pitch": "A#3",
      "midi": 58,
      "start": 141.818,
      "duration": 0.455,
      "velocity": 0.71
    },
    {
      "id": "n-00924",
      "pitch": "D#4",
      "midi": 63,
      "start": 141.818,
      "duration": 0.455,
      "velocity": 0.71
    },
    {
      "id": "n-00925",
      "pitch": "G4",
      "midi": 67,
      "start": 141.818,
      "duration": 0.455,
      "velocity": 0.71
    },
    {
      "id": "n-00926",
      "pitch": "C6",
      "midi": 84,
      "start": 141.818,
      "duration": 0.455,
      "velocity": 0.71
    },
    {
      "id": "n-00927",
      "pitch": "D#3",
      "midi": 51,
      "start": 142.273,
      "duration": 0.455,
      "velocity": 0.71
    },
    {
      "id": "n-00928",
      "pitch": "A#5",
      "midi": 82,
      "start": 142.273,
      "duration": 0.909,
      "velocity": 0.71
    },
    {
      "id": "n-00929",
      "pitch": "F3",
      "midi": 53,
      "start": 142.727,
      "duration": 0.455,
      "velocity": 0.71
    },
    {
      "id": "n-00930",
      "pitch": "D4",
      "midi": 62,
      "start": 142.727,
      "duration": 0.455,
      "velocity": 0.71
    },
    {
      "id": "n-00931",
      "pitch": "A#3",
      "midi": 58,
      "start": 143.182,
      "duration": 0.455,
      "velocity": 0.71
    },
    {
      "id": "n-00932",
      "pitch": "G#4",
      "midi": 68,
      "start": 143.182,
      "duration": 0.455,
      "velocity": 0.71
    },
    {
      "id": "n-00933",
      "pitch": "A5",
      "midi": 81,
      "start": 143.182,
      "duration": 0.455,
      "velocity": 0.71
    },
    {
      "id": "n-00934",
      "pitch": "D#3",
      "midi": 51,
      "start": 143.636,
      "duration": 0.455,
      "velocity": 0.71
    },
    {
      "id": "n-00935",
      "pitch": "G#5",
      "midi": 80,
      "start": 143.636,
      "duration": 0.455,
      "velocity": 0.71
    },
    {
      "id": "n-00936",
      "pitch": "F3",
      "midi": 53,
      "start": 144.091,
      "duration": 0.455,
      "velocity": 0.71
    },
    {
      "id": "n-00937",
      "pitch": "D4",
      "midi": 62,
      "start": 144.091,
      "duration": 0.455,
      "velocity": 0.71
    },
    {
      "id": "n-00938",
      "pitch": "C5",
      "midi": 72,
      "start": 144.091,
      "duration": 0.455,
      "velocity": 0.71
    },
    {
      "id": "n-00939",
      "pitch": "A#3",
      "midi": 58,
      "start": 144.545,
      "duration": 0.455,
      "velocity": 0.71
    },
    {
      "id": "n-00940",
      "pitch": "G#4",
      "midi": 68,
      "start": 144.545,
      "duration": 0.455,
      "velocity": 0.71
    },
    {
      "id": "n-00941",
      "pitch": "D5",
      "midi": 74,
      "start": 144.545,
      "duration": 0.455,
      "velocity": 0.71
    },
    {
      "id": "n-00942",
      "pitch": "D#3",
      "midi": 51,
      "start": 145,
      "duration": 0.455,
      "velocity": 0.71
    },
    {
      "id": "n-00943",
      "pitch": "D#5",
      "midi": 75,
      "start": 145,
      "duration": 0.455,
      "velocity": 0.71
    },
    {
      "id": "n-00944",
      "pitch": "G3",
      "midi": 55,
      "start": 145.454,
      "duration": 0.455,
      "velocity": 0.71
    },
    {
      "id": "n-00945",
      "pitch": "D#4",
      "midi": 63,
      "start": 145.454,
      "duration": 0.455,
      "velocity": 0.71
    },
    {
      "id": "n-00946",
      "pitch": "F5",
      "midi": 77,
      "start": 145.454,
      "duration": 0.227,
      "velocity": 0.71
    },
    {
      "id": "n-00947",
      "pitch": "D#5",
      "midi": 75,
      "start": 145.682,
      "duration": 0.227,
      "velocity": 0.71
    },
    {
      "id": "n-00948",
      "pitch": "A#3",
      "midi": 58,
      "start": 145.909,
      "duration": 0.455,
      "velocity": 0.71
    },
    {
      "id": "n-00949",
      "pitch": "G4",
      "midi": 67,
      "start": 145.909,
      "duration": 0.455,
      "velocity": 0.71
    },
    {
      "id": "n-00950",
      "pitch": "D5",
      "midi": 74,
      "start": 145.909,
      "duration": 0.227,
      "velocity": 0.71
    },
    {
      "id": "n-00951",
      "pitch": "D#5",
      "midi": 75,
      "start": 146.136,
      "duration": 0.123,
      "velocity": 0.71
    },
    {
      "id": "n-00952",
      "pitch": "D#5",
      "midi": 75,
      "start": 146.259,
      "duration": 0.102,
      "velocity": 0.71
    },
    {
      "id": "n-00953",
      "pitch": "A2",
      "midi": 45,
      "start": 146.363,
      "duration": 0.455,
      "velocity": 0.71
    },
    {
      "id": "n-00954",
      "pitch": "G6",
      "midi": 91,
      "start": 146.363,
      "duration": 0.455,
      "velocity": 0.71
    },
    {
      "id": "n-00955",
      "pitch": "F3",
      "midi": 53,
      "start": 146.818,
      "duration": 0.455,
      "velocity": 0.71
    },
    {
      "id": "n-00956",
      "pitch": "D#4",
      "midi": 63,
      "start": 146.818,
      "duration": 0.455,
      "velocity": 0.71
    },
    {
      "id": "n-00957",
      "pitch": "F6",
      "midi": 89,
      "start": 146.818,
      "duration": 0.227,
      "velocity": 0.71
    },
    {
      "id": "n-00958",
      "pitch": "D#6",
      "midi": 87,
      "start": 147.045,
      "duration": 0.227,
      "velocity": 0.71
    },
    {
      "id": "n-00959",
      "pitch": "C4",
      "midi": 60,
      "start": 147.273,
      "duration": 0.455,
      "velocity": 0.71
    },
    {
      "id": "n-00960",
      "pitch": "D#4",
      "midi": 63,
      "start": 147.273,
      "duration": 0.455,
      "velocity": 0.71
    },
    {
      "id": "n-00961",
      "pitch": "F4",
      "midi": 65,
      "start": 147.273,
      "duration": 0.455,
      "velocity": 0.71
    },
    {
      "id": "n-00962",
      "pitch": "D6",
      "midi": 86,
      "start": 147.273,
      "duration": 0.227,
      "velocity": 0.71
    },
    {
      "id": "n-00963",
      "pitch": "C6",
      "midi": 84,
      "start": 147.5,
      "duration": 0.227,
      "velocity": 0.71
    },
    {
      "id": "n-00964",
      "pitch": "A#2",
      "midi": 46,
      "start": 147.727,
      "duration": 0.455,
      "velocity": 0.71
    },
    {
      "id": "n-00965",
      "pitch": "B5",
      "midi": 83,
      "start": 147.727,
      "duration": 0.455,
      "velocity": 0.71
    },
    {
      "id": "n-00966",
      "pitch": "F3",
      "midi": 53,
      "start": 148.182,
      "duration": 0.455,
      "velocity": 0.71
    },
    {
      "id": "n-00967",
      "pitch": "D#4",
      "midi": 63,
      "start": 148.182,
      "duration": 0.455,
      "velocity": 0.71
    },
    {
      "id": "n-00968",
      "pitch": "A#5",
      "midi": 82,
      "start": 148.182,
      "duration": 0.455,
      "velocity": 0.71
    },
    {
      "id": "n-00969",
      "pitch": "A#3",
      "midi": 58,
      "start": 148.636,
      "duration": 0.455,
      "velocity": 0.71
    },
    {
      "id": "n-00970",
      "pitch": "D#4",
      "midi": 63,
      "start": 148.636,
      "duration": 0.455,
      "velocity": 0.71
    },
    {
      "id": "n-00971",
      "pitch": "G#4",
      "midi": 68,
      "start": 148.636,
      "duration": 0.455,
      "velocity": 0.71
    },
    {
      "id": "n-00972",
      "pitch": "A5",
      "midi": 81,
      "start": 148.636,
      "duration": 0.455,
      "velocity": 0.71
    },
    {
      "id": "n-00973",
      "pitch": "A#1",
      "midi": 34,
      "start": 149.091,
      "duration": 0.455,
      "velocity": 0.71
    },
    {
      "id": "n-00974",
      "pitch": "A5",
      "midi": 81,
      "start": 149.091,
      "duration": 0.227,
      "velocity": 0.71
    },
    {
      "id": "n-00975",
      "pitch": "G#5",
      "midi": 80,
      "start": 149.318,
      "duration": 0.227,
      "velocity": 0.71
    },
    {
      "id": "n-00976",
      "pitch": "F3",
      "midi": 53,
      "start": 149.545,
      "duration": 0.455,
      "velocity": 0.71
    },
    {
      "id": "n-00977",
      "pitch": "D4",
      "midi": 62,
      "start": 149.545,
      "duration": 0.455,
      "velocity": 0.71
    },
    {
      "id": "n-00978",
      "pitch": "G#5",
      "midi": 80,
      "start": 149.545,
      "duration": 0.227,
      "velocity": 0.71
    },
    {
      "id": "n-00979",
      "pitch": "G5",
      "midi": 79,
      "start": 149.773,
      "duration": 0.227,
      "velocity": 0.71
    },
    {
      "id": "n-00980",
      "pitch": "A#3",
      "midi": 58,
      "start": 150,
      "duration": 0.455,
      "velocity": 0.71
    },
    {
      "id": "n-00981",
      "pitch": "D4",
      "midi": 62,
      "start": 150,
      "duration": 0.455,
      "velocity": 0.71
    },
    {
      "id": "n-00982",
      "pitch": "G#4",
      "midi": 68,
      "start": 150,
      "duration": 0.455,
      "velocity": 0.71
    },
    {
      "id": "n-00983",
      "pitch": "G5",
      "midi": 79,
      "start": 150,
      "duration": 0.341,
      "velocity": 0.71
    },
    {
      "id": "n-00984",
      "pitch": "F5",
      "midi": 77,
      "start": 150.341,
      "duration": 0.114,
      "velocity": 0.71
    },
    {
      "id": "n-00985",
      "pitch": "D#2",
      "midi": 39,
      "start": 150.454,
      "duration": 0.455,
      "velocity": 0.71
    },
    {
      "id": "n-00986",
      "pitch": "D#5",
      "midi": 75,
      "start": 150.454,
      "duration": 2.727,
      "velocity": 0.71
    },
    {
      "id": "n-00987",
      "pitch": "G3",
      "midi": 55,
      "start": 150.909,
      "duration": 0.455,
      "velocity": 0.71
    },
    {
      "id": "n-00988",
      "pitch": "D#4",
      "midi": 63,
      "start": 150.909,
      "duration": 0.455,
      "velocity": 0.71
    },
    {
      "id": "n-00989",
      "pitch": "A#3",
      "midi": 58,
      "start": 151.363,
      "duration": 0.455,
      "velocity": 0.71
    },
    {
      "id": "n-00990",
      "pitch": "D#4",
      "midi": 63,
      "start": 151.363,
      "duration": 0.455,
      "velocity": 0.71
    },
    {
      "id": "n-00991",
      "pitch": "G4",
      "midi": 67,
      "start": 151.363,
      "duration": 0.455,
      "velocity": 0.71
    },
    {
      "id": "n-00992",
      "pitch": "D#3",
      "midi": 51,
      "start": 151.818,
      "duration": 0.455,
      "velocity": 0.71
    },
    {
      "id": "n-00993",
      "pitch": "G3",
      "midi": 55,
      "start": 152.273,
      "duration": 0.455,
      "velocity": 0.71
    },
    {
      "id": "n-00994",
      "pitch": "D#4",
      "midi": 63,
      "start": 152.273,
      "duration": 0.455,
      "velocity": 0.71
    },
    {
      "id": "n-00995",
      "pitch": "A#3",
      "midi": 58,
      "start": 152.727,
      "duration": 0.455,
      "velocity": 0.71
    },
    {
      "id": "n-00996",
      "pitch": "D#4",
      "midi": 63,
      "start": 152.727,
      "duration": 0.455,
      "velocity": 0.71
    },
    {
      "id": "n-00997",
      "pitch": "G4",
      "midi": 67,
      "start": 152.727,
      "duration": 0.455,
      "velocity": 0.71
    },
    {
      "id": "n-00998",
      "pitch": "G#1",
      "midi": 32,
      "start": 153.182,
      "duration": 0.455,
      "velocity": 0.71
    },
    {
      "id": "n-00999",
      "pitch": "D#5",
      "midi": 75,
      "start": 153.182,
      "duration": 1.534,
      "velocity": 0.71
    },
    {
      "id": "n-01000",
      "pitch": "D#3",
      "midi": 51,
      "start": 153.636,
      "duration": 0.455,
      "velocity": 0.71
    },
    {
      "id": "n-01001",
      "pitch": "G#3",
      "midi": 56,
      "start": 153.636,
      "duration": 0.455,
      "velocity": 0.71
    },
    {
      "id": "n-01002",
      "pitch": "B3",
      "midi": 59,
      "start": 153.636,
      "duration": 0.455,
      "velocity": 0.71
    },
    {
      "id": "n-01003",
      "pitch": "G#3",
      "midi": 56,
      "start": 154.091,
      "duration": 0.455,
      "velocity": 0.71
    },
    {
      "id": "n-01004",
      "pitch": "B3",
      "midi": 59,
      "start": 154.091,
      "duration": 0.455,
      "velocity": 0.71
    },
    {
      "id": "n-01005",
      "pitch": "D#4",
      "midi": 63,
      "start": 154.091,
      "duration": 0.455,
      "velocity": 0.71
    },
    {
      "id": "n-01006",
      "pitch": "B3",
      "midi": 59,
      "start": 154.545,
      "duration": 0.455,
      "velocity": 0.71
    },
    {
      "id": "n-01007",
      "pitch": "D#4",
      "midi": 63,
      "start": 154.545,
      "duration": 0.455,
      "velocity": 0.71
    },
    {
      "id": "n-01008",
      "pitch": "G#4",
      "midi": 68,
      "start": 154.545,
      "duration": 0.455,
      "velocity": 0.71
    },
    {
      "id": "n-01009",
      "pitch": "F5",
      "midi": 77,
      "start": 154.716,
      "duration": 0.17,
      "velocity": 0.71
    },
    {
      "id": "n-01010",
      "pitch": "D#5",
      "midi": 75,
      "start": 154.886,
      "duration": 0.17,
      "velocity": 0.71
    },
    {
      "id": "n-01011",
      "pitch": "G#3",
      "midi": 56,
      "start": 155,
      "duration": 0.455,
      "velocity": 0.71
    },
    {
      "id": "n-01012",
      "pitch": "B3",
      "midi": 59,
      "start": 155,
      "duration": 0.455,
      "velocity": 0.71
    },
    {
      "id": "n-01013",
      "pitch": "D#4",
      "midi": 63,
      "start": 155,
      "duration": 0.455,
      "velocity": 0.71
    },
    {
      "id": "n-01014",
      "pitch": "F5",
      "midi": 77,
      "start": 155.057,
      "duration": 0.17,
      "velocity": 0.71
    },
    {
      "id": "n-01015",
      "pitch": "D#5",
      "midi": 75,
      "start": 155.227,
      "duration": 0.17,
      "velocity": 0.71
    },
    {
      "id": "n-01016",
      "pitch": "F5",
      "midi": 77,
      "start": 155.398,
      "duration": 0.17,
      "velocity": 0.71
    },
    {
      "id": "n-01017",
      "pitch": "D#3",
      "midi": 51,
      "start": 155.454,
      "duration": 0.455,
      "velocity": 0.71
    },
    {
      "id": "n-01018",
      "pitch": "G#3",
      "midi": 56,
      "start": 155.454,
      "duration": 0.455,
      "velocity": 0.71
    },
    {
      "id": "n-01019",
      "pitch": "B3",
      "midi": 59,
      "start": 155.454,
      "duration": 0.455,
      "velocity": 0.71
    },
    {
      "id": "n-01020",
      "pitch": "D#5",
      "midi": 75,
      "start": 155.568,
      "duration": 0.17,
      "velocity": 0.71
    },
    {
      "id": "n-01021",
      "pitch": "F5",
      "midi": 77,
      "start": 155.738,
      "duration": 0.17,
      "velocity": 0.71
    },
    {
      "id": "n-01022",
      "pitch": "D#2",
      "midi": 39,
      "start": 155.909,
      "duration": 0.455,
      "velocity": 0.71
    },
    {
      "id": "n-01023",
      "pitch": "G5",
      "midi": 79,
      "start": 155.909,
      "duration": 1.364,
      "velocity": 0.71
    },
    {
      "id": "n-01024",
      "pitch": "G3",
      "midi": 55,
      "start": 156.363,
      "duration": 0.455,
      "velocity": 0.71
    },
    {
      "id": "n-01025",
      "pitch": "D#4",
      "midi": 63,
      "start": 156.363,
      "duration": 0.455,
      "velocity": 0.71
    },
    {
      "id": "n-01026",
      "pitch": "A#3",
      "midi": 58,
      "start": 156.818,
      "duration": 0.455,
      "velocity": 0.71
    },
    {
      "id": "n-01027",
      "pitch": "D#4",
      "midi": 63,
      "start": 156.818,
      "duration": 0.455,
      "velocity": 0.71
    },
    {
      "id": "n-01028",
      "pitch": "G4",
      "midi": 67,
      "start": 156.818,
      "duration": 0.455,
      "velocity": 0.71
    },
    {
      "id": "n-01029",
      "pitch": "D#3",
      "midi": 51,
      "start": 157.273,
      "duration": 0.455,
      "velocity": 0.71
    },
    {
      "id": "n-01030",
      "pitch": "G3",
      "midi": 55,
      "start": 157.727,
      "duration": 0.455,
      "velocity": 0.71
    },
    {
      "id": "n-01031",
      "pitch": "D#4",
      "midi": 63,
      "start": 157.727,
      "duration": 0.455,
      "velocity": 0.71
    },
    {
      "id": "n-01032",
      "pitch": "A#3",
      "midi": 58,
      "start": 158.182,
      "duration": 0.455,
      "velocity": 0.71
    },
    {
      "id": "n-01033",
      "pitch": "D#4",
      "midi": 63,
      "start": 158.182,
      "duration": 0.455,
      "velocity": 0.71
    },
    {
      "id": "n-01034",
      "pitch": "G4",
      "midi": 67,
      "start": 158.182,
      "duration": 0.455,
      "velocity": 0.71
    },
    {
      "id": "n-01035",
      "pitch": "G#1",
      "midi": 32,
      "start": 158.636,
      "duration": 0.455,
      "velocity": 0.71
    },
    {
      "id": "n-01036",
      "pitch": "D#5",
      "midi": 75,
      "start": 158.636,
      "duration": 0.455,
      "velocity": 0.71
    },
    {
      "id": "n-01037",
      "pitch": "D#3",
      "midi": 51,
      "start": 159.091,
      "duration": 0.455,
      "velocity": 0.71
    },
    {
      "id": "n-01038",
      "pitch": "G#3",
      "midi": 56,
      "start": 159.091,
      "duration": 0.455,
      "velocity": 0.71
    },
    {
      "id": "n-01039",
      "pitch": "B3",
      "midi": 59,
      "start": 159.091,
      "duration": 0.455,
      "velocity": 0.71
    },
    {
      "id": "n-01040",
      "pitch": "G#4",
      "midi": 68,
      "start": 159.091,
      "duration": 0.227,
      "velocity": 0.71
    },
    {
      "id": "n-01041",
      "pitch": "A#4",
      "midi": 70,
      "start": 159.318,
      "duration": 0.227,
      "velocity": 0.71
    },
    {
      "id": "n-01042",
      "pitch": "G#3",
      "midi": 56,
      "start": 159.545,
      "duration": 0.455,
      "velocity": 0.71
    },
    {
      "id": "n-01043",
      "pitch": "B3",
      "midi": 59,
      "start": 159.545,
      "duration": 0.455,
      "velocity": 0.71
    },
    {
      "id": "n-01044",
      "pitch": "D#4",
      "midi": 63,
      "start": 159.545,
      "duration": 0.455,
      "velocity": 0.71
    },
    {
      "id": "n-01045",
      "pitch": "G#4",
      "midi": 68,
      "start": 159.545,
      "duration": 0.227,
      "velocity": 0.71
    },
    {
      "id": "n-01046",
      "pitch": "G4",
      "midi": 67,
      "start": 159.773,
      "duration": 0.227,
      "velocity": 0.71
    },
    {
      "id": "n-01047",
      "pitch": "D#3",
      "midi": 51,
      "start": 160,
      "duration": 0.455,
      "velocity": 0.71
    },
    {
      "id": "n-01048",
      "pitch": "G#3",
      "midi": 56,
      "start": 160,
      "duration": 0.455,
      "velocity": 0.71
    },
    {
      "id": "n-01049",
      "pitch": "B3",
      "midi": 59,
      "start": 160,
      "duration": 0.455,
      "velocity": 0.71
    },
    {
      "id": "n-01050",
      "pitch": "G#4",
      "midi": 68,
      "start": 160,
      "duration": 0.227,
      "velocity": 0.71
    },
    {
      "id": "n-01051",
      "pitch": "B4",
      "midi": 71,
      "start": 160.227,
      "duration": 0.227,
      "velocity": 0.71
    },
    {
      "id": "n-01052",
      "pitch": "G#3",
      "midi": 56,
      "start": 160.454,
      "duration": 0.455,
      "velocity": 0.71
    },
    {
      "id": "n-01053",
      "pitch": "B3",
      "midi": 59,
      "start": 160.454,
      "duration": 0.455,
      "velocity": 0.71
    },
    {
      "id": "n-01054",
      "pitch": "D#4",
      "midi": 63,
      "start": 160.454,
      "duration": 0.455,
      "velocity": 0.71
    },
    {
      "id": "n-01055",
      "pitch": "D#5",
      "midi": 75,
      "start": 160.454,
      "duration": 0.227,
      "velocity": 0.71
    },
    {
      "id": "n-01056",
      "pitch": "G#5",
      "midi": 80,
      "start": 160.682,
      "duration": 0.227,
      "velocity": 0.71
    },
    {
      "id": "n-01057",
      "pitch": "D#3",
      "midi": 51,
      "start": 160.909,
      "duration": 0.455,
      "velocity": 0.71
    },
    {
      "id": "n-01058",
      "pitch": "G#3",
      "midi": 56,
      "start": 160.909,
      "duration": 0.455,
      "velocity": 0.71
    },
    {
      "id": "n-01059",
      "pitch": "B3",
      "midi": 59,
      "start": 160.909,
      "duration": 0.455,
      "velocity": 0.71
    },
    {
      "id": "n-01060",
      "pitch": "D#6",
      "midi": 87,
      "start": 160.909,
      "duration": 0.227,
      "velocity": 0.71
    },
    {
      "id": "n-01061",
      "pitch": "F6",
      "midi": 89,
      "start": 161.25,
      "duration": 0.114,
      "velocity": 0.71
    },
    {
      "id": "n-01062",
      "pitch": "D#2",
      "midi": 39,
      "start": 161.363,
      "duration": 0.455,
      "velocity": 0.71
    },
    {
      "id": "n-01063",
      "pitch": "G6",
      "midi": 91,
      "start": 161.363,
      "duration": 0.455,
      "velocity": 0.71
    },
    {
      "id": "n-01064",
      "pitch": "G3",
      "midi": 55,
      "start": 161.818,
      "duration": 0.455,
      "velocity": 0.71
    },
    {
      "id": "n-01065",
      "pitch": "D#4",
      "midi": 63,
      "start": 161.818,
      "duration": 0.455,
      "velocity": 0.71
    },
    {
      "id": "n-01066",
      "pitch": "D#6",
      "midi": 87,
      "start": 161.818,
      "duration": 0.455,
      "velocity": 0.71
    },
    {
      "id": "n-01067",
      "pitch": "A#3",
      "midi": 58,
      "start": 162.273,
      "duration": 0.455,
      "velocity": 0.71
    },
    {
      "id": "n-01068",
      "pitch": "D#4",
      "midi": 63,
      "start": 162.273,
      "duration": 0.455,
      "velocity": 0.71
    },
    {
      "id": "n-01069",
      "pitch": "G4",
      "midi": 67,
      "start": 162.273,
      "duration": 0.455,
      "velocity": 0.71
    },
    {
      "id": "n-01070",
      "pitch": "D#6",
      "midi": 87,
      "start": 162.273,
      "duration": 0.909,
      "velocity": 0.71
    },
    {
      "id": "n-01071",
      "pitch": "D#7",
      "midi": 99,
      "start": 162.273,
      "duration": 0.909,
      "velocity": 0.71
    },
    {
      "id": "n-01072",
      "pitch": "A2",
      "midi": 45,
      "start": 162.727,
      "duration": 0.455,
      "velocity": 0.71
    },
    {
      "id": "n-01073",
      "pitch": "F3",
      "midi": 53,
      "start": 163.182,
      "duration": 0.455,
      "velocity": 0.71
    },
    {
      "id": "n-01074",
      "pitch": "D#4",
      "midi": 63,
      "start": 163.182,
      "duration": 0.455,
      "velocity": 0.71
    },
    {
      "id": "n-01075",
      "pitch": "D6",
      "midi": 86,
      "start": 163.182,
      "duration": 0.455,
      "velocity": 0.71
    },
    {
      "id": "n-01076",
      "pitch": "D7",
      "midi": 98,
      "start": 163.182,
      "duration": 0.455,
      "velocity": 0.71
    },
    {
      "id": "n-01077",
      "pitch": "B3",
      "midi": 59,
      "start": 163.636,
      "duration": 0.455,
      "velocity": 0.71
    },
    {
      "id": "n-01078",
      "pitch": "D#4",
      "midi": 63,
      "start": 163.636,
      "duration": 0.455,
      "velocity": 0.71
    },
    {
      "id": "n-01079",
      "pitch": "F4",
      "midi": 65,
      "start": 163.636,
      "duration": 0.455,
      "velocity": 0.71
    },
    {
      "id": "n-01080",
      "pitch": "C6",
      "midi": 84,
      "start": 163.636,
      "duration": 0.455,
      "velocity": 0.71
    },
    {
      "id": "n-01081",
      "pitch": "C7",
      "midi": 96,
      "start": 163.636,
      "duration": 0.455,
      "velocity": 0.71
    },
    {
      "id": "n-01082",
      "pitch": "A#2",
      "midi": 46,
      "start": 164.091,
      "duration": 0.455,
      "velocity": 0.71
    },
    {
      "id": "n-01083",
      "pitch": "B5",
      "midi": 83,
      "start": 164.091,
      "duration": 0.455,
      "velocity": 0.71
    },
    {
      "id": "n-01084",
      "pitch": "B6",
      "midi": 95,
      "start": 164.091,
      "duration": 0.455,
      "velocity": 0.71
    },
    {
      "id": "n-01085",
      "pitch": "F3",
      "midi": 53,
      "start": 164.545,
      "duration": 0.455,
      "velocity": 0.71
    },
    {
      "id": "n-01086",
      "pitch": "A#3",
      "midi": 58,
      "start": 164.545,
      "duration": 0.455,
      "velocity": 0.71
    },
    {
      "id": "n-01087",
      "pitch": "D#4",
      "midi": 63,
      "start": 164.545,
      "duration": 0.455,
      "velocity": 0.71
    },
    {
      "id": "n-01088",
      "pitch": "A#5",
      "midi": 82,
      "start": 164.545,
      "duration": 0.455,
      "velocity": 0.71
    },
    {
      "id": "n-01089",
      "pitch": "A#6",
      "midi": 94,
      "start": 164.545,
      "duration": 0.455,
      "velocity": 0.71
    },
    {
      "id": "n-01090",
      "pitch": "A#3",
      "midi": 58,
      "start": 165,
      "duration": 0.455,
      "velocity": 0.71
    },
    {
      "id": "n-01091",
      "pitch": "D#4",
      "midi": 63,
      "start": 165,
      "duration": 0.455,
      "velocity": 0.71
    },
    {
      "id": "n-01092",
      "pitch": "G#4",
      "midi": 68,
      "start": 165,
      "duration": 0.455,
      "velocity": 0.71
    },
    {
      "id": "n-01093",
      "pitch": "A5",
      "midi": 81,
      "start": 165,
      "duration": 0.455,
      "velocity": 0.71
    },
    {
      "id": "n-01094",
      "pitch": "A6",
      "midi": 93,
      "start": 165,
      "duration": 0.455,
      "velocity": 0.71
    },
    {
      "id": "n-01095",
      "pitch": "B2",
      "midi": 47,
      "start": 165.454,
      "duration": 0.455,
      "velocity": 0.71
    },
    {
      "id": "n-01096",
      "pitch": "G#5",
      "midi": 80,
      "start": 165.454,
      "duration": 0.455,
      "velocity": 0.71
    },
    {
      "id": "n-01097",
      "pitch": "G#6",
      "midi": 92,
      "start": 165.454,
      "duration": 0.455,
      "velocity": 0.71
    },
    {
      "id": "n-01098",
      "pitch": "G3",
      "midi": 55,
      "start": 165.909,
      "duration": 0.455,
      "velocity": 0.71
    },
    {
      "id": "n-01099",
      "pitch": "F4",
      "midi": 65,
      "start": 165.909,
      "duration": 0.455,
      "velocity": 0.71
    },
    {
      "id": "n-01100",
      "pitch": "G5",
      "midi": 79,
      "start": 165.909,
      "duration": 0.455,
      "velocity": 0.71
    },
    {
      "id": "n-01101",
      "pitch": "G6",
      "midi": 91,
      "start": 165.909,
      "duration": 0.455,
      "velocity": 0.71
    },
    {
      "id": "n-01102",
      "pitch": "D4",
      "midi": 62,
      "start": 166.363,
      "duration": 0.455,
      "velocity": 0.71
    },
    {
      "id": "n-01103",
      "pitch": "F4",
      "midi": 65,
      "start": 166.363,
      "duration": 0.455,
      "velocity": 0.71
    },
    {
      "id": "n-01104",
      "pitch": "G4",
      "midi": 67,
      "start": 166.363,
      "duration": 0.455,
      "velocity": 0.71
    },
    {
      "id": "n-01105",
      "pitch": "D5",
      "midi": 74,
      "start": 166.363,
      "duration": 0.455,
      "velocity": 0.71
    },
    {
      "id": "n-01106",
      "pitch": "D6",
      "midi": 86,
      "start": 166.363,
      "duration": 0.455,
      "velocity": 0.71
    },
    {
      "id": "n-01107",
      "pitch": "C3",
      "midi": 48,
      "start": 166.818,
      "duration": 0.455,
      "velocity": 0.71
    },
    {
      "id": "n-01108",
      "pitch": "D#5",
      "midi": 75,
      "start": 166.818,
      "duration": 0.455,
      "velocity": 0.71
    },
    {
      "id": "n-01109",
      "pitch": "D#6",
      "midi": 87,
      "start": 166.818,
      "duration": 0.455,
      "velocity": 0.71
    },
    {
      "id": "n-01110",
      "pitch": "G3",
      "midi": 55,
      "start": 167.273,
      "duration": 0.455,
      "velocity": 0.71
    },
    {
      "id": "n-01111",
      "pitch": "D#4",
      "midi": 63,
      "start": 167.273,
      "duration": 0.455,
      "velocity": 0.71
    },
    {
      "id": "n-01112",
      "pitch": "D#6",
      "midi": 87,
      "start": 167.273,
      "duration": 1.364,
      "velocity": 0.71
    },
    {
      "id": "n-01113",
      "pitch": "D#7",
      "midi": 99,
      "start": 167.273,
      "duration": 1.364,
      "velocity": 0.71
    },
    {
      "id": "n-01114",
      "pitch": "C4",
      "midi": 60,
      "start": 167.727,
      "duration": 0.455,
      "velocity": 0.71
    },
    {
      "id": "n-01115",
      "pitch": "G4",
      "midi": 67,
      "start": 167.727,
      "duration": 0.455,
      "velocity": 0.71
    },
    {
      "id": "n-01116",
      "pitch": "A2",
      "midi": 45,
      "start": 168.182,
      "duration": 0.455,
      "velocity": 0.71
    },
    {
      "id": "n-01117",
      "pitch": "F3",
      "midi": 53,
      "start": 168.636,
      "duration": 0.909,
      "velocity": 0.71
    },
    {
      "id": "n-01118",
      "pitch": "C4",
      "midi": 60,
      "start": 168.636,
      "duration": 0.455,
      "velocity": 0.71
    },
    {
      "id": "n-01119",
      "pitch": "D#4",
      "midi": 63,
      "start": 168.636,
      "duration": 0.455,
      "velocity": 0.71
    },
    {
      "id": "n-01120",
      "pitch": "F5",
      "midi": 77,
      "start": 168.636,
      "duration": 0.455,
      "velocity": 0.71
    },
    {
      "id": "n-01121",
      "pitch": "F6",
      "midi": 89,
      "start": 168.636,
      "duration": 0.455,
      "velocity": 0.71
    },
    {
      "id": "n-01122",
      "pitch": "C4",
      "midi": 60,
      "start": 169.091,
      "duration": 0.455,
      "velocity": 0.71
    },
    {
      "id": "n-01123",
      "pitch": "D#4",
      "midi": 63,
      "start": 169.091,
      "duration": 0.455,
      "velocity": 0.71
    },
    {
      "id": "n-01124",
      "pitch": "F4",
      "midi": 65,
      "start": 169.091,
      "duration": 0.455,
      "velocity": 0.71
    },
    {
      "id": "n-01125",
      "pitch": "C6",
      "midi": 84,
      "start": 169.091,
      "duration": 0.455,
      "velocity": 0.71
    },
    {
      "id": "n-01126",
      "pitch": "C7",
      "midi": 96,
      "start": 169.091,
      "duration": 0.455,
      "velocity": 0.71
    },
    {
      "id": "n-01127",
      "pitch": "A#1",
      "midi": 34,
      "start": 169.545,
      "duration": 0.455,
      "velocity": 0.71
    },
    {
      "id": "n-01128",
      "pitch": "B5",
      "midi": 83,
      "start": 169.545,
      "duration": 2.727,
      "velocity": 0.71
    },
    {
      "id": "n-01129",
      "pitch": "B6",
      "midi": 95,
      "start": 169.545,
      "duration": 2.727,
      "velocity": 0.71
    },
    {
      "id": "n-01130",
      "pitch": "A#2",
      "midi": 46,
      "start": 170,
      "duration": 0.455,
      "velocity": 0.71
    },
    {
      "id": "n-01131",
      "pitch": "F3",
      "midi": 53,
      "start": 170.454,
      "duration": 0.455,
      "velocity": 0.71
    },
    {
      "id": "n-01132",
      "pitch": "G#3",
      "midi": 56,
      "start": 170.909,
      "duration": 0.455,
      "velocity": 0.71
    },
    {
      "id": "n-01133",
      "pitch": "D4",
      "midi": 62,
      "start": 171.363,
      "duration": 0.455,
      "velocity": 0.71
    },
    {
      "id": "n-01134",
      "pitch": "A#3",
      "midi": 58,
      "start": 171.818,
      "duration": 0.455,
      "velocity": 0.71
    },
    {
      "id": "n-01135",
      "pitch": "F4",
      "midi": 65,
      "start": 172.273,
      "duration": 0.455,
      "velocity": 0.71
    },
    {
      "id": "n-01136",
      "pitch": "G#4",
      "midi": 68,
      "start": 172.727,
      "duration": 0.455,
      "velocity": 0.71
    },
    {
      "id": "n-01137",
      "pitch": "D5",
      "midi": 74,
      "start": 173.182,
      "duration": 2.727,
      "velocity": 0.71
    },
    {
      "id": "n-01138",
      "pitch": "A#5",
      "midi": 82,
      "start": 173.182,
      "duration": 2.727,
      "velocity": 0.71
    },
    {
      "id": "n-01139",
      "pitch": "A#6",
      "midi": 94,
      "start": 173.182,
      "duration": 2.727,
      "velocity": 0.71
    },
    {
      "id": "n-01140",
      "pitch": "B6",
      "midi": 95,
      "start": 175.909,
      "duration": 0.227,
      "velocity": 0.71
    },
    {
      "id": "n-01141",
      "pitch": "A#6",
      "midi": 94,
      "start": 176.136,
      "duration": 0.227,
      "velocity": 0.71
    },
    {
      "id": "n-01142",
      "pitch": "C7",
      "midi": 96,
      "start": 176.363,
      "duration": 0.227,
      "velocity": 0.71
    },
    {
      "id": "n-01143",
      "pitch": "A6",
      "midi": 93,
      "start": 176.591,
      "duration": 0.227,
      "velocity": 0.71
    },
    {
      "id": "n-01144",
      "pitch": "B6",
      "midi": 95,
      "start": 176.818,
      "duration": 0.227,
      "velocity": 0.71
    },
    {
      "id": "n-01145",
      "pitch": "A#6",
      "midi": 94,
      "start": 177.045,
      "duration": 0.227,
      "velocity": 0.71
    },
    {
      "id": "n-01146",
      "pitch": "C7",
      "midi": 96,
      "start": 177.273,
      "duration": 0.227,
      "velocity": 0.71
    },
    {
      "id": "n-01147",
      "pitch": "A6",
      "midi": 93,
      "start": 177.5,
      "duration": 0.227,
      "velocity": 0.71
    },
    {
      "id": "n-01148",
      "pitch": "B6",
      "midi": 95,
      "start": 177.727,
      "duration": 0.227,
      "velocity": 0.71
    },
    {
      "id": "n-01149",
      "pitch": "A#6",
      "midi": 94,
      "start": 177.954,
      "duration": 0.227,
      "velocity": 0.71
    },
    {
      "id": "n-01150",
      "pitch": "C7",
      "midi": 96,
      "start": 178.182,
      "duration": 0.227,
      "velocity": 0.71
    },
    {
      "id": "n-01151",
      "pitch": "A6",
      "midi": 93,
      "start": 178.409,
      "duration": 0.227,
      "velocity": 0.71
    },
    {
      "id": "n-01152",
      "pitch": "B6",
      "midi": 95,
      "start": 178.636,
      "duration": 0.227,
      "velocity": 0.71
    },
    {
      "id": "n-01153",
      "pitch": "A#6",
      "midi": 94,
      "start": 178.863,
      "duration": 0.227,
      "velocity": 0.71
    },
    {
      "id": "n-01154",
      "pitch": "C7",
      "midi": 96,
      "start": 179.091,
      "duration": 0.227,
      "velocity": 0.71
    },
    {
      "id": "n-01155",
      "pitch": "A6",
      "midi": 93,
      "start": 179.318,
      "duration": 0.227,
      "velocity": 0.71
    },
    {
      "id": "n-01156",
      "pitch": "B6",
      "midi": 95,
      "start": 179.545,
      "duration": 0.227,
      "velocity": 0.71
    },
    {
      "id": "n-01157",
      "pitch": "A#6",
      "midi": 94,
      "start": 179.773,
      "duration": 0.227,
      "velocity": 0.71
    },
    {
      "id": "n-01158",
      "pitch": "C7",
      "midi": 96,
      "start": 180,
      "duration": 0.227,
      "velocity": 0.71
    },
    {
      "id": "n-01159",
      "pitch": "A6",
      "midi": 93,
      "start": 180.227,
      "duration": 0.227,
      "velocity": 0.71
    },
    {
      "id": "n-01160",
      "pitch": "B6",
      "midi": 95,
      "start": 180.454,
      "duration": 0.227,
      "velocity": 0.71
    },
    {
      "id": "n-01161",
      "pitch": "A#6",
      "midi": 94,
      "start": 180.682,
      "duration": 0.227,
      "velocity": 0.71
    },
    {
      "id": "n-01162",
      "pitch": "C7",
      "midi": 96,
      "start": 180.909,
      "duration": 0.227,
      "velocity": 0.71
    },
    {
      "id": "n-01163",
      "pitch": "A6",
      "midi": 93,
      "start": 181.136,
      "duration": 0.227,
      "velocity": 0.71
    },
    {
      "id": "n-01164",
      "pitch": "B6",
      "midi": 95,
      "start": 181.363,
      "duration": 0.227,
      "velocity": 0.71
    },
    {
      "id": "n-01165",
      "pitch": "A#6",
      "midi": 94,
      "start": 181.591,
      "duration": 0.227,
      "velocity": 0.71
    },
    {
      "id": "n-01166",
      "pitch": "C7",
      "midi": 96,
      "start": 181.818,
      "duration": 0.227,
      "velocity": 0.71
    },
    {
      "id": "n-01167",
      "pitch": "A6",
      "midi": 93,
      "start": 182.045,
      "duration": 0.227,
      "velocity": 0.71
    },
    {
      "id": "n-01168",
      "pitch": "B6",
      "midi": 95,
      "start": 182.273,
      "duration": 0.227,
      "velocity": 0.71
    },
    {
      "id": "n-01169",
      "pitch": "A#6",
      "midi": 94,
      "start": 182.5,
      "duration": 0.227,
      "velocity": 0.71
    },
    {
      "id": "n-01170",
      "pitch": "C7",
      "midi": 96,
      "start": 182.727,
      "duration": 0.227,
      "velocity": 0.71
    },
    {
      "id": "n-01171",
      "pitch": "A6",
      "midi": 93,
      "start": 182.954,
      "duration": 0.227,
      "velocity": 0.71
    },
    {
      "id": "n-01172",
      "pitch": "B6",
      "midi": 95,
      "start": 183.182,
      "duration": 0.227,
      "velocity": 0.71
    },
    {
      "id": "n-01173",
      "pitch": "A#6",
      "midi": 94,
      "start": 183.409,
      "duration": 0.227,
      "velocity": 0.71
    },
    {
      "id": "n-01174",
      "pitch": "C7",
      "midi": 96,
      "start": 183.636,
      "duration": 0.227,
      "velocity": 0.71
    },
    {
      "id": "n-01175",
      "pitch": "A6",
      "midi": 93,
      "start": 183.863,
      "duration": 0.227,
      "velocity": 0.71
    },
    {
      "id": "n-01176",
      "pitch": "B6",
      "midi": 95,
      "start": 184.091,
      "duration": 0.227,
      "velocity": 0.71
    },
    {
      "id": "n-01177",
      "pitch": "A#6",
      "midi": 94,
      "start": 184.318,
      "duration": 0.227,
      "velocity": 0.71
    },
    {
      "id": "n-01178",
      "pitch": "C7",
      "midi": 96,
      "start": 184.545,
      "duration": 0.227,
      "velocity": 0.71
    },
    {
      "id": "n-01179",
      "pitch": "A6",
      "midi": 93,
      "start": 184.773,
      "duration": 0.227,
      "velocity": 0.71
    },
    {
      "id": "n-01180",
      "pitch": "B6",
      "midi": 95,
      "start": 185,
      "duration": 0.227,
      "velocity": 0.71
    },
    {
      "id": "n-01181",
      "pitch": "A#6",
      "midi": 94,
      "start": 185.227,
      "duration": 0.227,
      "velocity": 0.71
    },
    {
      "id": "n-01182",
      "pitch": "C7",
      "midi": 96,
      "start": 185.454,
      "duration": 0.227,
      "velocity": 0.71
    },
    {
      "id": "n-01183",
      "pitch": "A6",
      "midi": 93,
      "start": 185.682,
      "duration": 0.227,
      "velocity": 0.71
    },
    {
      "id": "n-01184",
      "pitch": "B6",
      "midi": 95,
      "start": 185.909,
      "duration": 0.227,
      "velocity": 0.71
    },
    {
      "id": "n-01185",
      "pitch": "A#6",
      "midi": 94,
      "start": 186.136,
      "duration": 0.227,
      "velocity": 0.71
    },
    {
      "id": "n-01186",
      "pitch": "C7",
      "midi": 96,
      "start": 186.363,
      "duration": 0.227,
      "velocity": 0.71
    },
    {
      "id": "n-01187",
      "pitch": "A6",
      "midi": 93,
      "start": 186.591,
      "duration": 0.227,
      "velocity": 0.71
    },
    {
      "id": "n-01188",
      "pitch": "B6",
      "midi": 95,
      "start": 186.818,
      "duration": 0.227,
      "velocity": 0.71
    },
    {
      "id": "n-01189",
      "pitch": "A#6",
      "midi": 94,
      "start": 187.045,
      "duration": 0.227,
      "velocity": 0.71
    },
    {
      "id": "n-01190",
      "pitch": "D7",
      "midi": 98,
      "start": 187.273,
      "duration": 0.227,
      "velocity": 0.71
    },
    {
      "id": "n-01191",
      "pitch": "C7",
      "midi": 96,
      "start": 187.5,
      "duration": 0.227,
      "velocity": 0.71
    },
    {
      "id": "n-01192",
      "pitch": "A#6",
      "midi": 94,
      "start": 187.727,
      "duration": 0.227,
      "velocity": 0.71
    },
    {
      "id": "n-01193",
      "pitch": "A6",
      "midi": 93,
      "start": 187.954,
      "duration": 0.227,
      "velocity": 0.71
    },
    {
      "id": "n-01194",
      "pitch": "G#6",
      "midi": 92,
      "start": 188.182,
      "duration": 0.227,
      "velocity": 0.71
    },
    {
      "id": "n-01195",
      "pitch": "G6",
      "midi": 91,
      "start": 188.409,
      "duration": 0.227,
      "velocity": 0.71
    },
    {
      "id": "n-01196",
      "pitch": "F6",
      "midi": 89,
      "start": 188.636,
      "duration": 0.227,
      "velocity": 0.71
    },
    {
      "id": "n-01197",
      "pitch": "D6",
      "midi": 86,
      "start": 188.863,
      "duration": 0.227,
      "velocity": 0.71
    },
    {
      "id": "n-01198",
      "pitch": "D#6",
      "midi": 87,
      "start": 189.091,
      "duration": 0.227,
      "velocity": 0.71
    },
    {
      "id": "n-01199",
      "pitch": "B5",
      "midi": 83,
      "start": 189.318,
      "duration": 0.227,
      "velocity": 0.71
    },
    {
      "id": "n-01200",
      "pitch": "A#5",
      "midi": 82,
      "start": 189.545,
      "duration": 0.455,
      "velocity": 0.71
    },
    {
      "id": "n-01201",
      "pitch": "G#5",
      "midi": 80,
      "start": 190,
      "duration": 0.455,
      "velocity": 0.71
    },
    {
      "id": "n-01202",
      "pitch": "C5",
      "midi": 72,
      "start": 190.454,
      "duration": 0.455,
      "velocity": 0.71
    },
    {
      "id": "n-01203",
      "pitch": "D5",
      "midi": 74,
      "start": 190.909,
      "duration": 0.455,
      "velocity": 0.71
    },
    {
      "id": "n-01204",
      "pitch": "D#2",
      "midi": 39,
      "start": 191.363,
      "duration": 0.455,
      "velocity": 0.71
    },
    {
      "id": "n-01205",
      "pitch": "G4",
      "midi": 67,
      "start": 191.363,
      "duration": 0.455,
      "velocity": 0.71
    },
    {
      "id": "n-01206",
      "pitch": "D#5",
      "midi": 75,
      "start": 191.363,
      "duration": 0.455,
      "velocity": 0.71
    },
    {
      "id": "n-01207",
      "pitch": "A#3",
      "midi": 58,
      "start": 191.818,
      "duration": 0.909,
      "velocity": 0.71
    },
    {
      "id": "n-01208",
      "pitch": "A#4",
      "midi": 70,
      "start": 191.818,
      "duration": 0.455,
      "velocity": 0.71
    },
    {
      "id": "n-01209",
      "pitch": "A#2",
      "midi": 46,
      "start": 192.273,
      "duration": 0.455,
      "velocity": 0.71
    },
    {
      "id": "n-01210",
      "pitch": "G5",
      "midi": 79,
      "start": 192.273,
      "duration": 0.455,
      "velocity": 0.71
    },
    {
      "id": "n-01211",
      "pitch": "D#3",
      "midi": 51,
      "start": 192.727,
      "duration": 0.455,
      "velocity": 0.71
    },
    {
      "id": "n-01212",
      "pitch": "G4",
      "midi": 67,
      "start": 192.727,
      "duration": 0.455,
      "velocity": 0.71
    },
    {
      "id": "n-01213",
      "pitch": "D#5",
      "midi": 75,
      "start": 192.727,
      "duration": 0.455,
      "velocity": 0.71
    },
    {
      "id": "n-01214",
      "pitch": "A#3",
      "midi": 58,
      "start": 193.182,
      "duration": 0.909,
      "velocity": 0.71
    },
    {
      "id": "n-01215",
      "pitch": "A#4",
      "midi": 70,
      "start": 193.182,
      "duration": 0.455,
      "velocity": 0.71
    },
    {
      "id": "n-01216",
      "pitch": "A#2",
      "midi": 46,
      "start": 193.636,
      "duration": 0.455,
      "velocity": 0.71
    },
    {
      "id": "n-01217",
      "pitch": "G5",
      "midi": 79,
      "start": 193.636,
      "duration": 0.455,
      "velocity": 0.71
    },
    {
      "id": "n-01218",
      "pitch": "D#2",
      "midi": 39,
      "start": 194.091,
      "duration": 0.455,
      "velocity": 0.71
    },
    {
      "id": "n-01219",
      "pitch": "G4",
      "midi": 67,
      "start": 194.091,
      "duration": 0.455,
      "velocity": 0.71
    },
    {
      "id": "n-01220",
      "pitch": "D#5",
      "midi": 75,
      "start": 194.091,
      "duration": 0.455,
      "velocity": 0.71
    },
    {
      "id": "n-01221",
      "pitch": "A#3",
      "midi": 58,
      "start": 194.545,
      "duration": 0.909,
      "velocity": 0.71
    },
    {
      "id": "n-01222",
      "pitch": "A#4",
      "midi": 70,
      "start": 194.545,
      "duration": 0.455,
      "velocity": 0.71
    },
    {
      "id": "n-01223",
      "pitch": "A#2",
      "midi": 46,
      "start": 195,
      "duration": 0.455,
      "velocity": 0.71
    },
    {
      "id": "n-01224",
      "pitch": "G5",
      "midi": 79,
      "start": 195,
      "duration": 0.455,
      "velocity": 0.71
    },
    {
      "id": "n-01225",
      "pitch": "D#3",
      "midi": 51,
      "start": 195.454,
      "duration": 0.455,
      "velocity": 0.71
    },
    {
      "id": "n-01226",
      "pitch": "G4",
      "midi": 67,
      "start": 195.454,
      "duration": 0.455,
      "velocity": 0.71
    },
    {
      "id": "n-01227",
      "pitch": "D#5",
      "midi": 75,
      "start": 195.454,
      "duration": 0.455,
      "velocity": 0.71
    },
    {
      "id": "n-01228",
      "pitch": "A#3",
      "midi": 58,
      "start": 195.909,
      "duration": 2.273,
      "velocity": 0.71
    },
    {
      "id": "n-01229",
      "pitch": "A#4",
      "midi": 70,
      "start": 195.909,
      "duration": 0.455,
      "velocity": 0.71
    },
    {
      "id": "n-01230",
      "pitch": "A#2",
      "midi": 46,
      "start": 196.363,
      "duration": 0.455,
      "velocity": 0.71
    },
    {
      "id": "n-01231",
      "pitch": "G5",
      "midi": 79,
      "start": 196.363,
      "duration": 0.455,
      "velocity": 0.71
    },
    {
      "id": "n-01232",
      "pitch": "D#3",
      "midi": 51,
      "start": 196.818,
      "duration": 1.364,
      "velocity": 0.71
    },
    {
      "id": "n-01233",
      "pitch": "G4",
      "midi": 67,
      "start": 196.818,
      "duration": 1.364,
      "velocity": 0.71
    },
    {
      "id": "n-01234",
      "pitch": "D#5",
      "midi": 75,
      "start": 196.818,
      "duration": 1.364,
      "velocity": 0.71
    },
    {
      "id": "n-01235",
      "pitch": "D#4",
      "midi": 63,
      "start": 198.182,
      "duration": 1.364,
      "velocity": 0.71
    },
    {
      "id": "n-01236",
      "pitch": "A#4",
      "midi": 70,
      "start": 198.182,
      "duration": 1.364,
      "velocity": 0.71
    },
    {
      "id": "n-01237",
      "pitch": "G5",
      "midi": 79,
      "start": 198.182,
      "duration": 1.364,
      "velocity": 0.71
    },
    {
      "id": "n-01238",
      "pitch": "D#6",
      "midi": 87,
      "start": 198.182,
      "duration": 1.364,
      "velocity": 0.71
    },
    {
      "id": "n-01239",
      "pitch": "D#2",
      "midi": 39,
      "start": 199.545,
      "duration": 2.727,
      "velocity": 0.71
    },
    {
      "id": "n-01240",
      "pitch": "A#2",
      "midi": 46,
      "start": 199.545,
      "duration": 2.727,
      "velocity": 0.71
    },
    {
      "id": "n-01241",
      "pitch": "G3",
      "midi": 55,
      "start": 199.545,
      "duration": 2.727,
      "velocity": 0.71
    },
    {
      "id": "n-01242",
      "pitch": "D#4",
      "midi": 63,
      "start": 199.545,
      "duration": 2.727,
      "velocity": 0.71
    }
  ]
}
