{
  "id": "clair-de-lune",
  "title": "Clair de Lune",
  "source": "C. Debussy; E. Fromont, 1905; Mutopia Project",
  "sourceInfo": {
    "provider": "Mutopia Project",
    "sourceUrl": "https://www.mutopiaproject.org/cgibin/piece-info.cgi?id=1778",
    "midiUrl": "https://www.mutopiaproject.org/ftp/DebussyC/L75/debussy_Ste_Bergamesq_Clair/debussy_Ste_Bergamesq_Clair.mid",
    "license": "Public Domain",
    "composer": "C. Debussy",
    "editor": "Keith OHara",
    "mutopiaId": "1778"
  },
  "bpm": 60,
  "beatsPerBar": 9,
  "defaultSecondsPerBeat": 1,
  "createdAt": "2026-05-25T23:03:31.643Z",
  "updatedAt": "2026-05-25T23:03:31.643Z",
  "notes": [
    {
      "id": "n-00001",
      "pitch": "F4",
      "midi": 65,
      "start": 0.5,
      "duration": 4,
      "velocity": 0.71
    },
    {
      "id": "n-00002",
      "pitch": "G#4",
      "midi": 68,
      "start": 0.5,
      "duration": 4,
      "velocity": 0.71
    },
    {
      "id": "n-00003",
      "pitch": "F5",
      "midi": 77,
      "start": 1,
      "duration": 2,
      "velocity": 0.71
    },
    {
      "id": "n-00004",
      "pitch": "G#5",
      "midi": 80,
      "start": 1,
      "duration": 2,
      "velocity": 0.71
    },
    {
      "id": "n-00005",
      "pitch": "C#5",
      "midi": 73,
      "start": 3,
      "duration": 2,
      "velocity": 0.71
    },
    {
      "id": "n-00006",
      "pitch": "F5",
      "midi": 77,
      "start": 3,
      "duration": 2,
      "velocity": 0.71
    },
    {
      "id": "n-00007",
      "pitch": "F#4",
      "midi": 66,
      "start": 4.5,
      "duration": 4.5,
      "velocity": 0.71
    },
    {
      "id": "n-00008",
      "pitch": "A4",
      "midi": 69,
      "start": 4.5,
      "duration": 4.5,
      "velocity": 0.71
    },
    {
      "id": "n-00009",
      "pitch": "C5",
      "midi": 72,
      "start": 5,
      "duration": 0.5,
      "velocity": 0.71
    },
    {
      "id": "n-00010",
      "pitch": "D#5",
      "midi": 75,
      "start": 5,
      "duration": 0.5,
      "velocity": 0.71
    },
    {
      "id": "n-00011",
      "pitch": "C#5",
      "midi": 73,
      "start": 5.5,
      "duration": 0.5,
      "velocity": 0.71
    },
    {
      "id": "n-00012",
      "pitch": "F5",
      "midi": 77,
      "start": 5.5,
      "duration": 0.5,
      "velocity": 0.71
    },
    {
      "id": "n-00013",
      "pitch": "C5",
      "midi": 72,
      "start": 6,
      "duration": 3.5,
      "velocity": 0.71
    },
    {
      "id": "n-00014",
      "pitch": "D#5",
      "midi": 75,
      "start": 6,
      "duration": 3.5,
      "velocity": 0.71
    },
    {
      "id": "n-00015",
      "pitch": "F4",
      "midi": 65,
      "start": 9,
      "duration": 4.5,
      "velocity": 0.71
    },
    {
      "id": "n-00016",
      "pitch": "G#4",
      "midi": 68,
      "start": 9,
      "duration": 4.5,
      "velocity": 0.71
    },
    {
      "id": "n-00017",
      "pitch": "A#4",
      "midi": 70,
      "start": 9.5,
      "duration": 0.5,
      "velocity": 0.71
    },
    {
      "id": "n-00018",
      "pitch": "C#5",
      "midi": 73,
      "start": 9.5,
      "duration": 0.5,
      "velocity": 0.71
    },
    {
      "id": "n-00019",
      "pitch": "C5",
      "midi": 72,
      "start": 10,
      "duration": 0.5,
      "velocity": 0.71
    },
    {
      "id": "n-00020",
      "pitch": "D#5",
      "midi": 75,
      "start": 10,
      "duration": 0.5,
      "velocity": 0.71
    },
    {
      "id": "n-00021",
      "pitch": "A#4",
      "midi": 70,
      "start": 10.5,
      "duration": 3.5,
      "velocity": 0.71
    },
    {
      "id": "n-00022",
      "pitch": "C#5",
      "midi": 73,
      "start": 10.5,
      "duration": 0.75,
      "velocity": 0.71
    },
    {
      "id": "n-00023",
      "pitch": "F5",
      "midi": 77,
      "start": 11.25,
      "duration": 1.5,
      "velocity": 0.71
    },
    {
      "id": "n-00024",
      "pitch": "C#5",
      "midi": 73,
      "start": 12.75,
      "duration": 1.25,
      "velocity": 0.71
    },
    {
      "id": "n-00025",
      "pitch": "D#4",
      "midi": 63,
      "start": 13.5,
      "duration": 4.5,
      "velocity": 0.71
    },
    {
      "id": "n-00026",
      "pitch": "F#4",
      "midi": 66,
      "start": 13.5,
      "duration": 4.5,
      "velocity": 0.71
    },
    {
      "id": "n-00027",
      "pitch": "G#4",
      "midi": 68,
      "start": 14,
      "duration": 0.5,
      "velocity": 0.71
    },
    {
      "id": "n-00028",
      "pitch": "C5",
      "midi": 72,
      "start": 14,
      "duration": 0.5,
      "velocity": 0.71
    },
    {
      "id": "n-00029",
      "pitch": "A#4",
      "midi": 70,
      "start": 14.5,
      "duration": 0.5,
      "velocity": 0.71
    },
    {
      "id": "n-00030",
      "pitch": "C#5",
      "midi": 73,
      "start": 14.5,
      "duration": 0.5,
      "velocity": 0.71
    },
    {
      "id": "n-00031",
      "pitch": "G#4",
      "midi": 68,
      "start": 15,
      "duration": 3,
      "velocity": 0.71
    },
    {
      "id": "n-00032",
      "pitch": "C5",
      "midi": 72,
      "start": 15,
      "duration": 3.5,
      "velocity": 0.71
    },
    {
      "id": "n-00033",
      "pitch": "C#4",
      "midi": 61,
      "start": 18,
      "duration": 3,
      "velocity": 0.71
    },
    {
      "id": "n-00034",
      "pitch": "D#4",
      "midi": 63,
      "start": 18,
      "duration": 3,
      "velocity": 0.71
    },
    {
      "id": "n-00035",
      "pitch": "F#4",
      "midi": 66,
      "start": 18,
      "duration": 3,
      "velocity": 0.71
    },
    {
      "id": "n-00036",
      "pitch": "A#4",
      "midi": 70,
      "start": 18.5,
      "duration": 0.5,
      "velocity": 0.71
    },
    {
      "id": "n-00037",
      "pitch": "C5",
      "midi": 72,
      "start": 19,
      "duration": 0.5,
      "velocity": 0.71
    },
    {
      "id": "n-00038",
      "pitch": "A#4",
      "midi": 70,
      "start": 19.5,
      "duration": 0.5,
      "velocity": 0.71
    },
    {
      "id": "n-00039",
      "pitch": "D#5",
      "midi": 75,
      "start": 20,
      "duration": 0.5,
      "velocity": 0.71
    },
    {
      "id": "n-00040",
      "pitch": "A#4",
      "midi": 70,
      "start": 20.5,
      "duration": 0.5,
      "velocity": 0.71
    },
    {
      "id": "n-00041",
      "pitch": "C4",
      "midi": 60,
      "start": 21,
      "duration": 1.5,
      "velocity": 0.71
    },
    {
      "id": "n-00042",
      "pitch": "D#4",
      "midi": 63,
      "start": 21,
      "duration": 1.5,
      "velocity": 0.71
    },
    {
      "id": "n-00043",
      "pitch": "F#4",
      "midi": 66,
      "start": 21,
      "duration": 1.5,
      "velocity": 0.71
    },
    {
      "id": "n-00044",
      "pitch": "G#4",
      "midi": 68,
      "start": 21,
      "duration": 0.5,
      "velocity": 0.71
    },
    {
      "id": "n-00045",
      "pitch": "A#4",
      "midi": 70,
      "start": 21.5,
      "duration": 0.5,
      "velocity": 0.71
    },
    {
      "id": "n-00046",
      "pitch": "G#4",
      "midi": 68,
      "start": 22,
      "duration": 1,
      "velocity": 0.71
    },
    {
      "id": "n-00047",
      "pitch": "A#3",
      "midi": 58,
      "start": 22.5,
      "duration": 3,
      "velocity": 0.71
    },
    {
      "id": "n-00048",
      "pitch": "C#4",
      "midi": 61,
      "start": 22.5,
      "duration": 3,
      "velocity": 0.71
    },
    {
      "id": "n-00049",
      "pitch": "D#4",
      "midi": 63,
      "start": 22.5,
      "duration": 3,
      "velocity": 0.71
    },
    {
      "id": "n-00050",
      "pitch": "F#4",
      "midi": 66,
      "start": 23,
      "duration": 0.5,
      "velocity": 0.71
    },
    {
      "id": "n-00051",
      "pitch": "G#4",
      "midi": 68,
      "start": 23.5,
      "duration": 0.5,
      "velocity": 0.71
    },
    {
      "id": "n-00052",
      "pitch": "F#4",
      "midi": 66,
      "start": 24,
      "duration": 1.5,
      "velocity": 0.71
    },
    {
      "id": "n-00053",
      "pitch": "A3",
      "midi": 57,
      "start": 25.5,
      "duration": 1.5,
      "velocity": 0.71
    },
    {
      "id": "n-00054",
      "pitch": "C4",
      "midi": 60,
      "start": 25.5,
      "duration": 1.5,
      "velocity": 0.71
    },
    {
      "id": "n-00055",
      "pitch": "D#4",
      "midi": 63,
      "start": 25.5,
      "duration": 1.5,
      "velocity": 0.71
    },
    {
      "id": "n-00056",
      "pitch": "F4",
      "midi": 65,
      "start": 25.5,
      "duration": 2,
      "velocity": 0.71
    },
    {
      "id": "n-00057",
      "pitch": "G#3",
      "midi": 56,
      "start": 27,
      "duration": 3,
      "velocity": 0.71
    },
    {
      "id": "n-00058",
      "pitch": "A#3",
      "midi": 58,
      "start": 27,
      "duration": 4.5,
      "velocity": 0.71
    },
    {
      "id": "n-00059",
      "pitch": "C#4",
      "midi": 61,
      "start": 27,
      "duration": 4.5,
      "velocity": 0.71
    },
    {
      "id": "n-00060",
      "pitch": "F4",
      "midi": 65,
      "start": 27.5,
      "duration": 0.5,
      "velocity": 0.71
    },
    {
      "id": "n-00061",
      "pitch": "F#4",
      "midi": 66,
      "start": 28,
      "duration": 0.5,
      "velocity": 0.71
    },
    {
      "id": "n-00062",
      "pitch": "F4",
      "midi": 65,
      "start": 28.5,
      "duration": 0.5,
      "velocity": 0.71
    },
    {
      "id": "n-00063",
      "pitch": "A#4",
      "midi": 70,
      "start": 29,
      "duration": 0.5,
      "velocity": 0.71
    },
    {
      "id": "n-00064",
      "pitch": "F4",
      "midi": 65,
      "start": 29.5,
      "duration": 0.5,
      "velocity": 0.71
    },
    {
      "id": "n-00065",
      "pitch": "F#3",
      "midi": 54,
      "start": 30,
      "duration": 1.5,
      "velocity": 0.71
    },
    {
      "id": "n-00066",
      "pitch": "D#4",
      "midi": 63,
      "start": 30,
      "duration": 0.5,
      "velocity": 0.71
    },
    {
      "id": "n-00067",
      "pitch": "F4",
      "midi": 65,
      "start": 30.5,
      "duration": 0.5,
      "velocity": 0.71
    },
    {
      "id": "n-00068",
      "pitch": "D#4",
      "midi": 63,
      "start": 31,
      "duration": 1,
      "velocity": 0.71
    },
    {
      "id": "n-00069",
      "pitch": "F3",
      "midi": 53,
      "start": 31.5,
      "duration": 3,
      "velocity": 0.71
    },
    {
      "id": "n-00070",
      "pitch": "G#3",
      "midi": 56,
      "start": 31.5,
      "duration": 3,
      "velocity": 0.71
    },
    {
      "id": "n-00071",
      "pitch": "A#3",
      "midi": 58,
      "start": 31.5,
      "duration": 3,
      "velocity": 0.71
    },
    {
      "id": "n-00072",
      "pitch": "C#4",
      "midi": 61,
      "start": 32,
      "duration": 0.5,
      "velocity": 0.71
    },
    {
      "id": "n-00073",
      "pitch": "D#4",
      "midi": 63,
      "start": 32.5,
      "duration": 0.5,
      "velocity": 0.71
    },
    {
      "id": "n-00074",
      "pitch": "C#4",
      "midi": 61,
      "start": 33,
      "duration": 1.5,
      "velocity": 0.71
    },
    {
      "id": "n-00075",
      "pitch": "D#3",
      "midi": 51,
      "start": 34.5,
      "duration": 0.75,
      "velocity": 0.71
    },
    {
      "id": "n-00076",
      "pitch": "F#3",
      "midi": 54,
      "start": 34.5,
      "duration": 1.5,
      "velocity": 0.71
    },
    {
      "id": "n-00077",
      "pitch": "G#3",
      "midi": 56,
      "start": 34.5,
      "duration": 1.5,
      "velocity": 0.71
    },
    {
      "id": "n-00078",
      "pitch": "C4",
      "midi": 60,
      "start": 34.5,
      "duration": 1.5,
      "velocity": 0.71
    },
    {
      "id": "n-00079",
      "pitch": "G#2",
      "midi": 44,
      "start": 35.25,
      "duration": 1.25,
      "velocity": 0.71
    },
    {
      "id": "n-00080",
      "pitch": "C#2",
      "midi": 37,
      "start": 36,
      "duration": 0.5,
      "velocity": 0.71
    },
    {
      "id": "n-00081",
      "pitch": "F3",
      "midi": 53,
      "start": 36.5,
      "duration": 1,
      "velocity": 0.71
    },
    {
      "id": "n-00082",
      "pitch": "G#3",
      "midi": 56,
      "start": 36.5,
      "duration": 1,
      "velocity": 0.71
    },
    {
      "id": "n-00083",
      "pitch": "F4",
      "midi": 65,
      "start": 37,
      "duration": 3.5,
      "velocity": 0.71
    },
    {
      "id": "n-00084",
      "pitch": "G#4",
      "midi": 68,
      "start": 37,
      "duration": 3.5,
      "velocity": 0.71
    },
    {
      "id": "n-00085",
      "pitch": "F5",
      "midi": 77,
      "start": 37.5,
      "duration": 1.5,
      "velocity": 0.71
    },
    {
      "id": "n-00086",
      "pitch": "G#5",
      "midi": 80,
      "start": 37.5,
      "duration": 1.5,
      "velocity": 0.71
    },
    {
      "id": "n-00087",
      "pitch": "C#5",
      "midi": 73,
      "start": 39,
      "duration": 2,
      "velocity": 0.71
    },
    {
      "id": "n-00088",
      "pitch": "F5",
      "midi": 77,
      "start": 39,
      "duration": 2,
      "velocity": 0.71
    },
    {
      "id": "n-00089",
      "pitch": "F#2",
      "midi": 42,
      "start": 40.5,
      "duration": 3,
      "velocity": 0.71
    },
    {
      "id": "n-00090",
      "pitch": "C#3",
      "midi": 49,
      "start": 40.5,
      "duration": 4.5,
      "velocity": 0.71
    },
    {
      "id": "n-00091",
      "pitch": "F#3",
      "midi": 54,
      "start": 41,
      "duration": 4,
      "velocity": 0.71
    },
    {
      "id": "n-00092",
      "pitch": "A#3",
      "midi": 58,
      "start": 41,
      "duration": 4,
      "velocity": 0.71
    },
    {
      "id": "n-00093",
      "pitch": "C#4",
      "midi": 61,
      "start": 41,
      "duration": 4,
      "velocity": 0.71
    },
    {
      "id": "n-00094",
      "pitch": "F#4",
      "midi": 66,
      "start": 41,
      "duration": 4,
      "velocity": 0.71
    },
    {
      "id": "n-00095",
      "pitch": "A#4",
      "midi": 70,
      "start": 41,
      "duration": 4,
      "velocity": 0.71
    },
    {
      "id": "n-00096",
      "pitch": "D#5",
      "midi": 75,
      "start": 41,
      "duration": 0.5,
      "velocity": 0.71
    },
    {
      "id": "n-00097",
      "pitch": "F5",
      "midi": 77,
      "start": 41.5,
      "duration": 0.5,
      "velocity": 0.71
    },
    {
      "id": "n-00098",
      "pitch": "D#5",
      "midi": 75,
      "start": 42,
      "duration": 3.5,
      "velocity": 0.71
    },
    {
      "id": "n-00099",
      "pitch": "F2",
      "midi": 41,
      "start": 45,
      "duration": 3,
      "velocity": 0.71
    },
    {
      "id": "n-00100",
      "pitch": "C#3",
      "midi": 49,
      "start": 45,
      "duration": 3,
      "velocity": 0.71
    },
    {
      "id": "n-00101",
      "pitch": "F3",
      "midi": 53,
      "start": 45.5,
      "duration": 1,
      "velocity": 0.71
    },
    {
      "id": "n-00102",
      "pitch": "G#3",
      "midi": 56,
      "start": 45.5,
      "duration": 1,
      "velocity": 0.71
    },
    {
      "id": "n-00103",
      "pitch": "C#4",
      "midi": 61,
      "start": 45.5,
      "duration": 0.5,
      "velocity": 0.71
    },
    {
      "id": "n-00104",
      "pitch": "G#4",
      "midi": 68,
      "start": 45.5,
      "duration": 1,
      "velocity": 0.71
    },
    {
      "id": "n-00105",
      "pitch": "C#5",
      "midi": 73,
      "start": 45.5,
      "duration": 0.5,
      "velocity": 0.71
    },
    {
      "id": "n-00106",
      "pitch": "D#4",
      "midi": 63,
      "start": 46,
      "duration": 0.5,
      "velocity": 0.71
    },
    {
      "id": "n-00107",
      "pitch": "D#5",
      "midi": 75,
      "start": 46,
      "duration": 0.5,
      "velocity": 0.71
    },
    {
      "id": "n-00108",
      "pitch": "C#4",
      "midi": 61,
      "start": 46.5,
      "duration": 1.5,
      "velocity": 0.71
    },
    {
      "id": "n-00109",
      "pitch": "F4",
      "midi": 65,
      "start": 46.5,
      "duration": 1.5,
      "velocity": 0.71
    },
    {
      "id": "n-00110",
      "pitch": "G#4",
      "midi": 68,
      "start": 46.5,
      "duration": 1.5,
      "velocity": 0.71
    },
    {
      "id": "n-00111",
      "pitch": "C#5",
      "midi": 73,
      "start": 46.5,
      "duration": 1.5,
      "velocity": 0.71
    },
    {
      "id": "n-00112",
      "pitch": "G#5",
      "midi": 80,
      "start": 46.5,
      "duration": 1.5,
      "velocity": 0.71
    },
    {
      "id": "n-00113",
      "pitch": "G#3",
      "midi": 56,
      "start": 48,
      "duration": 1.5,
      "velocity": 0.71
    },
    {
      "id": "n-00114",
      "pitch": "C#4",
      "midi": 61,
      "start": 48,
      "duration": 1.5,
      "velocity": 0.71
    },
    {
      "id": "n-00115",
      "pitch": "F4",
      "midi": 65,
      "start": 48,
      "duration": 1.5,
      "velocity": 0.71
    },
    {
      "id": "n-00116",
      "pitch": "C#5",
      "midi": 73,
      "start": 48,
      "duration": 1.5,
      "velocity": 0.71
    },
    {
      "id": "n-00117",
      "pitch": "F5",
      "midi": 77,
      "start": 48,
      "duration": 2,
      "velocity": 0.71
    },
    {
      "id": "n-00118",
      "pitch": "F#2",
      "midi": 42,
      "start": 49.5,
      "duration": 3,
      "velocity": 0.71
    },
    {
      "id": "n-00119",
      "pitch": "C#3",
      "midi": 49,
      "start": 49.5,
      "duration": 4.5,
      "velocity": 0.71
    },
    {
      "id": "n-00120",
      "pitch": "F#3",
      "midi": 54,
      "start": 50,
      "duration": 4,
      "velocity": 0.71
    },
    {
      "id": "n-00121",
      "pitch": "A#3",
      "midi": 58,
      "start": 50,
      "duration": 4,
      "velocity": 0.71
    },
    {
      "id": "n-00122",
      "pitch": "C#4",
      "midi": 61,
      "start": 50,
      "duration": 4,
      "velocity": 0.71
    },
    {
      "id": "n-00123",
      "pitch": "F#4",
      "midi": 66,
      "start": 50,
      "duration": 4,
      "velocity": 0.71
    },
    {
      "id": "n-00124",
      "pitch": "A#4",
      "midi": 70,
      "start": 50,
      "duration": 4,
      "velocity": 0.71
    },
    {
      "id": "n-00125",
      "pitch": "D#5",
      "midi": 75,
      "start": 50,
      "duration": 0.5,
      "velocity": 0.71
    },
    {
      "id": "n-00126",
      "pitch": "F5",
      "midi": 77,
      "start": 50.5,
      "duration": 0.5,
      "velocity": 0.71
    },
    {
      "id": "n-00127",
      "pitch": "D#5",
      "midi": 75,
      "start": 51,
      "duration": 1.5,
      "velocity": 0.71
    },
    {
      "id": "n-00128",
      "pitch": "C#5",
      "midi": 73,
      "start": 52.5,
      "duration": 2,
      "velocity": 0.71
    },
    {
      "id": "n-00129",
      "pitch": "G#2",
      "midi": 44,
      "start": 54,
      "duration": 4.5,
      "velocity": 0.71
    },
    {
      "id": "n-00130",
      "pitch": "F3",
      "midi": 53,
      "start": 54.5,
      "duration": 1,
      "velocity": 0.71
    },
    {
      "id": "n-00131",
      "pitch": "B3",
      "midi": 59,
      "start": 54.5,
      "duration": 1,
      "velocity": 0.71
    },
    {
      "id": "n-00132",
      "pitch": "C#4",
      "midi": 61,
      "start": 54.5,
      "duration": 0.5,
      "velocity": 0.71
    },
    {
      "id": "n-00133",
      "pitch": "G#4",
      "midi": 68,
      "start": 54.5,
      "duration": 1,
      "velocity": 0.71
    },
    {
      "id": "n-00134",
      "pitch": "C#5",
      "midi": 73,
      "start": 54.5,
      "duration": 0.5,
      "velocity": 0.71
    },
    {
      "id": "n-00135",
      "pitch": "D#4",
      "midi": 63,
      "start": 55,
      "duration": 0.5,
      "velocity": 0.71
    },
    {
      "id": "n-00136",
      "pitch": "D#5",
      "midi": 75,
      "start": 55,
      "duration": 0.5,
      "velocity": 0.71
    },
    {
      "id": "n-00137",
      "pitch": "B3",
      "midi": 59,
      "start": 55.5,
      "duration": 2,
      "velocity": 0.71
    },
    {
      "id": "n-00138",
      "pitch": "C#4",
      "midi": 61,
      "start": 55.5,
      "duration": 2,
      "velocity": 0.71
    },
    {
      "id": "n-00139",
      "pitch": "F4",
      "midi": 65,
      "start": 55.5,
      "duration": 2,
      "velocity": 0.71
    },
    {
      "id": "n-00140",
      "pitch": "A#4",
      "midi": 70,
      "start": 55.5,
      "duration": 0.75,
      "velocity": 0.71
    },
    {
      "id": "n-00141",
      "pitch": "F5",
      "midi": 77,
      "start": 55.5,
      "duration": 3,
      "velocity": 0.71
    },
    {
      "id": "n-00142",
      "pitch": "A#5",
      "midi": 82,
      "start": 55.5,
      "duration": 0.75,
      "velocity": 0.71
    },
    {
      "id": "n-00143",
      "pitch": "G#4",
      "midi": 68,
      "start": 56.25,
      "duration": 1.5,
      "velocity": 0.71
    },
    {
      "id": "n-00144",
      "pitch": "G#5",
      "midi": 80,
      "start": 56.25,
      "duration": 1.5,
      "velocity": 0.71
    },
    {
      "id": "n-00145",
      "pitch": "F4",
      "midi": 65,
      "start": 57.75,
      "duration": 0.75,
      "velocity": 0.71
    },
    {
      "id": "n-00146",
      "pitch": "A#2",
      "midi": 46,
      "start": 58.5,
      "duration": 3,
      "velocity": 0.71
    },
    {
      "id": "n-00147",
      "pitch": "F5",
      "midi": 77,
      "start": 58.5,
      "duration": 0.5,
      "velocity": 0.71
    },
    {
      "id": "n-00148",
      "pitch": "F3",
      "midi": 53,
      "start": 59,
      "duration": 4,
      "velocity": 0.71
    },
    {
      "id": "n-00149",
      "pitch": "A#3",
      "midi": 58,
      "start": 59,
      "duration": 4,
      "velocity": 0.71
    },
    {
      "id": "n-00150",
      "pitch": "D#4",
      "midi": 63,
      "start": 59,
      "duration": 1.75,
      "velocity": 0.71
    },
    {
      "id": "n-00151",
      "pitch": "F4",
      "midi": 65,
      "start": 59,
      "duration": 4,
      "velocity": 0.71
    },
    {
      "id": "n-00152",
      "pitch": "A#4",
      "midi": 70,
      "start": 59,
      "duration": 4,
      "velocity": 0.71
    },
    {
      "id": "n-00153",
      "pitch": "D#5",
      "midi": 75,
      "start": 59,
      "duration": 0.5,
      "velocity": 0.71
    },
    {
      "id": "n-00154",
      "pitch": "F5",
      "midi": 77,
      "start": 59.5,
      "duration": 0.5,
      "velocity": 0.71
    },
    {
      "id": "n-00155",
      "pitch": "D#5",
      "midi": 75,
      "start": 60,
      "duration": 0.75,
      "velocity": 0.71
    },
    {
      "id": "n-00156",
      "pitch": "C#4",
      "midi": 61,
      "start": 60.75,
      "duration": 2.25,
      "velocity": 0.71
    },
    {
      "id": "n-00157",
      "pitch": "C#5",
      "midi": 73,
      "start": 60.75,
      "duration": 1.5,
      "velocity": 0.71
    },
    {
      "id": "n-00158",
      "pitch": "D#1",
      "midi": 27,
      "start": 63,
      "duration": 3,
      "velocity": 0.71
    },
    {
      "id": "n-00159",
      "pitch": "D#2",
      "midi": 39,
      "start": 63,
      "duration": 3,
      "velocity": 0.71
    },
    {
      "id": "n-00160",
      "pitch": "F4",
      "midi": 65,
      "start": 63.75,
      "duration": 1.25,
      "velocity": 0.71
    },
    {
      "id": "n-00161",
      "pitch": "F#4",
      "midi": 66,
      "start": 63.75,
      "duration": 1.25,
      "velocity": 0.71
    },
    {
      "id": "n-00162",
      "pitch": "A#4",
      "midi": 70,
      "start": 63.75,
      "duration": 1.25,
      "velocity": 0.71
    },
    {
      "id": "n-00163",
      "pitch": "F5",
      "midi": 77,
      "start": 63.75,
      "duration": 1.25,
      "velocity": 0.71
    },
    {
      "id": "n-00164",
      "pitch": "A#5",
      "midi": 82,
      "start": 63.75,
      "duration": 1.25,
      "velocity": 0.71
    },
    {
      "id": "n-00165",
      "pitch": "F6",
      "midi": 89,
      "start": 63.75,
      "duration": 1.25,
      "velocity": 0.71
    },
    {
      "id": "n-00166",
      "pitch": "D#4",
      "midi": 63,
      "start": 65,
      "duration": 0.5,
      "velocity": 0.71
    },
    {
      "id": "n-00167",
      "pitch": "F#4",
      "midi": 66,
      "start": 65,
      "duration": 0.5,
      "velocity": 0.71
    },
    {
      "id": "n-00168",
      "pitch": "A#4",
      "midi": 70,
      "start": 65,
      "duration": 0.5,
      "velocity": 0.71
    },
    {
      "id": "n-00169",
      "pitch": "D#5",
      "midi": 75,
      "start": 65,
      "duration": 0.5,
      "velocity": 0.71
    },
    {
      "id": "n-00170",
      "pitch": "A#5",
      "midi": 82,
      "start": 65,
      "duration": 0.5,
      "velocity": 0.71
    },
    {
      "id": "n-00171",
      "pitch": "D#6",
      "midi": 87,
      "start": 65,
      "duration": 0.5,
      "velocity": 0.71
    },
    {
      "id": "n-00172",
      "pitch": "D#4",
      "midi": 63,
      "start": 65.5,
      "duration": 0.5,
      "velocity": 0.71
    },
    {
      "id": "n-00173",
      "pitch": "F#4",
      "midi": 66,
      "start": 65.5,
      "duration": 0.5,
      "velocity": 0.71
    },
    {
      "id": "n-00174",
      "pitch": "A#4",
      "midi": 70,
      "start": 65.5,
      "duration": 0.5,
      "velocity": 0.71
    },
    {
      "id": "n-00175",
      "pitch": "D#5",
      "midi": 75,
      "start": 65.5,
      "duration": 0.5,
      "velocity": 0.71
    },
    {
      "id": "n-00176",
      "pitch": "A#5",
      "midi": 82,
      "start": 65.5,
      "duration": 0.5,
      "velocity": 0.71
    },
    {
      "id": "n-00177",
      "pitch": "D#6",
      "midi": 87,
      "start": 65.5,
      "duration": 0.5,
      "velocity": 0.71
    },
    {
      "id": "n-00178",
      "pitch": "D#4",
      "midi": 63,
      "start": 66,
      "duration": 0.5,
      "velocity": 0.71
    },
    {
      "id": "n-00179",
      "pitch": "F#4",
      "midi": 66,
      "start": 66,
      "duration": 0.5,
      "velocity": 0.71
    },
    {
      "id": "n-00180",
      "pitch": "A#4",
      "midi": 70,
      "start": 66,
      "duration": 0.5,
      "velocity": 0.71
    },
    {
      "id": "n-00181",
      "pitch": "D#5",
      "midi": 75,
      "start": 66,
      "duration": 0.5,
      "velocity": 0.71
    },
    {
      "id": "n-00182",
      "pitch": "A#5",
      "midi": 82,
      "start": 66,
      "duration": 0.5,
      "velocity": 0.71
    },
    {
      "id": "n-00183",
      "pitch": "D#6",
      "midi": 87,
      "start": 66,
      "duration": 0.5,
      "velocity": 0.71
    },
    {
      "id": "n-00184",
      "pitch": "C#4",
      "midi": 61,
      "start": 66.5,
      "duration": 0.5,
      "velocity": 0.71
    },
    {
      "id": "n-00185",
      "pitch": "F#4",
      "midi": 66,
      "start": 66.5,
      "duration": 0.5,
      "velocity": 0.71
    },
    {
      "id": "n-00186",
      "pitch": "A#4",
      "midi": 70,
      "start": 66.5,
      "duration": 0.5,
      "velocity": 0.71
    },
    {
      "id": "n-00187",
      "pitch": "C#5",
      "midi": 73,
      "start": 66.5,
      "duration": 0.5,
      "velocity": 0.71
    },
    {
      "id": "n-00188",
      "pitch": "A#5",
      "midi": 82,
      "start": 66.5,
      "duration": 0.5,
      "velocity": 0.71
    },
    {
      "id": "n-00189",
      "pitch": "C#6",
      "midi": 85,
      "start": 66.5,
      "duration": 0.5,
      "velocity": 0.71
    },
    {
      "id": "n-00190",
      "pitch": "C#4",
      "midi": 61,
      "start": 67,
      "duration": 0.5,
      "velocity": 0.71
    },
    {
      "id": "n-00191",
      "pitch": "F#4",
      "midi": 66,
      "start": 67,
      "duration": 0.5,
      "velocity": 0.71
    },
    {
      "id": "n-00192",
      "pitch": "A#4",
      "midi": 70,
      "start": 67,
      "duration": 0.5,
      "velocity": 0.71
    },
    {
      "id": "n-00193",
      "pitch": "C#5",
      "midi": 73,
      "start": 67,
      "duration": 0.5,
      "velocity": 0.71
    },
    {
      "id": "n-00194",
      "pitch": "A#5",
      "midi": 82,
      "start": 67,
      "duration": 0.5,
      "velocity": 0.71
    },
    {
      "id": "n-00195",
      "pitch": "C#6",
      "midi": 85,
      "start": 67,
      "duration": 0.5,
      "velocity": 0.71
    },
    {
      "id": "n-00196",
      "pitch": "C#4",
      "midi": 61,
      "start": 67.5,
      "duration": 0.5,
      "velocity": 0.71
    },
    {
      "id": "n-00197",
      "pitch": "F#4",
      "midi": 66,
      "start": 67.5,
      "duration": 0.5,
      "velocity": 0.71
    },
    {
      "id": "n-00198",
      "pitch": "A#4",
      "midi": 70,
      "start": 67.5,
      "duration": 0.5,
      "velocity": 0.71
    },
    {
      "id": "n-00199",
      "pitch": "C#5",
      "midi": 73,
      "start": 67.5,
      "duration": 0.5,
      "velocity": 0.71
    },
    {
      "id": "n-00200",
      "pitch": "A#5",
      "midi": 82,
      "start": 67.5,
      "duration": 0.5,
      "velocity": 0.71
    },
    {
      "id": "n-00201",
      "pitch": "C#6",
      "midi": 85,
      "start": 67.5,
      "duration": 0.5,
      "velocity": 0.71
    },
    {
      "id": "n-00202",
      "pitch": "C4",
      "midi": 60,
      "start": 68,
      "duration": 0.5,
      "velocity": 0.71
    },
    {
      "id": "n-00203",
      "pitch": "F#4",
      "midi": 66,
      "start": 68,
      "duration": 0.5,
      "velocity": 0.71
    },
    {
      "id": "n-00204",
      "pitch": "A#4",
      "midi": 70,
      "start": 68,
      "duration": 0.5,
      "velocity": 0.71
    },
    {
      "id": "n-00205",
      "pitch": "C5",
      "midi": 72,
      "start": 68,
      "duration": 0.5,
      "velocity": 0.71
    },
    {
      "id": "n-00206",
      "pitch": "F#5",
      "midi": 78,
      "start": 68,
      "duration": 0.5,
      "velocity": 0.71
    },
    {
      "id": "n-00207",
      "pitch": "A#5",
      "midi": 82,
      "start": 68,
      "duration": 0.5,
      "velocity": 0.71
    },
    {
      "id": "n-00208",
      "pitch": "C6",
      "midi": 84,
      "start": 68,
      "duration": 0.5,
      "velocity": 0.71
    },
    {
      "id": "n-00209",
      "pitch": "C4",
      "midi": 60,
      "start": 68.5,
      "duration": 0.5,
      "velocity": 0.71
    },
    {
      "id": "n-00210",
      "pitch": "F#4",
      "midi": 66,
      "start": 68.5,
      "duration": 0.5,
      "velocity": 0.71
    },
    {
      "id": "n-00211",
      "pitch": "A#4",
      "midi": 70,
      "start": 68.5,
      "duration": 0.5,
      "velocity": 0.71
    },
    {
      "id": "n-00212",
      "pitch": "C5",
      "midi": 72,
      "start": 68.5,
      "duration": 0.5,
      "velocity": 0.71
    },
    {
      "id": "n-00213",
      "pitch": "F#5",
      "midi": 78,
      "start": 68.5,
      "duration": 0.5,
      "velocity": 0.71
    },
    {
      "id": "n-00214",
      "pitch": "A#5",
      "midi": 82,
      "start": 68.5,
      "duration": 0.5,
      "velocity": 0.71
    },
    {
      "id": "n-00215",
      "pitch": "C6",
      "midi": 84,
      "start": 68.5,
      "duration": 0.5,
      "velocity": 0.71
    },
    {
      "id": "n-00216",
      "pitch": "C4",
      "midi": 60,
      "start": 69,
      "duration": 0.75,
      "velocity": 0.71
    },
    {
      "id": "n-00217",
      "pitch": "F#4",
      "midi": 66,
      "start": 69,
      "duration": 0.75,
      "velocity": 0.71
    },
    {
      "id": "n-00218",
      "pitch": "A#4",
      "midi": 70,
      "start": 69,
      "duration": 0.75,
      "velocity": 0.71
    },
    {
      "id": "n-00219",
      "pitch": "C5",
      "midi": 72,
      "start": 69,
      "duration": 0.75,
      "velocity": 0.71
    },
    {
      "id": "n-00220",
      "pitch": "F#5",
      "midi": 78,
      "start": 69,
      "duration": 0.75,
      "velocity": 0.71
    },
    {
      "id": "n-00221",
      "pitch": "A#5",
      "midi": 82,
      "start": 69,
      "duration": 0.75,
      "velocity": 0.71
    },
    {
      "id": "n-00222",
      "pitch": "C6",
      "midi": 84,
      "start": 69,
      "duration": 0.75,
      "velocity": 0.71
    },
    {
      "id": "n-00223",
      "pitch": "C#4",
      "midi": 61,
      "start": 69.75,
      "duration": 0.75,
      "velocity": 0.71
    },
    {
      "id": "n-00224",
      "pitch": "F#4",
      "midi": 66,
      "start": 69.75,
      "duration": 0.75,
      "velocity": 0.71
    },
    {
      "id": "n-00225",
      "pitch": "A#4",
      "midi": 70,
      "start": 69.75,
      "duration": 0.75,
      "velocity": 0.71
    },
    {
      "id": "n-00226",
      "pitch": "C#5",
      "midi": 73,
      "start": 69.75,
      "duration": 0.75,
      "velocity": 0.71
    },
    {
      "id": "n-00227",
      "pitch": "A#5",
      "midi": 82,
      "start": 69.75,
      "duration": 0.75,
      "velocity": 0.71
    },
    {
      "id": "n-00228",
      "pitch": "C#6",
      "midi": 85,
      "start": 69.75,
      "duration": 0.75,
      "velocity": 0.71
    },
    {
      "id": "n-00229",
      "pitch": "A#3",
      "midi": 58,
      "start": 70.5,
      "duration": 1.5,
      "velocity": 0.71
    },
    {
      "id": "n-00230",
      "pitch": "C#4",
      "midi": 61,
      "start": 70.5,
      "duration": 1.5,
      "velocity": 0.71
    },
    {
      "id": "n-00231",
      "pitch": "F#4",
      "midi": 66,
      "start": 70.5,
      "duration": 1.5,
      "velocity": 0.71
    },
    {
      "id": "n-00232",
      "pitch": "A#4",
      "midi": 70,
      "start": 70.5,
      "duration": 1.5,
      "velocity": 0.71
    },
    {
      "id": "n-00233",
      "pitch": "F#5",
      "midi": 78,
      "start": 70.5,
      "duration": 1.5,
      "velocity": 0.71
    },
    {
      "id": "n-00234",
      "pitch": "A#5",
      "midi": 82,
      "start": 70.5,
      "duration": 1.5,
      "velocity": 0.71
    },
    {
      "id": "n-00235",
      "pitch": "D#1",
      "midi": 27,
      "start": 72,
      "duration": 3,
      "velocity": 0.71
    },
    {
      "id": "n-00236",
      "pitch": "D#2",
      "midi": 39,
      "start": 72,
      "duration": 3,
      "velocity": 0.71
    },
    {
      "id": "n-00237",
      "pitch": "A#2",
      "midi": 46,
      "start": 72,
      "duration": 3,
      "velocity": 0.71
    },
    {
      "id": "n-00238",
      "pitch": "F4",
      "midi": 65,
      "start": 72.75,
      "duration": 1.25,
      "velocity": 0.71
    },
    {
      "id": "n-00239",
      "pitch": "F#4",
      "midi": 66,
      "start": 72.75,
      "duration": 1.25,
      "velocity": 0.71
    },
    {
      "id": "n-00240",
      "pitch": "A#4",
      "midi": 70,
      "start": 72.75,
      "duration": 1.25,
      "velocity": 0.71
    },
    {
      "id": "n-00241",
      "pitch": "F5",
      "midi": 77,
      "start": 72.75,
      "duration": 1.25,
      "velocity": 0.71
    },
    {
      "id": "n-00242",
      "pitch": "A#5",
      "midi": 82,
      "start": 72.75,
      "duration": 1.25,
      "velocity": 0.71
    },
    {
      "id": "n-00243",
      "pitch": "F6",
      "midi": 89,
      "start": 72.75,
      "duration": 1.25,
      "velocity": 0.71
    },
    {
      "id": "n-00244",
      "pitch": "F#4",
      "midi": 66,
      "start": 74,
      "duration": 0.5,
      "velocity": 0.71
    },
    {
      "id": "n-00245",
      "pitch": "A#4",
      "midi": 70,
      "start": 74,
      "duration": 0.5,
      "velocity": 0.71
    },
    {
      "id": "n-00246",
      "pitch": "D#5",
      "midi": 75,
      "start": 74,
      "duration": 0.5,
      "velocity": 0.71
    },
    {
      "id": "n-00247",
      "pitch": "F#5",
      "midi": 78,
      "start": 74,
      "duration": 0.5,
      "velocity": 0.71
    },
    {
      "id": "n-00248",
      "pitch": "A#5",
      "midi": 82,
      "start": 74,
      "duration": 0.5,
      "velocity": 0.71
    },
    {
      "id": "n-00249",
      "pitch": "F#6",
      "midi": 90,
      "start": 74,
      "duration": 0.5,
      "velocity": 0.71
    },
    {
      "id": "n-00250",
      "pitch": "F4",
      "midi": 65,
      "start": 74.5,
      "duration": 0.5,
      "velocity": 0.71
    },
    {
      "id": "n-00251",
      "pitch": "F#4",
      "midi": 66,
      "start": 74.5,
      "duration": 0.5,
      "velocity": 0.71
    },
    {
      "id": "n-00252",
      "pitch": "A#4",
      "midi": 70,
      "start": 74.5,
      "duration": 0.5,
      "velocity": 0.71
    },
    {
      "id": "n-00253",
      "pitch": "F5",
      "midi": 77,
      "start": 74.5,
      "duration": 0.5,
      "velocity": 0.71
    },
    {
      "id": "n-00254",
      "pitch": "A#5",
      "midi": 82,
      "start": 74.5,
      "duration": 0.5,
      "velocity": 0.71
    },
    {
      "id": "n-00255",
      "pitch": "F6",
      "midi": 89,
      "start": 74.5,
      "duration": 0.5,
      "velocity": 0.71
    },
    {
      "id": "n-00256",
      "pitch": "D#4",
      "midi": 63,
      "start": 75,
      "duration": 0.5,
      "velocity": 0.71
    },
    {
      "id": "n-00257",
      "pitch": "F#4",
      "midi": 66,
      "start": 75,
      "duration": 0.5,
      "velocity": 0.71
    },
    {
      "id": "n-00258",
      "pitch": "A#4",
      "midi": 70,
      "start": 75,
      "duration": 0.5,
      "velocity": 0.71
    },
    {
      "id": "n-00259",
      "pitch": "D#5",
      "midi": 75,
      "start": 75,
      "duration": 0.5,
      "velocity": 0.71
    },
    {
      "id": "n-00260",
      "pitch": "A#5",
      "midi": 82,
      "start": 75,
      "duration": 0.5,
      "velocity": 0.71
    },
    {
      "id": "n-00261",
      "pitch": "D#6",
      "midi": 87,
      "start": 75,
      "duration": 0.5,
      "velocity": 0.71
    },
    {
      "id": "n-00262",
      "pitch": "F4",
      "midi": 65,
      "start": 75.5,
      "duration": 0.5,
      "velocity": 0.71
    },
    {
      "id": "n-00263",
      "pitch": "F#4",
      "midi": 66,
      "start": 75.5,
      "duration": 0.5,
      "velocity": 0.71
    },
    {
      "id": "n-00264",
      "pitch": "A#4",
      "midi": 70,
      "start": 75.5,
      "duration": 0.5,
      "velocity": 0.71
    },
    {
      "id": "n-00265",
      "pitch": "F5",
      "midi": 77,
      "start": 75.5,
      "duration": 0.5,
      "velocity": 0.71
    },
    {
      "id": "n-00266",
      "pitch": "A#5",
      "midi": 82,
      "start": 75.5,
      "duration": 0.5,
      "velocity": 0.71
    },
    {
      "id": "n-00267",
      "pitch": "F6",
      "midi": 89,
      "start": 75.5,
      "duration": 0.5,
      "velocity": 0.71
    },
    {
      "id": "n-00268",
      "pitch": "D#4",
      "midi": 63,
      "start": 76,
      "duration": 0.5,
      "velocity": 0.71
    },
    {
      "id": "n-00269",
      "pitch": "F#4",
      "midi": 66,
      "start": 76,
      "duration": 0.5,
      "velocity": 0.71
    },
    {
      "id": "n-00270",
      "pitch": "A#4",
      "midi": 70,
      "start": 76,
      "duration": 0.5,
      "velocity": 0.71
    },
    {
      "id": "n-00271",
      "pitch": "D#5",
      "midi": 75,
      "start": 76,
      "duration": 0.5,
      "velocity": 0.71
    },
    {
      "id": "n-00272",
      "pitch": "A#5",
      "midi": 82,
      "start": 76,
      "duration": 0.5,
      "velocity": 0.71
    },
    {
      "id": "n-00273",
      "pitch": "D#6",
      "midi": 87,
      "start": 76,
      "duration": 0.5,
      "velocity": 0.71
    },
    {
      "id": "n-00274",
      "pitch": "C#4",
      "midi": 61,
      "start": 76.5,
      "duration": 0.5,
      "velocity": 0.71
    },
    {
      "id": "n-00275",
      "pitch": "F#4",
      "midi": 66,
      "start": 76.5,
      "duration": 0.5,
      "velocity": 0.71
    },
    {
      "id": "n-00276",
      "pitch": "A#4",
      "midi": 70,
      "start": 76.5,
      "duration": 0.5,
      "velocity": 0.71
    },
    {
      "id": "n-00277",
      "pitch": "C#5",
      "midi": 73,
      "start": 76.5,
      "duration": 0.5,
      "velocity": 0.71
    },
    {
      "id": "n-00278",
      "pitch": "A#5",
      "midi": 82,
      "start": 76.5,
      "duration": 0.5,
      "velocity": 0.71
    },
    {
      "id": "n-00279",
      "pitch": "C#6",
      "midi": 85,
      "start": 76.5,
      "duration": 0.5,
      "velocity": 0.71
    },
    {
      "id": "n-00280",
      "pitch": "D#4",
      "midi": 63,
      "start": 77,
      "duration": 0.5,
      "velocity": 0.71
    },
    {
      "id": "n-00281",
      "pitch": "F#4",
      "midi": 66,
      "start": 77,
      "duration": 0.5,
      "velocity": 0.71
    },
    {
      "id": "n-00282",
      "pitch": "A#4",
      "midi": 70,
      "start": 77,
      "duration": 0.5,
      "velocity": 0.71
    },
    {
      "id": "n-00283",
      "pitch": "D#5",
      "midi": 75,
      "start": 77,
      "duration": 0.5,
      "velocity": 0.71
    },
    {
      "id": "n-00284",
      "pitch": "A#5",
      "midi": 82,
      "start": 77,
      "duration": 0.5,
      "velocity": 0.71
    },
    {
      "id": "n-00285",
      "pitch": "D#6",
      "midi": 87,
      "start": 77,
      "duration": 0.5,
      "velocity": 0.71
    },
    {
      "id": "n-00286",
      "pitch": "C#4",
      "midi": 61,
      "start": 77.5,
      "duration": 0.5,
      "velocity": 0.71
    },
    {
      "id": "n-00287",
      "pitch": "F#4",
      "midi": 66,
      "start": 77.5,
      "duration": 0.5,
      "velocity": 0.71
    },
    {
      "id": "n-00288",
      "pitch": "A#4",
      "midi": 70,
      "start": 77.5,
      "duration": 0.5,
      "velocity": 0.71
    },
    {
      "id": "n-00289",
      "pitch": "C#5",
      "midi": 73,
      "start": 77.5,
      "duration": 0.5,
      "velocity": 0.71
    },
    {
      "id": "n-00290",
      "pitch": "A#5",
      "midi": 82,
      "start": 77.5,
      "duration": 0.5,
      "velocity": 0.71
    },
    {
      "id": "n-00291",
      "pitch": "C#6",
      "midi": 85,
      "start": 77.5,
      "duration": 0.5,
      "velocity": 0.71
    },
    {
      "id": "n-00292",
      "pitch": "C4",
      "midi": 60,
      "start": 78,
      "duration": 0.75,
      "velocity": 0.71
    },
    {
      "id": "n-00293",
      "pitch": "F#4",
      "midi": 66,
      "start": 78,
      "duration": 0.75,
      "velocity": 0.71
    },
    {
      "id": "n-00294",
      "pitch": "A#4",
      "midi": 70,
      "start": 78,
      "duration": 0.75,
      "velocity": 0.71
    },
    {
      "id": "n-00295",
      "pitch": "A#5",
      "midi": 82,
      "start": 78,
      "duration": 0.581,
      "velocity": 0.71
    },
    {
      "id": "n-00296",
      "pitch": "C6",
      "midi": 84,
      "start": 78,
      "duration": 0.581,
      "velocity": 0.71
    },
    {
      "id": "n-00297",
      "pitch": "D#6",
      "midi": 87,
      "start": 78.581,
      "duration": 0.167,
      "velocity": 0.71
    },
    {
      "id": "n-00298",
      "pitch": "C#4",
      "midi": 61,
      "start": 78.75,
      "duration": 0.75,
      "velocity": 0.71
    },
    {
      "id": "n-00299",
      "pitch": "F#4",
      "midi": 66,
      "start": 78.75,
      "duration": 0.75,
      "velocity": 0.71
    },
    {
      "id": "n-00300",
      "pitch": "A#4",
      "midi": 70,
      "start": 78.75,
      "duration": 0.75,
      "velocity": 0.71
    },
    {
      "id": "n-00301",
      "pitch": "C#5",
      "midi": 73,
      "start": 78.75,
      "duration": 0.75,
      "velocity": 0.71
    },
    {
      "id": "n-00302",
      "pitch": "A#5",
      "midi": 82,
      "start": 78.75,
      "duration": 0.75,
      "velocity": 0.71
    },
    {
      "id": "n-00303",
      "pitch": "C#6",
      "midi": 85,
      "start": 78.75,
      "duration": 0.75,
      "velocity": 0.71
    },
    {
      "id": "n-00304",
      "pitch": "A#3",
      "midi": 58,
      "start": 79.5,
      "duration": 1.5,
      "velocity": 0.71
    },
    {
      "id": "n-00305",
      "pitch": "D#4",
      "midi": 63,
      "start": 79.5,
      "duration": 1.5,
      "velocity": 0.71
    },
    {
      "id": "n-00306",
      "pitch": "F#4",
      "midi": 66,
      "start": 79.5,
      "duration": 1.5,
      "velocity": 0.71
    },
    {
      "id": "n-00307",
      "pitch": "A#4",
      "midi": 70,
      "start": 79.5,
      "duration": 2.25,
      "velocity": 0.71
    },
    {
      "id": "n-00308",
      "pitch": "F#5",
      "midi": 78,
      "start": 79.5,
      "duration": 2.25,
      "velocity": 0.71
    },
    {
      "id": "n-00309",
      "pitch": "A#5",
      "midi": 82,
      "start": 79.5,
      "duration": 2.25,
      "velocity": 0.71
    },
    {
      "id": "n-00310",
      "pitch": "G#1",
      "midi": 32,
      "start": 81,
      "duration": 3,
      "velocity": 0.71
    },
    {
      "id": "n-00311",
      "pitch": "G#2",
      "midi": 44,
      "start": 81,
      "duration": 3,
      "velocity": 0.71
    },
    {
      "id": "n-00312",
      "pitch": "F#3",
      "midi": 54,
      "start": 81.75,
      "duration": 0.75,
      "velocity": 0.71
    },
    {
      "id": "n-00313",
      "pitch": "F#4",
      "midi": 66,
      "start": 81.75,
      "duration": 0.75,
      "velocity": 0.71
    },
    {
      "id": "n-00314",
      "pitch": "F#5",
      "midi": 78,
      "start": 81.75,
      "duration": 0.75,
      "velocity": 0.71
    },
    {
      "id": "n-00315",
      "pitch": "G#3",
      "midi": 56,
      "start": 82.5,
      "duration": 0.75,
      "velocity": 0.71
    },
    {
      "id": "n-00316",
      "pitch": "C4",
      "midi": 60,
      "start": 82.5,
      "duration": 1.5,
      "velocity": 0.71
    },
    {
      "id": "n-00317",
      "pitch": "D#4",
      "midi": 63,
      "start": 82.5,
      "duration": 1.5,
      "velocity": 0.71
    },
    {
      "id": "n-00318",
      "pitch": "G#4",
      "midi": 68,
      "start": 82.5,
      "duration": 0.75,
      "velocity": 0.71
    },
    {
      "id": "n-00319",
      "pitch": "D#5",
      "midi": 75,
      "start": 82.5,
      "duration": 0.75,
      "velocity": 0.71
    },
    {
      "id": "n-00320",
      "pitch": "G#5",
      "midi": 80,
      "start": 82.5,
      "duration": 0.75,
      "velocity": 0.71
    },
    {
      "id": "n-00321",
      "pitch": "C5",
      "midi": 72,
      "start": 83.25,
      "duration": 0.75,
      "velocity": 0.71
    },
    {
      "id": "n-00322",
      "pitch": "C6",
      "midi": 84,
      "start": 83.25,
      "duration": 0.75,
      "velocity": 0.71
    },
    {
      "id": "n-00323",
      "pitch": "A#3",
      "midi": 58,
      "start": 84,
      "duration": 0.75,
      "velocity": 0.71
    },
    {
      "id": "n-00324",
      "pitch": "D#4",
      "midi": 63,
      "start": 84,
      "duration": 1.5,
      "velocity": 0.71
    },
    {
      "id": "n-00325",
      "pitch": "F#4",
      "midi": 66,
      "start": 84,
      "duration": 1.5,
      "velocity": 0.71
    },
    {
      "id": "n-00326",
      "pitch": "A#4",
      "midi": 70,
      "start": 84,
      "duration": 0.75,
      "velocity": 0.71
    },
    {
      "id": "n-00327",
      "pitch": "F#5",
      "midi": 78,
      "start": 84,
      "duration": 0.75,
      "velocity": 0.71
    },
    {
      "id": "n-00328",
      "pitch": "A#5",
      "midi": 82,
      "start": 84,
      "duration": 0.75,
      "velocity": 0.71
    },
    {
      "id": "n-00329",
      "pitch": "F#3",
      "midi": 54,
      "start": 84.75,
      "duration": 0.75,
      "velocity": 0.71
    },
    {
      "id": "n-00330",
      "pitch": "F#4",
      "midi": 66,
      "start": 84.75,
      "duration": 0.75,
      "velocity": 0.71
    },
    {
      "id": "n-00331",
      "pitch": "F#5",
      "midi": 78,
      "start": 84.75,
      "duration": 0.75,
      "velocity": 0.71
    },
    {
      "id": "n-00332",
      "pitch": "A1",
      "midi": 33,
      "start": 85.5,
      "duration": 3,
      "velocity": 0.71
    },
    {
      "id": "n-00333",
      "pitch": "A2",
      "midi": 45,
      "start": 85.5,
      "duration": 3,
      "velocity": 0.71
    },
    {
      "id": "n-00334",
      "pitch": "F#3",
      "midi": 54,
      "start": 86,
      "duration": 0.5,
      "velocity": 0.71
    },
    {
      "id": "n-00335",
      "pitch": "C4",
      "midi": 60,
      "start": 86,
      "duration": 0.5,
      "velocity": 0.71
    },
    {
      "id": "n-00336",
      "pitch": "D#4",
      "midi": 63,
      "start": 86,
      "duration": 0.5,
      "velocity": 0.71
    },
    {
      "id": "n-00337",
      "pitch": "F#4",
      "midi": 66,
      "start": 86,
      "duration": 0.5,
      "velocity": 0.71
    },
    {
      "id": "n-00338",
      "pitch": "C5",
      "midi": 72,
      "start": 86,
      "duration": 0.5,
      "velocity": 0.71
    },
    {
      "id": "n-00339",
      "pitch": "D#5",
      "midi": 75,
      "start": 86,
      "duration": 0.5,
      "velocity": 0.71
    },
    {
      "id": "n-00340",
      "pitch": "F#5",
      "midi": 78,
      "start": 86,
      "duration": 0.5,
      "velocity": 0.71
    },
    {
      "id": "n-00341",
      "pitch": "F#3",
      "midi": 54,
      "start": 86.5,
      "duration": 0.5,
      "velocity": 0.71
    },
    {
      "id": "n-00342",
      "pitch": "C4",
      "midi": 60,
      "start": 86.5,
      "duration": 0.5,
      "velocity": 0.71
    },
    {
      "id": "n-00343",
      "pitch": "D#4",
      "midi": 63,
      "start": 86.5,
      "duration": 0.5,
      "velocity": 0.71
    },
    {
      "id": "n-00344",
      "pitch": "F#4",
      "midi": 66,
      "start": 86.5,
      "duration": 0.5,
      "velocity": 0.71
    },
    {
      "id": "n-00345",
      "pitch": "C5",
      "midi": 72,
      "start": 86.5,
      "duration": 0.5,
      "velocity": 0.71
    },
    {
      "id": "n-00346",
      "pitch": "D#5",
      "midi": 75,
      "start": 86.5,
      "duration": 0.5,
      "velocity": 0.71
    },
    {
      "id": "n-00347",
      "pitch": "F#5",
      "midi": 78,
      "start": 86.5,
      "duration": 0.5,
      "velocity": 0.71
    },
    {
      "id": "n-00348",
      "pitch": "F#3",
      "midi": 54,
      "start": 87,
      "duration": 0.5,
      "velocity": 0.71
    },
    {
      "id": "n-00349",
      "pitch": "C4",
      "midi": 60,
      "start": 87,
      "duration": 0.5,
      "velocity": 0.71
    },
    {
      "id": "n-00350",
      "pitch": "D#4",
      "midi": 63,
      "start": 87,
      "duration": 0.5,
      "velocity": 0.71
    },
    {
      "id": "n-00351",
      "pitch": "F#4",
      "midi": 66,
      "start": 87,
      "duration": 0.5,
      "velocity": 0.71
    },
    {
      "id": "n-00352",
      "pitch": "C5",
      "midi": 72,
      "start": 87,
      "duration": 0.5,
      "velocity": 0.71
    },
    {
      "id": "n-00353",
      "pitch": "D#5",
      "midi": 75,
      "start": 87,
      "duration": 0.5,
      "velocity": 0.71
    },
    {
      "id": "n-00354",
      "pitch": "F#5",
      "midi": 78,
      "start": 87,
      "duration": 0.5,
      "velocity": 0.71
    },
    {
      "id": "n-00355",
      "pitch": "F#3",
      "midi": 54,
      "start": 87.5,
      "duration": 0.5,
      "velocity": 0.71
    },
    {
      "id": "n-00356",
      "pitch": "C4",
      "midi": 60,
      "start": 87.5,
      "duration": 0.5,
      "velocity": 0.71
    },
    {
      "id": "n-00357",
      "pitch": "D#4",
      "midi": 63,
      "start": 87.5,
      "duration": 0.5,
      "velocity": 0.71
    },
    {
      "id": "n-00358",
      "pitch": "F#4",
      "midi": 66,
      "start": 87.5,
      "duration": 0.5,
      "velocity": 0.71
    },
    {
      "id": "n-00359",
      "pitch": "C5",
      "midi": 72,
      "start": 87.5,
      "duration": 0.5,
      "velocity": 0.71
    },
    {
      "id": "n-00360",
      "pitch": "D#5",
      "midi": 75,
      "start": 87.5,
      "duration": 0.5,
      "velocity": 0.71
    },
    {
      "id": "n-00361",
      "pitch": "F#5",
      "midi": 78,
      "start": 87.5,
      "duration": 0.5,
      "velocity": 0.71
    },
    {
      "id": "n-00362",
      "pitch": "G#3",
      "midi": 56,
      "start": 88,
      "duration": 0.5,
      "velocity": 0.71
    },
    {
      "id": "n-00363",
      "pitch": "C4",
      "midi": 60,
      "start": 88,
      "duration": 0.5,
      "velocity": 0.71
    },
    {
      "id": "n-00364",
      "pitch": "D#4",
      "midi": 63,
      "start": 88,
      "duration": 0.5,
      "velocity": 0.71
    },
    {
      "id": "n-00365",
      "pitch": "G#4",
      "midi": 68,
      "start": 88,
      "duration": 0.5,
      "velocity": 0.71
    },
    {
      "id": "n-00366",
      "pitch": "C5",
      "midi": 72,
      "start": 88,
      "duration": 0.5,
      "velocity": 0.71
    },
    {
      "id": "n-00367",
      "pitch": "D#5",
      "midi": 75,
      "start": 88,
      "duration": 0.5,
      "velocity": 0.71
    },
    {
      "id": "n-00368",
      "pitch": "G#5",
      "midi": 80,
      "start": 88,
      "duration": 0.5,
      "velocity": 0.71
    },
    {
      "id": "n-00369",
      "pitch": "F#3",
      "midi": 54,
      "start": 88.5,
      "duration": 1.5,
      "velocity": 0.71
    },
    {
      "id": "n-00370",
      "pitch": "C4",
      "midi": 60,
      "start": 88.5,
      "duration": 1.5,
      "velocity": 0.71
    },
    {
      "id": "n-00371",
      "pitch": "D#4",
      "midi": 63,
      "start": 88.5,
      "duration": 1.5,
      "velocity": 0.71
    },
    {
      "id": "n-00372",
      "pitch": "F#4",
      "midi": 66,
      "start": 88.5,
      "duration": 1.5,
      "velocity": 0.71
    },
    {
      "id": "n-00373",
      "pitch": "C5",
      "midi": 72,
      "start": 88.5,
      "duration": 1.5,
      "velocity": 0.71
    },
    {
      "id": "n-00374",
      "pitch": "D#5",
      "midi": 75,
      "start": 88.5,
      "duration": 1.5,
      "velocity": 0.71
    },
    {
      "id": "n-00375",
      "pitch": "F#5",
      "midi": 78,
      "start": 88.5,
      "duration": 1.5,
      "velocity": 0.71
    },
    {
      "id": "n-00376",
      "pitch": "A#1",
      "midi": 34,
      "start": 90,
      "duration": 3,
      "velocity": 0.71
    },
    {
      "id": "n-00377",
      "pitch": "A#2",
      "midi": 46,
      "start": 90,
      "duration": 3,
      "velocity": 0.71
    },
    {
      "id": "n-00378",
      "pitch": "F#3",
      "midi": 54,
      "start": 90.75,
      "duration": 0.75,
      "velocity": 0.71
    },
    {
      "id": "n-00379",
      "pitch": "A#3",
      "midi": 58,
      "start": 90.75,
      "duration": 1.5,
      "velocity": 0.71
    },
    {
      "id": "n-00380",
      "pitch": "C#4",
      "midi": 61,
      "start": 90.75,
      "duration": 1.5,
      "velocity": 0.71
    },
    {
      "id": "n-00381",
      "pitch": "F#4",
      "midi": 66,
      "start": 90.75,
      "duration": 0.75,
      "velocity": 0.71
    },
    {
      "id": "n-00382",
      "pitch": "C#5",
      "midi": 73,
      "start": 90.75,
      "duration": 1.5,
      "velocity": 0.71
    },
    {
      "id": "n-00383",
      "pitch": "F#5",
      "midi": 78,
      "start": 90.75,
      "duration": 0.75,
      "velocity": 0.71
    },
    {
      "id": "n-00384",
      "pitch": "G#3",
      "midi": 56,
      "start": 91.5,
      "duration": 0.75,
      "velocity": 0.71
    },
    {
      "id": "n-00385",
      "pitch": "G#4",
      "midi": 68,
      "start": 91.5,
      "duration": 0.75,
      "velocity": 0.71
    },
    {
      "id": "n-00386",
      "pitch": "G#5",
      "midi": 80,
      "start": 91.5,
      "duration": 0.75,
      "velocity": 0.71
    },
    {
      "id": "n-00387",
      "pitch": "C#4",
      "midi": 61,
      "start": 92.25,
      "duration": 0.75,
      "velocity": 0.71
    },
    {
      "id": "n-00388",
      "pitch": "C#5",
      "midi": 73,
      "start": 92.25,
      "duration": 0.75,
      "velocity": 0.71
    },
    {
      "id": "n-00389",
      "pitch": "C#6",
      "midi": 85,
      "start": 92.25,
      "duration": 0.75,
      "velocity": 0.71
    },
    {
      "id": "n-00390",
      "pitch": "A#3",
      "midi": 58,
      "start": 93,
      "duration": 0.75,
      "velocity": 0.71
    },
    {
      "id": "n-00391",
      "pitch": "C#4",
      "midi": 61,
      "start": 93,
      "duration": 1.5,
      "velocity": 0.71
    },
    {
      "id": "n-00392",
      "pitch": "F#4",
      "midi": 66,
      "start": 93,
      "duration": 1.5,
      "velocity": 0.71
    },
    {
      "id": "n-00393",
      "pitch": "A#4",
      "midi": 70,
      "start": 93,
      "duration": 0.75,
      "velocity": 0.71
    },
    {
      "id": "n-00394",
      "pitch": "F#5",
      "midi": 78,
      "start": 93,
      "duration": 1.5,
      "velocity": 0.71
    },
    {
      "id": "n-00395",
      "pitch": "A#5",
      "midi": 82,
      "start": 93,
      "duration": 0.75,
      "velocity": 0.71
    },
    {
      "id": "n-00396",
      "pitch": "F#3",
      "midi": 54,
      "start": 93.75,
      "duration": 0.75,
      "velocity": 0.71
    },
    {
      "id": "n-00397",
      "pitch": "F#4",
      "midi": 66,
      "start": 93.75,
      "duration": 0.75,
      "velocity": 0.71
    },
    {
      "id": "n-00398",
      "pitch": "G#1",
      "midi": 32,
      "start": 94.5,
      "duration": 3,
      "velocity": 0.71
    },
    {
      "id": "n-00399",
      "pitch": "G#2",
      "midi": 44,
      "start": 94.5,
      "duration": 3,
      "velocity": 0.71
    },
    {
      "id": "n-00400",
      "pitch": "F#3",
      "midi": 54,
      "start": 95,
      "duration": 0.5,
      "velocity": 0.71
    },
    {
      "id": "n-00401",
      "pitch": "A#3",
      "midi": 58,
      "start": 95,
      "duration": 0.5,
      "velocity": 0.71
    },
    {
      "id": "n-00402",
      "pitch": "D#4",
      "midi": 63,
      "start": 95,
      "duration": 0.5,
      "velocity": 0.71
    },
    {
      "id": "n-00403",
      "pitch": "F#4",
      "midi": 66,
      "start": 95,
      "duration": 0.5,
      "velocity": 0.71
    },
    {
      "id": "n-00404",
      "pitch": "A#4",
      "midi": 70,
      "start": 95,
      "duration": 0.5,
      "velocity": 0.71
    },
    {
      "id": "n-00405",
      "pitch": "D#5",
      "midi": 75,
      "start": 95,
      "duration": 0.5,
      "velocity": 0.71
    },
    {
      "id": "n-00406",
      "pitch": "F#5",
      "midi": 78,
      "start": 95,
      "duration": 0.5,
      "velocity": 0.71
    },
    {
      "id": "n-00407",
      "pitch": "F#3",
      "midi": 54,
      "start": 95.5,
      "duration": 0.5,
      "velocity": 0.71
    },
    {
      "id": "n-00408",
      "pitch": "A#3",
      "midi": 58,
      "start": 95.5,
      "duration": 0.5,
      "velocity": 0.71
    },
    {
      "id": "n-00409",
      "pitch": "D#4",
      "midi": 63,
      "start": 95.5,
      "duration": 0.5,
      "velocity": 0.71
    },
    {
      "id": "n-00410",
      "pitch": "F#4",
      "midi": 66,
      "start": 95.5,
      "duration": 0.5,
      "velocity": 0.71
    },
    {
      "id": "n-00411",
      "pitch": "A#4",
      "midi": 70,
      "start": 95.5,
      "duration": 0.5,
      "velocity": 0.71
    },
    {
      "id": "n-00412",
      "pitch": "D#5",
      "midi": 75,
      "start": 95.5,
      "duration": 0.5,
      "velocity": 0.71
    },
    {
      "id": "n-00413",
      "pitch": "F#5",
      "midi": 78,
      "start": 95.5,
      "duration": 0.5,
      "velocity": 0.71
    },
    {
      "id": "n-00414",
      "pitch": "F#3",
      "midi": 54,
      "start": 96,
      "duration": 0.5,
      "velocity": 0.71
    },
    {
      "id": "n-00415",
      "pitch": "A#3",
      "midi": 58,
      "start": 96,
      "duration": 0.5,
      "velocity": 0.71
    },
    {
      "id": "n-00416",
      "pitch": "D#4",
      "midi": 63,
      "start": 96,
      "duration": 0.5,
      "velocity": 0.71
    },
    {
      "id": "n-00417",
      "pitch": "F#4",
      "midi": 66,
      "start": 96,
      "duration": 0.5,
      "velocity": 0.71
    },
    {
      "id": "n-00418",
      "pitch": "A#4",
      "midi": 70,
      "start": 96,
      "duration": 0.5,
      "velocity": 0.71
    },
    {
      "id": "n-00419",
      "pitch": "D#5",
      "midi": 75,
      "start": 96,
      "duration": 0.5,
      "velocity": 0.71
    },
    {
      "id": "n-00420",
      "pitch": "F#5",
      "midi": 78,
      "start": 96,
      "duration": 0.5,
      "velocity": 0.71
    },
    {
      "id": "n-00421",
      "pitch": "F#3",
      "midi": 54,
      "start": 96.5,
      "duration": 0.5,
      "velocity": 0.71
    },
    {
      "id": "n-00422",
      "pitch": "A#3",
      "midi": 58,
      "start": 96.5,
      "duration": 0.5,
      "velocity": 0.71
    },
    {
      "id": "n-00423",
      "pitch": "D#4",
      "midi": 63,
      "start": 96.5,
      "duration": 0.5,
      "velocity": 0.71
    },
    {
      "id": "n-00424",
      "pitch": "F#4",
      "midi": 66,
      "start": 96.5,
      "duration": 0.5,
      "velocity": 0.71
    },
    {
      "id": "n-00425",
      "pitch": "A#4",
      "midi": 70,
      "start": 96.5,
      "duration": 0.5,
      "velocity": 0.71
    },
    {
      "id": "n-00426",
      "pitch": "D#5",
      "midi": 75,
      "start": 96.5,
      "duration": 0.5,
      "velocity": 0.71
    },
    {
      "id": "n-00427",
      "pitch": "F#5",
      "midi": 78,
      "start": 96.5,
      "duration": 0.5,
      "velocity": 0.71
    },
    {
      "id": "n-00428",
      "pitch": "G#3",
      "midi": 56,
      "start": 97,
      "duration": 0.5,
      "velocity": 0.71
    },
    {
      "id": "n-00429",
      "pitch": "C4",
      "midi": 60,
      "start": 97,
      "duration": 0.5,
      "velocity": 0.71
    },
    {
      "id": "n-00430",
      "pitch": "F4",
      "midi": 65,
      "start": 97,
      "duration": 0.5,
      "velocity": 0.71
    },
    {
      "id": "n-00431",
      "pitch": "G#4",
      "midi": 68,
      "start": 97,
      "duration": 0.5,
      "velocity": 0.71
    },
    {
      "id": "n-00432",
      "pitch": "C5",
      "midi": 72,
      "start": 97,
      "duration": 0.5,
      "velocity": 0.71
    },
    {
      "id": "n-00433",
      "pitch": "F5",
      "midi": 77,
      "start": 97,
      "duration": 0.5,
      "velocity": 0.71
    },
    {
      "id": "n-00434",
      "pitch": "G#5",
      "midi": 80,
      "start": 97,
      "duration": 0.5,
      "velocity": 0.71
    },
    {
      "id": "n-00435",
      "pitch": "F#3",
      "midi": 54,
      "start": 97.5,
      "duration": 1.5,
      "velocity": 0.71
    },
    {
      "id": "n-00436",
      "pitch": "A#3",
      "midi": 58,
      "start": 97.5,
      "duration": 1.5,
      "velocity": 0.71
    },
    {
      "id": "n-00437",
      "pitch": "D#4",
      "midi": 63,
      "start": 97.5,
      "duration": 1.5,
      "velocity": 0.71
    },
    {
      "id": "n-00438",
      "pitch": "F#4",
      "midi": 66,
      "start": 97.5,
      "duration": 1.5,
      "velocity": 0.71
    },
    {
      "id": "n-00439",
      "pitch": "A#4",
      "midi": 70,
      "start": 97.5,
      "duration": 1.5,
      "velocity": 0.71
    },
    {
      "id": "n-00440",
      "pitch": "D#5",
      "midi": 75,
      "start": 97.5,
      "duration": 1.5,
      "velocity": 0.71
    },
    {
      "id": "n-00441",
      "pitch": "F#5",
      "midi": 78,
      "start": 97.5,
      "duration": 1.5,
      "velocity": 0.71
    },
    {
      "id": "n-00442",
      "pitch": "C#2",
      "midi": 37,
      "start": 99,
      "duration": 3,
      "velocity": 0.71
    },
    {
      "id": "n-00443",
      "pitch": "C#3",
      "midi": 49,
      "start": 99,
      "duration": 3,
      "velocity": 0.71
    },
    {
      "id": "n-00444",
      "pitch": "F#3",
      "midi": 54,
      "start": 99.75,
      "duration": 0.75,
      "velocity": 0.71
    },
    {
      "id": "n-00445",
      "pitch": "A#3",
      "midi": 58,
      "start": 99.75,
      "duration": 2.25,
      "velocity": 0.71
    },
    {
      "id": "n-00446",
      "pitch": "C#4",
      "midi": 61,
      "start": 99.75,
      "duration": 2.25,
      "velocity": 0.71
    },
    {
      "id": "n-00447",
      "pitch": "F#4",
      "midi": 66,
      "start": 99.75,
      "duration": 0.75,
      "velocity": 0.71
    },
    {
      "id": "n-00448",
      "pitch": "A#4",
      "midi": 70,
      "start": 99.75,
      "duration": 2.25,
      "velocity": 0.71
    },
    {
      "id": "n-00449",
      "pitch": "C#5",
      "midi": 73,
      "start": 99.75,
      "duration": 2.25,
      "velocity": 0.71
    },
    {
      "id": "n-00450",
      "pitch": "F#5",
      "midi": 78,
      "start": 99.75,
      "duration": 0.75,
      "velocity": 0.71
    },
    {
      "id": "n-00451",
      "pitch": "G#3",
      "midi": 56,
      "start": 100.5,
      "duration": 0.75,
      "velocity": 0.71
    },
    {
      "id": "n-00452",
      "pitch": "G#4",
      "midi": 68,
      "start": 100.5,
      "duration": 0.75,
      "velocity": 0.71
    },
    {
      "id": "n-00453",
      "pitch": "G#5",
      "midi": 80,
      "start": 100.5,
      "duration": 0.75,
      "velocity": 0.71
    },
    {
      "id": "n-00454",
      "pitch": "D#4",
      "midi": 63,
      "start": 101.25,
      "duration": 0.75,
      "velocity": 0.71
    },
    {
      "id": "n-00455",
      "pitch": "D#5",
      "midi": 75,
      "start": 101.25,
      "duration": 0.75,
      "velocity": 0.71
    },
    {
      "id": "n-00456",
      "pitch": "D#6",
      "midi": 87,
      "start": 101.25,
      "duration": 0.75,
      "velocity": 0.71
    },
    {
      "id": "n-00457",
      "pitch": "C#4",
      "midi": 61,
      "start": 102,
      "duration": 0.75,
      "velocity": 0.71
    },
    {
      "id": "n-00458",
      "pitch": "F#4",
      "midi": 66,
      "start": 102,
      "duration": 1.5,
      "velocity": 0.71
    },
    {
      "id": "n-00459",
      "pitch": "A#4",
      "midi": 70,
      "start": 102,
      "duration": 1.5,
      "velocity": 0.71
    },
    {
      "id": "n-00460",
      "pitch": "C#5",
      "midi": 73,
      "start": 102,
      "duration": 0.75,
      "velocity": 0.71
    },
    {
      "id": "n-00461",
      "pitch": "F#5",
      "midi": 78,
      "start": 102,
      "duration": 1.5,
      "velocity": 0.71
    },
    {
      "id": "n-00462",
      "pitch": "A#5",
      "midi": 82,
      "start": 102,
      "duration": 1.5,
      "velocity": 0.71
    },
    {
      "id": "n-00463",
      "pitch": "C#6",
      "midi": 85,
      "start": 102,
      "duration": 0.75,
      "velocity": 0.71
    },
    {
      "id": "n-00464",
      "pitch": "A#3",
      "midi": 58,
      "start": 102.75,
      "duration": 0.75,
      "velocity": 0.71
    },
    {
      "id": "n-00465",
      "pitch": "A#4",
      "midi": 70,
      "start": 102.75,
      "duration": 0.75,
      "velocity": 0.71
    },
    {
      "id": "n-00466",
      "pitch": "D#2",
      "midi": 39,
      "start": 103.5,
      "duration": 3,
      "velocity": 0.71
    },
    {
      "id": "n-00467",
      "pitch": "D#3",
      "midi": 51,
      "start": 103.5,
      "duration": 3,
      "velocity": 0.71
    },
    {
      "id": "n-00468",
      "pitch": "A#3",
      "midi": 58,
      "start": 104,
      "duration": 0.5,
      "velocity": 0.71
    },
    {
      "id": "n-00469",
      "pitch": "C#4",
      "midi": 61,
      "start": 104,
      "duration": 0.5,
      "velocity": 0.71
    },
    {
      "id": "n-00470",
      "pitch": "F#4",
      "midi": 66,
      "start": 104,
      "duration": 0.5,
      "velocity": 0.71
    },
    {
      "id": "n-00471",
      "pitch": "A#4",
      "midi": 70,
      "start": 104,
      "duration": 0.5,
      "velocity": 0.71
    },
    {
      "id": "n-00472",
      "pitch": "F#5",
      "midi": 78,
      "start": 104,
      "duration": 0.5,
      "velocity": 0.71
    },
    {
      "id": "n-00473",
      "pitch": "A#5",
      "midi": 82,
      "start": 104,
      "duration": 0.5,
      "velocity": 0.71
    },
    {
      "id": "n-00474",
      "pitch": "A#3",
      "midi": 58,
      "start": 104.5,
      "duration": 0.5,
      "velocity": 0.71
    },
    {
      "id": "n-00475",
      "pitch": "C#4",
      "midi": 61,
      "start": 104.5,
      "duration": 0.5,
      "velocity": 0.71
    },
    {
      "id": "n-00476",
      "pitch": "F#4",
      "midi": 66,
      "start": 104.5,
      "duration": 0.5,
      "velocity": 0.71
    },
    {
      "id": "n-00477",
      "pitch": "A#4",
      "midi": 70,
      "start": 104.5,
      "duration": 0.5,
      "velocity": 0.71
    },
    {
      "id": "n-00478",
      "pitch": "F#5",
      "midi": 78,
      "start": 104.5,
      "duration": 0.5,
      "velocity": 0.71
    },
    {
      "id": "n-00479",
      "pitch": "A#5",
      "midi": 82,
      "start": 104.5,
      "duration": 0.5,
      "velocity": 0.71
    },
    {
      "id": "n-00480",
      "pitch": "A#3",
      "midi": 58,
      "start": 105,
      "duration": 0.5,
      "velocity": 0.71
    },
    {
      "id": "n-00481",
      "pitch": "C#4",
      "midi": 61,
      "start": 105,
      "duration": 0.5,
      "velocity": 0.71
    },
    {
      "id": "n-00482",
      "pitch": "F#4",
      "midi": 66,
      "start": 105,
      "duration": 0.5,
      "velocity": 0.71
    },
    {
      "id": "n-00483",
      "pitch": "A#4",
      "midi": 70,
      "start": 105,
      "duration": 0.5,
      "velocity": 0.71
    },
    {
      "id": "n-00484",
      "pitch": "F#5",
      "midi": 78,
      "start": 105,
      "duration": 0.5,
      "velocity": 0.71
    },
    {
      "id": "n-00485",
      "pitch": "A#5",
      "midi": 82,
      "start": 105,
      "duration": 0.5,
      "velocity": 0.71
    },
    {
      "id": "n-00486",
      "pitch": "A#3",
      "midi": 58,
      "start": 105.5,
      "duration": 0.5,
      "velocity": 0.71
    },
    {
      "id": "n-00487",
      "pitch": "C#4",
      "midi": 61,
      "start": 105.5,
      "duration": 0.5,
      "velocity": 0.71
    },
    {
      "id": "n-00488",
      "pitch": "F#4",
      "midi": 66,
      "start": 105.5,
      "duration": 0.5,
      "velocity": 0.71
    },
    {
      "id": "n-00489",
      "pitch": "A#4",
      "midi": 70,
      "start": 105.5,
      "duration": 0.5,
      "velocity": 0.71
    },
    {
      "id": "n-00490",
      "pitch": "F#5",
      "midi": 78,
      "start": 105.5,
      "duration": 0.5,
      "velocity": 0.71
    },
    {
      "id": "n-00491",
      "pitch": "A#5",
      "midi": 82,
      "start": 105.5,
      "duration": 0.5,
      "velocity": 0.71
    },
    {
      "id": "n-00492",
      "pitch": "C4",
      "midi": 60,
      "start": 106,
      "duration": 0.5,
      "velocity": 0.71
    },
    {
      "id": "n-00493",
      "pitch": "D#4",
      "midi": 63,
      "start": 106,
      "duration": 0.5,
      "velocity": 0.71
    },
    {
      "id": "n-00494",
      "pitch": "G#4",
      "midi": 68,
      "start": 106,
      "duration": 0.5,
      "velocity": 0.71
    },
    {
      "id": "n-00495",
      "pitch": "C5",
      "midi": 72,
      "start": 106,
      "duration": 0.5,
      "velocity": 0.71
    },
    {
      "id": "n-00496",
      "pitch": "G#5",
      "midi": 80,
      "start": 106,
      "duration": 0.5,
      "velocity": 0.71
    },
    {
      "id": "n-00497",
      "pitch": "C6",
      "midi": 84,
      "start": 106,
      "duration": 0.5,
      "velocity": 0.71
    },
    {
      "id": "n-00498",
      "pitch": "A#3",
      "midi": 58,
      "start": 106.5,
      "duration": 0.5,
      "velocity": 0.71
    },
    {
      "id": "n-00499",
      "pitch": "C#4",
      "midi": 61,
      "start": 106.5,
      "duration": 0.5,
      "velocity": 0.71
    },
    {
      "id": "n-00500",
      "pitch": "F#4",
      "midi": 66,
      "start": 106.5,
      "duration": 0.5,
      "velocity": 0.71
    },
    {
      "id": "n-00501",
      "pitch": "A#4",
      "midi": 70,
      "start": 106.5,
      "duration": 0.5,
      "velocity": 0.71
    },
    {
      "id": "n-00502",
      "pitch": "F#5",
      "midi": 78,
      "start": 106.5,
      "duration": 0.5,
      "velocity": 0.71
    },
    {
      "id": "n-00503",
      "pitch": "A#5",
      "midi": 82,
      "start": 106.5,
      "duration": 0.5,
      "velocity": 0.71
    },
    {
      "id": "n-00504",
      "pitch": "C#4",
      "midi": 61,
      "start": 107,
      "duration": 0.5,
      "velocity": 0.71
    },
    {
      "id": "n-00505",
      "pitch": "F#4",
      "midi": 66,
      "start": 107,
      "duration": 0.5,
      "velocity": 0.71
    },
    {
      "id": "n-00506",
      "pitch": "A#4",
      "midi": 70,
      "start": 107,
      "duration": 0.5,
      "velocity": 0.71
    },
    {
      "id": "n-00507",
      "pitch": "C#5",
      "midi": 73,
      "start": 107,
      "duration": 0.5,
      "velocity": 0.71
    },
    {
      "id": "n-00508",
      "pitch": "A#5",
      "midi": 82,
      "start": 107,
      "duration": 0.5,
      "velocity": 0.71
    },
    {
      "id": "n-00509",
      "pitch": "C#6",
      "midi": 85,
      "start": 107,
      "duration": 0.5,
      "velocity": 0.71
    },
    {
      "id": "n-00510",
      "pitch": "D#4",
      "midi": 63,
      "start": 107.5,
      "duration": 0.5,
      "velocity": 0.71
    },
    {
      "id": "n-00511",
      "pitch": "F#4",
      "midi": 66,
      "start": 107.5,
      "duration": 0.5,
      "velocity": 0.71
    },
    {
      "id": "n-00512",
      "pitch": "A#4",
      "midi": 70,
      "start": 107.5,
      "duration": 0.5,
      "velocity": 0.71
    },
    {
      "id": "n-00513",
      "pitch": "D#5",
      "midi": 75,
      "start": 107.5,
      "duration": 0.5,
      "velocity": 0.71
    },
    {
      "id": "n-00514",
      "pitch": "A#5",
      "midi": 82,
      "start": 107.5,
      "duration": 0.5,
      "velocity": 0.71
    },
    {
      "id": "n-00515",
      "pitch": "D#6",
      "midi": 87,
      "start": 107.5,
      "duration": 0.5,
      "velocity": 0.71
    },
    {
      "id": "n-00516",
      "pitch": "F4",
      "midi": 65,
      "start": 108,
      "duration": 3,
      "velocity": 0.71
    },
    {
      "id": "n-00517",
      "pitch": "G#4",
      "midi": 68,
      "start": 108,
      "duration": 3,
      "velocity": 0.71
    },
    {
      "id": "n-00518",
      "pitch": "C#5",
      "midi": 73,
      "start": 108,
      "duration": 3,
      "velocity": 0.71
    },
    {
      "id": "n-00519",
      "pitch": "F5",
      "midi": 77,
      "start": 108,
      "duration": 3,
      "velocity": 0.71
    },
    {
      "id": "n-00520",
      "pitch": "G#5",
      "midi": 80,
      "start": 108,
      "duration": 3,
      "velocity": 0.71
    },
    {
      "id": "n-00521",
      "pitch": "C#6",
      "midi": 85,
      "start": 108,
      "duration": 3,
      "velocity": 0.71
    },
    {
      "id": "n-00522",
      "pitch": "G#6",
      "midi": 92,
      "start": 108,
      "duration": 3,
      "velocity": 0.71
    },
    {
      "id": "n-00523",
      "pitch": "E4",
      "midi": 64,
      "start": 111,
      "duration": 1.5,
      "velocity": 0.71
    },
    {
      "id": "n-00524",
      "pitch": "G#4",
      "midi": 68,
      "start": 111,
      "duration": 1.5,
      "velocity": 0.71
    },
    {
      "id": "n-00525",
      "pitch": "A#4",
      "midi": 70,
      "start": 111,
      "duration": 1.5,
      "velocity": 0.71
    },
    {
      "id": "n-00526",
      "pitch": "C#5",
      "midi": 73,
      "start": 111,
      "duration": 1.5,
      "velocity": 0.71
    },
    {
      "id": "n-00527",
      "pitch": "E5",
      "midi": 76,
      "start": 111,
      "duration": 1.5,
      "velocity": 0.71
    },
    {
      "id": "n-00528",
      "pitch": "G#5",
      "midi": 80,
      "start": 111,
      "duration": 1.5,
      "velocity": 0.71
    },
    {
      "id": "n-00529",
      "pitch": "C#6",
      "midi": 85,
      "start": 111,
      "duration": 1.5,
      "velocity": 0.71
    },
    {
      "id": "n-00530",
      "pitch": "G#6",
      "midi": 92,
      "start": 111,
      "duration": 1.5,
      "velocity": 0.71
    },
    {
      "id": "n-00531",
      "pitch": "D#4",
      "midi": 63,
      "start": 112.5,
      "duration": 3,
      "velocity": 0.71
    },
    {
      "id": "n-00532",
      "pitch": "F#4",
      "midi": 66,
      "start": 112.5,
      "duration": 3,
      "velocity": 0.71
    },
    {
      "id": "n-00533",
      "pitch": "G#4",
      "midi": 68,
      "start": 112.5,
      "duration": 3,
      "velocity": 0.71
    },
    {
      "id": "n-00534",
      "pitch": "C#5",
      "midi": 73,
      "start": 112.5,
      "duration": 3,
      "velocity": 0.71
    },
    {
      "id": "n-00535",
      "pitch": "D#5",
      "midi": 75,
      "start": 112.5,
      "duration": 3,
      "velocity": 0.71
    },
    {
      "id": "n-00536",
      "pitch": "G#5",
      "midi": 80,
      "start": 112.5,
      "duration": 3,
      "velocity": 0.71
    },
    {
      "id": "n-00537",
      "pitch": "C#6",
      "midi": 85,
      "start": 112.5,
      "duration": 3,
      "velocity": 0.71
    },
    {
      "id": "n-00538",
      "pitch": "G#6",
      "midi": 92,
      "start": 112.5,
      "duration": 3,
      "velocity": 0.71
    },
    {
      "id": "n-00539",
      "pitch": "G#3",
      "midi": 56,
      "start": 115.5,
      "duration": 1.5,
      "velocity": 0.71
    },
    {
      "id": "n-00540",
      "pitch": "D#4",
      "midi": 63,
      "start": 115.5,
      "duration": 1.5,
      "velocity": 0.71
    },
    {
      "id": "n-00541",
      "pitch": "F#4",
      "midi": 66,
      "start": 115.5,
      "duration": 1.5,
      "velocity": 0.71
    },
    {
      "id": "n-00542",
      "pitch": "G#4",
      "midi": 68,
      "start": 115.5,
      "duration": 1.5,
      "velocity": 0.71
    },
    {
      "id": "n-00543",
      "pitch": "C5",
      "midi": 72,
      "start": 115.5,
      "duration": 1.5,
      "velocity": 0.71
    },
    {
      "id": "n-00544",
      "pitch": "D#5",
      "midi": 75,
      "start": 115.5,
      "duration": 1.5,
      "velocity": 0.71
    },
    {
      "id": "n-00545",
      "pitch": "G#5",
      "midi": 80,
      "start": 115.5,
      "duration": 1.5,
      "velocity": 0.71
    },
    {
      "id": "n-00546",
      "pitch": "C#2",
      "midi": 37,
      "start": 117,
      "duration": 1.5,
      "velocity": 0.71
    },
    {
      "id": "n-00547",
      "pitch": "F4",
      "midi": 65,
      "start": 117,
      "duration": 3,
      "velocity": 0.71
    },
    {
      "id": "n-00548",
      "pitch": "G#4",
      "midi": 68,
      "start": 117,
      "duration": 3,
      "velocity": 0.71
    },
    {
      "id": "n-00549",
      "pitch": "G#2",
      "midi": 44,
      "start": 117.25,
      "duration": 0.25,
      "velocity": 0.71
    },
    {
      "id": "n-00550",
      "pitch": "C#3",
      "midi": 49,
      "start": 117.5,
      "duration": 0.25,
      "velocity": 0.71
    },
    {
      "id": "n-00551",
      "pitch": "F3",
      "midi": 53,
      "start": 117.75,
      "duration": 0.25,
      "velocity": 0.71
    },
    {
      "id": "n-00552",
      "pitch": "G#3",
      "midi": 56,
      "start": 118,
      "duration": 0.25,
      "velocity": 0.71
    },
    {
      "id": "n-00553",
      "pitch": "C#4",
      "midi": 61,
      "start": 118.25,
      "duration": 0.25,
      "velocity": 0.71
    },
    {
      "id": "n-00554",
      "pitch": "F2",
      "midi": 41,
      "start": 118.5,
      "duration": 1.5,
      "velocity": 0.71
    },
    {
      "id": "n-00555",
      "pitch": "C3",
      "midi": 48,
      "start": 118.75,
      "duration": 0.25,
      "velocity": 0.71
    },
    {
      "id": "n-00556",
      "pitch": "F3",
      "midi": 53,
      "start": 119,
      "duration": 0.25,
      "velocity": 0.71
    },
    {
      "id": "n-00557",
      "pitch": "G#3",
      "midi": 56,
      "start": 119.25,
      "duration": 0.25,
      "velocity": 0.71
    },
    {
      "id": "n-00558",
      "pitch": "C4",
      "midi": 60,
      "start": 119.5,
      "duration": 0.25,
      "velocity": 0.71
    },
    {
      "id": "n-00559",
      "pitch": "G#2",
      "midi": 44,
      "start": 120,
      "duration": 1.5,
      "velocity": 0.71
    },
    {
      "id": "n-00560",
      "pitch": "G#4",
      "midi": 68,
      "start": 120,
      "duration": 1,
      "velocity": 0.71
    },
    {
      "id": "n-00561",
      "pitch": "B4",
      "midi": 71,
      "start": 120,
      "duration": 1,
      "velocity": 0.71
    },
    {
      "id": "n-00562",
      "pitch": "E3",
      "midi": 52,
      "start": 120.25,
      "duration": 0.25,
      "velocity": 0.71
    },
    {
      "id": "n-00563",
      "pitch": "G#3",
      "midi": 56,
      "start": 120.5,
      "duration": 0.25,
      "velocity": 0.71
    },
    {
      "id": "n-00564",
      "pitch": "B3",
      "midi": 59,
      "start": 120.75,
      "duration": 0.25,
      "velocity": 0.71
    },
    {
      "id": "n-00565",
      "pitch": "E4",
      "midi": 64,
      "start": 121,
      "duration": 0.25,
      "velocity": 0.71
    },
    {
      "id": "n-00566",
      "pitch": "C#5",
      "midi": 73,
      "start": 121,
      "duration": 0.5,
      "velocity": 0.71
    },
    {
      "id": "n-00567",
      "pitch": "G#4",
      "midi": 68,
      "start": 121.25,
      "duration": 0.25,
      "velocity": 0.71
    },
    {
      "id": "n-00568",
      "pitch": "C#2",
      "midi": 37,
      "start": 121.5,
      "duration": 1.5,
      "velocity": 0.71
    },
    {
      "id": "n-00569",
      "pitch": "F4",
      "midi": 65,
      "start": 121.5,
      "duration": 3,
      "velocity": 0.71
    },
    {
      "id": "n-00570",
      "pitch": "G#4",
      "midi": 68,
      "start": 121.5,
      "duration": 3,
      "velocity": 0.71
    },
    {
      "id": "n-00571",
      "pitch": "G#2",
      "midi": 44,
      "start": 121.75,
      "duration": 0.25,
      "velocity": 0.71
    },
    {
      "id": "n-00572",
      "pitch": "C#3",
      "midi": 49,
      "start": 122,
      "duration": 0.25,
      "velocity": 0.71
    },
    {
      "id": "n-00573",
      "pitch": "F3",
      "midi": 53,
      "start": 122.25,
      "duration": 0.25,
      "velocity": 0.71
    },
    {
      "id": "n-00574",
      "pitch": "G#3",
      "midi": 56,
      "start": 122.5,
      "duration": 0.25,
      "velocity": 0.71
    },
    {
      "id": "n-00575",
      "pitch": "C#4",
      "midi": 61,
      "start": 122.75,
      "duration": 0.25,
      "velocity": 0.71
    },
    {
      "id": "n-00576",
      "pitch": "F2",
      "midi": 41,
      "start": 123,
      "duration": 1.5,
      "velocity": 0.71
    },
    {
      "id": "n-00577",
      "pitch": "C3",
      "midi": 48,
      "start": 123.25,
      "duration": 0.25,
      "velocity": 0.71
    },
    {
      "id": "n-00578",
      "pitch": "F3",
      "midi": 53,
      "start": 123.5,
      "duration": 0.25,
      "velocity": 0.71
    },
    {
      "id": "n-00579",
      "pitch": "G#3",
      "midi": 56,
      "start": 123.75,
      "duration": 0.25,
      "velocity": 0.71
    },
    {
      "id": "n-00580",
      "pitch": "C4",
      "midi": 60,
      "start": 124,
      "duration": 0.25,
      "velocity": 0.71
    },
    {
      "id": "n-00581",
      "pitch": "G#2",
      "midi": 44,
      "start": 124.5,
      "duration": 1.5,
      "velocity": 0.71
    },
    {
      "id": "n-00582",
      "pitch": "G#4",
      "midi": 68,
      "start": 124.5,
      "duration": 1,
      "velocity": 0.71
    },
    {
      "id": "n-00583",
      "pitch": "B4",
      "midi": 71,
      "start": 124.5,
      "duration": 1,
      "velocity": 0.71
    },
    {
      "id": "n-00584",
      "pitch": "E3",
      "midi": 52,
      "start": 124.75,
      "duration": 0.25,
      "velocity": 0.71
    },
    {
      "id": "n-00585",
      "pitch": "G#3",
      "midi": 56,
      "start": 125,
      "duration": 0.25,
      "velocity": 0.71
    },
    {
      "id": "n-00586",
      "pitch": "B3",
      "midi": 59,
      "start": 125.25,
      "duration": 0.25,
      "velocity": 0.71
    },
    {
      "id": "n-00587",
      "pitch": "G#4",
      "midi": 68,
      "start": 125.5,
      "duration": 0.5,
      "velocity": 0.71
    },
    {
      "id": "n-00588",
      "pitch": "E4",
      "midi": 64,
      "start": 125.75,
      "duration": 0.25,
      "velocity": 0.71
    },
    {
      "id": "n-00589",
      "pitch": "C#2",
      "midi": 37,
      "start": 126,
      "duration": 0.25,
      "velocity": 0.71
    },
    {
      "id": "n-00590",
      "pitch": "F4",
      "midi": 65,
      "start": 126,
      "duration": 1,
      "velocity": 0.71
    },
    {
      "id": "n-00591",
      "pitch": "C#5",
      "midi": 73,
      "start": 126,
      "duration": 1,
      "velocity": 0.71
    },
    {
      "id": "n-00592",
      "pitch": "G#2",
      "midi": 44,
      "start": 126.25,
      "duration": 0.25,
      "velocity": 0.71
    },
    {
      "id": "n-00593",
      "pitch": "C#3",
      "midi": 49,
      "start": 126.5,
      "duration": 0.25,
      "velocity": 0.71
    },
    {
      "id": "n-00594",
      "pitch": "F3",
      "midi": 53,
      "start": 126.75,
      "duration": 0.25,
      "velocity": 0.71
    },
    {
      "id": "n-00595",
      "pitch": "G#3",
      "midi": 56,
      "start": 127,
      "duration": 0.25,
      "velocity": 0.71
    },
    {
      "id": "n-00596",
      "pitch": "G#4",
      "midi": 68,
      "start": 127,
      "duration": 0.5,
      "velocity": 0.71
    },
    {
      "id": "n-00597",
      "pitch": "D#5",
      "midi": 75,
      "start": 127,
      "duration": 0.5,
      "velocity": 0.71
    },
    {
      "id": "n-00598",
      "pitch": "C#4",
      "midi": 61,
      "start": 127.25,
      "duration": 0.25,
      "velocity": 0.71
    },
    {
      "id": "n-00599",
      "pitch": "F4",
      "midi": 65,
      "start": 127.5,
      "duration": 0.25,
      "velocity": 0.71
    },
    {
      "id": "n-00600",
      "pitch": "C#5",
      "midi": 73,
      "start": 127.5,
      "duration": 1.5,
      "velocity": 0.71
    },
    {
      "id": "n-00601",
      "pitch": "F5",
      "midi": 77,
      "start": 127.5,
      "duration": 1.5,
      "velocity": 0.71
    },
    {
      "id": "n-00602",
      "pitch": "G#4",
      "midi": 68,
      "start": 127.75,
      "duration": 0.25,
      "velocity": 0.71
    },
    {
      "id": "n-00603",
      "pitch": "F4",
      "midi": 65,
      "start": 128,
      "duration": 0.25,
      "velocity": 0.71
    },
    {
      "id": "n-00604",
      "pitch": "C#4",
      "midi": 61,
      "start": 128.25,
      "duration": 0.25,
      "velocity": 0.71
    },
    {
      "id": "n-00605",
      "pitch": "G#3",
      "midi": 56,
      "start": 128.5,
      "duration": 0.25,
      "velocity": 0.71
    },
    {
      "id": "n-00606",
      "pitch": "F3",
      "midi": 53,
      "start": 128.75,
      "duration": 0.25,
      "velocity": 0.71
    },
    {
      "id": "n-00607",
      "pitch": "G#3",
      "midi": 56,
      "start": 129,
      "duration": 0.25,
      "velocity": 0.71
    },
    {
      "id": "n-00608",
      "pitch": "F4",
      "midi": 65,
      "start": 129,
      "duration": 1,
      "velocity": 0.71
    },
    {
      "id": "n-00609",
      "pitch": "C#5",
      "midi": 73,
      "start": 129,
      "duration": 1,
      "velocity": 0.71
    },
    {
      "id": "n-00610",
      "pitch": "F3",
      "midi": 53,
      "start": 129.25,
      "duration": 0.25,
      "velocity": 0.71
    },
    {
      "id": "n-00611",
      "pitch": "C#3",
      "midi": 49,
      "start": 129.5,
      "duration": 0.25,
      "velocity": 0.71
    },
    {
      "id": "n-00612",
      "pitch": "G#2",
      "midi": 44,
      "start": 129.75,
      "duration": 0.25,
      "velocity": 0.71
    },
    {
      "id": "n-00613",
      "pitch": "C#3",
      "midi": 49,
      "start": 130,
      "duration": 0.25,
      "velocity": 0.71
    },
    {
      "id": "n-00614",
      "pitch": "C#5",
      "midi": 73,
      "start": 130,
      "duration": 0.5,
      "velocity": 0.71
    },
    {
      "id": "n-00615",
      "pitch": "F5",
      "midi": 77,
      "start": 130,
      "duration": 0.5,
      "velocity": 0.71
    },
    {
      "id": "n-00616",
      "pitch": "G#2",
      "midi": 44,
      "start": 130.25,
      "duration": 0.25,
      "velocity": 0.71
    },
    {
      "id": "n-00617",
      "pitch": "D#2",
      "midi": 39,
      "start": 130.5,
      "duration": 0.25,
      "velocity": 0.71
    },
    {
      "id": "n-00618",
      "pitch": "D#5",
      "midi": 75,
      "start": 130.5,
      "duration": 0.5,
      "velocity": 0.71
    },
    {
      "id": "n-00619",
      "pitch": "G5",
      "midi": 79,
      "start": 130.5,
      "duration": 0.5,
      "velocity": 0.71
    },
    {
      "id": "n-00620",
      "pitch": "A#2",
      "midi": 46,
      "start": 130.75,
      "duration": 0.25,
      "velocity": 0.71
    },
    {
      "id": "n-00621",
      "pitch": "D#3",
      "midi": 51,
      "start": 131,
      "duration": 0.25,
      "velocity": 0.71
    },
    {
      "id": "n-00622",
      "pitch": "C#5",
      "midi": 73,
      "start": 131,
      "duration": 0.5,
      "velocity": 0.71
    },
    {
      "id": "n-00623",
      "pitch": "F5",
      "midi": 77,
      "start": 131,
      "duration": 0.5,
      "velocity": 0.71
    },
    {
      "id": "n-00624",
      "pitch": "G3",
      "midi": 55,
      "start": 131.25,
      "duration": 0.25,
      "velocity": 0.71
    },
    {
      "id": "n-00625",
      "pitch": "A#3",
      "midi": 58,
      "start": 131.5,
      "duration": 0.25,
      "velocity": 0.71
    },
    {
      "id": "n-00626",
      "pitch": "A#4",
      "midi": 70,
      "start": 131.5,
      "duration": 0.5,
      "velocity": 0.71
    },
    {
      "id": "n-00627",
      "pitch": "C#5",
      "midi": 73,
      "start": 131.5,
      "duration": 0.5,
      "velocity": 0.71
    },
    {
      "id": "n-00628",
      "pitch": "D#4",
      "midi": 63,
      "start": 131.75,
      "duration": 0.25,
      "velocity": 0.71
    },
    {
      "id": "n-00629",
      "pitch": "G4",
      "midi": 67,
      "start": 132,
      "duration": 0.5,
      "velocity": 0.71
    },
    {
      "id": "n-00630",
      "pitch": "A#4",
      "midi": 70,
      "start": 132,
      "duration": 1.5,
      "velocity": 0.71
    },
    {
      "id": "n-00631",
      "pitch": "C#5",
      "midi": 73,
      "start": 132,
      "duration": 1.5,
      "velocity": 0.71
    },
    {
      "id": "n-00632",
      "pitch": "D#4",
      "midi": 63,
      "start": 132.25,
      "duration": 0.25,
      "velocity": 0.71
    },
    {
      "id": "n-00633",
      "pitch": "A#3",
      "midi": 58,
      "start": 132.5,
      "duration": 0.25,
      "velocity": 0.71
    },
    {
      "id": "n-00634",
      "pitch": "F4",
      "midi": 65,
      "start": 132.5,
      "duration": 0.5,
      "velocity": 0.71
    },
    {
      "id": "n-00635",
      "pitch": "G3",
      "midi": 55,
      "start": 132.75,
      "duration": 0.25,
      "velocity": 0.71
    },
    {
      "id": "n-00636",
      "pitch": "D#3",
      "midi": 51,
      "start": 133,
      "duration": 0.25,
      "velocity": 0.71
    },
    {
      "id": "n-00637",
      "pitch": "C#4",
      "midi": 61,
      "start": 133,
      "duration": 0.5,
      "velocity": 0.71
    },
    {
      "id": "n-00638",
      "pitch": "A#2",
      "midi": 46,
      "start": 133.25,
      "duration": 0.25,
      "velocity": 0.71
    },
    {
      "id": "n-00639",
      "pitch": "D#2",
      "midi": 39,
      "start": 133.5,
      "duration": 0.25,
      "velocity": 0.71
    },
    {
      "id": "n-00640",
      "pitch": "C#4",
      "midi": 61,
      "start": 133.5,
      "duration": 0.75,
      "velocity": 0.71
    },
    {
      "id": "n-00641",
      "pitch": "A#2",
      "midi": 46,
      "start": 133.75,
      "duration": 0.25,
      "velocity": 0.71
    },
    {
      "id": "n-00642",
      "pitch": "D#3",
      "midi": 51,
      "start": 134,
      "duration": 0.25,
      "velocity": 0.71
    },
    {
      "id": "n-00643",
      "pitch": "G3",
      "midi": 55,
      "start": 134.25,
      "duration": 0.25,
      "velocity": 0.71
    },
    {
      "id": "n-00644",
      "pitch": "A#3",
      "midi": 58,
      "start": 134.25,
      "duration": 0.75,
      "velocity": 0.71
    },
    {
      "id": "n-00645",
      "pitch": "D#3",
      "midi": 51,
      "start": 134.5,
      "duration": 0.25,
      "velocity": 0.71
    },
    {
      "id": "n-00646",
      "pitch": "A#2",
      "midi": 46,
      "start": 134.75,
      "duration": 0.25,
      "velocity": 0.71
    },
    {
      "id": "n-00647",
      "pitch": "G#2",
      "midi": 44,
      "start": 135,
      "duration": 1.5,
      "velocity": 0.71
    },
    {
      "id": "n-00648",
      "pitch": "A#4",
      "midi": 70,
      "start": 135,
      "duration": 3,
      "velocity": 0.71
    },
    {
      "id": "n-00649",
      "pitch": "D#3",
      "midi": 51,
      "start": 135.25,
      "duration": 0.25,
      "velocity": 0.71
    },
    {
      "id": "n-00650",
      "pitch": "F#3",
      "midi": 54,
      "start": 135.5,
      "duration": 0.25,
      "velocity": 0.71
    },
    {
      "id": "n-00651",
      "pitch": "A#3",
      "midi": 58,
      "start": 135.75,
      "duration": 0.25,
      "velocity": 0.71
    },
    {
      "id": "n-00652",
      "pitch": "C4",
      "midi": 60,
      "start": 136,
      "duration": 0.25,
      "velocity": 0.71
    },
    {
      "id": "n-00653",
      "pitch": "F#4",
      "midi": 66,
      "start": 136.25,
      "duration": 0.25,
      "velocity": 0.71
    },
    {
      "id": "n-00654",
      "pitch": "F#2",
      "midi": 42,
      "start": 136.5,
      "duration": 1.5,
      "velocity": 0.71
    },
    {
      "id": "n-00655",
      "pitch": "C#3",
      "midi": 49,
      "start": 136.75,
      "duration": 0.25,
      "velocity": 0.71
    },
    {
      "id": "n-00656",
      "pitch": "F#3",
      "midi": 54,
      "start": 137,
      "duration": 0.25,
      "velocity": 0.71
    },
    {
      "id": "n-00657",
      "pitch": "A#3",
      "midi": 58,
      "start": 137.25,
      "duration": 0.25,
      "velocity": 0.71
    },
    {
      "id": "n-00658",
      "pitch": "C#4",
      "midi": 61,
      "start": 137.5,
      "duration": 0.25,
      "velocity": 0.71
    },
    {
      "id": "n-00659",
      "pitch": "F#4",
      "midi": 66,
      "start": 137.75,
      "duration": 0.25,
      "velocity": 0.71
    },
    {
      "id": "n-00660",
      "pitch": "F2",
      "midi": 41,
      "start": 138,
      "duration": 1.5,
      "velocity": 0.71
    },
    {
      "id": "n-00661",
      "pitch": "C5",
      "midi": 72,
      "start": 138,
      "duration": 1,
      "velocity": 0.71
    },
    {
      "id": "n-00662",
      "pitch": "C3",
      "midi": 48,
      "start": 138.25,
      "duration": 0.25,
      "velocity": 0.71
    },
    {
      "id": "n-00663",
      "pitch": "F3",
      "midi": 53,
      "start": 138.5,
      "duration": 0.25,
      "velocity": 0.71
    },
    {
      "id": "n-00664",
      "pitch": "G#3",
      "midi": 56,
      "start": 138.75,
      "duration": 0.25,
      "velocity": 0.71
    },
    {
      "id": "n-00665",
      "pitch": "C4",
      "midi": 60,
      "start": 139,
      "duration": 0.5,
      "velocity": 0.71
    },
    {
      "id": "n-00666",
      "pitch": "G#4",
      "midi": 68,
      "start": 139,
      "duration": 0.25,
      "velocity": 0.71
    },
    {
      "id": "n-00667",
      "pitch": "F5",
      "midi": 77,
      "start": 139,
      "duration": 0.5,
      "velocity": 0.71
    },
    {
      "id": "n-00668",
      "pitch": "F4",
      "midi": 65,
      "start": 139.25,
      "duration": 0.25,
      "velocity": 0.71
    },
    {
      "id": "n-00669",
      "pitch": "G#2",
      "midi": 44,
      "start": 139.5,
      "duration": 1.5,
      "velocity": 0.71
    },
    {
      "id": "n-00670",
      "pitch": "A#4",
      "midi": 70,
      "start": 139.5,
      "duration": 3,
      "velocity": 0.71
    },
    {
      "id": "n-00671",
      "pitch": "D#3",
      "midi": 51,
      "start": 139.75,
      "duration": 0.25,
      "velocity": 0.71
    },
    {
      "id": "n-00672",
      "pitch": "F#3",
      "midi": 54,
      "start": 140,
      "duration": 0.25,
      "velocity": 0.71
    },
    {
      "id": "n-00673",
      "pitch": "A#3",
      "midi": 58,
      "start": 140.25,
      "duration": 0.25,
      "velocity": 0.71
    },
    {
      "id": "n-00674",
      "pitch": "C4",
      "midi": 60,
      "start": 140.5,
      "duration": 0.25,
      "velocity": 0.71
    },
    {
      "id": "n-00675",
      "pitch": "F#4",
      "midi": 66,
      "start": 140.75,
      "duration": 0.25,
      "velocity": 0.71
    },
    {
      "id": "n-00676",
      "pitch": "F#2",
      "midi": 42,
      "start": 141,
      "duration": 1.5,
      "velocity": 0.71
    },
    {
      "id": "n-00677",
      "pitch": "C#3",
      "midi": 49,
      "start": 141.25,
      "duration": 0.25,
      "velocity": 0.71
    },
    {
      "id": "n-00678",
      "pitch": "F#3",
      "midi": 54,
      "start": 141.5,
      "duration": 0.25,
      "velocity": 0.71
    },
    {
      "id": "n-00679",
      "pitch": "A#3",
      "midi": 58,
      "start": 141.75,
      "duration": 0.25,
      "velocity": 0.71
    },
    {
      "id": "n-00680",
      "pitch": "C#4",
      "midi": 61,
      "start": 142,
      "duration": 0.25,
      "velocity": 0.71
    },
    {
      "id": "n-00681",
      "pitch": "F#4",
      "midi": 66,
      "start": 142.25,
      "duration": 0.25,
      "velocity": 0.71
    },
    {
      "id": "n-00682",
      "pitch": "F2",
      "midi": 41,
      "start": 142.5,
      "duration": 1.5,
      "velocity": 0.71
    },
    {
      "id": "n-00683",
      "pitch": "C5",
      "midi": 72,
      "start": 142.5,
      "duration": 1,
      "velocity": 0.71
    },
    {
      "id": "n-00684",
      "pitch": "C3",
      "midi": 48,
      "start": 142.75,
      "duration": 0.25,
      "velocity": 0.71
    },
    {
      "id": "n-00685",
      "pitch": "F3",
      "midi": 53,
      "start": 143,
      "duration": 0.25,
      "velocity": 0.71
    },
    {
      "id": "n-00686",
      "pitch": "G#3",
      "midi": 56,
      "start": 143.25,
      "duration": 0.25,
      "velocity": 0.71
    },
    {
      "id": "n-00687",
      "pitch": "C4",
      "midi": 60,
      "start": 143.5,
      "duration": 0.5,
      "velocity": 0.71
    },
    {
      "id": "n-00688",
      "pitch": "G#4",
      "midi": 68,
      "start": 143.5,
      "duration": 0.25,
      "velocity": 0.71
    },
    {
      "id": "n-00689",
      "pitch": "F5",
      "midi": 77,
      "start": 143.5,
      "duration": 0.5,
      "velocity": 0.71
    },
    {
      "id": "n-00690",
      "pitch": "F4",
      "midi": 65,
      "start": 143.75,
      "duration": 0.25,
      "velocity": 0.71
    },
    {
      "id": "n-00691",
      "pitch": "D#2",
      "midi": 39,
      "start": 144,
      "duration": 1.5,
      "velocity": 0.71
    },
    {
      "id": "n-00692",
      "pitch": "F#5",
      "midi": 78,
      "start": 144,
      "duration": 2.25,
      "velocity": 0.71
    },
    {
      "id": "n-00693",
      "pitch": "A#2",
      "midi": 46,
      "start": 144.25,
      "duration": 0.25,
      "velocity": 0.71
    },
    {
      "id": "n-00694",
      "pitch": "D#3",
      "midi": 51,
      "start": 144.5,
      "duration": 0.25,
      "velocity": 0.71
    },
    {
      "id": "n-00695",
      "pitch": "F#3",
      "midi": 54,
      "start": 144.75,
      "duration": 0.25,
      "velocity": 0.71
    },
    {
      "id": "n-00696",
      "pitch": "A#3",
      "midi": 58,
      "start": 145,
      "duration": 0.25,
      "velocity": 0.71
    },
    {
      "id": "n-00697",
      "pitch": "D#4",
      "midi": 63,
      "start": 145.25,
      "duration": 0.25,
      "velocity": 0.71
    },
    {
      "id": "n-00698",
      "pitch": "F#4",
      "midi": 66,
      "start": 145.5,
      "duration": 0.75,
      "velocity": 0.71
    },
    {
      "id": "n-00699",
      "pitch": "F#4",
      "midi": 66,
      "start": 145.75,
      "duration": 0.25,
      "velocity": 0.71
    },
    {
      "id": "n-00700",
      "pitch": "A#4",
      "midi": 70,
      "start": 146,
      "duration": 0.25,
      "velocity": 0.71
    },
    {
      "id": "n-00701",
      "pitch": "F4",
      "midi": 65,
      "start": 146.25,
      "duration": 0.75,
      "velocity": 0.71
    },
    {
      "id": "n-00702",
      "pitch": "F5",
      "midi": 77,
      "start": 146.25,
      "duration": 0.75,
      "velocity": 0.71
    },
    {
      "id": "n-00703",
      "pitch": "F#4",
      "midi": 66,
      "start": 146.5,
      "duration": 0.25,
      "velocity": 0.71
    },
    {
      "id": "n-00704",
      "pitch": "A#4",
      "midi": 70,
      "start": 146.75,
      "duration": 0.25,
      "velocity": 0.71
    },
    {
      "id": "n-00705",
      "pitch": "D4",
      "midi": 62,
      "start": 147,
      "duration": 0.75,
      "velocity": 0.71
    },
    {
      "id": "n-00706",
      "pitch": "D5",
      "midi": 74,
      "start": 147,
      "duration": 0.75,
      "velocity": 0.71
    },
    {
      "id": "n-00707",
      "pitch": "F#4",
      "midi": 66,
      "start": 147.25,
      "duration": 0.25,
      "velocity": 0.71
    },
    {
      "id": "n-00708",
      "pitch": "A#4",
      "midi": 70,
      "start": 147.5,
      "duration": 0.25,
      "velocity": 0.71
    },
    {
      "id": "n-00709",
      "pitch": "D#4",
      "midi": 63,
      "start": 147.75,
      "duration": 0.75,
      "velocity": 0.71
    },
    {
      "id": "n-00710",
      "pitch": "D#5",
      "midi": 75,
      "start": 147.75,
      "duration": 0.75,
      "velocity": 0.71
    },
    {
      "id": "n-00711",
      "pitch": "F#4",
      "midi": 66,
      "start": 148,
      "duration": 0.25,
      "velocity": 0.71
    },
    {
      "id": "n-00712",
      "pitch": "A#4",
      "midi": 70,
      "start": 148.25,
      "duration": 0.25,
      "velocity": 0.71
    },
    {
      "id": "n-00713",
      "pitch": "D4",
      "midi": 62,
      "start": 148.5,
      "duration": 1.5,
      "velocity": 0.71
    },
    {
      "id": "n-00714",
      "pitch": "A#5",
      "midi": 82,
      "start": 148.5,
      "duration": 3,
      "velocity": 0.71
    },
    {
      "id": "n-00715",
      "pitch": "F#4",
      "midi": 66,
      "start": 148.75,
      "duration": 0.25,
      "velocity": 0.71
    },
    {
      "id": "n-00716",
      "pitch": "A#4",
      "midi": 70,
      "start": 149,
      "duration": 0.25,
      "velocity": 0.71
    },
    {
      "id": "n-00717",
      "pitch": "A#4",
      "midi": 70,
      "start": 149.25,
      "duration": 0.25,
      "velocity": 0.71
    },
    {
      "id": "n-00718",
      "pitch": "F#5",
      "midi": 78,
      "start": 149.5,
      "duration": 0.25,
      "velocity": 0.71
    },
    {
      "id": "n-00719",
      "pitch": "D#4",
      "midi": 63,
      "start": 150,
      "duration": 1.5,
      "velocity": 0.71
    },
    {
      "id": "n-00720",
      "pitch": "F#4",
      "midi": 66,
      "start": 150.25,
      "duration": 0.25,
      "velocity": 0.71
    },
    {
      "id": "n-00721",
      "pitch": "A#4",
      "midi": 70,
      "start": 150.5,
      "duration": 0.25,
      "velocity": 0.71
    },
    {
      "id": "n-00722",
      "pitch": "A#4",
      "midi": 70,
      "start": 150.75,
      "duration": 0.25,
      "velocity": 0.71
    },
    {
      "id": "n-00723",
      "pitch": "F#5",
      "midi": 78,
      "start": 151,
      "duration": 0.25,
      "velocity": 0.71
    },
    {
      "id": "n-00724",
      "pitch": "G#3",
      "midi": 56,
      "start": 151.5,
      "duration": 1.5,
      "velocity": 0.71
    },
    {
      "id": "n-00725",
      "pitch": "C4",
      "midi": 60,
      "start": 151.5,
      "duration": 0.25,
      "velocity": 0.71
    },
    {
      "id": "n-00726",
      "pitch": "G#5",
      "midi": 80,
      "start": 151.5,
      "duration": 1.5,
      "velocity": 0.71
    },
    {
      "id": "n-00727",
      "pitch": "E4",
      "midi": 64,
      "start": 151.75,
      "duration": 0.25,
      "velocity": 0.71
    },
    {
      "id": "n-00728",
      "pitch": "G#4",
      "midi": 68,
      "start": 152,
      "duration": 0.25,
      "velocity": 0.71
    },
    {
      "id": "n-00729",
      "pitch": "C5",
      "midi": 72,
      "start": 152.25,
      "duration": 0.25,
      "velocity": 0.71
    },
    {
      "id": "n-00730",
      "pitch": "E5",
      "midi": 76,
      "start": 152.5,
      "duration": 0.25,
      "velocity": 0.71
    },
    {
      "id": "n-00731",
      "pitch": "C#3",
      "midi": 49,
      "start": 153,
      "duration": 1.5,
      "velocity": 0.71
    },
    {
      "id": "n-00732",
      "pitch": "F5",
      "midi": 77,
      "start": 153,
      "duration": 3,
      "velocity": 0.71
    },
    {
      "id": "n-00733",
      "pitch": "G#5",
      "midi": 80,
      "start": 153,
      "duration": 3,
      "velocity": 0.71
    },
    {
      "id": "n-00734",
      "pitch": "G#3",
      "midi": 56,
      "start": 153.25,
      "duration": 0.25,
      "velocity": 0.71
    },
    {
      "id": "n-00735",
      "pitch": "C#4",
      "midi": 61,
      "start": 153.5,
      "duration": 0.25,
      "velocity": 0.71
    },
    {
      "id": "n-00736",
      "pitch": "F4",
      "midi": 65,
      "start": 153.75,
      "duration": 0.25,
      "velocity": 0.71
    },
    {
      "id": "n-00737",
      "pitch": "G#4",
      "midi": 68,
      "start": 154,
      "duration": 0.25,
      "velocity": 0.71
    },
    {
      "id": "n-00738",
      "pitch": "C#5",
      "midi": 73,
      "start": 154.25,
      "duration": 0.25,
      "velocity": 0.71
    },
    {
      "id": "n-00739",
      "pitch": "F3",
      "midi": 53,
      "start": 154.5,
      "duration": 1.5,
      "velocity": 0.71
    },
    {
      "id": "n-00740",
      "pitch": "G#3",
      "midi": 56,
      "start": 154.5,
      "duration": 0.25,
      "velocity": 0.71
    },
    {
      "id": "n-00741",
      "pitch": "C4",
      "midi": 60,
      "start": 154.75,
      "duration": 0.25,
      "velocity": 0.71
    },
    {
      "id": "n-00742",
      "pitch": "F4",
      "midi": 65,
      "start": 155,
      "duration": 0.25,
      "velocity": 0.71
    },
    {
      "id": "n-00743",
      "pitch": "G#4",
      "midi": 68,
      "start": 155.25,
      "duration": 0.25,
      "velocity": 0.71
    },
    {
      "id": "n-00744",
      "pitch": "C5",
      "midi": 72,
      "start": 155.5,
      "duration": 0.25,
      "velocity": 0.71
    },
    {
      "id": "n-00745",
      "pitch": "G#3",
      "midi": 56,
      "start": 156,
      "duration": 1.5,
      "velocity": 0.71
    },
    {
      "id": "n-00746",
      "pitch": "B3",
      "midi": 59,
      "start": 156,
      "duration": 0.25,
      "velocity": 0.71
    },
    {
      "id": "n-00747",
      "pitch": "G#5",
      "midi": 80,
      "start": 156,
      "duration": 1,
      "velocity": 0.71
    },
    {
      "id": "n-00748",
      "pitch": "B5",
      "midi": 83,
      "start": 156,
      "duration": 1,
      "velocity": 0.71
    },
    {
      "id": "n-00749",
      "pitch": "E4",
      "midi": 64,
      "start": 156.25,
      "duration": 0.25,
      "velocity": 0.71
    },
    {
      "id": "n-00750",
      "pitch": "G#4",
      "midi": 68,
      "start": 156.5,
      "duration": 0.25,
      "velocity": 0.71
    },
    {
      "id": "n-00751",
      "pitch": "B4",
      "midi": 71,
      "start": 156.75,
      "duration": 0.25,
      "velocity": 0.71
    },
    {
      "id": "n-00752",
      "pitch": "E5",
      "midi": 76,
      "start": 157,
      "duration": 0.25,
      "velocity": 0.71
    },
    {
      "id": "n-00753",
      "pitch": "C#6",
      "midi": 85,
      "start": 157,
      "duration": 0.5,
      "velocity": 0.71
    },
    {
      "id": "n-00754",
      "pitch": "G#5",
      "midi": 80,
      "start": 157.25,
      "duration": 0.25,
      "velocity": 0.71
    },
    {
      "id": "n-00755",
      "pitch": "C#3",
      "midi": 49,
      "start": 157.5,
      "duration": 1.5,
      "velocity": 0.71
    },
    {
      "id": "n-00756",
      "pitch": "F5",
      "midi": 77,
      "start": 157.5,
      "duration": 3,
      "velocity": 0.71
    },
    {
      "id": "n-00757",
      "pitch": "G#5",
      "midi": 80,
      "start": 157.5,
      "duration": 3,
      "velocity": 0.71
    },
    {
      "id": "n-00758",
      "pitch": "G#3",
      "midi": 56,
      "start": 157.75,
      "duration": 0.25,
      "velocity": 0.71
    },
    {
      "id": "n-00759",
      "pitch": "C#4",
      "midi": 61,
      "start": 158,
      "duration": 0.25,
      "velocity": 0.71
    },
    {
      "id": "n-00760",
      "pitch": "F4",
      "midi": 65,
      "start": 158.25,
      "duration": 0.25,
      "velocity": 0.71
    },
    {
      "id": "n-00761",
      "pitch": "G#4",
      "midi": 68,
      "start": 158.5,
      "duration": 0.25,
      "velocity": 0.71
    },
    {
      "id": "n-00762",
      "pitch": "C#5",
      "midi": 73,
      "start": 158.75,
      "duration": 0.25,
      "velocity": 0.71
    },
    {
      "id": "n-00763",
      "pitch": "F3",
      "midi": 53,
      "start": 159,
      "duration": 1.5,
      "velocity": 0.71
    },
    {
      "id": "n-00764",
      "pitch": "G#3",
      "midi": 56,
      "start": 159,
      "duration": 0.25,
      "velocity": 0.71
    },
    {
      "id": "n-00765",
      "pitch": "C4",
      "midi": 60,
      "start": 159.25,
      "duration": 0.25,
      "velocity": 0.71
    },
    {
      "id": "n-00766",
      "pitch": "F4",
      "midi": 65,
      "start": 159.5,
      "duration": 0.25,
      "velocity": 0.71
    },
    {
      "id": "n-00767",
      "pitch": "G#4",
      "midi": 68,
      "start": 159.75,
      "duration": 0.25,
      "velocity": 0.71
    },
    {
      "id": "n-00768",
      "pitch": "C5",
      "midi": 72,
      "start": 160,
      "duration": 0.25,
      "velocity": 0.71
    },
    {
      "id": "n-00769",
      "pitch": "G#3",
      "midi": 56,
      "start": 160.5,
      "duration": 1.5,
      "velocity": 0.71
    },
    {
      "id": "n-00770",
      "pitch": "B3",
      "midi": 59,
      "start": 160.5,
      "duration": 0.25,
      "velocity": 0.71
    },
    {
      "id": "n-00771",
      "pitch": "G#5",
      "midi": 80,
      "start": 160.5,
      "duration": 1,
      "velocity": 0.71
    },
    {
      "id": "n-00772",
      "pitch": "B5",
      "midi": 83,
      "start": 160.5,
      "duration": 1,
      "velocity": 0.71
    },
    {
      "id": "n-00773",
      "pitch": "E4",
      "midi": 64,
      "start": 160.75,
      "duration": 0.25,
      "velocity": 0.71
    },
    {
      "id": "n-00774",
      "pitch": "G#4",
      "midi": 68,
      "start": 161,
      "duration": 0.25,
      "velocity": 0.71
    },
    {
      "id": "n-00775",
      "pitch": "B4",
      "midi": 71,
      "start": 161.25,
      "duration": 0.25,
      "velocity": 0.71
    },
    {
      "id": "n-00776",
      "pitch": "G#5",
      "midi": 80,
      "start": 161.5,
      "duration": 0.5,
      "velocity": 0.71
    },
    {
      "id": "n-00777",
      "pitch": "E5",
      "midi": 76,
      "start": 161.75,
      "duration": 0.25,
      "velocity": 0.71
    },
    {
      "id": "n-00778",
      "pitch": "B3",
      "midi": 59,
      "start": 162,
      "duration": 1.5,
      "velocity": 0.71
    },
    {
      "id": "n-00779",
      "pitch": "C#4",
      "midi": 61,
      "start": 162,
      "duration": 0.25,
      "velocity": 0.71
    },
    {
      "id": "n-00780",
      "pitch": "C#6",
      "midi": 85,
      "start": 162,
      "duration": 1,
      "velocity": 0.71
    },
    {
      "id": "n-00781",
      "pitch": "E4",
      "midi": 64,
      "start": 162.25,
      "duration": 0.25,
      "velocity": 0.71
    },
    {
      "id": "n-00782",
      "pitch": "G#4",
      "midi": 68,
      "start": 162.5,
      "duration": 0.25,
      "velocity": 0.71
    },
    {
      "id": "n-00783",
      "pitch": "B4",
      "midi": 71,
      "start": 162.75,
      "duration": 0.75,
      "velocity": 0.71
    },
    {
      "id": "n-00784",
      "pitch": "C#5",
      "midi": 73,
      "start": 162.75,
      "duration": 0.25,
      "velocity": 0.71
    },
    {
      "id": "n-00785",
      "pitch": "G#5",
      "midi": 80,
      "start": 163,
      "duration": 0.5,
      "velocity": 0.71
    },
    {
      "id": "n-00786",
      "pitch": "E5",
      "midi": 76,
      "start": 163.25,
      "duration": 0.25,
      "velocity": 0.71
    },
    {
      "id": "n-00787",
      "pitch": "C#4",
      "midi": 61,
      "start": 163.5,
      "duration": 1.5,
      "velocity": 0.71
    },
    {
      "id": "n-00788",
      "pitch": "E4",
      "midi": 64,
      "start": 163.5,
      "duration": 0.25,
      "velocity": 0.71
    },
    {
      "id": "n-00789",
      "pitch": "E6",
      "midi": 88,
      "start": 163.5,
      "duration": 1,
      "velocity": 0.71
    },
    {
      "id": "n-00790",
      "pitch": "G#4",
      "midi": 68,
      "start": 163.75,
      "duration": 0.25,
      "velocity": 0.71
    },
    {
      "id": "n-00791",
      "pitch": "B4",
      "midi": 71,
      "start": 164,
      "duration": 0.25,
      "velocity": 0.71
    },
    {
      "id": "n-00792",
      "pitch": "C#5",
      "midi": 73,
      "start": 164.25,
      "duration": 0.75,
      "velocity": 0.71
    },
    {
      "id": "n-00793",
      "pitch": "E5",
      "midi": 76,
      "start": 164.25,
      "duration": 0.25,
      "velocity": 0.71
    },
    {
      "id": "n-00794",
      "pitch": "C#6",
      "midi": 85,
      "start": 164.5,
      "duration": 0.5,
      "velocity": 0.71
    },
    {
      "id": "n-00795",
      "pitch": "G#5",
      "midi": 80,
      "start": 164.75,
      "duration": 0.25,
      "velocity": 0.71
    },
    {
      "id": "n-00796",
      "pitch": "E4",
      "midi": 64,
      "start": 165,
      "duration": 1.5,
      "velocity": 0.71
    },
    {
      "id": "n-00797",
      "pitch": "G#4",
      "midi": 68,
      "start": 165,
      "duration": 0.25,
      "velocity": 0.71
    },
    {
      "id": "n-00798",
      "pitch": "G#6",
      "midi": 92,
      "start": 165,
      "duration": 1,
      "velocity": 0.71
    },
    {
      "id": "n-00799",
      "pitch": "B4",
      "midi": 71,
      "start": 165.25,
      "duration": 0.25,
      "velocity": 0.71
    },
    {
      "id": "n-00800",
      "pitch": "C#5",
      "midi": 73,
      "start": 165.5,
      "duration": 0.25,
      "velocity": 0.71
    },
    {
      "id": "n-00801",
      "pitch": "E5",
      "midi": 76,
      "start": 165.75,
      "duration": 0.75,
      "velocity": 0.71
    },
    {
      "id": "n-00802",
      "pitch": "G#5",
      "midi": 80,
      "start": 165.75,
      "duration": 0.25,
      "velocity": 0.71
    },
    {
      "id": "n-00803",
      "pitch": "E6",
      "midi": 88,
      "start": 166,
      "duration": 0.5,
      "velocity": 0.71
    },
    {
      "id": "n-00804",
      "pitch": "B5",
      "midi": 83,
      "start": 166.25,
      "duration": 0.25,
      "velocity": 0.71
    },
    {
      "id": "n-00805",
      "pitch": "G#4",
      "midi": 68,
      "start": 166.5,
      "duration": 1.5,
      "velocity": 0.71
    },
    {
      "id": "n-00806",
      "pitch": "G#6",
      "midi": 92,
      "start": 166.5,
      "duration": 1.5,
      "velocity": 0.71
    },
    {
      "id": "n-00807",
      "pitch": "A4",
      "midi": 69,
      "start": 166.75,
      "duration": 0.25,
      "velocity": 0.71
    },
    {
      "id": "n-00808",
      "pitch": "C#5",
      "midi": 73,
      "start": 167,
      "duration": 0.25,
      "velocity": 0.71
    },
    {
      "id": "n-00809",
      "pitch": "G#5",
      "midi": 80,
      "start": 167.25,
      "duration": 0.25,
      "velocity": 0.71
    },
    {
      "id": "n-00810",
      "pitch": "C#6",
      "midi": 85,
      "start": 167.5,
      "duration": 0.25,
      "velocity": 0.71
    },
    {
      "id": "n-00811",
      "pitch": "A5",
      "midi": 81,
      "start": 167.75,
      "duration": 0.25,
      "velocity": 0.71
    },
    {
      "id": "n-00812",
      "pitch": "F#4",
      "midi": 66,
      "start": 168,
      "duration": 1.5,
      "velocity": 0.71
    },
    {
      "id": "n-00813",
      "pitch": "F#6",
      "midi": 90,
      "start": 168,
      "duration": 3,
      "velocity": 0.71
    },
    {
      "id": "n-00814",
      "pitch": "A4",
      "midi": 69,
      "start": 168.25,
      "duration": 0.25,
      "velocity": 0.71
    },
    {
      "id": "n-00815",
      "pitch": "C#5",
      "midi": 73,
      "start": 168.5,
      "duration": 0.25,
      "velocity": 0.71
    },
    {
      "id": "n-00816",
      "pitch": "F#5",
      "midi": 78,
      "start": 168.75,
      "duration": 0.25,
      "velocity": 0.71
    },
    {
      "id": "n-00817",
      "pitch": "C#6",
      "midi": 85,
      "start": 169,
      "duration": 0.25,
      "velocity": 0.71
    },
    {
      "id": "n-00818",
      "pitch": "A5",
      "midi": 81,
      "start": 169.25,
      "duration": 0.25,
      "velocity": 0.71
    },
    {
      "id": "n-00819",
      "pitch": "F4",
      "midi": 65,
      "start": 169.5,
      "duration": 1.5,
      "velocity": 0.71
    },
    {
      "id": "n-00820",
      "pitch": "F#4",
      "midi": 66,
      "start": 169.5,
      "duration": 0.25,
      "velocity": 0.71
    },
    {
      "id": "n-00821",
      "pitch": "A4",
      "midi": 69,
      "start": 169.75,
      "duration": 0.25,
      "velocity": 0.71
    },
    {
      "id": "n-00822",
      "pitch": "C#5",
      "midi": 73,
      "start": 170,
      "duration": 0.25,
      "velocity": 0.71
    },
    {
      "id": "n-00823",
      "pitch": "F#5",
      "midi": 78,
      "start": 170.25,
      "duration": 0.25,
      "velocity": 0.71
    },
    {
      "id": "n-00824",
      "pitch": "C#6",
      "midi": 85,
      "start": 170.5,
      "duration": 0.25,
      "velocity": 0.71
    },
    {
      "id": "n-00825",
      "pitch": "A5",
      "midi": 81,
      "start": 170.75,
      "duration": 0.25,
      "velocity": 0.71
    },
    {
      "id": "n-00826",
      "pitch": "E4",
      "midi": 64,
      "start": 171,
      "duration": 1.5,
      "velocity": 0.71
    },
    {
      "id": "n-00827",
      "pitch": "F#4",
      "midi": 66,
      "start": 171,
      "duration": 0.25,
      "velocity": 0.71
    },
    {
      "id": "n-00828",
      "pitch": "F#6",
      "midi": 90,
      "start": 171,
      "duration": 3,
      "velocity": 0.71
    },
    {
      "id": "n-00829",
      "pitch": "A4",
      "midi": 69,
      "start": 171.25,
      "duration": 0.25,
      "velocity": 0.71
    },
    {
      "id": "n-00830",
      "pitch": "C#5",
      "midi": 73,
      "start": 171.5,
      "duration": 0.25,
      "velocity": 0.71
    },
    {
      "id": "n-00831",
      "pitch": "F#5",
      "midi": 78,
      "start": 171.75,
      "duration": 0.25,
      "velocity": 0.71
    },
    {
      "id": "n-00832",
      "pitch": "C#6",
      "midi": 85,
      "start": 172,
      "duration": 0.25,
      "velocity": 0.71
    },
    {
      "id": "n-00833",
      "pitch": "A5",
      "midi": 81,
      "start": 172.25,
      "duration": 0.25,
      "velocity": 0.71
    },
    {
      "id": "n-00834",
      "pitch": "D#4",
      "midi": 63,
      "start": 172.5,
      "duration": 1.5,
      "velocity": 0.71
    },
    {
      "id": "n-00835",
      "pitch": "F#4",
      "midi": 66,
      "start": 172.5,
      "duration": 0.25,
      "velocity": 0.71
    },
    {
      "id": "n-00836",
      "pitch": "A4",
      "midi": 69,
      "start": 172.75,
      "duration": 0.25,
      "velocity": 0.71
    },
    {
      "id": "n-00837",
      "pitch": "C#5",
      "midi": 73,
      "start": 173,
      "duration": 0.25,
      "velocity": 0.71
    },
    {
      "id": "n-00838",
      "pitch": "F#5",
      "midi": 78,
      "start": 173.25,
      "duration": 0.25,
      "velocity": 0.71
    },
    {
      "id": "n-00839",
      "pitch": "C#6",
      "midi": 85,
      "start": 173.5,
      "duration": 0.25,
      "velocity": 0.71
    },
    {
      "id": "n-00840",
      "pitch": "A5",
      "midi": 81,
      "start": 173.75,
      "duration": 0.25,
      "velocity": 0.71
    },
    {
      "id": "n-00841",
      "pitch": "C#4",
      "midi": 61,
      "start": 174,
      "duration": 1.5,
      "velocity": 0.71
    },
    {
      "id": "n-00842",
      "pitch": "E4",
      "midi": 64,
      "start": 174,
      "duration": 0.25,
      "velocity": 0.71
    },
    {
      "id": "n-00843",
      "pitch": "A6",
      "midi": 93,
      "start": 174,
      "duration": 1,
      "velocity": 0.71
    },
    {
      "id": "n-00844",
      "pitch": "A4",
      "midi": 69,
      "start": 174.25,
      "duration": 0.25,
      "velocity": 0.71
    },
    {
      "id": "n-00845",
      "pitch": "C#5",
      "midi": 73,
      "start": 174.5,
      "duration": 0.25,
      "velocity": 0.71
    },
    {
      "id": "n-00846",
      "pitch": "E5",
      "midi": 76,
      "start": 174.75,
      "duration": 0.25,
      "velocity": 0.71
    },
    {
      "id": "n-00847",
      "pitch": "C#6",
      "midi": 85,
      "start": 175,
      "duration": 0.25,
      "velocity": 0.71
    },
    {
      "id": "n-00848",
      "pitch": "C#7",
      "midi": 97,
      "start": 175,
      "duration": 0.5,
      "velocity": 0.71
    },
    {
      "id": "n-00849",
      "pitch": "C#5",
      "midi": 73,
      "start": 175.25,
      "duration": 0.25,
      "velocity": 0.71
    },
    {
      "id": "n-00850",
      "pitch": "B3",
      "midi": 59,
      "start": 175.5,
      "duration": 1.5,
      "velocity": 0.71
    },
    {
      "id": "n-00851",
      "pitch": "F#5",
      "midi": 78,
      "start": 175.5,
      "duration": 3,
      "velocity": 0.71
    },
    {
      "id": "n-00852",
      "pitch": "D#4",
      "midi": 63,
      "start": 175.75,
      "duration": 0.25,
      "velocity": 0.71
    },
    {
      "id": "n-00853",
      "pitch": "F#4",
      "midi": 66,
      "start": 176,
      "duration": 0.25,
      "velocity": 0.71
    },
    {
      "id": "n-00854",
      "pitch": "F#4",
      "midi": 66,
      "start": 176.25,
      "duration": 0.25,
      "velocity": 0.71
    },
    {
      "id": "n-00855",
      "pitch": "C#5",
      "midi": 73,
      "start": 176.5,
      "duration": 0.25,
      "velocity": 0.71
    },
    {
      "id": "n-00856",
      "pitch": "A4",
      "midi": 69,
      "start": 176.75,
      "duration": 0.25,
      "velocity": 0.71
    },
    {
      "id": "n-00857",
      "pitch": "A3",
      "midi": 57,
      "start": 177,
      "duration": 1.5,
      "velocity": 0.71
    },
    {
      "id": "n-00858",
      "pitch": "C#4",
      "midi": 61,
      "start": 177.25,
      "duration": 0.25,
      "velocity": 0.71
    },
    {
      "id": "n-00859",
      "pitch": "E4",
      "midi": 64,
      "start": 177.5,
      "duration": 0.25,
      "velocity": 0.71
    },
    {
      "id": "n-00860",
      "pitch": "F#4",
      "midi": 66,
      "start": 177.75,
      "duration": 0.25,
      "velocity": 0.71
    },
    {
      "id": "n-00861",
      "pitch": "C#5",
      "midi": 73,
      "start": 178,
      "duration": 0.25,
      "velocity": 0.71
    },
    {
      "id": "n-00862",
      "pitch": "A4",
      "midi": 69,
      "start": 178.25,
      "duration": 0.25,
      "velocity": 0.71
    },
    {
      "id": "n-00863",
      "pitch": "G#3",
      "midi": 56,
      "start": 178.5,
      "duration": 1.5,
      "velocity": 0.71
    },
    {
      "id": "n-00864",
      "pitch": "A5",
      "midi": 81,
      "start": 178.5,
      "duration": 1,
      "velocity": 0.71
    },
    {
      "id": "n-00865",
      "pitch": "C#4",
      "midi": 61,
      "start": 178.75,
      "duration": 0.25,
      "velocity": 0.71
    },
    {
      "id": "n-00866",
      "pitch": "E4",
      "midi": 64,
      "start": 179,
      "duration": 0.25,
      "velocity": 0.71
    },
    {
      "id": "n-00867",
      "pitch": "A4",
      "midi": 69,
      "start": 179.25,
      "duration": 0.25,
      "velocity": 0.71
    },
    {
      "id": "n-00868",
      "pitch": "E5",
      "midi": 76,
      "start": 179.5,
      "duration": 0.25,
      "velocity": 0.71
    },
    {
      "id": "n-00869",
      "pitch": "C#6",
      "midi": 85,
      "start": 179.5,
      "duration": 0.5,
      "velocity": 0.71
    },
    {
      "id": "n-00870",
      "pitch": "A5",
      "midi": 81,
      "start": 179.75,
      "duration": 0.25,
      "velocity": 0.71
    },
    {
      "id": "n-00871",
      "pitch": "F#3",
      "midi": 54,
      "start": 180,
      "duration": 4.5,
      "velocity": 0.71
    },
    {
      "id": "n-00872",
      "pitch": "C#6",
      "midi": 85,
      "start": 180,
      "duration": 0.5,
      "velocity": 0.71
    },
    {
      "id": "n-00873",
      "pitch": "E6",
      "midi": 88,
      "start": 180,
      "duration": 0.5,
      "velocity": 0.71
    },
    {
      "id": "n-00874",
      "pitch": "C#4",
      "midi": 61,
      "start": 180.25,
      "duration": 0.25,
      "velocity": 0.71
    },
    {
      "id": "n-00875",
      "pitch": "E4",
      "midi": 64,
      "start": 180.5,
      "duration": 0.25,
      "velocity": 0.71
    },
    {
      "id": "n-00876",
      "pitch": "B5",
      "midi": 83,
      "start": 180.5,
      "duration": 0.5,
      "velocity": 0.71
    },
    {
      "id": "n-00877",
      "pitch": "D#6",
      "midi": 87,
      "start": 180.5,
      "duration": 0.5,
      "velocity": 0.71
    },
    {
      "id": "n-00878",
      "pitch": "F#4",
      "midi": 66,
      "start": 180.75,
      "duration": 0.25,
      "velocity": 0.71
    },
    {
      "id": "n-00879",
      "pitch": "A4",
      "midi": 69,
      "start": 181,
      "duration": 0.25,
      "velocity": 0.71
    },
    {
      "id": "n-00880",
      "pitch": "A5",
      "midi": 81,
      "start": 181,
      "duration": 0.5,
      "velocity": 0.71
    },
    {
      "id": "n-00881",
      "pitch": "C#6",
      "midi": 85,
      "start": 181,
      "duration": 0.5,
      "velocity": 0.71
    },
    {
      "id": "n-00882",
      "pitch": "C#5",
      "midi": 73,
      "start": 181.25,
      "duration": 0.25,
      "velocity": 0.71
    },
    {
      "id": "n-00883",
      "pitch": "E5",
      "midi": 76,
      "start": 181.5,
      "duration": 0.25,
      "velocity": 0.71
    },
    {
      "id": "n-00884",
      "pitch": "G#5",
      "midi": 80,
      "start": 181.5,
      "duration": 0.75,
      "velocity": 0.71
    },
    {
      "id": "n-00885",
      "pitch": "B5",
      "midi": 83,
      "start": 181.5,
      "duration": 0.75,
      "velocity": 0.71
    },
    {
      "id": "n-00886",
      "pitch": "F#5",
      "midi": 78,
      "start": 181.75,
      "duration": 0.25,
      "velocity": 0.71
    },
    {
      "id": "n-00887",
      "pitch": "E5",
      "midi": 76,
      "start": 182,
      "duration": 0.25,
      "velocity": 0.71
    },
    {
      "id": "n-00888",
      "pitch": "C#5",
      "midi": 73,
      "start": 182.25,
      "duration": 0.25,
      "velocity": 0.71
    },
    {
      "id": "n-00889",
      "pitch": "F#5",
      "midi": 78,
      "start": 182.25,
      "duration": 1.25,
      "velocity": 0.71
    },
    {
      "id": "n-00890",
      "pitch": "A5",
      "midi": 81,
      "start": 182.25,
      "duration": 1.25,
      "velocity": 0.71
    },
    {
      "id": "n-00891",
      "pitch": "A4",
      "midi": 69,
      "start": 182.5,
      "duration": 0.25,
      "velocity": 0.71
    },
    {
      "id": "n-00892",
      "pitch": "F#4",
      "midi": 66,
      "start": 182.75,
      "duration": 0.25,
      "velocity": 0.71
    },
    {
      "id": "n-00893",
      "pitch": "E4",
      "midi": 64,
      "start": 183,
      "duration": 0.25,
      "velocity": 0.71
    },
    {
      "id": "n-00894",
      "pitch": "F#4",
      "midi": 66,
      "start": 183.25,
      "duration": 0.25,
      "velocity": 0.71
    },
    {
      "id": "n-00895",
      "pitch": "E4",
      "midi": 64,
      "start": 183.5,
      "duration": 0.25,
      "velocity": 0.71
    },
    {
      "id": "n-00896",
      "pitch": "E5",
      "midi": 76,
      "start": 183.5,
      "duration": 0.5,
      "velocity": 0.71
    },
    {
      "id": "n-00897",
      "pitch": "G#5",
      "midi": 80,
      "start": 183.5,
      "duration": 0.5,
      "velocity": 0.71
    },
    {
      "id": "n-00898",
      "pitch": "C#4",
      "midi": 61,
      "start": 183.75,
      "duration": 0.25,
      "velocity": 0.71
    },
    {
      "id": "n-00899",
      "pitch": "A3",
      "midi": 57,
      "start": 184,
      "duration": 0.25,
      "velocity": 0.71
    },
    {
      "id": "n-00900",
      "pitch": "D#5",
      "midi": 75,
      "start": 184,
      "duration": 0.5,
      "velocity": 0.71
    },
    {
      "id": "n-00901",
      "pitch": "F#5",
      "midi": 78,
      "start": 184,
      "duration": 0.5,
      "velocity": 0.71
    },
    {
      "id": "n-00902",
      "pitch": "F#2",
      "midi": 42,
      "start": 184.5,
      "duration": 0.25,
      "velocity": 0.71
    },
    {
      "id": "n-00903",
      "pitch": "C#5",
      "midi": 73,
      "start": 184.5,
      "duration": 0.5,
      "velocity": 0.71
    },
    {
      "id": "n-00904",
      "pitch": "E5",
      "midi": 76,
      "start": 184.5,
      "duration": 0.5,
      "velocity": 0.71
    },
    {
      "id": "n-00905",
      "pitch": "C#3",
      "midi": 49,
      "start": 184.75,
      "duration": 0.25,
      "velocity": 0.71
    },
    {
      "id": "n-00906",
      "pitch": "E3",
      "midi": 52,
      "start": 185,
      "duration": 0.25,
      "velocity": 0.71
    },
    {
      "id": "n-00907",
      "pitch": "B4",
      "midi": 71,
      "start": 185,
      "duration": 0.5,
      "velocity": 0.71
    },
    {
      "id": "n-00908",
      "pitch": "D#5",
      "midi": 75,
      "start": 185,
      "duration": 0.5,
      "velocity": 0.71
    },
    {
      "id": "n-00909",
      "pitch": "F#3",
      "midi": 54,
      "start": 185.25,
      "duration": 0.25,
      "velocity": 0.71
    },
    {
      "id": "n-00910",
      "pitch": "A3",
      "midi": 57,
      "start": 185.5,
      "duration": 0.25,
      "velocity": 0.71
    },
    {
      "id": "n-00911",
      "pitch": "A4",
      "midi": 69,
      "start": 185.5,
      "duration": 0.5,
      "velocity": 0.71
    },
    {
      "id": "n-00912",
      "pitch": "C#5",
      "midi": 73,
      "start": 185.5,
      "duration": 0.5,
      "velocity": 0.71
    },
    {
      "id": "n-00913",
      "pitch": "C#4",
      "midi": 61,
      "start": 185.75,
      "duration": 0.25,
      "velocity": 0.71
    },
    {
      "id": "n-00914",
      "pitch": "E4",
      "midi": 64,
      "start": 186,
      "duration": 0.25,
      "velocity": 0.71
    },
    {
      "id": "n-00915",
      "pitch": "G#4",
      "midi": 68,
      "start": 186,
      "duration": 0.5,
      "velocity": 0.71
    },
    {
      "id": "n-00916",
      "pitch": "B4",
      "midi": 71,
      "start": 186,
      "duration": 0.5,
      "velocity": 0.71
    },
    {
      "id": "n-00917",
      "pitch": "C#4",
      "midi": 61,
      "start": 186.25,
      "duration": 0.25,
      "velocity": 0.71
    },
    {
      "id": "n-00918",
      "pitch": "A3",
      "midi": 57,
      "start": 186.5,
      "duration": 0.25,
      "velocity": 0.71
    },
    {
      "id": "n-00919",
      "pitch": "F#4",
      "midi": 66,
      "start": 186.5,
      "duration": 0.5,
      "velocity": 0.71
    },
    {
      "id": "n-00920",
      "pitch": "A4",
      "midi": 69,
      "start": 186.5,
      "duration": 0.5,
      "velocity": 0.71
    },
    {
      "id": "n-00921",
      "pitch": "F#3",
      "midi": 54,
      "start": 186.75,
      "duration": 0.25,
      "velocity": 0.71
    },
    {
      "id": "n-00922",
      "pitch": "E3",
      "midi": 52,
      "start": 187,
      "duration": 0.25,
      "velocity": 0.71
    },
    {
      "id": "n-00923",
      "pitch": "E4",
      "midi": 64,
      "start": 187,
      "duration": 1,
      "velocity": 0.71
    },
    {
      "id": "n-00924",
      "pitch": "G#4",
      "midi": 68,
      "start": 187,
      "duration": 1,
      "velocity": 0.71
    },
    {
      "id": "n-00925",
      "pitch": "C#3",
      "midi": 49,
      "start": 187.25,
      "duration": 0.25,
      "velocity": 0.71
    },
    {
      "id": "n-00926",
      "pitch": "F#2",
      "midi": 42,
      "start": 187.5,
      "duration": 0.25,
      "velocity": 0.71
    },
    {
      "id": "n-00927",
      "pitch": "A3",
      "midi": 57,
      "start": 187.5,
      "duration": 1.5,
      "velocity": 0.71
    },
    {
      "id": "n-00928",
      "pitch": "C#3",
      "midi": 49,
      "start": 187.75,
      "duration": 0.25,
      "velocity": 0.71
    },
    {
      "id": "n-00929",
      "pitch": "F#2",
      "midi": 42,
      "start": 188,
      "duration": 0.25,
      "velocity": 0.71
    },
    {
      "id": "n-00930",
      "pitch": "D#4",
      "midi": 63,
      "start": 188,
      "duration": 0.5,
      "velocity": 0.71
    },
    {
      "id": "n-00931",
      "pitch": "F#4",
      "midi": 66,
      "start": 188,
      "duration": 0.5,
      "velocity": 0.71
    },
    {
      "id": "n-00932",
      "pitch": "C#3",
      "midi": 49,
      "start": 188.25,
      "duration": 0.25,
      "velocity": 0.71
    },
    {
      "id": "n-00933",
      "pitch": "F#2",
      "midi": 42,
      "start": 188.5,
      "duration": 0.25,
      "velocity": 0.71
    },
    {
      "id": "n-00934",
      "pitch": "C#4",
      "midi": 61,
      "start": 188.5,
      "duration": 0.5,
      "velocity": 0.71
    },
    {
      "id": "n-00935",
      "pitch": "E4",
      "midi": 64,
      "start": 188.5,
      "duration": 0.5,
      "velocity": 0.71
    },
    {
      "id": "n-00936",
      "pitch": "C#3",
      "midi": 49,
      "start": 188.75,
      "duration": 0.25,
      "velocity": 0.71
    },
    {
      "id": "n-00937",
      "pitch": "G#2",
      "midi": 44,
      "start": 189,
      "duration": 0.25,
      "velocity": 0.71
    },
    {
      "id": "n-00938",
      "pitch": "F#3",
      "midi": 54,
      "start": 189,
      "duration": 1,
      "velocity": 0.71
    },
    {
      "id": "n-00939",
      "pitch": "C#4",
      "midi": 61,
      "start": 189,
      "duration": 3,
      "velocity": 0.71
    },
    {
      "id": "n-00940",
      "pitch": "D#4",
      "midi": 63,
      "start": 189,
      "duration": 3,
      "velocity": 0.71
    },
    {
      "id": "n-00941",
      "pitch": "D#3",
      "midi": 51,
      "start": 189.25,
      "duration": 0.25,
      "velocity": 0.71
    },
    {
      "id": "n-00942",
      "pitch": "G#2",
      "midi": 44,
      "start": 189.5,
      "duration": 0.25,
      "velocity": 0.71
    },
    {
      "id": "n-00943",
      "pitch": "D#3",
      "midi": 51,
      "start": 189.75,
      "duration": 0.25,
      "velocity": 0.71
    },
    {
      "id": "n-00944",
      "pitch": "G#2",
      "midi": 44,
      "start": 190,
      "duration": 0.25,
      "velocity": 0.71
    },
    {
      "id": "n-00945",
      "pitch": "G#3",
      "midi": 56,
      "start": 190,
      "duration": 0.5,
      "velocity": 0.71
    },
    {
      "id": "n-00946",
      "pitch": "D#3",
      "midi": 51,
      "start": 190.25,
      "duration": 0.25,
      "velocity": 0.71
    },
    {
      "id": "n-00947",
      "pitch": "G#2",
      "midi": 44,
      "start": 190.5,
      "duration": 0.25,
      "velocity": 0.71
    },
    {
      "id": "n-00948",
      "pitch": "A#3",
      "midi": 58,
      "start": 190.5,
      "duration": 1,
      "velocity": 0.71
    },
    {
      "id": "n-00949",
      "pitch": "D#3",
      "midi": 51,
      "start": 190.75,
      "duration": 0.25,
      "velocity": 0.71
    },
    {
      "id": "n-00950",
      "pitch": "G#2",
      "midi": 44,
      "start": 191,
      "duration": 0.25,
      "velocity": 0.71
    },
    {
      "id": "n-00951",
      "pitch": "D#3",
      "midi": 51,
      "start": 191.25,
      "duration": 0.25,
      "velocity": 0.71
    },
    {
      "id": "n-00952",
      "pitch": "G#2",
      "midi": 44,
      "start": 191.5,
      "duration": 0.25,
      "velocity": 0.71
    },
    {
      "id": "n-00953",
      "pitch": "D#3",
      "midi": 51,
      "start": 191.75,
      "duration": 0.25,
      "velocity": 0.71
    },
    {
      "id": "n-00954",
      "pitch": "G#2",
      "midi": 44,
      "start": 192,
      "duration": 0.25,
      "velocity": 0.71
    },
    {
      "id": "n-00955",
      "pitch": "C4",
      "midi": 60,
      "start": 192,
      "duration": 1.5,
      "velocity": 0.71
    },
    {
      "id": "n-00956",
      "pitch": "D#4",
      "midi": 63,
      "start": 192,
      "duration": 1,
      "velocity": 0.71
    },
    {
      "id": "n-00957",
      "pitch": "F#4",
      "midi": 66,
      "start": 192,
      "duration": 1,
      "velocity": 0.71
    },
    {
      "id": "n-00958",
      "pitch": "D#3",
      "midi": 51,
      "start": 192.25,
      "duration": 0.25,
      "velocity": 0.71
    },
    {
      "id": "n-00959",
      "pitch": "G#2",
      "midi": 44,
      "start": 192.5,
      "duration": 0.25,
      "velocity": 0.71
    },
    {
      "id": "n-00960",
      "pitch": "D#3",
      "midi": 51,
      "start": 192.75,
      "duration": 0.25,
      "velocity": 0.71
    },
    {
      "id": "n-00961",
      "pitch": "G#2",
      "midi": 44,
      "start": 193,
      "duration": 0.25,
      "velocity": 0.71
    },
    {
      "id": "n-00962",
      "pitch": "D#4",
      "midi": 63,
      "start": 193,
      "duration": 0.5,
      "velocity": 0.71
    },
    {
      "id": "n-00963",
      "pitch": "F#4",
      "midi": 66,
      "start": 193,
      "duration": 0.5,
      "velocity": 0.71
    },
    {
      "id": "n-00964",
      "pitch": "A#4",
      "midi": 70,
      "start": 193,
      "duration": 0.5,
      "velocity": 0.71
    },
    {
      "id": "n-00965",
      "pitch": "D#3",
      "midi": 51,
      "start": 193.25,
      "duration": 0.25,
      "velocity": 0.71
    },
    {
      "id": "n-00966",
      "pitch": "G#2",
      "midi": 44,
      "start": 193.5,
      "duration": 0.25,
      "velocity": 0.71
    },
    {
      "id": "n-00967",
      "pitch": "F#3",
      "midi": 54,
      "start": 193.5,
      "duration": 1,
      "velocity": 0.71
    },
    {
      "id": "n-00968",
      "pitch": "C#4",
      "midi": 61,
      "start": 193.5,
      "duration": 3,
      "velocity": 0.71
    },
    {
      "id": "n-00969",
      "pitch": "D#4",
      "midi": 63,
      "start": 193.5,
      "duration": 3,
      "velocity": 0.71
    },
    {
      "id": "n-00970",
      "pitch": "D#3",
      "midi": 51,
      "start": 193.75,
      "duration": 0.25,
      "velocity": 0.71
    },
    {
      "id": "n-00971",
      "pitch": "G#2",
      "midi": 44,
      "start": 194,
      "duration": 0.25,
      "velocity": 0.71
    },
    {
      "id": "n-00972",
      "pitch": "D#3",
      "midi": 51,
      "start": 194.25,
      "duration": 0.25,
      "velocity": 0.71
    },
    {
      "id": "n-00973",
      "pitch": "G#2",
      "midi": 44,
      "start": 194.5,
      "duration": 0.25,
      "velocity": 0.71
    },
    {
      "id": "n-00974",
      "pitch": "G#3",
      "midi": 56,
      "start": 194.5,
      "duration": 0.5,
      "velocity": 0.71
    },
    {
      "id": "n-00975",
      "pitch": "D#3",
      "midi": 51,
      "start": 194.75,
      "duration": 0.25,
      "velocity": 0.71
    },
    {
      "id": "n-00976",
      "pitch": "G#2",
      "midi": 44,
      "start": 195,
      "duration": 0.25,
      "velocity": 0.71
    },
    {
      "id": "n-00977",
      "pitch": "A#3",
      "midi": 58,
      "start": 195,
      "duration": 1,
      "velocity": 0.71
    },
    {
      "id": "n-00978",
      "pitch": "D#3",
      "midi": 51,
      "start": 195.25,
      "duration": 0.25,
      "velocity": 0.71
    },
    {
      "id": "n-00979",
      "pitch": "G#2",
      "midi": 44,
      "start": 195.5,
      "duration": 0.25,
      "velocity": 0.71
    },
    {
      "id": "n-00980",
      "pitch": "D#3",
      "midi": 51,
      "start": 195.75,
      "duration": 0.25,
      "velocity": 0.71
    },
    {
      "id": "n-00981",
      "pitch": "G#2",
      "midi": 44,
      "start": 196,
      "duration": 0.25,
      "velocity": 0.71
    },
    {
      "id": "n-00982",
      "pitch": "D#3",
      "midi": 51,
      "start": 196.25,
      "duration": 0.25,
      "velocity": 0.71
    },
    {
      "id": "n-00983",
      "pitch": "G#2",
      "midi": 44,
      "start": 196.5,
      "duration": 0.25,
      "velocity": 0.71
    },
    {
      "id": "n-00984",
      "pitch": "C4",
      "midi": 60,
      "start": 196.5,
      "duration": 1.5,
      "velocity": 0.71
    },
    {
      "id": "n-00985",
      "pitch": "D#4",
      "midi": 63,
      "start": 196.5,
      "duration": 1,
      "velocity": 0.71
    },
    {
      "id": "n-00986",
      "pitch": "F#4",
      "midi": 66,
      "start": 196.5,
      "duration": 1,
      "velocity": 0.71
    },
    {
      "id": "n-00987",
      "pitch": "D#3",
      "midi": 51,
      "start": 196.75,
      "duration": 0.25,
      "velocity": 0.71
    },
    {
      "id": "n-00988",
      "pitch": "G#2",
      "midi": 44,
      "start": 197,
      "duration": 0.25,
      "velocity": 0.71
    },
    {
      "id": "n-00989",
      "pitch": "D#3",
      "midi": 51,
      "start": 197.25,
      "duration": 0.25,
      "velocity": 0.71
    },
    {
      "id": "n-00990",
      "pitch": "G#2",
      "midi": 44,
      "start": 197.5,
      "duration": 0.25,
      "velocity": 0.71
    },
    {
      "id": "n-00991",
      "pitch": "D#4",
      "midi": 63,
      "start": 197.5,
      "duration": 0.5,
      "velocity": 0.71
    },
    {
      "id": "n-00992",
      "pitch": "F#4",
      "midi": 66,
      "start": 197.5,
      "duration": 1,
      "velocity": 0.71
    },
    {
      "id": "n-00993",
      "pitch": "A#4",
      "midi": 70,
      "start": 197.5,
      "duration": 1,
      "velocity": 0.71
    },
    {
      "id": "n-00994",
      "pitch": "D#3",
      "midi": 51,
      "start": 197.75,
      "duration": 0.25,
      "velocity": 0.71
    },
    {
      "id": "n-00995",
      "pitch": "G#2",
      "midi": 44,
      "start": 198,
      "duration": 0.25,
      "velocity": 0.71
    },
    {
      "id": "n-00996",
      "pitch": "C#4",
      "midi": 61,
      "start": 198,
      "duration": 0.5,
      "velocity": 0.71
    },
    {
      "id": "n-00997",
      "pitch": "D#2",
      "midi": 39,
      "start": 198.25,
      "duration": 0.25,
      "velocity": 0.71
    },
    {
      "id": "n-00998",
      "pitch": "G#2",
      "midi": 44,
      "start": 198.5,
      "duration": 0.25,
      "velocity": 0.71
    },
    {
      "id": "n-00999",
      "pitch": "G#4",
      "midi": 68,
      "start": 198.5,
      "duration": 0.5,
      "velocity": 0.71
    },
    {
      "id": "n-01000",
      "pitch": "C5",
      "midi": 72,
      "start": 198.5,
      "duration": 0.5,
      "velocity": 0.71
    },
    {
      "id": "n-01001",
      "pitch": "F5",
      "midi": 77,
      "start": 198.5,
      "duration": 0.5,
      "velocity": 0.71
    },
    {
      "id": "n-01002",
      "pitch": "D#3",
      "midi": 51,
      "start": 198.75,
      "duration": 0.25,
      "velocity": 0.71
    },
    {
      "id": "n-01003",
      "pitch": "G#2",
      "midi": 44,
      "start": 199,
      "duration": 0.25,
      "velocity": 0.71
    },
    {
      "id": "n-01004",
      "pitch": "F#4",
      "midi": 66,
      "start": 199,
      "duration": 0.5,
      "velocity": 0.71
    },
    {
      "id": "n-01005",
      "pitch": "A#4",
      "midi": 70,
      "start": 199,
      "duration": 0.5,
      "velocity": 0.71
    },
    {
      "id": "n-01006",
      "pitch": "D#5",
      "midi": 75,
      "start": 199,
      "duration": 0.5,
      "velocity": 0.71
    },
    {
      "id": "n-01007",
      "pitch": "D#3",
      "midi": 51,
      "start": 199.25,
      "duration": 0.25,
      "velocity": 0.71
    },
    {
      "id": "n-01008",
      "pitch": "G#3",
      "midi": 56,
      "start": 199.5,
      "duration": 0.25,
      "velocity": 0.71
    },
    {
      "id": "n-01009",
      "pitch": "C#4",
      "midi": 61,
      "start": 199.5,
      "duration": 0.5,
      "velocity": 0.71
    },
    {
      "id": "n-01010",
      "pitch": "F#4",
      "midi": 66,
      "start": 199.5,
      "duration": 1.5,
      "velocity": 0.71
    },
    {
      "id": "n-01011",
      "pitch": "A#4",
      "midi": 70,
      "start": 199.5,
      "duration": 1.5,
      "velocity": 0.71
    },
    {
      "id": "n-01012",
      "pitch": "D#3",
      "midi": 51,
      "start": 199.75,
      "duration": 0.25,
      "velocity": 0.71
    },
    {
      "id": "n-01013",
      "pitch": "G#3",
      "midi": 56,
      "start": 200,
      "duration": 0.25,
      "velocity": 0.71
    },
    {
      "id": "n-01014",
      "pitch": "A#3",
      "midi": 58,
      "start": 200,
      "duration": 0.5,
      "velocity": 0.71
    },
    {
      "id": "n-01015",
      "pitch": "D#4",
      "midi": 63,
      "start": 200.25,
      "duration": 0.25,
      "velocity": 0.71
    },
    {
      "id": "n-01016",
      "pitch": "G#3",
      "midi": 56,
      "start": 200.5,
      "duration": 0.25,
      "velocity": 0.71
    },
    {
      "id": "n-01017",
      "pitch": "C#4",
      "midi": 61,
      "start": 200.5,
      "duration": 0.5,
      "velocity": 0.71
    },
    {
      "id": "n-01018",
      "pitch": "D#3",
      "midi": 51,
      "start": 200.75,
      "duration": 0.25,
      "velocity": 0.71
    },
    {
      "id": "n-01019",
      "pitch": "G#3",
      "midi": 56,
      "start": 201,
      "duration": 0.25,
      "velocity": 0.71
    },
    {
      "id": "n-01020",
      "pitch": "A#3",
      "midi": 58,
      "start": 201,
      "duration": 0.5,
      "velocity": 0.71
    },
    {
      "id": "n-01021",
      "pitch": "F#4",
      "midi": 66,
      "start": 201,
      "duration": 1.5,
      "velocity": 0.71
    },
    {
      "id": "n-01022",
      "pitch": "G#4",
      "midi": 68,
      "start": 201,
      "duration": 1.5,
      "velocity": 0.71
    },
    {
      "id": "n-01023",
      "pitch": "D#3",
      "midi": 51,
      "start": 201.25,
      "duration": 0.25,
      "velocity": 0.71
    },
    {
      "id": "n-01024",
      "pitch": "G#2",
      "midi": 44,
      "start": 201.5,
      "duration": 0.25,
      "velocity": 0.71
    },
    {
      "id": "n-01025",
      "pitch": "C4",
      "midi": 60,
      "start": 201.5,
      "duration": 0.5,
      "velocity": 0.71
    },
    {
      "id": "n-01026",
      "pitch": "D#3",
      "midi": 51,
      "start": 201.75,
      "duration": 0.25,
      "velocity": 0.71
    },
    {
      "id": "n-01027",
      "pitch": "G#2",
      "midi": 44,
      "start": 202,
      "duration": 0.25,
      "velocity": 0.71
    },
    {
      "id": "n-01028",
      "pitch": "D#4",
      "midi": 63,
      "start": 202,
      "duration": 0.5,
      "velocity": 0.71
    },
    {
      "id": "n-01029",
      "pitch": "D#2",
      "midi": 39,
      "start": 202.25,
      "duration": 0.25,
      "velocity": 0.71
    },
    {
      "id": "n-01030",
      "pitch": "G#2",
      "midi": 44,
      "start": 202.5,
      "duration": 0.25,
      "velocity": 0.71
    },
    {
      "id": "n-01031",
      "pitch": "C#4",
      "midi": 61,
      "start": 202.5,
      "duration": 0.5,
      "velocity": 0.71
    },
    {
      "id": "n-01032",
      "pitch": "F#4",
      "midi": 66,
      "start": 202.5,
      "duration": 0.5,
      "velocity": 0.71
    },
    {
      "id": "n-01033",
      "pitch": "A#4",
      "midi": 70,
      "start": 202.5,
      "duration": 0.5,
      "velocity": 0.71
    },
    {
      "id": "n-01034",
      "pitch": "D#2",
      "midi": 39,
      "start": 202.75,
      "duration": 0.25,
      "velocity": 0.71
    },
    {
      "id": "n-01035",
      "pitch": "G#2",
      "midi": 44,
      "start": 203,
      "duration": 0.25,
      "velocity": 0.71
    },
    {
      "id": "n-01036",
      "pitch": "G#4",
      "midi": 68,
      "start": 203,
      "duration": 0.5,
      "velocity": 0.71
    },
    {
      "id": "n-01037",
      "pitch": "C5",
      "midi": 72,
      "start": 203,
      "duration": 0.5,
      "velocity": 0.71
    },
    {
      "id": "n-01038",
      "pitch": "F5",
      "midi": 77,
      "start": 203,
      "duration": 0.5,
      "velocity": 0.71
    },
    {
      "id": "n-01039",
      "pitch": "D#3",
      "midi": 51,
      "start": 203.25,
      "duration": 0.25,
      "velocity": 0.71
    },
    {
      "id": "n-01040",
      "pitch": "G#2",
      "midi": 44,
      "start": 203.5,
      "duration": 0.25,
      "velocity": 0.71
    },
    {
      "id": "n-01041",
      "pitch": "F#4",
      "midi": 66,
      "start": 203.5,
      "duration": 0.5,
      "velocity": 0.71
    },
    {
      "id": "n-01042",
      "pitch": "A#4",
      "midi": 70,
      "start": 203.5,
      "duration": 0.5,
      "velocity": 0.71
    },
    {
      "id": "n-01043",
      "pitch": "D#5",
      "midi": 75,
      "start": 203.5,
      "duration": 0.5,
      "velocity": 0.71
    },
    {
      "id": "n-01044",
      "pitch": "D#3",
      "midi": 51,
      "start": 203.75,
      "duration": 0.25,
      "velocity": 0.71
    },
    {
      "id": "n-01045",
      "pitch": "G#3",
      "midi": 56,
      "start": 204,
      "duration": 0.25,
      "velocity": 0.71
    },
    {
      "id": "n-01046",
      "pitch": "C#4",
      "midi": 61,
      "start": 204,
      "duration": 0.5,
      "velocity": 0.71
    },
    {
      "id": "n-01047",
      "pitch": "F#4",
      "midi": 66,
      "start": 204,
      "duration": 1.5,
      "velocity": 0.71
    },
    {
      "id": "n-01048",
      "pitch": "A#4",
      "midi": 70,
      "start": 204,
      "duration": 1.5,
      "velocity": 0.71
    },
    {
      "id": "n-01049",
      "pitch": "D#3",
      "midi": 51,
      "start": 204.25,
      "duration": 0.25,
      "velocity": 0.71
    },
    {
      "id": "n-01050",
      "pitch": "G#3",
      "midi": 56,
      "start": 204.5,
      "duration": 0.25,
      "velocity": 0.71
    },
    {
      "id": "n-01051",
      "pitch": "A#3",
      "midi": 58,
      "start": 204.5,
      "duration": 0.5,
      "velocity": 0.71
    },
    {
      "id": "n-01052",
      "pitch": "D#4",
      "midi": 63,
      "start": 204.75,
      "duration": 0.25,
      "velocity": 0.71
    },
    {
      "id": "n-01053",
      "pitch": "G#3",
      "midi": 56,
      "start": 205,
      "duration": 0.25,
      "velocity": 0.71
    },
    {
      "id": "n-01054",
      "pitch": "C#4",
      "midi": 61,
      "start": 205,
      "duration": 0.5,
      "velocity": 0.71
    },
    {
      "id": "n-01055",
      "pitch": "D#3",
      "midi": 51,
      "start": 205.25,
      "duration": 0.25,
      "velocity": 0.71
    },
    {
      "id": "n-01056",
      "pitch": "G#3",
      "midi": 56,
      "start": 205.5,
      "duration": 0.25,
      "velocity": 0.71
    },
    {
      "id": "n-01057",
      "pitch": "A#3",
      "midi": 58,
      "start": 205.5,
      "duration": 0.5,
      "velocity": 0.71
    },
    {
      "id": "n-01058",
      "pitch": "F#4",
      "midi": 66,
      "start": 205.5,
      "duration": 1.5,
      "velocity": 0.71
    },
    {
      "id": "n-01059",
      "pitch": "G#4",
      "midi": 68,
      "start": 205.5,
      "duration": 1.5,
      "velocity": 0.71
    },
    {
      "id": "n-01060",
      "pitch": "D#3",
      "midi": 51,
      "start": 205.75,
      "duration": 0.25,
      "velocity": 0.71
    },
    {
      "id": "n-01061",
      "pitch": "G#3",
      "midi": 56,
      "start": 206,
      "duration": 0.25,
      "velocity": 0.71
    },
    {
      "id": "n-01062",
      "pitch": "C4",
      "midi": 60,
      "start": 206,
      "duration": 0.5,
      "velocity": 0.71
    },
    {
      "id": "n-01063",
      "pitch": "D#3",
      "midi": 51,
      "start": 206.25,
      "duration": 0.25,
      "velocity": 0.71
    },
    {
      "id": "n-01064",
      "pitch": "G#3",
      "midi": 56,
      "start": 206.5,
      "duration": 0.25,
      "velocity": 0.71
    },
    {
      "id": "n-01065",
      "pitch": "D#4",
      "midi": 63,
      "start": 206.5,
      "duration": 0.5,
      "velocity": 0.71
    },
    {
      "id": "n-01066",
      "pitch": "D#3",
      "midi": 51,
      "start": 206.75,
      "duration": 0.25,
      "velocity": 0.71
    },
    {
      "id": "n-01067",
      "pitch": "F#3",
      "midi": 54,
      "start": 207,
      "duration": 1,
      "velocity": 0.71
    },
    {
      "id": "n-01068",
      "pitch": "C#4",
      "midi": 61,
      "start": 207,
      "duration": 3,
      "velocity": 0.71
    },
    {
      "id": "n-01069",
      "pitch": "D#5",
      "midi": 75,
      "start": 207,
      "duration": 3,
      "velocity": 0.71
    },
    {
      "id": "n-01070",
      "pitch": "D#4",
      "midi": 63,
      "start": 207.25,
      "duration": 0.25,
      "velocity": 0.71
    },
    {
      "id": "n-01071",
      "pitch": "F#4",
      "midi": 66,
      "start": 207.5,
      "duration": 0.25,
      "velocity": 0.71
    },
    {
      "id": "n-01072",
      "pitch": "A#4",
      "midi": 70,
      "start": 207.75,
      "duration": 0.25,
      "velocity": 0.71
    },
    {
      "id": "n-01073",
      "pitch": "G#3",
      "midi": 56,
      "start": 208,
      "duration": 0.5,
      "velocity": 0.71
    },
    {
      "id": "n-01074",
      "pitch": "F#4",
      "midi": 66,
      "start": 208,
      "duration": 0.25,
      "velocity": 0.71
    },
    {
      "id": "n-01075",
      "pitch": "D#4",
      "midi": 63,
      "start": 208.25,
      "duration": 0.25,
      "velocity": 0.71
    },
    {
      "id": "n-01076",
      "pitch": "A#3",
      "midi": 58,
      "start": 208.5,
      "duration": 1,
      "velocity": 0.71
    },
    {
      "id": "n-01077",
      "pitch": "D#4",
      "midi": 63,
      "start": 208.75,
      "duration": 0.25,
      "velocity": 0.71
    },
    {
      "id": "n-01078",
      "pitch": "F#4",
      "midi": 66,
      "start": 209,
      "duration": 0.25,
      "velocity": 0.71
    },
    {
      "id": "n-01079",
      "pitch": "A#4",
      "midi": 70,
      "start": 209.25,
      "duration": 0.25,
      "velocity": 0.71
    },
    {
      "id": "n-01080",
      "pitch": "F#4",
      "midi": 66,
      "start": 209.5,
      "duration": 0.25,
      "velocity": 0.71
    },
    {
      "id": "n-01081",
      "pitch": "D#4",
      "midi": 63,
      "start": 209.75,
      "duration": 0.25,
      "velocity": 0.71
    },
    {
      "id": "n-01082",
      "pitch": "C4",
      "midi": 60,
      "start": 210,
      "duration": 1.5,
      "velocity": 0.71
    },
    {
      "id": "n-01083",
      "pitch": "F#5",
      "midi": 78,
      "start": 210,
      "duration": 1,
      "velocity": 0.71
    },
    {
      "id": "n-01084",
      "pitch": "D#4",
      "midi": 63,
      "start": 210.25,
      "duration": 0.25,
      "velocity": 0.71
    },
    {
      "id": "n-01085",
      "pitch": "F#4",
      "midi": 66,
      "start": 210.5,
      "duration": 0.25,
      "velocity": 0.71
    },
    {
      "id": "n-01086",
      "pitch": "A#4",
      "midi": 70,
      "start": 210.75,
      "duration": 0.25,
      "velocity": 0.71
    },
    {
      "id": "n-01087",
      "pitch": "C5",
      "midi": 72,
      "start": 211,
      "duration": 0.25,
      "velocity": 0.71
    },
    {
      "id": "n-01088",
      "pitch": "A#5",
      "midi": 82,
      "start": 211,
      "duration": 0.5,
      "velocity": 0.71
    },
    {
      "id": "n-01089",
      "pitch": "D#5",
      "midi": 75,
      "start": 211.25,
      "duration": 0.25,
      "velocity": 0.71
    },
    {
      "id": "n-01090",
      "pitch": "F#3",
      "midi": 54,
      "start": 211.5,
      "duration": 1,
      "velocity": 0.71
    },
    {
      "id": "n-01091",
      "pitch": "C#4",
      "midi": 61,
      "start": 211.5,
      "duration": 3,
      "velocity": 0.71
    },
    {
      "id": "n-01092",
      "pitch": "D#5",
      "midi": 75,
      "start": 211.5,
      "duration": 3,
      "velocity": 0.71
    },
    {
      "id": "n-01093",
      "pitch": "D#4",
      "midi": 63,
      "start": 211.75,
      "duration": 0.25,
      "velocity": 0.71
    },
    {
      "id": "n-01094",
      "pitch": "F#4",
      "midi": 66,
      "start": 212,
      "duration": 0.25,
      "velocity": 0.71
    },
    {
      "id": "n-01095",
      "pitch": "A#4",
      "midi": 70,
      "start": 212.25,
      "duration": 0.25,
      "velocity": 0.71
    },
    {
      "id": "n-01096",
      "pitch": "G#3",
      "midi": 56,
      "start": 212.5,
      "duration": 0.5,
      "velocity": 0.71
    },
    {
      "id": "n-01097",
      "pitch": "F#4",
      "midi": 66,
      "start": 212.5,
      "duration": 0.25,
      "velocity": 0.71
    },
    {
      "id": "n-01098",
      "pitch": "D#4",
      "midi": 63,
      "start": 212.75,
      "duration": 0.25,
      "velocity": 0.71
    },
    {
      "id": "n-01099",
      "pitch": "A#3",
      "midi": 58,
      "start": 213,
      "duration": 1,
      "velocity": 0.71
    },
    {
      "id": "n-01100",
      "pitch": "D#4",
      "midi": 63,
      "start": 213.25,
      "duration": 0.25,
      "velocity": 0.71
    },
    {
      "id": "n-01101",
      "pitch": "F#4",
      "midi": 66,
      "start": 213.5,
      "duration": 0.25,
      "velocity": 0.71
    },
    {
      "id": "n-01102",
      "pitch": "A#4",
      "midi": 70,
      "start": 213.75,
      "duration": 0.25,
      "velocity": 0.71
    },
    {
      "id": "n-01103",
      "pitch": "F#4",
      "midi": 66,
      "start": 214,
      "duration": 0.25,
      "velocity": 0.71
    },
    {
      "id": "n-01104",
      "pitch": "D#4",
      "midi": 63,
      "start": 214.25,
      "duration": 0.25,
      "velocity": 0.71
    },
    {
      "id": "n-01105",
      "pitch": "C4",
      "midi": 60,
      "start": 214.5,
      "duration": 1.5,
      "velocity": 0.71
    },
    {
      "id": "n-01106",
      "pitch": "F#5",
      "midi": 78,
      "start": 214.5,
      "duration": 1,
      "velocity": 0.71
    },
    {
      "id": "n-01107",
      "pitch": "D#4",
      "midi": 63,
      "start": 214.75,
      "duration": 0.25,
      "velocity": 0.71
    },
    {
      "id": "n-01108",
      "pitch": "F#4",
      "midi": 66,
      "start": 215,
      "duration": 0.25,
      "velocity": 0.71
    },
    {
      "id": "n-01109",
      "pitch": "A#4",
      "midi": 70,
      "start": 215.25,
      "duration": 0.25,
      "velocity": 0.71
    },
    {
      "id": "n-01110",
      "pitch": "C5",
      "midi": 72,
      "start": 215.5,
      "duration": 0.25,
      "velocity": 0.71
    },
    {
      "id": "n-01111",
      "pitch": "A#5",
      "midi": 82,
      "start": 215.5,
      "duration": 0.5,
      "velocity": 0.71
    },
    {
      "id": "n-01112",
      "pitch": "D#5",
      "midi": 75,
      "start": 215.75,
      "duration": 0.25,
      "velocity": 0.71
    },
    {
      "id": "n-01113",
      "pitch": "F#4",
      "midi": 66,
      "start": 216,
      "duration": 4.5,
      "velocity": 0.71
    },
    {
      "id": "n-01114",
      "pitch": "D#6",
      "midi": 87,
      "start": 216,
      "duration": 6,
      "velocity": 0.71
    },
    {
      "id": "n-01115",
      "pitch": "A#4",
      "midi": 70,
      "start": 216.25,
      "duration": 0.25,
      "velocity": 0.71
    },
    {
      "id": "n-01116",
      "pitch": "C#5",
      "midi": 73,
      "start": 216.5,
      "duration": 0.25,
      "velocity": 0.71
    },
    {
      "id": "n-01117",
      "pitch": "D#5",
      "midi": 75,
      "start": 216.75,
      "duration": 0.25,
      "velocity": 0.71
    },
    {
      "id": "n-01118",
      "pitch": "F#5",
      "midi": 78,
      "start": 217,
      "duration": 0.25,
      "velocity": 0.71
    },
    {
      "id": "n-01119",
      "pitch": "A#5",
      "midi": 82,
      "start": 217.25,
      "duration": 0.25,
      "velocity": 0.71
    },
    {
      "id": "n-01120",
      "pitch": "A#4",
      "midi": 70,
      "start": 217.75,
      "duration": 0.25,
      "velocity": 0.71
    },
    {
      "id": "n-01121",
      "pitch": "C#5",
      "midi": 73,
      "start": 218,
      "duration": 0.25,
      "velocity": 0.71
    },
    {
      "id": "n-01122",
      "pitch": "D#5",
      "midi": 75,
      "start": 218.25,
      "duration": 0.25,
      "velocity": 0.71
    },
    {
      "id": "n-01123",
      "pitch": "F#5",
      "midi": 78,
      "start": 218.5,
      "duration": 0.25,
      "velocity": 0.71
    },
    {
      "id": "n-01124",
      "pitch": "C6",
      "midi": 84,
      "start": 218.75,
      "duration": 0.25,
      "velocity": 0.71
    },
    {
      "id": "n-01125",
      "pitch": "A#4",
      "midi": 70,
      "start": 219.25,
      "duration": 0.25,
      "velocity": 0.71
    },
    {
      "id": "n-01126",
      "pitch": "C#5",
      "midi": 73,
      "start": 219.5,
      "duration": 0.25,
      "velocity": 0.71
    },
    {
      "id": "n-01127",
      "pitch": "D#5",
      "midi": 75,
      "start": 219.75,
      "duration": 0.25,
      "velocity": 0.71
    },
    {
      "id": "n-01128",
      "pitch": "F#5",
      "midi": 78,
      "start": 220,
      "duration": 0.25,
      "velocity": 0.71
    },
    {
      "id": "n-01129",
      "pitch": "A#5",
      "midi": 82,
      "start": 220.25,
      "duration": 0.25,
      "velocity": 0.71
    },
    {
      "id": "n-01130",
      "pitch": "F#4",
      "midi": 66,
      "start": 220.5,
      "duration": 4.5,
      "velocity": 0.71
    },
    {
      "id": "n-01131",
      "pitch": "A4",
      "midi": 69,
      "start": 220.75,
      "duration": 0.25,
      "velocity": 0.71
    },
    {
      "id": "n-01132",
      "pitch": "C#5",
      "midi": 73,
      "start": 221,
      "duration": 0.25,
      "velocity": 0.71
    },
    {
      "id": "n-01133",
      "pitch": "D#5",
      "midi": 75,
      "start": 221.25,
      "duration": 0.25,
      "velocity": 0.71
    },
    {
      "id": "n-01134",
      "pitch": "F#5",
      "midi": 78,
      "start": 221.5,
      "duration": 0.25,
      "velocity": 0.71
    },
    {
      "id": "n-01135",
      "pitch": "A5",
      "midi": 81,
      "start": 221.75,
      "duration": 0.25,
      "velocity": 0.71
    },
    {
      "id": "n-01136",
      "pitch": "C#6",
      "midi": 85,
      "start": 222,
      "duration": 1.5,
      "velocity": 0.71
    },
    {
      "id": "n-01137",
      "pitch": "A4",
      "midi": 69,
      "start": 222.25,
      "duration": 0.25,
      "velocity": 0.71
    },
    {
      "id": "n-01138",
      "pitch": "C#5",
      "midi": 73,
      "start": 222.5,
      "duration": 0.25,
      "velocity": 0.71
    },
    {
      "id": "n-01139",
      "pitch": "D#5",
      "midi": 75,
      "start": 222.75,
      "duration": 0.25,
      "velocity": 0.71
    },
    {
      "id": "n-01140",
      "pitch": "F#5",
      "midi": 78,
      "start": 223,
      "duration": 0.25,
      "velocity": 0.71
    },
    {
      "id": "n-01141",
      "pitch": "B5",
      "midi": 83,
      "start": 223.25,
      "duration": 0.25,
      "velocity": 0.71
    },
    {
      "id": "n-01142",
      "pitch": "D#6",
      "midi": 87,
      "start": 223.5,
      "duration": 1.5,
      "velocity": 0.71
    },
    {
      "id": "n-01143",
      "pitch": "A4",
      "midi": 69,
      "start": 223.75,
      "duration": 0.25,
      "velocity": 0.71
    },
    {
      "id": "n-01144",
      "pitch": "C#5",
      "midi": 73,
      "start": 224,
      "duration": 0.25,
      "velocity": 0.71
    },
    {
      "id": "n-01145",
      "pitch": "D#5",
      "midi": 75,
      "start": 224.25,
      "duration": 0.25,
      "velocity": 0.71
    },
    {
      "id": "n-01146",
      "pitch": "F#5",
      "midi": 78,
      "start": 224.5,
      "duration": 0.25,
      "velocity": 0.71
    },
    {
      "id": "n-01147",
      "pitch": "A5",
      "midi": 81,
      "start": 224.75,
      "duration": 0.25,
      "velocity": 0.71
    },
    {
      "id": "n-01148",
      "pitch": "F4",
      "midi": 65,
      "start": 225,
      "duration": 3,
      "velocity": 0.71
    },
    {
      "id": "n-01149",
      "pitch": "G#4",
      "midi": 68,
      "start": 225.25,
      "duration": 0.25,
      "velocity": 0.71
    },
    {
      "id": "n-01150",
      "pitch": "C5",
      "midi": 72,
      "start": 225.5,
      "duration": 0.25,
      "velocity": 0.71
    },
    {
      "id": "n-01151",
      "pitch": "F5",
      "midi": 77,
      "start": 225.75,
      "duration": 0.25,
      "velocity": 0.71
    },
    {
      "id": "n-01152",
      "pitch": "G#5",
      "midi": 80,
      "start": 226,
      "duration": 0.25,
      "velocity": 0.71
    },
    {
      "id": "n-01153",
      "pitch": "C6",
      "midi": 84,
      "start": 226.25,
      "duration": 0.25,
      "velocity": 0.71
    },
    {
      "id": "n-01154",
      "pitch": "F6",
      "midi": 89,
      "start": 226.5,
      "duration": 1.5,
      "velocity": 0.71
    },
    {
      "id": "n-01155",
      "pitch": "G#6",
      "midi": 92,
      "start": 226.5,
      "duration": 1.5,
      "velocity": 0.71
    },
    {
      "id": "n-01156",
      "pitch": "F4",
      "midi": 65,
      "start": 228,
      "duration": 1.5,
      "velocity": 0.71
    },
    {
      "id": "n-01157",
      "pitch": "F6",
      "midi": 89,
      "start": 228,
      "duration": 2,
      "velocity": 0.71
    },
    {
      "id": "n-01158",
      "pitch": "F4",
      "midi": 65,
      "start": 229.5,
      "duration": 3,
      "velocity": 0.71
    },
    {
      "id": "n-01159",
      "pitch": "A4",
      "midi": 69,
      "start": 229.75,
      "duration": 0.25,
      "velocity": 0.71
    },
    {
      "id": "n-01160",
      "pitch": "C5",
      "midi": 72,
      "start": 230,
      "duration": 0.25,
      "velocity": 0.71
    },
    {
      "id": "n-01161",
      "pitch": "C6",
      "midi": 84,
      "start": 230,
      "duration": 0.5,
      "velocity": 0.71
    },
    {
      "id": "n-01162",
      "pitch": "D#6",
      "midi": 87,
      "start": 230,
      "duration": 0.5,
      "velocity": 0.71
    },
    {
      "id": "n-01163",
      "pitch": "D#5",
      "midi": 75,
      "start": 230.25,
      "duration": 0.25,
      "velocity": 0.71
    },
    {
      "id": "n-01164",
      "pitch": "F5",
      "midi": 77,
      "start": 230.5,
      "duration": 0.25,
      "velocity": 0.71
    },
    {
      "id": "n-01165",
      "pitch": "C#6",
      "midi": 85,
      "start": 230.5,
      "duration": 0.5,
      "velocity": 0.71
    },
    {
      "id": "n-01166",
      "pitch": "F6",
      "midi": 89,
      "start": 230.5,
      "duration": 0.5,
      "velocity": 0.71
    },
    {
      "id": "n-01167",
      "pitch": "A5",
      "midi": 81,
      "start": 230.75,
      "duration": 0.25,
      "velocity": 0.71
    },
    {
      "id": "n-01168",
      "pitch": "C6",
      "midi": 84,
      "start": 231,
      "duration": 3.5,
      "velocity": 0.71
    },
    {
      "id": "n-01169",
      "pitch": "D#6",
      "midi": 87,
      "start": 231,
      "duration": 3.5,
      "velocity": 0.71
    },
    {
      "id": "n-01170",
      "pitch": "F4",
      "midi": 65,
      "start": 232.5,
      "duration": 1.5,
      "velocity": 0.71
    },
    {
      "id": "n-01171",
      "pitch": "F4",
      "midi": 65,
      "start": 234,
      "duration": 3,
      "velocity": 0.71
    },
    {
      "id": "n-01172",
      "pitch": "G#4",
      "midi": 68,
      "start": 234.25,
      "duration": 0.25,
      "velocity": 0.71
    },
    {
      "id": "n-01173",
      "pitch": "A#4",
      "midi": 70,
      "start": 234.5,
      "duration": 0.25,
      "velocity": 0.71
    },
    {
      "id": "n-01174",
      "pitch": "A#5",
      "midi": 82,
      "start": 234.5,
      "duration": 0.5,
      "velocity": 0.71
    },
    {
      "id": "n-01175",
      "pitch": "C#6",
      "midi": 85,
      "start": 234.5,
      "duration": 0.5,
      "velocity": 0.71
    },
    {
      "id": "n-01176",
      "pitch": "C#5",
      "midi": 73,
      "start": 234.75,
      "duration": 0.25,
      "velocity": 0.71
    },
    {
      "id": "n-01177",
      "pitch": "F5",
      "midi": 77,
      "start": 235,
      "duration": 0.25,
      "velocity": 0.71
    },
    {
      "id": "n-01178",
      "pitch": "C6",
      "midi": 84,
      "start": 235,
      "duration": 0.5,
      "velocity": 0.71
    },
    {
      "id": "n-01179",
      "pitch": "D#6",
      "midi": 87,
      "start": 235,
      "duration": 0.5,
      "velocity": 0.71
    },
    {
      "id": "n-01180",
      "pitch": "G#5",
      "midi": 80,
      "start": 235.25,
      "duration": 0.25,
      "velocity": 0.71
    },
    {
      "id": "n-01181",
      "pitch": "A#5",
      "midi": 82,
      "start": 235.5,
      "duration": 3.5,
      "velocity": 0.71
    },
    {
      "id": "n-01182",
      "pitch": "C#6",
      "midi": 85,
      "start": 235.5,
      "duration": 0.75,
      "velocity": 0.71
    },
    {
      "id": "n-01183",
      "pitch": "C#6",
      "midi": 85,
      "start": 236.25,
      "duration": 1.5,
      "velocity": 0.71
    },
    {
      "id": "n-01184",
      "pitch": "F6",
      "midi": 89,
      "start": 236.25,
      "duration": 1.5,
      "velocity": 0.71
    },
    {
      "id": "n-01185",
      "pitch": "F4",
      "midi": 65,
      "start": 237,
      "duration": 1.5,
      "velocity": 0.71
    },
    {
      "id": "n-01186",
      "pitch": "C#6",
      "midi": 85,
      "start": 237.75,
      "duration": 1.25,
      "velocity": 0.71
    },
    {
      "id": "n-01187",
      "pitch": "D#4",
      "midi": 63,
      "start": 238.5,
      "duration": 3,
      "velocity": 0.71
    },
    {
      "id": "n-01188",
      "pitch": "F#4",
      "midi": 66,
      "start": 238.75,
      "duration": 0.25,
      "velocity": 0.71
    },
    {
      "id": "n-01189",
      "pitch": "G#4",
      "midi": 68,
      "start": 239,
      "duration": 0.25,
      "velocity": 0.71
    },
    {
      "id": "n-01190",
      "pitch": "G#5",
      "midi": 80,
      "start": 239,
      "duration": 0.5,
      "velocity": 0.71
    },
    {
      "id": "n-01191",
      "pitch": "C6",
      "midi": 84,
      "start": 239,
      "duration": 0.5,
      "velocity": 0.71
    },
    {
      "id": "n-01192",
      "pitch": "C5",
      "midi": 72,
      "start": 239.25,
      "duration": 0.25,
      "velocity": 0.71
    },
    {
      "id": "n-01193",
      "pitch": "D#5",
      "midi": 75,
      "start": 239.5,
      "duration": 0.25,
      "velocity": 0.71
    },
    {
      "id": "n-01194",
      "pitch": "A#5",
      "midi": 82,
      "start": 239.5,
      "duration": 0.5,
      "velocity": 0.71
    },
    {
      "id": "n-01195",
      "pitch": "C#6",
      "midi": 85,
      "start": 239.5,
      "duration": 0.5,
      "velocity": 0.71
    },
    {
      "id": "n-01196",
      "pitch": "F#5",
      "midi": 78,
      "start": 239.75,
      "duration": 0.25,
      "velocity": 0.71
    },
    {
      "id": "n-01197",
      "pitch": "G#5",
      "midi": 80,
      "start": 240,
      "duration": 3,
      "velocity": 0.71
    },
    {
      "id": "n-01198",
      "pitch": "C6",
      "midi": 84,
      "start": 240,
      "duration": 3,
      "velocity": 0.71
    },
    {
      "id": "n-01199",
      "pitch": "D#4",
      "midi": 63,
      "start": 241.5,
      "duration": 1.5,
      "velocity": 0.71
    },
    {
      "id": "n-01200",
      "pitch": "C#4",
      "midi": 61,
      "start": 243,
      "duration": 3,
      "velocity": 0.71
    },
    {
      "id": "n-01201",
      "pitch": "D#4",
      "midi": 63,
      "start": 243.25,
      "duration": 0.25,
      "velocity": 0.71
    },
    {
      "id": "n-01202",
      "pitch": "F#4",
      "midi": 66,
      "start": 243.5,
      "duration": 0.25,
      "velocity": 0.71
    },
    {
      "id": "n-01203",
      "pitch": "F#5",
      "midi": 78,
      "start": 243.5,
      "duration": 0.5,
      "velocity": 0.71
    },
    {
      "id": "n-01204",
      "pitch": "A#5",
      "midi": 82,
      "start": 243.5,
      "duration": 0.5,
      "velocity": 0.71
    },
    {
      "id": "n-01205",
      "pitch": "A#4",
      "midi": 70,
      "start": 243.75,
      "duration": 0.25,
      "velocity": 0.71
    },
    {
      "id": "n-01206",
      "pitch": "C#5",
      "midi": 73,
      "start": 244,
      "duration": 0.25,
      "velocity": 0.71
    },
    {
      "id": "n-01207",
      "pitch": "G#5",
      "midi": 80,
      "start": 244,
      "duration": 0.5,
      "velocity": 0.71
    },
    {
      "id": "n-01208",
      "pitch": "C6",
      "midi": 84,
      "start": 244,
      "duration": 0.5,
      "velocity": 0.71
    },
    {
      "id": "n-01209",
      "pitch": "D#5",
      "midi": 75,
      "start": 244.25,
      "duration": 0.25,
      "velocity": 0.71
    },
    {
      "id": "n-01210",
      "pitch": "F#5",
      "midi": 78,
      "start": 244.5,
      "duration": 1.5,
      "velocity": 0.71
    },
    {
      "id": "n-01211",
      "pitch": "A#5",
      "midi": 82,
      "start": 244.5,
      "duration": 0.5,
      "velocity": 0.71
    },
    {
      "id": "n-01212",
      "pitch": "D#6",
      "midi": 87,
      "start": 245,
      "duration": 0.5,
      "velocity": 0.71
    },
    {
      "id": "n-01213",
      "pitch": "A#5",
      "midi": 82,
      "start": 245.5,
      "duration": 0.5,
      "velocity": 0.71
    },
    {
      "id": "n-01214",
      "pitch": "C4",
      "midi": 60,
      "start": 246,
      "duration": 1.5,
      "velocity": 0.71
    },
    {
      "id": "n-01215",
      "pitch": "D#4",
      "midi": 63,
      "start": 246,
      "duration": 1.5,
      "velocity": 0.71
    },
    {
      "id": "n-01216",
      "pitch": "F4",
      "midi": 65,
      "start": 246,
      "duration": 1.5,
      "velocity": 0.71
    },
    {
      "id": "n-01217",
      "pitch": "G#4",
      "midi": 68,
      "start": 246,
      "duration": 1.5,
      "velocity": 0.71
    },
    {
      "id": "n-01218",
      "pitch": "C5",
      "midi": 72,
      "start": 246,
      "duration": 1.5,
      "velocity": 0.71
    },
    {
      "id": "n-01219",
      "pitch": "F5",
      "midi": 77,
      "start": 246,
      "duration": 2,
      "velocity": 0.71
    },
    {
      "id": "n-01220",
      "pitch": "G#5",
      "midi": 80,
      "start": 246,
      "duration": 0.5,
      "velocity": 0.71
    },
    {
      "id": "n-01221",
      "pitch": "A#5",
      "midi": 82,
      "start": 246.5,
      "duration": 0.5,
      "velocity": 0.71
    },
    {
      "id": "n-01222",
      "pitch": "G#5",
      "midi": 80,
      "start": 247,
      "duration": 1,
      "velocity": 0.71
    },
    {
      "id": "n-01223",
      "pitch": "C3",
      "midi": 48,
      "start": 247.5,
      "duration": 3,
      "velocity": 0.71
    },
    {
      "id": "n-01224",
      "pitch": "F#3",
      "midi": 54,
      "start": 247.75,
      "duration": 0.25,
      "velocity": 0.71
    },
    {
      "id": "n-01225",
      "pitch": "A#3",
      "midi": 58,
      "start": 248,
      "duration": 0.25,
      "velocity": 0.71
    },
    {
      "id": "n-01226",
      "pitch": "D#5",
      "midi": 75,
      "start": 248,
      "duration": 0.5,
      "velocity": 0.71
    },
    {
      "id": "n-01227",
      "pitch": "F#5",
      "midi": 78,
      "start": 248,
      "duration": 0.5,
      "velocity": 0.71
    },
    {
      "id": "n-01228",
      "pitch": "C4",
      "midi": 60,
      "start": 248.25,
      "duration": 0.25,
      "velocity": 0.71
    },
    {
      "id": "n-01229",
      "pitch": "D#4",
      "midi": 63,
      "start": 248.5,
      "duration": 0.25,
      "velocity": 0.71
    },
    {
      "id": "n-01230",
      "pitch": "F5",
      "midi": 77,
      "start": 248.5,
      "duration": 0.5,
      "velocity": 0.71
    },
    {
      "id": "n-01231",
      "pitch": "G#5",
      "midi": 80,
      "start": 248.5,
      "duration": 0.5,
      "velocity": 0.71
    },
    {
      "id": "n-01232",
      "pitch": "F#4",
      "midi": 66,
      "start": 248.75,
      "duration": 0.25,
      "velocity": 0.71
    },
    {
      "id": "n-01233",
      "pitch": "A#4",
      "midi": 70,
      "start": 249,
      "duration": 1.5,
      "velocity": 0.71
    },
    {
      "id": "n-01234",
      "pitch": "D#5",
      "midi": 75,
      "start": 249,
      "duration": 1.5,
      "velocity": 0.71
    },
    {
      "id": "n-01235",
      "pitch": "F#5",
      "midi": 78,
      "start": 249,
      "duration": 1.5,
      "velocity": 0.71
    },
    {
      "id": "n-01236",
      "pitch": "F3",
      "midi": 53,
      "start": 250.5,
      "duration": 1.5,
      "velocity": 0.71
    },
    {
      "id": "n-01237",
      "pitch": "C4",
      "midi": 60,
      "start": 250.5,
      "duration": 1.5,
      "velocity": 0.71
    },
    {
      "id": "n-01238",
      "pitch": "D#4",
      "midi": 63,
      "start": 250.5,
      "duration": 1.5,
      "velocity": 0.71
    },
    {
      "id": "n-01239",
      "pitch": "A4",
      "midi": 69,
      "start": 250.5,
      "duration": 1.5,
      "velocity": 0.71
    },
    {
      "id": "n-01240",
      "pitch": "F5",
      "midi": 77,
      "start": 250.5,
      "duration": 2,
      "velocity": 0.71
    },
    {
      "id": "n-01241",
      "pitch": "G#3",
      "midi": 56,
      "start": 252,
      "duration": 3,
      "velocity": 0.71
    },
    {
      "id": "n-01242",
      "pitch": "A#3",
      "midi": 58,
      "start": 252.25,
      "duration": 0.25,
      "velocity": 0.71
    },
    {
      "id": "n-01243",
      "pitch": "C#4",
      "midi": 61,
      "start": 252.5,
      "duration": 0.25,
      "velocity": 0.71
    },
    {
      "id": "n-01244",
      "pitch": "C#5",
      "midi": 73,
      "start": 252.5,
      "duration": 0.5,
      "velocity": 0.71
    },
    {
      "id": "n-01245",
      "pitch": "F5",
      "midi": 77,
      "start": 252.5,
      "duration": 0.5,
      "velocity": 0.71
    },
    {
      "id": "n-01246",
      "pitch": "F4",
      "midi": 65,
      "start": 252.75,
      "duration": 0.25,
      "velocity": 0.71
    },
    {
      "id": "n-01247",
      "pitch": "G#4",
      "midi": 68,
      "start": 253,
      "duration": 0.25,
      "velocity": 0.71
    },
    {
      "id": "n-01248",
      "pitch": "D#5",
      "midi": 75,
      "start": 253,
      "duration": 0.5,
      "velocity": 0.71
    },
    {
      "id": "n-01249",
      "pitch": "F#5",
      "midi": 78,
      "start": 253,
      "duration": 0.5,
      "velocity": 0.71
    },
    {
      "id": "n-01250",
      "pitch": "A#4",
      "midi": 70,
      "start": 253.25,
      "duration": 0.25,
      "velocity": 0.71
    },
    {
      "id": "n-01251",
      "pitch": "C#5",
      "midi": 73,
      "start": 253.5,
      "duration": 1.5,
      "velocity": 0.71
    },
    {
      "id": "n-01252",
      "pitch": "F5",
      "midi": 77,
      "start": 253.5,
      "duration": 0.5,
      "velocity": 0.71
    },
    {
      "id": "n-01253",
      "pitch": "A#5",
      "midi": 82,
      "start": 254,
      "duration": 0.5,
      "velocity": 0.71
    },
    {
      "id": "n-01254",
      "pitch": "F5",
      "midi": 77,
      "start": 254.5,
      "duration": 0.5,
      "velocity": 0.71
    },
    {
      "id": "n-01255",
      "pitch": "F#3",
      "midi": 54,
      "start": 255,
      "duration": 1.5,
      "velocity": 0.71
    },
    {
      "id": "n-01256",
      "pitch": "A#3",
      "midi": 58,
      "start": 255,
      "duration": 1.5,
      "velocity": 0.71
    },
    {
      "id": "n-01257",
      "pitch": "C#4",
      "midi": 61,
      "start": 255,
      "duration": 1.5,
      "velocity": 0.71
    },
    {
      "id": "n-01258",
      "pitch": "D#4",
      "midi": 63,
      "start": 255,
      "duration": 1.5,
      "velocity": 0.71
    },
    {
      "id": "n-01259",
      "pitch": "C#5",
      "midi": 73,
      "start": 255,
      "duration": 1.5,
      "velocity": 0.71
    },
    {
      "id": "n-01260",
      "pitch": "D#5",
      "midi": 75,
      "start": 255,
      "duration": 0.5,
      "velocity": 0.71
    },
    {
      "id": "n-01261",
      "pitch": "F5",
      "midi": 77,
      "start": 255.5,
      "duration": 0.5,
      "velocity": 0.71
    },
    {
      "id": "n-01262",
      "pitch": "D#5",
      "midi": 75,
      "start": 256,
      "duration": 1,
      "velocity": 0.71
    },
    {
      "id": "n-01263",
      "pitch": "F3",
      "midi": 53,
      "start": 256.5,
      "duration": 3,
      "velocity": 0.71
    },
    {
      "id": "n-01264",
      "pitch": "G#3",
      "midi": 56,
      "start": 256.75,
      "duration": 0.25,
      "velocity": 0.71
    },
    {
      "id": "n-01265",
      "pitch": "A#3",
      "midi": 58,
      "start": 257,
      "duration": 0.25,
      "velocity": 0.71
    },
    {
      "id": "n-01266",
      "pitch": "A#4",
      "midi": 70,
      "start": 257,
      "duration": 0.5,
      "velocity": 0.71
    },
    {
      "id": "n-01267",
      "pitch": "C#5",
      "midi": 73,
      "start": 257,
      "duration": 0.5,
      "velocity": 0.71
    },
    {
      "id": "n-01268",
      "pitch": "C#4",
      "midi": 61,
      "start": 257.25,
      "duration": 0.25,
      "velocity": 0.71
    },
    {
      "id": "n-01269",
      "pitch": "F4",
      "midi": 65,
      "start": 257.5,
      "duration": 0.25,
      "velocity": 0.71
    },
    {
      "id": "n-01270",
      "pitch": "C5",
      "midi": 72,
      "start": 257.5,
      "duration": 0.5,
      "velocity": 0.71
    },
    {
      "id": "n-01271",
      "pitch": "D#5",
      "midi": 75,
      "start": 257.5,
      "duration": 0.5,
      "velocity": 0.71
    },
    {
      "id": "n-01272",
      "pitch": "G#4",
      "midi": 68,
      "start": 257.75,
      "duration": 0.25,
      "velocity": 0.71
    },
    {
      "id": "n-01273",
      "pitch": "A#4",
      "midi": 70,
      "start": 258,
      "duration": 1.5,
      "velocity": 0.71
    },
    {
      "id": "n-01274",
      "pitch": "C#5",
      "midi": 73,
      "start": 258,
      "duration": 1.5,
      "velocity": 0.71
    },
    {
      "id": "n-01275",
      "pitch": "D#3",
      "midi": 51,
      "start": 259.5,
      "duration": 0.75,
      "velocity": 0.71
    },
    {
      "id": "n-01276",
      "pitch": "F#3",
      "midi": 54,
      "start": 259.5,
      "duration": 1.5,
      "velocity": 0.71
    },
    {
      "id": "n-01277",
      "pitch": "C4",
      "midi": 60,
      "start": 259.5,
      "duration": 1.5,
      "velocity": 0.71
    },
    {
      "id": "n-01278",
      "pitch": "G#4",
      "midi": 68,
      "start": 259.5,
      "duration": 1.5,
      "velocity": 0.71
    },
    {
      "id": "n-01279",
      "pitch": "C5",
      "midi": 72,
      "start": 259.5,
      "duration": 1.5,
      "velocity": 0.71
    },
    {
      "id": "n-01280",
      "pitch": "G#2",
      "midi": 44,
      "start": 260.25,
      "duration": 0.75,
      "velocity": 0.71
    },
    {
      "id": "n-01281",
      "pitch": "C#2",
      "midi": 37,
      "start": 261,
      "duration": 0.5,
      "velocity": 0.71
    },
    {
      "id": "n-01282",
      "pitch": "G#2",
      "midi": 44,
      "start": 261,
      "duration": 0.5,
      "velocity": 0.71
    },
    {
      "id": "n-01283",
      "pitch": "F3",
      "midi": 53,
      "start": 261.5,
      "duration": 1,
      "velocity": 0.71
    },
    {
      "id": "n-01284",
      "pitch": "G#3",
      "midi": 56,
      "start": 261.5,
      "duration": 1,
      "velocity": 0.71
    },
    {
      "id": "n-01285",
      "pitch": "F4",
      "midi": 65,
      "start": 262,
      "duration": 3.5,
      "velocity": 0.71
    },
    {
      "id": "n-01286",
      "pitch": "G#4",
      "midi": 68,
      "start": 262,
      "duration": 3.5,
      "velocity": 0.71
    },
    {
      "id": "n-01287",
      "pitch": "B3",
      "midi": 59,
      "start": 262.5,
      "duration": 3,
      "velocity": 0.71
    },
    {
      "id": "n-01288",
      "pitch": "F5",
      "midi": 77,
      "start": 262.5,
      "duration": 1.5,
      "velocity": 0.71
    },
    {
      "id": "n-01289",
      "pitch": "G#5",
      "midi": 80,
      "start": 262.5,
      "duration": 1.5,
      "velocity": 0.71
    },
    {
      "id": "n-01290",
      "pitch": "C#5",
      "midi": 73,
      "start": 264,
      "duration": 2,
      "velocity": 0.71
    },
    {
      "id": "n-01291",
      "pitch": "F5",
      "midi": 77,
      "start": 264,
      "duration": 2,
      "velocity": 0.71
    },
    {
      "id": "n-01292",
      "pitch": "F#2",
      "midi": 42,
      "start": 265.5,
      "duration": 3,
      "velocity": 0.71
    },
    {
      "id": "n-01293",
      "pitch": "C#3",
      "midi": 49,
      "start": 265.5,
      "duration": 4.5,
      "velocity": 0.71
    },
    {
      "id": "n-01294",
      "pitch": "F#3",
      "midi": 54,
      "start": 266,
      "duration": 4,
      "velocity": 0.71
    },
    {
      "id": "n-01295",
      "pitch": "A#3",
      "midi": 58,
      "start": 266,
      "duration": 4,
      "velocity": 0.71
    },
    {
      "id": "n-01296",
      "pitch": "C#4",
      "midi": 61,
      "start": 266,
      "duration": 4,
      "velocity": 0.71
    },
    {
      "id": "n-01297",
      "pitch": "F#4",
      "midi": 66,
      "start": 266,
      "duration": 4,
      "velocity": 0.71
    },
    {
      "id": "n-01298",
      "pitch": "A#4",
      "midi": 70,
      "start": 266,
      "duration": 4,
      "velocity": 0.71
    },
    {
      "id": "n-01299",
      "pitch": "D#5",
      "midi": 75,
      "start": 266,
      "duration": 0.5,
      "velocity": 0.71
    },
    {
      "id": "n-01300",
      "pitch": "F5",
      "midi": 77,
      "start": 266.5,
      "duration": 0.5,
      "velocity": 0.71
    },
    {
      "id": "n-01301",
      "pitch": "D#5",
      "midi": 75,
      "start": 267,
      "duration": 3.5,
      "velocity": 0.71
    },
    {
      "id": "n-01302",
      "pitch": "G#2",
      "midi": 44,
      "start": 270,
      "duration": 3,
      "velocity": 0.71
    },
    {
      "id": "n-01303",
      "pitch": "F3",
      "midi": 53,
      "start": 270.5,
      "duration": 1,
      "velocity": 0.71
    },
    {
      "id": "n-01304",
      "pitch": "G#3",
      "midi": 56,
      "start": 270.5,
      "duration": 1,
      "velocity": 0.71
    },
    {
      "id": "n-01305",
      "pitch": "C#4",
      "midi": 61,
      "start": 270.5,
      "duration": 0.5,
      "velocity": 0.71
    },
    {
      "id": "n-01306",
      "pitch": "G#4",
      "midi": 68,
      "start": 270.5,
      "duration": 1,
      "velocity": 0.71
    },
    {
      "id": "n-01307",
      "pitch": "C#5",
      "midi": 73,
      "start": 270.5,
      "duration": 0.5,
      "velocity": 0.71
    },
    {
      "id": "n-01308",
      "pitch": "D#4",
      "midi": 63,
      "start": 271,
      "duration": 0.5,
      "velocity": 0.71
    },
    {
      "id": "n-01309",
      "pitch": "D#5",
      "midi": 75,
      "start": 271,
      "duration": 0.5,
      "velocity": 0.71
    },
    {
      "id": "n-01310",
      "pitch": "B3",
      "midi": 59,
      "start": 271.5,
      "duration": 3,
      "velocity": 0.71
    },
    {
      "id": "n-01311",
      "pitch": "C#4",
      "midi": 61,
      "start": 271.5,
      "duration": 1.5,
      "velocity": 0.71
    },
    {
      "id": "n-01312",
      "pitch": "F4",
      "midi": 65,
      "start": 271.5,
      "duration": 1.5,
      "velocity": 0.71
    },
    {
      "id": "n-01313",
      "pitch": "G#4",
      "midi": 68,
      "start": 271.5,
      "duration": 1.5,
      "velocity": 0.71
    },
    {
      "id": "n-01314",
      "pitch": "F5",
      "midi": 77,
      "start": 271.5,
      "duration": 1.5,
      "velocity": 0.71
    },
    {
      "id": "n-01315",
      "pitch": "G#5",
      "midi": 80,
      "start": 271.5,
      "duration": 1.5,
      "velocity": 0.71
    },
    {
      "id": "n-01316",
      "pitch": "C#4",
      "midi": 61,
      "start": 273,
      "duration": 1.5,
      "velocity": 0.71
    },
    {
      "id": "n-01317",
      "pitch": "F4",
      "midi": 65,
      "start": 273,
      "duration": 1.5,
      "velocity": 0.71
    },
    {
      "id": "n-01318",
      "pitch": "C#5",
      "midi": 73,
      "start": 273,
      "duration": 1.5,
      "velocity": 0.71
    },
    {
      "id": "n-01319",
      "pitch": "F5",
      "midi": 77,
      "start": 273,
      "duration": 2,
      "velocity": 0.71
    },
    {
      "id": "n-01320",
      "pitch": "A#2",
      "midi": 46,
      "start": 274.5,
      "duration": 3,
      "velocity": 0.71
    },
    {
      "id": "n-01321",
      "pitch": "F3",
      "midi": 53,
      "start": 275,
      "duration": 4,
      "velocity": 0.71
    },
    {
      "id": "n-01322",
      "pitch": "A#3",
      "midi": 58,
      "start": 275,
      "duration": 4,
      "velocity": 0.71
    },
    {
      "id": "n-01323",
      "pitch": "D#4",
      "midi": 63,
      "start": 275,
      "duration": 2.5,
      "velocity": 0.71
    },
    {
      "id": "n-01324",
      "pitch": "F4",
      "midi": 65,
      "start": 275,
      "duration": 4,
      "velocity": 0.71
    },
    {
      "id": "n-01325",
      "pitch": "A#4",
      "midi": 70,
      "start": 275,
      "duration": 4,
      "velocity": 0.71
    },
    {
      "id": "n-01326",
      "pitch": "D#5",
      "midi": 75,
      "start": 275,
      "duration": 0.5,
      "velocity": 0.71
    },
    {
      "id": "n-01327",
      "pitch": "F5",
      "midi": 77,
      "start": 275.5,
      "duration": 0.5,
      "velocity": 0.71
    },
    {
      "id": "n-01328",
      "pitch": "D#5",
      "midi": 75,
      "start": 276,
      "duration": 1.5,
      "velocity": 0.71
    },
    {
      "id": "n-01329",
      "pitch": "C#4",
      "midi": 61,
      "start": 277.5,
      "duration": 1.5,
      "velocity": 0.71
    },
    {
      "id": "n-01330",
      "pitch": "C#5",
      "midi": 73,
      "start": 277.5,
      "duration": 1.5,
      "velocity": 0.71
    },
    {
      "id": "n-01331",
      "pitch": "F2",
      "midi": 41,
      "start": 279,
      "duration": 4.5,
      "velocity": 0.71
    },
    {
      "id": "n-01332",
      "pitch": "G#3",
      "midi": 56,
      "start": 279.5,
      "duration": 1,
      "velocity": 0.71
    },
    {
      "id": "n-01333",
      "pitch": "C#4",
      "midi": 61,
      "start": 279.5,
      "duration": 0.5,
      "velocity": 0.71
    },
    {
      "id": "n-01334",
      "pitch": "D#4",
      "midi": 63,
      "start": 280,
      "duration": 0.5,
      "velocity": 0.71
    },
    {
      "id": "n-01335",
      "pitch": "C#4",
      "midi": 61,
      "start": 280.5,
      "duration": 1.5,
      "velocity": 0.71
    },
    {
      "id": "n-01336",
      "pitch": "F4",
      "midi": 65,
      "start": 280.5,
      "duration": 1.5,
      "velocity": 0.71
    },
    {
      "id": "n-01337",
      "pitch": "A#4",
      "midi": 70,
      "start": 280.5,
      "duration": 1.5,
      "velocity": 0.71
    },
    {
      "id": "n-01338",
      "pitch": "G#3",
      "midi": 56,
      "start": 282,
      "duration": 1.5,
      "velocity": 0.71
    },
    {
      "id": "n-01339",
      "pitch": "C#4",
      "midi": 61,
      "start": 282,
      "duration": 1.5,
      "velocity": 0.71
    },
    {
      "id": "n-01340",
      "pitch": "F4",
      "midi": 65,
      "start": 282,
      "duration": 1.5,
      "velocity": 0.71
    },
    {
      "id": "n-01341",
      "pitch": "D#2",
      "midi": 39,
      "start": 283.5,
      "duration": 1.5,
      "velocity": 0.71
    },
    {
      "id": "n-01342",
      "pitch": "A#3",
      "midi": 58,
      "start": 284,
      "duration": 1,
      "velocity": 0.71
    },
    {
      "id": "n-01343",
      "pitch": "C#4",
      "midi": 61,
      "start": 284,
      "duration": 1,
      "velocity": 0.71
    },
    {
      "id": "n-01344",
      "pitch": "F#4",
      "midi": 66,
      "start": 284,
      "duration": 0.5,
      "velocity": 0.71
    },
    {
      "id": "n-01345",
      "pitch": "G#4",
      "midi": 68,
      "start": 284.5,
      "duration": 0.5,
      "velocity": 0.71
    },
    {
      "id": "n-01346",
      "pitch": "D#3",
      "midi": 51,
      "start": 285,
      "duration": 1.5,
      "velocity": 0.71
    },
    {
      "id": "n-01347",
      "pitch": "F#4",
      "midi": 66,
      "start": 285,
      "duration": 1.5,
      "velocity": 0.71
    },
    {
      "id": "n-01348",
      "pitch": "A#4",
      "midi": 70,
      "start": 285,
      "duration": 1.5,
      "velocity": 0.71
    },
    {
      "id": "n-01349",
      "pitch": "C#5",
      "midi": 73,
      "start": 285,
      "duration": 1.5,
      "velocity": 0.71
    },
    {
      "id": "n-01350",
      "pitch": "C#4",
      "midi": 61,
      "start": 286.5,
      "duration": 1.5,
      "velocity": 0.71
    },
    {
      "id": "n-01351",
      "pitch": "D#4",
      "midi": 63,
      "start": 286.5,
      "duration": 1.5,
      "velocity": 0.71
    },
    {
      "id": "n-01352",
      "pitch": "F#4",
      "midi": 66,
      "start": 286.5,
      "duration": 1.5,
      "velocity": 0.71
    },
    {
      "id": "n-01353",
      "pitch": "A#4",
      "midi": 70,
      "start": 286.5,
      "duration": 1.5,
      "velocity": 0.71
    },
    {
      "id": "n-01354",
      "pitch": "G#2",
      "midi": 44,
      "start": 288,
      "duration": 3,
      "velocity": 0.71
    },
    {
      "id": "n-01355",
      "pitch": "C4",
      "midi": 60,
      "start": 288.5,
      "duration": 1,
      "velocity": 0.71
    },
    {
      "id": "n-01356",
      "pitch": "F#4",
      "midi": 66,
      "start": 288.5,
      "duration": 1,
      "velocity": 0.71
    },
    {
      "id": "n-01357",
      "pitch": "A#4",
      "midi": 70,
      "start": 288.5,
      "duration": 0.5,
      "velocity": 0.71
    },
    {
      "id": "n-01358",
      "pitch": "D#3",
      "midi": 51,
      "start": 288.75,
      "duration": 0.75,
      "velocity": 0.71
    },
    {
      "id": "n-01359",
      "pitch": "C5",
      "midi": 72,
      "start": 289,
      "duration": 0.5,
      "velocity": 0.71
    },
    {
      "id": "n-01360",
      "pitch": "G#4",
      "midi": 68,
      "start": 289.5,
      "duration": 1.5,
      "velocity": 0.71
    },
    {
      "id": "n-01361",
      "pitch": "C5",
      "midi": 72,
      "start": 289.5,
      "duration": 1.5,
      "velocity": 0.71
    },
    {
      "id": "n-01362",
      "pitch": "F5",
      "midi": 77,
      "start": 289.5,
      "duration": 1.5,
      "velocity": 0.71
    },
    {
      "id": "n-01363",
      "pitch": "G#5",
      "midi": 80,
      "start": 289.5,
      "duration": 1.5,
      "velocity": 0.71
    },
    {
      "id": "n-01364",
      "pitch": "G#3",
      "midi": 56,
      "start": 291,
      "duration": 1.5,
      "velocity": 0.71
    },
    {
      "id": "n-01365",
      "pitch": "C4",
      "midi": 60,
      "start": 291,
      "duration": 1.5,
      "velocity": 0.71
    },
    {
      "id": "n-01366",
      "pitch": "F#4",
      "midi": 66,
      "start": 291,
      "duration": 1.5,
      "velocity": 0.71
    },
    {
      "id": "n-01367",
      "pitch": "G#4",
      "midi": 68,
      "start": 291,
      "duration": 1.5,
      "velocity": 0.71
    },
    {
      "id": "n-01368",
      "pitch": "C#2",
      "midi": 37,
      "start": 292.5,
      "duration": 1.5,
      "velocity": 0.71
    },
    {
      "id": "n-01369",
      "pitch": "G#2",
      "midi": 44,
      "start": 292.75,
      "duration": 0.25,
      "velocity": 0.71
    },
    {
      "id": "n-01370",
      "pitch": "C#3",
      "midi": 49,
      "start": 293,
      "duration": 0.25,
      "velocity": 0.71
    },
    {
      "id": "n-01371",
      "pitch": "F3",
      "midi": 53,
      "start": 293.25,
      "duration": 0.25,
      "velocity": 0.71
    },
    {
      "id": "n-01372",
      "pitch": "G#3",
      "midi": 56,
      "start": 293.5,
      "duration": 0.25,
      "velocity": 0.71
    },
    {
      "id": "n-01373",
      "pitch": "C#4",
      "midi": 61,
      "start": 293.75,
      "duration": 0.25,
      "velocity": 0.71
    },
    {
      "id": "n-01374",
      "pitch": "F2",
      "midi": 41,
      "start": 294,
      "duration": 1.5,
      "velocity": 0.71
    },
    {
      "id": "n-01375",
      "pitch": "C3",
      "midi": 48,
      "start": 294.25,
      "duration": 0.25,
      "velocity": 0.71
    },
    {
      "id": "n-01376",
      "pitch": "F3",
      "midi": 53,
      "start": 294.5,
      "duration": 0.25,
      "velocity": 0.71
    },
    {
      "id": "n-01377",
      "pitch": "G#3",
      "midi": 56,
      "start": 294.75,
      "duration": 0.25,
      "velocity": 0.71
    },
    {
      "id": "n-01378",
      "pitch": "C4",
      "midi": 60,
      "start": 295,
      "duration": 0.25,
      "velocity": 0.71
    },
    {
      "id": "n-01379",
      "pitch": "F4",
      "midi": 65,
      "start": 295.25,
      "duration": 0.25,
      "velocity": 0.71
    },
    {
      "id": "n-01380",
      "pitch": "C#2",
      "midi": 37,
      "start": 295.5,
      "duration": 1.5,
      "velocity": 0.71
    },
    {
      "id": "n-01381",
      "pitch": "G#2",
      "midi": 44,
      "start": 295.75,
      "duration": 0.25,
      "velocity": 0.71
    },
    {
      "id": "n-01382",
      "pitch": "C#3",
      "midi": 49,
      "start": 296,
      "duration": 0.25,
      "velocity": 0.71
    },
    {
      "id": "n-01383",
      "pitch": "F3",
      "midi": 53,
      "start": 296.25,
      "duration": 0.25,
      "velocity": 0.71
    },
    {
      "id": "n-01384",
      "pitch": "G#3",
      "midi": 56,
      "start": 296.5,
      "duration": 0.25,
      "velocity": 0.71
    },
    {
      "id": "n-01385",
      "pitch": "C#4",
      "midi": 61,
      "start": 296.75,
      "duration": 0.25,
      "velocity": 0.71
    },
    {
      "id": "n-01386",
      "pitch": "F2",
      "midi": 41,
      "start": 297,
      "duration": 1.5,
      "velocity": 0.71
    },
    {
      "id": "n-01387",
      "pitch": "C3",
      "midi": 48,
      "start": 297.25,
      "duration": 0.25,
      "velocity": 0.71
    },
    {
      "id": "n-01388",
      "pitch": "F3",
      "midi": 53,
      "start": 297.5,
      "duration": 0.25,
      "velocity": 0.71
    },
    {
      "id": "n-01389",
      "pitch": "G#3",
      "midi": 56,
      "start": 297.75,
      "duration": 0.25,
      "velocity": 0.71
    },
    {
      "id": "n-01390",
      "pitch": "C4",
      "midi": 60,
      "start": 298,
      "duration": 0.25,
      "velocity": 0.71
    },
    {
      "id": "n-01391",
      "pitch": "F4",
      "midi": 65,
      "start": 298.25,
      "duration": 0.25,
      "velocity": 0.71
    },
    {
      "id": "n-01392",
      "pitch": "G#2",
      "midi": 44,
      "start": 298.5,
      "duration": 3,
      "velocity": 0.71
    },
    {
      "id": "n-01393",
      "pitch": "G#4",
      "midi": 68,
      "start": 298.5,
      "duration": 1.5,
      "velocity": 0.71
    },
    {
      "id": "n-01394",
      "pitch": "B4",
      "midi": 71,
      "start": 298.5,
      "duration": 1.5,
      "velocity": 0.71
    },
    {
      "id": "n-01395",
      "pitch": "E3",
      "midi": 52,
      "start": 298.75,
      "duration": 0.25,
      "velocity": 0.71
    },
    {
      "id": "n-01396",
      "pitch": "G#3",
      "midi": 56,
      "start": 299,
      "duration": 0.25,
      "velocity": 0.71
    },
    {
      "id": "n-01397",
      "pitch": "B3",
      "midi": 59,
      "start": 299.25,
      "duration": 0.25,
      "velocity": 0.71
    },
    {
      "id": "n-01398",
      "pitch": "E4",
      "midi": 64,
      "start": 299.5,
      "duration": 0.25,
      "velocity": 0.71
    },
    {
      "id": "n-01399",
      "pitch": "F#4",
      "midi": 66,
      "start": 299.75,
      "duration": 0.25,
      "velocity": 0.71
    },
    {
      "id": "n-01400",
      "pitch": "E4",
      "midi": 64,
      "start": 300,
      "duration": 1.5,
      "velocity": 0.71
    },
    {
      "id": "n-01401",
      "pitch": "G#4",
      "midi": 68,
      "start": 300,
      "duration": 1.5,
      "velocity": 0.71
    },
    {
      "id": "n-01402",
      "pitch": "C#5",
      "midi": 73,
      "start": 300,
      "duration": 1.5,
      "velocity": 0.71
    },
    {
      "id": "n-01403",
      "pitch": "C#3",
      "midi": 49,
      "start": 301.5,
      "duration": 1.5,
      "velocity": 0.71
    },
    {
      "id": "n-01404",
      "pitch": "G#3",
      "midi": 56,
      "start": 301.75,
      "duration": 0.25,
      "velocity": 0.71
    },
    {
      "id": "n-01405",
      "pitch": "C#4",
      "midi": 61,
      "start": 302,
      "duration": 0.25,
      "velocity": 0.71
    },
    {
      "id": "n-01406",
      "pitch": "F4",
      "midi": 65,
      "start": 302.25,
      "duration": 0.25,
      "velocity": 0.71
    },
    {
      "id": "n-01407",
      "pitch": "G#4",
      "midi": 68,
      "start": 302.5,
      "duration": 0.25,
      "velocity": 0.71
    },
    {
      "id": "n-01408",
      "pitch": "C#5",
      "midi": 73,
      "start": 302.75,
      "duration": 0.25,
      "velocity": 0.71
    },
    {
      "id": "n-01409",
      "pitch": "F3",
      "midi": 53,
      "start": 303,
      "duration": 1.5,
      "velocity": 0.71
    },
    {
      "id": "n-01410",
      "pitch": "C4",
      "midi": 60,
      "start": 303.25,
      "duration": 0.25,
      "velocity": 0.71
    },
    {
      "id": "n-01411",
      "pitch": "F4",
      "midi": 65,
      "start": 303.5,
      "duration": 0.25,
      "velocity": 0.71
    },
    {
      "id": "n-01412",
      "pitch": "G#4",
      "midi": 68,
      "start": 303.75,
      "duration": 0.25,
      "velocity": 0.71
    },
    {
      "id": "n-01413",
      "pitch": "C5",
      "midi": 72,
      "start": 304,
      "duration": 0.25,
      "velocity": 0.71
    },
    {
      "id": "n-01414",
      "pitch": "F5",
      "midi": 77,
      "start": 304.25,
      "duration": 0.25,
      "velocity": 0.71
    },
    {
      "id": "n-01415",
      "pitch": "C#3",
      "midi": 49,
      "start": 304.5,
      "duration": 1.5,
      "velocity": 0.71
    },
    {
      "id": "n-01416",
      "pitch": "G#3",
      "midi": 56,
      "start": 304.75,
      "duration": 0.25,
      "velocity": 0.71
    },
    {
      "id": "n-01417",
      "pitch": "C#4",
      "midi": 61,
      "start": 305,
      "duration": 0.25,
      "velocity": 0.71
    },
    {
      "id": "n-01418",
      "pitch": "F4",
      "midi": 65,
      "start": 305.25,
      "duration": 0.25,
      "velocity": 0.71
    },
    {
      "id": "n-01419",
      "pitch": "G#4",
      "midi": 68,
      "start": 305.5,
      "duration": 0.25,
      "velocity": 0.71
    },
    {
      "id": "n-01420",
      "pitch": "C#5",
      "midi": 73,
      "start": 305.75,
      "duration": 0.25,
      "velocity": 0.71
    },
    {
      "id": "n-01421",
      "pitch": "F3",
      "midi": 53,
      "start": 306,
      "duration": 1.5,
      "velocity": 0.71
    },
    {
      "id": "n-01422",
      "pitch": "C4",
      "midi": 60,
      "start": 306.25,
      "duration": 0.25,
      "velocity": 0.71
    },
    {
      "id": "n-01423",
      "pitch": "F4",
      "midi": 65,
      "start": 306.5,
      "duration": 0.25,
      "velocity": 0.71
    },
    {
      "id": "n-01424",
      "pitch": "G#4",
      "midi": 68,
      "start": 306.75,
      "duration": 0.25,
      "velocity": 0.71
    },
    {
      "id": "n-01425",
      "pitch": "C5",
      "midi": 72,
      "start": 307,
      "duration": 0.25,
      "velocity": 0.71
    },
    {
      "id": "n-01426",
      "pitch": "F5",
      "midi": 77,
      "start": 307.25,
      "duration": 0.25,
      "velocity": 0.71
    },
    {
      "id": "n-01427",
      "pitch": "G#3",
      "midi": 56,
      "start": 307.5,
      "duration": 3,
      "velocity": 0.71
    },
    {
      "id": "n-01428",
      "pitch": "G#5",
      "midi": 80,
      "start": 307.5,
      "duration": 3,
      "velocity": 0.71
    },
    {
      "id": "n-01429",
      "pitch": "B5",
      "midi": 83,
      "start": 307.5,
      "duration": 1.5,
      "velocity": 0.71
    },
    {
      "id": "n-01430",
      "pitch": "B3",
      "midi": 59,
      "start": 307.75,
      "duration": 0.25,
      "velocity": 0.71
    },
    {
      "id": "n-01431",
      "pitch": "E4",
      "midi": 64,
      "start": 308,
      "duration": 0.25,
      "velocity": 0.71
    },
    {
      "id": "n-01432",
      "pitch": "G#4",
      "midi": 68,
      "start": 308.25,
      "duration": 0.25,
      "velocity": 0.71
    },
    {
      "id": "n-01433",
      "pitch": "B4",
      "midi": 71,
      "start": 308.5,
      "duration": 0.25,
      "velocity": 0.71
    },
    {
      "id": "n-01434",
      "pitch": "E5",
      "midi": 76,
      "start": 308.75,
      "duration": 1.75,
      "velocity": 0.71
    },
    {
      "id": "n-01435",
      "pitch": "C#6",
      "midi": 85,
      "start": 309,
      "duration": 1.5,
      "velocity": 0.71
    },
    {
      "id": "n-01436",
      "pitch": "G#3",
      "midi": 56,
      "start": 310.5,
      "duration": 3,
      "velocity": 0.71
    },
    {
      "id": "n-01437",
      "pitch": "G#5",
      "midi": 80,
      "start": 310.5,
      "duration": 3,
      "velocity": 0.71
    },
    {
      "id": "n-01438",
      "pitch": "B5",
      "midi": 83,
      "start": 310.5,
      "duration": 1.5,
      "velocity": 0.71
    },
    {
      "id": "n-01439",
      "pitch": "B3",
      "midi": 59,
      "start": 310.75,
      "duration": 0.25,
      "velocity": 0.71
    },
    {
      "id": "n-01440",
      "pitch": "E4",
      "midi": 64,
      "start": 311,
      "duration": 0.25,
      "velocity": 0.71
    },
    {
      "id": "n-01441",
      "pitch": "G#4",
      "midi": 68,
      "start": 311.25,
      "duration": 0.25,
      "velocity": 0.71
    },
    {
      "id": "n-01442",
      "pitch": "B4",
      "midi": 71,
      "start": 311.5,
      "duration": 0.25,
      "velocity": 0.71
    },
    {
      "id": "n-01443",
      "pitch": "E5",
      "midi": 76,
      "start": 311.75,
      "duration": 1.75,
      "velocity": 0.71
    },
    {
      "id": "n-01444",
      "pitch": "C#6",
      "midi": 85,
      "start": 312,
      "duration": 1.5,
      "velocity": 0.71
    },
    {
      "id": "n-01445",
      "pitch": "G#2",
      "midi": 44,
      "start": 313.5,
      "duration": 1.5,
      "velocity": 0.71
    },
    {
      "id": "n-01446",
      "pitch": "E6",
      "midi": 88,
      "start": 313.5,
      "duration": 1.5,
      "velocity": 0.71
    },
    {
      "id": "n-01447",
      "pitch": "C#2",
      "midi": 37,
      "start": 315,
      "duration": 3,
      "velocity": 0.71
    },
    {
      "id": "n-01448",
      "pitch": "F6",
      "midi": 89,
      "start": 315,
      "duration": 4.5,
      "velocity": 0.71
    },
    {
      "id": "n-01449",
      "pitch": "G#6",
      "midi": 92,
      "start": 315,
      "duration": 4.5,
      "velocity": 0.71
    },
    {
      "id": "n-01450",
      "pitch": "G#2",
      "midi": 44,
      "start": 315.25,
      "duration": 0.25,
      "velocity": 0.71
    },
    {
      "id": "n-01451",
      "pitch": "C#3",
      "midi": 49,
      "start": 315.5,
      "duration": 0.25,
      "velocity": 0.71
    },
    {
      "id": "n-01452",
      "pitch": "F3",
      "midi": 53,
      "start": 315.75,
      "duration": 0.25,
      "velocity": 0.71
    },
    {
      "id": "n-01453",
      "pitch": "G#3",
      "midi": 56,
      "start": 316,
      "duration": 0.25,
      "velocity": 0.71
    },
    {
      "id": "n-01454",
      "pitch": "C#4",
      "midi": 61,
      "start": 316.25,
      "duration": 0.25,
      "velocity": 0.71
    },
    {
      "id": "n-01455",
      "pitch": "F4",
      "midi": 65,
      "start": 316.5,
      "duration": 0.5,
      "velocity": 0.71
    },
    {
      "id": "n-01456",
      "pitch": "G#4",
      "midi": 68,
      "start": 317,
      "duration": 0.5,
      "velocity": 0.71
    },
    {
      "id": "n-01457",
      "pitch": "C#5",
      "midi": 73,
      "start": 317.5,
      "duration": 0.5,
      "velocity": 0.71
    },
    {
      "id": "n-01458",
      "pitch": "F5",
      "midi": 77,
      "start": 318,
      "duration": 0.5,
      "velocity": 0.71
    },
    {
      "id": "n-01459",
      "pitch": "G#5",
      "midi": 80,
      "start": 318.5,
      "duration": 0.5,
      "velocity": 0.71
    },
    {
      "id": "n-01460",
      "pitch": "C#6",
      "midi": 85,
      "start": 319,
      "duration": 0.5,
      "velocity": 0.71
    },
    {
      "id": "n-01461",
      "pitch": "C#4",
      "midi": 61,
      "start": 319.5,
      "duration": 3,
      "velocity": 0.71
    },
    {
      "id": "n-01462",
      "pitch": "G#4",
      "midi": 68,
      "start": 319.5,
      "duration": 3,
      "velocity": 0.71
    },
    {
      "id": "n-01463",
      "pitch": "C#5",
      "midi": 73,
      "start": 319.5,
      "duration": 3,
      "velocity": 0.71
    },
    {
      "id": "n-01464",
      "pitch": "F5",
      "midi": 77,
      "start": 319.5,
      "duration": 3,
      "velocity": 0.71
    },
    {
      "id": "n-01465",
      "pitch": "G#5",
      "midi": 80,
      "start": 319.5,
      "duration": 3,
      "velocity": 0.71
    },
    {
      "id": "n-01466",
      "pitch": "C#6",
      "midi": 85,
      "start": 319.5,
      "duration": 3,
      "velocity": 0.71
    },
    {
      "id": "n-01467",
      "pitch": "F6",
      "midi": 89,
      "start": 319.5,
      "duration": 3,
      "velocity": 0.71
    },
    {
      "id": "n-01468",
      "pitch": "G#6",
      "midi": 92,
      "start": 319.5,
      "duration": 3,
      "velocity": 0.71
    }
  ]
}
