{
  "id": "debussy-reverie",
  "title": "Rêverie",
  "source": "C. Debussy; Free PDF & MIDI download; Mutopia Project",
  "sourceInfo": {
    "provider": "Scorely",
    "sourceUrl": "https://scorely.org/product/reverie/",
    "midiUrl": "https://scorely.org/wp-content/plugins/download-attachments-with-js-timer/includes/download.php?id=7274",
    "license": "Free MIDI download; composition public domain",
    "composer": "C. Debussy",
    "editor": "Scorely"
  },
  "bpm": 100,
  "beatsPerBar": 2,
  "defaultSecondsPerBeat": 0.6,
  "createdAt": "2026-05-25T23:03:31.643Z",
  "updatedAt": "2026-05-25T23:03:31.643Z",
  "notes": [
    {
      "id": "n-00001",
      "pitch": "A#3",
      "midi": 58,
      "start": 1.2,
      "duration": 2.399,
      "velocity": 0.5
    },
    {
      "id": "n-00002",
      "pitch": "A#3",
      "midi": 58,
      "start": 1.2,
      "duration": 0.299,
      "velocity": 0.5
    },
    {
      "id": "n-00003",
      "pitch": "C4",
      "midi": 60,
      "start": 1.5,
      "duration": 0.299,
      "velocity": 0.5
    },
    {
      "id": "n-00004",
      "pitch": "D4",
      "midi": 62,
      "start": 1.8,
      "duration": 0.299,
      "velocity": 0.5
    },
    {
      "id": "n-00005",
      "pitch": "G4",
      "midi": 67,
      "start": 2.1,
      "duration": 0.599,
      "velocity": 0.35
    },
    {
      "id": "n-00006",
      "pitch": "D4",
      "midi": 62,
      "start": 2.7,
      "duration": 0.299,
      "velocity": 0.35
    },
    {
      "id": "n-00007",
      "pitch": "C4",
      "midi": 60,
      "start": 3,
      "duration": 0.299,
      "velocity": 0.35
    },
    {
      "id": "n-00008",
      "pitch": "A#3",
      "midi": 58,
      "start": 3.3,
      "duration": 0.584,
      "velocity": 0.28
    },
    {
      "id": "n-00009",
      "pitch": "A#3",
      "midi": 58,
      "start": 3.6,
      "duration": 2.399,
      "velocity": 0.5
    },
    {
      "id": "n-00010",
      "pitch": "C4",
      "midi": 60,
      "start": 3.9,
      "duration": 0.299,
      "velocity": 0.5
    },
    {
      "id": "n-00011",
      "pitch": "D4",
      "midi": 62,
      "start": 4.2,
      "duration": 0.299,
      "velocity": 0.5
    },
    {
      "id": "n-00012",
      "pitch": "G4",
      "midi": 67,
      "start": 4.5,
      "duration": 0.599,
      "velocity": 0.53
    },
    {
      "id": "n-00013",
      "pitch": "D4",
      "midi": 62,
      "start": 5.1,
      "duration": 0.299,
      "velocity": 0.5
    },
    {
      "id": "n-00014",
      "pitch": "C4",
      "midi": 60,
      "start": 5.4,
      "duration": 0.299,
      "velocity": 0.5
    },
    {
      "id": "n-00015",
      "pitch": "A#3",
      "midi": 58,
      "start": 5.7,
      "duration": 0.584,
      "velocity": 0.5
    },
    {
      "id": "n-00016",
      "pitch": "G5",
      "midi": 79,
      "start": 6,
      "duration": 1.199,
      "velocity": 0.5
    },
    {
      "id": "n-00017",
      "pitch": "C4",
      "midi": 60,
      "start": 6.3,
      "duration": 0.299,
      "velocity": 0.5
    },
    {
      "id": "n-00018",
      "pitch": "D4",
      "midi": 62,
      "start": 6.6,
      "duration": 0.299,
      "velocity": 0.5
    },
    {
      "id": "n-00019",
      "pitch": "G4",
      "midi": 67,
      "start": 6.9,
      "duration": 0.599,
      "velocity": 0.53
    },
    {
      "id": "n-00020",
      "pitch": "D5",
      "midi": 74,
      "start": 7.2,
      "duration": 1.799,
      "velocity": 0.5
    },
    {
      "id": "n-00021",
      "pitch": "D4",
      "midi": 62,
      "start": 7.5,
      "duration": 0.299,
      "velocity": 0.5
    },
    {
      "id": "n-00022",
      "pitch": "C4",
      "midi": 60,
      "start": 7.8,
      "duration": 0.299,
      "velocity": 0.5
    },
    {
      "id": "n-00023",
      "pitch": "A#3",
      "midi": 58,
      "start": 8.1,
      "duration": 0.584,
      "velocity": 0.5
    },
    {
      "id": "n-00024",
      "pitch": "A#3",
      "midi": 58,
      "start": 8.4,
      "duration": 2.399,
      "velocity": 0.5
    },
    {
      "id": "n-00025",
      "pitch": "C4",
      "midi": 60,
      "start": 8.7,
      "duration": 0.299,
      "velocity": 0.5
    },
    {
      "id": "n-00026",
      "pitch": "D4",
      "midi": 62,
      "start": 9,
      "duration": 0.299,
      "velocity": 0.5
    },
    {
      "id": "n-00027",
      "pitch": "E5",
      "midi": 76,
      "start": 9,
      "duration": 0.299,
      "velocity": 0.5
    },
    {
      "id": "n-00028",
      "pitch": "G4",
      "midi": 67,
      "start": 9.3,
      "duration": 0.599,
      "velocity": 0.5
    },
    {
      "id": "n-00029",
      "pitch": "F5",
      "midi": 77,
      "start": 9.3,
      "duration": 0.299,
      "velocity": 0.5
    },
    {
      "id": "n-00030",
      "pitch": "G5",
      "midi": 79,
      "start": 9.6,
      "duration": 0.599,
      "velocity": 0.5
    },
    {
      "id": "n-00031",
      "pitch": "D4",
      "midi": 62,
      "start": 9.9,
      "duration": 0.299,
      "velocity": 0.5
    },
    {
      "id": "n-00032",
      "pitch": "C4",
      "midi": 60,
      "start": 10.2,
      "duration": 0.299,
      "velocity": 0.5
    },
    {
      "id": "n-00033",
      "pitch": "E5",
      "midi": 76,
      "start": 10.2,
      "duration": 0.299,
      "velocity": 0.5
    },
    {
      "id": "n-00034",
      "pitch": "A#3",
      "midi": 58,
      "start": 10.5,
      "duration": 0.584,
      "velocity": 0.5
    },
    {
      "id": "n-00035",
      "pitch": "D5",
      "midi": 74,
      "start": 10.5,
      "duration": 0.299,
      "velocity": 0.5
    },
    {
      "id": "n-00036",
      "pitch": "E5",
      "midi": 76,
      "start": 10.8,
      "duration": 0.399,
      "velocity": 0.5
    },
    {
      "id": "n-00037",
      "pitch": "C4",
      "midi": 60,
      "start": 11.1,
      "duration": 0.299,
      "velocity": 0.5
    },
    {
      "id": "n-00038",
      "pitch": "C5",
      "midi": 72,
      "start": 11.2,
      "duration": 0.399,
      "velocity": 0.5
    },
    {
      "id": "n-00039",
      "pitch": "D4",
      "midi": 62,
      "start": 11.4,
      "duration": 0.299,
      "velocity": 0.5
    },
    {
      "id": "n-00040",
      "pitch": "E5",
      "midi": 76,
      "start": 11.6,
      "duration": 0.399,
      "velocity": 0.5
    },
    {
      "id": "n-00041",
      "pitch": "G4",
      "midi": 67,
      "start": 11.7,
      "duration": 0.599,
      "velocity": 0.5
    },
    {
      "id": "n-00042",
      "pitch": "D5",
      "midi": 74,
      "start": 12,
      "duration": 2.339,
      "velocity": 0.5
    },
    {
      "id": "n-00043",
      "pitch": "D4",
      "midi": 62,
      "start": 12.3,
      "duration": 0.299,
      "velocity": 0.5
    },
    {
      "id": "n-00044",
      "pitch": "C4",
      "midi": 60,
      "start": 12.6,
      "duration": 0.299,
      "velocity": 0.5
    },
    {
      "id": "n-00045",
      "pitch": "A#3",
      "midi": 58,
      "start": 12.9,
      "duration": 0.584,
      "velocity": 0.5
    },
    {
      "id": "n-00046",
      "pitch": "C4",
      "midi": 60,
      "start": 13.5,
      "duration": 0.299,
      "velocity": 0.5
    },
    {
      "id": "n-00047",
      "pitch": "D4",
      "midi": 62,
      "start": 13.8,
      "duration": 0.299,
      "velocity": 0.5
    },
    {
      "id": "n-00048",
      "pitch": "G4",
      "midi": 67,
      "start": 14.1,
      "duration": 0.599,
      "velocity": 0.5
    },
    {
      "id": "n-00049",
      "pitch": "A#4",
      "midi": 70,
      "start": 14.4,
      "duration": 0.599,
      "velocity": 0.5
    },
    {
      "id": "n-00050",
      "pitch": "D4",
      "midi": 62,
      "start": 14.7,
      "duration": 0.299,
      "velocity": 0.5
    },
    {
      "id": "n-00051",
      "pitch": "C4",
      "midi": 60,
      "start": 15,
      "duration": 0.299,
      "velocity": 0.5
    },
    {
      "id": "n-00052",
      "pitch": "D5",
      "midi": 74,
      "start": 15,
      "duration": 0.599,
      "velocity": 0.5
    },
    {
      "id": "n-00053",
      "pitch": "A#3",
      "midi": 58,
      "start": 15.3,
      "duration": 0.284,
      "velocity": 0.5
    },
    {
      "id": "n-00054",
      "pitch": "A3",
      "midi": 57,
      "start": 15.6,
      "duration": 0.299,
      "velocity": 0.5
    },
    {
      "id": "n-00055",
      "pitch": "E5",
      "midi": 76,
      "start": 15.6,
      "duration": 0.599,
      "velocity": 0.5
    },
    {
      "id": "n-00056",
      "pitch": "A#3",
      "midi": 58,
      "start": 15.9,
      "duration": 0.299,
      "velocity": 0.5
    },
    {
      "id": "n-00057",
      "pitch": "C4",
      "midi": 60,
      "start": 16.2,
      "duration": 0.299,
      "velocity": 0.5
    },
    {
      "id": "n-00058",
      "pitch": "F5",
      "midi": 77,
      "start": 16.2,
      "duration": 0.599,
      "velocity": 0.5
    },
    {
      "id": "n-00059",
      "pitch": "F4",
      "midi": 65,
      "start": 16.5,
      "duration": 0.599,
      "velocity": 0.5
    },
    {
      "id": "n-00060",
      "pitch": "C5",
      "midi": 72,
      "start": 16.8,
      "duration": 2.399,
      "velocity": 0.5
    },
    {
      "id": "n-00061",
      "pitch": "C4",
      "midi": 60,
      "start": 17.1,
      "duration": 0.299,
      "velocity": 0.5
    },
    {
      "id": "n-00062",
      "pitch": "A#3",
      "midi": 58,
      "start": 17.4,
      "duration": 0.299,
      "velocity": 0.5
    },
    {
      "id": "n-00063",
      "pitch": "A3",
      "midi": 57,
      "start": 17.7,
      "duration": 0.284,
      "velocity": 0.5
    },
    {
      "id": "n-00064",
      "pitch": "G3",
      "midi": 55,
      "start": 18,
      "duration": 0.299,
      "velocity": 0.5
    },
    {
      "id": "n-00065",
      "pitch": "A3",
      "midi": 57,
      "start": 18.3,
      "duration": 0.299,
      "velocity": 0.5
    },
    {
      "id": "n-00066",
      "pitch": "A#3",
      "midi": 58,
      "start": 18.6,
      "duration": 0.299,
      "velocity": 0.5
    },
    {
      "id": "n-00067",
      "pitch": "E4",
      "midi": 64,
      "start": 18.9,
      "duration": 0.599,
      "velocity": 0.5
    },
    {
      "id": "n-00068",
      "pitch": "G4",
      "midi": 67,
      "start": 19.2,
      "duration": 1.199,
      "velocity": 0.5
    },
    {
      "id": "n-00069",
      "pitch": "A#3",
      "midi": 58,
      "start": 19.5,
      "duration": 0.299,
      "velocity": 0.5
    },
    {
      "id": "n-00070",
      "pitch": "A3",
      "midi": 57,
      "start": 19.8,
      "duration": 0.299,
      "velocity": 0.5
    },
    {
      "id": "n-00071",
      "pitch": "G3",
      "midi": 55,
      "start": 20.1,
      "duration": 0.284,
      "velocity": 0.5
    },
    {
      "id": "n-00072",
      "pitch": "F2",
      "midi": 41,
      "start": 20.4,
      "duration": 2.399,
      "velocity": 0.63
    },
    {
      "id": "n-00073",
      "pitch": "F2",
      "midi": 41,
      "start": 20.4,
      "duration": 0.299,
      "velocity": 0.63
    },
    {
      "id": "n-00074",
      "pitch": "A4",
      "midi": 69,
      "start": 20.4,
      "duration": 4.559,
      "velocity": 0.5
    },
    {
      "id": "n-00075",
      "pitch": "C3",
      "midi": 48,
      "start": 20.7,
      "duration": 2.099,
      "velocity": 0.63
    },
    {
      "id": "n-00076",
      "pitch": "A3",
      "midi": 57,
      "start": 21,
      "duration": 0.284,
      "velocity": 0.5
    },
    {
      "id": "n-00077",
      "pitch": "F4",
      "midi": 65,
      "start": 21.3,
      "duration": 0.284,
      "velocity": 0.5
    },
    {
      "id": "n-00078",
      "pitch": "D4",
      "midi": 62,
      "start": 21.6,
      "duration": 0.284,
      "velocity": 0.5
    },
    {
      "id": "n-00079",
      "pitch": "A3",
      "midi": 57,
      "start": 21.9,
      "duration": 0.284,
      "velocity": 0.5
    },
    {
      "id": "n-00080",
      "pitch": "C4",
      "midi": 60,
      "start": 22.2,
      "duration": 0.284,
      "velocity": 0.5
    },
    {
      "id": "n-00081",
      "pitch": "F4",
      "midi": 65,
      "start": 22.5,
      "duration": 0.284,
      "velocity": 0.5
    },
    {
      "id": "n-00082",
      "pitch": "F2",
      "midi": 41,
      "start": 22.8,
      "duration": 2.399,
      "velocity": 0.63
    },
    {
      "id": "n-00083",
      "pitch": "F2",
      "midi": 41,
      "start": 22.8,
      "duration": 0.299,
      "velocity": 0.63
    },
    {
      "id": "n-00084",
      "pitch": "C3",
      "midi": 48,
      "start": 23.1,
      "duration": 2.099,
      "velocity": 0.63
    },
    {
      "id": "n-00085",
      "pitch": "A3",
      "midi": 57,
      "start": 23.4,
      "duration": 0.284,
      "velocity": 0.5
    },
    {
      "id": "n-00086",
      "pitch": "F4",
      "midi": 65,
      "start": 23.7,
      "duration": 0.284,
      "velocity": 0.5
    },
    {
      "id": "n-00087",
      "pitch": "D4",
      "midi": 62,
      "start": 24,
      "duration": 0.284,
      "velocity": 0.5
    },
    {
      "id": "n-00088",
      "pitch": "A3",
      "midi": 57,
      "start": 24.3,
      "duration": 0.284,
      "velocity": 0.5
    },
    {
      "id": "n-00089",
      "pitch": "C4",
      "midi": 60,
      "start": 24.6,
      "duration": 0.284,
      "velocity": 0.5
    },
    {
      "id": "n-00090",
      "pitch": "F4",
      "midi": 65,
      "start": 24.9,
      "duration": 0.284,
      "velocity": 0.5
    },
    {
      "id": "n-00091",
      "pitch": "D2",
      "midi": 38,
      "start": 25.2,
      "duration": 0.299,
      "velocity": 0.54
    },
    {
      "id": "n-00092",
      "pitch": "A5",
      "midi": 81,
      "start": 25.2,
      "duration": 1.199,
      "velocity": 0.54
    },
    {
      "id": "n-00093",
      "pitch": "A2",
      "midi": 45,
      "start": 25.5,
      "duration": 0.299,
      "velocity": 0.54
    },
    {
      "id": "n-00094",
      "pitch": "D3",
      "midi": 50,
      "start": 25.8,
      "duration": 0.299,
      "velocity": 0.54
    },
    {
      "id": "n-00095",
      "pitch": "F3",
      "midi": 53,
      "start": 26.1,
      "duration": 0.299,
      "velocity": 0.54
    },
    {
      "id": "n-00096",
      "pitch": "A3",
      "midi": 57,
      "start": 26.4,
      "duration": 0.299,
      "velocity": 0.54
    },
    {
      "id": "n-00097",
      "pitch": "E5",
      "midi": 76,
      "start": 26.4,
      "duration": 1.799,
      "velocity": 0.54
    },
    {
      "id": "n-00098",
      "pitch": "C4",
      "midi": 60,
      "start": 26.7,
      "duration": 0.299,
      "velocity": 0.54
    },
    {
      "id": "n-00099",
      "pitch": "E4",
      "midi": 64,
      "start": 27,
      "duration": 0.299,
      "velocity": 0.54
    },
    {
      "id": "n-00100",
      "pitch": "C4",
      "midi": 60,
      "start": 27.3,
      "duration": 0.284,
      "velocity": 0.54
    },
    {
      "id": "n-00101",
      "pitch": "A3",
      "midi": 57,
      "start": 27.6,
      "duration": 0.299,
      "velocity": 0.54
    },
    {
      "id": "n-00102",
      "pitch": "F3",
      "midi": 53,
      "start": 27.9,
      "duration": 0.299,
      "velocity": 0.54
    },
    {
      "id": "n-00103",
      "pitch": "A3",
      "midi": 57,
      "start": 28.2,
      "duration": 0.299,
      "velocity": 0.54
    },
    {
      "id": "n-00104",
      "pitch": "C5",
      "midi": 72,
      "start": 28.2,
      "duration": 0.299,
      "velocity": 0.54
    },
    {
      "id": "n-00105",
      "pitch": "C4",
      "midi": 60,
      "start": 28.5,
      "duration": 0.299,
      "velocity": 0.54
    },
    {
      "id": "n-00106",
      "pitch": "E5",
      "midi": 76,
      "start": 28.5,
      "duration": 0.299,
      "velocity": 0.54
    },
    {
      "id": "n-00107",
      "pitch": "G2",
      "midi": 43,
      "start": 28.8,
      "duration": 0.299,
      "velocity": 0.54
    },
    {
      "id": "n-00108",
      "pitch": "D5",
      "midi": 74,
      "start": 28.8,
      "duration": 0.599,
      "velocity": 0.54
    },
    {
      "id": "n-00109",
      "pitch": "D3",
      "midi": 50,
      "start": 29.1,
      "duration": 0.299,
      "velocity": 0.54
    },
    {
      "id": "n-00110",
      "pitch": "G3",
      "midi": 55,
      "start": 29.4,
      "duration": 0.299,
      "velocity": 0.54
    },
    {
      "id": "n-00111",
      "pitch": "A#4",
      "midi": 70,
      "start": 29.4,
      "duration": 0.299,
      "velocity": 0.54
    },
    {
      "id": "n-00112",
      "pitch": "A#3",
      "midi": 58,
      "start": 29.7,
      "duration": 0.284,
      "velocity": 0.54
    },
    {
      "id": "n-00113",
      "pitch": "G4",
      "midi": 67,
      "start": 29.7,
      "duration": 0.284,
      "velocity": 0.54
    },
    {
      "id": "n-00114",
      "pitch": "D2",
      "midi": 38,
      "start": 30,
      "duration": 0.299,
      "velocity": 0.69
    },
    {
      "id": "n-00115",
      "pitch": "A5",
      "midi": 81,
      "start": 30,
      "duration": 1.199,
      "velocity": 0.69
    },
    {
      "id": "n-00116",
      "pitch": "A2",
      "midi": 45,
      "start": 30.3,
      "duration": 0.299,
      "velocity": 0.69
    },
    {
      "id": "n-00117",
      "pitch": "D3",
      "midi": 50,
      "start": 30.6,
      "duration": 0.299,
      "velocity": 0.69
    },
    {
      "id": "n-00118",
      "pitch": "F3",
      "midi": 53,
      "start": 30.9,
      "duration": 0.299,
      "velocity": 0.69
    },
    {
      "id": "n-00119",
      "pitch": "A3",
      "midi": 57,
      "start": 31.2,
      "duration": 0.299,
      "velocity": 0.69
    },
    {
      "id": "n-00120",
      "pitch": "E5",
      "midi": 76,
      "start": 31.2,
      "duration": 1.799,
      "velocity": 0.69
    },
    {
      "id": "n-00121",
      "pitch": "C4",
      "midi": 60,
      "start": 31.5,
      "duration": 0.299,
      "velocity": 0.69
    },
    {
      "id": "n-00122",
      "pitch": "E4",
      "midi": 64,
      "start": 31.8,
      "duration": 0.299,
      "velocity": 0.69
    },
    {
      "id": "n-00123",
      "pitch": "C4",
      "midi": 60,
      "start": 32.1,
      "duration": 0.284,
      "velocity": 0.69
    },
    {
      "id": "n-00124",
      "pitch": "A3",
      "midi": 57,
      "start": 32.4,
      "duration": 0.299,
      "velocity": 0.69
    },
    {
      "id": "n-00125",
      "pitch": "F3",
      "midi": 53,
      "start": 32.7,
      "duration": 0.299,
      "velocity": 0.69
    },
    {
      "id": "n-00126",
      "pitch": "A3",
      "midi": 57,
      "start": 33,
      "duration": 0.299,
      "velocity": 0.69
    },
    {
      "id": "n-00127",
      "pitch": "C5",
      "midi": 72,
      "start": 33,
      "duration": 0.299,
      "velocity": 0.69
    },
    {
      "id": "n-00128",
      "pitch": "C4",
      "midi": 60,
      "start": 33.3,
      "duration": 0.299,
      "velocity": 0.69
    },
    {
      "id": "n-00129",
      "pitch": "E5",
      "midi": 76,
      "start": 33.3,
      "duration": 0.299,
      "velocity": 0.69
    },
    {
      "id": "n-00130",
      "pitch": "G2",
      "midi": 43,
      "start": 33.6,
      "duration": 0.299,
      "velocity": 0.69
    },
    {
      "id": "n-00131",
      "pitch": "D5",
      "midi": 74,
      "start": 33.6,
      "duration": 0.599,
      "velocity": 0.69
    },
    {
      "id": "n-00132",
      "pitch": "D3",
      "midi": 50,
      "start": 33.9,
      "duration": 0.299,
      "velocity": 0.69
    },
    {
      "id": "n-00133",
      "pitch": "G3",
      "midi": 55,
      "start": 34.2,
      "duration": 0.299,
      "velocity": 0.69
    },
    {
      "id": "n-00134",
      "pitch": "A#4",
      "midi": 70,
      "start": 34.2,
      "duration": 0.299,
      "velocity": 0.69
    },
    {
      "id": "n-00135",
      "pitch": "A#3",
      "midi": 58,
      "start": 34.5,
      "duration": 0.284,
      "velocity": 0.69
    },
    {
      "id": "n-00136",
      "pitch": "G4",
      "midi": 67,
      "start": 34.5,
      "duration": 0.284,
      "velocity": 0.69
    },
    {
      "id": "n-00137",
      "pitch": "C2",
      "midi": 36,
      "start": 34.8,
      "duration": 0.299,
      "velocity": 0.69
    },
    {
      "id": "n-00138",
      "pitch": "G5",
      "midi": 79,
      "start": 34.8,
      "duration": 1.199,
      "velocity": 0.69
    },
    {
      "id": "n-00139",
      "pitch": "G2",
      "midi": 43,
      "start": 35.1,
      "duration": 0.299,
      "velocity": 0.67
    },
    {
      "id": "n-00140",
      "pitch": "E3",
      "midi": 52,
      "start": 35.4,
      "duration": 0.299,
      "velocity": 0.65
    },
    {
      "id": "n-00141",
      "pitch": "G3",
      "midi": 55,
      "start": 35.7,
      "duration": 0.299,
      "velocity": 0.62
    },
    {
      "id": "n-00142",
      "pitch": "A#3",
      "midi": 58,
      "start": 36,
      "duration": 0.299,
      "velocity": 0.6
    },
    {
      "id": "n-00143",
      "pitch": "D5",
      "midi": 74,
      "start": 36,
      "duration": 1.799,
      "velocity": 0.6
    },
    {
      "id": "n-00144",
      "pitch": "D4",
      "midi": 62,
      "start": 36.3,
      "duration": 0.299,
      "velocity": 0.57
    },
    {
      "id": "n-00145",
      "pitch": "E4",
      "midi": 64,
      "start": 36.6,
      "duration": 0.299,
      "velocity": 0.55
    },
    {
      "id": "n-00146",
      "pitch": "D4",
      "midi": 62,
      "start": 36.9,
      "duration": 0.284,
      "velocity": 0.53
    },
    {
      "id": "n-00147",
      "pitch": "A#3",
      "midi": 58,
      "start": 37.2,
      "duration": 0.299,
      "velocity": 0.5
    },
    {
      "id": "n-00148",
      "pitch": "D4",
      "midi": 62,
      "start": 37.5,
      "duration": 0.299,
      "velocity": 0.5
    },
    {
      "id": "n-00149",
      "pitch": "A#3",
      "midi": 58,
      "start": 37.8,
      "duration": 0.299,
      "velocity": 0.5
    },
    {
      "id": "n-00150",
      "pitch": "A#4",
      "midi": 70,
      "start": 37.8,
      "duration": 0.299,
      "velocity": 0.5
    },
    {
      "id": "n-00151",
      "pitch": "G3",
      "midi": 55,
      "start": 38.1,
      "duration": 0.299,
      "velocity": 0.5
    },
    {
      "id": "n-00152",
      "pitch": "D5",
      "midi": 74,
      "start": 38.1,
      "duration": 0.299,
      "velocity": 0.5
    },
    {
      "id": "n-00153",
      "pitch": "F2",
      "midi": 41,
      "start": 38.4,
      "duration": 0.299,
      "velocity": 0.5
    },
    {
      "id": "n-00154",
      "pitch": "C5",
      "midi": 72,
      "start": 38.4,
      "duration": 0.599,
      "velocity": 0.5
    },
    {
      "id": "n-00155",
      "pitch": "C3",
      "midi": 48,
      "start": 38.7,
      "duration": 0.299,
      "velocity": 0.5
    },
    {
      "id": "n-00156",
      "pitch": "F3",
      "midi": 53,
      "start": 39,
      "duration": 0.299,
      "velocity": 0.5
    },
    {
      "id": "n-00157",
      "pitch": "A4",
      "midi": 69,
      "start": 39,
      "duration": 0.299,
      "velocity": 0.5
    },
    {
      "id": "n-00158",
      "pitch": "A3",
      "midi": 57,
      "start": 39.3,
      "duration": 0.284,
      "velocity": 0.5
    },
    {
      "id": "n-00159",
      "pitch": "G4",
      "midi": 67,
      "start": 39.3,
      "duration": 0.299,
      "velocity": 0.5
    },
    {
      "id": "n-00160",
      "pitch": "A2",
      "midi": 45,
      "start": 39.6,
      "duration": 0.299,
      "velocity": 0.5
    },
    {
      "id": "n-00161",
      "pitch": "A4",
      "midi": 69,
      "start": 39.6,
      "duration": 0.599,
      "velocity": 0.5
    },
    {
      "id": "n-00162",
      "pitch": "E3",
      "midi": 52,
      "start": 39.9,
      "duration": 0.299,
      "velocity": 0.5
    },
    {
      "id": "n-00163",
      "pitch": "A3",
      "midi": 57,
      "start": 40.2,
      "duration": 0.299,
      "velocity": 0.5
    },
    {
      "id": "n-00164",
      "pitch": "C4",
      "midi": 60,
      "start": 40.2,
      "duration": 0.599,
      "velocity": 0.5
    },
    {
      "id": "n-00165",
      "pitch": "E4",
      "midi": 64,
      "start": 40.2,
      "duration": 0.299,
      "velocity": 0.5
    },
    {
      "id": "n-00166",
      "pitch": "E3",
      "midi": 52,
      "start": 40.5,
      "duration": 0.299,
      "velocity": 0.5
    },
    {
      "id": "n-00167",
      "pitch": "A4",
      "midi": 69,
      "start": 40.5,
      "duration": 0.299,
      "velocity": 0.5
    },
    {
      "id": "n-00168",
      "pitch": "D3",
      "midi": 50,
      "start": 40.8,
      "duration": 0.299,
      "velocity": 0.5
    },
    {
      "id": "n-00169",
      "pitch": "F4",
      "midi": 65,
      "start": 40.8,
      "duration": 0.599,
      "velocity": 0.5
    },
    {
      "id": "n-00170",
      "pitch": "A3",
      "midi": 57,
      "start": 41.1,
      "duration": 0.299,
      "velocity": 0.5
    },
    {
      "id": "n-00171",
      "pitch": "F3",
      "midi": 53,
      "start": 41.4,
      "duration": 0.299,
      "velocity": 0.5
    },
    {
      "id": "n-00172",
      "pitch": "A3",
      "midi": 57,
      "start": 41.4,
      "duration": 0.599,
      "velocity": 0.5
    },
    {
      "id": "n-00173",
      "pitch": "D4",
      "midi": 62,
      "start": 41.4,
      "duration": 0.299,
      "velocity": 0.5
    },
    {
      "id": "n-00174",
      "pitch": "D3",
      "midi": 50,
      "start": 41.7,
      "duration": 0.284,
      "velocity": 0.5
    },
    {
      "id": "n-00175",
      "pitch": "F4",
      "midi": 65,
      "start": 41.7,
      "duration": 0.299,
      "velocity": 0.5
    },
    {
      "id": "n-00176",
      "pitch": "G2",
      "midi": 43,
      "start": 42,
      "duration": 0.299,
      "velocity": 0.5
    },
    {
      "id": "n-00177",
      "pitch": "D4",
      "midi": 62,
      "start": 42,
      "duration": 1.199,
      "velocity": 0.5
    },
    {
      "id": "n-00178",
      "pitch": "F3",
      "midi": 53,
      "start": 42.3,
      "duration": 0.299,
      "velocity": 0.5
    },
    {
      "id": "n-00179",
      "pitch": "G3",
      "midi": 55,
      "start": 42.6,
      "duration": 0.299,
      "velocity": 0.5
    },
    {
      "id": "n-00180",
      "pitch": "G3",
      "midi": 55,
      "start": 42.9,
      "duration": 0.284,
      "velocity": 0.5
    },
    {
      "id": "n-00181",
      "pitch": "A#3",
      "midi": 58,
      "start": 42.9,
      "duration": 0.284,
      "velocity": 0.5
    },
    {
      "id": "n-00182",
      "pitch": "C2",
      "midi": 36,
      "start": 43.2,
      "duration": 0.299,
      "velocity": 0.5
    },
    {
      "id": "n-00183",
      "pitch": "C4",
      "midi": 60,
      "start": 43.2,
      "duration": 1.139,
      "velocity": 0.5
    },
    {
      "id": "n-00184",
      "pitch": "G2",
      "midi": 43,
      "start": 43.5,
      "duration": 0.299,
      "velocity": 0.5
    },
    {
      "id": "n-00185",
      "pitch": "E3",
      "midi": 52,
      "start": 43.8,
      "duration": 0.299,
      "velocity": 0.5
    },
    {
      "id": "n-00186",
      "pitch": "G3",
      "midi": 55,
      "start": 44.1,
      "duration": 0.284,
      "velocity": 0.5
    },
    {
      "id": "n-00187",
      "pitch": "A#3",
      "midi": 58,
      "start": 44.1,
      "duration": 0.284,
      "velocity": 0.5
    },
    {
      "id": "n-00188",
      "pitch": "F1",
      "midi": 29,
      "start": 44.4,
      "duration": 0.299,
      "velocity": 0.5
    },
    {
      "id": "n-00189",
      "pitch": "C5",
      "midi": 72,
      "start": 44.4,
      "duration": 1.199,
      "velocity": 0.5
    },
    {
      "id": "n-00190",
      "pitch": "E5",
      "midi": 76,
      "start": 44.4,
      "duration": 3.539,
      "velocity": 0.5
    },
    {
      "id": "n-00191",
      "pitch": "C6",
      "midi": 84,
      "start": 44.4,
      "duration": 1.199,
      "velocity": 0.5
    },
    {
      "id": "n-00192",
      "pitch": "F2",
      "midi": 41,
      "start": 44.7,
      "duration": 0.299,
      "velocity": 0.5
    },
    {
      "id": "n-00193",
      "pitch": "C3",
      "midi": 48,
      "start": 45,
      "duration": 0.299,
      "velocity": 0.5
    },
    {
      "id": "n-00194",
      "pitch": "D#3",
      "midi": 51,
      "start": 45.3,
      "duration": 0.299,
      "velocity": 0.5
    },
    {
      "id": "n-00195",
      "pitch": "G3",
      "midi": 55,
      "start": 45.6,
      "duration": 0.299,
      "velocity": 0.5
    },
    {
      "id": "n-00196",
      "pitch": "G4",
      "midi": 67,
      "start": 45.6,
      "duration": 1.769,
      "velocity": 0.5
    },
    {
      "id": "n-00197",
      "pitch": "G5",
      "midi": 79,
      "start": 45.6,
      "duration": 1.769,
      "velocity": 0.5
    },
    {
      "id": "n-00198",
      "pitch": "A3",
      "midi": 57,
      "start": 45.9,
      "duration": 0.299,
      "velocity": 0.5
    },
    {
      "id": "n-00199",
      "pitch": "C4",
      "midi": 60,
      "start": 46.2,
      "duration": 0.299,
      "velocity": 0.5
    },
    {
      "id": "n-00200",
      "pitch": "D#4",
      "midi": 63,
      "start": 46.5,
      "duration": 0.284,
      "velocity": 0.5
    },
    {
      "id": "n-00201",
      "pitch": "G4",
      "midi": 67,
      "start": 46.8,
      "duration": 0.299,
      "velocity": 0.5
    },
    {
      "id": "n-00202",
      "pitch": "D#4",
      "midi": 63,
      "start": 47.1,
      "duration": 0.299,
      "velocity": 0.5
    },
    {
      "id": "n-00203",
      "pitch": "C4",
      "midi": 60,
      "start": 47.4,
      "duration": 0.299,
      "velocity": 0.5
    },
    {
      "id": "n-00204",
      "pitch": "A4",
      "midi": 69,
      "start": 47.4,
      "duration": 0.299,
      "velocity": 0.5
    },
    {
      "id": "n-00205",
      "pitch": "A5",
      "midi": 81,
      "start": 47.4,
      "duration": 0.299,
      "velocity": 0.5
    },
    {
      "id": "n-00206",
      "pitch": "A3",
      "midi": 57,
      "start": 47.7,
      "duration": 0.299,
      "velocity": 0.5
    },
    {
      "id": "n-00207",
      "pitch": "A#4",
      "midi": 70,
      "start": 47.7,
      "duration": 0.299,
      "velocity": 0.5
    },
    {
      "id": "n-00208",
      "pitch": "A#5",
      "midi": 82,
      "start": 47.7,
      "duration": 0.299,
      "velocity": 0.5
    },
    {
      "id": "n-00209",
      "pitch": "G3",
      "midi": 55,
      "start": 48,
      "duration": 0.299,
      "velocity": 0.5
    },
    {
      "id": "n-00210",
      "pitch": "D#5",
      "midi": 75,
      "start": 48,
      "duration": 1.199,
      "velocity": 0.5
    },
    {
      "id": "n-00211",
      "pitch": "C6",
      "midi": 84,
      "start": 48,
      "duration": 0.599,
      "velocity": 0.5
    },
    {
      "id": "n-00212",
      "pitch": "D#3",
      "midi": 51,
      "start": 48.3,
      "duration": 0.299,
      "velocity": 0.5
    },
    {
      "id": "n-00213",
      "pitch": "C3",
      "midi": 48,
      "start": 48.6,
      "duration": 0.299,
      "velocity": 0.5
    },
    {
      "id": "n-00214",
      "pitch": "A4",
      "midi": 69,
      "start": 48.6,
      "duration": 0.299,
      "velocity": 0.5
    },
    {
      "id": "n-00215",
      "pitch": "A5",
      "midi": 81,
      "start": 48.6,
      "duration": 0.299,
      "velocity": 0.5
    },
    {
      "id": "n-00216",
      "pitch": "F2",
      "midi": 41,
      "start": 48.9,
      "duration": 0.284,
      "velocity": 0.5
    },
    {
      "id": "n-00217",
      "pitch": "G4",
      "midi": 67,
      "start": 48.9,
      "duration": 0.284,
      "velocity": 0.5
    },
    {
      "id": "n-00218",
      "pitch": "G5",
      "midi": 79,
      "start": 48.9,
      "duration": 0.284,
      "velocity": 0.5
    },
    {
      "id": "n-00219",
      "pitch": "F1",
      "midi": 29,
      "start": 49.2,
      "duration": 0.299,
      "velocity": 0.5
    },
    {
      "id": "n-00220",
      "pitch": "A4",
      "midi": 69,
      "start": 49.2,
      "duration": 0.379,
      "velocity": 0.5
    },
    {
      "id": "n-00221",
      "pitch": "D#5",
      "midi": 75,
      "start": 49.2,
      "duration": 1.139,
      "velocity": 0.5
    },
    {
      "id": "n-00222",
      "pitch": "A5",
      "midi": 81,
      "start": 49.2,
      "duration": 0.759,
      "velocity": 0.5
    },
    {
      "id": "n-00223",
      "pitch": "F2",
      "midi": 41,
      "start": 49.5,
      "duration": 0.299,
      "velocity": 0.5
    },
    {
      "id": "n-00224",
      "pitch": "F4",
      "midi": 65,
      "start": 49.6,
      "duration": 0.379,
      "velocity": 0.5
    },
    {
      "id": "n-00225",
      "pitch": "F5",
      "midi": 77,
      "start": 49.6,
      "duration": 0.379,
      "velocity": 0.5
    },
    {
      "id": "n-00226",
      "pitch": "C3",
      "midi": 48,
      "start": 49.8,
      "duration": 0.299,
      "velocity": 0.5
    },
    {
      "id": "n-00227",
      "pitch": "A4",
      "midi": 69,
      "start": 50,
      "duration": 0.379,
      "velocity": 0.5
    },
    {
      "id": "n-00228",
      "pitch": "D#3",
      "midi": 51,
      "start": 50.1,
      "duration": 0.299,
      "velocity": 0.5
    },
    {
      "id": "n-00229",
      "pitch": "G3",
      "midi": 55,
      "start": 50.4,
      "duration": 0.299,
      "velocity": 0.5
    },
    {
      "id": "n-00230",
      "pitch": "G4",
      "midi": 67,
      "start": 50.4,
      "duration": 2.279,
      "velocity": 0.5
    },
    {
      "id": "n-00231",
      "pitch": "D#5",
      "midi": 75,
      "start": 50.4,
      "duration": 2.279,
      "velocity": 0.5
    },
    {
      "id": "n-00232",
      "pitch": "G5",
      "midi": 79,
      "start": 50.4,
      "duration": 2.279,
      "velocity": 0.5
    },
    {
      "id": "n-00233",
      "pitch": "A3",
      "midi": 57,
      "start": 50.7,
      "duration": 0.299,
      "velocity": 0.5
    },
    {
      "id": "n-00234",
      "pitch": "C4",
      "midi": 60,
      "start": 51,
      "duration": 0.299,
      "velocity": 0.5
    },
    {
      "id": "n-00235",
      "pitch": "D#4",
      "midi": 63,
      "start": 51.3,
      "duration": 0.284,
      "velocity": 0.5
    },
    {
      "id": "n-00236",
      "pitch": "G4",
      "midi": 67,
      "start": 51.6,
      "duration": 0.299,
      "velocity": 0.5
    },
    {
      "id": "n-00237",
      "pitch": "D#4",
      "midi": 63,
      "start": 51.9,
      "duration": 0.299,
      "velocity": 0.54
    },
    {
      "id": "n-00238",
      "pitch": "C4",
      "midi": 60,
      "start": 52.2,
      "duration": 0.299,
      "velocity": 0.57
    },
    {
      "id": "n-00239",
      "pitch": "A3",
      "midi": 57,
      "start": 52.5,
      "duration": 0.299,
      "velocity": 0.6
    },
    {
      "id": "n-00240",
      "pitch": "G3",
      "midi": 55,
      "start": 52.8,
      "duration": 0.299,
      "velocity": 0.63
    },
    {
      "id": "n-00241",
      "pitch": "D#4",
      "midi": 63,
      "start": 52.8,
      "duration": 0.599,
      "velocity": 0.63
    },
    {
      "id": "n-00242",
      "pitch": "C5",
      "midi": 72,
      "start": 52.8,
      "duration": 0.599,
      "velocity": 0.63
    },
    {
      "id": "n-00243",
      "pitch": "D#5",
      "midi": 75,
      "start": 52.8,
      "duration": 0.599,
      "velocity": 0.63
    },
    {
      "id": "n-00244",
      "pitch": "D#3",
      "midi": 51,
      "start": 53.1,
      "duration": 0.299,
      "velocity": 0.66
    },
    {
      "id": "n-00245",
      "pitch": "C3",
      "midi": 48,
      "start": 53.4,
      "duration": 0.299,
      "velocity": 0.69
    },
    {
      "id": "n-00246",
      "pitch": "G4",
      "midi": 67,
      "start": 53.4,
      "duration": 0.599,
      "velocity": 0.69
    },
    {
      "id": "n-00247",
      "pitch": "G5",
      "midi": 79,
      "start": 53.4,
      "duration": 0.599,
      "velocity": 0.69
    },
    {
      "id": "n-00248",
      "pitch": "F2",
      "midi": 41,
      "start": 53.7,
      "duration": 0.284,
      "velocity": 0.72
    },
    {
      "id": "n-00249",
      "pitch": "A#1",
      "midi": 34,
      "start": 54,
      "duration": 0.299,
      "velocity": 0.76
    },
    {
      "id": "n-00250",
      "pitch": "A4",
      "midi": 69,
      "start": 54,
      "duration": 0.599,
      "velocity": 0.76
    },
    {
      "id": "n-00251",
      "pitch": "D5",
      "midi": 74,
      "start": 54,
      "duration": 1.199,
      "velocity": 0.76
    },
    {
      "id": "n-00252",
      "pitch": "A5",
      "midi": 81,
      "start": 54,
      "duration": 0.599,
      "velocity": 0.76
    },
    {
      "id": "n-00253",
      "pitch": "F2",
      "midi": 41,
      "start": 54.3,
      "duration": 0.299,
      "velocity": 0.76
    },
    {
      "id": "n-00254",
      "pitch": "A#2",
      "midi": 46,
      "start": 54.6,
      "duration": 0.299,
      "velocity": 0.76
    },
    {
      "id": "n-00255",
      "pitch": "A#4",
      "midi": 70,
      "start": 54.6,
      "duration": 0.599,
      "velocity": 0.76
    },
    {
      "id": "n-00256",
      "pitch": "A#5",
      "midi": 82,
      "start": 54.6,
      "duration": 0.599,
      "velocity": 0.76
    },
    {
      "id": "n-00257",
      "pitch": "D3",
      "midi": 50,
      "start": 54.9,
      "duration": 0.299,
      "velocity": 0.76
    },
    {
      "id": "n-00258",
      "pitch": "F3",
      "midi": 53,
      "start": 55.2,
      "duration": 0.299,
      "velocity": 0.76
    },
    {
      "id": "n-00259",
      "pitch": "F4",
      "midi": 65,
      "start": 55.2,
      "duration": 2.339,
      "velocity": 0.76
    },
    {
      "id": "n-00260",
      "pitch": "D5",
      "midi": 74,
      "start": 55.2,
      "duration": 2.339,
      "velocity": 0.76
    },
    {
      "id": "n-00261",
      "pitch": "F5",
      "midi": 77,
      "start": 55.2,
      "duration": 2.339,
      "velocity": 0.76
    },
    {
      "id": "n-00262",
      "pitch": "A#3",
      "midi": 58,
      "start": 55.5,
      "duration": 0.299,
      "velocity": 0.76
    },
    {
      "id": "n-00263",
      "pitch": "D4",
      "midi": 62,
      "start": 55.8,
      "duration": 0.299,
      "velocity": 0.76
    },
    {
      "id": "n-00264",
      "pitch": "F4",
      "midi": 65,
      "start": 56.1,
      "duration": 0.284,
      "velocity": 0.76
    },
    {
      "id": "n-00265",
      "pitch": "D4",
      "midi": 62,
      "start": 56.4,
      "duration": 0.299,
      "velocity": 0.76
    },
    {
      "id": "n-00266",
      "pitch": "A#3",
      "midi": 58,
      "start": 56.7,
      "duration": 0.299,
      "velocity": 0.76
    },
    {
      "id": "n-00267",
      "pitch": "F3",
      "midi": 53,
      "start": 57,
      "duration": 0.299,
      "velocity": 0.76
    },
    {
      "id": "n-00268",
      "pitch": "D3",
      "midi": 50,
      "start": 57.3,
      "duration": 0.299,
      "velocity": 0.76
    },
    {
      "id": "n-00269",
      "pitch": "A#2",
      "midi": 46,
      "start": 57.6,
      "duration": 0.299,
      "velocity": 0.76
    },
    {
      "id": "n-00270",
      "pitch": "A4",
      "midi": 69,
      "start": 57.6,
      "duration": 0.599,
      "velocity": 0.76
    },
    {
      "id": "n-00271",
      "pitch": "D5",
      "midi": 74,
      "start": 57.6,
      "duration": 1.199,
      "velocity": 0.76
    },
    {
      "id": "n-00272",
      "pitch": "A5",
      "midi": 81,
      "start": 57.6,
      "duration": 0.599,
      "velocity": 0.76
    },
    {
      "id": "n-00273",
      "pitch": "F2",
      "midi": 41,
      "start": 57.9,
      "duration": 0.299,
      "velocity": 0.76
    },
    {
      "id": "n-00274",
      "pitch": "A#1",
      "midi": 34,
      "start": 58.2,
      "duration": 0.299,
      "velocity": 0.76
    },
    {
      "id": "n-00275",
      "pitch": "A#4",
      "midi": 70,
      "start": 58.2,
      "duration": 0.599,
      "velocity": 0.76
    },
    {
      "id": "n-00276",
      "pitch": "A#5",
      "midi": 82,
      "start": 58.2,
      "duration": 0.599,
      "velocity": 0.76
    },
    {
      "id": "n-00277",
      "pitch": "F2",
      "midi": 41,
      "start": 58.5,
      "duration": 0.284,
      "velocity": 0.76
    },
    {
      "id": "n-00278",
      "pitch": "A#1",
      "midi": 34,
      "start": 58.8,
      "duration": 0.299,
      "velocity": 0.76
    },
    {
      "id": "n-00279",
      "pitch": "C5",
      "midi": 72,
      "start": 58.8,
      "duration": 0.599,
      "velocity": 0.76
    },
    {
      "id": "n-00280",
      "pitch": "F5",
      "midi": 77,
      "start": 58.8,
      "duration": 2.399,
      "velocity": 0.76
    },
    {
      "id": "n-00281",
      "pitch": "C6",
      "midi": 84,
      "start": 58.8,
      "duration": 0.599,
      "velocity": 0.76
    },
    {
      "id": "n-00282",
      "pitch": "F2",
      "midi": 41,
      "start": 59.1,
      "duration": 0.299,
      "velocity": 0.76
    },
    {
      "id": "n-00283",
      "pitch": "A#2",
      "midi": 46,
      "start": 59.4,
      "duration": 0.299,
      "velocity": 0.76
    },
    {
      "id": "n-00284",
      "pitch": "D5",
      "midi": 74,
      "start": 59.4,
      "duration": 0.599,
      "velocity": 0.76
    },
    {
      "id": "n-00285",
      "pitch": "D6",
      "midi": 86,
      "start": 59.4,
      "duration": 0.599,
      "velocity": 0.76
    },
    {
      "id": "n-00286",
      "pitch": "D3",
      "midi": 50,
      "start": 59.7,
      "duration": 0.299,
      "velocity": 0.76
    },
    {
      "id": "n-00287",
      "pitch": "F3",
      "midi": 53,
      "start": 60,
      "duration": 0.299,
      "velocity": 0.76
    },
    {
      "id": "n-00288",
      "pitch": "A4",
      "midi": 69,
      "start": 60,
      "duration": 2.399,
      "velocity": 0.76
    },
    {
      "id": "n-00289",
      "pitch": "D5",
      "midi": 74,
      "start": 60,
      "duration": 2.399,
      "velocity": 0.76
    },
    {
      "id": "n-00290",
      "pitch": "A5",
      "midi": 81,
      "start": 60,
      "duration": 2.399,
      "velocity": 0.76
    },
    {
      "id": "n-00291",
      "pitch": "A#3",
      "midi": 58,
      "start": 60.3,
      "duration": 0.299,
      "velocity": 0.76
    },
    {
      "id": "n-00292",
      "pitch": "D4",
      "midi": 62,
      "start": 60.6,
      "duration": 0.299,
      "velocity": 0.76
    },
    {
      "id": "n-00293",
      "pitch": "F4",
      "midi": 65,
      "start": 60.9,
      "duration": 0.284,
      "velocity": 0.76
    },
    {
      "id": "n-00294",
      "pitch": "D4",
      "midi": 62,
      "start": 61.2,
      "duration": 0.299,
      "velocity": 0.76
    },
    {
      "id": "n-00295",
      "pitch": "A#3",
      "midi": 58,
      "start": 61.5,
      "duration": 0.299,
      "velocity": 0.76
    },
    {
      "id": "n-00296",
      "pitch": "F3",
      "midi": 53,
      "start": 61.8,
      "duration": 0.299,
      "velocity": 0.76
    },
    {
      "id": "n-00297",
      "pitch": "D3",
      "midi": 50,
      "start": 62.1,
      "duration": 0.299,
      "velocity": 0.76
    },
    {
      "id": "n-00298",
      "pitch": "A#2",
      "midi": 46,
      "start": 62.4,
      "duration": 0.299,
      "velocity": 0.76
    },
    {
      "id": "n-00299",
      "pitch": "A#4",
      "midi": 70,
      "start": 62.4,
      "duration": 0.599,
      "velocity": 0.76
    },
    {
      "id": "n-00300",
      "pitch": "D5",
      "midi": 74,
      "start": 62.4,
      "duration": 1.169,
      "velocity": 0.76
    },
    {
      "id": "n-00301",
      "pitch": "A#5",
      "midi": 82,
      "start": 62.4,
      "duration": 0.599,
      "velocity": 0.76
    },
    {
      "id": "n-00302",
      "pitch": "F2",
      "midi": 41,
      "start": 62.7,
      "duration": 0.299,
      "velocity": 0.76
    },
    {
      "id": "n-00303",
      "pitch": "A#1",
      "midi": 34,
      "start": 63,
      "duration": 0.299,
      "velocity": 0.76
    },
    {
      "id": "n-00304",
      "pitch": "D5",
      "midi": 74,
      "start": 63,
      "duration": 0.599,
      "velocity": 0.76
    },
    {
      "id": "n-00305",
      "pitch": "D6",
      "midi": 86,
      "start": 63,
      "duration": 0.569,
      "velocity": 0.76
    },
    {
      "id": "n-00306",
      "pitch": "F2",
      "midi": 41,
      "start": 63.3,
      "duration": 0.284,
      "velocity": 0.76
    },
    {
      "id": "n-00307",
      "pitch": "G1",
      "midi": 31,
      "start": 63.6,
      "duration": 0.299,
      "velocity": 0.76
    },
    {
      "id": "n-00308",
      "pitch": "F5",
      "midi": 77,
      "start": 63.6,
      "duration": 1.199,
      "velocity": 0.76
    },
    {
      "id": "n-00309",
      "pitch": "C#6",
      "midi": 85,
      "start": 63.6,
      "duration": 1.199,
      "velocity": 0.76
    },
    {
      "id": "n-00310",
      "pitch": "F6",
      "midi": 89,
      "start": 63.6,
      "duration": 1.199,
      "velocity": 0.76
    },
    {
      "id": "n-00311",
      "pitch": "G2",
      "midi": 43,
      "start": 63.9,
      "duration": 0.299,
      "velocity": 0.76
    },
    {
      "id": "n-00312",
      "pitch": "C#3",
      "midi": 49,
      "start": 64.2,
      "duration": 0.299,
      "velocity": 0.76
    },
    {
      "id": "n-00313",
      "pitch": "F3",
      "midi": 53,
      "start": 64.5,
      "duration": 0.299,
      "velocity": 0.76
    },
    {
      "id": "n-00314",
      "pitch": "A3",
      "midi": 57,
      "start": 64.8,
      "duration": 0.299,
      "velocity": 0.76
    },
    {
      "id": "n-00315",
      "pitch": "C#5",
      "midi": 73,
      "start": 64.8,
      "duration": 1.139,
      "velocity": 0.76
    },
    {
      "id": "n-00316",
      "pitch": "C#6",
      "midi": 85,
      "start": 64.8,
      "duration": 1.139,
      "velocity": 0.76
    },
    {
      "id": "n-00317",
      "pitch": "C#4",
      "midi": 61,
      "start": 65.1,
      "duration": 0.299,
      "velocity": 0.76
    },
    {
      "id": "n-00318",
      "pitch": "F4",
      "midi": 65,
      "start": 65.4,
      "duration": 0.299,
      "velocity": 0.76
    },
    {
      "id": "n-00319",
      "pitch": "A4",
      "midi": 69,
      "start": 65.7,
      "duration": 0.284,
      "velocity": 0.76
    },
    {
      "id": "n-00320",
      "pitch": "G2",
      "midi": 43,
      "start": 66,
      "duration": 0.299,
      "velocity": 0.57
    },
    {
      "id": "n-00321",
      "pitch": "D3",
      "midi": 50,
      "start": 66.3,
      "duration": 0.299,
      "velocity": 0.57
    },
    {
      "id": "n-00322",
      "pitch": "F3",
      "midi": 53,
      "start": 66.6,
      "duration": 0.299,
      "velocity": 0.57
    },
    {
      "id": "n-00323",
      "pitch": "A4",
      "midi": 69,
      "start": 66.6,
      "duration": 1.799,
      "velocity": 0.57
    },
    {
      "id": "n-00324",
      "pitch": "D5",
      "midi": 74,
      "start": 66.6,
      "duration": 0.299,
      "velocity": 0.57
    },
    {
      "id": "n-00325",
      "pitch": "A3",
      "midi": 57,
      "start": 66.9,
      "duration": 0.299,
      "velocity": 0.57
    },
    {
      "id": "n-00326",
      "pitch": "E5",
      "midi": 76,
      "start": 66.9,
      "duration": 0.299,
      "velocity": 0.57
    },
    {
      "id": "n-00327",
      "pitch": "D4",
      "midi": 62,
      "start": 67.2,
      "duration": 0.299,
      "velocity": 0.57
    },
    {
      "id": "n-00328",
      "pitch": "F5",
      "midi": 77,
      "start": 67.2,
      "duration": 0.599,
      "velocity": 0.57
    },
    {
      "id": "n-00329",
      "pitch": "A3",
      "midi": 57,
      "start": 67.5,
      "duration": 0.299,
      "velocity": 0.57
    },
    {
      "id": "n-00330",
      "pitch": "F3",
      "midi": 53,
      "start": 67.8,
      "duration": 0.299,
      "velocity": 0.57
    },
    {
      "id": "n-00331",
      "pitch": "F5",
      "midi": 77,
      "start": 67.8,
      "duration": 0.299,
      "velocity": 0.57
    },
    {
      "id": "n-00332",
      "pitch": "D3",
      "midi": 50,
      "start": 68.1,
      "duration": 0.284,
      "velocity": 0.57
    },
    {
      "id": "n-00333",
      "pitch": "A5",
      "midi": 81,
      "start": 68.1,
      "duration": 0.284,
      "velocity": 0.57
    },
    {
      "id": "n-00334",
      "pitch": "G1",
      "midi": 31,
      "start": 68.4,
      "duration": 0.299,
      "velocity": 0.76
    },
    {
      "id": "n-00335",
      "pitch": "F5",
      "midi": 77,
      "start": 68.4,
      "duration": 1.199,
      "velocity": 0.76
    },
    {
      "id": "n-00336",
      "pitch": "C#6",
      "midi": 85,
      "start": 68.4,
      "duration": 1.199,
      "velocity": 0.76
    },
    {
      "id": "n-00337",
      "pitch": "F6",
      "midi": 89,
      "start": 68.4,
      "duration": 1.199,
      "velocity": 0.76
    },
    {
      "id": "n-00338",
      "pitch": "F2",
      "midi": 41,
      "start": 68.7,
      "duration": 0.299,
      "velocity": 0.76
    },
    {
      "id": "n-00339",
      "pitch": "C#3",
      "midi": 49,
      "start": 69,
      "duration": 0.299,
      "velocity": 0.76
    },
    {
      "id": "n-00340",
      "pitch": "F3",
      "midi": 53,
      "start": 69.3,
      "duration": 0.299,
      "velocity": 0.76
    },
    {
      "id": "n-00341",
      "pitch": "A3",
      "midi": 57,
      "start": 69.6,
      "duration": 0.299,
      "velocity": 0.76
    },
    {
      "id": "n-00342",
      "pitch": "C#5",
      "midi": 73,
      "start": 69.6,
      "duration": 1.139,
      "velocity": 0.76
    },
    {
      "id": "n-00343",
      "pitch": "C#6",
      "midi": 85,
      "start": 69.6,
      "duration": 1.139,
      "velocity": 0.76
    },
    {
      "id": "n-00344",
      "pitch": "C#4",
      "midi": 61,
      "start": 69.9,
      "duration": 0.299,
      "velocity": 0.76
    },
    {
      "id": "n-00345",
      "pitch": "F4",
      "midi": 65,
      "start": 70.2,
      "duration": 0.299,
      "velocity": 0.76
    },
    {
      "id": "n-00346",
      "pitch": "A4",
      "midi": 69,
      "start": 70.5,
      "duration": 0.284,
      "velocity": 0.76
    },
    {
      "id": "n-00347",
      "pitch": "G2",
      "midi": 43,
      "start": 70.8,
      "duration": 0.299,
      "velocity": 0.57
    },
    {
      "id": "n-00348",
      "pitch": "D3",
      "midi": 50,
      "start": 71.1,
      "duration": 0.299,
      "velocity": 0.57
    },
    {
      "id": "n-00349",
      "pitch": "F3",
      "midi": 53,
      "start": 71.4,
      "duration": 0.299,
      "velocity": 0.57
    },
    {
      "id": "n-00350",
      "pitch": "A4",
      "midi": 69,
      "start": 71.4,
      "duration": 1.799,
      "velocity": 0.57
    },
    {
      "id": "n-00351",
      "pitch": "D5",
      "midi": 74,
      "start": 71.4,
      "duration": 0.299,
      "velocity": 0.57
    },
    {
      "id": "n-00352",
      "pitch": "A3",
      "midi": 57,
      "start": 71.7,
      "duration": 0.299,
      "velocity": 0.57
    },
    {
      "id": "n-00353",
      "pitch": "E5",
      "midi": 76,
      "start": 71.7,
      "duration": 0.299,
      "velocity": 0.57
    },
    {
      "id": "n-00354",
      "pitch": "D4",
      "midi": 62,
      "start": 72,
      "duration": 0.299,
      "velocity": 0.57
    },
    {
      "id": "n-00355",
      "pitch": "F5",
      "midi": 77,
      "start": 72,
      "duration": 0.599,
      "velocity": 0.57
    },
    {
      "id": "n-00356",
      "pitch": "A3",
      "midi": 57,
      "start": 72.3,
      "duration": 0.299,
      "velocity": 0.57
    },
    {
      "id": "n-00357",
      "pitch": "F3",
      "midi": 53,
      "start": 72.6,
      "duration": 0.299,
      "velocity": 0.57
    },
    {
      "id": "n-00358",
      "pitch": "F5",
      "midi": 77,
      "start": 72.6,
      "duration": 0.299,
      "velocity": 0.57
    },
    {
      "id": "n-00359",
      "pitch": "D3",
      "midi": 50,
      "start": 72.9,
      "duration": 0.284,
      "velocity": 0.57
    },
    {
      "id": "n-00360",
      "pitch": "A5",
      "midi": 81,
      "start": 72.9,
      "duration": 0.284,
      "velocity": 0.57
    },
    {
      "id": "n-00361",
      "pitch": "G2",
      "midi": 43,
      "start": 73.2,
      "duration": 0.299,
      "velocity": 0.57
    },
    {
      "id": "n-00362",
      "pitch": "A4",
      "midi": 69,
      "start": 73.2,
      "duration": 0.569,
      "velocity": 0.57
    },
    {
      "id": "n-00363",
      "pitch": "F5",
      "midi": 77,
      "start": 73.2,
      "duration": 0.569,
      "velocity": 0.57
    },
    {
      "id": "n-00364",
      "pitch": "D3",
      "midi": 50,
      "start": 73.5,
      "duration": 0.299,
      "velocity": 0.56
    },
    {
      "id": "n-00365",
      "pitch": "F3",
      "midi": 53,
      "start": 73.8,
      "duration": 0.299,
      "velocity": 0.55
    },
    {
      "id": "n-00366",
      "pitch": "D4",
      "midi": 62,
      "start": 73.8,
      "duration": 0.299,
      "velocity": 0.55
    },
    {
      "id": "n-00367",
      "pitch": "A3",
      "midi": 57,
      "start": 74.1,
      "duration": 0.299,
      "velocity": 0.54
    },
    {
      "id": "n-00368",
      "pitch": "E4",
      "midi": 64,
      "start": 74.1,
      "duration": 0.299,
      "velocity": 0.54
    },
    {
      "id": "n-00369",
      "pitch": "D4",
      "midi": 62,
      "start": 74.4,
      "duration": 0.299,
      "velocity": 0.54
    },
    {
      "id": "n-00370",
      "pitch": "F4",
      "midi": 65,
      "start": 74.4,
      "duration": 0.599,
      "velocity": 0.54
    },
    {
      "id": "n-00371",
      "pitch": "A3",
      "midi": 57,
      "start": 74.7,
      "duration": 0.299,
      "velocity": 0.53
    },
    {
      "id": "n-00372",
      "pitch": "F3",
      "midi": 53,
      "start": 75,
      "duration": 0.299,
      "velocity": 0.52
    },
    {
      "id": "n-00373",
      "pitch": "F4",
      "midi": 65,
      "start": 75,
      "duration": 0.299,
      "velocity": 0.52
    },
    {
      "id": "n-00374",
      "pitch": "D3",
      "midi": 50,
      "start": 75.3,
      "duration": 0.284,
      "velocity": 0.51
    },
    {
      "id": "n-00375",
      "pitch": "A4",
      "midi": 69,
      "start": 75.3,
      "duration": 0.299,
      "velocity": 0.51
    },
    {
      "id": "n-00376",
      "pitch": "G2",
      "midi": 43,
      "start": 75.6,
      "duration": 0.299,
      "velocity": 0.5
    },
    {
      "id": "n-00377",
      "pitch": "F4",
      "midi": 65,
      "start": 75.6,
      "duration": 1.199,
      "velocity": 0.5
    },
    {
      "id": "n-00378",
      "pitch": "D3",
      "midi": 50,
      "start": 75.9,
      "duration": 0.299,
      "velocity": 0.5
    },
    {
      "id": "n-00379",
      "pitch": "F3",
      "midi": 53,
      "start": 76.2,
      "duration": 0.299,
      "velocity": 0.5
    },
    {
      "id": "n-00380",
      "pitch": "A3",
      "midi": 57,
      "start": 76.5,
      "duration": 0.299,
      "velocity": 0.5
    },
    {
      "id": "n-00381",
      "pitch": "B3",
      "midi": 59,
      "start": 76.8,
      "duration": 0.299,
      "velocity": 0.5
    },
    {
      "id": "n-00382",
      "pitch": "D4",
      "midi": 62,
      "start": 76.8,
      "duration": 1.799,
      "velocity": 0.5
    },
    {
      "id": "n-00383",
      "pitch": "A3",
      "midi": 57,
      "start": 77.1,
      "duration": 0.299,
      "velocity": 0.5
    },
    {
      "id": "n-00384",
      "pitch": "G3",
      "midi": 55,
      "start": 77.4,
      "duration": 0.299,
      "velocity": 0.5
    },
    {
      "id": "n-00385",
      "pitch": "F3",
      "midi": 53,
      "start": 77.7,
      "duration": 0.284,
      "velocity": 0.5
    },
    {
      "id": "n-00386",
      "pitch": "C2",
      "midi": 36,
      "start": 78,
      "duration": 0.299,
      "velocity": 0.5
    },
    {
      "id": "n-00387",
      "pitch": "B3",
      "midi": 59,
      "start": 78,
      "duration": 0.599,
      "velocity": 0.5
    },
    {
      "id": "n-00388",
      "pitch": "G2",
      "midi": 43,
      "start": 78.3,
      "duration": 0.299,
      "velocity": 0.5
    },
    {
      "id": "n-00389",
      "pitch": "C3",
      "midi": 48,
      "start": 78.6,
      "duration": 0.299,
      "velocity": 0.5
    },
    {
      "id": "n-00390",
      "pitch": "C4",
      "midi": 60,
      "start": 78.6,
      "duration": 0.599,
      "velocity": 0.5
    },
    {
      "id": "n-00391",
      "pitch": "E3",
      "midi": 52,
      "start": 78.9,
      "duration": 0.299,
      "velocity": 0.5
    },
    {
      "id": "n-00392",
      "pitch": "G3",
      "midi": 55,
      "start": 79.2,
      "duration": 0.299,
      "velocity": 0.5
    },
    {
      "id": "n-00393",
      "pitch": "C5",
      "midi": 72,
      "start": 79.2,
      "duration": 1.139,
      "velocity": 0.5
    },
    {
      "id": "n-00394",
      "pitch": "C4",
      "midi": 60,
      "start": 79.5,
      "duration": 0.299,
      "velocity": 0.5
    },
    {
      "id": "n-00395",
      "pitch": "E4",
      "midi": 64,
      "start": 79.8,
      "duration": 0.299,
      "velocity": 0.5
    },
    {
      "id": "n-00396",
      "pitch": "G4",
      "midi": 67,
      "start": 80.1,
      "duration": 0.299,
      "velocity": 0.5
    },
    {
      "id": "n-00397",
      "pitch": "C5",
      "midi": 72,
      "start": 80.4,
      "duration": 0.284,
      "velocity": 0.5
    },
    {
      "id": "n-00398",
      "pitch": "E5",
      "midi": 76,
      "start": 80.7,
      "duration": 0.284,
      "velocity": 0.5
    },
    {
      "id": "n-00399",
      "pitch": "G5",
      "midi": 79,
      "start": 81,
      "duration": 0.284,
      "velocity": 0.5
    },
    {
      "id": "n-00400",
      "pitch": "C6",
      "midi": 84,
      "start": 81.3,
      "duration": 0.284,
      "velocity": 0.5
    },
    {
      "id": "n-00401",
      "pitch": "G5",
      "midi": 79,
      "start": 81.6,
      "duration": 0.284,
      "velocity": 0.5
    },
    {
      "id": "n-00402",
      "pitch": "E5",
      "midi": 76,
      "start": 81.9,
      "duration": 0.284,
      "velocity": 0.5
    },
    {
      "id": "n-00403",
      "pitch": "C5",
      "midi": 72,
      "start": 82.2,
      "duration": 0.284,
      "velocity": 0.5
    },
    {
      "id": "n-00404",
      "pitch": "G4",
      "midi": 67,
      "start": 82.5,
      "duration": 0.284,
      "velocity": 0.5
    },
    {
      "id": "n-00405",
      "pitch": "C4",
      "midi": 60,
      "start": 82.8,
      "duration": 0.599,
      "velocity": 0.5
    },
    {
      "id": "n-00406",
      "pitch": "D#4",
      "midi": 63,
      "start": 82.8,
      "duration": 0.599,
      "velocity": 0.5
    },
    {
      "id": "n-00407",
      "pitch": "G4",
      "midi": 67,
      "start": 82.8,
      "duration": 0.599,
      "velocity": 0.5
    },
    {
      "id": "n-00408",
      "pitch": "D#5",
      "midi": 75,
      "start": 82.8,
      "duration": 0.299,
      "velocity": 0.5
    },
    {
      "id": "n-00409",
      "pitch": "C5",
      "midi": 72,
      "start": 83.1,
      "duration": 0.299,
      "velocity": 0.5
    },
    {
      "id": "n-00410",
      "pitch": "A#3",
      "midi": 58,
      "start": 83.4,
      "duration": 0.299,
      "velocity": 0.5
    },
    {
      "id": "n-00411",
      "pitch": "G4",
      "midi": 67,
      "start": 83.4,
      "duration": 0.299,
      "velocity": 0.5
    },
    {
      "id": "n-00412",
      "pitch": "A3",
      "midi": 57,
      "start": 83.7,
      "duration": 0.299,
      "velocity": 0.5
    },
    {
      "id": "n-00413",
      "pitch": "C5",
      "midi": 72,
      "start": 83.7,
      "duration": 0.284,
      "velocity": 0.5
    },
    {
      "id": "n-00414",
      "pitch": "G3",
      "midi": 55,
      "start": 84,
      "duration": 1.799,
      "velocity": 0.5
    },
    {
      "id": "n-00415",
      "pitch": "D#4",
      "midi": 63,
      "start": 84,
      "duration": 0.599,
      "velocity": 0.5
    },
    {
      "id": "n-00416",
      "pitch": "G4",
      "midi": 67,
      "start": 84,
      "duration": 0.599,
      "velocity": 0.5
    },
    {
      "id": "n-00417",
      "pitch": "D#5",
      "midi": 75,
      "start": 84,
      "duration": 0.299,
      "velocity": 0.5
    },
    {
      "id": "n-00418",
      "pitch": "C5",
      "midi": 72,
      "start": 84.3,
      "duration": 0.299,
      "velocity": 0.5
    },
    {
      "id": "n-00419",
      "pitch": "G4",
      "midi": 67,
      "start": 84.6,
      "duration": 0.299,
      "velocity": 0.5
    },
    {
      "id": "n-00420",
      "pitch": "C5",
      "midi": 72,
      "start": 84.9,
      "duration": 0.284,
      "velocity": 0.5
    },
    {
      "id": "n-00421",
      "pitch": "D#4",
      "midi": 63,
      "start": 85.2,
      "duration": 0.599,
      "velocity": 0.5
    },
    {
      "id": "n-00422",
      "pitch": "G4",
      "midi": 67,
      "start": 85.2,
      "duration": 0.599,
      "velocity": 0.5
    },
    {
      "id": "n-00423",
      "pitch": "D#5",
      "midi": 75,
      "start": 85.2,
      "duration": 0.299,
      "velocity": 0.5
    },
    {
      "id": "n-00424",
      "pitch": "C5",
      "midi": 72,
      "start": 85.5,
      "duration": 0.299,
      "velocity": 0.5
    },
    {
      "id": "n-00425",
      "pitch": "A3",
      "midi": 57,
      "start": 85.8,
      "duration": 0.299,
      "velocity": 0.5
    },
    {
      "id": "n-00426",
      "pitch": "G4",
      "midi": 67,
      "start": 85.8,
      "duration": 0.299,
      "velocity": 0.5
    },
    {
      "id": "n-00427",
      "pitch": "A#3",
      "midi": 58,
      "start": 86.1,
      "duration": 0.299,
      "velocity": 0.5
    },
    {
      "id": "n-00428",
      "pitch": "C5",
      "midi": 72,
      "start": 86.1,
      "duration": 0.284,
      "velocity": 0.5
    },
    {
      "id": "n-00429",
      "pitch": "C4",
      "midi": 60,
      "start": 86.4,
      "duration": 0.599,
      "velocity": 0.5
    },
    {
      "id": "n-00430",
      "pitch": "D#4",
      "midi": 63,
      "start": 86.4,
      "duration": 0.599,
      "velocity": 0.5
    },
    {
      "id": "n-00431",
      "pitch": "G4",
      "midi": 67,
      "start": 86.4,
      "duration": 0.599,
      "velocity": 0.5
    },
    {
      "id": "n-00432",
      "pitch": "D#5",
      "midi": 75,
      "start": 86.4,
      "duration": 0.299,
      "velocity": 0.5
    },
    {
      "id": "n-00433",
      "pitch": "C5",
      "midi": 72,
      "start": 86.7,
      "duration": 0.299,
      "velocity": 0.5
    },
    {
      "id": "n-00434",
      "pitch": "C4",
      "midi": 60,
      "start": 87,
      "duration": 0.299,
      "velocity": 0.5
    },
    {
      "id": "n-00435",
      "pitch": "G4",
      "midi": 67,
      "start": 87,
      "duration": 0.299,
      "velocity": 0.5
    },
    {
      "id": "n-00436",
      "pitch": "D#4",
      "midi": 63,
      "start": 87.3,
      "duration": 0.284,
      "velocity": 0.5
    },
    {
      "id": "n-00437",
      "pitch": "C5",
      "midi": 72,
      "start": 87.3,
      "duration": 0.284,
      "velocity": 0.5
    },
    {
      "id": "n-00438",
      "pitch": "D4",
      "midi": 62,
      "start": 87.6,
      "duration": 2.279,
      "velocity": 0.5
    },
    {
      "id": "n-00439",
      "pitch": "F#4",
      "midi": 66,
      "start": 87.6,
      "duration": 2.279,
      "velocity": 0.5
    },
    {
      "id": "n-00440",
      "pitch": "A4",
      "midi": 69,
      "start": 87.6,
      "duration": 2.399,
      "velocity": 0.5
    },
    {
      "id": "n-00441",
      "pitch": "D5",
      "midi": 74,
      "start": 87.6,
      "duration": 0.899,
      "velocity": 0.5
    },
    {
      "id": "n-00442",
      "pitch": "A5",
      "midi": 81,
      "start": 87.6,
      "duration": 0.299,
      "velocity": 0.5
    },
    {
      "id": "n-00443",
      "pitch": "F#5",
      "midi": 78,
      "start": 87.9,
      "duration": 0.299,
      "velocity": 0.5
    },
    {
      "id": "n-00444",
      "pitch": "A3",
      "midi": 57,
      "start": 88.2,
      "duration": 0.299,
      "velocity": 0.5
    },
    {
      "id": "n-00445",
      "pitch": "D5",
      "midi": 74,
      "start": 88.2,
      "duration": 1.499,
      "velocity": 0.5
    },
    {
      "id": "n-00446",
      "pitch": "F#5",
      "midi": 78,
      "start": 88.5,
      "duration": 0.284,
      "velocity": 0.5
    },
    {
      "id": "n-00447",
      "pitch": "D3",
      "midi": 50,
      "start": 88.8,
      "duration": 0.299,
      "velocity": 0.5
    },
    {
      "id": "n-00448",
      "pitch": "A5",
      "midi": 81,
      "start": 88.8,
      "duration": 0.299,
      "velocity": 0.5
    },
    {
      "id": "n-00449",
      "pitch": "F#5",
      "midi": 78,
      "start": 89.1,
      "duration": 0.299,
      "velocity": 0.5
    },
    {
      "id": "n-00450",
      "pitch": "A2",
      "midi": 45,
      "start": 89.4,
      "duration": 0.299,
      "velocity": 0.5
    },
    {
      "id": "n-00451",
      "pitch": "D5",
      "midi": 74,
      "start": 89.4,
      "duration": 0.599,
      "velocity": 0.5
    },
    {
      "id": "n-00452",
      "pitch": "F#5",
      "midi": 78,
      "start": 89.7,
      "duration": 0.284,
      "velocity": 0.5
    },
    {
      "id": "n-00453",
      "pitch": "D2",
      "midi": 38,
      "start": 90,
      "duration": 0.599,
      "velocity": 0.5
    },
    {
      "id": "n-00454",
      "pitch": "A4",
      "midi": 69,
      "start": 90,
      "duration": 1.799,
      "velocity": 0.5
    },
    {
      "id": "n-00455",
      "pitch": "D5",
      "midi": 74,
      "start": 90,
      "duration": 0.899,
      "velocity": 0.5
    },
    {
      "id": "n-00456",
      "pitch": "A5",
      "midi": 81,
      "start": 90,
      "duration": 0.299,
      "velocity": 0.5
    },
    {
      "id": "n-00457",
      "pitch": "F#5",
      "midi": 78,
      "start": 90.3,
      "duration": 0.299,
      "velocity": 0.5
    },
    {
      "id": "n-00458",
      "pitch": "D5",
      "midi": 74,
      "start": 90.6,
      "duration": 0.899,
      "velocity": 0.5
    },
    {
      "id": "n-00459",
      "pitch": "F#5",
      "midi": 78,
      "start": 90.9,
      "duration": 0.284,
      "velocity": 0.5
    },
    {
      "id": "n-00460",
      "pitch": "D1",
      "midi": 26,
      "start": 91.2,
      "duration": 1.139,
      "velocity": 0.5
    },
    {
      "id": "n-00461",
      "pitch": "D5",
      "midi": 74,
      "start": 91.2,
      "duration": 1.199,
      "velocity": 0.5
    },
    {
      "id": "n-00462",
      "pitch": "A4",
      "midi": 69,
      "start": 91.5,
      "duration": 0.884,
      "velocity": 0.5
    },
    {
      "id": "n-00463",
      "pitch": "F#4",
      "midi": 66,
      "start": 91.8,
      "duration": 0.299,
      "velocity": 0.5
    },
    {
      "id": "n-00464",
      "pitch": "A4",
      "midi": 69,
      "start": 92.1,
      "duration": 0.299,
      "velocity": 0.5
    },
    {
      "id": "n-00465",
      "pitch": "C4",
      "midi": 60,
      "start": 92.4,
      "duration": 0.599,
      "velocity": 0.5
    },
    {
      "id": "n-00466",
      "pitch": "D#4",
      "midi": 63,
      "start": 92.4,
      "duration": 0.599,
      "velocity": 0.5
    },
    {
      "id": "n-00467",
      "pitch": "G4",
      "midi": 67,
      "start": 92.4,
      "duration": 0.599,
      "velocity": 0.5
    },
    {
      "id": "n-00468",
      "pitch": "D#5",
      "midi": 75,
      "start": 92.4,
      "duration": 0.299,
      "velocity": 0.5
    },
    {
      "id": "n-00469",
      "pitch": "C5",
      "midi": 72,
      "start": 92.7,
      "duration": 0.299,
      "velocity": 0.5
    },
    {
      "id": "n-00470",
      "pitch": "A#3",
      "midi": 58,
      "start": 93,
      "duration": 0.299,
      "velocity": 0.5
    },
    {
      "id": "n-00471",
      "pitch": "G4",
      "midi": 67,
      "start": 93,
      "duration": 0.299,
      "velocity": 0.5
    },
    {
      "id": "n-00472",
      "pitch": "A3",
      "midi": 57,
      "start": 93.3,
      "duration": 0.299,
      "velocity": 0.5
    },
    {
      "id": "n-00473",
      "pitch": "C5",
      "midi": 72,
      "start": 93.3,
      "duration": 0.284,
      "velocity": 0.5
    },
    {
      "id": "n-00474",
      "pitch": "G3",
      "midi": 55,
      "start": 93.6,
      "duration": 1.799,
      "velocity": 0.5
    },
    {
      "id": "n-00475",
      "pitch": "D#4",
      "midi": 63,
      "start": 93.6,
      "duration": 0.599,
      "velocity": 0.5
    },
    {
      "id": "n-00476",
      "pitch": "G4",
      "midi": 67,
      "start": 93.6,
      "duration": 0.599,
      "velocity": 0.5
    },
    {
      "id": "n-00477",
      "pitch": "D#5",
      "midi": 75,
      "start": 93.6,
      "duration": 0.299,
      "velocity": 0.5
    },
    {
      "id": "n-00478",
      "pitch": "C5",
      "midi": 72,
      "start": 93.9,
      "duration": 0.299,
      "velocity": 0.5
    },
    {
      "id": "n-00479",
      "pitch": "G4",
      "midi": 67,
      "start": 94.2,
      "duration": 0.299,
      "velocity": 0.5
    },
    {
      "id": "n-00480",
      "pitch": "C5",
      "midi": 72,
      "start": 94.5,
      "duration": 0.284,
      "velocity": 0.5
    },
    {
      "id": "n-00481",
      "pitch": "D#4",
      "midi": 63,
      "start": 94.8,
      "duration": 0.599,
      "velocity": 0.5
    },
    {
      "id": "n-00482",
      "pitch": "G4",
      "midi": 67,
      "start": 94.8,
      "duration": 0.599,
      "velocity": 0.5
    },
    {
      "id": "n-00483",
      "pitch": "D#5",
      "midi": 75,
      "start": 94.8,
      "duration": 0.299,
      "velocity": 0.5
    },
    {
      "id": "n-00484",
      "pitch": "C5",
      "midi": 72,
      "start": 95.1,
      "duration": 0.299,
      "velocity": 0.56
    },
    {
      "id": "n-00485",
      "pitch": "A3",
      "midi": 57,
      "start": 95.4,
      "duration": 0.299,
      "velocity": 0.62
    },
    {
      "id": "n-00486",
      "pitch": "G4",
      "midi": 67,
      "start": 95.4,
      "duration": 0.299,
      "velocity": 0.62
    },
    {
      "id": "n-00487",
      "pitch": "A#3",
      "midi": 58,
      "start": 95.7,
      "duration": 0.299,
      "velocity": 0.69
    },
    {
      "id": "n-00488",
      "pitch": "C5",
      "midi": 72,
      "start": 95.7,
      "duration": 0.284,
      "velocity": 0.69
    },
    {
      "id": "n-00489",
      "pitch": "C4",
      "midi": 60,
      "start": 96,
      "duration": 0.599,
      "velocity": 0.75
    },
    {
      "id": "n-00490",
      "pitch": "G4",
      "midi": 67,
      "start": 96,
      "duration": 0.599,
      "velocity": 0.75
    },
    {
      "id": "n-00491",
      "pitch": "C5",
      "midi": 72,
      "start": 96,
      "duration": 0.599,
      "velocity": 0.75
    },
    {
      "id": "n-00492",
      "pitch": "G5",
      "midi": 79,
      "start": 96,
      "duration": 0.299,
      "velocity": 0.75
    },
    {
      "id": "n-00493",
      "pitch": "D#5",
      "midi": 75,
      "start": 96.3,
      "duration": 0.299,
      "velocity": 0.81
    },
    {
      "id": "n-00494",
      "pitch": "C4",
      "midi": 60,
      "start": 96.6,
      "duration": 0.299,
      "velocity": 0.87
    },
    {
      "id": "n-00495",
      "pitch": "C5",
      "midi": 72,
      "start": 96.6,
      "duration": 0.299,
      "velocity": 0.87
    },
    {
      "id": "n-00496",
      "pitch": "D#4",
      "midi": 63,
      "start": 96.9,
      "duration": 0.284,
      "velocity": 0.94
    },
    {
      "id": "n-00497",
      "pitch": "D#5",
      "midi": 75,
      "start": 96.9,
      "duration": 0.284,
      "velocity": 0.94
    },
    {
      "id": "n-00498",
      "pitch": "E4",
      "midi": 64,
      "start": 97.2,
      "duration": 3.419,
      "velocity": 1
    },
    {
      "id": "n-00499",
      "pitch": "G#4",
      "midi": 68,
      "start": 97.2,
      "duration": 2.399,
      "velocity": 1
    },
    {
      "id": "n-00500",
      "pitch": "C5",
      "midi": 72,
      "start": 97.2,
      "duration": 0.899,
      "velocity": 1
    },
    {
      "id": "n-00501",
      "pitch": "G#5",
      "midi": 80,
      "start": 97.2,
      "duration": 0.299,
      "velocity": 1
    },
    {
      "id": "n-00502",
      "pitch": "E5",
      "midi": 76,
      "start": 97.5,
      "duration": 0.299,
      "velocity": 1
    },
    {
      "id": "n-00503",
      "pitch": "C5",
      "midi": 72,
      "start": 97.8,
      "duration": 1.499,
      "velocity": 1
    },
    {
      "id": "n-00504",
      "pitch": "E5",
      "midi": 76,
      "start": 98.1,
      "duration": 0.284,
      "velocity": 1
    },
    {
      "id": "n-00505",
      "pitch": "G#5",
      "midi": 80,
      "start": 98.4,
      "duration": 0.299,
      "velocity": 1
    },
    {
      "id": "n-00506",
      "pitch": "E5",
      "midi": 76,
      "start": 98.7,
      "duration": 0.299,
      "velocity": 1
    },
    {
      "id": "n-00507",
      "pitch": "C5",
      "midi": 72,
      "start": 99,
      "duration": 0.599,
      "velocity": 1
    },
    {
      "id": "n-00508",
      "pitch": "E5",
      "midi": 76,
      "start": 99.3,
      "duration": 0.284,
      "velocity": 1
    },
    {
      "id": "n-00509",
      "pitch": "G#4",
      "midi": 68,
      "start": 99.6,
      "duration": 2.399,
      "velocity": 1
    },
    {
      "id": "n-00510",
      "pitch": "C5",
      "midi": 72,
      "start": 99.6,
      "duration": 0.899,
      "velocity": 1
    },
    {
      "id": "n-00511",
      "pitch": "G#5",
      "midi": 80,
      "start": 99.6,
      "duration": 0.299,
      "velocity": 1
    },
    {
      "id": "n-00512",
      "pitch": "E5",
      "midi": 76,
      "start": 99.9,
      "duration": 0.299,
      "velocity": 1
    },
    {
      "id": "n-00513",
      "pitch": "C5",
      "midi": 72,
      "start": 100.2,
      "duration": 1.199,
      "velocity": 1
    },
    {
      "id": "n-00514",
      "pitch": "E5",
      "midi": 76,
      "start": 100.5,
      "duration": 0.284,
      "velocity": 1
    },
    {
      "id": "n-00515",
      "pitch": "D#4",
      "midi": 63,
      "start": 100.8,
      "duration": 0.569,
      "velocity": 1
    },
    {
      "id": "n-00516",
      "pitch": "G#5",
      "midi": 80,
      "start": 100.8,
      "duration": 0.299,
      "velocity": 1
    },
    {
      "id": "n-00517",
      "pitch": "C5",
      "midi": 72,
      "start": 101.1,
      "duration": 0.899,
      "velocity": 1
    },
    {
      "id": "n-00518",
      "pitch": "E4",
      "midi": 64,
      "start": 101.4,
      "duration": 0.569,
      "velocity": 1
    },
    {
      "id": "n-00519",
      "pitch": "G#5",
      "midi": 80,
      "start": 101.4,
      "duration": 0.299,
      "velocity": 1
    },
    {
      "id": "n-00520",
      "pitch": "E5",
      "midi": 76,
      "start": 101.7,
      "duration": 0.284,
      "velocity": 1
    },
    {
      "id": "n-00521",
      "pitch": "A3",
      "midi": 57,
      "start": 102,
      "duration": 4.799,
      "velocity": 0.69
    },
    {
      "id": "n-00522",
      "pitch": "C4",
      "midi": 60,
      "start": 102,
      "duration": 4.799,
      "velocity": 0.69
    },
    {
      "id": "n-00523",
      "pitch": "G4",
      "midi": 67,
      "start": 102,
      "duration": 0.599,
      "velocity": 0.69
    },
    {
      "id": "n-00524",
      "pitch": "A5",
      "midi": 81,
      "start": 102,
      "duration": 0.299,
      "velocity": 0.69
    },
    {
      "id": "n-00525",
      "pitch": "C5",
      "midi": 72,
      "start": 102.3,
      "duration": 0.299,
      "velocity": 0.69
    },
    {
      "id": "n-00526",
      "pitch": "F4",
      "midi": 65,
      "start": 102.6,
      "duration": 0.299,
      "velocity": 0.69
    },
    {
      "id": "n-00527",
      "pitch": "A4",
      "midi": 69,
      "start": 102.6,
      "duration": 0.299,
      "velocity": 0.69
    },
    {
      "id": "n-00528",
      "pitch": "E4",
      "midi": 64,
      "start": 102.9,
      "duration": 0.299,
      "velocity": 0.69
    },
    {
      "id": "n-00529",
      "pitch": "C5",
      "midi": 72,
      "start": 102.9,
      "duration": 0.284,
      "velocity": 0.69
    },
    {
      "id": "n-00530",
      "pitch": "D4",
      "midi": 62,
      "start": 103.2,
      "duration": 2.399,
      "velocity": 0.69
    },
    {
      "id": "n-00531",
      "pitch": "A5",
      "midi": 81,
      "start": 103.2,
      "duration": 0.299,
      "velocity": 0.69
    },
    {
      "id": "n-00532",
      "pitch": "C5",
      "midi": 72,
      "start": 103.5,
      "duration": 0.299,
      "velocity": 0.69
    },
    {
      "id": "n-00533",
      "pitch": "A4",
      "midi": 69,
      "start": 103.8,
      "duration": 0.299,
      "velocity": 0.69
    },
    {
      "id": "n-00534",
      "pitch": "C5",
      "midi": 72,
      "start": 104.1,
      "duration": 0.284,
      "velocity": 0.69
    },
    {
      "id": "n-00535",
      "pitch": "A5",
      "midi": 81,
      "start": 104.4,
      "duration": 0.299,
      "velocity": 0.69
    },
    {
      "id": "n-00536",
      "pitch": "C5",
      "midi": 72,
      "start": 104.7,
      "duration": 0.299,
      "velocity": 0.69
    },
    {
      "id": "n-00537",
      "pitch": "A4",
      "midi": 69,
      "start": 105,
      "duration": 0.299,
      "velocity": 0.69
    },
    {
      "id": "n-00538",
      "pitch": "C5",
      "midi": 72,
      "start": 105.3,
      "duration": 0.284,
      "velocity": 0.69
    },
    {
      "id": "n-00539",
      "pitch": "E4",
      "midi": 64,
      "start": 105.6,
      "duration": 0.599,
      "velocity": 0.69
    },
    {
      "id": "n-00540",
      "pitch": "A5",
      "midi": 81,
      "start": 105.6,
      "duration": 0.299,
      "velocity": 0.69
    },
    {
      "id": "n-00541",
      "pitch": "C5",
      "midi": 72,
      "start": 105.9,
      "duration": 0.299,
      "velocity": 0.69
    },
    {
      "id": "n-00542",
      "pitch": "F4",
      "midi": 65,
      "start": 106.2,
      "duration": 0.569,
      "velocity": 0.69
    },
    {
      "id": "n-00543",
      "pitch": "A4",
      "midi": 69,
      "start": 106.2,
      "duration": 0.299,
      "velocity": 0.69
    },
    {
      "id": "n-00544",
      "pitch": "A5",
      "midi": 81,
      "start": 106.5,
      "duration": 0.284,
      "velocity": 0.69
    },
    {
      "id": "n-00545",
      "pitch": "G#3",
      "midi": 56,
      "start": 106.8,
      "duration": 1.199,
      "velocity": 0.69
    },
    {
      "id": "n-00546",
      "pitch": "B3",
      "midi": 59,
      "start": 106.8,
      "duration": 1.199,
      "velocity": 0.69
    },
    {
      "id": "n-00547",
      "pitch": "F4",
      "midi": 65,
      "start": 106.8,
      "duration": 0.599,
      "velocity": 0.69
    },
    {
      "id": "n-00548",
      "pitch": "B5",
      "midi": 83,
      "start": 106.8,
      "duration": 0.299,
      "velocity": 0.69
    },
    {
      "id": "n-00549",
      "pitch": "F5",
      "midi": 77,
      "start": 107.1,
      "duration": 0.299,
      "velocity": 0.66
    },
    {
      "id": "n-00550",
      "pitch": "E4",
      "midi": 64,
      "start": 107.4,
      "duration": 0.299,
      "velocity": 0.62
    },
    {
      "id": "n-00551",
      "pitch": "A#4",
      "midi": 70,
      "start": 107.4,
      "duration": 0.299,
      "velocity": 0.62
    },
    {
      "id": "n-00552",
      "pitch": "D4",
      "midi": 62,
      "start": 107.7,
      "duration": 0.299,
      "velocity": 0.58
    },
    {
      "id": "n-00553",
      "pitch": "F5",
      "midi": 77,
      "start": 107.7,
      "duration": 0.284,
      "velocity": 0.58
    },
    {
      "id": "n-00554",
      "pitch": "G3",
      "midi": 55,
      "start": 108,
      "duration": 3.599,
      "velocity": 0.54
    },
    {
      "id": "n-00555",
      "pitch": "A#3",
      "midi": 58,
      "start": 108,
      "duration": 3.599,
      "velocity": 0.54
    },
    {
      "id": "n-00556",
      "pitch": "C4",
      "midi": 60,
      "start": 108,
      "duration": 2.399,
      "velocity": 0.54
    },
    {
      "id": "n-00557",
      "pitch": "C5",
      "midi": 72,
      "start": 108,
      "duration": 3.599,
      "velocity": 0.54
    },
    {
      "id": "n-00558",
      "pitch": "C6",
      "midi": 84,
      "start": 108,
      "duration": 0.299,
      "velocity": 0.54
    },
    {
      "id": "n-00559",
      "pitch": "A#5",
      "midi": 82,
      "start": 108.3,
      "duration": 0.299,
      "velocity": 0.5
    },
    {
      "id": "n-00560",
      "pitch": "F5",
      "midi": 77,
      "start": 108.6,
      "duration": 0.299,
      "velocity": 0.46
    },
    {
      "id": "n-00561",
      "pitch": "A#5",
      "midi": 82,
      "start": 108.9,
      "duration": 0.284,
      "velocity": 0.43
    },
    {
      "id": "n-00562",
      "pitch": "C6",
      "midi": 84,
      "start": 109.2,
      "duration": 0.299,
      "velocity": 0.39
    },
    {
      "id": "n-00563",
      "pitch": "A#5",
      "midi": 82,
      "start": 109.5,
      "duration": 0.299,
      "velocity": 0.39
    },
    {
      "id": "n-00564",
      "pitch": "F5",
      "midi": 77,
      "start": 109.8,
      "duration": 0.299,
      "velocity": 0.39
    },
    {
      "id": "n-00565",
      "pitch": "A#5",
      "midi": 82,
      "start": 110.1,
      "duration": 0.284,
      "velocity": 0.39
    },
    {
      "id": "n-00566",
      "pitch": "D4",
      "midi": 62,
      "start": 110.4,
      "duration": 0.599,
      "velocity": 0.39
    },
    {
      "id": "n-00567",
      "pitch": "C6",
      "midi": 84,
      "start": 110.4,
      "duration": 0.299,
      "velocity": 0.39
    },
    {
      "id": "n-00568",
      "pitch": "A#5",
      "midi": 82,
      "start": 110.7,
      "duration": 0.299,
      "velocity": 0.39
    },
    {
      "id": "n-00569",
      "pitch": "E4",
      "midi": 64,
      "start": 111,
      "duration": 0.569,
      "velocity": 0.39
    },
    {
      "id": "n-00570",
      "pitch": "E5",
      "midi": 76,
      "start": 111,
      "duration": 0.299,
      "velocity": 0.39
    },
    {
      "id": "n-00571",
      "pitch": "A#5",
      "midi": 82,
      "start": 111.3,
      "duration": 0.284,
      "velocity": 0.39
    },
    {
      "id": "n-00572",
      "pitch": "F3",
      "midi": 53,
      "start": 111.6,
      "duration": 1.418,
      "velocity": 0.39
    },
    {
      "id": "n-00573",
      "pitch": "A3",
      "midi": 57,
      "start": 111.6,
      "duration": 1.418,
      "velocity": 0.39
    },
    {
      "id": "n-00574",
      "pitch": "E4",
      "midi": 64,
      "start": 111.6,
      "duration": 0.658,
      "velocity": 0.39
    },
    {
      "id": "n-00575",
      "pitch": "C6",
      "midi": 84,
      "start": 111.6,
      "duration": 0.299,
      "velocity": 0.39
    },
    {
      "id": "n-00576",
      "pitch": "A5",
      "midi": 81,
      "start": 111.9,
      "duration": 0.398,
      "velocity": 0.39
    },
    {
      "id": "n-00577",
      "pitch": "D4",
      "midi": 62,
      "start": 112.3,
      "duration": 0.378,
      "velocity": 0.39
    },
    {
      "id": "n-00578",
      "pitch": "C5",
      "midi": 72,
      "start": 112.3,
      "duration": 0.398,
      "velocity": 0.39
    },
    {
      "id": "n-00579",
      "pitch": "C4",
      "midi": 60,
      "start": 112.7,
      "duration": 0.378,
      "velocity": 0.39
    },
    {
      "id": "n-00580",
      "pitch": "G5",
      "midi": 79,
      "start": 112.7,
      "duration": 0.378,
      "velocity": 0.39
    },
    {
      "id": "n-00581",
      "pitch": "G2",
      "midi": 43,
      "start": 113.1,
      "duration": 3.118,
      "velocity": 0.39
    },
    {
      "id": "n-00582",
      "pitch": "D6",
      "midi": 86,
      "start": 113.1,
      "duration": 0.398,
      "velocity": 0.39
    },
    {
      "id": "n-00583",
      "pitch": "D3",
      "midi": 50,
      "start": 113.151,
      "duration": 3.065,
      "velocity": 0.39
    },
    {
      "id": "n-00584",
      "pitch": "A#3",
      "midi": 58,
      "start": 113.205,
      "duration": 3.012,
      "velocity": 0.39
    },
    {
      "id": "n-00585",
      "pitch": "A5",
      "midi": 81,
      "start": 113.5,
      "duration": 0.398,
      "velocity": 0.39
    },
    {
      "id": "n-00586",
      "pitch": "D5",
      "midi": 74,
      "start": 113.9,
      "duration": 0.398,
      "velocity": 0.39
    },
    {
      "id": "n-00587",
      "pitch": "A#5",
      "midi": 82,
      "start": 114.3,
      "duration": 0.398,
      "velocity": 0.39
    },
    {
      "id": "n-00588",
      "pitch": "D5",
      "midi": 74,
      "start": 114.7,
      "duration": 0.398,
      "velocity": 0.39
    },
    {
      "id": "n-00589",
      "pitch": "A4",
      "midi": 69,
      "start": 115.1,
      "duration": 0.398,
      "velocity": 0.39
    },
    {
      "id": "n-00590",
      "pitch": "D4",
      "midi": 62,
      "start": 115.5,
      "duration": 0.398,
      "velocity": 0.39
    },
    {
      "id": "n-00591",
      "pitch": "A#4",
      "midi": 70,
      "start": 115.9,
      "duration": 0.398,
      "velocity": 0.39
    },
    {
      "id": "n-00592",
      "pitch": "C2",
      "midi": 36,
      "start": 116.3,
      "duration": 0.378,
      "velocity": 0.39
    },
    {
      "id": "n-00593",
      "pitch": "A3",
      "midi": 57,
      "start": 116.3,
      "duration": 0.798,
      "velocity": 0.39
    },
    {
      "id": "n-00594",
      "pitch": "C3",
      "midi": 48,
      "start": 116.7,
      "duration": 0.378,
      "velocity": 0.39
    },
    {
      "id": "n-00595",
      "pitch": "G3",
      "midi": 55,
      "start": 117.1,
      "duration": 0.798,
      "velocity": 0.39
    },
    {
      "id": "n-00596",
      "pitch": "A#3",
      "midi": 58,
      "start": 117.1,
      "duration": 0.378,
      "velocity": 0.39
    },
    {
      "id": "n-00597",
      "pitch": "E4",
      "midi": 64,
      "start": 117.5,
      "duration": 0.378,
      "velocity": 0.39
    },
    {
      "id": "n-00598",
      "pitch": "F1",
      "midi": 29,
      "start": 117.9,
      "duration": 0.398,
      "velocity": 0.39
    },
    {
      "id": "n-00599",
      "pitch": "F3",
      "midi": 53,
      "start": 117.9,
      "duration": 1.518,
      "velocity": 0.39
    },
    {
      "id": "n-00600",
      "pitch": "F2",
      "midi": 41,
      "start": 118.3,
      "duration": 0.398,
      "velocity": 0.43
    },
    {
      "id": "n-00601",
      "pitch": "C3",
      "midi": 48,
      "start": 118.7,
      "duration": 0.398,
      "velocity": 0.47
    },
    {
      "id": "n-00602",
      "pitch": "A3",
      "midi": 57,
      "start": 119.1,
      "duration": 1.138,
      "velocity": 0.52
    },
    {
      "id": "n-00603",
      "pitch": "F4",
      "midi": 65,
      "start": 119.5,
      "duration": 3.038,
      "velocity": 0.57
    },
    {
      "id": "n-00604",
      "pitch": "A4",
      "midi": 69,
      "start": 122.7,
      "duration": 1.518,
      "velocity": 0.57
    },
    {
      "id": "n-00605",
      "pitch": "D4",
      "midi": 62,
      "start": 124.3,
      "duration": 0.57,
      "velocity": 0.57
    },
    {
      "id": "n-00606",
      "pitch": "A4",
      "midi": 69,
      "start": 124.3,
      "duration": 0.57,
      "velocity": 0.57
    },
    {
      "id": "n-00607",
      "pitch": "D5",
      "midi": 74,
      "start": 124.3,
      "duration": 0.57,
      "velocity": 0.57
    },
    {
      "id": "n-00608",
      "pitch": "F5",
      "midi": 77,
      "start": 124.3,
      "duration": 0.57,
      "velocity": 0.57
    },
    {
      "id": "n-00609",
      "pitch": "E4",
      "midi": 64,
      "start": 124.871,
      "duration": 0.57,
      "velocity": 0.57
    },
    {
      "id": "n-00610",
      "pitch": "G#4",
      "midi": 68,
      "start": 124.871,
      "duration": 0.57,
      "velocity": 0.57
    },
    {
      "id": "n-00611",
      "pitch": "B4",
      "midi": 71,
      "start": 124.871,
      "duration": 0.57,
      "velocity": 0.57
    },
    {
      "id": "n-00612",
      "pitch": "E5",
      "midi": 76,
      "start": 124.871,
      "duration": 0.57,
      "velocity": 0.57
    },
    {
      "id": "n-00613",
      "pitch": "E4",
      "midi": 64,
      "start": 125.443,
      "duration": 0.57,
      "velocity": 0.57
    },
    {
      "id": "n-00614",
      "pitch": "G#4",
      "midi": 68,
      "start": 125.443,
      "duration": 0.57,
      "velocity": 0.57
    },
    {
      "id": "n-00615",
      "pitch": "B4",
      "midi": 71,
      "start": 125.443,
      "duration": 0.57,
      "velocity": 0.57
    },
    {
      "id": "n-00616",
      "pitch": "E5",
      "midi": 76,
      "start": 125.443,
      "duration": 0.57,
      "velocity": 0.57
    },
    {
      "id": "n-00617",
      "pitch": "D4",
      "midi": 62,
      "start": 126.014,
      "duration": 0.57,
      "velocity": 0.57
    },
    {
      "id": "n-00618",
      "pitch": "A4",
      "midi": 69,
      "start": 126.014,
      "duration": 0.57,
      "velocity": 0.57
    },
    {
      "id": "n-00619",
      "pitch": "D5",
      "midi": 74,
      "start": 126.014,
      "duration": 0.57,
      "velocity": 0.57
    },
    {
      "id": "n-00620",
      "pitch": "F5",
      "midi": 77,
      "start": 126.014,
      "duration": 0.57,
      "velocity": 0.57
    },
    {
      "id": "n-00621",
      "pitch": "D4",
      "midi": 62,
      "start": 126.586,
      "duration": 0.57,
      "velocity": 0.57
    },
    {
      "id": "n-00622",
      "pitch": "A4",
      "midi": 69,
      "start": 126.586,
      "duration": 0.57,
      "velocity": 0.57
    },
    {
      "id": "n-00623",
      "pitch": "D5",
      "midi": 74,
      "start": 126.586,
      "duration": 0.57,
      "velocity": 0.57
    },
    {
      "id": "n-00624",
      "pitch": "F5",
      "midi": 77,
      "start": 126.586,
      "duration": 0.57,
      "velocity": 0.57
    },
    {
      "id": "n-00625",
      "pitch": "E4",
      "midi": 64,
      "start": 127.157,
      "duration": 0.57,
      "velocity": 0.57
    },
    {
      "id": "n-00626",
      "pitch": "G#4",
      "midi": 68,
      "start": 127.157,
      "duration": 0.57,
      "velocity": 0.57
    },
    {
      "id": "n-00627",
      "pitch": "B4",
      "midi": 71,
      "start": 127.157,
      "duration": 0.57,
      "velocity": 0.57
    },
    {
      "id": "n-00628",
      "pitch": "E5",
      "midi": 76,
      "start": 127.157,
      "duration": 0.57,
      "velocity": 0.57
    },
    {
      "id": "n-00629",
      "pitch": "E4",
      "midi": 64,
      "start": 127.728,
      "duration": 1.085,
      "velocity": 0.57
    },
    {
      "id": "n-00630",
      "pitch": "G#4",
      "midi": 68,
      "start": 127.728,
      "duration": 1.085,
      "velocity": 0.57
    },
    {
      "id": "n-00631",
      "pitch": "B4",
      "midi": 71,
      "start": 127.728,
      "duration": 1.085,
      "velocity": 0.57
    },
    {
      "id": "n-00632",
      "pitch": "E5",
      "midi": 76,
      "start": 127.728,
      "duration": 1.085,
      "velocity": 0.57
    },
    {
      "id": "n-00633",
      "pitch": "D3",
      "midi": 50,
      "start": 128.871,
      "duration": 0.57,
      "velocity": 0.6
    },
    {
      "id": "n-00634",
      "pitch": "A3",
      "midi": 57,
      "start": 128.871,
      "duration": 0.57,
      "velocity": 0.6
    },
    {
      "id": "n-00635",
      "pitch": "D4",
      "midi": 62,
      "start": 128.871,
      "duration": 0.57,
      "velocity": 0.6
    },
    {
      "id": "n-00636",
      "pitch": "F4",
      "midi": 65,
      "start": 128.871,
      "duration": 0.57,
      "velocity": 0.6
    },
    {
      "id": "n-00637",
      "pitch": "E3",
      "midi": 52,
      "start": 129.443,
      "duration": 0.57,
      "velocity": 0.6
    },
    {
      "id": "n-00638",
      "pitch": "G#3",
      "midi": 56,
      "start": 129.443,
      "duration": 0.57,
      "velocity": 0.6
    },
    {
      "id": "n-00639",
      "pitch": "B3",
      "midi": 59,
      "start": 129.443,
      "duration": 0.57,
      "velocity": 0.6
    },
    {
      "id": "n-00640",
      "pitch": "E4",
      "midi": 64,
      "start": 129.443,
      "duration": 0.57,
      "velocity": 0.6
    },
    {
      "id": "n-00641",
      "pitch": "E3",
      "midi": 52,
      "start": 130.014,
      "duration": 0.57,
      "velocity": 0.6
    },
    {
      "id": "n-00642",
      "pitch": "G#3",
      "midi": 56,
      "start": 130.014,
      "duration": 0.57,
      "velocity": 0.6
    },
    {
      "id": "n-00643",
      "pitch": "B3",
      "midi": 59,
      "start": 130.014,
      "duration": 0.57,
      "velocity": 0.6
    },
    {
      "id": "n-00644",
      "pitch": "E4",
      "midi": 64,
      "start": 130.014,
      "duration": 0.57,
      "velocity": 0.6
    },
    {
      "id": "n-00645",
      "pitch": "D3",
      "midi": 50,
      "start": 130.586,
      "duration": 0.57,
      "velocity": 0.6
    },
    {
      "id": "n-00646",
      "pitch": "A3",
      "midi": 57,
      "start": 130.586,
      "duration": 0.57,
      "velocity": 0.6
    },
    {
      "id": "n-00647",
      "pitch": "D4",
      "midi": 62,
      "start": 130.586,
      "duration": 0.57,
      "velocity": 0.6
    },
    {
      "id": "n-00648",
      "pitch": "F4",
      "midi": 65,
      "start": 130.586,
      "duration": 0.189,
      "velocity": 0.6
    },
    {
      "id": "n-00649",
      "pitch": "A4",
      "midi": 69,
      "start": 130.776,
      "duration": 0.189,
      "velocity": 0.6
    },
    {
      "id": "n-00650",
      "pitch": "F4",
      "midi": 65,
      "start": 130.966,
      "duration": 0.189,
      "velocity": 0.6
    },
    {
      "id": "n-00651",
      "pitch": "G2",
      "midi": 43,
      "start": 131.157,
      "duration": 0.57,
      "velocity": 0.6
    },
    {
      "id": "n-00652",
      "pitch": "F3",
      "midi": 53,
      "start": 131.157,
      "duration": 0.57,
      "velocity": 0.6
    },
    {
      "id": "n-00653",
      "pitch": "B3",
      "midi": 59,
      "start": 131.157,
      "duration": 0.57,
      "velocity": 0.6
    },
    {
      "id": "n-00654",
      "pitch": "E4",
      "midi": 64,
      "start": 131.157,
      "duration": 0.57,
      "velocity": 0.6
    },
    {
      "id": "n-00655",
      "pitch": "C2",
      "midi": 36,
      "start": 131.728,
      "duration": 0.57,
      "velocity": 0.6
    },
    {
      "id": "n-00656",
      "pitch": "E3",
      "midi": 52,
      "start": 131.728,
      "duration": 0.57,
      "velocity": 0.6
    },
    {
      "id": "n-00657",
      "pitch": "A#3",
      "midi": 58,
      "start": 131.728,
      "duration": 0.57,
      "velocity": 0.6
    },
    {
      "id": "n-00658",
      "pitch": "D4",
      "midi": 62,
      "start": 131.728,
      "duration": 0.57,
      "velocity": 0.6
    },
    {
      "id": "n-00659",
      "pitch": "F2",
      "midi": 41,
      "start": 132.3,
      "duration": 0.57,
      "velocity": 0.6
    },
    {
      "id": "n-00660",
      "pitch": "F3",
      "midi": 53,
      "start": 132.3,
      "duration": 1.142,
      "velocity": 0.6
    },
    {
      "id": "n-00661",
      "pitch": "A3",
      "midi": 57,
      "start": 132.3,
      "duration": 1.142,
      "velocity": 0.6
    },
    {
      "id": "n-00662",
      "pitch": "C4",
      "midi": 60,
      "start": 132.3,
      "duration": 1.142,
      "velocity": 0.6
    },
    {
      "id": "n-00663",
      "pitch": "F1",
      "midi": 29,
      "start": 132.871,
      "duration": 0.542,
      "velocity": 0.6
    },
    {
      "id": "n-00664",
      "pitch": "D4",
      "midi": 62,
      "start": 133.443,
      "duration": 0.57,
      "velocity": 0.57
    },
    {
      "id": "n-00665",
      "pitch": "A4",
      "midi": 69,
      "start": 133.443,
      "duration": 0.57,
      "velocity": 0.57
    },
    {
      "id": "n-00666",
      "pitch": "D5",
      "midi": 74,
      "start": 133.443,
      "duration": 0.57,
      "velocity": 0.57
    },
    {
      "id": "n-00667",
      "pitch": "F5",
      "midi": 77,
      "start": 133.443,
      "duration": 0.57,
      "velocity": 0.57
    },
    {
      "id": "n-00668",
      "pitch": "E4",
      "midi": 64,
      "start": 134.014,
      "duration": 0.57,
      "velocity": 0.57
    },
    {
      "id": "n-00669",
      "pitch": "G#4",
      "midi": 68,
      "start": 134.014,
      "duration": 0.57,
      "velocity": 0.57
    },
    {
      "id": "n-00670",
      "pitch": "B4",
      "midi": 71,
      "start": 134.014,
      "duration": 0.57,
      "velocity": 0.57
    },
    {
      "id": "n-00671",
      "pitch": "E5",
      "midi": 76,
      "start": 134.014,
      "duration": 0.57,
      "velocity": 0.57
    },
    {
      "id": "n-00672",
      "pitch": "E4",
      "midi": 64,
      "start": 134.586,
      "duration": 0.57,
      "velocity": 0.57
    },
    {
      "id": "n-00673",
      "pitch": "G#4",
      "midi": 68,
      "start": 134.586,
      "duration": 0.57,
      "velocity": 0.57
    },
    {
      "id": "n-00674",
      "pitch": "B4",
      "midi": 71,
      "start": 134.586,
      "duration": 0.57,
      "velocity": 0.57
    },
    {
      "id": "n-00675",
      "pitch": "E5",
      "midi": 76,
      "start": 134.586,
      "duration": 0.57,
      "velocity": 0.57
    },
    {
      "id": "n-00676",
      "pitch": "D4",
      "midi": 62,
      "start": 135.157,
      "duration": 0.57,
      "velocity": 0.57
    },
    {
      "id": "n-00677",
      "pitch": "A4",
      "midi": 69,
      "start": 135.157,
      "duration": 0.57,
      "velocity": 0.57
    },
    {
      "id": "n-00678",
      "pitch": "D5",
      "midi": 74,
      "start": 135.157,
      "duration": 0.57,
      "velocity": 0.57
    },
    {
      "id": "n-00679",
      "pitch": "F5",
      "midi": 77,
      "start": 135.157,
      "duration": 0.189,
      "velocity": 0.57
    },
    {
      "id": "n-00680",
      "pitch": "G5",
      "midi": 79,
      "start": 135.347,
      "duration": 0.189,
      "velocity": 0.57
    },
    {
      "id": "n-00681",
      "pitch": "A5",
      "midi": 81,
      "start": 135.538,
      "duration": 0.189,
      "velocity": 0.57
    },
    {
      "id": "n-00682",
      "pitch": "D4",
      "midi": 62,
      "start": 135.728,
      "duration": 0.57,
      "velocity": 0.57
    },
    {
      "id": "n-00683",
      "pitch": "A4",
      "midi": 69,
      "start": 135.728,
      "duration": 0.57,
      "velocity": 0.57
    },
    {
      "id": "n-00684",
      "pitch": "D5",
      "midi": 74,
      "start": 135.728,
      "duration": 0.57,
      "velocity": 0.57
    },
    {
      "id": "n-00685",
      "pitch": "F5",
      "midi": 77,
      "start": 135.728,
      "duration": 0.189,
      "velocity": 0.57
    },
    {
      "id": "n-00686",
      "pitch": "A5",
      "midi": 81,
      "start": 135.919,
      "duration": 0.189,
      "velocity": 0.57
    },
    {
      "id": "n-00687",
      "pitch": "F5",
      "midi": 77,
      "start": 136.109,
      "duration": 0.189,
      "velocity": 0.57
    },
    {
      "id": "n-00688",
      "pitch": "E4",
      "midi": 64,
      "start": 136.3,
      "duration": 0.57,
      "velocity": 0.57
    },
    {
      "id": "n-00689",
      "pitch": "G#4",
      "midi": 68,
      "start": 136.3,
      "duration": 0.57,
      "velocity": 0.57
    },
    {
      "id": "n-00690",
      "pitch": "B4",
      "midi": 71,
      "start": 136.3,
      "duration": 0.57,
      "velocity": 0.57
    },
    {
      "id": "n-00691",
      "pitch": "E5",
      "midi": 76,
      "start": 136.3,
      "duration": 0.57,
      "velocity": 0.57
    },
    {
      "id": "n-00692",
      "pitch": "E4",
      "midi": 64,
      "start": 136.871,
      "duration": 1.085,
      "velocity": 0.57
    },
    {
      "id": "n-00693",
      "pitch": "G#4",
      "midi": 68,
      "start": 136.871,
      "duration": 1.085,
      "velocity": 0.57
    },
    {
      "id": "n-00694",
      "pitch": "B4",
      "midi": 71,
      "start": 136.871,
      "duration": 1.085,
      "velocity": 0.57
    },
    {
      "id": "n-00695",
      "pitch": "E5",
      "midi": 76,
      "start": 136.871,
      "duration": 1.085,
      "velocity": 0.57
    },
    {
      "id": "n-00696",
      "pitch": "B3",
      "midi": 59,
      "start": 137.443,
      "duration": 1.085,
      "velocity": 0.57
    },
    {
      "id": "n-00697",
      "pitch": "B2",
      "midi": 47,
      "start": 138.014,
      "duration": 3.799,
      "velocity": 0.6
    },
    {
      "id": "n-00698",
      "pitch": "G#3",
      "midi": 56,
      "start": 138.014,
      "duration": 0.542,
      "velocity": 0.6
    },
    {
      "id": "n-00699",
      "pitch": "E4",
      "midi": 64,
      "start": 138.014,
      "duration": 0.542,
      "velocity": 0.6
    },
    {
      "id": "n-00700",
      "pitch": "F#3",
      "midi": 54,
      "start": 138.586,
      "duration": 0.542,
      "velocity": 0.6
    },
    {
      "id": "n-00701",
      "pitch": "A3",
      "midi": 57,
      "start": 138.586,
      "duration": 0.542,
      "velocity": 0.6
    },
    {
      "id": "n-00702",
      "pitch": "C#4",
      "midi": 61,
      "start": 138.586,
      "duration": 0.542,
      "velocity": 0.6
    },
    {
      "id": "n-00703",
      "pitch": "G3",
      "midi": 55,
      "start": 139.157,
      "duration": 0.542,
      "velocity": 0.6
    },
    {
      "id": "n-00704",
      "pitch": "A#3",
      "midi": 58,
      "start": 139.157,
      "duration": 0.542,
      "velocity": 0.6
    },
    {
      "id": "n-00705",
      "pitch": "C#4",
      "midi": 61,
      "start": 139.157,
      "duration": 0.542,
      "velocity": 0.6
    },
    {
      "id": "n-00706",
      "pitch": "G#3",
      "midi": 56,
      "start": 139.728,
      "duration": 0.542,
      "velocity": 0.6
    },
    {
      "id": "n-00707",
      "pitch": "B3",
      "midi": 59,
      "start": 139.728,
      "duration": 0.542,
      "velocity": 0.6
    },
    {
      "id": "n-00708",
      "pitch": "E4",
      "midi": 64,
      "start": 139.728,
      "duration": 0.542,
      "velocity": 0.6
    },
    {
      "id": "n-00709",
      "pitch": "A3",
      "midi": 57,
      "start": 140.3,
      "duration": 0.542,
      "velocity": 0.6
    },
    {
      "id": "n-00710",
      "pitch": "C4",
      "midi": 60,
      "start": 140.3,
      "duration": 0.542,
      "velocity": 0.6
    },
    {
      "id": "n-00711",
      "pitch": "F#4",
      "midi": 66,
      "start": 140.3,
      "duration": 0.542,
      "velocity": 0.6
    },
    {
      "id": "n-00712",
      "pitch": "B3",
      "midi": 59,
      "start": 140.871,
      "duration": 0.542,
      "velocity": 0.6
    },
    {
      "id": "n-00713",
      "pitch": "D#4",
      "midi": 63,
      "start": 140.871,
      "duration": 0.542,
      "velocity": 0.6
    },
    {
      "id": "n-00714",
      "pitch": "G#4",
      "midi": 68,
      "start": 140.871,
      "duration": 0.542,
      "velocity": 0.6
    },
    {
      "id": "n-00715",
      "pitch": "G#3",
      "midi": 56,
      "start": 141.443,
      "duration": 1.085,
      "velocity": 0.6
    },
    {
      "id": "n-00716",
      "pitch": "B3",
      "midi": 59,
      "start": 141.443,
      "duration": 1.085,
      "velocity": 0.6
    },
    {
      "id": "n-00717",
      "pitch": "E4",
      "midi": 64,
      "start": 141.443,
      "duration": 1.085,
      "velocity": 0.6
    },
    {
      "id": "n-00718",
      "pitch": "E2",
      "midi": 40,
      "start": 142.014,
      "duration": 0.542,
      "velocity": 0.6
    },
    {
      "id": "n-00719",
      "pitch": "B1",
      "midi": 35,
      "start": 142.586,
      "duration": 0.57,
      "velocity": 0.5
    },
    {
      "id": "n-00720",
      "pitch": "A4",
      "midi": 69,
      "start": 142.586,
      "duration": 0.57,
      "velocity": 0.5
    },
    {
      "id": "n-00721",
      "pitch": "C#5",
      "midi": 73,
      "start": 142.586,
      "duration": 0.57,
      "velocity": 0.5
    },
    {
      "id": "n-00722",
      "pitch": "F#5",
      "midi": 78,
      "start": 142.586,
      "duration": 0.57,
      "velocity": 0.5
    },
    {
      "id": "n-00723",
      "pitch": "B2",
      "midi": 47,
      "start": 143.157,
      "duration": 1.142,
      "velocity": 0.5
    },
    {
      "id": "n-00724",
      "pitch": "B4",
      "midi": 71,
      "start": 143.157,
      "duration": 0.57,
      "velocity": 0.5
    },
    {
      "id": "n-00725",
      "pitch": "D#5",
      "midi": 75,
      "start": 143.157,
      "duration": 0.57,
      "velocity": 0.5
    },
    {
      "id": "n-00726",
      "pitch": "G#5",
      "midi": 80,
      "start": 143.157,
      "duration": 0.57,
      "velocity": 0.5
    },
    {
      "id": "n-00727",
      "pitch": "G#4",
      "midi": 68,
      "start": 143.728,
      "duration": 0.57,
      "velocity": 0.5
    },
    {
      "id": "n-00728",
      "pitch": "B4",
      "midi": 71,
      "start": 143.728,
      "duration": 0.57,
      "velocity": 0.5
    },
    {
      "id": "n-00729",
      "pitch": "E5",
      "midi": 76,
      "start": 143.728,
      "duration": 0.57,
      "velocity": 0.5
    },
    {
      "id": "n-00730",
      "pitch": "B3",
      "midi": 59,
      "start": 144.3,
      "duration": 1.142,
      "velocity": 0.5
    },
    {
      "id": "n-00731",
      "pitch": "E5",
      "midi": 76,
      "start": 144.3,
      "duration": 0.57,
      "velocity": 0.5
    },
    {
      "id": "n-00732",
      "pitch": "G#5",
      "midi": 80,
      "start": 144.3,
      "duration": 0.57,
      "velocity": 0.5
    },
    {
      "id": "n-00733",
      "pitch": "C#6",
      "midi": 85,
      "start": 144.3,
      "duration": 0.57,
      "velocity": 0.5
    },
    {
      "id": "n-00734",
      "pitch": "A4",
      "midi": 69,
      "start": 144.871,
      "duration": 0.57,
      "velocity": 0.5
    },
    {
      "id": "n-00735",
      "pitch": "C#5",
      "midi": 73,
      "start": 144.871,
      "duration": 0.57,
      "velocity": 0.5
    },
    {
      "id": "n-00736",
      "pitch": "F#5",
      "midi": 78,
      "start": 144.871,
      "duration": 0.57,
      "velocity": 0.5
    },
    {
      "id": "n-00737",
      "pitch": "B2",
      "midi": 47,
      "start": 145.443,
      "duration": 1.142,
      "velocity": 0.5
    },
    {
      "id": "n-00738",
      "pitch": "B4",
      "midi": 71,
      "start": 145.443,
      "duration": 0.189,
      "velocity": 0.5
    },
    {
      "id": "n-00739",
      "pitch": "D#5",
      "midi": 75,
      "start": 145.443,
      "duration": 0.189,
      "velocity": 0.5
    },
    {
      "id": "n-00740",
      "pitch": "G#5",
      "midi": 80,
      "start": 145.443,
      "duration": 0.189,
      "velocity": 0.5
    },
    {
      "id": "n-00741",
      "pitch": "F#5",
      "midi": 78,
      "start": 145.633,
      "duration": 0.189,
      "velocity": 0.5
    },
    {
      "id": "n-00742",
      "pitch": "G#5",
      "midi": 80,
      "start": 145.824,
      "duration": 0.189,
      "velocity": 0.5
    },
    {
      "id": "n-00743",
      "pitch": "G#4",
      "midi": 68,
      "start": 146.014,
      "duration": 0.57,
      "velocity": 0.5
    },
    {
      "id": "n-00744",
      "pitch": "B4",
      "midi": 71,
      "start": 146.014,
      "duration": 0.57,
      "velocity": 0.5
    },
    {
      "id": "n-00745",
      "pitch": "E5",
      "midi": 76,
      "start": 146.014,
      "duration": 0.57,
      "velocity": 0.5
    },
    {
      "id": "n-00746",
      "pitch": "B3",
      "midi": 59,
      "start": 146.586,
      "duration": 1.142,
      "velocity": 0.5
    },
    {
      "id": "n-00747",
      "pitch": "E4",
      "midi": 64,
      "start": 146.586,
      "duration": 0.57,
      "velocity": 0.5
    },
    {
      "id": "n-00748",
      "pitch": "G#4",
      "midi": 68,
      "start": 146.586,
      "duration": 0.57,
      "velocity": 0.5
    },
    {
      "id": "n-00749",
      "pitch": "B4",
      "midi": 71,
      "start": 146.586,
      "duration": 0.57,
      "velocity": 0.5
    },
    {
      "id": "n-00750",
      "pitch": "D#4",
      "midi": 63,
      "start": 147.157,
      "duration": 0.57,
      "velocity": 0.5
    },
    {
      "id": "n-00751",
      "pitch": "E4",
      "midi": 64,
      "start": 147.157,
      "duration": 0.57,
      "velocity": 0.5
    },
    {
      "id": "n-00752",
      "pitch": "G#4",
      "midi": 68,
      "start": 147.157,
      "duration": 0.57,
      "velocity": 0.5
    },
    {
      "id": "n-00753",
      "pitch": "B2",
      "midi": 47,
      "start": 147.728,
      "duration": 1.142,
      "velocity": 0.5
    },
    {
      "id": "n-00754",
      "pitch": "C#4",
      "midi": 61,
      "start": 147.728,
      "duration": 0.57,
      "velocity": 0.5
    },
    {
      "id": "n-00755",
      "pitch": "E4",
      "midi": 64,
      "start": 147.728,
      "duration": 0.57,
      "velocity": 0.5
    },
    {
      "id": "n-00756",
      "pitch": "B4",
      "midi": 71,
      "start": 147.728,
      "duration": 0.57,
      "velocity": 0.5
    },
    {
      "id": "n-00757",
      "pitch": "B3",
      "midi": 59,
      "start": 148.3,
      "duration": 0.57,
      "velocity": 0.5
    },
    {
      "id": "n-00758",
      "pitch": "E4",
      "midi": 64,
      "start": 148.3,
      "duration": 0.57,
      "velocity": 0.5
    },
    {
      "id": "n-00759",
      "pitch": "G#4",
      "midi": 68,
      "start": 148.3,
      "duration": 0.57,
      "velocity": 0.5
    },
    {
      "id": "n-00760",
      "pitch": "G#3",
      "midi": 56,
      "start": 148.871,
      "duration": 0.57,
      "velocity": 0.5
    },
    {
      "id": "n-00761",
      "pitch": "B3",
      "midi": 59,
      "start": 148.871,
      "duration": 1.142,
      "velocity": 0.5
    },
    {
      "id": "n-00762",
      "pitch": "C#4",
      "midi": 61,
      "start": 148.871,
      "duration": 0.57,
      "velocity": 0.5
    },
    {
      "id": "n-00763",
      "pitch": "E4",
      "midi": 64,
      "start": 148.871,
      "duration": 0.57,
      "velocity": 0.5
    },
    {
      "id": "n-00764",
      "pitch": "A3",
      "midi": 57,
      "start": 149.443,
      "duration": 1.142,
      "velocity": 0.5
    },
    {
      "id": "n-00765",
      "pitch": "D#4",
      "midi": 63,
      "start": 149.443,
      "duration": 1.142,
      "velocity": 0.5
    },
    {
      "id": "n-00766",
      "pitch": "F#4",
      "midi": 66,
      "start": 149.443,
      "duration": 1.142,
      "velocity": 0.5
    },
    {
      "id": "n-00767",
      "pitch": "B2",
      "midi": 47,
      "start": 150.014,
      "duration": 1.142,
      "velocity": 0.5
    },
    {
      "id": "n-00768",
      "pitch": "D#4",
      "midi": 63,
      "start": 150.586,
      "duration": 1.085,
      "velocity": 0.5
    },
    {
      "id": "n-00769",
      "pitch": "A4",
      "midi": 69,
      "start": 150.586,
      "duration": 1.085,
      "velocity": 0.5
    },
    {
      "id": "n-00770",
      "pitch": "C#5",
      "midi": 73,
      "start": 150.586,
      "duration": 1.085,
      "velocity": 0.5
    },
    {
      "id": "n-00771",
      "pitch": "F#3",
      "midi": 54,
      "start": 151.157,
      "duration": 0.542,
      "velocity": 0.5
    },
    {
      "id": "n-00772",
      "pitch": "B3",
      "midi": 59,
      "start": 151.728,
      "duration": 2.17,
      "velocity": 0.5
    },
    {
      "id": "n-00773",
      "pitch": "A4",
      "midi": 69,
      "start": 151.728,
      "duration": 0.542,
      "velocity": 0.5
    },
    {
      "id": "n-00774",
      "pitch": "C#5",
      "midi": 73,
      "start": 151.728,
      "duration": 0.57,
      "velocity": 0.5
    },
    {
      "id": "n-00775",
      "pitch": "F#5",
      "midi": 78,
      "start": 151.728,
      "duration": 0.57,
      "velocity": 0.5
    },
    {
      "id": "n-00776",
      "pitch": "B4",
      "midi": 71,
      "start": 152.3,
      "duration": 0.542,
      "velocity": 0.5
    },
    {
      "id": "n-00777",
      "pitch": "D#5",
      "midi": 75,
      "start": 152.3,
      "duration": 0.57,
      "velocity": 0.5
    },
    {
      "id": "n-00778",
      "pitch": "G#5",
      "midi": 80,
      "start": 152.3,
      "duration": 0.57,
      "velocity": 0.5
    },
    {
      "id": "n-00779",
      "pitch": "G#4",
      "midi": 68,
      "start": 152.871,
      "duration": 0.542,
      "velocity": 0.5
    },
    {
      "id": "n-00780",
      "pitch": "B4",
      "midi": 71,
      "start": 152.871,
      "duration": 0.57,
      "velocity": 0.5
    },
    {
      "id": "n-00781",
      "pitch": "E5",
      "midi": 76,
      "start": 152.871,
      "duration": 0.57,
      "velocity": 0.5
    },
    {
      "id": "n-00782",
      "pitch": "B4",
      "midi": 71,
      "start": 153.443,
      "duration": 0.542,
      "velocity": 0.5
    },
    {
      "id": "n-00783",
      "pitch": "E5",
      "midi": 76,
      "start": 153.443,
      "duration": 0.57,
      "velocity": 0.5
    },
    {
      "id": "n-00784",
      "pitch": "C#6",
      "midi": 85,
      "start": 153.443,
      "duration": 0.57,
      "velocity": 0.5
    },
    {
      "id": "n-00785",
      "pitch": "B3",
      "midi": 59,
      "start": 154.014,
      "duration": 1.627,
      "velocity": 0.5
    },
    {
      "id": "n-00786",
      "pitch": "A4",
      "midi": 69,
      "start": 154.014,
      "duration": 0.542,
      "velocity": 0.5
    },
    {
      "id": "n-00787",
      "pitch": "C#5",
      "midi": 73,
      "start": 154.014,
      "duration": 0.57,
      "velocity": 0.5
    },
    {
      "id": "n-00788",
      "pitch": "F#5",
      "midi": 78,
      "start": 154.014,
      "duration": 0.57,
      "velocity": 0.5
    },
    {
      "id": "n-00789",
      "pitch": "B4",
      "midi": 71,
      "start": 154.586,
      "duration": 0.542,
      "velocity": 0.5
    },
    {
      "id": "n-00790",
      "pitch": "D#5",
      "midi": 75,
      "start": 154.586,
      "duration": 0.57,
      "velocity": 0.5
    },
    {
      "id": "n-00791",
      "pitch": "G#5",
      "midi": 80,
      "start": 154.586,
      "duration": 0.189,
      "velocity": 0.5
    },
    {
      "id": "n-00792",
      "pitch": "F#5",
      "midi": 78,
      "start": 154.776,
      "duration": 0.189,
      "velocity": 0.5
    },
    {
      "id": "n-00793",
      "pitch": "G#5",
      "midi": 80,
      "start": 154.967,
      "duration": 0.189,
      "velocity": 0.5
    },
    {
      "id": "n-00794",
      "pitch": "G#4",
      "midi": 68,
      "start": 155.157,
      "duration": 0.542,
      "velocity": 0.5
    },
    {
      "id": "n-00795",
      "pitch": "B4",
      "midi": 71,
      "start": 155.157,
      "duration": 0.57,
      "velocity": 0.5
    },
    {
      "id": "n-00796",
      "pitch": "E5",
      "midi": 76,
      "start": 155.157,
      "duration": 0.57,
      "velocity": 0.5
    },
    {
      "id": "n-00797",
      "pitch": "G#4",
      "midi": 68,
      "start": 155.728,
      "duration": 0.542,
      "velocity": 0.5
    },
    {
      "id": "n-00798",
      "pitch": "B4",
      "midi": 71,
      "start": 155.728,
      "duration": 0.542,
      "velocity": 0.5
    },
    {
      "id": "n-00799",
      "pitch": "E5",
      "midi": 76,
      "start": 155.728,
      "duration": 0.542,
      "velocity": 0.5
    },
    {
      "id": "n-00800",
      "pitch": "B5",
      "midi": 83,
      "start": 155.728,
      "duration": 0.542,
      "velocity": 0.5
    },
    {
      "id": "n-00801",
      "pitch": "G#4",
      "midi": 68,
      "start": 156.3,
      "duration": 1.142,
      "velocity": 0.5
    },
    {
      "id": "n-00802",
      "pitch": "B4",
      "midi": 71,
      "start": 156.3,
      "duration": 2.285,
      "velocity": 0.5
    },
    {
      "id": "n-00803",
      "pitch": "E5",
      "midi": 76,
      "start": 156.3,
      "duration": 1.142,
      "velocity": 0.5
    },
    {
      "id": "n-00804",
      "pitch": "C#6",
      "midi": 85,
      "start": 156.3,
      "duration": 0.57,
      "velocity": 0.5
    },
    {
      "id": "n-00805",
      "pitch": "E6",
      "midi": 88,
      "start": 156.871,
      "duration": 0.57,
      "velocity": 0.53
    },
    {
      "id": "n-00806",
      "pitch": "F#4",
      "midi": 66,
      "start": 157.443,
      "duration": 1.142,
      "velocity": 0.55
    },
    {
      "id": "n-00807",
      "pitch": "F#5",
      "midi": 78,
      "start": 157.443,
      "duration": 1.142,
      "velocity": 0.55
    },
    {
      "id": "n-00808",
      "pitch": "D#6",
      "midi": 87,
      "start": 157.443,
      "duration": 0.57,
      "velocity": 0.55
    },
    {
      "id": "n-00809",
      "pitch": "B5",
      "midi": 83,
      "start": 158.014,
      "duration": 0.57,
      "velocity": 0.57
    },
    {
      "id": "n-00810",
      "pitch": "E4",
      "midi": 64,
      "start": 158.586,
      "duration": 1.142,
      "velocity": 0.6
    },
    {
      "id": "n-00811",
      "pitch": "B4",
      "midi": 71,
      "start": 158.586,
      "duration": 2.285,
      "velocity": 0.6
    },
    {
      "id": "n-00812",
      "pitch": "G#5",
      "midi": 80,
      "start": 158.586,
      "duration": 1.142,
      "velocity": 0.6
    },
    {
      "id": "n-00813",
      "pitch": "C#6",
      "midi": 85,
      "start": 158.586,
      "duration": 0.57,
      "velocity": 0.6
    },
    {
      "id": "n-00814",
      "pitch": "E6",
      "midi": 88,
      "start": 159.157,
      "duration": 0.57,
      "velocity": 0.62
    },
    {
      "id": "n-00815",
      "pitch": "D#4",
      "midi": 63,
      "start": 159.728,
      "duration": 1.085,
      "velocity": 0.65
    },
    {
      "id": "n-00816",
      "pitch": "F#5",
      "midi": 78,
      "start": 159.728,
      "duration": 1.142,
      "velocity": 0.65
    },
    {
      "id": "n-00817",
      "pitch": "F#6",
      "midi": 90,
      "start": 159.728,
      "duration": 0.57,
      "velocity": 0.65
    },
    {
      "id": "n-00818",
      "pitch": "B5",
      "midi": 83,
      "start": 160.3,
      "duration": 0.542,
      "velocity": 0.67
    },
    {
      "id": "n-00819",
      "pitch": "G#4",
      "midi": 68,
      "start": 160.871,
      "duration": 0.57,
      "velocity": 0.69
    },
    {
      "id": "n-00820",
      "pitch": "B4",
      "midi": 71,
      "start": 160.871,
      "duration": 1.142,
      "velocity": 0.69
    },
    {
      "id": "n-00821",
      "pitch": "E5",
      "midi": 76,
      "start": 160.871,
      "duration": 1.142,
      "velocity": 0.69
    },
    {
      "id": "n-00822",
      "pitch": "C#6",
      "midi": 85,
      "start": 160.871,
      "duration": 0.57,
      "velocity": 0.69
    },
    {
      "id": "n-00823",
      "pitch": "A4",
      "midi": 69,
      "start": 161.443,
      "duration": 0.189,
      "velocity": 0.69
    },
    {
      "id": "n-00824",
      "pitch": "E6",
      "midi": 88,
      "start": 161.443,
      "duration": 0.57,
      "velocity": 0.69
    },
    {
      "id": "n-00825",
      "pitch": "G#4",
      "midi": 68,
      "start": 161.633,
      "duration": 0.189,
      "velocity": 0.69
    },
    {
      "id": "n-00826",
      "pitch": "A4",
      "midi": 69,
      "start": 161.824,
      "duration": 0.189,
      "velocity": 0.69
    },
    {
      "id": "n-00827",
      "pitch": "F#4",
      "midi": 66,
      "start": 162.014,
      "duration": 1.085,
      "velocity": 0.69
    },
    {
      "id": "n-00828",
      "pitch": "F#5",
      "midi": 78,
      "start": 162.014,
      "duration": 1.142,
      "velocity": 0.69
    },
    {
      "id": "n-00829",
      "pitch": "D#6",
      "midi": 87,
      "start": 162.014,
      "duration": 0.57,
      "velocity": 0.69
    },
    {
      "id": "n-00830",
      "pitch": "B5",
      "midi": 83,
      "start": 162.586,
      "duration": 0.57,
      "velocity": 0.69
    },
    {
      "id": "n-00831",
      "pitch": "E4",
      "midi": 64,
      "start": 163.157,
      "duration": 0.57,
      "velocity": 0.69
    },
    {
      "id": "n-00832",
      "pitch": "B4",
      "midi": 71,
      "start": 163.157,
      "duration": 1.142,
      "velocity": 0.69
    },
    {
      "id": "n-00833",
      "pitch": "G#5",
      "midi": 80,
      "start": 163.157,
      "duration": 1.142,
      "velocity": 0.69
    },
    {
      "id": "n-00834",
      "pitch": "C#6",
      "midi": 85,
      "start": 163.157,
      "duration": 0.57,
      "velocity": 0.69
    },
    {
      "id": "n-00835",
      "pitch": "F#4",
      "midi": 66,
      "start": 163.728,
      "duration": 0.189,
      "velocity": 0.69
    },
    {
      "id": "n-00836",
      "pitch": "E6",
      "midi": 88,
      "start": 163.728,
      "duration": 0.57,
      "velocity": 0.69
    },
    {
      "id": "n-00837",
      "pitch": "E4",
      "midi": 64,
      "start": 163.919,
      "duration": 0.189,
      "velocity": 0.69
    },
    {
      "id": "n-00838",
      "pitch": "F#4",
      "midi": 66,
      "start": 164.109,
      "duration": 0.189,
      "velocity": 0.69
    },
    {
      "id": "n-00839",
      "pitch": "D#4",
      "midi": 63,
      "start": 164.3,
      "duration": 1.085,
      "velocity": 0.69
    },
    {
      "id": "n-00840",
      "pitch": "F#5",
      "midi": 78,
      "start": 164.3,
      "duration": 1.142,
      "velocity": 0.69
    },
    {
      "id": "n-00841",
      "pitch": "F#6",
      "midi": 90,
      "start": 164.3,
      "duration": 0.57,
      "velocity": 0.69
    },
    {
      "id": "n-00842",
      "pitch": "B5",
      "midi": 83,
      "start": 164.871,
      "duration": 0.542,
      "velocity": 0.69
    },
    {
      "id": "n-00843",
      "pitch": "D4",
      "midi": 62,
      "start": 165.443,
      "duration": 0.57,
      "velocity": 0.57
    },
    {
      "id": "n-00844",
      "pitch": "F4",
      "midi": 65,
      "start": 165.443,
      "duration": 1.142,
      "velocity": 0.57
    },
    {
      "id": "n-00845",
      "pitch": "B4",
      "midi": 71,
      "start": 165.443,
      "duration": 1.142,
      "velocity": 0.57
    },
    {
      "id": "n-00846",
      "pitch": "F6",
      "midi": 89,
      "start": 165.443,
      "duration": 1.142,
      "velocity": 0.57
    },
    {
      "id": "n-00847",
      "pitch": "G6",
      "midi": 91,
      "start": 165.443,
      "duration": 0.189,
      "velocity": 0.57
    },
    {
      "id": "n-00848",
      "pitch": "G5",
      "midi": 79,
      "start": 165.633,
      "duration": 0.189,
      "velocity": 0.57
    },
    {
      "id": "n-00849",
      "pitch": "G6",
      "midi": 91,
      "start": 165.824,
      "duration": 0.189,
      "velocity": 0.57
    },
    {
      "id": "n-00850",
      "pitch": "E4",
      "midi": 64,
      "start": 166.014,
      "duration": 0.57,
      "velocity": 0.57
    },
    {
      "id": "n-00851",
      "pitch": "G5",
      "midi": 79,
      "start": 166.014,
      "duration": 0.189,
      "velocity": 0.57
    },
    {
      "id": "n-00852",
      "pitch": "G6",
      "midi": 91,
      "start": 166.205,
      "duration": 0.189,
      "velocity": 0.57
    },
    {
      "id": "n-00853",
      "pitch": "G5",
      "midi": 79,
      "start": 166.395,
      "duration": 0.18,
      "velocity": 0.57
    },
    {
      "id": "n-00854",
      "pitch": "C4",
      "midi": 60,
      "start": 166.586,
      "duration": 0.542,
      "velocity": 0.57
    },
    {
      "id": "n-00855",
      "pitch": "E4",
      "midi": 64,
      "start": 166.586,
      "duration": 1.085,
      "velocity": 0.57
    },
    {
      "id": "n-00856",
      "pitch": "C5",
      "midi": 72,
      "start": 166.586,
      "duration": 1.085,
      "velocity": 0.57
    },
    {
      "id": "n-00857",
      "pitch": "E6",
      "midi": 88,
      "start": 166.586,
      "duration": 1.142,
      "velocity": 0.57
    },
    {
      "id": "n-00858",
      "pitch": "G6",
      "midi": 91,
      "start": 166.586,
      "duration": 0.189,
      "velocity": 0.57
    },
    {
      "id": "n-00859",
      "pitch": "G5",
      "midi": 79,
      "start": 166.776,
      "duration": 0.189,
      "velocity": 0.57
    },
    {
      "id": "n-00860",
      "pitch": "G6",
      "midi": 91,
      "start": 166.967,
      "duration": 0.189,
      "velocity": 0.57
    },
    {
      "id": "n-00861",
      "pitch": "A4",
      "midi": 69,
      "start": 167.157,
      "duration": 0.542,
      "velocity": 0.57
    },
    {
      "id": "n-00862",
      "pitch": "G5",
      "midi": 79,
      "start": 167.157,
      "duration": 0.189,
      "velocity": 0.57
    },
    {
      "id": "n-00863",
      "pitch": "G6",
      "midi": 91,
      "start": 167.347,
      "duration": 0.189,
      "velocity": 0.57
    },
    {
      "id": "n-00864",
      "pitch": "G5",
      "midi": 79,
      "start": 167.538,
      "duration": 0.18,
      "velocity": 0.57
    },
    {
      "id": "n-00865",
      "pitch": "D4",
      "midi": 62,
      "start": 167.728,
      "duration": 0.57,
      "velocity": 0.57
    },
    {
      "id": "n-00866",
      "pitch": "F4",
      "midi": 65,
      "start": 167.728,
      "duration": 1.142,
      "velocity": 0.57
    },
    {
      "id": "n-00867",
      "pitch": "B4",
      "midi": 71,
      "start": 167.728,
      "duration": 1.142,
      "velocity": 0.57
    },
    {
      "id": "n-00868",
      "pitch": "F6",
      "midi": 89,
      "start": 167.728,
      "duration": 1.142,
      "velocity": 0.57
    },
    {
      "id": "n-00869",
      "pitch": "G6",
      "midi": 91,
      "start": 167.728,
      "duration": 0.189,
      "velocity": 0.57
    },
    {
      "id": "n-00870",
      "pitch": "G5",
      "midi": 79,
      "start": 167.919,
      "duration": 0.189,
      "velocity": 0.57
    },
    {
      "id": "n-00871",
      "pitch": "G6",
      "midi": 91,
      "start": 168.109,
      "duration": 0.189,
      "velocity": 0.57
    },
    {
      "id": "n-00872",
      "pitch": "E4",
      "midi": 64,
      "start": 168.3,
      "duration": 0.189,
      "velocity": 0.57
    },
    {
      "id": "n-00873",
      "pitch": "G5",
      "midi": 79,
      "start": 168.3,
      "duration": 0.189,
      "velocity": 0.57
    },
    {
      "id": "n-00874",
      "pitch": "D4",
      "midi": 62,
      "start": 168.49,
      "duration": 0.189,
      "velocity": 0.57
    },
    {
      "id": "n-00875",
      "pitch": "G6",
      "midi": 91,
      "start": 168.49,
      "duration": 0.189,
      "velocity": 0.57
    },
    {
      "id": "n-00876",
      "pitch": "E4",
      "midi": 64,
      "start": 168.681,
      "duration": 0.189,
      "velocity": 0.57
    },
    {
      "id": "n-00877",
      "pitch": "G5",
      "midi": 79,
      "start": 168.681,
      "duration": 0.18,
      "velocity": 0.57
    },
    {
      "id": "n-00878",
      "pitch": "C4",
      "midi": 60,
      "start": 168.871,
      "duration": 0.542,
      "velocity": 0.57
    },
    {
      "id": "n-00879",
      "pitch": "E4",
      "midi": 64,
      "start": 168.871,
      "duration": 1.085,
      "velocity": 0.57
    },
    {
      "id": "n-00880",
      "pitch": "C5",
      "midi": 72,
      "start": 168.871,
      "duration": 1.085,
      "velocity": 0.57
    },
    {
      "id": "n-00881",
      "pitch": "E6",
      "midi": 88,
      "start": 168.871,
      "duration": 1.142,
      "velocity": 0.57
    },
    {
      "id": "n-00882",
      "pitch": "G6",
      "midi": 91,
      "start": 168.871,
      "duration": 0.189,
      "velocity": 0.57
    },
    {
      "id": "n-00883",
      "pitch": "G5",
      "midi": 79,
      "start": 169.062,
      "duration": 0.189,
      "velocity": 0.57
    },
    {
      "id": "n-00884",
      "pitch": "G6",
      "midi": 91,
      "start": 169.252,
      "duration": 0.189,
      "velocity": 0.57
    },
    {
      "id": "n-00885",
      "pitch": "A3",
      "midi": 57,
      "start": 169.443,
      "duration": 0.542,
      "velocity": 0.57
    },
    {
      "id": "n-00886",
      "pitch": "G5",
      "midi": 79,
      "start": 169.443,
      "duration": 0.189,
      "velocity": 0.57
    },
    {
      "id": "n-00887",
      "pitch": "G6",
      "midi": 91,
      "start": 169.633,
      "duration": 0.189,
      "velocity": 0.57
    },
    {
      "id": "n-00888",
      "pitch": "G5",
      "midi": 79,
      "start": 169.824,
      "duration": 0.18,
      "velocity": 0.57
    },
    {
      "id": "n-00889",
      "pitch": "G2",
      "midi": 43,
      "start": 170.014,
      "duration": 2.285,
      "velocity": 0.6
    },
    {
      "id": "n-00890",
      "pitch": "F3",
      "midi": 53,
      "start": 170.014,
      "duration": 0.189,
      "velocity": 0.6
    },
    {
      "id": "n-00891",
      "pitch": "A3",
      "midi": 57,
      "start": 170.014,
      "duration": 0.57,
      "velocity": 0.6
    },
    {
      "id": "n-00892",
      "pitch": "D4",
      "midi": 62,
      "start": 170.014,
      "duration": 0.57,
      "velocity": 0.6
    },
    {
      "id": "n-00893",
      "pitch": "G3",
      "midi": 55,
      "start": 170.205,
      "duration": 0.189,
      "velocity": 0.6
    },
    {
      "id": "n-00894",
      "pitch": "F3",
      "midi": 53,
      "start": 170.395,
      "duration": 0.189,
      "velocity": 0.6
    },
    {
      "id": "n-00895",
      "pitch": "G3",
      "midi": 55,
      "start": 170.586,
      "duration": 0.189,
      "velocity": 0.6
    },
    {
      "id": "n-00896",
      "pitch": "B3",
      "midi": 59,
      "start": 170.586,
      "duration": 0.57,
      "velocity": 0.6
    },
    {
      "id": "n-00897",
      "pitch": "E4",
      "midi": 64,
      "start": 170.586,
      "duration": 0.57,
      "velocity": 0.6
    },
    {
      "id": "n-00898",
      "pitch": "F3",
      "midi": 53,
      "start": 170.776,
      "duration": 0.189,
      "velocity": 0.6
    },
    {
      "id": "n-00899",
      "pitch": "G3",
      "midi": 55,
      "start": 170.967,
      "duration": 0.189,
      "velocity": 0.6
    },
    {
      "id": "n-00900",
      "pitch": "E3",
      "midi": 52,
      "start": 171.157,
      "duration": 0.189,
      "velocity": 0.6
    },
    {
      "id": "n-00901",
      "pitch": "C4",
      "midi": 60,
      "start": 171.157,
      "duration": 1.142,
      "velocity": 0.6
    },
    {
      "id": "n-00902",
      "pitch": "C4",
      "midi": 60,
      "start": 171.157,
      "duration": 0.57,
      "velocity": 0.6
    },
    {
      "id": "n-00903",
      "pitch": "G3",
      "midi": 55,
      "start": 171.347,
      "duration": 0.189,
      "velocity": 0.6
    },
    {
      "id": "n-00904",
      "pitch": "E3",
      "midi": 52,
      "start": 171.538,
      "duration": 0.189,
      "velocity": 0.6
    },
    {
      "id": "n-00905",
      "pitch": "G3",
      "midi": 55,
      "start": 171.728,
      "duration": 0.189,
      "velocity": 0.6
    },
    {
      "id": "n-00906",
      "pitch": "A4",
      "midi": 69,
      "start": 171.728,
      "duration": 0.57,
      "velocity": 0.6
    },
    {
      "id": "n-00907",
      "pitch": "E3",
      "midi": 52,
      "start": 171.919,
      "duration": 0.189,
      "velocity": 0.6
    },
    {
      "id": "n-00908",
      "pitch": "G3",
      "midi": 55,
      "start": 172.109,
      "duration": 0.18,
      "velocity": 0.6
    },
    {
      "id": "n-00909",
      "pitch": "G2",
      "midi": 43,
      "start": 172.3,
      "duration": 1.085,
      "velocity": 0.6
    },
    {
      "id": "n-00910",
      "pitch": "F3",
      "midi": 53,
      "start": 172.3,
      "duration": 0.18,
      "velocity": 0.6
    },
    {
      "id": "n-00911",
      "pitch": "A3",
      "midi": 57,
      "start": 172.3,
      "duration": 1.142,
      "velocity": 0.6
    },
    {
      "id": "n-00912",
      "pitch": "D4",
      "midi": 62,
      "start": 172.3,
      "duration": 0.57,
      "velocity": 0.6
    },
    {
      "id": "n-00913",
      "pitch": "G3",
      "midi": 55,
      "start": 172.49,
      "duration": 0.18,
      "velocity": 0.6
    },
    {
      "id": "n-00914",
      "pitch": "F3",
      "midi": 53,
      "start": 172.681,
      "duration": 0.18,
      "velocity": 0.6
    },
    {
      "id": "n-00915",
      "pitch": "G3",
      "midi": 55,
      "start": 172.871,
      "duration": 0.18,
      "velocity": 0.6
    },
    {
      "id": "n-00916",
      "pitch": "E4",
      "midi": 64,
      "start": 172.871,
      "duration": 0.189,
      "velocity": 0.6
    },
    {
      "id": "n-00917",
      "pitch": "F3",
      "midi": 53,
      "start": 173.062,
      "duration": 0.18,
      "velocity": 0.6
    },
    {
      "id": "n-00918",
      "pitch": "D4",
      "midi": 62,
      "start": 173.062,
      "duration": 0.189,
      "velocity": 0.6
    },
    {
      "id": "n-00919",
      "pitch": "G3",
      "midi": 55,
      "start": 173.252,
      "duration": 0.18,
      "velocity": 0.6
    },
    {
      "id": "n-00920",
      "pitch": "E4",
      "midi": 64,
      "start": 173.252,
      "duration": 0.189,
      "velocity": 0.6
    },
    {
      "id": "n-00921",
      "pitch": "C2",
      "midi": 36,
      "start": 173.443,
      "duration": 0.189,
      "velocity": 0.6
    },
    {
      "id": "n-00922",
      "pitch": "A#3",
      "midi": 58,
      "start": 173.443,
      "duration": 1.085,
      "velocity": 0.6
    },
    {
      "id": "n-00923",
      "pitch": "C4",
      "midi": 60,
      "start": 173.443,
      "duration": 1.085,
      "velocity": 0.6
    },
    {
      "id": "n-00924",
      "pitch": "G2",
      "midi": 43,
      "start": 173.633,
      "duration": 0.189,
      "velocity": 0.6
    },
    {
      "id": "n-00925",
      "pitch": "E3",
      "midi": 52,
      "start": 173.824,
      "duration": 0.189,
      "velocity": 0.6
    },
    {
      "id": "n-00926",
      "pitch": "G3",
      "midi": 55,
      "start": 174.014,
      "duration": 0.189,
      "velocity": 0.6
    },
    {
      "id": "n-00927",
      "pitch": "B3",
      "midi": 59,
      "start": 174.205,
      "duration": 0.189,
      "velocity": 0.6
    },
    {
      "id": "n-00928",
      "pitch": "C4",
      "midi": 60,
      "start": 174.395,
      "duration": 0.18,
      "velocity": 0.6
    },
    {
      "id": "n-00929",
      "pitch": "G3",
      "midi": 55,
      "start": 174.586,
      "duration": 1.142,
      "velocity": 0.6
    },
    {
      "id": "n-00930",
      "pitch": "F4",
      "midi": 65,
      "start": 174.586,
      "duration": 0.189,
      "velocity": 0.6
    },
    {
      "id": "n-00931",
      "pitch": "A4",
      "midi": 69,
      "start": 174.586,
      "duration": 0.542,
      "velocity": 0.6
    },
    {
      "id": "n-00932",
      "pitch": "D5",
      "midi": 74,
      "start": 174.586,
      "duration": 0.542,
      "velocity": 0.6
    },
    {
      "id": "n-00933",
      "pitch": "G4",
      "midi": 67,
      "start": 174.776,
      "duration": 0.189,
      "velocity": 0.6
    },
    {
      "id": "n-00934",
      "pitch": "F4",
      "midi": 65,
      "start": 174.967,
      "duration": 0.189,
      "velocity": 0.6
    },
    {
      "id": "n-00935",
      "pitch": "G4",
      "midi": 67,
      "start": 175.157,
      "duration": 0.189,
      "velocity": 0.6
    },
    {
      "id": "n-00936",
      "pitch": "B4",
      "midi": 71,
      "start": 175.157,
      "duration": 0.542,
      "velocity": 0.6
    },
    {
      "id": "n-00937",
      "pitch": "E5",
      "midi": 76,
      "start": 175.157,
      "duration": 0.18,
      "velocity": 0.6
    },
    {
      "id": "n-00938",
      "pitch": "F4",
      "midi": 65,
      "start": 175.347,
      "duration": 0.189,
      "velocity": 0.6
    },
    {
      "id": "n-00939",
      "pitch": "D5",
      "midi": 74,
      "start": 175.347,
      "duration": 0.18,
      "velocity": 0.6
    },
    {
      "id": "n-00940",
      "pitch": "G4",
      "midi": 67,
      "start": 175.538,
      "duration": 0.18,
      "velocity": 0.6
    },
    {
      "id": "n-00941",
      "pitch": "E5",
      "midi": 76,
      "start": 175.538,
      "duration": 0.18,
      "velocity": 0.6
    },
    {
      "id": "n-00942",
      "pitch": "C3",
      "midi": 48,
      "start": 175.728,
      "duration": 0.189,
      "velocity": 0.6
    },
    {
      "id": "n-00943",
      "pitch": "A#4",
      "midi": 70,
      "start": 175.728,
      "duration": 1.085,
      "velocity": 0.6
    },
    {
      "id": "n-00944",
      "pitch": "C5",
      "midi": 72,
      "start": 175.728,
      "duration": 1.085,
      "velocity": 0.6
    },
    {
      "id": "n-00945",
      "pitch": "G3",
      "midi": 55,
      "start": 175.919,
      "duration": 0.189,
      "velocity": 0.6
    },
    {
      "id": "n-00946",
      "pitch": "C4",
      "midi": 60,
      "start": 176.109,
      "duration": 0.189,
      "velocity": 0.6
    },
    {
      "id": "n-00947",
      "pitch": "E4",
      "midi": 64,
      "start": 176.3,
      "duration": 0.189,
      "velocity": 0.6
    },
    {
      "id": "n-00948",
      "pitch": "G4",
      "midi": 67,
      "start": 176.49,
      "duration": 0.189,
      "velocity": 0.6
    },
    {
      "id": "n-00949",
      "pitch": "A#4",
      "midi": 70,
      "start": 176.681,
      "duration": 0.189,
      "velocity": 0.6
    },
    {
      "id": "n-00950",
      "pitch": "C5",
      "midi": 72,
      "start": 176.871,
      "duration": 0.18,
      "velocity": 0.5
    },
    {
      "id": "n-00951",
      "pitch": "E5",
      "midi": 76,
      "start": 177.062,
      "duration": 0.18,
      "velocity": 0.5
    },
    {
      "id": "n-00952",
      "pitch": "G5",
      "midi": 79,
      "start": 177.252,
      "duration": 0.18,
      "velocity": 0.5
    },
    {
      "id": "n-00953",
      "pitch": "A#5",
      "midi": 82,
      "start": 177.443,
      "duration": 0.18,
      "velocity": 0.5
    },
    {
      "id": "n-00954",
      "pitch": "C6",
      "midi": 84,
      "start": 177.633,
      "duration": 0.18,
      "velocity": 0.5
    },
    {
      "id": "n-00955",
      "pitch": "E6",
      "midi": 88,
      "start": 177.824,
      "duration": 0.18,
      "velocity": 0.5
    },
    {
      "id": "n-00956",
      "pitch": "G6",
      "midi": 91,
      "start": 178.014,
      "duration": 0.18,
      "velocity": 0.5
    },
    {
      "id": "n-00957",
      "pitch": "E6",
      "midi": 88,
      "start": 178.205,
      "duration": 0.18,
      "velocity": 0.5
    },
    {
      "id": "n-00958",
      "pitch": "C6",
      "midi": 84,
      "start": 178.395,
      "duration": 0.18,
      "velocity": 0.5
    },
    {
      "id": "n-00959",
      "pitch": "A#5",
      "midi": 82,
      "start": 178.586,
      "duration": 0.18,
      "velocity": 0.5
    },
    {
      "id": "n-00960",
      "pitch": "G5",
      "midi": 79,
      "start": 178.776,
      "duration": 0.18,
      "velocity": 0.5
    },
    {
      "id": "n-00961",
      "pitch": "E5",
      "midi": 76,
      "start": 178.967,
      "duration": 0.18,
      "velocity": 0.5
    },
    {
      "id": "n-00962",
      "pitch": "C5",
      "midi": 72,
      "start": 179.157,
      "duration": 0.27,
      "velocity": 0.5
    },
    {
      "id": "n-00963",
      "pitch": "A#4",
      "midi": 70,
      "start": 179.443,
      "duration": 0.27,
      "velocity": 0.5
    },
    {
      "id": "n-00964",
      "pitch": "G4",
      "midi": 67,
      "start": 179.728,
      "duration": 0.27,
      "velocity": 0.5
    },
    {
      "id": "n-00965",
      "pitch": "E4",
      "midi": 64,
      "start": 180.014,
      "duration": 0.27,
      "velocity": 0.5
    },
    {
      "id": "n-00966",
      "pitch": "C4",
      "midi": 60,
      "start": 180.3,
      "duration": 0.27,
      "velocity": 0.5
    },
    {
      "id": "n-00967",
      "pitch": "B3",
      "midi": 59,
      "start": 180.586,
      "duration": 0.27,
      "velocity": 0.5
    },
    {
      "id": "n-00968",
      "pitch": "A#3",
      "midi": 58,
      "start": 180.871,
      "duration": 0.285,
      "velocity": 0.5
    },
    {
      "id": "n-00969",
      "pitch": "G5",
      "midi": 79,
      "start": 180.871,
      "duration": 1.142,
      "velocity": 0.5
    },
    {
      "id": "n-00970",
      "pitch": "C4",
      "midi": 60,
      "start": 181.157,
      "duration": 0.285,
      "velocity": 0.5
    },
    {
      "id": "n-00971",
      "pitch": "D4",
      "midi": 62,
      "start": 181.443,
      "duration": 0.285,
      "velocity": 0.5
    },
    {
      "id": "n-00972",
      "pitch": "G4",
      "midi": 67,
      "start": 181.728,
      "duration": 0.27,
      "velocity": 0.5
    },
    {
      "id": "n-00973",
      "pitch": "D5",
      "midi": 74,
      "start": 182.014,
      "duration": 1.713,
      "velocity": 0.5
    },
    {
      "id": "n-00974",
      "pitch": "G6",
      "midi": 91,
      "start": 182.014,
      "duration": 0.285,
      "velocity": 0.5
    },
    {
      "id": "n-00975",
      "pitch": "D6",
      "midi": 86,
      "start": 182.3,
      "duration": 0.285,
      "velocity": 0.5
    },
    {
      "id": "n-00976",
      "pitch": "C6",
      "midi": 84,
      "start": 182.586,
      "duration": 0.285,
      "velocity": 0.5
    },
    {
      "id": "n-00977",
      "pitch": "A#5",
      "midi": 82,
      "start": 182.871,
      "duration": 0.285,
      "velocity": 0.5
    },
    {
      "id": "n-00978",
      "pitch": "A#3",
      "midi": 58,
      "start": 183.157,
      "duration": 0.285,
      "velocity": 0.5
    },
    {
      "id": "n-00979",
      "pitch": "C4",
      "midi": 60,
      "start": 183.443,
      "duration": 0.285,
      "velocity": 0.5
    },
    {
      "id": "n-00980",
      "pitch": "D4",
      "midi": 62,
      "start": 183.728,
      "duration": 0.285,
      "velocity": 0.5
    },
    {
      "id": "n-00981",
      "pitch": "E5",
      "midi": 76,
      "start": 183.728,
      "duration": 0.285,
      "velocity": 0.5
    },
    {
      "id": "n-00982",
      "pitch": "G4",
      "midi": 67,
      "start": 184.014,
      "duration": 0.27,
      "velocity": 0.5
    },
    {
      "id": "n-00983",
      "pitch": "F5",
      "midi": 77,
      "start": 184.014,
      "duration": 0.285,
      "velocity": 0.5
    },
    {
      "id": "n-00984",
      "pitch": "G5",
      "midi": 79,
      "start": 184.3,
      "duration": 0.57,
      "velocity": 0.5
    },
    {
      "id": "n-00985",
      "pitch": "G6",
      "midi": 91,
      "start": 184.3,
      "duration": 0.285,
      "velocity": 0.5
    },
    {
      "id": "n-00986",
      "pitch": "D6",
      "midi": 86,
      "start": 184.586,
      "duration": 0.285,
      "velocity": 0.5
    },
    {
      "id": "n-00987",
      "pitch": "E5",
      "midi": 76,
      "start": 184.871,
      "duration": 0.285,
      "velocity": 0.5
    },
    {
      "id": "n-00988",
      "pitch": "C6",
      "midi": 84,
      "start": 184.871,
      "duration": 0.285,
      "velocity": 0.5
    },
    {
      "id": "n-00989",
      "pitch": "D5",
      "midi": 74,
      "start": 185.157,
      "duration": 0.285,
      "velocity": 0.5
    },
    {
      "id": "n-00990",
      "pitch": "A#5",
      "midi": 82,
      "start": 185.157,
      "duration": 0.285,
      "velocity": 0.5
    },
    {
      "id": "n-00991",
      "pitch": "A#3",
      "midi": 58,
      "start": 185.443,
      "duration": 0.285,
      "velocity": 0.5
    },
    {
      "id": "n-00992",
      "pitch": "E5",
      "midi": 76,
      "start": 185.443,
      "duration": 0.38,
      "velocity": 0.5
    },
    {
      "id": "n-00993",
      "pitch": "C4",
      "midi": 60,
      "start": 185.728,
      "duration": 0.285,
      "velocity": 0.5
    },
    {
      "id": "n-00994",
      "pitch": "C5",
      "midi": 72,
      "start": 185.824,
      "duration": 0.38,
      "velocity": 0.5
    },
    {
      "id": "n-00995",
      "pitch": "D4",
      "midi": 62,
      "start": 186.014,
      "duration": 0.285,
      "velocity": 0.5
    },
    {
      "id": "n-00996",
      "pitch": "E5",
      "midi": 76,
      "start": 186.205,
      "duration": 0.38,
      "velocity": 0.5
    },
    {
      "id": "n-00997",
      "pitch": "G4",
      "midi": 67,
      "start": 186.3,
      "duration": 0.27,
      "velocity": 0.5
    },
    {
      "id": "n-00998",
      "pitch": "D5",
      "midi": 74,
      "start": 186.586,
      "duration": 2.227,
      "velocity": 0.5
    },
    {
      "id": "n-00999",
      "pitch": "G6",
      "midi": 91,
      "start": 186.586,
      "duration": 0.285,
      "velocity": 0.5
    },
    {
      "id": "n-01000",
      "pitch": "D6",
      "midi": 86,
      "start": 186.871,
      "duration": 0.285,
      "velocity": 0.5
    },
    {
      "id": "n-01001",
      "pitch": "C6",
      "midi": 84,
      "start": 187.157,
      "duration": 0.285,
      "velocity": 0.5
    },
    {
      "id": "n-01002",
      "pitch": "A#5",
      "midi": 82,
      "start": 187.443,
      "duration": 0.27,
      "velocity": 0.5
    },
    {
      "id": "n-01003",
      "pitch": "A#3",
      "midi": 58,
      "start": 187.728,
      "duration": 0.285,
      "velocity": 0.5
    },
    {
      "id": "n-01004",
      "pitch": "C4",
      "midi": 60,
      "start": 188.014,
      "duration": 0.285,
      "velocity": 0.5
    },
    {
      "id": "n-01005",
      "pitch": "D4",
      "midi": 62,
      "start": 188.3,
      "duration": 0.285,
      "velocity": 0.5
    },
    {
      "id": "n-01006",
      "pitch": "G4",
      "midi": 67,
      "start": 188.586,
      "duration": 0.27,
      "velocity": 0.5
    },
    {
      "id": "n-01007",
      "pitch": "A#4",
      "midi": 70,
      "start": 188.871,
      "duration": 0.57,
      "velocity": 0.5
    },
    {
      "id": "n-01008",
      "pitch": "G6",
      "midi": 91,
      "start": 188.871,
      "duration": 0.285,
      "velocity": 0.5
    },
    {
      "id": "n-01009",
      "pitch": "D6",
      "midi": 86,
      "start": 189.157,
      "duration": 0.285,
      "velocity": 0.5
    },
    {
      "id": "n-01010",
      "pitch": "D5",
      "midi": 74,
      "start": 189.443,
      "duration": 0.57,
      "velocity": 0.5
    },
    {
      "id": "n-01011",
      "pitch": "C6",
      "midi": 84,
      "start": 189.443,
      "duration": 0.285,
      "velocity": 0.5
    },
    {
      "id": "n-01012",
      "pitch": "A#5",
      "midi": 82,
      "start": 189.728,
      "duration": 0.285,
      "velocity": 0.5
    },
    {
      "id": "n-01013",
      "pitch": "A3",
      "midi": 57,
      "start": 190.014,
      "duration": 0.285,
      "velocity": 0.5
    },
    {
      "id": "n-01014",
      "pitch": "E5",
      "midi": 76,
      "start": 190.014,
      "duration": 0.57,
      "velocity": 0.5
    },
    {
      "id": "n-01015",
      "pitch": "A#3",
      "midi": 58,
      "start": 190.3,
      "duration": 0.285,
      "velocity": 0.5
    },
    {
      "id": "n-01016",
      "pitch": "C4",
      "midi": 60,
      "start": 190.586,
      "duration": 0.285,
      "velocity": 0.5
    },
    {
      "id": "n-01017",
      "pitch": "F5",
      "midi": 77,
      "start": 190.586,
      "duration": 0.57,
      "velocity": 0.5
    },
    {
      "id": "n-01018",
      "pitch": "F4",
      "midi": 65,
      "start": 190.871,
      "duration": 0.27,
      "velocity": 0.5
    },
    {
      "id": "n-01019",
      "pitch": "C5",
      "midi": 72,
      "start": 191.157,
      "duration": 2.285,
      "velocity": 0.5
    },
    {
      "id": "n-01020",
      "pitch": "F6",
      "midi": 89,
      "start": 191.157,
      "duration": 0.285,
      "velocity": 0.5
    },
    {
      "id": "n-01021",
      "pitch": "C6",
      "midi": 84,
      "start": 191.443,
      "duration": 0.285,
      "velocity": 0.5
    },
    {
      "id": "n-01022",
      "pitch": "A#5",
      "midi": 82,
      "start": 191.728,
      "duration": 0.285,
      "velocity": 0.5
    },
    {
      "id": "n-01023",
      "pitch": "A5",
      "midi": 81,
      "start": 192.014,
      "duration": 0.285,
      "velocity": 0.5
    },
    {
      "id": "n-01024",
      "pitch": "G3",
      "midi": 55,
      "start": 192.3,
      "duration": 0.285,
      "velocity": 0.5
    },
    {
      "id": "n-01025",
      "pitch": "A3",
      "midi": 57,
      "start": 192.586,
      "duration": 0.285,
      "velocity": 0.5
    },
    {
      "id": "n-01026",
      "pitch": "A#3",
      "midi": 58,
      "start": 192.871,
      "duration": 0.285,
      "velocity": 0.5
    },
    {
      "id": "n-01027",
      "pitch": "E4",
      "midi": 64,
      "start": 193.157,
      "duration": 0.27,
      "velocity": 0.5
    },
    {
      "id": "n-01028",
      "pitch": "G4",
      "midi": 67,
      "start": 193.443,
      "duration": 1.142,
      "velocity": 0.5
    },
    {
      "id": "n-01029",
      "pitch": "E6",
      "midi": 88,
      "start": 193.443,
      "duration": 0.285,
      "velocity": 0.5
    },
    {
      "id": "n-01030",
      "pitch": "A#5",
      "midi": 82,
      "start": 193.728,
      "duration": 0.285,
      "velocity": 0.5
    },
    {
      "id": "n-01031",
      "pitch": "A5",
      "midi": 81,
      "start": 194.014,
      "duration": 0.285,
      "velocity": 0.5
    },
    {
      "id": "n-01032",
      "pitch": "G5",
      "midi": 79,
      "start": 194.3,
      "duration": 0.285,
      "velocity": 0.5
    },
    {
      "id": "n-01033",
      "pitch": "F2",
      "midi": 41,
      "start": 194.586,
      "duration": 0.285,
      "velocity": 0.5
    },
    {
      "id": "n-01034",
      "pitch": "A4",
      "midi": 69,
      "start": 194.586,
      "duration": 4.342,
      "velocity": 0.5
    },
    {
      "id": "n-01035",
      "pitch": "C3",
      "midi": 48,
      "start": 194.871,
      "duration": 1.999,
      "velocity": 0.5
    },
    {
      "id": "n-01036",
      "pitch": "A3",
      "midi": 57,
      "start": 195.157,
      "duration": 0.27,
      "velocity": 0.5
    },
    {
      "id": "n-01037",
      "pitch": "F4",
      "midi": 65,
      "start": 195.443,
      "duration": 0.27,
      "velocity": 0.5
    },
    {
      "id": "n-01038",
      "pitch": "D4",
      "midi": 62,
      "start": 195.728,
      "duration": 0.27,
      "velocity": 0.5
    },
    {
      "id": "n-01039",
      "pitch": "A3",
      "midi": 57,
      "start": 196.014,
      "duration": 0.27,
      "velocity": 0.5
    },
    {
      "id": "n-01040",
      "pitch": "C4",
      "midi": 60,
      "start": 196.3,
      "duration": 0.27,
      "velocity": 0.5
    },
    {
      "id": "n-01041",
      "pitch": "F4",
      "midi": 65,
      "start": 196.586,
      "duration": 0.27,
      "velocity": 0.5
    },
    {
      "id": "n-01042",
      "pitch": "F2",
      "midi": 41,
      "start": 196.871,
      "duration": 2.285,
      "velocity": 0.5
    },
    {
      "id": "n-01043",
      "pitch": "F2",
      "midi": 41,
      "start": 196.871,
      "duration": 0.285,
      "velocity": 0.5
    },
    {
      "id": "n-01044",
      "pitch": "C3",
      "midi": 48,
      "start": 197.157,
      "duration": 1.999,
      "velocity": 0.5
    },
    {
      "id": "n-01045",
      "pitch": "A3",
      "midi": 57,
      "start": 197.443,
      "duration": 0.27,
      "velocity": 0.5
    },
    {
      "id": "n-01046",
      "pitch": "F4",
      "midi": 65,
      "start": 197.728,
      "duration": 0.27,
      "velocity": 0.5
    },
    {
      "id": "n-01047",
      "pitch": "D4",
      "midi": 62,
      "start": 198.014,
      "duration": 0.27,
      "velocity": 0.5
    },
    {
      "id": "n-01048",
      "pitch": "A3",
      "midi": 57,
      "start": 198.3,
      "duration": 0.27,
      "velocity": 0.5
    },
    {
      "id": "n-01049",
      "pitch": "C4",
      "midi": 60,
      "start": 198.586,
      "duration": 0.27,
      "velocity": 0.5
    },
    {
      "id": "n-01050",
      "pitch": "F4",
      "midi": 65,
      "start": 198.871,
      "duration": 0.27,
      "velocity": 0.5
    },
    {
      "id": "n-01051",
      "pitch": "D2",
      "midi": 38,
      "start": 199.157,
      "duration": 0.285,
      "velocity": 0.54
    },
    {
      "id": "n-01052",
      "pitch": "A5",
      "midi": 81,
      "start": 199.157,
      "duration": 1.142,
      "velocity": 0.54
    },
    {
      "id": "n-01053",
      "pitch": "A2",
      "midi": 45,
      "start": 199.443,
      "duration": 0.285,
      "velocity": 0.54
    },
    {
      "id": "n-01054",
      "pitch": "D3",
      "midi": 50,
      "start": 199.728,
      "duration": 0.285,
      "velocity": 0.54
    },
    {
      "id": "n-01055",
      "pitch": "F3",
      "midi": 53,
      "start": 200.014,
      "duration": 0.285,
      "velocity": 0.54
    },
    {
      "id": "n-01056",
      "pitch": "A3",
      "midi": 57,
      "start": 200.3,
      "duration": 0.285,
      "velocity": 0.54
    },
    {
      "id": "n-01057",
      "pitch": "E5",
      "midi": 76,
      "start": 200.3,
      "duration": 1.713,
      "velocity": 0.54
    },
    {
      "id": "n-01058",
      "pitch": "C4",
      "midi": 60,
      "start": 200.586,
      "duration": 0.285,
      "velocity": 0.54
    },
    {
      "id": "n-01059",
      "pitch": "E4",
      "midi": 64,
      "start": 200.871,
      "duration": 0.285,
      "velocity": 0.54
    },
    {
      "id": "n-01060",
      "pitch": "C4",
      "midi": 60,
      "start": 201.157,
      "duration": 0.285,
      "velocity": 0.54
    },
    {
      "id": "n-01061",
      "pitch": "A3",
      "midi": 57,
      "start": 201.443,
      "duration": 0.285,
      "velocity": 0.54
    },
    {
      "id": "n-01062",
      "pitch": "F3",
      "midi": 53,
      "start": 201.728,
      "duration": 0.285,
      "velocity": 0.54
    },
    {
      "id": "n-01063",
      "pitch": "A3",
      "midi": 57,
      "start": 202.014,
      "duration": 0.285,
      "velocity": 0.54
    },
    {
      "id": "n-01064",
      "pitch": "C5",
      "midi": 72,
      "start": 202.014,
      "duration": 0.285,
      "velocity": 0.54
    },
    {
      "id": "n-01065",
      "pitch": "C4",
      "midi": 60,
      "start": 202.3,
      "duration": 0.285,
      "velocity": 0.54
    },
    {
      "id": "n-01066",
      "pitch": "E5",
      "midi": 76,
      "start": 202.3,
      "duration": 0.285,
      "velocity": 0.54
    },
    {
      "id": "n-01067",
      "pitch": "G2",
      "midi": 43,
      "start": 202.586,
      "duration": 0.285,
      "velocity": 0.55
    },
    {
      "id": "n-01068",
      "pitch": "D5",
      "midi": 74,
      "start": 202.586,
      "duration": 0.57,
      "velocity": 0.55
    },
    {
      "id": "n-01069",
      "pitch": "D3",
      "midi": 50,
      "start": 202.871,
      "duration": 0.285,
      "velocity": 0.55
    },
    {
      "id": "n-01070",
      "pitch": "G3",
      "midi": 55,
      "start": 203.157,
      "duration": 0.285,
      "velocity": 0.56
    },
    {
      "id": "n-01071",
      "pitch": "A#4",
      "midi": 70,
      "start": 203.157,
      "duration": 0.285,
      "velocity": 0.56
    },
    {
      "id": "n-01072",
      "pitch": "A#3",
      "midi": 58,
      "start": 203.443,
      "duration": 0.27,
      "velocity": 0.56
    },
    {
      "id": "n-01073",
      "pitch": "G4",
      "midi": 67,
      "start": 203.443,
      "duration": 0.285,
      "velocity": 0.56
    },
    {
      "id": "n-01074",
      "pitch": "D2",
      "midi": 38,
      "start": 203.728,
      "duration": 0.285,
      "velocity": 0.57
    },
    {
      "id": "n-01075",
      "pitch": "A5",
      "midi": 81,
      "start": 203.728,
      "duration": 1.142,
      "velocity": 0.57
    },
    {
      "id": "n-01076",
      "pitch": "A2",
      "midi": 45,
      "start": 204.014,
      "duration": 0.285,
      "velocity": 0.57
    },
    {
      "id": "n-01077",
      "pitch": "D3",
      "midi": 50,
      "start": 204.3,
      "duration": 0.285,
      "velocity": 0.57
    },
    {
      "id": "n-01078",
      "pitch": "F3",
      "midi": 53,
      "start": 204.586,
      "duration": 0.285,
      "velocity": 0.57
    },
    {
      "id": "n-01079",
      "pitch": "A3",
      "midi": 57,
      "start": 204.871,
      "duration": 0.285,
      "velocity": 0.57
    },
    {
      "id": "n-01080",
      "pitch": "E5",
      "midi": 76,
      "start": 204.871,
      "duration": 1.713,
      "velocity": 0.57
    },
    {
      "id": "n-01081",
      "pitch": "C4",
      "midi": 60,
      "start": 205.157,
      "duration": 0.285,
      "velocity": 0.57
    },
    {
      "id": "n-01082",
      "pitch": "E4",
      "midi": 64,
      "start": 205.443,
      "duration": 0.285,
      "velocity": 0.57
    },
    {
      "id": "n-01083",
      "pitch": "C4",
      "midi": 60,
      "start": 205.728,
      "duration": 0.285,
      "velocity": 0.57
    },
    {
      "id": "n-01084",
      "pitch": "A3",
      "midi": 57,
      "start": 206.014,
      "duration": 0.285,
      "velocity": 0.57
    },
    {
      "id": "n-01085",
      "pitch": "F3",
      "midi": 53,
      "start": 206.3,
      "duration": 0.285,
      "velocity": 0.57
    },
    {
      "id": "n-01086",
      "pitch": "A3",
      "midi": 57,
      "start": 206.586,
      "duration": 0.285,
      "velocity": 0.57
    },
    {
      "id": "n-01087",
      "pitch": "C5",
      "midi": 72,
      "start": 206.586,
      "duration": 0.285,
      "velocity": 0.57
    },
    {
      "id": "n-01088",
      "pitch": "C4",
      "midi": 60,
      "start": 206.871,
      "duration": 0.285,
      "velocity": 0.57
    },
    {
      "id": "n-01089",
      "pitch": "E5",
      "midi": 76,
      "start": 206.871,
      "duration": 0.285,
      "velocity": 0.57
    },
    {
      "id": "n-01090",
      "pitch": "G2",
      "midi": 43,
      "start": 207.157,
      "duration": 0.285,
      "velocity": 0.57
    },
    {
      "id": "n-01091",
      "pitch": "D5",
      "midi": 74,
      "start": 207.157,
      "duration": 0.57,
      "velocity": 0.57
    },
    {
      "id": "n-01092",
      "pitch": "D3",
      "midi": 50,
      "start": 207.443,
      "duration": 0.285,
      "velocity": 0.57
    },
    {
      "id": "n-01093",
      "pitch": "G3",
      "midi": 55,
      "start": 207.728,
      "duration": 0.285,
      "velocity": 0.57
    },
    {
      "id": "n-01094",
      "pitch": "A#4",
      "midi": 70,
      "start": 207.728,
      "duration": 0.285,
      "velocity": 0.57
    },
    {
      "id": "n-01095",
      "pitch": "A#3",
      "midi": 58,
      "start": 208.014,
      "duration": 0.27,
      "velocity": 0.57
    },
    {
      "id": "n-01096",
      "pitch": "G4",
      "midi": 67,
      "start": 208.014,
      "duration": 0.27,
      "velocity": 0.57
    },
    {
      "id": "n-01097",
      "pitch": "D#2",
      "midi": 39,
      "start": 208.3,
      "duration": 0.285,
      "velocity": 0.57
    },
    {
      "id": "n-01098",
      "pitch": "G5",
      "midi": 79,
      "start": 208.3,
      "duration": 1.142,
      "velocity": 0.57
    },
    {
      "id": "n-01099",
      "pitch": "A#2",
      "midi": 46,
      "start": 208.586,
      "duration": 0.285,
      "velocity": 0.57
    },
    {
      "id": "n-01100",
      "pitch": "D#3",
      "midi": 51,
      "start": 208.871,
      "duration": 0.285,
      "velocity": 0.57
    },
    {
      "id": "n-01101",
      "pitch": "G3",
      "midi": 55,
      "start": 209.157,
      "duration": 0.285,
      "velocity": 0.57
    },
    {
      "id": "n-01102",
      "pitch": "A#3",
      "midi": 58,
      "start": 209.443,
      "duration": 0.285,
      "velocity": 0.57
    },
    {
      "id": "n-01103",
      "pitch": "D5",
      "midi": 74,
      "start": 209.443,
      "duration": 1.713,
      "velocity": 0.57
    },
    {
      "id": "n-01104",
      "pitch": "D#4",
      "midi": 63,
      "start": 209.728,
      "duration": 0.285,
      "velocity": 0.57
    },
    {
      "id": "n-01105",
      "pitch": "G4",
      "midi": 67,
      "start": 210.014,
      "duration": 0.285,
      "velocity": 0.57
    },
    {
      "id": "n-01106",
      "pitch": "D#4",
      "midi": 63,
      "start": 210.3,
      "duration": 0.285,
      "velocity": 0.57
    },
    {
      "id": "n-01107",
      "pitch": "A#3",
      "midi": 58,
      "start": 210.586,
      "duration": 0.285,
      "velocity": 0.57
    },
    {
      "id": "n-01108",
      "pitch": "G3",
      "midi": 55,
      "start": 210.871,
      "duration": 0.285,
      "velocity": 0.57
    },
    {
      "id": "n-01109",
      "pitch": "D#3",
      "midi": 51,
      "start": 211.157,
      "duration": 0.285,
      "velocity": 0.57
    },
    {
      "id": "n-01110",
      "pitch": "A#4",
      "midi": 70,
      "start": 211.157,
      "duration": 0.285,
      "velocity": 0.57
    },
    {
      "id": "n-01111",
      "pitch": "A#2",
      "midi": 46,
      "start": 211.443,
      "duration": 0.285,
      "velocity": 0.57
    },
    {
      "id": "n-01112",
      "pitch": "D5",
      "midi": 74,
      "start": 211.443,
      "duration": 0.285,
      "velocity": 0.57
    },
    {
      "id": "n-01113",
      "pitch": "D#2",
      "midi": 39,
      "start": 211.728,
      "duration": 0.285,
      "velocity": 0.57
    },
    {
      "id": "n-01114",
      "pitch": "C5",
      "midi": 72,
      "start": 211.728,
      "duration": 0.57,
      "velocity": 0.57
    },
    {
      "id": "n-01115",
      "pitch": "C3",
      "midi": 48,
      "start": 212.014,
      "duration": 0.285,
      "velocity": 0.57
    },
    {
      "id": "n-01116",
      "pitch": "F3",
      "midi": 53,
      "start": 212.3,
      "duration": 0.285,
      "velocity": 0.57
    },
    {
      "id": "n-01117",
      "pitch": "A4",
      "midi": 69,
      "start": 212.3,
      "duration": 0.285,
      "velocity": 0.57
    },
    {
      "id": "n-01118",
      "pitch": "A3",
      "midi": 57,
      "start": 212.586,
      "duration": 0.285,
      "velocity": 0.57
    },
    {
      "id": "n-01119",
      "pitch": "F4",
      "midi": 65,
      "start": 212.586,
      "duration": 0.285,
      "velocity": 0.57
    },
    {
      "id": "n-01120",
      "pitch": "D#2",
      "midi": 39,
      "start": 212.871,
      "duration": 0.285,
      "velocity": 0.57
    },
    {
      "id": "n-01121",
      "pitch": "G5",
      "midi": 79,
      "start": 212.871,
      "duration": 1.142,
      "velocity": 0.57
    },
    {
      "id": "n-01122",
      "pitch": "A#2",
      "midi": 46,
      "start": 213.157,
      "duration": 0.285,
      "velocity": 0.57
    },
    {
      "id": "n-01123",
      "pitch": "D#3",
      "midi": 51,
      "start": 213.443,
      "duration": 0.285,
      "velocity": 0.57
    },
    {
      "id": "n-01124",
      "pitch": "G3",
      "midi": 55,
      "start": 213.728,
      "duration": 0.285,
      "velocity": 0.57
    },
    {
      "id": "n-01125",
      "pitch": "A#3",
      "midi": 58,
      "start": 214.014,
      "duration": 0.285,
      "velocity": 0.57
    },
    {
      "id": "n-01126",
      "pitch": "D5",
      "midi": 74,
      "start": 214.014,
      "duration": 1.713,
      "velocity": 0.57
    },
    {
      "id": "n-01127",
      "pitch": "D#4",
      "midi": 63,
      "start": 214.3,
      "duration": 0.285,
      "velocity": 0.57
    },
    {
      "id": "n-01128",
      "pitch": "G4",
      "midi": 67,
      "start": 214.586,
      "duration": 0.285,
      "velocity": 0.57
    },
    {
      "id": "n-01129",
      "pitch": "D#4",
      "midi": 63,
      "start": 214.871,
      "duration": 0.285,
      "velocity": 0.57
    },
    {
      "id": "n-01130",
      "pitch": "A#3",
      "midi": 58,
      "start": 215.157,
      "duration": 0.285,
      "velocity": 0.57
    },
    {
      "id": "n-01131",
      "pitch": "G3",
      "midi": 55,
      "start": 215.443,
      "duration": 0.285,
      "velocity": 0.57
    },
    {
      "id": "n-01132",
      "pitch": "D#3",
      "midi": 51,
      "start": 215.728,
      "duration": 0.285,
      "velocity": 0.57
    },
    {
      "id": "n-01133",
      "pitch": "A#4",
      "midi": 70,
      "start": 215.728,
      "duration": 0.285,
      "velocity": 0.57
    },
    {
      "id": "n-01134",
      "pitch": "A#2",
      "midi": 46,
      "start": 216.014,
      "duration": 0.285,
      "velocity": 0.57
    },
    {
      "id": "n-01135",
      "pitch": "D5",
      "midi": 74,
      "start": 216.014,
      "duration": 0.285,
      "velocity": 0.57
    },
    {
      "id": "n-01136",
      "pitch": "A2",
      "midi": 45,
      "start": 216.3,
      "duration": 0.285,
      "velocity": 0.57
    },
    {
      "id": "n-01137",
      "pitch": "C4",
      "midi": 60,
      "start": 216.3,
      "duration": 1.142,
      "velocity": 0.57
    },
    {
      "id": "n-01138",
      "pitch": "G4",
      "midi": 67,
      "start": 216.3,
      "duration": 0.57,
      "velocity": 0.57
    },
    {
      "id": "n-01139",
      "pitch": "C5",
      "midi": 72,
      "start": 216.3,
      "duration": 0.57,
      "velocity": 0.57
    },
    {
      "id": "n-01140",
      "pitch": "D#3",
      "midi": 51,
      "start": 216.586,
      "duration": 0.285,
      "velocity": 0.57
    },
    {
      "id": "n-01141",
      "pitch": "A2",
      "midi": 45,
      "start": 216.871,
      "duration": 0.285,
      "velocity": 0.57
    },
    {
      "id": "n-01142",
      "pitch": "F#4",
      "midi": 66,
      "start": 216.871,
      "duration": 0.542,
      "velocity": 0.57
    },
    {
      "id": "n-01143",
      "pitch": "D5",
      "midi": 74,
      "start": 216.871,
      "duration": 0.542,
      "velocity": 0.57
    },
    {
      "id": "n-01144",
      "pitch": "D2",
      "midi": 38,
      "start": 217.157,
      "duration": 0.285,
      "velocity": 0.57
    },
    {
      "id": "n-01145",
      "pitch": "G1",
      "midi": 31,
      "start": 217.443,
      "duration": 2.532,
      "velocity": 0.57
    },
    {
      "id": "n-01146",
      "pitch": "D4",
      "midi": 62,
      "start": 217.443,
      "duration": 0.665,
      "velocity": 0.57
    },
    {
      "id": "n-01147",
      "pitch": "G4",
      "midi": 67,
      "start": 217.443,
      "duration": 0.665,
      "velocity": 0.57
    },
    {
      "id": "n-01148",
      "pitch": "A#4",
      "midi": 70,
      "start": 217.443,
      "duration": 0.665,
      "velocity": 0.57
    },
    {
      "id": "n-01149",
      "pitch": "C#4",
      "midi": 61,
      "start": 218.109,
      "duration": 0.665,
      "velocity": 0.57
    },
    {
      "id": "n-01150",
      "pitch": "E4",
      "midi": 64,
      "start": 218.109,
      "duration": 0.665,
      "velocity": 0.57
    },
    {
      "id": "n-01151",
      "pitch": "A4",
      "midi": 69,
      "start": 218.109,
      "duration": 0.665,
      "velocity": 0.57
    },
    {
      "id": "n-01152",
      "pitch": "C#4",
      "midi": 61,
      "start": 218.776,
      "duration": 0.665,
      "velocity": 0.57
    },
    {
      "id": "n-01153",
      "pitch": "E4",
      "midi": 64,
      "start": 218.776,
      "duration": 0.665,
      "velocity": 0.57
    },
    {
      "id": "n-01154",
      "pitch": "A4",
      "midi": 69,
      "start": 218.776,
      "duration": 0.665,
      "velocity": 0.57
    },
    {
      "id": "n-01155",
      "pitch": "D4",
      "midi": 62,
      "start": 219.443,
      "duration": 0.665,
      "velocity": 0.57
    },
    {
      "id": "n-01156",
      "pitch": "G4",
      "midi": 67,
      "start": 219.443,
      "duration": 0.665,
      "velocity": 0.57
    },
    {
      "id": "n-01157",
      "pitch": "A#4",
      "midi": 70,
      "start": 219.443,
      "duration": 0.665,
      "velocity": 0.57
    },
    {
      "id": "n-01158",
      "pitch": "G2",
      "midi": 43,
      "start": 220.109,
      "duration": 2.532,
      "velocity": 0.57
    },
    {
      "id": "n-01159",
      "pitch": "D4",
      "midi": 62,
      "start": 220.109,
      "duration": 0.665,
      "velocity": 0.57
    },
    {
      "id": "n-01160",
      "pitch": "G4",
      "midi": 67,
      "start": 220.109,
      "duration": 0.665,
      "velocity": 0.57
    },
    {
      "id": "n-01161",
      "pitch": "A#4",
      "midi": 70,
      "start": 220.109,
      "duration": 0.665,
      "velocity": 0.57
    },
    {
      "id": "n-01162",
      "pitch": "C#4",
      "midi": 61,
      "start": 220.776,
      "duration": 0.665,
      "velocity": 0.57
    },
    {
      "id": "n-01163",
      "pitch": "E4",
      "midi": 64,
      "start": 220.776,
      "duration": 0.665,
      "velocity": 0.57
    },
    {
      "id": "n-01164",
      "pitch": "A4",
      "midi": 69,
      "start": 220.776,
      "duration": 0.665,
      "velocity": 0.57
    },
    {
      "id": "n-01165",
      "pitch": "C#4",
      "midi": 61,
      "start": 221.443,
      "duration": 1.332,
      "velocity": 0.57
    },
    {
      "id": "n-01166",
      "pitch": "E4",
      "midi": 64,
      "start": 221.443,
      "duration": 1.332,
      "velocity": 0.57
    },
    {
      "id": "n-01167",
      "pitch": "A4",
      "midi": 69,
      "start": 221.443,
      "duration": 1.332,
      "velocity": 0.57
    },
    {
      "id": "n-01168",
      "pitch": "G3",
      "midi": 55,
      "start": 222.776,
      "duration": 2.665,
      "velocity": 0.57
    },
    {
      "id": "n-01169",
      "pitch": "D4",
      "midi": 62,
      "start": 222.776,
      "duration": 0.665,
      "velocity": 0.57
    },
    {
      "id": "n-01170",
      "pitch": "G4",
      "midi": 67,
      "start": 222.776,
      "duration": 0.665,
      "velocity": 0.57
    },
    {
      "id": "n-01171",
      "pitch": "A#4",
      "midi": 70,
      "start": 222.776,
      "duration": 0.665,
      "velocity": 0.57
    },
    {
      "id": "n-01172",
      "pitch": "C#4",
      "midi": 61,
      "start": 223.443,
      "duration": 0.665,
      "velocity": 0.57
    },
    {
      "id": "n-01173",
      "pitch": "E4",
      "midi": 64,
      "start": 223.443,
      "duration": 0.665,
      "velocity": 0.57
    },
    {
      "id": "n-01174",
      "pitch": "A4",
      "midi": 69,
      "start": 223.443,
      "duration": 0.665,
      "velocity": 0.57
    },
    {
      "id": "n-01175",
      "pitch": "C#4",
      "midi": 61,
      "start": 224.109,
      "duration": 0.665,
      "velocity": 0.57
    },
    {
      "id": "n-01176",
      "pitch": "E4",
      "midi": 64,
      "start": 224.109,
      "duration": 0.665,
      "velocity": 0.57
    },
    {
      "id": "n-01177",
      "pitch": "A4",
      "midi": 69,
      "start": 224.109,
      "duration": 0.665,
      "velocity": 0.57
    },
    {
      "id": "n-01178",
      "pitch": "D4",
      "midi": 62,
      "start": 224.776,
      "duration": 0.665,
      "velocity": 0.57
    },
    {
      "id": "n-01179",
      "pitch": "G4",
      "midi": 67,
      "start": 224.776,
      "duration": 0.665,
      "velocity": 0.57
    },
    {
      "id": "n-01180",
      "pitch": "A#4",
      "midi": 70,
      "start": 224.776,
      "duration": 0.221,
      "velocity": 0.57
    },
    {
      "id": "n-01181",
      "pitch": "D5",
      "midi": 74,
      "start": 224.998,
      "duration": 0.221,
      "velocity": 0.57
    },
    {
      "id": "n-01182",
      "pitch": "A#4",
      "midi": 70,
      "start": 225.221,
      "duration": 0.221,
      "velocity": 0.57
    },
    {
      "id": "n-01183",
      "pitch": "A3",
      "midi": 57,
      "start": 225.443,
      "duration": 1.332,
      "velocity": 0.57
    },
    {
      "id": "n-01184",
      "pitch": "C#4",
      "midi": 61,
      "start": 225.443,
      "duration": 1.332,
      "velocity": 0.57
    },
    {
      "id": "n-01185",
      "pitch": "A4",
      "midi": 69,
      "start": 225.443,
      "duration": 0.665,
      "velocity": 0.57
    },
    {
      "id": "n-01186",
      "pitch": "G4",
      "midi": 67,
      "start": 226.109,
      "duration": 0.665,
      "velocity": 0.57
    },
    {
      "id": "n-01187",
      "pitch": "D3",
      "midi": 50,
      "start": 226.776,
      "duration": 1.265,
      "velocity": 0.57
    },
    {
      "id": "n-01188",
      "pitch": "A3",
      "midi": 57,
      "start": 226.776,
      "duration": 1.265,
      "velocity": 0.57
    },
    {
      "id": "n-01189",
      "pitch": "D4",
      "midi": 62,
      "start": 226.776,
      "duration": 1.265,
      "velocity": 0.57
    },
    {
      "id": "n-01190",
      "pitch": "F4",
      "midi": 65,
      "start": 226.776,
      "duration": 1.265,
      "velocity": 0.57
    },
    {
      "id": "n-01191",
      "pitch": "A4",
      "midi": 69,
      "start": 227.443,
      "duration": 0.632,
      "velocity": 0.57
    },
    {
      "id": "n-01192",
      "pitch": "D5",
      "midi": 74,
      "start": 228.109,
      "duration": 0.665,
      "velocity": 0.6
    },
    {
      "id": "n-01193",
      "pitch": "G5",
      "midi": 79,
      "start": 228.109,
      "duration": 0.665,
      "velocity": 0.6
    },
    {
      "id": "n-01194",
      "pitch": "A#5",
      "midi": 82,
      "start": 228.109,
      "duration": 0.665,
      "velocity": 0.6
    },
    {
      "id": "n-01195",
      "pitch": "C#5",
      "midi": 73,
      "start": 228.776,
      "duration": 0.665,
      "velocity": 0.6
    },
    {
      "id": "n-01196",
      "pitch": "E5",
      "midi": 76,
      "start": 228.776,
      "duration": 0.665,
      "velocity": 0.6
    },
    {
      "id": "n-01197",
      "pitch": "A5",
      "midi": 81,
      "start": 228.776,
      "duration": 0.665,
      "velocity": 0.6
    },
    {
      "id": "n-01198",
      "pitch": "C#5",
      "midi": 73,
      "start": 229.443,
      "duration": 0.665,
      "velocity": 0.6
    },
    {
      "id": "n-01199",
      "pitch": "E5",
      "midi": 76,
      "start": 229.443,
      "duration": 0.665,
      "velocity": 0.6
    },
    {
      "id": "n-01200",
      "pitch": "A5",
      "midi": 81,
      "start": 229.443,
      "duration": 0.665,
      "velocity": 0.6
    },
    {
      "id": "n-01201",
      "pitch": "D5",
      "midi": 74,
      "start": 230.109,
      "duration": 0.665,
      "velocity": 0.6
    },
    {
      "id": "n-01202",
      "pitch": "G5",
      "midi": 79,
      "start": 230.109,
      "duration": 0.665,
      "velocity": 0.6
    },
    {
      "id": "n-01203",
      "pitch": "A#5",
      "midi": 82,
      "start": 230.109,
      "duration": 0.665,
      "velocity": 0.6
    },
    {
      "id": "n-01204",
      "pitch": "G4",
      "midi": 67,
      "start": 230.776,
      "duration": 1.999,
      "velocity": 0.6
    },
    {
      "id": "n-01205",
      "pitch": "D5",
      "midi": 74,
      "start": 230.776,
      "duration": 0.665,
      "velocity": 0.6
    },
    {
      "id": "n-01206",
      "pitch": "G5",
      "midi": 79,
      "start": 230.776,
      "duration": 0.665,
      "velocity": 0.6
    },
    {
      "id": "n-01207",
      "pitch": "A#5",
      "midi": 82,
      "start": 230.776,
      "duration": 0.665,
      "velocity": 0.6
    },
    {
      "id": "n-01208",
      "pitch": "C#5",
      "midi": 73,
      "start": 231.443,
      "duration": 0.665,
      "velocity": 0.6
    },
    {
      "id": "n-01209",
      "pitch": "E5",
      "midi": 76,
      "start": 231.443,
      "duration": 0.665,
      "velocity": 0.6
    },
    {
      "id": "n-01210",
      "pitch": "A5",
      "midi": 81,
      "start": 231.443,
      "duration": 0.665,
      "velocity": 0.6
    },
    {
      "id": "n-01211",
      "pitch": "C#5",
      "midi": 73,
      "start": 232.109,
      "duration": 1.265,
      "velocity": 0.6
    },
    {
      "id": "n-01212",
      "pitch": "E5",
      "midi": 76,
      "start": 232.109,
      "duration": 1.265,
      "velocity": 0.6
    },
    {
      "id": "n-01213",
      "pitch": "A5",
      "midi": 81,
      "start": 232.109,
      "duration": 1.265,
      "velocity": 0.6
    },
    {
      "id": "n-01214",
      "pitch": "F4",
      "midi": 65,
      "start": 232.776,
      "duration": 0.632,
      "velocity": 0.6
    },
    {
      "id": "n-01215",
      "pitch": "E4",
      "midi": 64,
      "start": 233.443,
      "duration": 1.999,
      "velocity": 0.5
    },
    {
      "id": "n-01216",
      "pitch": "D5",
      "midi": 74,
      "start": 233.443,
      "duration": 0.665,
      "velocity": 0.5
    },
    {
      "id": "n-01217",
      "pitch": "G5",
      "midi": 79,
      "start": 233.443,
      "duration": 0.665,
      "velocity": 0.5
    },
    {
      "id": "n-01218",
      "pitch": "A#5",
      "midi": 82,
      "start": 233.443,
      "duration": 0.665,
      "velocity": 0.5
    },
    {
      "id": "n-01219",
      "pitch": "C#5",
      "midi": 73,
      "start": 234.109,
      "duration": 0.665,
      "velocity": 0.5
    },
    {
      "id": "n-01220",
      "pitch": "E5",
      "midi": 76,
      "start": 234.109,
      "duration": 0.665,
      "velocity": 0.5
    },
    {
      "id": "n-01221",
      "pitch": "A5",
      "midi": 81,
      "start": 234.109,
      "duration": 0.665,
      "velocity": 0.5
    },
    {
      "id": "n-01222",
      "pitch": "C#5",
      "midi": 73,
      "start": 234.776,
      "duration": 0.665,
      "velocity": 0.5
    },
    {
      "id": "n-01223",
      "pitch": "E5",
      "midi": 76,
      "start": 234.776,
      "duration": 0.665,
      "velocity": 0.5
    },
    {
      "id": "n-01224",
      "pitch": "A5",
      "midi": 81,
      "start": 234.776,
      "duration": 0.665,
      "velocity": 0.5
    },
    {
      "id": "n-01225",
      "pitch": "D4",
      "midi": 62,
      "start": 235.443,
      "duration": 0.748,
      "velocity": 0.5
    },
    {
      "id": "n-01226",
      "pitch": "D5",
      "midi": 74,
      "start": 235.443,
      "duration": 0.748,
      "velocity": 0.5
    },
    {
      "id": "n-01227",
      "pitch": "G5",
      "midi": 79,
      "start": 235.443,
      "duration": 0.748,
      "velocity": 0.5
    },
    {
      "id": "n-01228",
      "pitch": "A#5",
      "midi": 82,
      "start": 235.443,
      "duration": 0.248,
      "velocity": 0.5
    },
    {
      "id": "n-01229",
      "pitch": "D6",
      "midi": 86,
      "start": 235.693,
      "duration": 0.248,
      "velocity": 0.5
    },
    {
      "id": "n-01230",
      "pitch": "A#5",
      "midi": 82,
      "start": 235.943,
      "duration": 0.248,
      "velocity": 0.5
    },
    {
      "id": "n-01231",
      "pitch": "C4",
      "midi": 60,
      "start": 236.193,
      "duration": 2.848,
      "velocity": 0.5
    },
    {
      "id": "n-01232",
      "pitch": "A#4",
      "midi": 70,
      "start": 236.193,
      "duration": 2.848,
      "velocity": 0.5
    },
    {
      "id": "n-01233",
      "pitch": "E5",
      "midi": 76,
      "start": 236.193,
      "duration": 2.998,
      "velocity": 0.5
    },
    {
      "id": "n-01234",
      "pitch": "A5",
      "midi": 81,
      "start": 236.193,
      "duration": 1.498,
      "velocity": 0.5
    },
    {
      "id": "n-01235",
      "pitch": "G5",
      "midi": 79,
      "start": 237.693,
      "duration": 1.423,
      "velocity": 0.5
    },
    {
      "id": "n-01236",
      "pitch": "F1",
      "midi": 29,
      "start": 239.193,
      "duration": 0.373,
      "velocity": 0.5
    },
    {
      "id": "n-01237",
      "pitch": "A5",
      "midi": 81,
      "start": 239.193,
      "duration": 2.848,
      "velocity": 0.5
    },
    {
      "id": "n-01238",
      "pitch": "F6",
      "midi": 89,
      "start": 239.193,
      "duration": 2.848,
      "velocity": 0.5
    },
    {
      "id": "n-01239",
      "pitch": "A6",
      "midi": 93,
      "start": 239.193,
      "duration": 2.848,
      "velocity": 0.5
    },
    {
      "id": "n-01240",
      "pitch": "F2",
      "midi": 41,
      "start": 239.568,
      "duration": 0.373,
      "velocity": 0.5
    },
    {
      "id": "n-01241",
      "pitch": "C3",
      "midi": 48,
      "start": 239.943,
      "duration": 0.373,
      "velocity": 0.5
    },
    {
      "id": "n-01242",
      "pitch": "F3",
      "midi": 53,
      "start": 240.318,
      "duration": 0.373,
      "velocity": 0.5
    },
    {
      "id": "n-01243",
      "pitch": "A3",
      "midi": 57,
      "start": 240.693,
      "duration": 0.373,
      "velocity": 0.5
    },
    {
      "id": "n-01244",
      "pitch": "C4",
      "midi": 60,
      "start": 241.068,
      "duration": 0.373,
      "velocity": 0.5
    },
    {
      "id": "n-01245",
      "pitch": "F4",
      "midi": 65,
      "start": 241.443,
      "duration": 3.223,
      "velocity": 0.5
    },
    {
      "id": "n-01246",
      "pitch": "A4",
      "midi": 69,
      "start": 242.193,
      "duration": 2.848,
      "velocity": 0.5
    },
    {
      "id": "n-01247",
      "pitch": "C5",
      "midi": 72,
      "start": 242.193,
      "duration": 2.848,
      "velocity": 0.5
    },
    {
      "id": "n-01248",
      "pitch": "A5",
      "midi": 81,
      "start": 242.193,
      "duration": 2.848,
      "velocity": 0.5
    }
  ]
}
