{
  "id": "fur-elise",
  "title": "Fur Elise",
  "source": "L. V. Beethoven; Breitkopf & Hartel, 1888; Mutopia Project",
  "sourceInfo": {
    "provider": "Mutopia Project",
    "sourceUrl": "https://www.mutopiaproject.org/cgibin/piece-info.cgi?id=931",
    "midiUrl": "https://www.mutopiaproject.org/ftp/BeethovenLv/WoO59/fur_Elise_WoO59/fur_Elise_WoO59.mid",
    "license": "Public Domain",
    "composer": "L. V. Beethoven",
    "editor": "Stelios Samelis",
    "mutopiaId": "931"
  },
  "bpm": 72,
  "beatsPerBar": 3,
  "defaultSecondsPerBeat": 0.8333,
  "createdAt": "2026-05-25T23:03:31.643Z",
  "updatedAt": "2026-05-25T23:03:31.643Z",
  "notes": [
    {
      "id": "n-00001",
      "pitch": "E5",
      "midi": 76,
      "start": 0,
      "duration": 0.208,
      "velocity": 0.49
    },
    {
      "id": "n-00002",
      "pitch": "D#5",
      "midi": 75,
      "start": 0.208,
      "duration": 0.208,
      "velocity": 0.49
    },
    {
      "id": "n-00003",
      "pitch": "E5",
      "midi": 76,
      "start": 0.417,
      "duration": 0.208,
      "velocity": 0.49
    },
    {
      "id": "n-00004",
      "pitch": "D#5",
      "midi": 75,
      "start": 0.625,
      "duration": 0.208,
      "velocity": 0.49
    },
    {
      "id": "n-00005",
      "pitch": "E5",
      "midi": 76,
      "start": 0.833,
      "duration": 0.208,
      "velocity": 0.49
    },
    {
      "id": "n-00006",
      "pitch": "B4",
      "midi": 71,
      "start": 1.042,
      "duration": 0.208,
      "velocity": 0.49
    },
    {
      "id": "n-00007",
      "pitch": "D5",
      "midi": 74,
      "start": 1.25,
      "duration": 0.208,
      "velocity": 0.49
    },
    {
      "id": "n-00008",
      "pitch": "C5",
      "midi": 72,
      "start": 1.458,
      "duration": 0.208,
      "velocity": 0.49
    },
    {
      "id": "n-00009",
      "pitch": "A2",
      "midi": 45,
      "start": 1.667,
      "duration": 0.208,
      "velocity": 0.49
    },
    {
      "id": "n-00010",
      "pitch": "A4",
      "midi": 69,
      "start": 1.667,
      "duration": 0.417,
      "velocity": 0.49
    },
    {
      "id": "n-00011",
      "pitch": "E3",
      "midi": 52,
      "start": 1.875,
      "duration": 0.208,
      "velocity": 0.49
    },
    {
      "id": "n-00012",
      "pitch": "A3",
      "midi": 57,
      "start": 2.083,
      "duration": 0.208,
      "velocity": 0.49
    },
    {
      "id": "n-00013",
      "pitch": "C4",
      "midi": 60,
      "start": 2.292,
      "duration": 0.208,
      "velocity": 0.49
    },
    {
      "id": "n-00014",
      "pitch": "E4",
      "midi": 64,
      "start": 2.5,
      "duration": 0.208,
      "velocity": 0.49
    },
    {
      "id": "n-00015",
      "pitch": "A4",
      "midi": 69,
      "start": 2.708,
      "duration": 0.208,
      "velocity": 0.49
    },
    {
      "id": "n-00016",
      "pitch": "E2",
      "midi": 40,
      "start": 2.917,
      "duration": 0.208,
      "velocity": 0.49
    },
    {
      "id": "n-00017",
      "pitch": "B4",
      "midi": 71,
      "start": 2.917,
      "duration": 0.417,
      "velocity": 0.49
    },
    {
      "id": "n-00018",
      "pitch": "E3",
      "midi": 52,
      "start": 3.125,
      "duration": 0.208,
      "velocity": 0.49
    },
    {
      "id": "n-00019",
      "pitch": "G#3",
      "midi": 56,
      "start": 3.333,
      "duration": 0.208,
      "velocity": 0.49
    },
    {
      "id": "n-00020",
      "pitch": "E4",
      "midi": 64,
      "start": 3.542,
      "duration": 0.208,
      "velocity": 0.49
    },
    {
      "id": "n-00021",
      "pitch": "G#4",
      "midi": 68,
      "start": 3.75,
      "duration": 0.208,
      "velocity": 0.49
    },
    {
      "id": "n-00022",
      "pitch": "B4",
      "midi": 71,
      "start": 3.958,
      "duration": 0.208,
      "velocity": 0.49
    },
    {
      "id": "n-00023",
      "pitch": "A2",
      "midi": 45,
      "start": 4.167,
      "duration": 0.208,
      "velocity": 0.49
    },
    {
      "id": "n-00024",
      "pitch": "C5",
      "midi": 72,
      "start": 4.167,
      "duration": 0.417,
      "velocity": 0.49
    },
    {
      "id": "n-00025",
      "pitch": "E3",
      "midi": 52,
      "start": 4.375,
      "duration": 0.208,
      "velocity": 0.49
    },
    {
      "id": "n-00026",
      "pitch": "A3",
      "midi": 57,
      "start": 4.583,
      "duration": 0.208,
      "velocity": 0.49
    },
    {
      "id": "n-00027",
      "pitch": "E4",
      "midi": 64,
      "start": 4.792,
      "duration": 0.208,
      "velocity": 0.49
    },
    {
      "id": "n-00028",
      "pitch": "E5",
      "midi": 76,
      "start": 5,
      "duration": 0.208,
      "velocity": 0.49
    },
    {
      "id": "n-00029",
      "pitch": "D#5",
      "midi": 75,
      "start": 5.208,
      "duration": 0.208,
      "velocity": 0.49
    },
    {
      "id": "n-00030",
      "pitch": "E5",
      "midi": 76,
      "start": 5.417,
      "duration": 0.208,
      "velocity": 0.49
    },
    {
      "id": "n-00031",
      "pitch": "D#5",
      "midi": 75,
      "start": 5.625,
      "duration": 0.208,
      "velocity": 0.49
    },
    {
      "id": "n-00032",
      "pitch": "E5",
      "midi": 76,
      "start": 5.833,
      "duration": 0.208,
      "velocity": 0.49
    },
    {
      "id": "n-00033",
      "pitch": "B4",
      "midi": 71,
      "start": 6.042,
      "duration": 0.208,
      "velocity": 0.49
    },
    {
      "id": "n-00034",
      "pitch": "D5",
      "midi": 74,
      "start": 6.25,
      "duration": 0.208,
      "velocity": 0.49
    },
    {
      "id": "n-00035",
      "pitch": "C5",
      "midi": 72,
      "start": 6.458,
      "duration": 0.208,
      "velocity": 0.49
    },
    {
      "id": "n-00036",
      "pitch": "A2",
      "midi": 45,
      "start": 6.667,
      "duration": 0.208,
      "velocity": 0.49
    },
    {
      "id": "n-00037",
      "pitch": "A4",
      "midi": 69,
      "start": 6.667,
      "duration": 0.417,
      "velocity": 0.49
    },
    {
      "id": "n-00038",
      "pitch": "E3",
      "midi": 52,
      "start": 6.875,
      "duration": 0.208,
      "velocity": 0.49
    },
    {
      "id": "n-00039",
      "pitch": "A3",
      "midi": 57,
      "start": 7.083,
      "duration": 0.208,
      "velocity": 0.49
    },
    {
      "id": "n-00040",
      "pitch": "C4",
      "midi": 60,
      "start": 7.292,
      "duration": 0.208,
      "velocity": 0.49
    },
    {
      "id": "n-00041",
      "pitch": "E4",
      "midi": 64,
      "start": 7.5,
      "duration": 0.208,
      "velocity": 0.49
    },
    {
      "id": "n-00042",
      "pitch": "A4",
      "midi": 69,
      "start": 7.708,
      "duration": 0.208,
      "velocity": 0.49
    },
    {
      "id": "n-00043",
      "pitch": "E2",
      "midi": 40,
      "start": 7.917,
      "duration": 0.208,
      "velocity": 0.49
    },
    {
      "id": "n-00044",
      "pitch": "B4",
      "midi": 71,
      "start": 7.917,
      "duration": 0.417,
      "velocity": 0.49
    },
    {
      "id": "n-00045",
      "pitch": "E3",
      "midi": 52,
      "start": 8.125,
      "duration": 0.208,
      "velocity": 0.49
    },
    {
      "id": "n-00046",
      "pitch": "G#3",
      "midi": 56,
      "start": 8.333,
      "duration": 0.208,
      "velocity": 0.49
    },
    {
      "id": "n-00047",
      "pitch": "E4",
      "midi": 64,
      "start": 8.542,
      "duration": 0.208,
      "velocity": 0.49
    },
    {
      "id": "n-00048",
      "pitch": "C5",
      "midi": 72,
      "start": 8.75,
      "duration": 0.208,
      "velocity": 0.49
    },
    {
      "id": "n-00049",
      "pitch": "B4",
      "midi": 71,
      "start": 8.958,
      "duration": 0.208,
      "velocity": 0.49
    },
    {
      "id": "n-00050",
      "pitch": "A2",
      "midi": 45,
      "start": 9.167,
      "duration": 0.208,
      "velocity": 0.49
    },
    {
      "id": "n-00051",
      "pitch": "A4",
      "midi": 69,
      "start": 9.167,
      "duration": 0.833,
      "velocity": 0.49
    },
    {
      "id": "n-00052",
      "pitch": "E3",
      "midi": 52,
      "start": 9.375,
      "duration": 0.208,
      "velocity": 0.49
    },
    {
      "id": "n-00053",
      "pitch": "A3",
      "midi": 57,
      "start": 9.583,
      "duration": 0.208,
      "velocity": 0.49
    },
    {
      "id": "n-00054",
      "pitch": "A2",
      "midi": 45,
      "start": 10,
      "duration": 0.208,
      "velocity": 0.49
    },
    {
      "id": "n-00055",
      "pitch": "A4",
      "midi": 69,
      "start": 10,
      "duration": 0.417,
      "velocity": 0.49
    },
    {
      "id": "n-00056",
      "pitch": "E3",
      "midi": 52,
      "start": 10.208,
      "duration": 0.208,
      "velocity": 0.49
    },
    {
      "id": "n-00057",
      "pitch": "A3",
      "midi": 57,
      "start": 10.417,
      "duration": 0.208,
      "velocity": 0.49
    },
    {
      "id": "n-00058",
      "pitch": "B4",
      "midi": 71,
      "start": 10.625,
      "duration": 0.208,
      "velocity": 0.49
    },
    {
      "id": "n-00059",
      "pitch": "C5",
      "midi": 72,
      "start": 10.833,
      "duration": 0.208,
      "velocity": 0.49
    },
    {
      "id": "n-00060",
      "pitch": "D5",
      "midi": 74,
      "start": 11.042,
      "duration": 0.208,
      "velocity": 0.49
    },
    {
      "id": "n-00061",
      "pitch": "C3",
      "midi": 48,
      "start": 11.25,
      "duration": 0.208,
      "velocity": 0.49
    },
    {
      "id": "n-00062",
      "pitch": "E5",
      "midi": 76,
      "start": 11.25,
      "duration": 0.625,
      "velocity": 0.49
    },
    {
      "id": "n-00063",
      "pitch": "G3",
      "midi": 55,
      "start": 11.458,
      "duration": 0.208,
      "velocity": 0.49
    },
    {
      "id": "n-00064",
      "pitch": "C4",
      "midi": 60,
      "start": 11.667,
      "duration": 0.208,
      "velocity": 0.49
    },
    {
      "id": "n-00065",
      "pitch": "G4",
      "midi": 67,
      "start": 11.875,
      "duration": 0.208,
      "velocity": 0.49
    },
    {
      "id": "n-00066",
      "pitch": "F5",
      "midi": 77,
      "start": 12.083,
      "duration": 0.208,
      "velocity": 0.49
    },
    {
      "id": "n-00067",
      "pitch": "E5",
      "midi": 76,
      "start": 12.292,
      "duration": 0.208,
      "velocity": 0.49
    },
    {
      "id": "n-00068",
      "pitch": "G2",
      "midi": 43,
      "start": 12.5,
      "duration": 0.208,
      "velocity": 0.49
    },
    {
      "id": "n-00069",
      "pitch": "D5",
      "midi": 74,
      "start": 12.5,
      "duration": 0.625,
      "velocity": 0.49
    },
    {
      "id": "n-00070",
      "pitch": "G3",
      "midi": 55,
      "start": 12.708,
      "duration": 0.208,
      "velocity": 0.49
    },
    {
      "id": "n-00071",
      "pitch": "B3",
      "midi": 59,
      "start": 12.917,
      "duration": 0.208,
      "velocity": 0.49
    },
    {
      "id": "n-00072",
      "pitch": "F4",
      "midi": 65,
      "start": 13.125,
      "duration": 0.208,
      "velocity": 0.49
    },
    {
      "id": "n-00073",
      "pitch": "E5",
      "midi": 76,
      "start": 13.333,
      "duration": 0.208,
      "velocity": 0.49
    },
    {
      "id": "n-00074",
      "pitch": "D5",
      "midi": 74,
      "start": 13.542,
      "duration": 0.208,
      "velocity": 0.49
    },
    {
      "id": "n-00075",
      "pitch": "A2",
      "midi": 45,
      "start": 13.75,
      "duration": 0.208,
      "velocity": 0.49
    },
    {
      "id": "n-00076",
      "pitch": "C5",
      "midi": 72,
      "start": 13.75,
      "duration": 0.625,
      "velocity": 0.49
    },
    {
      "id": "n-00077",
      "pitch": "E3",
      "midi": 52,
      "start": 13.958,
      "duration": 0.208,
      "velocity": 0.49
    },
    {
      "id": "n-00078",
      "pitch": "A3",
      "midi": 57,
      "start": 14.167,
      "duration": 0.208,
      "velocity": 0.49
    },
    {
      "id": "n-00079",
      "pitch": "E4",
      "midi": 64,
      "start": 14.375,
      "duration": 0.208,
      "velocity": 0.49
    },
    {
      "id": "n-00080",
      "pitch": "D5",
      "midi": 74,
      "start": 14.583,
      "duration": 0.208,
      "velocity": 0.49
    },
    {
      "id": "n-00081",
      "pitch": "C5",
      "midi": 72,
      "start": 14.792,
      "duration": 0.208,
      "velocity": 0.49
    },
    {
      "id": "n-00082",
      "pitch": "E2",
      "midi": 40,
      "start": 15,
      "duration": 0.208,
      "velocity": 0.49
    },
    {
      "id": "n-00083",
      "pitch": "B4",
      "midi": 71,
      "start": 15,
      "duration": 0.417,
      "velocity": 0.49
    },
    {
      "id": "n-00084",
      "pitch": "E3",
      "midi": 52,
      "start": 15.208,
      "duration": 0.208,
      "velocity": 0.49
    },
    {
      "id": "n-00085",
      "pitch": "E4",
      "midi": 64,
      "start": 15.417,
      "duration": 0.208,
      "velocity": 0.49
    },
    {
      "id": "n-00086",
      "pitch": "E4",
      "midi": 64,
      "start": 15.625,
      "duration": 0.208,
      "velocity": 0.49
    },
    {
      "id": "n-00087",
      "pitch": "E5",
      "midi": 76,
      "start": 15.833,
      "duration": 0.208,
      "velocity": 0.49
    },
    {
      "id": "n-00088",
      "pitch": "E4",
      "midi": 64,
      "start": 16.042,
      "duration": 0.208,
      "velocity": 0.49
    },
    {
      "id": "n-00089",
      "pitch": "E5",
      "midi": 76,
      "start": 16.25,
      "duration": 0.208,
      "velocity": 0.49
    },
    {
      "id": "n-00090",
      "pitch": "E5",
      "midi": 76,
      "start": 16.458,
      "duration": 0.208,
      "velocity": 0.49
    },
    {
      "id": "n-00091",
      "pitch": "E6",
      "midi": 88,
      "start": 16.667,
      "duration": 0.208,
      "velocity": 0.49
    },
    {
      "id": "n-00092",
      "pitch": "D#5",
      "midi": 75,
      "start": 16.875,
      "duration": 0.208,
      "velocity": 0.49
    },
    {
      "id": "n-00093",
      "pitch": "E5",
      "midi": 76,
      "start": 17.083,
      "duration": 0.208,
      "velocity": 0.49
    },
    {
      "id": "n-00094",
      "pitch": "D#5",
      "midi": 75,
      "start": 17.292,
      "duration": 0.208,
      "velocity": 0.49
    },
    {
      "id": "n-00095",
      "pitch": "E5",
      "midi": 76,
      "start": 17.5,
      "duration": 0.417,
      "velocity": 0.49
    },
    {
      "id": "n-00096",
      "pitch": "D#5",
      "midi": 75,
      "start": 17.708,
      "duration": 0.208,
      "velocity": 0.49
    },
    {
      "id": "n-00097",
      "pitch": "E5",
      "midi": 76,
      "start": 17.917,
      "duration": 0.208,
      "velocity": 0.49
    },
    {
      "id": "n-00098",
      "pitch": "D#5",
      "midi": 75,
      "start": 18.125,
      "duration": 0.208,
      "velocity": 0.49
    },
    {
      "id": "n-00099",
      "pitch": "E5",
      "midi": 76,
      "start": 18.333,
      "duration": 0.208,
      "velocity": 0.49
    },
    {
      "id": "n-00100",
      "pitch": "D#5",
      "midi": 75,
      "start": 18.542,
      "duration": 0.208,
      "velocity": 0.49
    },
    {
      "id": "n-00101",
      "pitch": "E5",
      "midi": 76,
      "start": 18.75,
      "duration": 0.208,
      "velocity": 0.49
    },
    {
      "id": "n-00102",
      "pitch": "D#5",
      "midi": 75,
      "start": 18.958,
      "duration": 0.208,
      "velocity": 0.49
    },
    {
      "id": "n-00103",
      "pitch": "E5",
      "midi": 76,
      "start": 19.167,
      "duration": 0.208,
      "velocity": 0.49
    },
    {
      "id": "n-00104",
      "pitch": "B4",
      "midi": 71,
      "start": 19.375,
      "duration": 0.208,
      "velocity": 0.49
    },
    {
      "id": "n-00105",
      "pitch": "D5",
      "midi": 74,
      "start": 19.583,
      "duration": 0.208,
      "velocity": 0.49
    },
    {
      "id": "n-00106",
      "pitch": "C5",
      "midi": 72,
      "start": 19.792,
      "duration": 0.208,
      "velocity": 0.49
    },
    {
      "id": "n-00107",
      "pitch": "A2",
      "midi": 45,
      "start": 20,
      "duration": 0.208,
      "velocity": 0.49
    },
    {
      "id": "n-00108",
      "pitch": "A4",
      "midi": 69,
      "start": 20,
      "duration": 0.417,
      "velocity": 0.49
    },
    {
      "id": "n-00109",
      "pitch": "E3",
      "midi": 52,
      "start": 20.208,
      "duration": 0.208,
      "velocity": 0.49
    },
    {
      "id": "n-00110",
      "pitch": "A3",
      "midi": 57,
      "start": 20.417,
      "duration": 0.208,
      "velocity": 0.49
    },
    {
      "id": "n-00111",
      "pitch": "C4",
      "midi": 60,
      "start": 20.625,
      "duration": 0.208,
      "velocity": 0.49
    },
    {
      "id": "n-00112",
      "pitch": "E4",
      "midi": 64,
      "start": 20.833,
      "duration": 0.208,
      "velocity": 0.49
    },
    {
      "id": "n-00113",
      "pitch": "A4",
      "midi": 69,
      "start": 21.042,
      "duration": 0.208,
      "velocity": 0.49
    },
    {
      "id": "n-00114",
      "pitch": "E2",
      "midi": 40,
      "start": 21.25,
      "duration": 0.208,
      "velocity": 0.49
    },
    {
      "id": "n-00115",
      "pitch": "B4",
      "midi": 71,
      "start": 21.25,
      "duration": 0.417,
      "velocity": 0.49
    },
    {
      "id": "n-00116",
      "pitch": "E3",
      "midi": 52,
      "start": 21.458,
      "duration": 0.208,
      "velocity": 0.49
    },
    {
      "id": "n-00117",
      "pitch": "G#3",
      "midi": 56,
      "start": 21.667,
      "duration": 0.208,
      "velocity": 0.49
    },
    {
      "id": "n-00118",
      "pitch": "E4",
      "midi": 64,
      "start": 21.875,
      "duration": 0.208,
      "velocity": 0.49
    },
    {
      "id": "n-00119",
      "pitch": "G#4",
      "midi": 68,
      "start": 22.083,
      "duration": 0.208,
      "velocity": 0.49
    },
    {
      "id": "n-00120",
      "pitch": "B4",
      "midi": 71,
      "start": 22.292,
      "duration": 0.208,
      "velocity": 0.49
    },
    {
      "id": "n-00121",
      "pitch": "A2",
      "midi": 45,
      "start": 22.5,
      "duration": 0.208,
      "velocity": 0.49
    },
    {
      "id": "n-00122",
      "pitch": "C5",
      "midi": 72,
      "start": 22.5,
      "duration": 0.417,
      "velocity": 0.49
    },
    {
      "id": "n-00123",
      "pitch": "E3",
      "midi": 52,
      "start": 22.708,
      "duration": 0.208,
      "velocity": 0.49
    },
    {
      "id": "n-00124",
      "pitch": "A3",
      "midi": 57,
      "start": 22.917,
      "duration": 0.208,
      "velocity": 0.49
    },
    {
      "id": "n-00125",
      "pitch": "E4",
      "midi": 64,
      "start": 23.125,
      "duration": 0.208,
      "velocity": 0.49
    },
    {
      "id": "n-00126",
      "pitch": "E5",
      "midi": 76,
      "start": 23.333,
      "duration": 0.208,
      "velocity": 0.49
    },
    {
      "id": "n-00127",
      "pitch": "D#5",
      "midi": 75,
      "start": 23.542,
      "duration": 0.208,
      "velocity": 0.49
    },
    {
      "id": "n-00128",
      "pitch": "E5",
      "midi": 76,
      "start": 23.75,
      "duration": 0.208,
      "velocity": 0.49
    },
    {
      "id": "n-00129",
      "pitch": "D#5",
      "midi": 75,
      "start": 23.958,
      "duration": 0.208,
      "velocity": 0.49
    },
    {
      "id": "n-00130",
      "pitch": "E5",
      "midi": 76,
      "start": 24.167,
      "duration": 0.208,
      "velocity": 0.49
    },
    {
      "id": "n-00131",
      "pitch": "B4",
      "midi": 71,
      "start": 24.375,
      "duration": 0.208,
      "velocity": 0.49
    },
    {
      "id": "n-00132",
      "pitch": "D5",
      "midi": 74,
      "start": 24.583,
      "duration": 0.208,
      "velocity": 0.49
    },
    {
      "id": "n-00133",
      "pitch": "C5",
      "midi": 72,
      "start": 24.792,
      "duration": 0.208,
      "velocity": 0.49
    },
    {
      "id": "n-00134",
      "pitch": "A2",
      "midi": 45,
      "start": 25,
      "duration": 0.208,
      "velocity": 0.49
    },
    {
      "id": "n-00135",
      "pitch": "A4",
      "midi": 69,
      "start": 25,
      "duration": 0.417,
      "velocity": 0.49
    },
    {
      "id": "n-00136",
      "pitch": "E3",
      "midi": 52,
      "start": 25.208,
      "duration": 0.208,
      "velocity": 0.49
    },
    {
      "id": "n-00137",
      "pitch": "A3",
      "midi": 57,
      "start": 25.417,
      "duration": 0.208,
      "velocity": 0.49
    },
    {
      "id": "n-00138",
      "pitch": "C4",
      "midi": 60,
      "start": 25.625,
      "duration": 0.208,
      "velocity": 0.49
    },
    {
      "id": "n-00139",
      "pitch": "E4",
      "midi": 64,
      "start": 25.833,
      "duration": 0.208,
      "velocity": 0.49
    },
    {
      "id": "n-00140",
      "pitch": "A4",
      "midi": 69,
      "start": 26.042,
      "duration": 0.208,
      "velocity": 0.49
    },
    {
      "id": "n-00141",
      "pitch": "E2",
      "midi": 40,
      "start": 26.25,
      "duration": 0.208,
      "velocity": 0.49
    },
    {
      "id": "n-00142",
      "pitch": "B4",
      "midi": 71,
      "start": 26.25,
      "duration": 0.417,
      "velocity": 0.49
    },
    {
      "id": "n-00143",
      "pitch": "E3",
      "midi": 52,
      "start": 26.458,
      "duration": 0.208,
      "velocity": 0.49
    },
    {
      "id": "n-00144",
      "pitch": "G#3",
      "midi": 56,
      "start": 26.667,
      "duration": 0.208,
      "velocity": 0.49
    },
    {
      "id": "n-00145",
      "pitch": "E4",
      "midi": 64,
      "start": 26.875,
      "duration": 0.208,
      "velocity": 0.49
    },
    {
      "id": "n-00146",
      "pitch": "C5",
      "midi": 72,
      "start": 27.083,
      "duration": 0.208,
      "velocity": 0.49
    },
    {
      "id": "n-00147",
      "pitch": "B4",
      "midi": 71,
      "start": 27.292,
      "duration": 0.208,
      "velocity": 0.49
    },
    {
      "id": "n-00148",
      "pitch": "A2",
      "midi": 45,
      "start": 27.5,
      "duration": 0.208,
      "velocity": 0.49
    },
    {
      "id": "n-00149",
      "pitch": "A4",
      "midi": 69,
      "start": 27.5,
      "duration": 0.417,
      "velocity": 0.49
    },
    {
      "id": "n-00150",
      "pitch": "E3",
      "midi": 52,
      "start": 27.708,
      "duration": 0.208,
      "velocity": 0.49
    },
    {
      "id": "n-00151",
      "pitch": "A3",
      "midi": 57,
      "start": 27.917,
      "duration": 0.208,
      "velocity": 0.49
    },
    {
      "id": "n-00152",
      "pitch": "B4",
      "midi": 71,
      "start": 28.125,
      "duration": 0.208,
      "velocity": 0.49
    },
    {
      "id": "n-00153",
      "pitch": "C5",
      "midi": 72,
      "start": 28.333,
      "duration": 0.208,
      "velocity": 0.49
    },
    {
      "id": "n-00154",
      "pitch": "D5",
      "midi": 74,
      "start": 28.542,
      "duration": 0.208,
      "velocity": 0.49
    },
    {
      "id": "n-00155",
      "pitch": "A2",
      "midi": 45,
      "start": 28.75,
      "duration": 0.208,
      "velocity": 0.49
    },
    {
      "id": "n-00156",
      "pitch": "A4",
      "midi": 69,
      "start": 28.75,
      "duration": 0.417,
      "velocity": 0.49
    },
    {
      "id": "n-00157",
      "pitch": "E3",
      "midi": 52,
      "start": 28.958,
      "duration": 0.208,
      "velocity": 0.49
    },
    {
      "id": "n-00158",
      "pitch": "A3",
      "midi": 57,
      "start": 29.167,
      "duration": 0.208,
      "velocity": 0.49
    },
    {
      "id": "n-00159",
      "pitch": "A#3",
      "midi": 58,
      "start": 29.375,
      "duration": 0.208,
      "velocity": 0.49
    },
    {
      "id": "n-00160",
      "pitch": "C4",
      "midi": 60,
      "start": 29.375,
      "duration": 0.208,
      "velocity": 0.49
    },
    {
      "id": "n-00161",
      "pitch": "E4",
      "midi": 64,
      "start": 29.375,
      "duration": 0.208,
      "velocity": 0.49
    },
    {
      "id": "n-00162",
      "pitch": "C5",
      "midi": 72,
      "start": 29.375,
      "duration": 0.208,
      "velocity": 0.49
    },
    {
      "id": "n-00163",
      "pitch": "A3",
      "midi": 57,
      "start": 29.583,
      "duration": 0.208,
      "velocity": 0.49
    },
    {
      "id": "n-00164",
      "pitch": "C4",
      "midi": 60,
      "start": 29.583,
      "duration": 0.208,
      "velocity": 0.49
    },
    {
      "id": "n-00165",
      "pitch": "F4",
      "midi": 65,
      "start": 29.583,
      "duration": 0.208,
      "velocity": 0.49
    },
    {
      "id": "n-00166",
      "pitch": "C5",
      "midi": 72,
      "start": 29.583,
      "duration": 0.208,
      "velocity": 0.49
    },
    {
      "id": "n-00167",
      "pitch": "G3",
      "midi": 55,
      "start": 29.792,
      "duration": 0.208,
      "velocity": 0.49
    },
    {
      "id": "n-00168",
      "pitch": "A#3",
      "midi": 58,
      "start": 29.792,
      "duration": 0.208,
      "velocity": 0.49
    },
    {
      "id": "n-00169",
      "pitch": "C4",
      "midi": 60,
      "start": 29.792,
      "duration": 0.208,
      "velocity": 0.49
    },
    {
      "id": "n-00170",
      "pitch": "E4",
      "midi": 64,
      "start": 29.792,
      "duration": 0.113,
      "velocity": 0.49
    },
    {
      "id": "n-00171",
      "pitch": "G4",
      "midi": 67,
      "start": 29.792,
      "duration": 0.113,
      "velocity": 0.49
    },
    {
      "id": "n-00172",
      "pitch": "C5",
      "midi": 72,
      "start": 29.792,
      "duration": 0.113,
      "velocity": 0.49
    },
    {
      "id": "n-00173",
      "pitch": "F4",
      "midi": 65,
      "start": 29.905,
      "duration": 0.046,
      "velocity": 0.49
    },
    {
      "id": "n-00174",
      "pitch": "A4",
      "midi": 69,
      "start": 29.952,
      "duration": 0.046,
      "velocity": 0.49
    },
    {
      "id": "n-00175",
      "pitch": "F3",
      "midi": 53,
      "start": 30,
      "duration": 0.208,
      "velocity": 0.49
    },
    {
      "id": "n-00176",
      "pitch": "C5",
      "midi": 72,
      "start": 30,
      "duration": 0.833,
      "velocity": 0.49
    },
    {
      "id": "n-00177",
      "pitch": "A3",
      "midi": 57,
      "start": 30.208,
      "duration": 0.208,
      "velocity": 0.49
    },
    {
      "id": "n-00178",
      "pitch": "C4",
      "midi": 60,
      "start": 30.417,
      "duration": 0.208,
      "velocity": 0.49
    },
    {
      "id": "n-00179",
      "pitch": "A3",
      "midi": 57,
      "start": 30.625,
      "duration": 0.208,
      "velocity": 0.49
    },
    {
      "id": "n-00180",
      "pitch": "C4",
      "midi": 60,
      "start": 30.833,
      "duration": 0.208,
      "velocity": 0.49
    },
    {
      "id": "n-00181",
      "pitch": "F5",
      "midi": 77,
      "start": 30.833,
      "duration": 0.312,
      "velocity": 0.49
    },
    {
      "id": "n-00182",
      "pitch": "A3",
      "midi": 57,
      "start": 31.042,
      "duration": 0.208,
      "velocity": 0.49
    },
    {
      "id": "n-00183",
      "pitch": "E5",
      "midi": 76,
      "start": 31.146,
      "duration": 0.104,
      "velocity": 0.49
    },
    {
      "id": "n-00184",
      "pitch": "F3",
      "midi": 53,
      "start": 31.25,
      "duration": 0.208,
      "velocity": 0.49
    },
    {
      "id": "n-00185",
      "pitch": "E5",
      "midi": 76,
      "start": 31.25,
      "duration": 0.417,
      "velocity": 0.49
    },
    {
      "id": "n-00186",
      "pitch": "A#3",
      "midi": 58,
      "start": 31.458,
      "duration": 0.208,
      "velocity": 0.49
    },
    {
      "id": "n-00187",
      "pitch": "D4",
      "midi": 62,
      "start": 31.667,
      "duration": 0.208,
      "velocity": 0.49
    },
    {
      "id": "n-00188",
      "pitch": "D5",
      "midi": 74,
      "start": 31.667,
      "duration": 0.417,
      "velocity": 0.49
    },
    {
      "id": "n-00189",
      "pitch": "A#3",
      "midi": 58,
      "start": 31.875,
      "duration": 0.208,
      "velocity": 0.49
    },
    {
      "id": "n-00190",
      "pitch": "D4",
      "midi": 62,
      "start": 32.083,
      "duration": 0.208,
      "velocity": 0.49
    },
    {
      "id": "n-00191",
      "pitch": "A#5",
      "midi": 82,
      "start": 32.083,
      "duration": 0.312,
      "velocity": 0.49
    },
    {
      "id": "n-00192",
      "pitch": "A#3",
      "midi": 58,
      "start": 32.292,
      "duration": 0.208,
      "velocity": 0.49
    },
    {
      "id": "n-00193",
      "pitch": "A5",
      "midi": 81,
      "start": 32.396,
      "duration": 0.104,
      "velocity": 0.49
    },
    {
      "id": "n-00194",
      "pitch": "F3",
      "midi": 53,
      "start": 32.5,
      "duration": 0.208,
      "velocity": 0.49
    },
    {
      "id": "n-00195",
      "pitch": "A5",
      "midi": 81,
      "start": 32.5,
      "duration": 0.208,
      "velocity": 0.49
    },
    {
      "id": "n-00196",
      "pitch": "E4",
      "midi": 64,
      "start": 32.708,
      "duration": 0.208,
      "velocity": 0.49
    },
    {
      "id": "n-00197",
      "pitch": "G5",
      "midi": 79,
      "start": 32.708,
      "duration": 0.208,
      "velocity": 0.49
    },
    {
      "id": "n-00198",
      "pitch": "F3",
      "midi": 53,
      "start": 32.917,
      "duration": 0.208,
      "velocity": 0.49
    },
    {
      "id": "n-00199",
      "pitch": "G3",
      "midi": 55,
      "start": 32.917,
      "duration": 0.208,
      "velocity": 0.49
    },
    {
      "id": "n-00200",
      "pitch": "A#3",
      "midi": 58,
      "start": 32.917,
      "duration": 0.208,
      "velocity": 0.49
    },
    {
      "id": "n-00201",
      "pitch": "F5",
      "midi": 77,
      "start": 32.917,
      "duration": 0.208,
      "velocity": 0.49
    },
    {
      "id": "n-00202",
      "pitch": "E4",
      "midi": 64,
      "start": 33.125,
      "duration": 0.208,
      "velocity": 0.49
    },
    {
      "id": "n-00203",
      "pitch": "E5",
      "midi": 76,
      "start": 33.125,
      "duration": 0.208,
      "velocity": 0.49
    },
    {
      "id": "n-00204",
      "pitch": "F3",
      "midi": 53,
      "start": 33.333,
      "duration": 0.208,
      "velocity": 0.49
    },
    {
      "id": "n-00205",
      "pitch": "G3",
      "midi": 55,
      "start": 33.333,
      "duration": 0.208,
      "velocity": 0.49
    },
    {
      "id": "n-00206",
      "pitch": "A#3",
      "midi": 58,
      "start": 33.333,
      "duration": 0.208,
      "velocity": 0.49
    },
    {
      "id": "n-00207",
      "pitch": "D5",
      "midi": 74,
      "start": 33.333,
      "duration": 0.208,
      "velocity": 0.49
    },
    {
      "id": "n-00208",
      "pitch": "E4",
      "midi": 64,
      "start": 33.542,
      "duration": 0.208,
      "velocity": 0.49
    },
    {
      "id": "n-00209",
      "pitch": "C5",
      "midi": 72,
      "start": 33.542,
      "duration": 0.208,
      "velocity": 0.49
    },
    {
      "id": "n-00210",
      "pitch": "F3",
      "midi": 53,
      "start": 33.75,
      "duration": 0.208,
      "velocity": 0.49
    },
    {
      "id": "n-00211",
      "pitch": "A#4",
      "midi": 70,
      "start": 33.75,
      "duration": 0.417,
      "velocity": 0.49
    },
    {
      "id": "n-00212",
      "pitch": "A3",
      "midi": 57,
      "start": 33.958,
      "duration": 0.208,
      "velocity": 0.49
    },
    {
      "id": "n-00213",
      "pitch": "C4",
      "midi": 60,
      "start": 34.167,
      "duration": 0.208,
      "velocity": 0.49
    },
    {
      "id": "n-00214",
      "pitch": "A4",
      "midi": 69,
      "start": 34.167,
      "duration": 0.393,
      "velocity": 0.49
    },
    {
      "id": "n-00215",
      "pitch": "A3",
      "midi": 57,
      "start": 34.375,
      "duration": 0.208,
      "velocity": 0.49
    },
    {
      "id": "n-00216",
      "pitch": "A#4",
      "midi": 70,
      "start": 34.559,
      "duration": 0.022,
      "velocity": 0.49
    },
    {
      "id": "n-00217",
      "pitch": "C4",
      "midi": 60,
      "start": 34.583,
      "duration": 0.208,
      "velocity": 0.49
    },
    {
      "id": "n-00218",
      "pitch": "A4",
      "midi": 69,
      "start": 34.583,
      "duration": 0.104,
      "velocity": 0.49
    },
    {
      "id": "n-00219",
      "pitch": "G4",
      "midi": 67,
      "start": 34.687,
      "duration": 0.104,
      "velocity": 0.49
    },
    {
      "id": "n-00220",
      "pitch": "A3",
      "midi": 57,
      "start": 34.792,
      "duration": 0.208,
      "velocity": 0.49
    },
    {
      "id": "n-00221",
      "pitch": "A4",
      "midi": 69,
      "start": 34.792,
      "duration": 0.104,
      "velocity": 0.49
    },
    {
      "id": "n-00222",
      "pitch": "A#4",
      "midi": 70,
      "start": 34.896,
      "duration": 0.104,
      "velocity": 0.49
    },
    {
      "id": "n-00223",
      "pitch": "F3",
      "midi": 53,
      "start": 35,
      "duration": 0.208,
      "velocity": 0.49
    },
    {
      "id": "n-00224",
      "pitch": "C5",
      "midi": 72,
      "start": 35,
      "duration": 0.833,
      "velocity": 0.49
    },
    {
      "id": "n-00225",
      "pitch": "A3",
      "midi": 57,
      "start": 35.208,
      "duration": 0.208,
      "velocity": 0.49
    },
    {
      "id": "n-00226",
      "pitch": "C4",
      "midi": 60,
      "start": 35.417,
      "duration": 0.208,
      "velocity": 0.49
    },
    {
      "id": "n-00227",
      "pitch": "A3",
      "midi": 57,
      "start": 35.625,
      "duration": 0.208,
      "velocity": 0.49
    },
    {
      "id": "n-00228",
      "pitch": "C4",
      "midi": 60,
      "start": 35.833,
      "duration": 0.208,
      "velocity": 0.49
    },
    {
      "id": "n-00229",
      "pitch": "D5",
      "midi": 74,
      "start": 35.833,
      "duration": 0.208,
      "velocity": 0.49
    },
    {
      "id": "n-00230",
      "pitch": "A3",
      "midi": 57,
      "start": 36.042,
      "duration": 0.208,
      "velocity": 0.49
    },
    {
      "id": "n-00231",
      "pitch": "D#5",
      "midi": 75,
      "start": 36.042,
      "duration": 0.208,
      "velocity": 0.49
    },
    {
      "id": "n-00232",
      "pitch": "E3",
      "midi": 52,
      "start": 36.25,
      "duration": 0.208,
      "velocity": 0.49
    },
    {
      "id": "n-00233",
      "pitch": "E5",
      "midi": 76,
      "start": 36.25,
      "duration": 0.625,
      "velocity": 0.49
    },
    {
      "id": "n-00234",
      "pitch": "A3",
      "midi": 57,
      "start": 36.458,
      "duration": 0.208,
      "velocity": 0.49
    },
    {
      "id": "n-00235",
      "pitch": "C4",
      "midi": 60,
      "start": 36.667,
      "duration": 0.208,
      "velocity": 0.49
    },
    {
      "id": "n-00236",
      "pitch": "A3",
      "midi": 57,
      "start": 36.875,
      "duration": 0.208,
      "velocity": 0.49
    },
    {
      "id": "n-00237",
      "pitch": "E5",
      "midi": 76,
      "start": 36.875,
      "duration": 0.208,
      "velocity": 0.49
    },
    {
      "id": "n-00238",
      "pitch": "D3",
      "midi": 50,
      "start": 37.083,
      "duration": 0.208,
      "velocity": 0.49
    },
    {
      "id": "n-00239",
      "pitch": "D4",
      "midi": 62,
      "start": 37.083,
      "duration": 0.208,
      "velocity": 0.49
    },
    {
      "id": "n-00240",
      "pitch": "F5",
      "midi": 77,
      "start": 37.083,
      "duration": 0.208,
      "velocity": 0.49
    },
    {
      "id": "n-00241",
      "pitch": "F3",
      "midi": 53,
      "start": 37.292,
      "duration": 0.208,
      "velocity": 0.49
    },
    {
      "id": "n-00242",
      "pitch": "A4",
      "midi": 69,
      "start": 37.292,
      "duration": 0.208,
      "velocity": 0.49
    },
    {
      "id": "n-00243",
      "pitch": "G3",
      "midi": 55,
      "start": 37.5,
      "duration": 0.208,
      "velocity": 0.49
    },
    {
      "id": "n-00244",
      "pitch": "C5",
      "midi": 72,
      "start": 37.5,
      "duration": 0.833,
      "velocity": 0.49
    },
    {
      "id": "n-00245",
      "pitch": "E4",
      "midi": 64,
      "start": 37.708,
      "duration": 0.208,
      "velocity": 0.49
    },
    {
      "id": "n-00246",
      "pitch": "G3",
      "midi": 55,
      "start": 37.917,
      "duration": 0.208,
      "velocity": 0.49
    },
    {
      "id": "n-00247",
      "pitch": "E4",
      "midi": 64,
      "start": 38.125,
      "duration": 0.208,
      "velocity": 0.49
    },
    {
      "id": "n-00248",
      "pitch": "G3",
      "midi": 55,
      "start": 38.333,
      "duration": 0.208,
      "velocity": 0.49
    },
    {
      "id": "n-00249",
      "pitch": "D5",
      "midi": 74,
      "start": 38.333,
      "duration": 0.312,
      "velocity": 0.49
    },
    {
      "id": "n-00250",
      "pitch": "F4",
      "midi": 65,
      "start": 38.542,
      "duration": 0.208,
      "velocity": 0.49
    },
    {
      "id": "n-00251",
      "pitch": "B4",
      "midi": 71,
      "start": 38.646,
      "duration": 0.104,
      "velocity": 0.49
    },
    {
      "id": "n-00252",
      "pitch": "C4",
      "midi": 60,
      "start": 38.75,
      "duration": 0.417,
      "velocity": 0.49
    },
    {
      "id": "n-00253",
      "pitch": "E4",
      "midi": 64,
      "start": 38.75,
      "duration": 0.417,
      "velocity": 0.49
    },
    {
      "id": "n-00254",
      "pitch": "C5",
      "midi": 72,
      "start": 38.75,
      "duration": 0.104,
      "velocity": 0.49
    },
    {
      "id": "n-00255",
      "pitch": "G5",
      "midi": 79,
      "start": 38.854,
      "duration": 0.104,
      "velocity": 0.49
    },
    {
      "id": "n-00256",
      "pitch": "G4",
      "midi": 67,
      "start": 38.958,
      "duration": 0.104,
      "velocity": 0.49
    },
    {
      "id": "n-00257",
      "pitch": "G5",
      "midi": 79,
      "start": 39.062,
      "duration": 0.104,
      "velocity": 0.49
    },
    {
      "id": "n-00258",
      "pitch": "A4",
      "midi": 69,
      "start": 39.167,
      "duration": 0.104,
      "velocity": 0.49
    },
    {
      "id": "n-00259",
      "pitch": "G5",
      "midi": 79,
      "start": 39.271,
      "duration": 0.104,
      "velocity": 0.49
    },
    {
      "id": "n-00260",
      "pitch": "F4",
      "midi": 65,
      "start": 39.375,
      "duration": 0.208,
      "velocity": 0.49
    },
    {
      "id": "n-00261",
      "pitch": "G4",
      "midi": 67,
      "start": 39.375,
      "duration": 0.208,
      "velocity": 0.49
    },
    {
      "id": "n-00262",
      "pitch": "B4",
      "midi": 71,
      "start": 39.375,
      "duration": 0.104,
      "velocity": 0.49
    },
    {
      "id": "n-00263",
      "pitch": "G5",
      "midi": 79,
      "start": 39.479,
      "duration": 0.104,
      "velocity": 0.49
    },
    {
      "id": "n-00264",
      "pitch": "E4",
      "midi": 64,
      "start": 39.583,
      "duration": 0.208,
      "velocity": 0.49
    },
    {
      "id": "n-00265",
      "pitch": "G4",
      "midi": 67,
      "start": 39.583,
      "duration": 0.208,
      "velocity": 0.49
    },
    {
      "id": "n-00266",
      "pitch": "C5",
      "midi": 72,
      "start": 39.583,
      "duration": 0.104,
      "velocity": 0.49
    },
    {
      "id": "n-00267",
      "pitch": "G5",
      "midi": 79,
      "start": 39.687,
      "duration": 0.104,
      "velocity": 0.49
    },
    {
      "id": "n-00268",
      "pitch": "D4",
      "midi": 62,
      "start": 39.792,
      "duration": 0.208,
      "velocity": 0.49
    },
    {
      "id": "n-00269",
      "pitch": "F4",
      "midi": 65,
      "start": 39.792,
      "duration": 0.208,
      "velocity": 0.49
    },
    {
      "id": "n-00270",
      "pitch": "G4",
      "midi": 67,
      "start": 39.792,
      "duration": 0.208,
      "velocity": 0.49
    },
    {
      "id": "n-00271",
      "pitch": "D5",
      "midi": 74,
      "start": 39.792,
      "duration": 0.104,
      "velocity": 0.49
    },
    {
      "id": "n-00272",
      "pitch": "G5",
      "midi": 79,
      "start": 39.896,
      "duration": 0.104,
      "velocity": 0.49
    },
    {
      "id": "n-00273",
      "pitch": "C4",
      "midi": 60,
      "start": 40,
      "duration": 0.417,
      "velocity": 0.49
    },
    {
      "id": "n-00274",
      "pitch": "E4",
      "midi": 64,
      "start": 40,
      "duration": 0.417,
      "velocity": 0.49
    },
    {
      "id": "n-00275",
      "pitch": "G4",
      "midi": 67,
      "start": 40,
      "duration": 0.417,
      "velocity": 0.49
    },
    {
      "id": "n-00276",
      "pitch": "E5",
      "midi": 76,
      "start": 40,
      "duration": 0.104,
      "velocity": 0.49
    },
    {
      "id": "n-00277",
      "pitch": "G5",
      "midi": 79,
      "start": 40.104,
      "duration": 0.104,
      "velocity": 0.49
    },
    {
      "id": "n-00278",
      "pitch": "C6",
      "midi": 84,
      "start": 40.208,
      "duration": 0.104,
      "velocity": 0.49
    },
    {
      "id": "n-00279",
      "pitch": "B5",
      "midi": 83,
      "start": 40.312,
      "duration": 0.104,
      "velocity": 0.49
    },
    {
      "id": "n-00280",
      "pitch": "F3",
      "midi": 53,
      "start": 40.417,
      "duration": 0.417,
      "velocity": 0.49
    },
    {
      "id": "n-00281",
      "pitch": "A3",
      "midi": 57,
      "start": 40.417,
      "duration": 0.417,
      "velocity": 0.49
    },
    {
      "id": "n-00282",
      "pitch": "A5",
      "midi": 81,
      "start": 40.417,
      "duration": 0.104,
      "velocity": 0.49
    },
    {
      "id": "n-00283",
      "pitch": "G5",
      "midi": 79,
      "start": 40.521,
      "duration": 0.104,
      "velocity": 0.49
    },
    {
      "id": "n-00284",
      "pitch": "F5",
      "midi": 77,
      "start": 40.625,
      "duration": 0.104,
      "velocity": 0.49
    },
    {
      "id": "n-00285",
      "pitch": "E5",
      "midi": 76,
      "start": 40.729,
      "duration": 0.104,
      "velocity": 0.49
    },
    {
      "id": "n-00286",
      "pitch": "G3",
      "midi": 55,
      "start": 40.833,
      "duration": 0.417,
      "velocity": 0.49
    },
    {
      "id": "n-00287",
      "pitch": "B3",
      "midi": 59,
      "start": 40.833,
      "duration": 0.417,
      "velocity": 0.49
    },
    {
      "id": "n-00288",
      "pitch": "D5",
      "midi": 74,
      "start": 40.833,
      "duration": 0.104,
      "velocity": 0.49
    },
    {
      "id": "n-00289",
      "pitch": "G5",
      "midi": 79,
      "start": 40.937,
      "duration": 0.104,
      "velocity": 0.49
    },
    {
      "id": "n-00290",
      "pitch": "F5",
      "midi": 77,
      "start": 41.042,
      "duration": 0.104,
      "velocity": 0.49
    },
    {
      "id": "n-00291",
      "pitch": "D5",
      "midi": 74,
      "start": 41.146,
      "duration": 0.104,
      "velocity": 0.49
    },
    {
      "id": "n-00292",
      "pitch": "C4",
      "midi": 60,
      "start": 41.25,
      "duration": 0.417,
      "velocity": 0.49
    },
    {
      "id": "n-00293",
      "pitch": "C5",
      "midi": 72,
      "start": 41.25,
      "duration": 0.104,
      "velocity": 0.49
    },
    {
      "id": "n-00294",
      "pitch": "G5",
      "midi": 79,
      "start": 41.354,
      "duration": 0.104,
      "velocity": 0.49
    },
    {
      "id": "n-00295",
      "pitch": "G4",
      "midi": 67,
      "start": 41.458,
      "duration": 0.104,
      "velocity": 0.49
    },
    {
      "id": "n-00296",
      "pitch": "G5",
      "midi": 79,
      "start": 41.562,
      "duration": 0.104,
      "velocity": 0.49
    },
    {
      "id": "n-00297",
      "pitch": "A4",
      "midi": 69,
      "start": 41.667,
      "duration": 0.104,
      "velocity": 0.49
    },
    {
      "id": "n-00298",
      "pitch": "G5",
      "midi": 79,
      "start": 41.771,
      "duration": 0.104,
      "velocity": 0.49
    },
    {
      "id": "n-00299",
      "pitch": "F4",
      "midi": 65,
      "start": 41.875,
      "duration": 0.208,
      "velocity": 0.49
    },
    {
      "id": "n-00300",
      "pitch": "G4",
      "midi": 67,
      "start": 41.875,
      "duration": 0.208,
      "velocity": 0.49
    },
    {
      "id": "n-00301",
      "pitch": "B4",
      "midi": 71,
      "start": 41.875,
      "duration": 0.104,
      "velocity": 0.49
    },
    {
      "id": "n-00302",
      "pitch": "G5",
      "midi": 79,
      "start": 41.979,
      "duration": 0.104,
      "velocity": 0.49
    },
    {
      "id": "n-00303",
      "pitch": "E4",
      "midi": 64,
      "start": 42.083,
      "duration": 0.208,
      "velocity": 0.49
    },
    {
      "id": "n-00304",
      "pitch": "G4",
      "midi": 67,
      "start": 42.083,
      "duration": 0.208,
      "velocity": 0.49
    },
    {
      "id": "n-00305",
      "pitch": "C5",
      "midi": 72,
      "start": 42.083,
      "duration": 0.104,
      "velocity": 0.49
    },
    {
      "id": "n-00306",
      "pitch": "G5",
      "midi": 79,
      "start": 42.187,
      "duration": 0.104,
      "velocity": 0.49
    },
    {
      "id": "n-00307",
      "pitch": "D4",
      "midi": 62,
      "start": 42.292,
      "duration": 0.208,
      "velocity": 0.49
    },
    {
      "id": "n-00308",
      "pitch": "F4",
      "midi": 65,
      "start": 42.292,
      "duration": 0.208,
      "velocity": 0.49
    },
    {
      "id": "n-00309",
      "pitch": "G4",
      "midi": 67,
      "start": 42.292,
      "duration": 0.208,
      "velocity": 0.49
    },
    {
      "id": "n-00310",
      "pitch": "D5",
      "midi": 74,
      "start": 42.292,
      "duration": 0.104,
      "velocity": 0.49
    },
    {
      "id": "n-00311",
      "pitch": "G5",
      "midi": 79,
      "start": 42.396,
      "duration": 0.104,
      "velocity": 0.49
    },
    {
      "id": "n-00312",
      "pitch": "C4",
      "midi": 60,
      "start": 42.5,
      "duration": 0.417,
      "velocity": 0.49
    },
    {
      "id": "n-00313",
      "pitch": "E4",
      "midi": 64,
      "start": 42.5,
      "duration": 0.417,
      "velocity": 0.49
    },
    {
      "id": "n-00314",
      "pitch": "G4",
      "midi": 67,
      "start": 42.5,
      "duration": 0.417,
      "velocity": 0.49
    },
    {
      "id": "n-00315",
      "pitch": "E5",
      "midi": 76,
      "start": 42.5,
      "duration": 0.104,
      "velocity": 0.49
    },
    {
      "id": "n-00316",
      "pitch": "G5",
      "midi": 79,
      "start": 42.604,
      "duration": 0.104,
      "velocity": 0.49
    },
    {
      "id": "n-00317",
      "pitch": "C6",
      "midi": 84,
      "start": 42.708,
      "duration": 0.104,
      "velocity": 0.49
    },
    {
      "id": "n-00318",
      "pitch": "B5",
      "midi": 83,
      "start": 42.812,
      "duration": 0.104,
      "velocity": 0.49
    },
    {
      "id": "n-00319",
      "pitch": "F3",
      "midi": 53,
      "start": 42.917,
      "duration": 0.417,
      "velocity": 0.49
    },
    {
      "id": "n-00320",
      "pitch": "A3",
      "midi": 57,
      "start": 42.917,
      "duration": 0.417,
      "velocity": 0.49
    },
    {
      "id": "n-00321",
      "pitch": "A5",
      "midi": 81,
      "start": 42.917,
      "duration": 0.104,
      "velocity": 0.49
    },
    {
      "id": "n-00322",
      "pitch": "G5",
      "midi": 79,
      "start": 43.021,
      "duration": 0.104,
      "velocity": 0.49
    },
    {
      "id": "n-00323",
      "pitch": "F5",
      "midi": 77,
      "start": 43.125,
      "duration": 0.104,
      "velocity": 0.49
    },
    {
      "id": "n-00324",
      "pitch": "E5",
      "midi": 76,
      "start": 43.229,
      "duration": 0.104,
      "velocity": 0.49
    },
    {
      "id": "n-00325",
      "pitch": "G3",
      "midi": 55,
      "start": 43.333,
      "duration": 0.417,
      "velocity": 0.49
    },
    {
      "id": "n-00326",
      "pitch": "B3",
      "midi": 59,
      "start": 43.333,
      "duration": 0.417,
      "velocity": 0.49
    },
    {
      "id": "n-00327",
      "pitch": "D5",
      "midi": 74,
      "start": 43.333,
      "duration": 0.104,
      "velocity": 0.49
    },
    {
      "id": "n-00328",
      "pitch": "G5",
      "midi": 79,
      "start": 43.437,
      "duration": 0.104,
      "velocity": 0.49
    },
    {
      "id": "n-00329",
      "pitch": "F5",
      "midi": 77,
      "start": 43.542,
      "duration": 0.104,
      "velocity": 0.49
    },
    {
      "id": "n-00330",
      "pitch": "D5",
      "midi": 74,
      "start": 43.646,
      "duration": 0.104,
      "velocity": 0.49
    },
    {
      "id": "n-00331",
      "pitch": "G#3",
      "midi": 56,
      "start": 43.75,
      "duration": 0.417,
      "velocity": 0.49
    },
    {
      "id": "n-00332",
      "pitch": "B3",
      "midi": 59,
      "start": 43.75,
      "duration": 0.417,
      "velocity": 0.49
    },
    {
      "id": "n-00333",
      "pitch": "E5",
      "midi": 76,
      "start": 43.75,
      "duration": 0.104,
      "velocity": 0.49
    },
    {
      "id": "n-00334",
      "pitch": "F5",
      "midi": 77,
      "start": 43.854,
      "duration": 0.104,
      "velocity": 0.49
    },
    {
      "id": "n-00335",
      "pitch": "E5",
      "midi": 76,
      "start": 43.958,
      "duration": 0.104,
      "velocity": 0.49
    },
    {
      "id": "n-00336",
      "pitch": "D#5",
      "midi": 75,
      "start": 44.062,
      "duration": 0.104,
      "velocity": 0.49
    },
    {
      "id": "n-00337",
      "pitch": "E5",
      "midi": 76,
      "start": 44.167,
      "duration": 0.104,
      "velocity": 0.49
    },
    {
      "id": "n-00338",
      "pitch": "B4",
      "midi": 71,
      "start": 44.271,
      "duration": 0.104,
      "velocity": 0.49
    },
    {
      "id": "n-00339",
      "pitch": "E5",
      "midi": 76,
      "start": 44.375,
      "duration": 0.104,
      "velocity": 0.49
    },
    {
      "id": "n-00340",
      "pitch": "D#5",
      "midi": 75,
      "start": 44.479,
      "duration": 0.104,
      "velocity": 0.49
    },
    {
      "id": "n-00341",
      "pitch": "E5",
      "midi": 76,
      "start": 44.583,
      "duration": 0.104,
      "velocity": 0.49
    },
    {
      "id": "n-00342",
      "pitch": "B4",
      "midi": 71,
      "start": 44.687,
      "duration": 0.104,
      "velocity": 0.49
    },
    {
      "id": "n-00343",
      "pitch": "E5",
      "midi": 76,
      "start": 44.792,
      "duration": 0.104,
      "velocity": 0.49
    },
    {
      "id": "n-00344",
      "pitch": "D#5",
      "midi": 75,
      "start": 44.896,
      "duration": 0.104,
      "velocity": 0.49
    },
    {
      "id": "n-00345",
      "pitch": "E5",
      "midi": 76,
      "start": 45,
      "duration": 0.625,
      "velocity": 0.49
    },
    {
      "id": "n-00346",
      "pitch": "B4",
      "midi": 71,
      "start": 45.625,
      "duration": 0.208,
      "velocity": 0.49
    },
    {
      "id": "n-00347",
      "pitch": "E5",
      "midi": 76,
      "start": 45.833,
      "duration": 0.208,
      "velocity": 0.49
    },
    {
      "id": "n-00348",
      "pitch": "D#5",
      "midi": 75,
      "start": 46.042,
      "duration": 0.208,
      "velocity": 0.49
    },
    {
      "id": "n-00349",
      "pitch": "E5",
      "midi": 76,
      "start": 46.25,
      "duration": 0.625,
      "velocity": 0.49
    },
    {
      "id": "n-00350",
      "pitch": "B4",
      "midi": 71,
      "start": 46.875,
      "duration": 0.208,
      "velocity": 0.49
    },
    {
      "id": "n-00351",
      "pitch": "E5",
      "midi": 76,
      "start": 47.083,
      "duration": 0.208,
      "velocity": 0.49
    },
    {
      "id": "n-00352",
      "pitch": "D#5",
      "midi": 75,
      "start": 47.292,
      "duration": 0.208,
      "velocity": 0.49
    },
    {
      "id": "n-00353",
      "pitch": "E5",
      "midi": 76,
      "start": 47.5,
      "duration": 0.208,
      "velocity": 0.49
    },
    {
      "id": "n-00354",
      "pitch": "D#5",
      "midi": 75,
      "start": 47.708,
      "duration": 0.208,
      "velocity": 0.49
    },
    {
      "id": "n-00355",
      "pitch": "E5",
      "midi": 76,
      "start": 47.917,
      "duration": 0.208,
      "velocity": 0.49
    },
    {
      "id": "n-00356",
      "pitch": "D#5",
      "midi": 75,
      "start": 48.125,
      "duration": 0.208,
      "velocity": 0.49
    },
    {
      "id": "n-00357",
      "pitch": "E5",
      "midi": 76,
      "start": 48.333,
      "duration": 0.208,
      "velocity": 0.49
    },
    {
      "id": "n-00358",
      "pitch": "D#5",
      "midi": 75,
      "start": 48.542,
      "duration": 0.208,
      "velocity": 0.49
    },
    {
      "id": "n-00359",
      "pitch": "E5",
      "midi": 76,
      "start": 48.75,
      "duration": 0.208,
      "velocity": 0.49
    },
    {
      "id": "n-00360",
      "pitch": "D#5",
      "midi": 75,
      "start": 48.958,
      "duration": 0.208,
      "velocity": 0.49
    },
    {
      "id": "n-00361",
      "pitch": "E5",
      "midi": 76,
      "start": 49.167,
      "duration": 0.208,
      "velocity": 0.49
    },
    {
      "id": "n-00362",
      "pitch": "B4",
      "midi": 71,
      "start": 49.375,
      "duration": 0.208,
      "velocity": 0.49
    },
    {
      "id": "n-00363",
      "pitch": "D5",
      "midi": 74,
      "start": 49.583,
      "duration": 0.208,
      "velocity": 0.49
    },
    {
      "id": "n-00364",
      "pitch": "C5",
      "midi": 72,
      "start": 49.792,
      "duration": 0.208,
      "velocity": 0.49
    },
    {
      "id": "n-00365",
      "pitch": "A2",
      "midi": 45,
      "start": 50,
      "duration": 0.208,
      "velocity": 0.49
    },
    {
      "id": "n-00366",
      "pitch": "A4",
      "midi": 69,
      "start": 50,
      "duration": 0.417,
      "velocity": 0.49
    },
    {
      "id": "n-00367",
      "pitch": "E3",
      "midi": 52,
      "start": 50.208,
      "duration": 0.208,
      "velocity": 0.49
    },
    {
      "id": "n-00368",
      "pitch": "A3",
      "midi": 57,
      "start": 50.417,
      "duration": 0.208,
      "velocity": 0.49
    },
    {
      "id": "n-00369",
      "pitch": "C4",
      "midi": 60,
      "start": 50.625,
      "duration": 0.208,
      "velocity": 0.49
    },
    {
      "id": "n-00370",
      "pitch": "E4",
      "midi": 64,
      "start": 50.833,
      "duration": 0.208,
      "velocity": 0.49
    },
    {
      "id": "n-00371",
      "pitch": "A4",
      "midi": 69,
      "start": 51.042,
      "duration": 0.208,
      "velocity": 0.49
    },
    {
      "id": "n-00372",
      "pitch": "E2",
      "midi": 40,
      "start": 51.25,
      "duration": 0.208,
      "velocity": 0.49
    },
    {
      "id": "n-00373",
      "pitch": "B4",
      "midi": 71,
      "start": 51.25,
      "duration": 0.417,
      "velocity": 0.49
    },
    {
      "id": "n-00374",
      "pitch": "E3",
      "midi": 52,
      "start": 51.458,
      "duration": 0.208,
      "velocity": 0.49
    },
    {
      "id": "n-00375",
      "pitch": "G#3",
      "midi": 56,
      "start": 51.667,
      "duration": 0.208,
      "velocity": 0.49
    },
    {
      "id": "n-00376",
      "pitch": "E4",
      "midi": 64,
      "start": 51.875,
      "duration": 0.208,
      "velocity": 0.49
    },
    {
      "id": "n-00377",
      "pitch": "G#4",
      "midi": 68,
      "start": 52.083,
      "duration": 0.208,
      "velocity": 0.49
    },
    {
      "id": "n-00378",
      "pitch": "B4",
      "midi": 71,
      "start": 52.292,
      "duration": 0.208,
      "velocity": 0.49
    },
    {
      "id": "n-00379",
      "pitch": "A2",
      "midi": 45,
      "start": 52.5,
      "duration": 0.208,
      "velocity": 0.49
    },
    {
      "id": "n-00380",
      "pitch": "C5",
      "midi": 72,
      "start": 52.5,
      "duration": 0.417,
      "velocity": 0.49
    },
    {
      "id": "n-00381",
      "pitch": "E3",
      "midi": 52,
      "start": 52.708,
      "duration": 0.208,
      "velocity": 0.49
    },
    {
      "id": "n-00382",
      "pitch": "A3",
      "midi": 57,
      "start": 52.917,
      "duration": 0.208,
      "velocity": 0.49
    },
    {
      "id": "n-00383",
      "pitch": "E4",
      "midi": 64,
      "start": 53.125,
      "duration": 0.208,
      "velocity": 0.49
    },
    {
      "id": "n-00384",
      "pitch": "E5",
      "midi": 76,
      "start": 53.333,
      "duration": 0.208,
      "velocity": 0.49
    },
    {
      "id": "n-00385",
      "pitch": "D#5",
      "midi": 75,
      "start": 53.542,
      "duration": 0.208,
      "velocity": 0.49
    },
    {
      "id": "n-00386",
      "pitch": "E5",
      "midi": 76,
      "start": 53.75,
      "duration": 0.208,
      "velocity": 0.49
    },
    {
      "id": "n-00387",
      "pitch": "D#5",
      "midi": 75,
      "start": 53.958,
      "duration": 0.208,
      "velocity": 0.49
    },
    {
      "id": "n-00388",
      "pitch": "E5",
      "midi": 76,
      "start": 54.167,
      "duration": 0.208,
      "velocity": 0.49
    },
    {
      "id": "n-00389",
      "pitch": "B4",
      "midi": 71,
      "start": 54.375,
      "duration": 0.208,
      "velocity": 0.49
    },
    {
      "id": "n-00390",
      "pitch": "D5",
      "midi": 74,
      "start": 54.583,
      "duration": 0.208,
      "velocity": 0.49
    },
    {
      "id": "n-00391",
      "pitch": "C5",
      "midi": 72,
      "start": 54.792,
      "duration": 0.208,
      "velocity": 0.49
    },
    {
      "id": "n-00392",
      "pitch": "A2",
      "midi": 45,
      "start": 55,
      "duration": 0.208,
      "velocity": 0.49
    },
    {
      "id": "n-00393",
      "pitch": "A4",
      "midi": 69,
      "start": 55,
      "duration": 0.417,
      "velocity": 0.49
    },
    {
      "id": "n-00394",
      "pitch": "E3",
      "midi": 52,
      "start": 55.208,
      "duration": 0.208,
      "velocity": 0.49
    },
    {
      "id": "n-00395",
      "pitch": "A3",
      "midi": 57,
      "start": 55.417,
      "duration": 0.208,
      "velocity": 0.49
    },
    {
      "id": "n-00396",
      "pitch": "C4",
      "midi": 60,
      "start": 55.625,
      "duration": 0.208,
      "velocity": 0.49
    },
    {
      "id": "n-00397",
      "pitch": "E4",
      "midi": 64,
      "start": 55.833,
      "duration": 0.208,
      "velocity": 0.49
    },
    {
      "id": "n-00398",
      "pitch": "A4",
      "midi": 69,
      "start": 56.042,
      "duration": 0.208,
      "velocity": 0.49
    },
    {
      "id": "n-00399",
      "pitch": "E2",
      "midi": 40,
      "start": 56.25,
      "duration": 0.208,
      "velocity": 0.49
    },
    {
      "id": "n-00400",
      "pitch": "B4",
      "midi": 71,
      "start": 56.25,
      "duration": 0.417,
      "velocity": 0.49
    },
    {
      "id": "n-00401",
      "pitch": "E3",
      "midi": 52,
      "start": 56.458,
      "duration": 0.208,
      "velocity": 0.49
    },
    {
      "id": "n-00402",
      "pitch": "G#3",
      "midi": 56,
      "start": 56.667,
      "duration": 0.208,
      "velocity": 0.49
    },
    {
      "id": "n-00403",
      "pitch": "E4",
      "midi": 64,
      "start": 56.875,
      "duration": 0.208,
      "velocity": 0.49
    },
    {
      "id": "n-00404",
      "pitch": "C5",
      "midi": 72,
      "start": 57.083,
      "duration": 0.208,
      "velocity": 0.49
    },
    {
      "id": "n-00405",
      "pitch": "B4",
      "midi": 71,
      "start": 57.292,
      "duration": 0.208,
      "velocity": 0.49
    },
    {
      "id": "n-00406",
      "pitch": "A2",
      "midi": 45,
      "start": 57.5,
      "duration": 0.208,
      "velocity": 0.49
    },
    {
      "id": "n-00407",
      "pitch": "A4",
      "midi": 69,
      "start": 57.5,
      "duration": 0.417,
      "velocity": 0.49
    },
    {
      "id": "n-00408",
      "pitch": "E3",
      "midi": 52,
      "start": 57.708,
      "duration": 0.208,
      "velocity": 0.49
    },
    {
      "id": "n-00409",
      "pitch": "A3",
      "midi": 57,
      "start": 57.917,
      "duration": 0.208,
      "velocity": 0.49
    },
    {
      "id": "n-00410",
      "pitch": "B4",
      "midi": 71,
      "start": 58.125,
      "duration": 0.208,
      "velocity": 0.49
    },
    {
      "id": "n-00411",
      "pitch": "C5",
      "midi": 72,
      "start": 58.333,
      "duration": 0.208,
      "velocity": 0.49
    },
    {
      "id": "n-00412",
      "pitch": "D5",
      "midi": 74,
      "start": 58.542,
      "duration": 0.208,
      "velocity": 0.49
    },
    {
      "id": "n-00413",
      "pitch": "C3",
      "midi": 48,
      "start": 58.75,
      "duration": 0.208,
      "velocity": 0.49
    },
    {
      "id": "n-00414",
      "pitch": "E5",
      "midi": 76,
      "start": 58.75,
      "duration": 0.625,
      "velocity": 0.49
    },
    {
      "id": "n-00415",
      "pitch": "G3",
      "midi": 55,
      "start": 58.958,
      "duration": 0.208,
      "velocity": 0.49
    },
    {
      "id": "n-00416",
      "pitch": "C4",
      "midi": 60,
      "start": 59.167,
      "duration": 0.208,
      "velocity": 0.49
    },
    {
      "id": "n-00417",
      "pitch": "G4",
      "midi": 67,
      "start": 59.375,
      "duration": 0.208,
      "velocity": 0.49
    },
    {
      "id": "n-00418",
      "pitch": "F5",
      "midi": 77,
      "start": 59.583,
      "duration": 0.208,
      "velocity": 0.49
    },
    {
      "id": "n-00419",
      "pitch": "E5",
      "midi": 76,
      "start": 59.792,
      "duration": 0.208,
      "velocity": 0.49
    },
    {
      "id": "n-00420",
      "pitch": "G2",
      "midi": 43,
      "start": 60,
      "duration": 0.208,
      "velocity": 0.49
    },
    {
      "id": "n-00421",
      "pitch": "D5",
      "midi": 74,
      "start": 60,
      "duration": 0.625,
      "velocity": 0.49
    },
    {
      "id": "n-00422",
      "pitch": "G3",
      "midi": 55,
      "start": 60.208,
      "duration": 0.208,
      "velocity": 0.49
    },
    {
      "id": "n-00423",
      "pitch": "B3",
      "midi": 59,
      "start": 60.417,
      "duration": 0.208,
      "velocity": 0.49
    },
    {
      "id": "n-00424",
      "pitch": "F4",
      "midi": 65,
      "start": 60.625,
      "duration": 0.208,
      "velocity": 0.49
    },
    {
      "id": "n-00425",
      "pitch": "E5",
      "midi": 76,
      "start": 60.833,
      "duration": 0.208,
      "velocity": 0.49
    },
    {
      "id": "n-00426",
      "pitch": "D5",
      "midi": 74,
      "start": 61.042,
      "duration": 0.208,
      "velocity": 0.49
    },
    {
      "id": "n-00427",
      "pitch": "A2",
      "midi": 45,
      "start": 61.25,
      "duration": 0.208,
      "velocity": 0.49
    },
    {
      "id": "n-00428",
      "pitch": "C5",
      "midi": 72,
      "start": 61.25,
      "duration": 0.625,
      "velocity": 0.49
    },
    {
      "id": "n-00429",
      "pitch": "E3",
      "midi": 52,
      "start": 61.458,
      "duration": 0.208,
      "velocity": 0.49
    },
    {
      "id": "n-00430",
      "pitch": "A3",
      "midi": 57,
      "start": 61.667,
      "duration": 0.208,
      "velocity": 0.49
    },
    {
      "id": "n-00431",
      "pitch": "E4",
      "midi": 64,
      "start": 61.875,
      "duration": 0.208,
      "velocity": 0.49
    },
    {
      "id": "n-00432",
      "pitch": "D5",
      "midi": 74,
      "start": 62.083,
      "duration": 0.208,
      "velocity": 0.49
    },
    {
      "id": "n-00433",
      "pitch": "C5",
      "midi": 72,
      "start": 62.292,
      "duration": 0.208,
      "velocity": 0.49
    },
    {
      "id": "n-00434",
      "pitch": "E2",
      "midi": 40,
      "start": 62.5,
      "duration": 0.208,
      "velocity": 0.49
    },
    {
      "id": "n-00435",
      "pitch": "B4",
      "midi": 71,
      "start": 62.5,
      "duration": 0.417,
      "velocity": 0.49
    },
    {
      "id": "n-00436",
      "pitch": "E3",
      "midi": 52,
      "start": 62.708,
      "duration": 0.208,
      "velocity": 0.49
    },
    {
      "id": "n-00437",
      "pitch": "E4",
      "midi": 64,
      "start": 62.917,
      "duration": 0.208,
      "velocity": 0.49
    },
    {
      "id": "n-00438",
      "pitch": "E4",
      "midi": 64,
      "start": 63.125,
      "duration": 0.208,
      "velocity": 0.49
    },
    {
      "id": "n-00439",
      "pitch": "E5",
      "midi": 76,
      "start": 63.333,
      "duration": 0.208,
      "velocity": 0.49
    },
    {
      "id": "n-00440",
      "pitch": "E4",
      "midi": 64,
      "start": 63.542,
      "duration": 0.208,
      "velocity": 0.49
    },
    {
      "id": "n-00441",
      "pitch": "E5",
      "midi": 76,
      "start": 63.75,
      "duration": 0.208,
      "velocity": 0.49
    },
    {
      "id": "n-00442",
      "pitch": "E5",
      "midi": 76,
      "start": 63.958,
      "duration": 0.208,
      "velocity": 0.49
    },
    {
      "id": "n-00443",
      "pitch": "E6",
      "midi": 88,
      "start": 64.167,
      "duration": 0.208,
      "velocity": 0.49
    },
    {
      "id": "n-00444",
      "pitch": "D#5",
      "midi": 75,
      "start": 64.375,
      "duration": 0.208,
      "velocity": 0.49
    },
    {
      "id": "n-00445",
      "pitch": "E5",
      "midi": 76,
      "start": 64.583,
      "duration": 0.208,
      "velocity": 0.49
    },
    {
      "id": "n-00446",
      "pitch": "D#5",
      "midi": 75,
      "start": 64.792,
      "duration": 0.208,
      "velocity": 0.49
    },
    {
      "id": "n-00447",
      "pitch": "E5",
      "midi": 76,
      "start": 65,
      "duration": 0.208,
      "velocity": 0.49
    },
    {
      "id": "n-00448",
      "pitch": "D#5",
      "midi": 75,
      "start": 65.208,
      "duration": 0.208,
      "velocity": 0.49
    },
    {
      "id": "n-00449",
      "pitch": "E5",
      "midi": 76,
      "start": 65.417,
      "duration": 0.208,
      "velocity": 0.49
    },
    {
      "id": "n-00450",
      "pitch": "D#5",
      "midi": 75,
      "start": 65.625,
      "duration": 0.208,
      "velocity": 0.49
    },
    {
      "id": "n-00451",
      "pitch": "E5",
      "midi": 76,
      "start": 65.833,
      "duration": 0.208,
      "velocity": 0.49
    },
    {
      "id": "n-00452",
      "pitch": "D#5",
      "midi": 75,
      "start": 66.042,
      "duration": 0.208,
      "velocity": 0.49
    },
    {
      "id": "n-00453",
      "pitch": "E5",
      "midi": 76,
      "start": 66.25,
      "duration": 0.208,
      "velocity": 0.49
    },
    {
      "id": "n-00454",
      "pitch": "D#5",
      "midi": 75,
      "start": 66.458,
      "duration": 0.208,
      "velocity": 0.49
    },
    {
      "id": "n-00455",
      "pitch": "E5",
      "midi": 76,
      "start": 66.667,
      "duration": 0.208,
      "velocity": 0.49
    },
    {
      "id": "n-00456",
      "pitch": "B4",
      "midi": 71,
      "start": 66.875,
      "duration": 0.208,
      "velocity": 0.49
    },
    {
      "id": "n-00457",
      "pitch": "D5",
      "midi": 74,
      "start": 67.083,
      "duration": 0.208,
      "velocity": 0.49
    },
    {
      "id": "n-00458",
      "pitch": "C5",
      "midi": 72,
      "start": 67.292,
      "duration": 0.208,
      "velocity": 0.49
    },
    {
      "id": "n-00459",
      "pitch": "A2",
      "midi": 45,
      "start": 67.5,
      "duration": 0.208,
      "velocity": 0.49
    },
    {
      "id": "n-00460",
      "pitch": "A4",
      "midi": 69,
      "start": 67.5,
      "duration": 0.417,
      "velocity": 0.49
    },
    {
      "id": "n-00461",
      "pitch": "E3",
      "midi": 52,
      "start": 67.708,
      "duration": 0.208,
      "velocity": 0.49
    },
    {
      "id": "n-00462",
      "pitch": "A3",
      "midi": 57,
      "start": 67.917,
      "duration": 0.208,
      "velocity": 0.49
    },
    {
      "id": "n-00463",
      "pitch": "C4",
      "midi": 60,
      "start": 68.125,
      "duration": 0.208,
      "velocity": 0.49
    },
    {
      "id": "n-00464",
      "pitch": "E4",
      "midi": 64,
      "start": 68.333,
      "duration": 0.208,
      "velocity": 0.49
    },
    {
      "id": "n-00465",
      "pitch": "A4",
      "midi": 69,
      "start": 68.542,
      "duration": 0.208,
      "velocity": 0.49
    },
    {
      "id": "n-00466",
      "pitch": "E2",
      "midi": 40,
      "start": 68.75,
      "duration": 0.208,
      "velocity": 0.49
    },
    {
      "id": "n-00467",
      "pitch": "B4",
      "midi": 71,
      "start": 68.75,
      "duration": 0.417,
      "velocity": 0.49
    },
    {
      "id": "n-00468",
      "pitch": "E3",
      "midi": 52,
      "start": 68.958,
      "duration": 0.208,
      "velocity": 0.49
    },
    {
      "id": "n-00469",
      "pitch": "G#3",
      "midi": 56,
      "start": 69.167,
      "duration": 0.208,
      "velocity": 0.49
    },
    {
      "id": "n-00470",
      "pitch": "E4",
      "midi": 64,
      "start": 69.375,
      "duration": 0.208,
      "velocity": 0.49
    },
    {
      "id": "n-00471",
      "pitch": "G#4",
      "midi": 68,
      "start": 69.583,
      "duration": 0.208,
      "velocity": 0.49
    },
    {
      "id": "n-00472",
      "pitch": "B4",
      "midi": 71,
      "start": 69.792,
      "duration": 0.208,
      "velocity": 0.49
    },
    {
      "id": "n-00473",
      "pitch": "A2",
      "midi": 45,
      "start": 70,
      "duration": 0.208,
      "velocity": 0.49
    },
    {
      "id": "n-00474",
      "pitch": "C5",
      "midi": 72,
      "start": 70,
      "duration": 0.417,
      "velocity": 0.49
    },
    {
      "id": "n-00475",
      "pitch": "E3",
      "midi": 52,
      "start": 70.208,
      "duration": 0.208,
      "velocity": 0.49
    },
    {
      "id": "n-00476",
      "pitch": "A3",
      "midi": 57,
      "start": 70.417,
      "duration": 0.208,
      "velocity": 0.49
    },
    {
      "id": "n-00477",
      "pitch": "E4",
      "midi": 64,
      "start": 70.625,
      "duration": 0.208,
      "velocity": 0.49
    },
    {
      "id": "n-00478",
      "pitch": "E5",
      "midi": 76,
      "start": 70.833,
      "duration": 0.208,
      "velocity": 0.49
    },
    {
      "id": "n-00479",
      "pitch": "D#5",
      "midi": 75,
      "start": 71.042,
      "duration": 0.208,
      "velocity": 0.49
    },
    {
      "id": "n-00480",
      "pitch": "E5",
      "midi": 76,
      "start": 71.25,
      "duration": 0.208,
      "velocity": 0.49
    },
    {
      "id": "n-00481",
      "pitch": "D#5",
      "midi": 75,
      "start": 71.458,
      "duration": 0.208,
      "velocity": 0.49
    },
    {
      "id": "n-00482",
      "pitch": "E5",
      "midi": 76,
      "start": 71.667,
      "duration": 0.208,
      "velocity": 0.49
    },
    {
      "id": "n-00483",
      "pitch": "B4",
      "midi": 71,
      "start": 71.875,
      "duration": 0.208,
      "velocity": 0.49
    },
    {
      "id": "n-00484",
      "pitch": "D5",
      "midi": 74,
      "start": 72.083,
      "duration": 0.208,
      "velocity": 0.49
    },
    {
      "id": "n-00485",
      "pitch": "C5",
      "midi": 72,
      "start": 72.292,
      "duration": 0.208,
      "velocity": 0.49
    },
    {
      "id": "n-00486",
      "pitch": "A2",
      "midi": 45,
      "start": 72.5,
      "duration": 0.208,
      "velocity": 0.49
    },
    {
      "id": "n-00487",
      "pitch": "A4",
      "midi": 69,
      "start": 72.5,
      "duration": 0.417,
      "velocity": 0.49
    },
    {
      "id": "n-00488",
      "pitch": "E3",
      "midi": 52,
      "start": 72.708,
      "duration": 0.208,
      "velocity": 0.49
    },
    {
      "id": "n-00489",
      "pitch": "A3",
      "midi": 57,
      "start": 72.917,
      "duration": 0.208,
      "velocity": 0.49
    },
    {
      "id": "n-00490",
      "pitch": "C4",
      "midi": 60,
      "start": 73.125,
      "duration": 0.208,
      "velocity": 0.49
    },
    {
      "id": "n-00491",
      "pitch": "E4",
      "midi": 64,
      "start": 73.333,
      "duration": 0.208,
      "velocity": 0.49
    },
    {
      "id": "n-00492",
      "pitch": "A4",
      "midi": 69,
      "start": 73.542,
      "duration": 0.208,
      "velocity": 0.49
    },
    {
      "id": "n-00493",
      "pitch": "E2",
      "midi": 40,
      "start": 73.75,
      "duration": 0.208,
      "velocity": 0.49
    },
    {
      "id": "n-00494",
      "pitch": "B4",
      "midi": 71,
      "start": 73.75,
      "duration": 0.417,
      "velocity": 0.49
    },
    {
      "id": "n-00495",
      "pitch": "E3",
      "midi": 52,
      "start": 73.958,
      "duration": 0.208,
      "velocity": 0.49
    },
    {
      "id": "n-00496",
      "pitch": "G#3",
      "midi": 56,
      "start": 74.167,
      "duration": 0.208,
      "velocity": 0.49
    },
    {
      "id": "n-00497",
      "pitch": "E4",
      "midi": 64,
      "start": 74.375,
      "duration": 0.208,
      "velocity": 0.49
    },
    {
      "id": "n-00498",
      "pitch": "C5",
      "midi": 72,
      "start": 74.583,
      "duration": 0.208,
      "velocity": 0.49
    },
    {
      "id": "n-00499",
      "pitch": "B4",
      "midi": 71,
      "start": 74.792,
      "duration": 0.208,
      "velocity": 0.49
    },
    {
      "id": "n-00500",
      "pitch": "A2",
      "midi": 45,
      "start": 75,
      "duration": 0.208,
      "velocity": 0.49
    },
    {
      "id": "n-00501",
      "pitch": "A4",
      "midi": 69,
      "start": 75,
      "duration": 0.417,
      "velocity": 0.49
    },
    {
      "id": "n-00502",
      "pitch": "A2",
      "midi": 45,
      "start": 75.208,
      "duration": 0.208,
      "velocity": 0.49
    },
    {
      "id": "n-00503",
      "pitch": "A2",
      "midi": 45,
      "start": 75.417,
      "duration": 0.208,
      "velocity": 0.49
    },
    {
      "id": "n-00504",
      "pitch": "A2",
      "midi": 45,
      "start": 75.625,
      "duration": 0.208,
      "velocity": 0.49
    },
    {
      "id": "n-00505",
      "pitch": "A2",
      "midi": 45,
      "start": 75.833,
      "duration": 0.208,
      "velocity": 0.49
    },
    {
      "id": "n-00506",
      "pitch": "A2",
      "midi": 45,
      "start": 76.042,
      "duration": 0.208,
      "velocity": 0.49
    },
    {
      "id": "n-00507",
      "pitch": "A2",
      "midi": 45,
      "start": 76.25,
      "duration": 0.208,
      "velocity": 0.49
    },
    {
      "id": "n-00508",
      "pitch": "E4",
      "midi": 64,
      "start": 76.25,
      "duration": 1.25,
      "velocity": 0.49
    },
    {
      "id": "n-00509",
      "pitch": "G4",
      "midi": 67,
      "start": 76.25,
      "duration": 1.25,
      "velocity": 0.49
    },
    {
      "id": "n-00510",
      "pitch": "A#4",
      "midi": 70,
      "start": 76.25,
      "duration": 1.25,
      "velocity": 0.49
    },
    {
      "id": "n-00511",
      "pitch": "C#5",
      "midi": 73,
      "start": 76.25,
      "duration": 1.25,
      "velocity": 0.49
    },
    {
      "id": "n-00512",
      "pitch": "A2",
      "midi": 45,
      "start": 76.458,
      "duration": 0.208,
      "velocity": 0.49
    },
    {
      "id": "n-00513",
      "pitch": "A2",
      "midi": 45,
      "start": 76.667,
      "duration": 0.208,
      "velocity": 0.49
    },
    {
      "id": "n-00514",
      "pitch": "A2",
      "midi": 45,
      "start": 76.875,
      "duration": 0.208,
      "velocity": 0.49
    },
    {
      "id": "n-00515",
      "pitch": "A2",
      "midi": 45,
      "start": 77.083,
      "duration": 0.208,
      "velocity": 0.49
    },
    {
      "id": "n-00516",
      "pitch": "A2",
      "midi": 45,
      "start": 77.292,
      "duration": 0.208,
      "velocity": 0.49
    },
    {
      "id": "n-00517",
      "pitch": "A2",
      "midi": 45,
      "start": 77.5,
      "duration": 0.208,
      "velocity": 0.49
    },
    {
      "id": "n-00518",
      "pitch": "F4",
      "midi": 65,
      "start": 77.5,
      "duration": 0.833,
      "velocity": 0.49
    },
    {
      "id": "n-00519",
      "pitch": "A4",
      "midi": 69,
      "start": 77.5,
      "duration": 0.833,
      "velocity": 0.49
    },
    {
      "id": "n-00520",
      "pitch": "D5",
      "midi": 74,
      "start": 77.5,
      "duration": 0.833,
      "velocity": 0.49
    },
    {
      "id": "n-00521",
      "pitch": "A2",
      "midi": 45,
      "start": 77.708,
      "duration": 0.208,
      "velocity": 0.49
    },
    {
      "id": "n-00522",
      "pitch": "A2",
      "midi": 45,
      "start": 77.917,
      "duration": 0.208,
      "velocity": 0.49
    },
    {
      "id": "n-00523",
      "pitch": "A2",
      "midi": 45,
      "start": 78.125,
      "duration": 0.208,
      "velocity": 0.49
    },
    {
      "id": "n-00524",
      "pitch": "A2",
      "midi": 45,
      "start": 78.333,
      "duration": 0.208,
      "velocity": 0.49
    },
    {
      "id": "n-00525",
      "pitch": "C#5",
      "midi": 73,
      "start": 78.333,
      "duration": 0.208,
      "velocity": 0.49
    },
    {
      "id": "n-00526",
      "pitch": "E5",
      "midi": 76,
      "start": 78.333,
      "duration": 0.208,
      "velocity": 0.49
    },
    {
      "id": "n-00527",
      "pitch": "A2",
      "midi": 45,
      "start": 78.542,
      "duration": 0.208,
      "velocity": 0.49
    },
    {
      "id": "n-00528",
      "pitch": "D5",
      "midi": 74,
      "start": 78.542,
      "duration": 0.208,
      "velocity": 0.49
    },
    {
      "id": "n-00529",
      "pitch": "F5",
      "midi": 77,
      "start": 78.542,
      "duration": 0.208,
      "velocity": 0.49
    },
    {
      "id": "n-00530",
      "pitch": "A2",
      "midi": 45,
      "start": 78.75,
      "duration": 0.208,
      "velocity": 0.49
    },
    {
      "id": "n-00531",
      "pitch": "G#4",
      "midi": 68,
      "start": 78.75,
      "duration": 0.833,
      "velocity": 0.49
    },
    {
      "id": "n-00532",
      "pitch": "D5",
      "midi": 74,
      "start": 78.75,
      "duration": 0.833,
      "velocity": 0.49
    },
    {
      "id": "n-00533",
      "pitch": "F5",
      "midi": 77,
      "start": 78.75,
      "duration": 0.833,
      "velocity": 0.49
    },
    {
      "id": "n-00534",
      "pitch": "A2",
      "midi": 45,
      "start": 78.958,
      "duration": 0.208,
      "velocity": 0.49
    },
    {
      "id": "n-00535",
      "pitch": "A2",
      "midi": 45,
      "start": 79.167,
      "duration": 0.208,
      "velocity": 0.49
    },
    {
      "id": "n-00536",
      "pitch": "A2",
      "midi": 45,
      "start": 79.375,
      "duration": 0.208,
      "velocity": 0.49
    },
    {
      "id": "n-00537",
      "pitch": "A2",
      "midi": 45,
      "start": 79.583,
      "duration": 0.208,
      "velocity": 0.49
    },
    {
      "id": "n-00538",
      "pitch": "G#4",
      "midi": 68,
      "start": 79.583,
      "duration": 0.417,
      "velocity": 0.49
    },
    {
      "id": "n-00539",
      "pitch": "D5",
      "midi": 74,
      "start": 79.583,
      "duration": 0.417,
      "velocity": 0.49
    },
    {
      "id": "n-00540",
      "pitch": "F5",
      "midi": 77,
      "start": 79.583,
      "duration": 0.417,
      "velocity": 0.49
    },
    {
      "id": "n-00541",
      "pitch": "A2",
      "midi": 45,
      "start": 79.792,
      "duration": 0.208,
      "velocity": 0.49
    },
    {
      "id": "n-00542",
      "pitch": "A2",
      "midi": 45,
      "start": 80,
      "duration": 0.208,
      "velocity": 0.49
    },
    {
      "id": "n-00543",
      "pitch": "A4",
      "midi": 69,
      "start": 80,
      "duration": 1.25,
      "velocity": 0.49
    },
    {
      "id": "n-00544",
      "pitch": "C5",
      "midi": 72,
      "start": 80,
      "duration": 1.25,
      "velocity": 0.49
    },
    {
      "id": "n-00545",
      "pitch": "E5",
      "midi": 76,
      "start": 80,
      "duration": 1.25,
      "velocity": 0.49
    },
    {
      "id": "n-00546",
      "pitch": "A2",
      "midi": 45,
      "start": 80.208,
      "duration": 0.208,
      "velocity": 0.49
    },
    {
      "id": "n-00547",
      "pitch": "A2",
      "midi": 45,
      "start": 80.417,
      "duration": 0.208,
      "velocity": 0.49
    },
    {
      "id": "n-00548",
      "pitch": "A2",
      "midi": 45,
      "start": 80.625,
      "duration": 0.208,
      "velocity": 0.49
    },
    {
      "id": "n-00549",
      "pitch": "A2",
      "midi": 45,
      "start": 80.833,
      "duration": 0.208,
      "velocity": 0.49
    },
    {
      "id": "n-00550",
      "pitch": "A2",
      "midi": 45,
      "start": 81.042,
      "duration": 0.208,
      "velocity": 0.49
    },
    {
      "id": "n-00551",
      "pitch": "D2",
      "midi": 38,
      "start": 81.25,
      "duration": 0.208,
      "velocity": 0.49
    },
    {
      "id": "n-00552",
      "pitch": "A2",
      "midi": 45,
      "start": 81.25,
      "duration": 0.208,
      "velocity": 0.49
    },
    {
      "id": "n-00553",
      "pitch": "F4",
      "midi": 65,
      "start": 81.25,
      "duration": 0.833,
      "velocity": 0.49
    },
    {
      "id": "n-00554",
      "pitch": "D5",
      "midi": 74,
      "start": 81.25,
      "duration": 0.833,
      "velocity": 0.49
    },
    {
      "id": "n-00555",
      "pitch": "D2",
      "midi": 38,
      "start": 81.458,
      "duration": 0.208,
      "velocity": 0.49
    },
    {
      "id": "n-00556",
      "pitch": "A2",
      "midi": 45,
      "start": 81.458,
      "duration": 0.208,
      "velocity": 0.49
    },
    {
      "id": "n-00557",
      "pitch": "D2",
      "midi": 38,
      "start": 81.667,
      "duration": 0.208,
      "velocity": 0.49
    },
    {
      "id": "n-00558",
      "pitch": "A2",
      "midi": 45,
      "start": 81.667,
      "duration": 0.208,
      "velocity": 0.49
    },
    {
      "id": "n-00559",
      "pitch": "D2",
      "midi": 38,
      "start": 81.875,
      "duration": 0.208,
      "velocity": 0.49
    },
    {
      "id": "n-00560",
      "pitch": "A2",
      "midi": 45,
      "start": 81.875,
      "duration": 0.208,
      "velocity": 0.49
    },
    {
      "id": "n-00561",
      "pitch": "D2",
      "midi": 38,
      "start": 82.083,
      "duration": 0.208,
      "velocity": 0.49
    },
    {
      "id": "n-00562",
      "pitch": "A2",
      "midi": 45,
      "start": 82.083,
      "duration": 0.208,
      "velocity": 0.49
    },
    {
      "id": "n-00563",
      "pitch": "E4",
      "midi": 64,
      "start": 82.083,
      "duration": 0.208,
      "velocity": 0.49
    },
    {
      "id": "n-00564",
      "pitch": "C5",
      "midi": 72,
      "start": 82.083,
      "duration": 0.208,
      "velocity": 0.49
    },
    {
      "id": "n-00565",
      "pitch": "D2",
      "midi": 38,
      "start": 82.292,
      "duration": 0.208,
      "velocity": 0.49
    },
    {
      "id": "n-00566",
      "pitch": "A2",
      "midi": 45,
      "start": 82.292,
      "duration": 0.208,
      "velocity": 0.49
    },
    {
      "id": "n-00567",
      "pitch": "D4",
      "midi": 62,
      "start": 82.292,
      "duration": 0.208,
      "velocity": 0.49
    },
    {
      "id": "n-00568",
      "pitch": "B4",
      "midi": 71,
      "start": 82.292,
      "duration": 0.208,
      "velocity": 0.49
    },
    {
      "id": "n-00569",
      "pitch": "D#2",
      "midi": 39,
      "start": 82.5,
      "duration": 0.208,
      "velocity": 0.49
    },
    {
      "id": "n-00570",
      "pitch": "A2",
      "midi": 45,
      "start": 82.5,
      "duration": 0.208,
      "velocity": 0.49
    },
    {
      "id": "n-00571",
      "pitch": "C4",
      "midi": 60,
      "start": 82.5,
      "duration": 0.833,
      "velocity": 0.49
    },
    {
      "id": "n-00572",
      "pitch": "F#4",
      "midi": 66,
      "start": 82.5,
      "duration": 0.833,
      "velocity": 0.49
    },
    {
      "id": "n-00573",
      "pitch": "A4",
      "midi": 69,
      "start": 82.5,
      "duration": 0.833,
      "velocity": 0.49
    },
    {
      "id": "n-00574",
      "pitch": "D#2",
      "midi": 39,
      "start": 82.708,
      "duration": 0.208,
      "velocity": 0.49
    },
    {
      "id": "n-00575",
      "pitch": "A2",
      "midi": 45,
      "start": 82.708,
      "duration": 0.208,
      "velocity": 0.49
    },
    {
      "id": "n-00576",
      "pitch": "D#2",
      "midi": 39,
      "start": 82.917,
      "duration": 0.208,
      "velocity": 0.49
    },
    {
      "id": "n-00577",
      "pitch": "A2",
      "midi": 45,
      "start": 82.917,
      "duration": 0.208,
      "velocity": 0.49
    },
    {
      "id": "n-00578",
      "pitch": "D#2",
      "midi": 39,
      "start": 83.125,
      "duration": 0.208,
      "velocity": 0.49
    },
    {
      "id": "n-00579",
      "pitch": "A2",
      "midi": 45,
      "start": 83.125,
      "duration": 0.208,
      "velocity": 0.49
    },
    {
      "id": "n-00580",
      "pitch": "D#2",
      "midi": 39,
      "start": 83.333,
      "duration": 0.208,
      "velocity": 0.49
    },
    {
      "id": "n-00581",
      "pitch": "A2",
      "midi": 45,
      "start": 83.333,
      "duration": 0.208,
      "velocity": 0.49
    },
    {
      "id": "n-00582",
      "pitch": "C4",
      "midi": 60,
      "start": 83.333,
      "duration": 0.417,
      "velocity": 0.49
    },
    {
      "id": "n-00583",
      "pitch": "A4",
      "midi": 69,
      "start": 83.333,
      "duration": 0.417,
      "velocity": 0.49
    },
    {
      "id": "n-00584",
      "pitch": "D#2",
      "midi": 39,
      "start": 83.542,
      "duration": 0.208,
      "velocity": 0.49
    },
    {
      "id": "n-00585",
      "pitch": "A2",
      "midi": 45,
      "start": 83.542,
      "duration": 0.208,
      "velocity": 0.49
    },
    {
      "id": "n-00586",
      "pitch": "E2",
      "midi": 40,
      "start": 83.75,
      "duration": 0.208,
      "velocity": 0.49
    },
    {
      "id": "n-00587",
      "pitch": "A2",
      "midi": 45,
      "start": 83.75,
      "duration": 0.208,
      "velocity": 0.49
    },
    {
      "id": "n-00588",
      "pitch": "C4",
      "midi": 60,
      "start": 83.75,
      "duration": 0.417,
      "velocity": 0.49
    },
    {
      "id": "n-00589",
      "pitch": "A4",
      "midi": 69,
      "start": 83.75,
      "duration": 0.417,
      "velocity": 0.49
    },
    {
      "id": "n-00590",
      "pitch": "E2",
      "midi": 40,
      "start": 83.958,
      "duration": 0.208,
      "velocity": 0.49
    },
    {
      "id": "n-00591",
      "pitch": "A2",
      "midi": 45,
      "start": 83.958,
      "duration": 0.208,
      "velocity": 0.49
    },
    {
      "id": "n-00592",
      "pitch": "E2",
      "midi": 40,
      "start": 84.167,
      "duration": 0.208,
      "velocity": 0.49
    },
    {
      "id": "n-00593",
      "pitch": "A2",
      "midi": 45,
      "start": 84.167,
      "duration": 0.208,
      "velocity": 0.49
    },
    {
      "id": "n-00594",
      "pitch": "E4",
      "midi": 64,
      "start": 84.167,
      "duration": 0.417,
      "velocity": 0.49
    },
    {
      "id": "n-00595",
      "pitch": "C5",
      "midi": 72,
      "start": 84.167,
      "duration": 0.417,
      "velocity": 0.49
    },
    {
      "id": "n-00596",
      "pitch": "E2",
      "midi": 40,
      "start": 84.375,
      "duration": 0.208,
      "velocity": 0.49
    },
    {
      "id": "n-00597",
      "pitch": "A2",
      "midi": 45,
      "start": 84.375,
      "duration": 0.208,
      "velocity": 0.49
    },
    {
      "id": "n-00598",
      "pitch": "E2",
      "midi": 40,
      "start": 84.583,
      "duration": 0.208,
      "velocity": 0.49
    },
    {
      "id": "n-00599",
      "pitch": "G#2",
      "midi": 44,
      "start": 84.583,
      "duration": 0.208,
      "velocity": 0.49
    },
    {
      "id": "n-00600",
      "pitch": "D4",
      "midi": 62,
      "start": 84.583,
      "duration": 0.417,
      "velocity": 0.49
    },
    {
      "id": "n-00601",
      "pitch": "B4",
      "midi": 71,
      "start": 84.583,
      "duration": 0.417,
      "velocity": 0.49
    },
    {
      "id": "n-00602",
      "pitch": "E2",
      "midi": 40,
      "start": 84.792,
      "duration": 0.208,
      "velocity": 0.49
    },
    {
      "id": "n-00603",
      "pitch": "G#2",
      "midi": 44,
      "start": 84.792,
      "duration": 0.208,
      "velocity": 0.49
    },
    {
      "id": "n-00604",
      "pitch": "A1",
      "midi": 33,
      "start": 85,
      "duration": 0.208,
      "velocity": 0.49
    },
    {
      "id": "n-00605",
      "pitch": "A2",
      "midi": 45,
      "start": 85,
      "duration": 0.208,
      "velocity": 0.49
    },
    {
      "id": "n-00606",
      "pitch": "C4",
      "midi": 60,
      "start": 85,
      "duration": 1.25,
      "velocity": 0.49
    },
    {
      "id": "n-00607",
      "pitch": "A4",
      "midi": 69,
      "start": 85,
      "duration": 1.25,
      "velocity": 0.49
    },
    {
      "id": "n-00608",
      "pitch": "A2",
      "midi": 45,
      "start": 85.208,
      "duration": 0.208,
      "velocity": 0.49
    },
    {
      "id": "n-00609",
      "pitch": "A2",
      "midi": 45,
      "start": 85.417,
      "duration": 0.208,
      "velocity": 0.49
    },
    {
      "id": "n-00610",
      "pitch": "A2",
      "midi": 45,
      "start": 85.625,
      "duration": 0.208,
      "velocity": 0.49
    },
    {
      "id": "n-00611",
      "pitch": "A2",
      "midi": 45,
      "start": 85.833,
      "duration": 0.208,
      "velocity": 0.49
    },
    {
      "id": "n-00612",
      "pitch": "A2",
      "midi": 45,
      "start": 86.042,
      "duration": 0.208,
      "velocity": 0.49
    },
    {
      "id": "n-00613",
      "pitch": "A2",
      "midi": 45,
      "start": 86.25,
      "duration": 0.208,
      "velocity": 0.49
    },
    {
      "id": "n-00614",
      "pitch": "E4",
      "midi": 64,
      "start": 86.25,
      "duration": 1.25,
      "velocity": 0.49
    },
    {
      "id": "n-00615",
      "pitch": "G4",
      "midi": 67,
      "start": 86.25,
      "duration": 1.25,
      "velocity": 0.49
    },
    {
      "id": "n-00616",
      "pitch": "A#4",
      "midi": 70,
      "start": 86.25,
      "duration": 1.25,
      "velocity": 0.49
    },
    {
      "id": "n-00617",
      "pitch": "C#5",
      "midi": 73,
      "start": 86.25,
      "duration": 1.25,
      "velocity": 0.49
    },
    {
      "id": "n-00618",
      "pitch": "A2",
      "midi": 45,
      "start": 86.458,
      "duration": 0.208,
      "velocity": 0.49
    },
    {
      "id": "n-00619",
      "pitch": "A2",
      "midi": 45,
      "start": 86.667,
      "duration": 0.208,
      "velocity": 0.49
    },
    {
      "id": "n-00620",
      "pitch": "A2",
      "midi": 45,
      "start": 86.875,
      "duration": 0.208,
      "velocity": 0.49
    },
    {
      "id": "n-00621",
      "pitch": "A2",
      "midi": 45,
      "start": 87.083,
      "duration": 0.208,
      "velocity": 0.49
    },
    {
      "id": "n-00622",
      "pitch": "A2",
      "midi": 45,
      "start": 87.292,
      "duration": 0.208,
      "velocity": 0.49
    },
    {
      "id": "n-00623",
      "pitch": "A2",
      "midi": 45,
      "start": 87.5,
      "duration": 0.208,
      "velocity": 0.49
    },
    {
      "id": "n-00624",
      "pitch": "F4",
      "midi": 65,
      "start": 87.5,
      "duration": 0.833,
      "velocity": 0.49
    },
    {
      "id": "n-00625",
      "pitch": "A4",
      "midi": 69,
      "start": 87.5,
      "duration": 0.833,
      "velocity": 0.49
    },
    {
      "id": "n-00626",
      "pitch": "D5",
      "midi": 74,
      "start": 87.5,
      "duration": 0.833,
      "velocity": 0.49
    },
    {
      "id": "n-00627",
      "pitch": "A2",
      "midi": 45,
      "start": 87.708,
      "duration": 0.208,
      "velocity": 0.49
    },
    {
      "id": "n-00628",
      "pitch": "A2",
      "midi": 45,
      "start": 87.917,
      "duration": 0.208,
      "velocity": 0.49
    },
    {
      "id": "n-00629",
      "pitch": "A2",
      "midi": 45,
      "start": 88.125,
      "duration": 0.208,
      "velocity": 0.49
    },
    {
      "id": "n-00630",
      "pitch": "A2",
      "midi": 45,
      "start": 88.333,
      "duration": 0.208,
      "velocity": 0.49
    },
    {
      "id": "n-00631",
      "pitch": "C#5",
      "midi": 73,
      "start": 88.333,
      "duration": 0.208,
      "velocity": 0.49
    },
    {
      "id": "n-00632",
      "pitch": "E5",
      "midi": 76,
      "start": 88.333,
      "duration": 0.208,
      "velocity": 0.49
    },
    {
      "id": "n-00633",
      "pitch": "A2",
      "midi": 45,
      "start": 88.542,
      "duration": 0.208,
      "velocity": 0.49
    },
    {
      "id": "n-00634",
      "pitch": "D5",
      "midi": 74,
      "start": 88.542,
      "duration": 0.208,
      "velocity": 0.49
    },
    {
      "id": "n-00635",
      "pitch": "F5",
      "midi": 77,
      "start": 88.542,
      "duration": 0.208,
      "velocity": 0.49
    },
    {
      "id": "n-00636",
      "pitch": "A2",
      "midi": 45,
      "start": 88.75,
      "duration": 0.208,
      "velocity": 0.49
    },
    {
      "id": "n-00637",
      "pitch": "D5",
      "midi": 74,
      "start": 88.75,
      "duration": 0.833,
      "velocity": 0.49
    },
    {
      "id": "n-00638",
      "pitch": "F5",
      "midi": 77,
      "start": 88.75,
      "duration": 0.833,
      "velocity": 0.49
    },
    {
      "id": "n-00639",
      "pitch": "A2",
      "midi": 45,
      "start": 88.958,
      "duration": 0.208,
      "velocity": 0.49
    },
    {
      "id": "n-00640",
      "pitch": "A2",
      "midi": 45,
      "start": 89.167,
      "duration": 0.208,
      "velocity": 0.49
    },
    {
      "id": "n-00641",
      "pitch": "A2",
      "midi": 45,
      "start": 89.375,
      "duration": 0.208,
      "velocity": 0.49
    },
    {
      "id": "n-00642",
      "pitch": "A2",
      "midi": 45,
      "start": 89.583,
      "duration": 0.208,
      "velocity": 0.49
    },
    {
      "id": "n-00643",
      "pitch": "D5",
      "midi": 74,
      "start": 89.583,
      "duration": 0.417,
      "velocity": 0.49
    },
    {
      "id": "n-00644",
      "pitch": "F5",
      "midi": 77,
      "start": 89.583,
      "duration": 0.417,
      "velocity": 0.49
    },
    {
      "id": "n-00645",
      "pitch": "A2",
      "midi": 45,
      "start": 89.792,
      "duration": 0.208,
      "velocity": 0.49
    },
    {
      "id": "n-00646",
      "pitch": "A#2",
      "midi": 46,
      "start": 90,
      "duration": 0.208,
      "velocity": 0.49
    },
    {
      "id": "n-00647",
      "pitch": "D5",
      "midi": 74,
      "start": 90,
      "duration": 1.25,
      "velocity": 0.49
    },
    {
      "id": "n-00648",
      "pitch": "F5",
      "midi": 77,
      "start": 90,
      "duration": 1.25,
      "velocity": 0.49
    },
    {
      "id": "n-00649",
      "pitch": "A#2",
      "midi": 46,
      "start": 90.208,
      "duration": 0.208,
      "velocity": 0.49
    },
    {
      "id": "n-00650",
      "pitch": "A#2",
      "midi": 46,
      "start": 90.417,
      "duration": 0.208,
      "velocity": 0.49
    },
    {
      "id": "n-00651",
      "pitch": "A#2",
      "midi": 46,
      "start": 90.625,
      "duration": 0.208,
      "velocity": 0.49
    },
    {
      "id": "n-00652",
      "pitch": "A#2",
      "midi": 46,
      "start": 90.833,
      "duration": 0.208,
      "velocity": 0.49
    },
    {
      "id": "n-00653",
      "pitch": "A#2",
      "midi": 46,
      "start": 91.042,
      "duration": 0.208,
      "velocity": 0.49
    },
    {
      "id": "n-00654",
      "pitch": "A#2",
      "midi": 46,
      "start": 91.25,
      "duration": 0.208,
      "velocity": 0.49
    },
    {
      "id": "n-00655",
      "pitch": "G4",
      "midi": 67,
      "start": 91.25,
      "duration": 0.833,
      "velocity": 0.49
    },
    {
      "id": "n-00656",
      "pitch": "D#5",
      "midi": 75,
      "start": 91.25,
      "duration": 0.833,
      "velocity": 0.49
    },
    {
      "id": "n-00657",
      "pitch": "A#2",
      "midi": 46,
      "start": 91.458,
      "duration": 0.208,
      "velocity": 0.49
    },
    {
      "id": "n-00658",
      "pitch": "A#2",
      "midi": 46,
      "start": 91.667,
      "duration": 0.208,
      "velocity": 0.49
    },
    {
      "id": "n-00659",
      "pitch": "A#2",
      "midi": 46,
      "start": 91.875,
      "duration": 0.208,
      "velocity": 0.49
    },
    {
      "id": "n-00660",
      "pitch": "A#2",
      "midi": 46,
      "start": 92.083,
      "duration": 0.208,
      "velocity": 0.49
    },
    {
      "id": "n-00661",
      "pitch": "F4",
      "midi": 65,
      "start": 92.083,
      "duration": 0.208,
      "velocity": 0.49
    },
    {
      "id": "n-00662",
      "pitch": "D5",
      "midi": 74,
      "start": 92.083,
      "duration": 0.208,
      "velocity": 0.49
    },
    {
      "id": "n-00663",
      "pitch": "A#2",
      "midi": 46,
      "start": 92.292,
      "duration": 0.208,
      "velocity": 0.49
    },
    {
      "id": "n-00664",
      "pitch": "D#4",
      "midi": 63,
      "start": 92.292,
      "duration": 0.208,
      "velocity": 0.49
    },
    {
      "id": "n-00665",
      "pitch": "C5",
      "midi": 72,
      "start": 92.292,
      "duration": 0.208,
      "velocity": 0.49
    },
    {
      "id": "n-00666",
      "pitch": "A#2",
      "midi": 46,
      "start": 92.5,
      "duration": 0.208,
      "velocity": 0.49
    },
    {
      "id": "n-00667",
      "pitch": "D4",
      "midi": 62,
      "start": 92.5,
      "duration": 0.833,
      "velocity": 0.49
    },
    {
      "id": "n-00668",
      "pitch": "F4",
      "midi": 65,
      "start": 92.5,
      "duration": 0.833,
      "velocity": 0.49
    },
    {
      "id": "n-00669",
      "pitch": "A#4",
      "midi": 70,
      "start": 92.5,
      "duration": 0.833,
      "velocity": 0.49
    },
    {
      "id": "n-00670",
      "pitch": "A#2",
      "midi": 46,
      "start": 92.708,
      "duration": 0.208,
      "velocity": 0.49
    },
    {
      "id": "n-00671",
      "pitch": "A#2",
      "midi": 46,
      "start": 92.917,
      "duration": 0.208,
      "velocity": 0.49
    },
    {
      "id": "n-00672",
      "pitch": "A#2",
      "midi": 46,
      "start": 93.125,
      "duration": 0.208,
      "velocity": 0.49
    },
    {
      "id": "n-00673",
      "pitch": "A#2",
      "midi": 46,
      "start": 93.333,
      "duration": 0.208,
      "velocity": 0.49
    },
    {
      "id": "n-00674",
      "pitch": "D4",
      "midi": 62,
      "start": 93.333,
      "duration": 0.417,
      "velocity": 0.49
    },
    {
      "id": "n-00675",
      "pitch": "F4",
      "midi": 65,
      "start": 93.333,
      "duration": 0.417,
      "velocity": 0.49
    },
    {
      "id": "n-00676",
      "pitch": "A4",
      "midi": 69,
      "start": 93.333,
      "duration": 0.417,
      "velocity": 0.49
    },
    {
      "id": "n-00677",
      "pitch": "A#2",
      "midi": 46,
      "start": 93.542,
      "duration": 0.208,
      "velocity": 0.49
    },
    {
      "id": "n-00678",
      "pitch": "B2",
      "midi": 47,
      "start": 93.75,
      "duration": 0.208,
      "velocity": 0.49
    },
    {
      "id": "n-00679",
      "pitch": "D4",
      "midi": 62,
      "start": 93.75,
      "duration": 0.833,
      "velocity": 0.49
    },
    {
      "id": "n-00680",
      "pitch": "F4",
      "midi": 65,
      "start": 93.75,
      "duration": 0.833,
      "velocity": 0.49
    },
    {
      "id": "n-00681",
      "pitch": "G#4",
      "midi": 68,
      "start": 93.75,
      "duration": 0.833,
      "velocity": 0.49
    },
    {
      "id": "n-00682",
      "pitch": "B2",
      "midi": 47,
      "start": 93.958,
      "duration": 0.208,
      "velocity": 0.49
    },
    {
      "id": "n-00683",
      "pitch": "B2",
      "midi": 47,
      "start": 94.167,
      "duration": 0.208,
      "velocity": 0.49
    },
    {
      "id": "n-00684",
      "pitch": "B2",
      "midi": 47,
      "start": 94.375,
      "duration": 0.208,
      "velocity": 0.49
    },
    {
      "id": "n-00685",
      "pitch": "B2",
      "midi": 47,
      "start": 94.583,
      "duration": 0.208,
      "velocity": 0.49
    },
    {
      "id": "n-00686",
      "pitch": "D4",
      "midi": 62,
      "start": 94.583,
      "duration": 0.417,
      "velocity": 0.49
    },
    {
      "id": "n-00687",
      "pitch": "F4",
      "midi": 65,
      "start": 94.583,
      "duration": 0.417,
      "velocity": 0.49
    },
    {
      "id": "n-00688",
      "pitch": "G#4",
      "midi": 68,
      "start": 94.583,
      "duration": 0.417,
      "velocity": 0.49
    },
    {
      "id": "n-00689",
      "pitch": "B2",
      "midi": 47,
      "start": 94.792,
      "duration": 0.208,
      "velocity": 0.49
    },
    {
      "id": "n-00690",
      "pitch": "C3",
      "midi": 48,
      "start": 95,
      "duration": 0.833,
      "velocity": 0.49
    },
    {
      "id": "n-00691",
      "pitch": "C4",
      "midi": 60,
      "start": 95,
      "duration": 0.833,
      "velocity": 0.49
    },
    {
      "id": "n-00692",
      "pitch": "E4",
      "midi": 64,
      "start": 95,
      "duration": 0.833,
      "velocity": 0.49
    },
    {
      "id": "n-00693",
      "pitch": "A4",
      "midi": 69,
      "start": 95,
      "duration": 0.833,
      "velocity": 0.49
    },
    {
      "id": "n-00694",
      "pitch": "E3",
      "midi": 52,
      "start": 96.25,
      "duration": 0.417,
      "velocity": 0.49
    },
    {
      "id": "n-00695",
      "pitch": "G#3",
      "midi": 56,
      "start": 96.25,
      "duration": 0.417,
      "velocity": 0.49
    },
    {
      "id": "n-00696",
      "pitch": "E4",
      "midi": 64,
      "start": 96.25,
      "duration": 0.417,
      "velocity": 0.49
    },
    {
      "id": "n-00697",
      "pitch": "B4",
      "midi": 71,
      "start": 96.25,
      "duration": 0.417,
      "velocity": 0.49
    },
    {
      "id": "n-00698",
      "pitch": "A1",
      "midi": 33,
      "start": 97.5,
      "duration": 0.417,
      "velocity": 0.49
    },
    {
      "id": "n-00699",
      "pitch": "A3",
      "midi": 57,
      "start": 97.5,
      "duration": 0.139,
      "velocity": 0.49
    },
    {
      "id": "n-00700",
      "pitch": "C4",
      "midi": 60,
      "start": 97.639,
      "duration": 0.139,
      "velocity": 0.49
    },
    {
      "id": "n-00701",
      "pitch": "E4",
      "midi": 64,
      "start": 97.778,
      "duration": 0.139,
      "velocity": 0.49
    },
    {
      "id": "n-00702",
      "pitch": "A4",
      "midi": 69,
      "start": 97.917,
      "duration": 0.139,
      "velocity": 0.49
    },
    {
      "id": "n-00703",
      "pitch": "C5",
      "midi": 72,
      "start": 98.056,
      "duration": 0.139,
      "velocity": 0.49
    },
    {
      "id": "n-00704",
      "pitch": "E5",
      "midi": 76,
      "start": 98.194,
      "duration": 0.139,
      "velocity": 0.49
    },
    {
      "id": "n-00705",
      "pitch": "A3",
      "midi": 57,
      "start": 98.333,
      "duration": 0.417,
      "velocity": 0.49
    },
    {
      "id": "n-00706",
      "pitch": "C4",
      "midi": 60,
      "start": 98.333,
      "duration": 0.417,
      "velocity": 0.49
    },
    {
      "id": "n-00707",
      "pitch": "E4",
      "midi": 64,
      "start": 98.333,
      "duration": 0.417,
      "velocity": 0.49
    },
    {
      "id": "n-00708",
      "pitch": "D5",
      "midi": 74,
      "start": 98.333,
      "duration": 0.139,
      "velocity": 0.49
    },
    {
      "id": "n-00709",
      "pitch": "C5",
      "midi": 72,
      "start": 98.472,
      "duration": 0.139,
      "velocity": 0.49
    },
    {
      "id": "n-00710",
      "pitch": "B4",
      "midi": 71,
      "start": 98.611,
      "duration": 0.139,
      "velocity": 0.49
    },
    {
      "id": "n-00711",
      "pitch": "A3",
      "midi": 57,
      "start": 98.75,
      "duration": 0.417,
      "velocity": 0.49
    },
    {
      "id": "n-00712",
      "pitch": "C4",
      "midi": 60,
      "start": 98.75,
      "duration": 0.417,
      "velocity": 0.49
    },
    {
      "id": "n-00713",
      "pitch": "E4",
      "midi": 64,
      "start": 98.75,
      "duration": 0.417,
      "velocity": 0.49
    },
    {
      "id": "n-00714",
      "pitch": "A4",
      "midi": 69,
      "start": 98.75,
      "duration": 0.139,
      "velocity": 0.49
    },
    {
      "id": "n-00715",
      "pitch": "C5",
      "midi": 72,
      "start": 98.889,
      "duration": 0.139,
      "velocity": 0.49
    },
    {
      "id": "n-00716",
      "pitch": "E5",
      "midi": 76,
      "start": 99.028,
      "duration": 0.139,
      "velocity": 0.49
    },
    {
      "id": "n-00717",
      "pitch": "A5",
      "midi": 81,
      "start": 99.167,
      "duration": 0.139,
      "velocity": 0.49
    },
    {
      "id": "n-00718",
      "pitch": "C6",
      "midi": 84,
      "start": 99.306,
      "duration": 0.139,
      "velocity": 0.49
    },
    {
      "id": "n-00719",
      "pitch": "E6",
      "midi": 88,
      "start": 99.444,
      "duration": 0.139,
      "velocity": 0.49
    },
    {
      "id": "n-00720",
      "pitch": "A3",
      "midi": 57,
      "start": 99.583,
      "duration": 0.417,
      "velocity": 0.49
    },
    {
      "id": "n-00721",
      "pitch": "C4",
      "midi": 60,
      "start": 99.583,
      "duration": 0.417,
      "velocity": 0.49
    },
    {
      "id": "n-00722",
      "pitch": "E4",
      "midi": 64,
      "start": 99.583,
      "duration": 0.417,
      "velocity": 0.49
    },
    {
      "id": "n-00723",
      "pitch": "D6",
      "midi": 86,
      "start": 99.583,
      "duration": 0.139,
      "velocity": 0.49
    },
    {
      "id": "n-00724",
      "pitch": "C6",
      "midi": 84,
      "start": 99.722,
      "duration": 0.139,
      "velocity": 0.49
    },
    {
      "id": "n-00725",
      "pitch": "B5",
      "midi": 83,
      "start": 99.861,
      "duration": 0.139,
      "velocity": 0.49
    },
    {
      "id": "n-00726",
      "pitch": "A3",
      "midi": 57,
      "start": 100,
      "duration": 0.417,
      "velocity": 0.49
    },
    {
      "id": "n-00727",
      "pitch": "C4",
      "midi": 60,
      "start": 100,
      "duration": 0.417,
      "velocity": 0.49
    },
    {
      "id": "n-00728",
      "pitch": "E4",
      "midi": 64,
      "start": 100,
      "duration": 0.417,
      "velocity": 0.49
    },
    {
      "id": "n-00729",
      "pitch": "A5",
      "midi": 81,
      "start": 100,
      "duration": 0.139,
      "velocity": 0.49
    },
    {
      "id": "n-00730",
      "pitch": "C6",
      "midi": 84,
      "start": 100.139,
      "duration": 0.139,
      "velocity": 0.49
    },
    {
      "id": "n-00731",
      "pitch": "E6",
      "midi": 88,
      "start": 100.278,
      "duration": 0.139,
      "velocity": 0.49
    },
    {
      "id": "n-00732",
      "pitch": "A6",
      "midi": 93,
      "start": 100.417,
      "duration": 0.139,
      "velocity": 0.49
    },
    {
      "id": "n-00733",
      "pitch": "C7",
      "midi": 96,
      "start": 100.556,
      "duration": 0.139,
      "velocity": 0.49
    },
    {
      "id": "n-00734",
      "pitch": "E7",
      "midi": 100,
      "start": 100.694,
      "duration": 0.139,
      "velocity": 0.49
    },
    {
      "id": "n-00735",
      "pitch": "A3",
      "midi": 57,
      "start": 100.833,
      "duration": 0.417,
      "velocity": 0.49
    },
    {
      "id": "n-00736",
      "pitch": "C4",
      "midi": 60,
      "start": 100.833,
      "duration": 0.417,
      "velocity": 0.49
    },
    {
      "id": "n-00737",
      "pitch": "E4",
      "midi": 64,
      "start": 100.833,
      "duration": 0.417,
      "velocity": 0.49
    },
    {
      "id": "n-00738",
      "pitch": "D7",
      "midi": 98,
      "start": 100.833,
      "duration": 0.139,
      "velocity": 0.49
    },
    {
      "id": "n-00739",
      "pitch": "C7",
      "midi": 96,
      "start": 100.972,
      "duration": 0.139,
      "velocity": 0.49
    },
    {
      "id": "n-00740",
      "pitch": "B6",
      "midi": 95,
      "start": 101.111,
      "duration": 0.139,
      "velocity": 0.49
    },
    {
      "id": "n-00741",
      "pitch": "A3",
      "midi": 57,
      "start": 101.25,
      "duration": 0.417,
      "velocity": 0.49
    },
    {
      "id": "n-00742",
      "pitch": "C4",
      "midi": 60,
      "start": 101.25,
      "duration": 0.417,
      "velocity": 0.49
    },
    {
      "id": "n-00743",
      "pitch": "E4",
      "midi": 64,
      "start": 101.25,
      "duration": 0.417,
      "velocity": 0.49
    },
    {
      "id": "n-00744",
      "pitch": "A#6",
      "midi": 94,
      "start": 101.25,
      "duration": 0.139,
      "velocity": 0.49
    },
    {
      "id": "n-00745",
      "pitch": "A6",
      "midi": 93,
      "start": 101.389,
      "duration": 0.139,
      "velocity": 0.49
    },
    {
      "id": "n-00746",
      "pitch": "G#6",
      "midi": 92,
      "start": 101.528,
      "duration": 0.139,
      "velocity": 0.49
    },
    {
      "id": "n-00747",
      "pitch": "G6",
      "midi": 91,
      "start": 101.667,
      "duration": 0.139,
      "velocity": 0.49
    },
    {
      "id": "n-00748",
      "pitch": "F#6",
      "midi": 90,
      "start": 101.806,
      "duration": 0.139,
      "velocity": 0.49
    },
    {
      "id": "n-00749",
      "pitch": "F6",
      "midi": 89,
      "start": 101.944,
      "duration": 0.139,
      "velocity": 0.49
    },
    {
      "id": "n-00750",
      "pitch": "E6",
      "midi": 88,
      "start": 102.083,
      "duration": 0.139,
      "velocity": 0.49
    },
    {
      "id": "n-00751",
      "pitch": "D#6",
      "midi": 87,
      "start": 102.222,
      "duration": 0.139,
      "velocity": 0.49
    },
    {
      "id": "n-00752",
      "pitch": "D6",
      "midi": 86,
      "start": 102.361,
      "duration": 0.139,
      "velocity": 0.49
    },
    {
      "id": "n-00753",
      "pitch": "C#6",
      "midi": 85,
      "start": 102.5,
      "duration": 0.139,
      "velocity": 0.49
    },
    {
      "id": "n-00754",
      "pitch": "C6",
      "midi": 84,
      "start": 102.639,
      "duration": 0.139,
      "velocity": 0.49
    },
    {
      "id": "n-00755",
      "pitch": "B5",
      "midi": 83,
      "start": 102.778,
      "duration": 0.139,
      "velocity": 0.49
    },
    {
      "id": "n-00756",
      "pitch": "A#5",
      "midi": 82,
      "start": 102.917,
      "duration": 0.139,
      "velocity": 0.49
    },
    {
      "id": "n-00757",
      "pitch": "A5",
      "midi": 81,
      "start": 103.056,
      "duration": 0.139,
      "velocity": 0.49
    },
    {
      "id": "n-00758",
      "pitch": "G#5",
      "midi": 80,
      "start": 103.194,
      "duration": 0.139,
      "velocity": 0.49
    },
    {
      "id": "n-00759",
      "pitch": "G5",
      "midi": 79,
      "start": 103.333,
      "duration": 0.139,
      "velocity": 0.49
    },
    {
      "id": "n-00760",
      "pitch": "F#5",
      "midi": 78,
      "start": 103.472,
      "duration": 0.139,
      "velocity": 0.49
    },
    {
      "id": "n-00761",
      "pitch": "F5",
      "midi": 77,
      "start": 103.611,
      "duration": 0.139,
      "velocity": 0.49
    },
    {
      "id": "n-00762",
      "pitch": "E5",
      "midi": 76,
      "start": 103.75,
      "duration": 0.208,
      "velocity": 0.49
    },
    {
      "id": "n-00763",
      "pitch": "D#5",
      "midi": 75,
      "start": 103.958,
      "duration": 0.208,
      "velocity": 0.49
    },
    {
      "id": "n-00764",
      "pitch": "E5",
      "midi": 76,
      "start": 104.167,
      "duration": 0.208,
      "velocity": 0.49
    },
    {
      "id": "n-00765",
      "pitch": "B4",
      "midi": 71,
      "start": 104.375,
      "duration": 0.208,
      "velocity": 0.49
    },
    {
      "id": "n-00766",
      "pitch": "D5",
      "midi": 74,
      "start": 104.583,
      "duration": 0.208,
      "velocity": 0.49
    },
    {
      "id": "n-00767",
      "pitch": "C5",
      "midi": 72,
      "start": 104.792,
      "duration": 0.208,
      "velocity": 0.49
    },
    {
      "id": "n-00768",
      "pitch": "A2",
      "midi": 45,
      "start": 105,
      "duration": 0.208,
      "velocity": 0.49
    },
    {
      "id": "n-00769",
      "pitch": "A4",
      "midi": 69,
      "start": 105,
      "duration": 0.417,
      "velocity": 0.49
    },
    {
      "id": "n-00770",
      "pitch": "E3",
      "midi": 52,
      "start": 105.208,
      "duration": 0.208,
      "velocity": 0.49
    },
    {
      "id": "n-00771",
      "pitch": "A3",
      "midi": 57,
      "start": 105.417,
      "duration": 0.208,
      "velocity": 0.49
    },
    {
      "id": "n-00772",
      "pitch": "C4",
      "midi": 60,
      "start": 105.625,
      "duration": 0.208,
      "velocity": 0.49
    },
    {
      "id": "n-00773",
      "pitch": "E4",
      "midi": 64,
      "start": 105.833,
      "duration": 0.208,
      "velocity": 0.49
    },
    {
      "id": "n-00774",
      "pitch": "A4",
      "midi": 69,
      "start": 106.042,
      "duration": 0.208,
      "velocity": 0.49
    },
    {
      "id": "n-00775",
      "pitch": "E2",
      "midi": 40,
      "start": 106.25,
      "duration": 0.208,
      "velocity": 0.49
    },
    {
      "id": "n-00776",
      "pitch": "B4",
      "midi": 71,
      "start": 106.25,
      "duration": 0.417,
      "velocity": 0.49
    },
    {
      "id": "n-00777",
      "pitch": "E3",
      "midi": 52,
      "start": 106.458,
      "duration": 0.208,
      "velocity": 0.49
    },
    {
      "id": "n-00778",
      "pitch": "G#3",
      "midi": 56,
      "start": 106.667,
      "duration": 0.208,
      "velocity": 0.49
    },
    {
      "id": "n-00779",
      "pitch": "E4",
      "midi": 64,
      "start": 106.875,
      "duration": 0.208,
      "velocity": 0.49
    },
    {
      "id": "n-00780",
      "pitch": "G#4",
      "midi": 68,
      "start": 107.083,
      "duration": 0.208,
      "velocity": 0.49
    },
    {
      "id": "n-00781",
      "pitch": "B4",
      "midi": 71,
      "start": 107.292,
      "duration": 0.208,
      "velocity": 0.49
    },
    {
      "id": "n-00782",
      "pitch": "A2",
      "midi": 45,
      "start": 107.5,
      "duration": 0.208,
      "velocity": 0.49
    },
    {
      "id": "n-00783",
      "pitch": "C5",
      "midi": 72,
      "start": 107.5,
      "duration": 0.417,
      "velocity": 0.49
    },
    {
      "id": "n-00784",
      "pitch": "E3",
      "midi": 52,
      "start": 107.708,
      "duration": 0.208,
      "velocity": 0.49
    },
    {
      "id": "n-00785",
      "pitch": "A3",
      "midi": 57,
      "start": 107.917,
      "duration": 0.208,
      "velocity": 0.49
    },
    {
      "id": "n-00786",
      "pitch": "E4",
      "midi": 64,
      "start": 108.125,
      "duration": 0.208,
      "velocity": 0.49
    },
    {
      "id": "n-00787",
      "pitch": "E5",
      "midi": 76,
      "start": 108.333,
      "duration": 0.208,
      "velocity": 0.49
    },
    {
      "id": "n-00788",
      "pitch": "D#5",
      "midi": 75,
      "start": 108.542,
      "duration": 0.208,
      "velocity": 0.49
    },
    {
      "id": "n-00789",
      "pitch": "E5",
      "midi": 76,
      "start": 108.75,
      "duration": 0.208,
      "velocity": 0.49
    },
    {
      "id": "n-00790",
      "pitch": "D#5",
      "midi": 75,
      "start": 108.958,
      "duration": 0.208,
      "velocity": 0.49
    },
    {
      "id": "n-00791",
      "pitch": "E5",
      "midi": 76,
      "start": 109.167,
      "duration": 0.208,
      "velocity": 0.49
    },
    {
      "id": "n-00792",
      "pitch": "B4",
      "midi": 71,
      "start": 109.375,
      "duration": 0.208,
      "velocity": 0.49
    },
    {
      "id": "n-00793",
      "pitch": "D5",
      "midi": 74,
      "start": 109.583,
      "duration": 0.208,
      "velocity": 0.49
    },
    {
      "id": "n-00794",
      "pitch": "C5",
      "midi": 72,
      "start": 109.792,
      "duration": 0.208,
      "velocity": 0.49
    },
    {
      "id": "n-00795",
      "pitch": "A2",
      "midi": 45,
      "start": 110,
      "duration": 0.208,
      "velocity": 0.49
    },
    {
      "id": "n-00796",
      "pitch": "A4",
      "midi": 69,
      "start": 110,
      "duration": 0.417,
      "velocity": 0.49
    },
    {
      "id": "n-00797",
      "pitch": "E3",
      "midi": 52,
      "start": 110.208,
      "duration": 0.208,
      "velocity": 0.49
    },
    {
      "id": "n-00798",
      "pitch": "A3",
      "midi": 57,
      "start": 110.417,
      "duration": 0.208,
      "velocity": 0.49
    },
    {
      "id": "n-00799",
      "pitch": "C4",
      "midi": 60,
      "start": 110.625,
      "duration": 0.208,
      "velocity": 0.49
    },
    {
      "id": "n-00800",
      "pitch": "E4",
      "midi": 64,
      "start": 110.833,
      "duration": 0.208,
      "velocity": 0.49
    },
    {
      "id": "n-00801",
      "pitch": "A4",
      "midi": 69,
      "start": 111.042,
      "duration": 0.208,
      "velocity": 0.49
    },
    {
      "id": "n-00802",
      "pitch": "E2",
      "midi": 40,
      "start": 111.25,
      "duration": 0.208,
      "velocity": 0.49
    },
    {
      "id": "n-00803",
      "pitch": "B4",
      "midi": 71,
      "start": 111.25,
      "duration": 0.417,
      "velocity": 0.49
    },
    {
      "id": "n-00804",
      "pitch": "E3",
      "midi": 52,
      "start": 111.458,
      "duration": 0.208,
      "velocity": 0.49
    },
    {
      "id": "n-00805",
      "pitch": "G#3",
      "midi": 56,
      "start": 111.667,
      "duration": 0.208,
      "velocity": 0.49
    },
    {
      "id": "n-00806",
      "pitch": "E4",
      "midi": 64,
      "start": 111.875,
      "duration": 0.208,
      "velocity": 0.49
    },
    {
      "id": "n-00807",
      "pitch": "C5",
      "midi": 72,
      "start": 112.083,
      "duration": 0.208,
      "velocity": 0.49
    },
    {
      "id": "n-00808",
      "pitch": "B4",
      "midi": 71,
      "start": 112.292,
      "duration": 0.208,
      "velocity": 0.49
    },
    {
      "id": "n-00809",
      "pitch": "A2",
      "midi": 45,
      "start": 112.5,
      "duration": 0.208,
      "velocity": 0.49
    },
    {
      "id": "n-00810",
      "pitch": "A4",
      "midi": 69,
      "start": 112.5,
      "duration": 0.417,
      "velocity": 0.49
    },
    {
      "id": "n-00811",
      "pitch": "E3",
      "midi": 52,
      "start": 112.708,
      "duration": 0.208,
      "velocity": 0.49
    },
    {
      "id": "n-00812",
      "pitch": "A3",
      "midi": 57,
      "start": 112.917,
      "duration": 0.208,
      "velocity": 0.49
    },
    {
      "id": "n-00813",
      "pitch": "B4",
      "midi": 71,
      "start": 113.125,
      "duration": 0.208,
      "velocity": 0.49
    },
    {
      "id": "n-00814",
      "pitch": "C5",
      "midi": 72,
      "start": 113.333,
      "duration": 0.208,
      "velocity": 0.49
    },
    {
      "id": "n-00815",
      "pitch": "D5",
      "midi": 74,
      "start": 113.542,
      "duration": 0.208,
      "velocity": 0.49
    },
    {
      "id": "n-00816",
      "pitch": "C3",
      "midi": 48,
      "start": 113.75,
      "duration": 0.208,
      "velocity": 0.49
    },
    {
      "id": "n-00817",
      "pitch": "E5",
      "midi": 76,
      "start": 113.75,
      "duration": 0.625,
      "velocity": 0.49
    },
    {
      "id": "n-00818",
      "pitch": "G3",
      "midi": 55,
      "start": 113.958,
      "duration": 0.208,
      "velocity": 0.49
    },
    {
      "id": "n-00819",
      "pitch": "C4",
      "midi": 60,
      "start": 114.167,
      "duration": 0.208,
      "velocity": 0.49
    },
    {
      "id": "n-00820",
      "pitch": "G4",
      "midi": 67,
      "start": 114.375,
      "duration": 0.208,
      "velocity": 0.49
    },
    {
      "id": "n-00821",
      "pitch": "F5",
      "midi": 77,
      "start": 114.583,
      "duration": 0.208,
      "velocity": 0.49
    },
    {
      "id": "n-00822",
      "pitch": "E5",
      "midi": 76,
      "start": 114.792,
      "duration": 0.208,
      "velocity": 0.49
    },
    {
      "id": "n-00823",
      "pitch": "G2",
      "midi": 43,
      "start": 115,
      "duration": 0.208,
      "velocity": 0.49
    },
    {
      "id": "n-00824",
      "pitch": "D5",
      "midi": 74,
      "start": 115,
      "duration": 0.625,
      "velocity": 0.49
    },
    {
      "id": "n-00825",
      "pitch": "G3",
      "midi": 55,
      "start": 115.208,
      "duration": 0.208,
      "velocity": 0.49
    },
    {
      "id": "n-00826",
      "pitch": "B3",
      "midi": 59,
      "start": 115.417,
      "duration": 0.208,
      "velocity": 0.49
    },
    {
      "id": "n-00827",
      "pitch": "F4",
      "midi": 65,
      "start": 115.625,
      "duration": 0.208,
      "velocity": 0.49
    },
    {
      "id": "n-00828",
      "pitch": "E5",
      "midi": 76,
      "start": 115.833,
      "duration": 0.208,
      "velocity": 0.49
    },
    {
      "id": "n-00829",
      "pitch": "D5",
      "midi": 74,
      "start": 116.042,
      "duration": 0.208,
      "velocity": 0.49
    },
    {
      "id": "n-00830",
      "pitch": "A2",
      "midi": 45,
      "start": 116.25,
      "duration": 0.208,
      "velocity": 0.49
    },
    {
      "id": "n-00831",
      "pitch": "C5",
      "midi": 72,
      "start": 116.25,
      "duration": 0.625,
      "velocity": 0.49
    },
    {
      "id": "n-00832",
      "pitch": "E3",
      "midi": 52,
      "start": 116.458,
      "duration": 0.208,
      "velocity": 0.49
    },
    {
      "id": "n-00833",
      "pitch": "A3",
      "midi": 57,
      "start": 116.667,
      "duration": 0.208,
      "velocity": 0.49
    },
    {
      "id": "n-00834",
      "pitch": "E4",
      "midi": 64,
      "start": 116.875,
      "duration": 0.208,
      "velocity": 0.49
    },
    {
      "id": "n-00835",
      "pitch": "D5",
      "midi": 74,
      "start": 117.083,
      "duration": 0.208,
      "velocity": 0.49
    },
    {
      "id": "n-00836",
      "pitch": "C5",
      "midi": 72,
      "start": 117.292,
      "duration": 0.208,
      "velocity": 0.49
    },
    {
      "id": "n-00837",
      "pitch": "E2",
      "midi": 40,
      "start": 117.5,
      "duration": 0.208,
      "velocity": 0.49
    },
    {
      "id": "n-00838",
      "pitch": "B4",
      "midi": 71,
      "start": 117.5,
      "duration": 0.417,
      "velocity": 0.49
    },
    {
      "id": "n-00839",
      "pitch": "E3",
      "midi": 52,
      "start": 117.708,
      "duration": 0.208,
      "velocity": 0.49
    },
    {
      "id": "n-00840",
      "pitch": "E4",
      "midi": 64,
      "start": 117.917,
      "duration": 0.208,
      "velocity": 0.49
    },
    {
      "id": "n-00841",
      "pitch": "E4",
      "midi": 64,
      "start": 118.125,
      "duration": 0.208,
      "velocity": 0.49
    },
    {
      "id": "n-00842",
      "pitch": "E5",
      "midi": 76,
      "start": 118.333,
      "duration": 0.208,
      "velocity": 0.49
    },
    {
      "id": "n-00843",
      "pitch": "E4",
      "midi": 64,
      "start": 118.542,
      "duration": 0.208,
      "velocity": 0.49
    },
    {
      "id": "n-00844",
      "pitch": "E5",
      "midi": 76,
      "start": 118.75,
      "duration": 0.208,
      "velocity": 0.49
    },
    {
      "id": "n-00845",
      "pitch": "E5",
      "midi": 76,
      "start": 118.958,
      "duration": 0.208,
      "velocity": 0.49
    },
    {
      "id": "n-00846",
      "pitch": "E6",
      "midi": 88,
      "start": 119.167,
      "duration": 0.208,
      "velocity": 0.49
    },
    {
      "id": "n-00847",
      "pitch": "D#5",
      "midi": 75,
      "start": 119.375,
      "duration": 0.208,
      "velocity": 0.49
    },
    {
      "id": "n-00848",
      "pitch": "E5",
      "midi": 76,
      "start": 119.583,
      "duration": 0.208,
      "velocity": 0.49
    },
    {
      "id": "n-00849",
      "pitch": "D#5",
      "midi": 75,
      "start": 119.792,
      "duration": 0.208,
      "velocity": 0.49
    },
    {
      "id": "n-00850",
      "pitch": "E5",
      "midi": 76,
      "start": 120,
      "duration": 0.208,
      "velocity": 0.49
    },
    {
      "id": "n-00851",
      "pitch": "D#5",
      "midi": 75,
      "start": 120.208,
      "duration": 0.208,
      "velocity": 0.49
    },
    {
      "id": "n-00852",
      "pitch": "E5",
      "midi": 76,
      "start": 120.417,
      "duration": 0.208,
      "velocity": 0.49
    },
    {
      "id": "n-00853",
      "pitch": "D#5",
      "midi": 75,
      "start": 120.625,
      "duration": 0.208,
      "velocity": 0.49
    },
    {
      "id": "n-00854",
      "pitch": "E5",
      "midi": 76,
      "start": 120.833,
      "duration": 0.208,
      "velocity": 0.49
    },
    {
      "id": "n-00855",
      "pitch": "D#5",
      "midi": 75,
      "start": 121.042,
      "duration": 0.208,
      "velocity": 0.49
    },
    {
      "id": "n-00856",
      "pitch": "E5",
      "midi": 76,
      "start": 121.25,
      "duration": 0.208,
      "velocity": 0.49
    },
    {
      "id": "n-00857",
      "pitch": "D#5",
      "midi": 75,
      "start": 121.458,
      "duration": 0.208,
      "velocity": 0.49
    },
    {
      "id": "n-00858",
      "pitch": "E5",
      "midi": 76,
      "start": 121.667,
      "duration": 0.208,
      "velocity": 0.49
    },
    {
      "id": "n-00859",
      "pitch": "B4",
      "midi": 71,
      "start": 121.875,
      "duration": 0.208,
      "velocity": 0.49
    },
    {
      "id": "n-00860",
      "pitch": "D5",
      "midi": 74,
      "start": 122.083,
      "duration": 0.208,
      "velocity": 0.49
    },
    {
      "id": "n-00861",
      "pitch": "C5",
      "midi": 72,
      "start": 122.292,
      "duration": 0.208,
      "velocity": 0.49
    },
    {
      "id": "n-00862",
      "pitch": "A2",
      "midi": 45,
      "start": 122.5,
      "duration": 0.208,
      "velocity": 0.49
    },
    {
      "id": "n-00863",
      "pitch": "A4",
      "midi": 69,
      "start": 122.5,
      "duration": 0.417,
      "velocity": 0.49
    },
    {
      "id": "n-00864",
      "pitch": "E3",
      "midi": 52,
      "start": 122.708,
      "duration": 0.208,
      "velocity": 0.49
    },
    {
      "id": "n-00865",
      "pitch": "A3",
      "midi": 57,
      "start": 122.917,
      "duration": 0.208,
      "velocity": 0.49
    },
    {
      "id": "n-00866",
      "pitch": "C4",
      "midi": 60,
      "start": 123.125,
      "duration": 0.208,
      "velocity": 0.49
    },
    {
      "id": "n-00867",
      "pitch": "E4",
      "midi": 64,
      "start": 123.333,
      "duration": 0.208,
      "velocity": 0.49
    },
    {
      "id": "n-00868",
      "pitch": "A4",
      "midi": 69,
      "start": 123.542,
      "duration": 0.208,
      "velocity": 0.49
    },
    {
      "id": "n-00869",
      "pitch": "E2",
      "midi": 40,
      "start": 123.75,
      "duration": 0.208,
      "velocity": 0.49
    },
    {
      "id": "n-00870",
      "pitch": "B4",
      "midi": 71,
      "start": 123.75,
      "duration": 0.417,
      "velocity": 0.49
    },
    {
      "id": "n-00871",
      "pitch": "E3",
      "midi": 52,
      "start": 123.958,
      "duration": 0.208,
      "velocity": 0.49
    },
    {
      "id": "n-00872",
      "pitch": "G#3",
      "midi": 56,
      "start": 124.167,
      "duration": 0.208,
      "velocity": 0.49
    },
    {
      "id": "n-00873",
      "pitch": "E4",
      "midi": 64,
      "start": 124.375,
      "duration": 0.208,
      "velocity": 0.49
    },
    {
      "id": "n-00874",
      "pitch": "G#4",
      "midi": 68,
      "start": 124.583,
      "duration": 0.208,
      "velocity": 0.49
    },
    {
      "id": "n-00875",
      "pitch": "B4",
      "midi": 71,
      "start": 124.792,
      "duration": 0.208,
      "velocity": 0.49
    },
    {
      "id": "n-00876",
      "pitch": "A2",
      "midi": 45,
      "start": 125,
      "duration": 0.208,
      "velocity": 0.49
    },
    {
      "id": "n-00877",
      "pitch": "C5",
      "midi": 72,
      "start": 125,
      "duration": 0.417,
      "velocity": 0.49
    },
    {
      "id": "n-00878",
      "pitch": "E3",
      "midi": 52,
      "start": 125.208,
      "duration": 0.208,
      "velocity": 0.49
    },
    {
      "id": "n-00879",
      "pitch": "A3",
      "midi": 57,
      "start": 125.417,
      "duration": 0.208,
      "velocity": 0.49
    },
    {
      "id": "n-00880",
      "pitch": "E4",
      "midi": 64,
      "start": 125.625,
      "duration": 0.208,
      "velocity": 0.49
    },
    {
      "id": "n-00881",
      "pitch": "E5",
      "midi": 76,
      "start": 125.833,
      "duration": 0.208,
      "velocity": 0.49
    },
    {
      "id": "n-00882",
      "pitch": "D#5",
      "midi": 75,
      "start": 126.042,
      "duration": 0.208,
      "velocity": 0.49
    },
    {
      "id": "n-00883",
      "pitch": "E5",
      "midi": 76,
      "start": 126.25,
      "duration": 0.208,
      "velocity": 0.49
    },
    {
      "id": "n-00884",
      "pitch": "D#5",
      "midi": 75,
      "start": 126.458,
      "duration": 0.208,
      "velocity": 0.49
    },
    {
      "id": "n-00885",
      "pitch": "E5",
      "midi": 76,
      "start": 126.667,
      "duration": 0.208,
      "velocity": 0.49
    },
    {
      "id": "n-00886",
      "pitch": "B4",
      "midi": 71,
      "start": 126.875,
      "duration": 0.208,
      "velocity": 0.49
    },
    {
      "id": "n-00887",
      "pitch": "D5",
      "midi": 74,
      "start": 127.083,
      "duration": 0.208,
      "velocity": 0.49
    },
    {
      "id": "n-00888",
      "pitch": "C5",
      "midi": 72,
      "start": 127.292,
      "duration": 0.208,
      "velocity": 0.49
    },
    {
      "id": "n-00889",
      "pitch": "A2",
      "midi": 45,
      "start": 127.5,
      "duration": 0.208,
      "velocity": 0.49
    },
    {
      "id": "n-00890",
      "pitch": "A4",
      "midi": 69,
      "start": 127.5,
      "duration": 0.417,
      "velocity": 0.49
    },
    {
      "id": "n-00891",
      "pitch": "E3",
      "midi": 52,
      "start": 127.708,
      "duration": 0.208,
      "velocity": 0.49
    },
    {
      "id": "n-00892",
      "pitch": "A3",
      "midi": 57,
      "start": 127.917,
      "duration": 0.208,
      "velocity": 0.49
    },
    {
      "id": "n-00893",
      "pitch": "C4",
      "midi": 60,
      "start": 128.125,
      "duration": 0.208,
      "velocity": 0.49
    },
    {
      "id": "n-00894",
      "pitch": "E4",
      "midi": 64,
      "start": 128.333,
      "duration": 0.208,
      "velocity": 0.49
    },
    {
      "id": "n-00895",
      "pitch": "A4",
      "midi": 69,
      "start": 128.542,
      "duration": 0.208,
      "velocity": 0.49
    },
    {
      "id": "n-00896",
      "pitch": "E2",
      "midi": 40,
      "start": 128.75,
      "duration": 0.208,
      "velocity": 0.49
    },
    {
      "id": "n-00897",
      "pitch": "B4",
      "midi": 71,
      "start": 128.75,
      "duration": 0.417,
      "velocity": 0.49
    },
    {
      "id": "n-00898",
      "pitch": "E3",
      "midi": 52,
      "start": 128.958,
      "duration": 0.208,
      "velocity": 0.49
    },
    {
      "id": "n-00899",
      "pitch": "G#3",
      "midi": 56,
      "start": 129.167,
      "duration": 0.208,
      "velocity": 0.49
    },
    {
      "id": "n-00900",
      "pitch": "E4",
      "midi": 64,
      "start": 129.375,
      "duration": 0.208,
      "velocity": 0.49
    },
    {
      "id": "n-00901",
      "pitch": "C5",
      "midi": 72,
      "start": 129.583,
      "duration": 0.208,
      "velocity": 0.49
    },
    {
      "id": "n-00902",
      "pitch": "B4",
      "midi": 71,
      "start": 129.792,
      "duration": 0.208,
      "velocity": 0.49
    },
    {
      "id": "n-00903",
      "pitch": "A1",
      "midi": 33,
      "start": 130,
      "duration": 0.417,
      "velocity": 0.49
    },
    {
      "id": "n-00904",
      "pitch": "A2",
      "midi": 45,
      "start": 130,
      "duration": 0.417,
      "velocity": 0.49
    },
    {
      "id": "n-00905",
      "pitch": "A4",
      "midi": 69,
      "start": 130,
      "duration": 0.417,
      "velocity": 0.49
    }
  ]
}
