{
  "id": "satie-gnossienne-no-1",
  "title": "Gnossienne No. 1",
  "source": "E. Satie; Editions Salabert, Paris, 1913; Mutopia Project",
  "sourceInfo": {
    "provider": "Mutopia Project",
    "sourceUrl": "https://www.mutopiaproject.org/cgibin/piece-info.cgi?id=2035",
    "midiUrl": "https://www.mutopiaproject.org/ftp/SatieE/Gnossienne/no_1/no_1.mid",
    "license": "Creative Commons Attribution-ShareAlike 4.0",
    "composer": "E. Satie",
    "editor": "Knute Snortum",
    "mutopiaId": "2035"
  },
  "bpm": 100,
  "beatsPerBar": 4,
  "defaultSecondsPerBeat": 0.6,
  "createdAt": "2026-05-25T23:03:31.643Z",
  "updatedAt": "2026-05-25T23:03:31.643Z",
  "notes": [
    {
      "id": "n-00001",
      "pitch": "F2",
      "midi": 41,
      "start": 0,
      "duration": 2.1,
      "velocity": 0.71
    },
    {
      "id": "n-00002",
      "pitch": "G#3",
      "midi": 56,
      "start": 0.6,
      "duration": 1.05,
      "velocity": 0.71
    },
    {
      "id": "n-00003",
      "pitch": "C4",
      "midi": 60,
      "start": 0.6,
      "duration": 1.05,
      "velocity": 0.71
    },
    {
      "id": "n-00004",
      "pitch": "F4",
      "midi": 65,
      "start": 0.6,
      "duration": 1.05,
      "velocity": 0.71
    },
    {
      "id": "n-00005",
      "pitch": "C5",
      "midi": 72,
      "start": 0.6,
      "duration": 0.3,
      "velocity": 0.71
    },
    {
      "id": "n-00006",
      "pitch": "D#5",
      "midi": 75,
      "start": 0.9,
      "duration": 0.3,
      "velocity": 0.71
    },
    {
      "id": "n-00007",
      "pitch": "D5",
      "midi": 74,
      "start": 1.2,
      "duration": 0.6,
      "velocity": 0.71
    },
    {
      "id": "n-00008",
      "pitch": "G#3",
      "midi": 56,
      "start": 1.8,
      "duration": 0.525,
      "velocity": 0.71
    },
    {
      "id": "n-00009",
      "pitch": "C4",
      "midi": 60,
      "start": 1.8,
      "duration": 0.525,
      "velocity": 0.71
    },
    {
      "id": "n-00010",
      "pitch": "F4",
      "midi": 65,
      "start": 1.8,
      "duration": 0.525,
      "velocity": 0.71
    },
    {
      "id": "n-00011",
      "pitch": "C5",
      "midi": 72,
      "start": 1.8,
      "duration": 0.531,
      "velocity": 0.71
    },
    {
      "id": "n-00012",
      "pitch": "C5",
      "midi": 72,
      "start": 2.331,
      "duration": 0.067,
      "velocity": 0.71
    },
    {
      "id": "n-00013",
      "pitch": "F2",
      "midi": 41,
      "start": 2.4,
      "duration": 2.1,
      "velocity": 0.71
    },
    {
      "id": "n-00014",
      "pitch": "B4",
      "midi": 71,
      "start": 2.4,
      "duration": 1.131,
      "velocity": 0.71
    },
    {
      "id": "n-00015",
      "pitch": "G#3",
      "midi": 56,
      "start": 3,
      "duration": 1.05,
      "velocity": 0.71
    },
    {
      "id": "n-00016",
      "pitch": "C4",
      "midi": 60,
      "start": 3,
      "duration": 1.05,
      "velocity": 0.71
    },
    {
      "id": "n-00017",
      "pitch": "F4",
      "midi": 65,
      "start": 3,
      "duration": 1.05,
      "velocity": 0.71
    },
    {
      "id": "n-00018",
      "pitch": "C5",
      "midi": 72,
      "start": 3.531,
      "duration": 0.067,
      "velocity": 0.71
    },
    {
      "id": "n-00019",
      "pitch": "B4",
      "midi": 71,
      "start": 3.6,
      "duration": 1.05,
      "velocity": 0.71
    },
    {
      "id": "n-00020",
      "pitch": "G#3",
      "midi": 56,
      "start": 4.2,
      "duration": 0.525,
      "velocity": 0.71
    },
    {
      "id": "n-00021",
      "pitch": "C4",
      "midi": 60,
      "start": 4.2,
      "duration": 0.525,
      "velocity": 0.71
    },
    {
      "id": "n-00022",
      "pitch": "F4",
      "midi": 65,
      "start": 4.2,
      "duration": 0.525,
      "velocity": 0.71
    },
    {
      "id": "n-00023",
      "pitch": "F2",
      "midi": 41,
      "start": 4.8,
      "duration": 2.1,
      "velocity": 0.71
    },
    {
      "id": "n-00024",
      "pitch": "G#3",
      "midi": 56,
      "start": 5.4,
      "duration": 1.05,
      "velocity": 0.71
    },
    {
      "id": "n-00025",
      "pitch": "C4",
      "midi": 60,
      "start": 5.4,
      "duration": 1.05,
      "velocity": 0.71
    },
    {
      "id": "n-00026",
      "pitch": "F4",
      "midi": 65,
      "start": 5.4,
      "duration": 1.05,
      "velocity": 0.71
    },
    {
      "id": "n-00027",
      "pitch": "C5",
      "midi": 72,
      "start": 5.4,
      "duration": 0.3,
      "velocity": 0.71
    },
    {
      "id": "n-00028",
      "pitch": "D#5",
      "midi": 75,
      "start": 5.7,
      "duration": 0.3,
      "velocity": 0.71
    },
    {
      "id": "n-00029",
      "pitch": "D5",
      "midi": 74,
      "start": 6,
      "duration": 0.6,
      "velocity": 0.71
    },
    {
      "id": "n-00030",
      "pitch": "G#3",
      "midi": 56,
      "start": 6.6,
      "duration": 0.525,
      "velocity": 0.71
    },
    {
      "id": "n-00031",
      "pitch": "C4",
      "midi": 60,
      "start": 6.6,
      "duration": 0.525,
      "velocity": 0.71
    },
    {
      "id": "n-00032",
      "pitch": "F4",
      "midi": 65,
      "start": 6.6,
      "duration": 0.525,
      "velocity": 0.71
    },
    {
      "id": "n-00033",
      "pitch": "C5",
      "midi": 72,
      "start": 6.6,
      "duration": 0.531,
      "velocity": 0.71
    },
    {
      "id": "n-00034",
      "pitch": "E5",
      "midi": 76,
      "start": 7.131,
      "duration": 0.067,
      "velocity": 0.71
    },
    {
      "id": "n-00035",
      "pitch": "F2",
      "midi": 41,
      "start": 7.2,
      "duration": 2.1,
      "velocity": 0.71
    },
    {
      "id": "n-00036",
      "pitch": "F5",
      "midi": 77,
      "start": 7.2,
      "duration": 1.131,
      "velocity": 0.71
    },
    {
      "id": "n-00037",
      "pitch": "G#3",
      "midi": 56,
      "start": 7.8,
      "duration": 1.05,
      "velocity": 0.71
    },
    {
      "id": "n-00038",
      "pitch": "C4",
      "midi": 60,
      "start": 7.8,
      "duration": 1.05,
      "velocity": 0.71
    },
    {
      "id": "n-00039",
      "pitch": "F4",
      "midi": 65,
      "start": 7.8,
      "duration": 1.05,
      "velocity": 0.71
    },
    {
      "id": "n-00040",
      "pitch": "E5",
      "midi": 76,
      "start": 8.331,
      "duration": 0.067,
      "velocity": 0.71
    },
    {
      "id": "n-00041",
      "pitch": "F5",
      "midi": 77,
      "start": 8.4,
      "duration": 1.05,
      "velocity": 0.71
    },
    {
      "id": "n-00042",
      "pitch": "G#3",
      "midi": 56,
      "start": 9,
      "duration": 0.525,
      "velocity": 0.71
    },
    {
      "id": "n-00043",
      "pitch": "C4",
      "midi": 60,
      "start": 9,
      "duration": 0.525,
      "velocity": 0.71
    },
    {
      "id": "n-00044",
      "pitch": "F4",
      "midi": 65,
      "start": 9,
      "duration": 0.525,
      "velocity": 0.71
    },
    {
      "id": "n-00045",
      "pitch": "F2",
      "midi": 41,
      "start": 9.6,
      "duration": 2.1,
      "velocity": 0.71
    },
    {
      "id": "n-00046",
      "pitch": "G#3",
      "midi": 56,
      "start": 10.2,
      "duration": 1.05,
      "velocity": 0.71
    },
    {
      "id": "n-00047",
      "pitch": "C4",
      "midi": 60,
      "start": 10.2,
      "duration": 1.05,
      "velocity": 0.71
    },
    {
      "id": "n-00048",
      "pitch": "F4",
      "midi": 65,
      "start": 10.2,
      "duration": 1.05,
      "velocity": 0.71
    },
    {
      "id": "n-00049",
      "pitch": "C5",
      "midi": 72,
      "start": 10.2,
      "duration": 0.3,
      "velocity": 0.71
    },
    {
      "id": "n-00050",
      "pitch": "D#5",
      "midi": 75,
      "start": 10.5,
      "duration": 0.3,
      "velocity": 0.71
    },
    {
      "id": "n-00051",
      "pitch": "D5",
      "midi": 74,
      "start": 10.8,
      "duration": 0.6,
      "velocity": 0.71
    },
    {
      "id": "n-00052",
      "pitch": "G#3",
      "midi": 56,
      "start": 11.4,
      "duration": 0.525,
      "velocity": 0.71
    },
    {
      "id": "n-00053",
      "pitch": "C4",
      "midi": 60,
      "start": 11.4,
      "duration": 0.525,
      "velocity": 0.71
    },
    {
      "id": "n-00054",
      "pitch": "F4",
      "midi": 65,
      "start": 11.4,
      "duration": 0.525,
      "velocity": 0.71
    },
    {
      "id": "n-00055",
      "pitch": "C5",
      "midi": 72,
      "start": 11.4,
      "duration": 0.531,
      "velocity": 0.71
    },
    {
      "id": "n-00056",
      "pitch": "C5",
      "midi": 72,
      "start": 11.931,
      "duration": 0.067,
      "velocity": 0.71
    },
    {
      "id": "n-00057",
      "pitch": "F2",
      "midi": 41,
      "start": 12,
      "duration": 2.1,
      "velocity": 0.71
    },
    {
      "id": "n-00058",
      "pitch": "B4",
      "midi": 71,
      "start": 12,
      "duration": 1.131,
      "velocity": 0.71
    },
    {
      "id": "n-00059",
      "pitch": "G#3",
      "midi": 56,
      "start": 12.6,
      "duration": 1.05,
      "velocity": 0.71
    },
    {
      "id": "n-00060",
      "pitch": "C4",
      "midi": 60,
      "start": 12.6,
      "duration": 1.05,
      "velocity": 0.71
    },
    {
      "id": "n-00061",
      "pitch": "F4",
      "midi": 65,
      "start": 12.6,
      "duration": 1.05,
      "velocity": 0.71
    },
    {
      "id": "n-00062",
      "pitch": "G#4",
      "midi": 68,
      "start": 13.131,
      "duration": 0.067,
      "velocity": 0.71
    },
    {
      "id": "n-00063",
      "pitch": "G4",
      "midi": 67,
      "start": 13.2,
      "duration": 1.131,
      "velocity": 0.71
    },
    {
      "id": "n-00064",
      "pitch": "G#3",
      "midi": 56,
      "start": 13.8,
      "duration": 0.525,
      "velocity": 0.71
    },
    {
      "id": "n-00065",
      "pitch": "C4",
      "midi": 60,
      "start": 13.8,
      "duration": 0.525,
      "velocity": 0.71
    },
    {
      "id": "n-00066",
      "pitch": "F4",
      "midi": 65,
      "start": 13.8,
      "duration": 0.525,
      "velocity": 0.71
    },
    {
      "id": "n-00067",
      "pitch": "F4",
      "midi": 65,
      "start": 14.331,
      "duration": 0.067,
      "velocity": 0.71
    },
    {
      "id": "n-00068",
      "pitch": "C3",
      "midi": 48,
      "start": 14.4,
      "duration": 2.1,
      "velocity": 0.71
    },
    {
      "id": "n-00069",
      "pitch": "G4",
      "midi": 67,
      "start": 14.4,
      "duration": 0.531,
      "velocity": 0.71
    },
    {
      "id": "n-00070",
      "pitch": "F4",
      "midi": 65,
      "start": 14.931,
      "duration": 0.067,
      "velocity": 0.71
    },
    {
      "id": "n-00071",
      "pitch": "D#3",
      "midi": 51,
      "start": 15,
      "duration": 1.05,
      "velocity": 0.71
    },
    {
      "id": "n-00072",
      "pitch": "G3",
      "midi": 55,
      "start": 15,
      "duration": 1.05,
      "velocity": 0.71
    },
    {
      "id": "n-00073",
      "pitch": "C4",
      "midi": 60,
      "start": 15,
      "duration": 1.05,
      "velocity": 0.71
    },
    {
      "id": "n-00074",
      "pitch": "G4",
      "midi": 67,
      "start": 15,
      "duration": 1.462,
      "velocity": 0.71
    },
    {
      "id": "n-00075",
      "pitch": "D#3",
      "midi": 51,
      "start": 16.2,
      "duration": 0.525,
      "velocity": 0.71
    },
    {
      "id": "n-00076",
      "pitch": "G3",
      "midi": 55,
      "start": 16.2,
      "duration": 0.525,
      "velocity": 0.71
    },
    {
      "id": "n-00077",
      "pitch": "C4",
      "midi": 60,
      "start": 16.2,
      "duration": 0.525,
      "velocity": 0.71
    },
    {
      "id": "n-00078",
      "pitch": "G#4",
      "midi": 68,
      "start": 16.731,
      "duration": 0.058,
      "velocity": 0.71
    },
    {
      "id": "n-00079",
      "pitch": "F2",
      "midi": 41,
      "start": 16.8,
      "duration": 2.1,
      "velocity": 0.71
    },
    {
      "id": "n-00080",
      "pitch": "G4",
      "midi": 67,
      "start": 16.8,
      "duration": 0.525,
      "velocity": 0.71
    },
    {
      "id": "n-00081",
      "pitch": "G4",
      "midi": 67,
      "start": 17.331,
      "duration": 0.058,
      "velocity": 0.71
    },
    {
      "id": "n-00082",
      "pitch": "G#3",
      "midi": 56,
      "start": 17.4,
      "duration": 1.05,
      "velocity": 0.71
    },
    {
      "id": "n-00083",
      "pitch": "C4",
      "midi": 60,
      "start": 17.4,
      "duration": 1.05,
      "velocity": 0.71
    },
    {
      "id": "n-00084",
      "pitch": "F4",
      "midi": 65,
      "start": 17.4,
      "duration": 1.2,
      "velocity": 0.71
    },
    {
      "id": "n-00085",
      "pitch": "G#3",
      "midi": 56,
      "start": 18.6,
      "duration": 0.525,
      "velocity": 0.71
    },
    {
      "id": "n-00086",
      "pitch": "C4",
      "midi": 60,
      "start": 18.6,
      "duration": 0.525,
      "velocity": 0.71
    },
    {
      "id": "n-00087",
      "pitch": "F4",
      "midi": 65,
      "start": 18.6,
      "duration": 1.2,
      "velocity": 0.71
    },
    {
      "id": "n-00088",
      "pitch": "F2",
      "midi": 41,
      "start": 19.2,
      "duration": 2.1,
      "velocity": 0.71
    },
    {
      "id": "n-00089",
      "pitch": "G#3",
      "midi": 56,
      "start": 19.8,
      "duration": 1.05,
      "velocity": 0.71
    },
    {
      "id": "n-00090",
      "pitch": "C4",
      "midi": 60,
      "start": 19.8,
      "duration": 1.05,
      "velocity": 0.71
    },
    {
      "id": "n-00091",
      "pitch": "F4",
      "midi": 65,
      "start": 19.8,
      "duration": 1.2,
      "velocity": 0.71
    },
    {
      "id": "n-00092",
      "pitch": "G#3",
      "midi": 56,
      "start": 21,
      "duration": 0.525,
      "velocity": 0.71
    },
    {
      "id": "n-00093",
      "pitch": "C4",
      "midi": 60,
      "start": 21,
      "duration": 0.525,
      "velocity": 0.71
    },
    {
      "id": "n-00094",
      "pitch": "F4",
      "midi": 65,
      "start": 21,
      "duration": 0.3,
      "velocity": 0.71
    },
    {
      "id": "n-00095",
      "pitch": "F2",
      "midi": 41,
      "start": 21.6,
      "duration": 2.1,
      "velocity": 0.71
    },
    {
      "id": "n-00096",
      "pitch": "G#3",
      "midi": 56,
      "start": 22.2,
      "duration": 1.05,
      "velocity": 0.71
    },
    {
      "id": "n-00097",
      "pitch": "C4",
      "midi": 60,
      "start": 22.2,
      "duration": 1.05,
      "velocity": 0.71
    },
    {
      "id": "n-00098",
      "pitch": "F4",
      "midi": 65,
      "start": 22.2,
      "duration": 1.05,
      "velocity": 0.71
    },
    {
      "id": "n-00099",
      "pitch": "C5",
      "midi": 72,
      "start": 22.2,
      "duration": 0.3,
      "velocity": 0.71
    },
    {
      "id": "n-00100",
      "pitch": "D#5",
      "midi": 75,
      "start": 22.5,
      "duration": 0.3,
      "velocity": 0.71
    },
    {
      "id": "n-00101",
      "pitch": "D5",
      "midi": 74,
      "start": 22.8,
      "duration": 0.6,
      "velocity": 0.71
    },
    {
      "id": "n-00102",
      "pitch": "G#3",
      "midi": 56,
      "start": 23.4,
      "duration": 0.525,
      "velocity": 0.71
    },
    {
      "id": "n-00103",
      "pitch": "C4",
      "midi": 60,
      "start": 23.4,
      "duration": 0.525,
      "velocity": 0.71
    },
    {
      "id": "n-00104",
      "pitch": "F4",
      "midi": 65,
      "start": 23.4,
      "duration": 0.525,
      "velocity": 0.71
    },
    {
      "id": "n-00105",
      "pitch": "C5",
      "midi": 72,
      "start": 23.4,
      "duration": 0.531,
      "velocity": 0.71
    },
    {
      "id": "n-00106",
      "pitch": "C5",
      "midi": 72,
      "start": 23.931,
      "duration": 0.067,
      "velocity": 0.71
    },
    {
      "id": "n-00107",
      "pitch": "F2",
      "midi": 41,
      "start": 24,
      "duration": 2.1,
      "velocity": 0.71
    },
    {
      "id": "n-00108",
      "pitch": "B4",
      "midi": 71,
      "start": 24,
      "duration": 1.131,
      "velocity": 0.71
    },
    {
      "id": "n-00109",
      "pitch": "G#3",
      "midi": 56,
      "start": 24.6,
      "duration": 1.05,
      "velocity": 0.71
    },
    {
      "id": "n-00110",
      "pitch": "C4",
      "midi": 60,
      "start": 24.6,
      "duration": 1.05,
      "velocity": 0.71
    },
    {
      "id": "n-00111",
      "pitch": "F4",
      "midi": 65,
      "start": 24.6,
      "duration": 1.05,
      "velocity": 0.71
    },
    {
      "id": "n-00112",
      "pitch": "C5",
      "midi": 72,
      "start": 25.131,
      "duration": 0.067,
      "velocity": 0.71
    },
    {
      "id": "n-00113",
      "pitch": "B4",
      "midi": 71,
      "start": 25.2,
      "duration": 1.05,
      "velocity": 0.71
    },
    {
      "id": "n-00114",
      "pitch": "G#3",
      "midi": 56,
      "start": 25.8,
      "duration": 0.525,
      "velocity": 0.71
    },
    {
      "id": "n-00115",
      "pitch": "C4",
      "midi": 60,
      "start": 25.8,
      "duration": 0.525,
      "velocity": 0.71
    },
    {
      "id": "n-00116",
      "pitch": "F4",
      "midi": 65,
      "start": 25.8,
      "duration": 0.525,
      "velocity": 0.71
    },
    {
      "id": "n-00117",
      "pitch": "F2",
      "midi": 41,
      "start": 26.4,
      "duration": 2.1,
      "velocity": 0.71
    },
    {
      "id": "n-00118",
      "pitch": "G#3",
      "midi": 56,
      "start": 27,
      "duration": 1.05,
      "velocity": 0.71
    },
    {
      "id": "n-00119",
      "pitch": "C4",
      "midi": 60,
      "start": 27,
      "duration": 1.05,
      "velocity": 0.71
    },
    {
      "id": "n-00120",
      "pitch": "F4",
      "midi": 65,
      "start": 27,
      "duration": 1.05,
      "velocity": 0.71
    },
    {
      "id": "n-00121",
      "pitch": "C5",
      "midi": 72,
      "start": 27,
      "duration": 0.3,
      "velocity": 0.71
    },
    {
      "id": "n-00122",
      "pitch": "D#5",
      "midi": 75,
      "start": 27.3,
      "duration": 0.3,
      "velocity": 0.71
    },
    {
      "id": "n-00123",
      "pitch": "D5",
      "midi": 74,
      "start": 27.6,
      "duration": 0.6,
      "velocity": 0.71
    },
    {
      "id": "n-00124",
      "pitch": "G#3",
      "midi": 56,
      "start": 28.2,
      "duration": 0.525,
      "velocity": 0.71
    },
    {
      "id": "n-00125",
      "pitch": "C4",
      "midi": 60,
      "start": 28.2,
      "duration": 0.525,
      "velocity": 0.71
    },
    {
      "id": "n-00126",
      "pitch": "F4",
      "midi": 65,
      "start": 28.2,
      "duration": 0.525,
      "velocity": 0.71
    },
    {
      "id": "n-00127",
      "pitch": "C5",
      "midi": 72,
      "start": 28.2,
      "duration": 0.531,
      "velocity": 0.71
    },
    {
      "id": "n-00128",
      "pitch": "E5",
      "midi": 76,
      "start": 28.731,
      "duration": 0.067,
      "velocity": 0.71
    },
    {
      "id": "n-00129",
      "pitch": "F2",
      "midi": 41,
      "start": 28.8,
      "duration": 2.1,
      "velocity": 0.71
    },
    {
      "id": "n-00130",
      "pitch": "F5",
      "midi": 77,
      "start": 28.8,
      "duration": 1.131,
      "velocity": 0.71
    },
    {
      "id": "n-00131",
      "pitch": "G#3",
      "midi": 56,
      "start": 29.4,
      "duration": 1.05,
      "velocity": 0.71
    },
    {
      "id": "n-00132",
      "pitch": "C4",
      "midi": 60,
      "start": 29.4,
      "duration": 1.05,
      "velocity": 0.71
    },
    {
      "id": "n-00133",
      "pitch": "F4",
      "midi": 65,
      "start": 29.4,
      "duration": 1.05,
      "velocity": 0.71
    },
    {
      "id": "n-00134",
      "pitch": "E5",
      "midi": 76,
      "start": 29.931,
      "duration": 0.067,
      "velocity": 0.71
    },
    {
      "id": "n-00135",
      "pitch": "F5",
      "midi": 77,
      "start": 30,
      "duration": 1.05,
      "velocity": 0.71
    },
    {
      "id": "n-00136",
      "pitch": "G#3",
      "midi": 56,
      "start": 30.6,
      "duration": 0.525,
      "velocity": 0.71
    },
    {
      "id": "n-00137",
      "pitch": "C4",
      "midi": 60,
      "start": 30.6,
      "duration": 0.525,
      "velocity": 0.71
    },
    {
      "id": "n-00138",
      "pitch": "F4",
      "midi": 65,
      "start": 30.6,
      "duration": 0.525,
      "velocity": 0.71
    },
    {
      "id": "n-00139",
      "pitch": "F2",
      "midi": 41,
      "start": 31.2,
      "duration": 2.1,
      "velocity": 0.71
    },
    {
      "id": "n-00140",
      "pitch": "G#3",
      "midi": 56,
      "start": 31.8,
      "duration": 1.05,
      "velocity": 0.71
    },
    {
      "id": "n-00141",
      "pitch": "C4",
      "midi": 60,
      "start": 31.8,
      "duration": 1.05,
      "velocity": 0.71
    },
    {
      "id": "n-00142",
      "pitch": "F4",
      "midi": 65,
      "start": 31.8,
      "duration": 1.05,
      "velocity": 0.71
    },
    {
      "id": "n-00143",
      "pitch": "C5",
      "midi": 72,
      "start": 31.8,
      "duration": 0.3,
      "velocity": 0.71
    },
    {
      "id": "n-00144",
      "pitch": "D#5",
      "midi": 75,
      "start": 32.1,
      "duration": 0.3,
      "velocity": 0.71
    },
    {
      "id": "n-00145",
      "pitch": "D5",
      "midi": 74,
      "start": 32.4,
      "duration": 0.6,
      "velocity": 0.71
    },
    {
      "id": "n-00146",
      "pitch": "G#3",
      "midi": 56,
      "start": 33,
      "duration": 0.525,
      "velocity": 0.71
    },
    {
      "id": "n-00147",
      "pitch": "C4",
      "midi": 60,
      "start": 33,
      "duration": 0.525,
      "velocity": 0.71
    },
    {
      "id": "n-00148",
      "pitch": "F4",
      "midi": 65,
      "start": 33,
      "duration": 0.525,
      "velocity": 0.71
    },
    {
      "id": "n-00149",
      "pitch": "C5",
      "midi": 72,
      "start": 33,
      "duration": 0.531,
      "velocity": 0.71
    },
    {
      "id": "n-00150",
      "pitch": "C5",
      "midi": 72,
      "start": 33.531,
      "duration": 0.067,
      "velocity": 0.71
    },
    {
      "id": "n-00151",
      "pitch": "F2",
      "midi": 41,
      "start": 33.6,
      "duration": 2.1,
      "velocity": 0.71
    },
    {
      "id": "n-00152",
      "pitch": "B4",
      "midi": 71,
      "start": 33.6,
      "duration": 1.131,
      "velocity": 0.71
    },
    {
      "id": "n-00153",
      "pitch": "G#3",
      "midi": 56,
      "start": 34.2,
      "duration": 1.05,
      "velocity": 0.71
    },
    {
      "id": "n-00154",
      "pitch": "C4",
      "midi": 60,
      "start": 34.2,
      "duration": 1.05,
      "velocity": 0.71
    },
    {
      "id": "n-00155",
      "pitch": "F4",
      "midi": 65,
      "start": 34.2,
      "duration": 1.05,
      "velocity": 0.71
    },
    {
      "id": "n-00156",
      "pitch": "G#4",
      "midi": 68,
      "start": 34.731,
      "duration": 0.067,
      "velocity": 0.71
    },
    {
      "id": "n-00157",
      "pitch": "G4",
      "midi": 67,
      "start": 34.8,
      "duration": 1.131,
      "velocity": 0.71
    },
    {
      "id": "n-00158",
      "pitch": "G#3",
      "midi": 56,
      "start": 35.4,
      "duration": 0.525,
      "velocity": 0.71
    },
    {
      "id": "n-00159",
      "pitch": "C4",
      "midi": 60,
      "start": 35.4,
      "duration": 0.525,
      "velocity": 0.71
    },
    {
      "id": "n-00160",
      "pitch": "F4",
      "midi": 65,
      "start": 35.4,
      "duration": 0.525,
      "velocity": 0.71
    },
    {
      "id": "n-00161",
      "pitch": "F4",
      "midi": 65,
      "start": 35.931,
      "duration": 0.067,
      "velocity": 0.71
    },
    {
      "id": "n-00162",
      "pitch": "C3",
      "midi": 48,
      "start": 36,
      "duration": 2.1,
      "velocity": 0.71
    },
    {
      "id": "n-00163",
      "pitch": "G4",
      "midi": 67,
      "start": 36,
      "duration": 0.531,
      "velocity": 0.71
    },
    {
      "id": "n-00164",
      "pitch": "F4",
      "midi": 65,
      "start": 36.531,
      "duration": 0.067,
      "velocity": 0.71
    },
    {
      "id": "n-00165",
      "pitch": "D#3",
      "midi": 51,
      "start": 36.6,
      "duration": 1.05,
      "velocity": 0.71
    },
    {
      "id": "n-00166",
      "pitch": "G3",
      "midi": 55,
      "start": 36.6,
      "duration": 1.05,
      "velocity": 0.71
    },
    {
      "id": "n-00167",
      "pitch": "C4",
      "midi": 60,
      "start": 36.6,
      "duration": 1.05,
      "velocity": 0.71
    },
    {
      "id": "n-00168",
      "pitch": "G4",
      "midi": 67,
      "start": 36.6,
      "duration": 1.462,
      "velocity": 0.71
    },
    {
      "id": "n-00169",
      "pitch": "D#3",
      "midi": 51,
      "start": 37.8,
      "duration": 0.525,
      "velocity": 0.71
    },
    {
      "id": "n-00170",
      "pitch": "G3",
      "midi": 55,
      "start": 37.8,
      "duration": 0.525,
      "velocity": 0.71
    },
    {
      "id": "n-00171",
      "pitch": "C4",
      "midi": 60,
      "start": 37.8,
      "duration": 0.525,
      "velocity": 0.71
    },
    {
      "id": "n-00172",
      "pitch": "G#4",
      "midi": 68,
      "start": 38.331,
      "duration": 0.058,
      "velocity": 0.71
    },
    {
      "id": "n-00173",
      "pitch": "F2",
      "midi": 41,
      "start": 38.4,
      "duration": 2.1,
      "velocity": 0.71
    },
    {
      "id": "n-00174",
      "pitch": "G4",
      "midi": 67,
      "start": 38.4,
      "duration": 0.525,
      "velocity": 0.71
    },
    {
      "id": "n-00175",
      "pitch": "G4",
      "midi": 67,
      "start": 38.931,
      "duration": 0.058,
      "velocity": 0.71
    },
    {
      "id": "n-00176",
      "pitch": "G#3",
      "midi": 56,
      "start": 39,
      "duration": 1.05,
      "velocity": 0.71
    },
    {
      "id": "n-00177",
      "pitch": "C4",
      "midi": 60,
      "start": 39,
      "duration": 1.05,
      "velocity": 0.71
    },
    {
      "id": "n-00178",
      "pitch": "F4",
      "midi": 65,
      "start": 39,
      "duration": 1.2,
      "velocity": 0.71
    },
    {
      "id": "n-00179",
      "pitch": "G#3",
      "midi": 56,
      "start": 40.2,
      "duration": 0.525,
      "velocity": 0.71
    },
    {
      "id": "n-00180",
      "pitch": "C4",
      "midi": 60,
      "start": 40.2,
      "duration": 0.525,
      "velocity": 0.71
    },
    {
      "id": "n-00181",
      "pitch": "F4",
      "midi": 65,
      "start": 40.2,
      "duration": 1.2,
      "velocity": 0.71
    },
    {
      "id": "n-00182",
      "pitch": "F2",
      "midi": 41,
      "start": 40.8,
      "duration": 2.1,
      "velocity": 0.71
    },
    {
      "id": "n-00183",
      "pitch": "G#3",
      "midi": 56,
      "start": 41.4,
      "duration": 1.05,
      "velocity": 0.71
    },
    {
      "id": "n-00184",
      "pitch": "C4",
      "midi": 60,
      "start": 41.4,
      "duration": 1.05,
      "velocity": 0.71
    },
    {
      "id": "n-00185",
      "pitch": "F4",
      "midi": 65,
      "start": 41.4,
      "duration": 1.2,
      "velocity": 0.71
    },
    {
      "id": "n-00186",
      "pitch": "G#3",
      "midi": 56,
      "start": 42.6,
      "duration": 0.525,
      "velocity": 0.71
    },
    {
      "id": "n-00187",
      "pitch": "C4",
      "midi": 60,
      "start": 42.6,
      "duration": 0.525,
      "velocity": 0.71
    },
    {
      "id": "n-00188",
      "pitch": "F4",
      "midi": 65,
      "start": 42.6,
      "duration": 0.3,
      "velocity": 0.71
    },
    {
      "id": "n-00189",
      "pitch": "G#4",
      "midi": 68,
      "start": 43.131,
      "duration": 0.058,
      "velocity": 0.71
    },
    {
      "id": "n-00190",
      "pitch": "A#1",
      "midi": 34,
      "start": 43.2,
      "duration": 2.1,
      "velocity": 0.71
    },
    {
      "id": "n-00191",
      "pitch": "A#4",
      "midi": 70,
      "start": 43.2,
      "duration": 1.131,
      "velocity": 0.71
    },
    {
      "id": "n-00192",
      "pitch": "F3",
      "midi": 53,
      "start": 43.8,
      "duration": 1.05,
      "velocity": 0.71
    },
    {
      "id": "n-00193",
      "pitch": "A#3",
      "midi": 58,
      "start": 43.8,
      "duration": 1.05,
      "velocity": 0.71
    },
    {
      "id": "n-00194",
      "pitch": "C#4",
      "midi": 61,
      "start": 43.8,
      "duration": 1.05,
      "velocity": 0.71
    },
    {
      "id": "n-00195",
      "pitch": "G#4",
      "midi": 68,
      "start": 44.331,
      "duration": 0.067,
      "velocity": 0.71
    },
    {
      "id": "n-00196",
      "pitch": "G4",
      "midi": 67,
      "start": 44.4,
      "duration": 1.131,
      "velocity": 0.71
    },
    {
      "id": "n-00197",
      "pitch": "F3",
      "midi": 53,
      "start": 45,
      "duration": 0.525,
      "velocity": 0.71
    },
    {
      "id": "n-00198",
      "pitch": "A#3",
      "midi": 58,
      "start": 45,
      "duration": 0.525,
      "velocity": 0.71
    },
    {
      "id": "n-00199",
      "pitch": "C#4",
      "midi": 61,
      "start": 45,
      "duration": 0.525,
      "velocity": 0.71
    },
    {
      "id": "n-00200",
      "pitch": "G#4",
      "midi": 68,
      "start": 45.531,
      "duration": 0.067,
      "velocity": 0.71
    },
    {
      "id": "n-00201",
      "pitch": "A#1",
      "midi": 34,
      "start": 45.6,
      "duration": 2.1,
      "velocity": 0.71
    },
    {
      "id": "n-00202",
      "pitch": "A#4",
      "midi": 70,
      "start": 45.6,
      "duration": 1.131,
      "velocity": 0.71
    },
    {
      "id": "n-00203",
      "pitch": "F3",
      "midi": 53,
      "start": 46.2,
      "duration": 1.05,
      "velocity": 0.71
    },
    {
      "id": "n-00204",
      "pitch": "A#3",
      "midi": 58,
      "start": 46.2,
      "duration": 1.05,
      "velocity": 0.71
    },
    {
      "id": "n-00205",
      "pitch": "C#4",
      "midi": 61,
      "start": 46.2,
      "duration": 1.05,
      "velocity": 0.71
    },
    {
      "id": "n-00206",
      "pitch": "G#4",
      "midi": 68,
      "start": 46.731,
      "duration": 0.067,
      "velocity": 0.71
    },
    {
      "id": "n-00207",
      "pitch": "G4",
      "midi": 67,
      "start": 46.8,
      "duration": 1.131,
      "velocity": 0.71
    },
    {
      "id": "n-00208",
      "pitch": "F3",
      "midi": 53,
      "start": 47.4,
      "duration": 0.525,
      "velocity": 0.71
    },
    {
      "id": "n-00209",
      "pitch": "A#3",
      "midi": 58,
      "start": 47.4,
      "duration": 0.525,
      "velocity": 0.71
    },
    {
      "id": "n-00210",
      "pitch": "C#4",
      "midi": 61,
      "start": 47.4,
      "duration": 0.525,
      "velocity": 0.71
    },
    {
      "id": "n-00211",
      "pitch": "G#4",
      "midi": 68,
      "start": 47.931,
      "duration": 0.067,
      "velocity": 0.71
    },
    {
      "id": "n-00212",
      "pitch": "F2",
      "midi": 41,
      "start": 48,
      "duration": 2.1,
      "velocity": 0.71
    },
    {
      "id": "n-00213",
      "pitch": "G4",
      "midi": 67,
      "start": 48,
      "duration": 0.531,
      "velocity": 0.71
    },
    {
      "id": "n-00214",
      "pitch": "G4",
      "midi": 67,
      "start": 48.531,
      "duration": 0.067,
      "velocity": 0.71
    },
    {
      "id": "n-00215",
      "pitch": "G#3",
      "midi": 56,
      "start": 48.6,
      "duration": 1.05,
      "velocity": 0.71
    },
    {
      "id": "n-00216",
      "pitch": "C4",
      "midi": 60,
      "start": 48.6,
      "duration": 1.05,
      "velocity": 0.71
    },
    {
      "id": "n-00217",
      "pitch": "F4",
      "midi": 65,
      "start": 48.6,
      "duration": 1.2,
      "velocity": 0.71
    },
    {
      "id": "n-00218",
      "pitch": "G#3",
      "midi": 56,
      "start": 49.8,
      "duration": 0.525,
      "velocity": 0.71
    },
    {
      "id": "n-00219",
      "pitch": "C4",
      "midi": 60,
      "start": 49.8,
      "duration": 0.525,
      "velocity": 0.71
    },
    {
      "id": "n-00220",
      "pitch": "F4",
      "midi": 65,
      "start": 49.8,
      "duration": 1.2,
      "velocity": 0.71
    },
    {
      "id": "n-00221",
      "pitch": "F2",
      "midi": 41,
      "start": 50.4,
      "duration": 2.1,
      "velocity": 0.71
    },
    {
      "id": "n-00222",
      "pitch": "G#3",
      "midi": 56,
      "start": 51,
      "duration": 1.05,
      "velocity": 0.71
    },
    {
      "id": "n-00223",
      "pitch": "C4",
      "midi": 60,
      "start": 51,
      "duration": 1.05,
      "velocity": 0.71
    },
    {
      "id": "n-00224",
      "pitch": "F4",
      "midi": 65,
      "start": 51,
      "duration": 1.2,
      "velocity": 0.71
    },
    {
      "id": "n-00225",
      "pitch": "G#3",
      "midi": 56,
      "start": 52.2,
      "duration": 0.525,
      "velocity": 0.71
    },
    {
      "id": "n-00226",
      "pitch": "C4",
      "midi": 60,
      "start": 52.2,
      "duration": 0.525,
      "velocity": 0.71
    },
    {
      "id": "n-00227",
      "pitch": "F4",
      "midi": 65,
      "start": 52.2,
      "duration": 0.3,
      "velocity": 0.71
    },
    {
      "id": "n-00228",
      "pitch": "G#4",
      "midi": 68,
      "start": 52.731,
      "duration": 0.058,
      "velocity": 0.71
    },
    {
      "id": "n-00229",
      "pitch": "A#1",
      "midi": 34,
      "start": 52.8,
      "duration": 2.1,
      "velocity": 0.71
    },
    {
      "id": "n-00230",
      "pitch": "A#4",
      "midi": 70,
      "start": 52.8,
      "duration": 1.131,
      "velocity": 0.71
    },
    {
      "id": "n-00231",
      "pitch": "F3",
      "midi": 53,
      "start": 53.4,
      "duration": 1.05,
      "velocity": 0.71
    },
    {
      "id": "n-00232",
      "pitch": "A#3",
      "midi": 58,
      "start": 53.4,
      "duration": 1.05,
      "velocity": 0.71
    },
    {
      "id": "n-00233",
      "pitch": "C#4",
      "midi": 61,
      "start": 53.4,
      "duration": 1.05,
      "velocity": 0.71
    },
    {
      "id": "n-00234",
      "pitch": "G#4",
      "midi": 68,
      "start": 53.931,
      "duration": 0.067,
      "velocity": 0.71
    },
    {
      "id": "n-00235",
      "pitch": "G4",
      "midi": 67,
      "start": 54,
      "duration": 1.131,
      "velocity": 0.71
    },
    {
      "id": "n-00236",
      "pitch": "F3",
      "midi": 53,
      "start": 54.6,
      "duration": 0.525,
      "velocity": 0.71
    },
    {
      "id": "n-00237",
      "pitch": "A#3",
      "midi": 58,
      "start": 54.6,
      "duration": 0.525,
      "velocity": 0.71
    },
    {
      "id": "n-00238",
      "pitch": "C#4",
      "midi": 61,
      "start": 54.6,
      "duration": 0.525,
      "velocity": 0.71
    },
    {
      "id": "n-00239",
      "pitch": "G#4",
      "midi": 68,
      "start": 55.131,
      "duration": 0.067,
      "velocity": 0.71
    },
    {
      "id": "n-00240",
      "pitch": "A#1",
      "midi": 34,
      "start": 55.2,
      "duration": 2.1,
      "velocity": 0.71
    },
    {
      "id": "n-00241",
      "pitch": "A#4",
      "midi": 70,
      "start": 55.2,
      "duration": 1.131,
      "velocity": 0.71
    },
    {
      "id": "n-00242",
      "pitch": "F3",
      "midi": 53,
      "start": 55.8,
      "duration": 1.05,
      "velocity": 0.71
    },
    {
      "id": "n-00243",
      "pitch": "A#3",
      "midi": 58,
      "start": 55.8,
      "duration": 1.05,
      "velocity": 0.71
    },
    {
      "id": "n-00244",
      "pitch": "C#4",
      "midi": 61,
      "start": 55.8,
      "duration": 1.05,
      "velocity": 0.71
    },
    {
      "id": "n-00245",
      "pitch": "G#4",
      "midi": 68,
      "start": 56.331,
      "duration": 0.067,
      "velocity": 0.71
    },
    {
      "id": "n-00246",
      "pitch": "G4",
      "midi": 67,
      "start": 56.4,
      "duration": 1.131,
      "velocity": 0.71
    },
    {
      "id": "n-00247",
      "pitch": "F3",
      "midi": 53,
      "start": 57,
      "duration": 0.525,
      "velocity": 0.71
    },
    {
      "id": "n-00248",
      "pitch": "A#3",
      "midi": 58,
      "start": 57,
      "duration": 0.525,
      "velocity": 0.71
    },
    {
      "id": "n-00249",
      "pitch": "C#4",
      "midi": 61,
      "start": 57,
      "duration": 0.525,
      "velocity": 0.71
    },
    {
      "id": "n-00250",
      "pitch": "G#4",
      "midi": 68,
      "start": 57.531,
      "duration": 0.067,
      "velocity": 0.71
    },
    {
      "id": "n-00251",
      "pitch": "F2",
      "midi": 41,
      "start": 57.6,
      "duration": 2.1,
      "velocity": 0.71
    },
    {
      "id": "n-00252",
      "pitch": "G4",
      "midi": 67,
      "start": 57.6,
      "duration": 0.531,
      "velocity": 0.71
    },
    {
      "id": "n-00253",
      "pitch": "G4",
      "midi": 67,
      "start": 58.131,
      "duration": 0.067,
      "velocity": 0.71
    },
    {
      "id": "n-00254",
      "pitch": "G#3",
      "midi": 56,
      "start": 58.2,
      "duration": 1.05,
      "velocity": 0.71
    },
    {
      "id": "n-00255",
      "pitch": "C4",
      "midi": 60,
      "start": 58.2,
      "duration": 1.05,
      "velocity": 0.71
    },
    {
      "id": "n-00256",
      "pitch": "F4",
      "midi": 65,
      "start": 58.2,
      "duration": 1.2,
      "velocity": 0.71
    },
    {
      "id": "n-00257",
      "pitch": "G#3",
      "midi": 56,
      "start": 59.4,
      "duration": 0.525,
      "velocity": 0.71
    },
    {
      "id": "n-00258",
      "pitch": "C4",
      "midi": 60,
      "start": 59.4,
      "duration": 0.525,
      "velocity": 0.71
    },
    {
      "id": "n-00259",
      "pitch": "F4",
      "midi": 65,
      "start": 59.4,
      "duration": 1.2,
      "velocity": 0.71
    },
    {
      "id": "n-00260",
      "pitch": "F2",
      "midi": 41,
      "start": 60,
      "duration": 2.1,
      "velocity": 0.71
    },
    {
      "id": "n-00261",
      "pitch": "G#3",
      "midi": 56,
      "start": 60.6,
      "duration": 1.05,
      "velocity": 0.71
    },
    {
      "id": "n-00262",
      "pitch": "C4",
      "midi": 60,
      "start": 60.6,
      "duration": 1.05,
      "velocity": 0.71
    },
    {
      "id": "n-00263",
      "pitch": "F4",
      "midi": 65,
      "start": 60.6,
      "duration": 1.2,
      "velocity": 0.71
    },
    {
      "id": "n-00264",
      "pitch": "G#3",
      "midi": 56,
      "start": 61.8,
      "duration": 0.525,
      "velocity": 0.71
    },
    {
      "id": "n-00265",
      "pitch": "C4",
      "midi": 60,
      "start": 61.8,
      "duration": 0.525,
      "velocity": 0.71
    },
    {
      "id": "n-00266",
      "pitch": "F4",
      "midi": 65,
      "start": 61.8,
      "duration": 0.3,
      "velocity": 0.71
    },
    {
      "id": "n-00267",
      "pitch": "F2",
      "midi": 41,
      "start": 62.4,
      "duration": 2.1,
      "velocity": 0.71
    },
    {
      "id": "n-00268",
      "pitch": "C5",
      "midi": 72,
      "start": 62.7,
      "duration": 0.3,
      "velocity": 0.71
    },
    {
      "id": "n-00269",
      "pitch": "G#3",
      "midi": 56,
      "start": 63,
      "duration": 1.05,
      "velocity": 0.71
    },
    {
      "id": "n-00270",
      "pitch": "C4",
      "midi": 60,
      "start": 63,
      "duration": 1.05,
      "velocity": 0.71
    },
    {
      "id": "n-00271",
      "pitch": "F4",
      "midi": 65,
      "start": 63,
      "duration": 1.05,
      "velocity": 0.71
    },
    {
      "id": "n-00272",
      "pitch": "D5",
      "midi": 74,
      "start": 63,
      "duration": 0.3,
      "velocity": 0.71
    },
    {
      "id": "n-00273",
      "pitch": "E5",
      "midi": 76,
      "start": 63.3,
      "duration": 0.3,
      "velocity": 0.71
    },
    {
      "id": "n-00274",
      "pitch": "F5",
      "midi": 77,
      "start": 63.6,
      "duration": 0.3,
      "velocity": 0.71
    },
    {
      "id": "n-00275",
      "pitch": "G5",
      "midi": 79,
      "start": 63.9,
      "duration": 0.3,
      "velocity": 0.71
    },
    {
      "id": "n-00276",
      "pitch": "G#3",
      "midi": 56,
      "start": 64.2,
      "duration": 0.525,
      "velocity": 0.71
    },
    {
      "id": "n-00277",
      "pitch": "C4",
      "midi": 60,
      "start": 64.2,
      "duration": 0.525,
      "velocity": 0.71
    },
    {
      "id": "n-00278",
      "pitch": "F4",
      "midi": 65,
      "start": 64.2,
      "duration": 0.525,
      "velocity": 0.71
    },
    {
      "id": "n-00279",
      "pitch": "B5",
      "midi": 83,
      "start": 64.2,
      "duration": 0.3,
      "velocity": 0.71
    },
    {
      "id": "n-00280",
      "pitch": "G5",
      "midi": 79,
      "start": 64.5,
      "duration": 0.3,
      "velocity": 0.71
    },
    {
      "id": "n-00281",
      "pitch": "F2",
      "midi": 41,
      "start": 64.8,
      "duration": 2.1,
      "velocity": 0.71
    },
    {
      "id": "n-00282",
      "pitch": "F5",
      "midi": 77,
      "start": 64.8,
      "duration": 0.531,
      "velocity": 0.71
    },
    {
      "id": "n-00283",
      "pitch": "G5",
      "midi": 79,
      "start": 65.331,
      "duration": 0.067,
      "velocity": 0.71
    },
    {
      "id": "n-00284",
      "pitch": "G#3",
      "midi": 56,
      "start": 65.4,
      "duration": 1.05,
      "velocity": 0.71
    },
    {
      "id": "n-00285",
      "pitch": "C4",
      "midi": 60,
      "start": 65.4,
      "duration": 1.05,
      "velocity": 0.71
    },
    {
      "id": "n-00286",
      "pitch": "F4",
      "midi": 65,
      "start": 65.4,
      "duration": 1.05,
      "velocity": 0.71
    },
    {
      "id": "n-00287",
      "pitch": "F5",
      "midi": 77,
      "start": 65.4,
      "duration": 1.731,
      "velocity": 0.71
    },
    {
      "id": "n-00288",
      "pitch": "G#3",
      "midi": 56,
      "start": 66.6,
      "duration": 0.525,
      "velocity": 0.71
    },
    {
      "id": "n-00289",
      "pitch": "C4",
      "midi": 60,
      "start": 66.6,
      "duration": 0.525,
      "velocity": 0.71
    },
    {
      "id": "n-00290",
      "pitch": "F4",
      "midi": 65,
      "start": 66.6,
      "duration": 0.525,
      "velocity": 0.71
    },
    {
      "id": "n-00291",
      "pitch": "G5",
      "midi": 79,
      "start": 67.131,
      "duration": 0.067,
      "velocity": 0.71
    },
    {
      "id": "n-00292",
      "pitch": "F2",
      "midi": 41,
      "start": 67.2,
      "duration": 2.1,
      "velocity": 0.71
    },
    {
      "id": "n-00293",
      "pitch": "F5",
      "midi": 77,
      "start": 67.2,
      "duration": 1.131,
      "velocity": 0.71
    },
    {
      "id": "n-00294",
      "pitch": "G#3",
      "midi": 56,
      "start": 67.8,
      "duration": 1.05,
      "velocity": 0.71
    },
    {
      "id": "n-00295",
      "pitch": "C4",
      "midi": 60,
      "start": 67.8,
      "duration": 1.05,
      "velocity": 0.71
    },
    {
      "id": "n-00296",
      "pitch": "F4",
      "midi": 65,
      "start": 67.8,
      "duration": 1.05,
      "velocity": 0.71
    },
    {
      "id": "n-00297",
      "pitch": "F5",
      "midi": 77,
      "start": 68.331,
      "duration": 0.067,
      "velocity": 0.71
    },
    {
      "id": "n-00298",
      "pitch": "E5",
      "midi": 76,
      "start": 68.4,
      "duration": 1.131,
      "velocity": 0.71
    },
    {
      "id": "n-00299",
      "pitch": "G#3",
      "midi": 56,
      "start": 69,
      "duration": 0.525,
      "velocity": 0.71
    },
    {
      "id": "n-00300",
      "pitch": "C4",
      "midi": 60,
      "start": 69,
      "duration": 0.525,
      "velocity": 0.71
    },
    {
      "id": "n-00301",
      "pitch": "F4",
      "midi": 65,
      "start": 69,
      "duration": 0.525,
      "velocity": 0.71
    },
    {
      "id": "n-00302",
      "pitch": "C#5",
      "midi": 73,
      "start": 69.531,
      "duration": 0.067,
      "velocity": 0.71
    },
    {
      "id": "n-00303",
      "pitch": "F2",
      "midi": 41,
      "start": 69.6,
      "duration": 2.1,
      "velocity": 0.71
    },
    {
      "id": "n-00304",
      "pitch": "C5",
      "midi": 72,
      "start": 69.6,
      "duration": 1.131,
      "velocity": 0.71
    },
    {
      "id": "n-00305",
      "pitch": "G#3",
      "midi": 56,
      "start": 70.2,
      "duration": 1.05,
      "velocity": 0.71
    },
    {
      "id": "n-00306",
      "pitch": "C4",
      "midi": 60,
      "start": 70.2,
      "duration": 1.05,
      "velocity": 0.71
    },
    {
      "id": "n-00307",
      "pitch": "F4",
      "midi": 65,
      "start": 70.2,
      "duration": 1.05,
      "velocity": 0.71
    },
    {
      "id": "n-00308",
      "pitch": "C5",
      "midi": 72,
      "start": 70.731,
      "duration": 0.067,
      "velocity": 0.71
    },
    {
      "id": "n-00309",
      "pitch": "B4",
      "midi": 71,
      "start": 70.8,
      "duration": 1.131,
      "velocity": 0.71
    },
    {
      "id": "n-00310",
      "pitch": "G#3",
      "midi": 56,
      "start": 71.4,
      "duration": 0.525,
      "velocity": 0.71
    },
    {
      "id": "n-00311",
      "pitch": "C4",
      "midi": 60,
      "start": 71.4,
      "duration": 0.525,
      "velocity": 0.71
    },
    {
      "id": "n-00312",
      "pitch": "F4",
      "midi": 65,
      "start": 71.4,
      "duration": 0.525,
      "velocity": 0.71
    },
    {
      "id": "n-00313",
      "pitch": "G#4",
      "midi": 68,
      "start": 71.931,
      "duration": 0.067,
      "velocity": 0.71
    },
    {
      "id": "n-00314",
      "pitch": "F2",
      "midi": 41,
      "start": 72,
      "duration": 2.1,
      "velocity": 0.71
    },
    {
      "id": "n-00315",
      "pitch": "G4",
      "midi": 67,
      "start": 72,
      "duration": 0.531,
      "velocity": 0.71
    },
    {
      "id": "n-00316",
      "pitch": "G4",
      "midi": 67,
      "start": 72.531,
      "duration": 0.067,
      "velocity": 0.71
    },
    {
      "id": "n-00317",
      "pitch": "G#3",
      "midi": 56,
      "start": 72.6,
      "duration": 1.05,
      "velocity": 0.71
    },
    {
      "id": "n-00318",
      "pitch": "C4",
      "midi": 60,
      "start": 72.6,
      "duration": 1.05,
      "velocity": 0.71
    },
    {
      "id": "n-00319",
      "pitch": "F4",
      "midi": 65,
      "start": 72.6,
      "duration": 1.2,
      "velocity": 0.71
    },
    {
      "id": "n-00320",
      "pitch": "G#3",
      "midi": 56,
      "start": 73.8,
      "duration": 0.525,
      "velocity": 0.71
    },
    {
      "id": "n-00321",
      "pitch": "C4",
      "midi": 60,
      "start": 73.8,
      "duration": 0.525,
      "velocity": 0.71
    },
    {
      "id": "n-00322",
      "pitch": "F4",
      "midi": 65,
      "start": 73.8,
      "duration": 1.2,
      "velocity": 0.71
    },
    {
      "id": "n-00323",
      "pitch": "F2",
      "midi": 41,
      "start": 74.4,
      "duration": 2.1,
      "velocity": 0.71
    },
    {
      "id": "n-00324",
      "pitch": "G#3",
      "midi": 56,
      "start": 75,
      "duration": 1.05,
      "velocity": 0.71
    },
    {
      "id": "n-00325",
      "pitch": "C4",
      "midi": 60,
      "start": 75,
      "duration": 1.05,
      "velocity": 0.71
    },
    {
      "id": "n-00326",
      "pitch": "F4",
      "midi": 65,
      "start": 75,
      "duration": 1.2,
      "velocity": 0.71
    },
    {
      "id": "n-00327",
      "pitch": "G#3",
      "midi": 56,
      "start": 76.2,
      "duration": 0.525,
      "velocity": 0.71
    },
    {
      "id": "n-00328",
      "pitch": "C4",
      "midi": 60,
      "start": 76.2,
      "duration": 0.525,
      "velocity": 0.71
    },
    {
      "id": "n-00329",
      "pitch": "F4",
      "midi": 65,
      "start": 76.2,
      "duration": 0.3,
      "velocity": 0.71
    },
    {
      "id": "n-00330",
      "pitch": "F2",
      "midi": 41,
      "start": 76.8,
      "duration": 2.1,
      "velocity": 0.71
    },
    {
      "id": "n-00331",
      "pitch": "C5",
      "midi": 72,
      "start": 77.1,
      "duration": 0.3,
      "velocity": 0.71
    },
    {
      "id": "n-00332",
      "pitch": "G#3",
      "midi": 56,
      "start": 77.4,
      "duration": 1.05,
      "velocity": 0.71
    },
    {
      "id": "n-00333",
      "pitch": "C4",
      "midi": 60,
      "start": 77.4,
      "duration": 1.05,
      "velocity": 0.71
    },
    {
      "id": "n-00334",
      "pitch": "F4",
      "midi": 65,
      "start": 77.4,
      "duration": 1.05,
      "velocity": 0.71
    },
    {
      "id": "n-00335",
      "pitch": "D5",
      "midi": 74,
      "start": 77.4,
      "duration": 0.3,
      "velocity": 0.71
    },
    {
      "id": "n-00336",
      "pitch": "E5",
      "midi": 76,
      "start": 77.7,
      "duration": 0.3,
      "velocity": 0.71
    },
    {
      "id": "n-00337",
      "pitch": "F5",
      "midi": 77,
      "start": 78,
      "duration": 0.3,
      "velocity": 0.71
    },
    {
      "id": "n-00338",
      "pitch": "G5",
      "midi": 79,
      "start": 78.3,
      "duration": 0.3,
      "velocity": 0.71
    },
    {
      "id": "n-00339",
      "pitch": "G#3",
      "midi": 56,
      "start": 78.6,
      "duration": 0.525,
      "velocity": 0.71
    },
    {
      "id": "n-00340",
      "pitch": "C4",
      "midi": 60,
      "start": 78.6,
      "duration": 0.525,
      "velocity": 0.71
    },
    {
      "id": "n-00341",
      "pitch": "F4",
      "midi": 65,
      "start": 78.6,
      "duration": 0.525,
      "velocity": 0.71
    },
    {
      "id": "n-00342",
      "pitch": "B5",
      "midi": 83,
      "start": 78.6,
      "duration": 0.3,
      "velocity": 0.71
    },
    {
      "id": "n-00343",
      "pitch": "G5",
      "midi": 79,
      "start": 78.9,
      "duration": 0.3,
      "velocity": 0.71
    },
    {
      "id": "n-00344",
      "pitch": "F2",
      "midi": 41,
      "start": 79.2,
      "duration": 2.1,
      "velocity": 0.71
    },
    {
      "id": "n-00345",
      "pitch": "F5",
      "midi": 77,
      "start": 79.2,
      "duration": 0.531,
      "velocity": 0.71
    },
    {
      "id": "n-00346",
      "pitch": "G5",
      "midi": 79,
      "start": 79.731,
      "duration": 0.067,
      "velocity": 0.71
    },
    {
      "id": "n-00347",
      "pitch": "G#3",
      "midi": 56,
      "start": 79.8,
      "duration": 1.05,
      "velocity": 0.71
    },
    {
      "id": "n-00348",
      "pitch": "C4",
      "midi": 60,
      "start": 79.8,
      "duration": 1.05,
      "velocity": 0.71
    },
    {
      "id": "n-00349",
      "pitch": "F4",
      "midi": 65,
      "start": 79.8,
      "duration": 1.05,
      "velocity": 0.71
    },
    {
      "id": "n-00350",
      "pitch": "F5",
      "midi": 77,
      "start": 79.8,
      "duration": 1.731,
      "velocity": 0.71
    },
    {
      "id": "n-00351",
      "pitch": "G#3",
      "midi": 56,
      "start": 81,
      "duration": 0.525,
      "velocity": 0.71
    },
    {
      "id": "n-00352",
      "pitch": "C4",
      "midi": 60,
      "start": 81,
      "duration": 0.525,
      "velocity": 0.71
    },
    {
      "id": "n-00353",
      "pitch": "F4",
      "midi": 65,
      "start": 81,
      "duration": 0.525,
      "velocity": 0.71
    },
    {
      "id": "n-00354",
      "pitch": "G5",
      "midi": 79,
      "start": 81.531,
      "duration": 0.067,
      "velocity": 0.71
    },
    {
      "id": "n-00355",
      "pitch": "F2",
      "midi": 41,
      "start": 81.6,
      "duration": 2.1,
      "velocity": 0.71
    },
    {
      "id": "n-00356",
      "pitch": "F5",
      "midi": 77,
      "start": 81.6,
      "duration": 1.131,
      "velocity": 0.71
    },
    {
      "id": "n-00357",
      "pitch": "G#3",
      "midi": 56,
      "start": 82.2,
      "duration": 1.05,
      "velocity": 0.71
    },
    {
      "id": "n-00358",
      "pitch": "C4",
      "midi": 60,
      "start": 82.2,
      "duration": 1.05,
      "velocity": 0.71
    },
    {
      "id": "n-00359",
      "pitch": "F4",
      "midi": 65,
      "start": 82.2,
      "duration": 1.05,
      "velocity": 0.71
    },
    {
      "id": "n-00360",
      "pitch": "F5",
      "midi": 77,
      "start": 82.731,
      "duration": 0.067,
      "velocity": 0.71
    },
    {
      "id": "n-00361",
      "pitch": "E5",
      "midi": 76,
      "start": 82.8,
      "duration": 1.131,
      "velocity": 0.71
    },
    {
      "id": "n-00362",
      "pitch": "G#3",
      "midi": 56,
      "start": 83.4,
      "duration": 0.525,
      "velocity": 0.71
    },
    {
      "id": "n-00363",
      "pitch": "C4",
      "midi": 60,
      "start": 83.4,
      "duration": 0.525,
      "velocity": 0.71
    },
    {
      "id": "n-00364",
      "pitch": "F4",
      "midi": 65,
      "start": 83.4,
      "duration": 0.525,
      "velocity": 0.71
    },
    {
      "id": "n-00365",
      "pitch": "C#5",
      "midi": 73,
      "start": 83.931,
      "duration": 0.067,
      "velocity": 0.71
    },
    {
      "id": "n-00366",
      "pitch": "F2",
      "midi": 41,
      "start": 84,
      "duration": 2.1,
      "velocity": 0.71
    },
    {
      "id": "n-00367",
      "pitch": "C5",
      "midi": 72,
      "start": 84,
      "duration": 1.131,
      "velocity": 0.71
    },
    {
      "id": "n-00368",
      "pitch": "G#3",
      "midi": 56,
      "start": 84.6,
      "duration": 1.05,
      "velocity": 0.71
    },
    {
      "id": "n-00369",
      "pitch": "C4",
      "midi": 60,
      "start": 84.6,
      "duration": 1.05,
      "velocity": 0.71
    },
    {
      "id": "n-00370",
      "pitch": "F4",
      "midi": 65,
      "start": 84.6,
      "duration": 1.05,
      "velocity": 0.71
    },
    {
      "id": "n-00371",
      "pitch": "C5",
      "midi": 72,
      "start": 85.131,
      "duration": 0.067,
      "velocity": 0.71
    },
    {
      "id": "n-00372",
      "pitch": "B4",
      "midi": 71,
      "start": 85.2,
      "duration": 1.131,
      "velocity": 0.71
    },
    {
      "id": "n-00373",
      "pitch": "G#3",
      "midi": 56,
      "start": 85.8,
      "duration": 0.525,
      "velocity": 0.71
    },
    {
      "id": "n-00374",
      "pitch": "C4",
      "midi": 60,
      "start": 85.8,
      "duration": 0.525,
      "velocity": 0.71
    },
    {
      "id": "n-00375",
      "pitch": "F4",
      "midi": 65,
      "start": 85.8,
      "duration": 0.525,
      "velocity": 0.71
    },
    {
      "id": "n-00376",
      "pitch": "G#4",
      "midi": 68,
      "start": 86.331,
      "duration": 0.067,
      "velocity": 0.71
    },
    {
      "id": "n-00377",
      "pitch": "F2",
      "midi": 41,
      "start": 86.4,
      "duration": 2.1,
      "velocity": 0.71
    },
    {
      "id": "n-00378",
      "pitch": "G4",
      "midi": 67,
      "start": 86.4,
      "duration": 0.531,
      "velocity": 0.71
    },
    {
      "id": "n-00379",
      "pitch": "G4",
      "midi": 67,
      "start": 86.931,
      "duration": 0.067,
      "velocity": 0.71
    },
    {
      "id": "n-00380",
      "pitch": "G#3",
      "midi": 56,
      "start": 87,
      "duration": 1.05,
      "velocity": 0.71
    },
    {
      "id": "n-00381",
      "pitch": "C4",
      "midi": 60,
      "start": 87,
      "duration": 1.05,
      "velocity": 0.71
    },
    {
      "id": "n-00382",
      "pitch": "F4",
      "midi": 65,
      "start": 87,
      "duration": 1.2,
      "velocity": 0.71
    },
    {
      "id": "n-00383",
      "pitch": "G#3",
      "midi": 56,
      "start": 88.2,
      "duration": 0.525,
      "velocity": 0.71
    },
    {
      "id": "n-00384",
      "pitch": "C4",
      "midi": 60,
      "start": 88.2,
      "duration": 0.525,
      "velocity": 0.71
    },
    {
      "id": "n-00385",
      "pitch": "F4",
      "midi": 65,
      "start": 88.2,
      "duration": 1.2,
      "velocity": 0.71
    },
    {
      "id": "n-00386",
      "pitch": "F2",
      "midi": 41,
      "start": 88.8,
      "duration": 2.1,
      "velocity": 0.71
    },
    {
      "id": "n-00387",
      "pitch": "G#3",
      "midi": 56,
      "start": 89.4,
      "duration": 1.05,
      "velocity": 0.71
    },
    {
      "id": "n-00388",
      "pitch": "C4",
      "midi": 60,
      "start": 89.4,
      "duration": 1.05,
      "velocity": 0.71
    },
    {
      "id": "n-00389",
      "pitch": "F4",
      "midi": 65,
      "start": 89.4,
      "duration": 1.2,
      "velocity": 0.71
    },
    {
      "id": "n-00390",
      "pitch": "G#3",
      "midi": 56,
      "start": 90.6,
      "duration": 0.525,
      "velocity": 0.71
    },
    {
      "id": "n-00391",
      "pitch": "C4",
      "midi": 60,
      "start": 90.6,
      "duration": 0.525,
      "velocity": 0.71
    },
    {
      "id": "n-00392",
      "pitch": "F4",
      "midi": 65,
      "start": 90.6,
      "duration": 0.3,
      "velocity": 0.71
    },
    {
      "id": "n-00393",
      "pitch": "G#4",
      "midi": 68,
      "start": 91.131,
      "duration": 0.058,
      "velocity": 0.71
    },
    {
      "id": "n-00394",
      "pitch": "A#1",
      "midi": 34,
      "start": 91.2,
      "duration": 2.1,
      "velocity": 0.71
    },
    {
      "id": "n-00395",
      "pitch": "A#4",
      "midi": 70,
      "start": 91.2,
      "duration": 1.131,
      "velocity": 0.71
    },
    {
      "id": "n-00396",
      "pitch": "F3",
      "midi": 53,
      "start": 91.8,
      "duration": 1.05,
      "velocity": 0.71
    },
    {
      "id": "n-00397",
      "pitch": "A#3",
      "midi": 58,
      "start": 91.8,
      "duration": 1.05,
      "velocity": 0.71
    },
    {
      "id": "n-00398",
      "pitch": "C#4",
      "midi": 61,
      "start": 91.8,
      "duration": 1.05,
      "velocity": 0.71
    },
    {
      "id": "n-00399",
      "pitch": "G#4",
      "midi": 68,
      "start": 92.331,
      "duration": 0.067,
      "velocity": 0.71
    },
    {
      "id": "n-00400",
      "pitch": "G4",
      "midi": 67,
      "start": 92.4,
      "duration": 1.131,
      "velocity": 0.71
    },
    {
      "id": "n-00401",
      "pitch": "F3",
      "midi": 53,
      "start": 93,
      "duration": 0.525,
      "velocity": 0.71
    },
    {
      "id": "n-00402",
      "pitch": "A#3",
      "midi": 58,
      "start": 93,
      "duration": 0.525,
      "velocity": 0.71
    },
    {
      "id": "n-00403",
      "pitch": "C#4",
      "midi": 61,
      "start": 93,
      "duration": 0.525,
      "velocity": 0.71
    },
    {
      "id": "n-00404",
      "pitch": "G#4",
      "midi": 68,
      "start": 93.531,
      "duration": 0.067,
      "velocity": 0.71
    },
    {
      "id": "n-00405",
      "pitch": "A#1",
      "midi": 34,
      "start": 93.6,
      "duration": 2.1,
      "velocity": 0.71
    },
    {
      "id": "n-00406",
      "pitch": "A#4",
      "midi": 70,
      "start": 93.6,
      "duration": 1.131,
      "velocity": 0.71
    },
    {
      "id": "n-00407",
      "pitch": "F3",
      "midi": 53,
      "start": 94.2,
      "duration": 1.05,
      "velocity": 0.71
    },
    {
      "id": "n-00408",
      "pitch": "A#3",
      "midi": 58,
      "start": 94.2,
      "duration": 1.05,
      "velocity": 0.71
    },
    {
      "id": "n-00409",
      "pitch": "C#4",
      "midi": 61,
      "start": 94.2,
      "duration": 1.05,
      "velocity": 0.71
    },
    {
      "id": "n-00410",
      "pitch": "G#4",
      "midi": 68,
      "start": 94.731,
      "duration": 0.067,
      "velocity": 0.71
    },
    {
      "id": "n-00411",
      "pitch": "G4",
      "midi": 67,
      "start": 94.8,
      "duration": 1.131,
      "velocity": 0.71
    },
    {
      "id": "n-00412",
      "pitch": "F3",
      "midi": 53,
      "start": 95.4,
      "duration": 0.525,
      "velocity": 0.71
    },
    {
      "id": "n-00413",
      "pitch": "A#3",
      "midi": 58,
      "start": 95.4,
      "duration": 0.525,
      "velocity": 0.71
    },
    {
      "id": "n-00414",
      "pitch": "C#4",
      "midi": 61,
      "start": 95.4,
      "duration": 0.525,
      "velocity": 0.71
    },
    {
      "id": "n-00415",
      "pitch": "G#4",
      "midi": 68,
      "start": 95.931,
      "duration": 0.067,
      "velocity": 0.71
    },
    {
      "id": "n-00416",
      "pitch": "F2",
      "midi": 41,
      "start": 96,
      "duration": 2.1,
      "velocity": 0.71
    },
    {
      "id": "n-00417",
      "pitch": "G4",
      "midi": 67,
      "start": 96,
      "duration": 0.531,
      "velocity": 0.71
    },
    {
      "id": "n-00418",
      "pitch": "G4",
      "midi": 67,
      "start": 96.531,
      "duration": 0.067,
      "velocity": 0.71
    },
    {
      "id": "n-00419",
      "pitch": "G#3",
      "midi": 56,
      "start": 96.6,
      "duration": 1.05,
      "velocity": 0.71
    },
    {
      "id": "n-00420",
      "pitch": "C4",
      "midi": 60,
      "start": 96.6,
      "duration": 1.05,
      "velocity": 0.71
    },
    {
      "id": "n-00421",
      "pitch": "F4",
      "midi": 65,
      "start": 96.6,
      "duration": 1.2,
      "velocity": 0.71
    },
    {
      "id": "n-00422",
      "pitch": "G#3",
      "midi": 56,
      "start": 97.8,
      "duration": 0.525,
      "velocity": 0.71
    },
    {
      "id": "n-00423",
      "pitch": "C4",
      "midi": 60,
      "start": 97.8,
      "duration": 0.525,
      "velocity": 0.71
    },
    {
      "id": "n-00424",
      "pitch": "F4",
      "midi": 65,
      "start": 97.8,
      "duration": 1.2,
      "velocity": 0.71
    },
    {
      "id": "n-00425",
      "pitch": "F2",
      "midi": 41,
      "start": 98.4,
      "duration": 2.1,
      "velocity": 0.71
    },
    {
      "id": "n-00426",
      "pitch": "G#3",
      "midi": 56,
      "start": 99,
      "duration": 1.05,
      "velocity": 0.71
    },
    {
      "id": "n-00427",
      "pitch": "C4",
      "midi": 60,
      "start": 99,
      "duration": 1.05,
      "velocity": 0.71
    },
    {
      "id": "n-00428",
      "pitch": "F4",
      "midi": 65,
      "start": 99,
      "duration": 1.2,
      "velocity": 0.71
    },
    {
      "id": "n-00429",
      "pitch": "G#3",
      "midi": 56,
      "start": 100.2,
      "duration": 0.525,
      "velocity": 0.71
    },
    {
      "id": "n-00430",
      "pitch": "C4",
      "midi": 60,
      "start": 100.2,
      "duration": 0.525,
      "velocity": 0.71
    },
    {
      "id": "n-00431",
      "pitch": "F4",
      "midi": 65,
      "start": 100.2,
      "duration": 0.3,
      "velocity": 0.71
    },
    {
      "id": "n-00432",
      "pitch": "G#4",
      "midi": 68,
      "start": 100.731,
      "duration": 0.058,
      "velocity": 0.71
    },
    {
      "id": "n-00433",
      "pitch": "A#1",
      "midi": 34,
      "start": 100.8,
      "duration": 2.1,
      "velocity": 0.71
    },
    {
      "id": "n-00434",
      "pitch": "A#4",
      "midi": 70,
      "start": 100.8,
      "duration": 1.131,
      "velocity": 0.71
    },
    {
      "id": "n-00435",
      "pitch": "F3",
      "midi": 53,
      "start": 101.4,
      "duration": 1.05,
      "velocity": 0.71
    },
    {
      "id": "n-00436",
      "pitch": "A#3",
      "midi": 58,
      "start": 101.4,
      "duration": 1.05,
      "velocity": 0.71
    },
    {
      "id": "n-00437",
      "pitch": "C#4",
      "midi": 61,
      "start": 101.4,
      "duration": 1.05,
      "velocity": 0.71
    },
    {
      "id": "n-00438",
      "pitch": "G#4",
      "midi": 68,
      "start": 101.931,
      "duration": 0.067,
      "velocity": 0.71
    },
    {
      "id": "n-00439",
      "pitch": "G4",
      "midi": 67,
      "start": 102,
      "duration": 1.131,
      "velocity": 0.71
    },
    {
      "id": "n-00440",
      "pitch": "F3",
      "midi": 53,
      "start": 102.6,
      "duration": 0.525,
      "velocity": 0.71
    },
    {
      "id": "n-00441",
      "pitch": "A#3",
      "midi": 58,
      "start": 102.6,
      "duration": 0.525,
      "velocity": 0.71
    },
    {
      "id": "n-00442",
      "pitch": "C#4",
      "midi": 61,
      "start": 102.6,
      "duration": 0.525,
      "velocity": 0.71
    },
    {
      "id": "n-00443",
      "pitch": "G#4",
      "midi": 68,
      "start": 103.131,
      "duration": 0.067,
      "velocity": 0.71
    },
    {
      "id": "n-00444",
      "pitch": "A#1",
      "midi": 34,
      "start": 103.2,
      "duration": 2.1,
      "velocity": 0.71
    },
    {
      "id": "n-00445",
      "pitch": "A#4",
      "midi": 70,
      "start": 103.2,
      "duration": 1.131,
      "velocity": 0.71
    },
    {
      "id": "n-00446",
      "pitch": "F3",
      "midi": 53,
      "start": 103.8,
      "duration": 1.05,
      "velocity": 0.71
    },
    {
      "id": "n-00447",
      "pitch": "A#3",
      "midi": 58,
      "start": 103.8,
      "duration": 1.05,
      "velocity": 0.71
    },
    {
      "id": "n-00448",
      "pitch": "C#4",
      "midi": 61,
      "start": 103.8,
      "duration": 1.05,
      "velocity": 0.71
    },
    {
      "id": "n-00449",
      "pitch": "G#4",
      "midi": 68,
      "start": 104.331,
      "duration": 0.067,
      "velocity": 0.71
    },
    {
      "id": "n-00450",
      "pitch": "G4",
      "midi": 67,
      "start": 104.4,
      "duration": 1.131,
      "velocity": 0.71
    },
    {
      "id": "n-00451",
      "pitch": "F3",
      "midi": 53,
      "start": 105,
      "duration": 0.525,
      "velocity": 0.71
    },
    {
      "id": "n-00452",
      "pitch": "A#3",
      "midi": 58,
      "start": 105,
      "duration": 0.525,
      "velocity": 0.71
    },
    {
      "id": "n-00453",
      "pitch": "C#4",
      "midi": 61,
      "start": 105,
      "duration": 0.525,
      "velocity": 0.71
    },
    {
      "id": "n-00454",
      "pitch": "G#4",
      "midi": 68,
      "start": 105.531,
      "duration": 0.067,
      "velocity": 0.71
    },
    {
      "id": "n-00455",
      "pitch": "F2",
      "midi": 41,
      "start": 105.6,
      "duration": 2.1,
      "velocity": 0.71
    },
    {
      "id": "n-00456",
      "pitch": "G4",
      "midi": 67,
      "start": 105.6,
      "duration": 0.531,
      "velocity": 0.71
    },
    {
      "id": "n-00457",
      "pitch": "G4",
      "midi": 67,
      "start": 106.131,
      "duration": 0.067,
      "velocity": 0.71
    },
    {
      "id": "n-00458",
      "pitch": "G#3",
      "midi": 56,
      "start": 106.2,
      "duration": 1.05,
      "velocity": 0.71
    },
    {
      "id": "n-00459",
      "pitch": "C4",
      "midi": 60,
      "start": 106.2,
      "duration": 1.05,
      "velocity": 0.71
    },
    {
      "id": "n-00460",
      "pitch": "F4",
      "midi": 65,
      "start": 106.2,
      "duration": 1.2,
      "velocity": 0.71
    },
    {
      "id": "n-00461",
      "pitch": "G#3",
      "midi": 56,
      "start": 107.4,
      "duration": 0.525,
      "velocity": 0.71
    },
    {
      "id": "n-00462",
      "pitch": "C4",
      "midi": 60,
      "start": 107.4,
      "duration": 0.525,
      "velocity": 0.71
    },
    {
      "id": "n-00463",
      "pitch": "F4",
      "midi": 65,
      "start": 107.4,
      "duration": 1.2,
      "velocity": 0.71
    },
    {
      "id": "n-00464",
      "pitch": "F2",
      "midi": 41,
      "start": 108,
      "duration": 2.1,
      "velocity": 0.71
    },
    {
      "id": "n-00465",
      "pitch": "G#3",
      "midi": 56,
      "start": 108.6,
      "duration": 1.05,
      "velocity": 0.71
    },
    {
      "id": "n-00466",
      "pitch": "C4",
      "midi": 60,
      "start": 108.6,
      "duration": 1.05,
      "velocity": 0.71
    },
    {
      "id": "n-00467",
      "pitch": "F4",
      "midi": 65,
      "start": 108.6,
      "duration": 1.2,
      "velocity": 0.71
    },
    {
      "id": "n-00468",
      "pitch": "G#3",
      "midi": 56,
      "start": 109.8,
      "duration": 0.525,
      "velocity": 0.71
    },
    {
      "id": "n-00469",
      "pitch": "C4",
      "midi": 60,
      "start": 109.8,
      "duration": 0.525,
      "velocity": 0.71
    },
    {
      "id": "n-00470",
      "pitch": "F4",
      "midi": 65,
      "start": 109.8,
      "duration": 0.3,
      "velocity": 0.71
    },
    {
      "id": "n-00471",
      "pitch": "F2",
      "midi": 41,
      "start": 110.4,
      "duration": 2.1,
      "velocity": 0.71
    },
    {
      "id": "n-00472",
      "pitch": "G#3",
      "midi": 56,
      "start": 111,
      "duration": 1.05,
      "velocity": 0.71
    },
    {
      "id": "n-00473",
      "pitch": "C4",
      "midi": 60,
      "start": 111,
      "duration": 1.05,
      "velocity": 0.71
    },
    {
      "id": "n-00474",
      "pitch": "F4",
      "midi": 65,
      "start": 111,
      "duration": 1.05,
      "velocity": 0.71
    },
    {
      "id": "n-00475",
      "pitch": "C5",
      "midi": 72,
      "start": 111,
      "duration": 0.3,
      "velocity": 0.71
    },
    {
      "id": "n-00476",
      "pitch": "D#5",
      "midi": 75,
      "start": 111.3,
      "duration": 0.3,
      "velocity": 0.71
    },
    {
      "id": "n-00477",
      "pitch": "D5",
      "midi": 74,
      "start": 111.6,
      "duration": 0.6,
      "velocity": 0.71
    },
    {
      "id": "n-00478",
      "pitch": "G#3",
      "midi": 56,
      "start": 112.2,
      "duration": 0.525,
      "velocity": 0.71
    },
    {
      "id": "n-00479",
      "pitch": "C4",
      "midi": 60,
      "start": 112.2,
      "duration": 0.525,
      "velocity": 0.71
    },
    {
      "id": "n-00480",
      "pitch": "F4",
      "midi": 65,
      "start": 112.2,
      "duration": 0.525,
      "velocity": 0.71
    },
    {
      "id": "n-00481",
      "pitch": "C5",
      "midi": 72,
      "start": 112.2,
      "duration": 0.531,
      "velocity": 0.71
    },
    {
      "id": "n-00482",
      "pitch": "C5",
      "midi": 72,
      "start": 112.731,
      "duration": 0.067,
      "velocity": 0.71
    },
    {
      "id": "n-00483",
      "pitch": "F2",
      "midi": 41,
      "start": 112.8,
      "duration": 2.1,
      "velocity": 0.71
    },
    {
      "id": "n-00484",
      "pitch": "B4",
      "midi": 71,
      "start": 112.8,
      "duration": 2.1,
      "velocity": 0.71
    },
    {
      "id": "n-00485",
      "pitch": "G#3",
      "midi": 56,
      "start": 113.4,
      "duration": 1.05,
      "velocity": 0.71
    },
    {
      "id": "n-00486",
      "pitch": "C4",
      "midi": 60,
      "start": 113.4,
      "duration": 1.05,
      "velocity": 0.71
    },
    {
      "id": "n-00487",
      "pitch": "F4",
      "midi": 65,
      "start": 113.4,
      "duration": 1.05,
      "velocity": 0.71
    },
    {
      "id": "n-00488",
      "pitch": "G#3",
      "midi": 56,
      "start": 114.6,
      "duration": 0.525,
      "velocity": 0.71
    },
    {
      "id": "n-00489",
      "pitch": "C4",
      "midi": 60,
      "start": 114.6,
      "duration": 0.525,
      "velocity": 0.71
    },
    {
      "id": "n-00490",
      "pitch": "F4",
      "midi": 65,
      "start": 114.6,
      "duration": 0.525,
      "velocity": 0.71
    },
    {
      "id": "n-00491",
      "pitch": "F2",
      "midi": 41,
      "start": 115.2,
      "duration": 2.1,
      "velocity": 0.71
    },
    {
      "id": "n-00492",
      "pitch": "G#3",
      "midi": 56,
      "start": 115.8,
      "duration": 1.05,
      "velocity": 0.71
    },
    {
      "id": "n-00493",
      "pitch": "C4",
      "midi": 60,
      "start": 115.8,
      "duration": 1.05,
      "velocity": 0.71
    },
    {
      "id": "n-00494",
      "pitch": "F4",
      "midi": 65,
      "start": 115.8,
      "duration": 1.05,
      "velocity": 0.71
    },
    {
      "id": "n-00495",
      "pitch": "C5",
      "midi": 72,
      "start": 115.8,
      "duration": 0.3,
      "velocity": 0.71
    },
    {
      "id": "n-00496",
      "pitch": "D#5",
      "midi": 75,
      "start": 116.1,
      "duration": 0.3,
      "velocity": 0.71
    },
    {
      "id": "n-00497",
      "pitch": "D5",
      "midi": 74,
      "start": 116.4,
      "duration": 0.6,
      "velocity": 0.71
    },
    {
      "id": "n-00498",
      "pitch": "G#3",
      "midi": 56,
      "start": 117,
      "duration": 0.525,
      "velocity": 0.71
    },
    {
      "id": "n-00499",
      "pitch": "C4",
      "midi": 60,
      "start": 117,
      "duration": 0.525,
      "velocity": 0.71
    },
    {
      "id": "n-00500",
      "pitch": "F4",
      "midi": 65,
      "start": 117,
      "duration": 0.525,
      "velocity": 0.71
    },
    {
      "id": "n-00501",
      "pitch": "C5",
      "midi": 72,
      "start": 117,
      "duration": 0.531,
      "velocity": 0.71
    },
    {
      "id": "n-00502",
      "pitch": "E5",
      "midi": 76,
      "start": 117.531,
      "duration": 0.067,
      "velocity": 0.71
    },
    {
      "id": "n-00503",
      "pitch": "F2",
      "midi": 41,
      "start": 117.6,
      "duration": 2.1,
      "velocity": 0.71
    },
    {
      "id": "n-00504",
      "pitch": "F5",
      "midi": 77,
      "start": 117.6,
      "duration": 2.1,
      "velocity": 0.71
    },
    {
      "id": "n-00505",
      "pitch": "G#3",
      "midi": 56,
      "start": 118.2,
      "duration": 1.05,
      "velocity": 0.71
    },
    {
      "id": "n-00506",
      "pitch": "C4",
      "midi": 60,
      "start": 118.2,
      "duration": 1.05,
      "velocity": 0.71
    },
    {
      "id": "n-00507",
      "pitch": "F4",
      "midi": 65,
      "start": 118.2,
      "duration": 1.05,
      "velocity": 0.71
    },
    {
      "id": "n-00508",
      "pitch": "G#3",
      "midi": 56,
      "start": 119.4,
      "duration": 0.525,
      "velocity": 0.71
    },
    {
      "id": "n-00509",
      "pitch": "C4",
      "midi": 60,
      "start": 119.4,
      "duration": 0.525,
      "velocity": 0.71
    },
    {
      "id": "n-00510",
      "pitch": "F4",
      "midi": 65,
      "start": 119.4,
      "duration": 0.525,
      "velocity": 0.71
    },
    {
      "id": "n-00511",
      "pitch": "F2",
      "midi": 41,
      "start": 120,
      "duration": 2.1,
      "velocity": 0.71
    },
    {
      "id": "n-00512",
      "pitch": "G#3",
      "midi": 56,
      "start": 120.6,
      "duration": 1.05,
      "velocity": 0.71
    },
    {
      "id": "n-00513",
      "pitch": "C4",
      "midi": 60,
      "start": 120.6,
      "duration": 1.05,
      "velocity": 0.71
    },
    {
      "id": "n-00514",
      "pitch": "F4",
      "midi": 65,
      "start": 120.6,
      "duration": 1.05,
      "velocity": 0.71
    },
    {
      "id": "n-00515",
      "pitch": "C5",
      "midi": 72,
      "start": 120.6,
      "duration": 0.3,
      "velocity": 0.71
    },
    {
      "id": "n-00516",
      "pitch": "D#5",
      "midi": 75,
      "start": 120.9,
      "duration": 0.3,
      "velocity": 0.71
    },
    {
      "id": "n-00517",
      "pitch": "D5",
      "midi": 74,
      "start": 121.2,
      "duration": 0.6,
      "velocity": 0.71
    },
    {
      "id": "n-00518",
      "pitch": "G#3",
      "midi": 56,
      "start": 121.8,
      "duration": 0.525,
      "velocity": 0.71
    },
    {
      "id": "n-00519",
      "pitch": "C4",
      "midi": 60,
      "start": 121.8,
      "duration": 0.525,
      "velocity": 0.71
    },
    {
      "id": "n-00520",
      "pitch": "F4",
      "midi": 65,
      "start": 121.8,
      "duration": 0.525,
      "velocity": 0.71
    },
    {
      "id": "n-00521",
      "pitch": "C5",
      "midi": 72,
      "start": 121.8,
      "duration": 0.531,
      "velocity": 0.71
    },
    {
      "id": "n-00522",
      "pitch": "C5",
      "midi": 72,
      "start": 122.331,
      "duration": 0.067,
      "velocity": 0.71
    },
    {
      "id": "n-00523",
      "pitch": "F2",
      "midi": 41,
      "start": 122.4,
      "duration": 2.1,
      "velocity": 0.71
    },
    {
      "id": "n-00524",
      "pitch": "B4",
      "midi": 71,
      "start": 122.4,
      "duration": 2.1,
      "velocity": 0.71
    },
    {
      "id": "n-00525",
      "pitch": "G#3",
      "midi": 56,
      "start": 123,
      "duration": 1.05,
      "velocity": 0.71
    },
    {
      "id": "n-00526",
      "pitch": "C4",
      "midi": 60,
      "start": 123,
      "duration": 1.05,
      "velocity": 0.71
    },
    {
      "id": "n-00527",
      "pitch": "F4",
      "midi": 65,
      "start": 123,
      "duration": 1.05,
      "velocity": 0.71
    },
    {
      "id": "n-00528",
      "pitch": "G#3",
      "midi": 56,
      "start": 124.2,
      "duration": 0.525,
      "velocity": 0.71
    },
    {
      "id": "n-00529",
      "pitch": "C4",
      "midi": 60,
      "start": 124.2,
      "duration": 0.525,
      "velocity": 0.71
    },
    {
      "id": "n-00530",
      "pitch": "F4",
      "midi": 65,
      "start": 124.2,
      "duration": 0.525,
      "velocity": 0.71
    },
    {
      "id": "n-00531",
      "pitch": "F2",
      "midi": 41,
      "start": 124.8,
      "duration": 2.1,
      "velocity": 0.71
    },
    {
      "id": "n-00532",
      "pitch": "G#3",
      "midi": 56,
      "start": 125.4,
      "duration": 1.05,
      "velocity": 0.71
    },
    {
      "id": "n-00533",
      "pitch": "C4",
      "midi": 60,
      "start": 125.4,
      "duration": 1.05,
      "velocity": 0.71
    },
    {
      "id": "n-00534",
      "pitch": "F4",
      "midi": 65,
      "start": 125.4,
      "duration": 1.05,
      "velocity": 0.71
    },
    {
      "id": "n-00535",
      "pitch": "C5",
      "midi": 72,
      "start": 125.4,
      "duration": 0.3,
      "velocity": 0.71
    },
    {
      "id": "n-00536",
      "pitch": "D#5",
      "midi": 75,
      "start": 125.7,
      "duration": 0.3,
      "velocity": 0.71
    },
    {
      "id": "n-00537",
      "pitch": "D5",
      "midi": 74,
      "start": 126,
      "duration": 0.6,
      "velocity": 0.71
    },
    {
      "id": "n-00538",
      "pitch": "G#3",
      "midi": 56,
      "start": 126.6,
      "duration": 0.525,
      "velocity": 0.71
    },
    {
      "id": "n-00539",
      "pitch": "C4",
      "midi": 60,
      "start": 126.6,
      "duration": 0.525,
      "velocity": 0.71
    },
    {
      "id": "n-00540",
      "pitch": "F4",
      "midi": 65,
      "start": 126.6,
      "duration": 0.525,
      "velocity": 0.71
    },
    {
      "id": "n-00541",
      "pitch": "C5",
      "midi": 72,
      "start": 126.6,
      "duration": 0.531,
      "velocity": 0.71
    },
    {
      "id": "n-00542",
      "pitch": "E5",
      "midi": 76,
      "start": 127.131,
      "duration": 0.067,
      "velocity": 0.71
    },
    {
      "id": "n-00543",
      "pitch": "F2",
      "midi": 41,
      "start": 127.2,
      "duration": 2.1,
      "velocity": 0.71
    },
    {
      "id": "n-00544",
      "pitch": "F5",
      "midi": 77,
      "start": 127.2,
      "duration": 2.1,
      "velocity": 0.71
    },
    {
      "id": "n-00545",
      "pitch": "G#3",
      "midi": 56,
      "start": 127.8,
      "duration": 1.05,
      "velocity": 0.71
    },
    {
      "id": "n-00546",
      "pitch": "C4",
      "midi": 60,
      "start": 127.8,
      "duration": 1.05,
      "velocity": 0.71
    },
    {
      "id": "n-00547",
      "pitch": "F4",
      "midi": 65,
      "start": 127.8,
      "duration": 1.05,
      "velocity": 0.71
    },
    {
      "id": "n-00548",
      "pitch": "G#3",
      "midi": 56,
      "start": 129,
      "duration": 0.525,
      "velocity": 0.71
    },
    {
      "id": "n-00549",
      "pitch": "C4",
      "midi": 60,
      "start": 129,
      "duration": 0.525,
      "velocity": 0.71
    },
    {
      "id": "n-00550",
      "pitch": "F4",
      "midi": 65,
      "start": 129,
      "duration": 0.525,
      "velocity": 0.71
    },
    {
      "id": "n-00551",
      "pitch": "G#4",
      "midi": 68,
      "start": 129.531,
      "duration": 0.058,
      "velocity": 0.71
    },
    {
      "id": "n-00552",
      "pitch": "A#1",
      "midi": 34,
      "start": 129.6,
      "duration": 2.1,
      "velocity": 0.71
    },
    {
      "id": "n-00553",
      "pitch": "A#4",
      "midi": 70,
      "start": 129.6,
      "duration": 1.131,
      "velocity": 0.71
    },
    {
      "id": "n-00554",
      "pitch": "F3",
      "midi": 53,
      "start": 130.2,
      "duration": 1.05,
      "velocity": 0.71
    },
    {
      "id": "n-00555",
      "pitch": "A#3",
      "midi": 58,
      "start": 130.2,
      "duration": 1.05,
      "velocity": 0.71
    },
    {
      "id": "n-00556",
      "pitch": "C#4",
      "midi": 61,
      "start": 130.2,
      "duration": 1.05,
      "velocity": 0.71
    },
    {
      "id": "n-00557",
      "pitch": "G#4",
      "midi": 68,
      "start": 130.731,
      "duration": 0.067,
      "velocity": 0.71
    },
    {
      "id": "n-00558",
      "pitch": "G4",
      "midi": 67,
      "start": 130.8,
      "duration": 1.131,
      "velocity": 0.71
    },
    {
      "id": "n-00559",
      "pitch": "F3",
      "midi": 53,
      "start": 131.4,
      "duration": 0.525,
      "velocity": 0.71
    },
    {
      "id": "n-00560",
      "pitch": "A#3",
      "midi": 58,
      "start": 131.4,
      "duration": 0.525,
      "velocity": 0.71
    },
    {
      "id": "n-00561",
      "pitch": "C#4",
      "midi": 61,
      "start": 131.4,
      "duration": 0.525,
      "velocity": 0.71
    },
    {
      "id": "n-00562",
      "pitch": "G#4",
      "midi": 68,
      "start": 131.931,
      "duration": 0.067,
      "velocity": 0.71
    },
    {
      "id": "n-00563",
      "pitch": "A#1",
      "midi": 34,
      "start": 132,
      "duration": 2.1,
      "velocity": 0.71
    },
    {
      "id": "n-00564",
      "pitch": "A#4",
      "midi": 70,
      "start": 132,
      "duration": 1.131,
      "velocity": 0.71
    },
    {
      "id": "n-00565",
      "pitch": "F3",
      "midi": 53,
      "start": 132.6,
      "duration": 1.05,
      "velocity": 0.71
    },
    {
      "id": "n-00566",
      "pitch": "A#3",
      "midi": 58,
      "start": 132.6,
      "duration": 1.05,
      "velocity": 0.71
    },
    {
      "id": "n-00567",
      "pitch": "C#4",
      "midi": 61,
      "start": 132.6,
      "duration": 1.05,
      "velocity": 0.71
    },
    {
      "id": "n-00568",
      "pitch": "G#4",
      "midi": 68,
      "start": 133.131,
      "duration": 0.067,
      "velocity": 0.71
    },
    {
      "id": "n-00569",
      "pitch": "G4",
      "midi": 67,
      "start": 133.2,
      "duration": 1.131,
      "velocity": 0.71
    },
    {
      "id": "n-00570",
      "pitch": "F3",
      "midi": 53,
      "start": 133.8,
      "duration": 0.525,
      "velocity": 0.71
    },
    {
      "id": "n-00571",
      "pitch": "A#3",
      "midi": 58,
      "start": 133.8,
      "duration": 0.525,
      "velocity": 0.71
    },
    {
      "id": "n-00572",
      "pitch": "C#4",
      "midi": 61,
      "start": 133.8,
      "duration": 0.525,
      "velocity": 0.71
    },
    {
      "id": "n-00573",
      "pitch": "G#4",
      "midi": 68,
      "start": 134.331,
      "duration": 0.067,
      "velocity": 0.71
    },
    {
      "id": "n-00574",
      "pitch": "F2",
      "midi": 41,
      "start": 134.4,
      "duration": 2.1,
      "velocity": 0.71
    },
    {
      "id": "n-00575",
      "pitch": "G4",
      "midi": 67,
      "start": 134.4,
      "duration": 0.531,
      "velocity": 0.71
    },
    {
      "id": "n-00576",
      "pitch": "G4",
      "midi": 67,
      "start": 134.931,
      "duration": 0.067,
      "velocity": 0.71
    },
    {
      "id": "n-00577",
      "pitch": "G#3",
      "midi": 56,
      "start": 135,
      "duration": 1.05,
      "velocity": 0.71
    },
    {
      "id": "n-00578",
      "pitch": "C4",
      "midi": 60,
      "start": 135,
      "duration": 1.05,
      "velocity": 0.71
    },
    {
      "id": "n-00579",
      "pitch": "F4",
      "midi": 65,
      "start": 135,
      "duration": 1.2,
      "velocity": 0.71
    },
    {
      "id": "n-00580",
      "pitch": "G#3",
      "midi": 56,
      "start": 136.2,
      "duration": 0.525,
      "velocity": 0.71
    },
    {
      "id": "n-00581",
      "pitch": "C4",
      "midi": 60,
      "start": 136.2,
      "duration": 0.525,
      "velocity": 0.71
    },
    {
      "id": "n-00582",
      "pitch": "F4",
      "midi": 65,
      "start": 136.2,
      "duration": 1.2,
      "velocity": 0.71
    },
    {
      "id": "n-00583",
      "pitch": "F2",
      "midi": 41,
      "start": 136.8,
      "duration": 2.1,
      "velocity": 0.71
    },
    {
      "id": "n-00584",
      "pitch": "G#3",
      "midi": 56,
      "start": 137.4,
      "duration": 1.05,
      "velocity": 0.71
    },
    {
      "id": "n-00585",
      "pitch": "C4",
      "midi": 60,
      "start": 137.4,
      "duration": 1.05,
      "velocity": 0.71
    },
    {
      "id": "n-00586",
      "pitch": "F4",
      "midi": 65,
      "start": 137.4,
      "duration": 1.2,
      "velocity": 0.71
    },
    {
      "id": "n-00587",
      "pitch": "G#3",
      "midi": 56,
      "start": 138.6,
      "duration": 0.525,
      "velocity": 0.71
    },
    {
      "id": "n-00588",
      "pitch": "C4",
      "midi": 60,
      "start": 138.6,
      "duration": 0.525,
      "velocity": 0.71
    },
    {
      "id": "n-00589",
      "pitch": "F4",
      "midi": 65,
      "start": 138.6,
      "duration": 0.3,
      "velocity": 0.71
    },
    {
      "id": "n-00590",
      "pitch": "G#4",
      "midi": 68,
      "start": 139.131,
      "duration": 0.058,
      "velocity": 0.71
    },
    {
      "id": "n-00591",
      "pitch": "A#1",
      "midi": 34,
      "start": 139.2,
      "duration": 2.1,
      "velocity": 0.71
    },
    {
      "id": "n-00592",
      "pitch": "A#4",
      "midi": 70,
      "start": 139.2,
      "duration": 1.131,
      "velocity": 0.71
    },
    {
      "id": "n-00593",
      "pitch": "F3",
      "midi": 53,
      "start": 139.8,
      "duration": 1.05,
      "velocity": 0.71
    },
    {
      "id": "n-00594",
      "pitch": "A#3",
      "midi": 58,
      "start": 139.8,
      "duration": 1.05,
      "velocity": 0.71
    },
    {
      "id": "n-00595",
      "pitch": "C#4",
      "midi": 61,
      "start": 139.8,
      "duration": 1.05,
      "velocity": 0.71
    },
    {
      "id": "n-00596",
      "pitch": "G#4",
      "midi": 68,
      "start": 140.331,
      "duration": 0.067,
      "velocity": 0.71
    },
    {
      "id": "n-00597",
      "pitch": "G4",
      "midi": 67,
      "start": 140.4,
      "duration": 1.131,
      "velocity": 0.71
    },
    {
      "id": "n-00598",
      "pitch": "F3",
      "midi": 53,
      "start": 141,
      "duration": 0.525,
      "velocity": 0.71
    },
    {
      "id": "n-00599",
      "pitch": "A#3",
      "midi": 58,
      "start": 141,
      "duration": 0.525,
      "velocity": 0.71
    },
    {
      "id": "n-00600",
      "pitch": "C#4",
      "midi": 61,
      "start": 141,
      "duration": 0.525,
      "velocity": 0.71
    },
    {
      "id": "n-00601",
      "pitch": "G#4",
      "midi": 68,
      "start": 141.531,
      "duration": 0.067,
      "velocity": 0.71
    },
    {
      "id": "n-00602",
      "pitch": "A#1",
      "midi": 34,
      "start": 141.6,
      "duration": 2.1,
      "velocity": 0.71
    },
    {
      "id": "n-00603",
      "pitch": "A#4",
      "midi": 70,
      "start": 141.6,
      "duration": 1.131,
      "velocity": 0.71
    },
    {
      "id": "n-00604",
      "pitch": "F3",
      "midi": 53,
      "start": 142.2,
      "duration": 1.05,
      "velocity": 0.71
    },
    {
      "id": "n-00605",
      "pitch": "A#3",
      "midi": 58,
      "start": 142.2,
      "duration": 1.05,
      "velocity": 0.71
    },
    {
      "id": "n-00606",
      "pitch": "C#4",
      "midi": 61,
      "start": 142.2,
      "duration": 1.05,
      "velocity": 0.71
    },
    {
      "id": "n-00607",
      "pitch": "G#4",
      "midi": 68,
      "start": 142.731,
      "duration": 0.067,
      "velocity": 0.71
    },
    {
      "id": "n-00608",
      "pitch": "G4",
      "midi": 67,
      "start": 142.8,
      "duration": 1.131,
      "velocity": 0.71
    },
    {
      "id": "n-00609",
      "pitch": "F3",
      "midi": 53,
      "start": 143.4,
      "duration": 0.525,
      "velocity": 0.71
    },
    {
      "id": "n-00610",
      "pitch": "A#3",
      "midi": 58,
      "start": 143.4,
      "duration": 0.525,
      "velocity": 0.71
    },
    {
      "id": "n-00611",
      "pitch": "C#4",
      "midi": 61,
      "start": 143.4,
      "duration": 0.525,
      "velocity": 0.71
    },
    {
      "id": "n-00612",
      "pitch": "G#4",
      "midi": 68,
      "start": 143.931,
      "duration": 0.067,
      "velocity": 0.71
    },
    {
      "id": "n-00613",
      "pitch": "F2",
      "midi": 41,
      "start": 144,
      "duration": 2.1,
      "velocity": 0.71
    },
    {
      "id": "n-00614",
      "pitch": "G4",
      "midi": 67,
      "start": 144,
      "duration": 0.531,
      "velocity": 0.71
    },
    {
      "id": "n-00615",
      "pitch": "G4",
      "midi": 67,
      "start": 144.531,
      "duration": 0.067,
      "velocity": 0.71
    },
    {
      "id": "n-00616",
      "pitch": "G#3",
      "midi": 56,
      "start": 144.6,
      "duration": 1.05,
      "velocity": 0.71
    },
    {
      "id": "n-00617",
      "pitch": "C4",
      "midi": 60,
      "start": 144.6,
      "duration": 1.05,
      "velocity": 0.71
    },
    {
      "id": "n-00618",
      "pitch": "F4",
      "midi": 65,
      "start": 144.6,
      "duration": 1.2,
      "velocity": 0.71
    },
    {
      "id": "n-00619",
      "pitch": "G#3",
      "midi": 56,
      "start": 145.8,
      "duration": 0.525,
      "velocity": 0.71
    },
    {
      "id": "n-00620",
      "pitch": "C4",
      "midi": 60,
      "start": 145.8,
      "duration": 0.525,
      "velocity": 0.71
    },
    {
      "id": "n-00621",
      "pitch": "F4",
      "midi": 65,
      "start": 145.8,
      "duration": 1.2,
      "velocity": 0.71
    },
    {
      "id": "n-00622",
      "pitch": "F2",
      "midi": 41,
      "start": 146.4,
      "duration": 2.1,
      "velocity": 0.71
    },
    {
      "id": "n-00623",
      "pitch": "G#3",
      "midi": 56,
      "start": 147,
      "duration": 1.05,
      "velocity": 0.71
    },
    {
      "id": "n-00624",
      "pitch": "C4",
      "midi": 60,
      "start": 147,
      "duration": 1.05,
      "velocity": 0.71
    },
    {
      "id": "n-00625",
      "pitch": "F4",
      "midi": 65,
      "start": 147,
      "duration": 1.2,
      "velocity": 0.71
    },
    {
      "id": "n-00626",
      "pitch": "G#3",
      "midi": 56,
      "start": 148.2,
      "duration": 0.525,
      "velocity": 0.71
    },
    {
      "id": "n-00627",
      "pitch": "C4",
      "midi": 60,
      "start": 148.2,
      "duration": 0.525,
      "velocity": 0.71
    },
    {
      "id": "n-00628",
      "pitch": "F4",
      "midi": 65,
      "start": 148.2,
      "duration": 0.3,
      "velocity": 0.71
    },
    {
      "id": "n-00629",
      "pitch": "F2",
      "midi": 41,
      "start": 148.8,
      "duration": 2.1,
      "velocity": 0.71
    },
    {
      "id": "n-00630",
      "pitch": "C5",
      "midi": 72,
      "start": 149.1,
      "duration": 0.3,
      "velocity": 0.71
    },
    {
      "id": "n-00631",
      "pitch": "G#3",
      "midi": 56,
      "start": 149.4,
      "duration": 1.05,
      "velocity": 0.71
    },
    {
      "id": "n-00632",
      "pitch": "C4",
      "midi": 60,
      "start": 149.4,
      "duration": 1.05,
      "velocity": 0.71
    },
    {
      "id": "n-00633",
      "pitch": "F4",
      "midi": 65,
      "start": 149.4,
      "duration": 1.05,
      "velocity": 0.71
    },
    {
      "id": "n-00634",
      "pitch": "D5",
      "midi": 74,
      "start": 149.4,
      "duration": 0.3,
      "velocity": 0.71
    },
    {
      "id": "n-00635",
      "pitch": "E5",
      "midi": 76,
      "start": 149.7,
      "duration": 0.3,
      "velocity": 0.71
    },
    {
      "id": "n-00636",
      "pitch": "F5",
      "midi": 77,
      "start": 150,
      "duration": 0.3,
      "velocity": 0.71
    },
    {
      "id": "n-00637",
      "pitch": "G5",
      "midi": 79,
      "start": 150.3,
      "duration": 0.3,
      "velocity": 0.71
    },
    {
      "id": "n-00638",
      "pitch": "G#3",
      "midi": 56,
      "start": 150.6,
      "duration": 0.525,
      "velocity": 0.71
    },
    {
      "id": "n-00639",
      "pitch": "C4",
      "midi": 60,
      "start": 150.6,
      "duration": 0.525,
      "velocity": 0.71
    },
    {
      "id": "n-00640",
      "pitch": "F4",
      "midi": 65,
      "start": 150.6,
      "duration": 0.525,
      "velocity": 0.71
    },
    {
      "id": "n-00641",
      "pitch": "B5",
      "midi": 83,
      "start": 150.6,
      "duration": 0.3,
      "velocity": 0.71
    },
    {
      "id": "n-00642",
      "pitch": "G5",
      "midi": 79,
      "start": 150.9,
      "duration": 0.3,
      "velocity": 0.71
    },
    {
      "id": "n-00643",
      "pitch": "F2",
      "midi": 41,
      "start": 151.2,
      "duration": 2.1,
      "velocity": 0.71
    },
    {
      "id": "n-00644",
      "pitch": "F5",
      "midi": 77,
      "start": 151.2,
      "duration": 0.531,
      "velocity": 0.71
    },
    {
      "id": "n-00645",
      "pitch": "G5",
      "midi": 79,
      "start": 151.731,
      "duration": 0.067,
      "velocity": 0.71
    },
    {
      "id": "n-00646",
      "pitch": "G#3",
      "midi": 56,
      "start": 151.8,
      "duration": 1.05,
      "velocity": 0.71
    },
    {
      "id": "n-00647",
      "pitch": "C4",
      "midi": 60,
      "start": 151.8,
      "duration": 1.05,
      "velocity": 0.71
    },
    {
      "id": "n-00648",
      "pitch": "F4",
      "midi": 65,
      "start": 151.8,
      "duration": 1.05,
      "velocity": 0.71
    },
    {
      "id": "n-00649",
      "pitch": "F5",
      "midi": 77,
      "start": 151.8,
      "duration": 1.731,
      "velocity": 0.71
    },
    {
      "id": "n-00650",
      "pitch": "G#3",
      "midi": 56,
      "start": 153,
      "duration": 0.525,
      "velocity": 0.71
    },
    {
      "id": "n-00651",
      "pitch": "C4",
      "midi": 60,
      "start": 153,
      "duration": 0.525,
      "velocity": 0.71
    },
    {
      "id": "n-00652",
      "pitch": "F4",
      "midi": 65,
      "start": 153,
      "duration": 0.525,
      "velocity": 0.71
    },
    {
      "id": "n-00653",
      "pitch": "G5",
      "midi": 79,
      "start": 153.531,
      "duration": 0.067,
      "velocity": 0.71
    },
    {
      "id": "n-00654",
      "pitch": "F2",
      "midi": 41,
      "start": 153.6,
      "duration": 2.1,
      "velocity": 0.71
    },
    {
      "id": "n-00655",
      "pitch": "F5",
      "midi": 77,
      "start": 153.6,
      "duration": 1.131,
      "velocity": 0.71
    },
    {
      "id": "n-00656",
      "pitch": "G#3",
      "midi": 56,
      "start": 154.2,
      "duration": 1.05,
      "velocity": 0.71
    },
    {
      "id": "n-00657",
      "pitch": "C4",
      "midi": 60,
      "start": 154.2,
      "duration": 1.05,
      "velocity": 0.71
    },
    {
      "id": "n-00658",
      "pitch": "F4",
      "midi": 65,
      "start": 154.2,
      "duration": 1.05,
      "velocity": 0.71
    },
    {
      "id": "n-00659",
      "pitch": "F5",
      "midi": 77,
      "start": 154.731,
      "duration": 0.067,
      "velocity": 0.71
    },
    {
      "id": "n-00660",
      "pitch": "E5",
      "midi": 76,
      "start": 154.8,
      "duration": 1.131,
      "velocity": 0.71
    },
    {
      "id": "n-00661",
      "pitch": "G#3",
      "midi": 56,
      "start": 155.4,
      "duration": 0.525,
      "velocity": 0.71
    },
    {
      "id": "n-00662",
      "pitch": "C4",
      "midi": 60,
      "start": 155.4,
      "duration": 0.525,
      "velocity": 0.71
    },
    {
      "id": "n-00663",
      "pitch": "F4",
      "midi": 65,
      "start": 155.4,
      "duration": 0.525,
      "velocity": 0.71
    },
    {
      "id": "n-00664",
      "pitch": "C#5",
      "midi": 73,
      "start": 155.931,
      "duration": 0.067,
      "velocity": 0.71
    },
    {
      "id": "n-00665",
      "pitch": "F2",
      "midi": 41,
      "start": 156,
      "duration": 2.1,
      "velocity": 0.71
    },
    {
      "id": "n-00666",
      "pitch": "C5",
      "midi": 72,
      "start": 156,
      "duration": 1.131,
      "velocity": 0.71
    },
    {
      "id": "n-00667",
      "pitch": "G#3",
      "midi": 56,
      "start": 156.6,
      "duration": 1.05,
      "velocity": 0.71
    },
    {
      "id": "n-00668",
      "pitch": "C4",
      "midi": 60,
      "start": 156.6,
      "duration": 1.05,
      "velocity": 0.71
    },
    {
      "id": "n-00669",
      "pitch": "F4",
      "midi": 65,
      "start": 156.6,
      "duration": 1.05,
      "velocity": 0.71
    },
    {
      "id": "n-00670",
      "pitch": "C5",
      "midi": 72,
      "start": 157.131,
      "duration": 0.067,
      "velocity": 0.71
    },
    {
      "id": "n-00671",
      "pitch": "B4",
      "midi": 71,
      "start": 157.2,
      "duration": 1.131,
      "velocity": 0.71
    },
    {
      "id": "n-00672",
      "pitch": "G#3",
      "midi": 56,
      "start": 157.8,
      "duration": 0.525,
      "velocity": 0.71
    },
    {
      "id": "n-00673",
      "pitch": "C4",
      "midi": 60,
      "start": 157.8,
      "duration": 0.525,
      "velocity": 0.71
    },
    {
      "id": "n-00674",
      "pitch": "F4",
      "midi": 65,
      "start": 157.8,
      "duration": 0.525,
      "velocity": 0.71
    },
    {
      "id": "n-00675",
      "pitch": "G#4",
      "midi": 68,
      "start": 158.331,
      "duration": 0.067,
      "velocity": 0.71
    },
    {
      "id": "n-00676",
      "pitch": "F2",
      "midi": 41,
      "start": 158.4,
      "duration": 2.1,
      "velocity": 0.71
    },
    {
      "id": "n-00677",
      "pitch": "G4",
      "midi": 67,
      "start": 158.4,
      "duration": 0.531,
      "velocity": 0.71
    },
    {
      "id": "n-00678",
      "pitch": "G4",
      "midi": 67,
      "start": 158.931,
      "duration": 0.067,
      "velocity": 0.71
    },
    {
      "id": "n-00679",
      "pitch": "G#3",
      "midi": 56,
      "start": 159,
      "duration": 1.05,
      "velocity": 0.71
    },
    {
      "id": "n-00680",
      "pitch": "C4",
      "midi": 60,
      "start": 159,
      "duration": 1.05,
      "velocity": 0.71
    },
    {
      "id": "n-00681",
      "pitch": "F4",
      "midi": 65,
      "start": 159,
      "duration": 1.2,
      "velocity": 0.71
    },
    {
      "id": "n-00682",
      "pitch": "G#3",
      "midi": 56,
      "start": 160.2,
      "duration": 0.525,
      "velocity": 0.71
    },
    {
      "id": "n-00683",
      "pitch": "C4",
      "midi": 60,
      "start": 160.2,
      "duration": 0.525,
      "velocity": 0.71
    },
    {
      "id": "n-00684",
      "pitch": "F4",
      "midi": 65,
      "start": 160.2,
      "duration": 1.2,
      "velocity": 0.71
    },
    {
      "id": "n-00685",
      "pitch": "F2",
      "midi": 41,
      "start": 160.8,
      "duration": 2.1,
      "velocity": 0.71
    },
    {
      "id": "n-00686",
      "pitch": "G#3",
      "midi": 56,
      "start": 161.4,
      "duration": 1.05,
      "velocity": 0.71
    },
    {
      "id": "n-00687",
      "pitch": "C4",
      "midi": 60,
      "start": 161.4,
      "duration": 1.05,
      "velocity": 0.71
    },
    {
      "id": "n-00688",
      "pitch": "F4",
      "midi": 65,
      "start": 161.4,
      "duration": 1.2,
      "velocity": 0.71
    },
    {
      "id": "n-00689",
      "pitch": "G#3",
      "midi": 56,
      "start": 162.6,
      "duration": 0.525,
      "velocity": 0.71
    },
    {
      "id": "n-00690",
      "pitch": "C4",
      "midi": 60,
      "start": 162.6,
      "duration": 0.525,
      "velocity": 0.71
    },
    {
      "id": "n-00691",
      "pitch": "F4",
      "midi": 65,
      "start": 162.6,
      "duration": 0.3,
      "velocity": 0.71
    },
    {
      "id": "n-00692",
      "pitch": "F2",
      "midi": 41,
      "start": 163.2,
      "duration": 2.1,
      "velocity": 0.71
    },
    {
      "id": "n-00693",
      "pitch": "C5",
      "midi": 72,
      "start": 163.5,
      "duration": 0.3,
      "velocity": 0.71
    },
    {
      "id": "n-00694",
      "pitch": "G#3",
      "midi": 56,
      "start": 163.8,
      "duration": 1.05,
      "velocity": 0.71
    },
    {
      "id": "n-00695",
      "pitch": "C4",
      "midi": 60,
      "start": 163.8,
      "duration": 1.05,
      "velocity": 0.71
    },
    {
      "id": "n-00696",
      "pitch": "F4",
      "midi": 65,
      "start": 163.8,
      "duration": 1.05,
      "velocity": 0.71
    },
    {
      "id": "n-00697",
      "pitch": "D5",
      "midi": 74,
      "start": 163.8,
      "duration": 0.3,
      "velocity": 0.71
    },
    {
      "id": "n-00698",
      "pitch": "E5",
      "midi": 76,
      "start": 164.1,
      "duration": 0.3,
      "velocity": 0.71
    },
    {
      "id": "n-00699",
      "pitch": "F5",
      "midi": 77,
      "start": 164.4,
      "duration": 0.3,
      "velocity": 0.71
    },
    {
      "id": "n-00700",
      "pitch": "G5",
      "midi": 79,
      "start": 164.7,
      "duration": 0.3,
      "velocity": 0.71
    },
    {
      "id": "n-00701",
      "pitch": "G#3",
      "midi": 56,
      "start": 165,
      "duration": 0.525,
      "velocity": 0.71
    },
    {
      "id": "n-00702",
      "pitch": "C4",
      "midi": 60,
      "start": 165,
      "duration": 0.525,
      "velocity": 0.71
    },
    {
      "id": "n-00703",
      "pitch": "F4",
      "midi": 65,
      "start": 165,
      "duration": 0.525,
      "velocity": 0.71
    },
    {
      "id": "n-00704",
      "pitch": "B5",
      "midi": 83,
      "start": 165,
      "duration": 0.3,
      "velocity": 0.71
    },
    {
      "id": "n-00705",
      "pitch": "G5",
      "midi": 79,
      "start": 165.3,
      "duration": 0.3,
      "velocity": 0.71
    },
    {
      "id": "n-00706",
      "pitch": "F2",
      "midi": 41,
      "start": 165.6,
      "duration": 2.1,
      "velocity": 0.71
    },
    {
      "id": "n-00707",
      "pitch": "F5",
      "midi": 77,
      "start": 165.6,
      "duration": 0.531,
      "velocity": 0.71
    },
    {
      "id": "n-00708",
      "pitch": "G5",
      "midi": 79,
      "start": 166.131,
      "duration": 0.067,
      "velocity": 0.71
    },
    {
      "id": "n-00709",
      "pitch": "G#3",
      "midi": 56,
      "start": 166.2,
      "duration": 1.05,
      "velocity": 0.71
    },
    {
      "id": "n-00710",
      "pitch": "C4",
      "midi": 60,
      "start": 166.2,
      "duration": 1.05,
      "velocity": 0.71
    },
    {
      "id": "n-00711",
      "pitch": "F4",
      "midi": 65,
      "start": 166.2,
      "duration": 1.05,
      "velocity": 0.71
    },
    {
      "id": "n-00712",
      "pitch": "F5",
      "midi": 77,
      "start": 166.2,
      "duration": 1.731,
      "velocity": 0.71
    },
    {
      "id": "n-00713",
      "pitch": "G#3",
      "midi": 56,
      "start": 167.4,
      "duration": 0.525,
      "velocity": 0.71
    },
    {
      "id": "n-00714",
      "pitch": "C4",
      "midi": 60,
      "start": 167.4,
      "duration": 0.525,
      "velocity": 0.71
    },
    {
      "id": "n-00715",
      "pitch": "F4",
      "midi": 65,
      "start": 167.4,
      "duration": 0.525,
      "velocity": 0.71
    },
    {
      "id": "n-00716",
      "pitch": "G5",
      "midi": 79,
      "start": 167.931,
      "duration": 0.067,
      "velocity": 0.71
    },
    {
      "id": "n-00717",
      "pitch": "F2",
      "midi": 41,
      "start": 168,
      "duration": 2.1,
      "velocity": 0.71
    },
    {
      "id": "n-00718",
      "pitch": "F5",
      "midi": 77,
      "start": 168,
      "duration": 1.131,
      "velocity": 0.71
    },
    {
      "id": "n-00719",
      "pitch": "G#3",
      "midi": 56,
      "start": 168.6,
      "duration": 1.05,
      "velocity": 0.71
    },
    {
      "id": "n-00720",
      "pitch": "C4",
      "midi": 60,
      "start": 168.6,
      "duration": 1.05,
      "velocity": 0.71
    },
    {
      "id": "n-00721",
      "pitch": "F4",
      "midi": 65,
      "start": 168.6,
      "duration": 1.05,
      "velocity": 0.71
    },
    {
      "id": "n-00722",
      "pitch": "F5",
      "midi": 77,
      "start": 169.131,
      "duration": 0.067,
      "velocity": 0.71
    },
    {
      "id": "n-00723",
      "pitch": "E5",
      "midi": 76,
      "start": 169.2,
      "duration": 1.131,
      "velocity": 0.71
    },
    {
      "id": "n-00724",
      "pitch": "G#3",
      "midi": 56,
      "start": 169.8,
      "duration": 0.525,
      "velocity": 0.71
    },
    {
      "id": "n-00725",
      "pitch": "C4",
      "midi": 60,
      "start": 169.8,
      "duration": 0.525,
      "velocity": 0.71
    },
    {
      "id": "n-00726",
      "pitch": "F4",
      "midi": 65,
      "start": 169.8,
      "duration": 0.525,
      "velocity": 0.71
    },
    {
      "id": "n-00727",
      "pitch": "C#5",
      "midi": 73,
      "start": 170.331,
      "duration": 0.067,
      "velocity": 0.71
    },
    {
      "id": "n-00728",
      "pitch": "F2",
      "midi": 41,
      "start": 170.4,
      "duration": 2.1,
      "velocity": 0.71
    },
    {
      "id": "n-00729",
      "pitch": "C5",
      "midi": 72,
      "start": 170.4,
      "duration": 1.131,
      "velocity": 0.71
    },
    {
      "id": "n-00730",
      "pitch": "G#3",
      "midi": 56,
      "start": 171,
      "duration": 1.05,
      "velocity": 0.71
    },
    {
      "id": "n-00731",
      "pitch": "C4",
      "midi": 60,
      "start": 171,
      "duration": 1.05,
      "velocity": 0.71
    },
    {
      "id": "n-00732",
      "pitch": "F4",
      "midi": 65,
      "start": 171,
      "duration": 1.05,
      "velocity": 0.71
    },
    {
      "id": "n-00733",
      "pitch": "C5",
      "midi": 72,
      "start": 171.531,
      "duration": 0.067,
      "velocity": 0.71
    },
    {
      "id": "n-00734",
      "pitch": "B4",
      "midi": 71,
      "start": 171.6,
      "duration": 1.131,
      "velocity": 0.71
    },
    {
      "id": "n-00735",
      "pitch": "G#3",
      "midi": 56,
      "start": 172.2,
      "duration": 0.525,
      "velocity": 0.71
    },
    {
      "id": "n-00736",
      "pitch": "C4",
      "midi": 60,
      "start": 172.2,
      "duration": 0.525,
      "velocity": 0.71
    },
    {
      "id": "n-00737",
      "pitch": "F4",
      "midi": 65,
      "start": 172.2,
      "duration": 0.525,
      "velocity": 0.71
    },
    {
      "id": "n-00738",
      "pitch": "G#4",
      "midi": 68,
      "start": 172.731,
      "duration": 0.067,
      "velocity": 0.71
    },
    {
      "id": "n-00739",
      "pitch": "F2",
      "midi": 41,
      "start": 172.8,
      "duration": 2.1,
      "velocity": 0.71
    },
    {
      "id": "n-00740",
      "pitch": "G4",
      "midi": 67,
      "start": 172.8,
      "duration": 0.531,
      "velocity": 0.71
    },
    {
      "id": "n-00741",
      "pitch": "G4",
      "midi": 67,
      "start": 173.331,
      "duration": 0.067,
      "velocity": 0.71
    },
    {
      "id": "n-00742",
      "pitch": "G#3",
      "midi": 56,
      "start": 173.4,
      "duration": 1.05,
      "velocity": 0.71
    },
    {
      "id": "n-00743",
      "pitch": "C4",
      "midi": 60,
      "start": 173.4,
      "duration": 1.05,
      "velocity": 0.71
    },
    {
      "id": "n-00744",
      "pitch": "F4",
      "midi": 65,
      "start": 173.4,
      "duration": 1.2,
      "velocity": 0.71
    },
    {
      "id": "n-00745",
      "pitch": "G#3",
      "midi": 56,
      "start": 174.6,
      "duration": 0.525,
      "velocity": 0.71
    },
    {
      "id": "n-00746",
      "pitch": "C4",
      "midi": 60,
      "start": 174.6,
      "duration": 0.525,
      "velocity": 0.71
    },
    {
      "id": "n-00747",
      "pitch": "F4",
      "midi": 65,
      "start": 174.6,
      "duration": 1.2,
      "velocity": 0.71
    },
    {
      "id": "n-00748",
      "pitch": "F2",
      "midi": 41,
      "start": 175.2,
      "duration": 2.1,
      "velocity": 0.71
    },
    {
      "id": "n-00749",
      "pitch": "G#3",
      "midi": 56,
      "start": 175.8,
      "duration": 1.05,
      "velocity": 0.71
    },
    {
      "id": "n-00750",
      "pitch": "C4",
      "midi": 60,
      "start": 175.8,
      "duration": 1.05,
      "velocity": 0.71
    },
    {
      "id": "n-00751",
      "pitch": "F4",
      "midi": 65,
      "start": 175.8,
      "duration": 1.2,
      "velocity": 0.71
    },
    {
      "id": "n-00752",
      "pitch": "G#3",
      "midi": 56,
      "start": 177,
      "duration": 0.525,
      "velocity": 0.71
    },
    {
      "id": "n-00753",
      "pitch": "C4",
      "midi": 60,
      "start": 177,
      "duration": 0.525,
      "velocity": 0.71
    },
    {
      "id": "n-00754",
      "pitch": "F4",
      "midi": 65,
      "start": 177,
      "duration": 0.3,
      "velocity": 0.71
    },
    {
      "id": "n-00755",
      "pitch": "G#4",
      "midi": 68,
      "start": 177.531,
      "duration": 0.058,
      "velocity": 0.71
    },
    {
      "id": "n-00756",
      "pitch": "A#1",
      "midi": 34,
      "start": 177.6,
      "duration": 2.1,
      "velocity": 0.71
    },
    {
      "id": "n-00757",
      "pitch": "A#4",
      "midi": 70,
      "start": 177.6,
      "duration": 1.131,
      "velocity": 0.71
    },
    {
      "id": "n-00758",
      "pitch": "F3",
      "midi": 53,
      "start": 178.2,
      "duration": 1.05,
      "velocity": 0.71
    },
    {
      "id": "n-00759",
      "pitch": "A#3",
      "midi": 58,
      "start": 178.2,
      "duration": 1.05,
      "velocity": 0.71
    },
    {
      "id": "n-00760",
      "pitch": "C#4",
      "midi": 61,
      "start": 178.2,
      "duration": 1.05,
      "velocity": 0.71
    },
    {
      "id": "n-00761",
      "pitch": "G#4",
      "midi": 68,
      "start": 178.731,
      "duration": 0.067,
      "velocity": 0.71
    },
    {
      "id": "n-00762",
      "pitch": "G4",
      "midi": 67,
      "start": 178.8,
      "duration": 1.131,
      "velocity": 0.71
    },
    {
      "id": "n-00763",
      "pitch": "F3",
      "midi": 53,
      "start": 179.4,
      "duration": 0.525,
      "velocity": 0.71
    },
    {
      "id": "n-00764",
      "pitch": "A#3",
      "midi": 58,
      "start": 179.4,
      "duration": 0.525,
      "velocity": 0.71
    },
    {
      "id": "n-00765",
      "pitch": "C#4",
      "midi": 61,
      "start": 179.4,
      "duration": 0.525,
      "velocity": 0.71
    },
    {
      "id": "n-00766",
      "pitch": "G#4",
      "midi": 68,
      "start": 179.931,
      "duration": 0.067,
      "velocity": 0.71
    },
    {
      "id": "n-00767",
      "pitch": "A#1",
      "midi": 34,
      "start": 180,
      "duration": 2.1,
      "velocity": 0.71
    },
    {
      "id": "n-00768",
      "pitch": "A#4",
      "midi": 70,
      "start": 180,
      "duration": 1.131,
      "velocity": 0.71
    },
    {
      "id": "n-00769",
      "pitch": "F3",
      "midi": 53,
      "start": 180.6,
      "duration": 1.05,
      "velocity": 0.71
    },
    {
      "id": "n-00770",
      "pitch": "A#3",
      "midi": 58,
      "start": 180.6,
      "duration": 1.05,
      "velocity": 0.71
    },
    {
      "id": "n-00771",
      "pitch": "C#4",
      "midi": 61,
      "start": 180.6,
      "duration": 1.05,
      "velocity": 0.71
    },
    {
      "id": "n-00772",
      "pitch": "G#4",
      "midi": 68,
      "start": 181.131,
      "duration": 0.067,
      "velocity": 0.71
    },
    {
      "id": "n-00773",
      "pitch": "G4",
      "midi": 67,
      "start": 181.2,
      "duration": 1.131,
      "velocity": 0.71
    },
    {
      "id": "n-00774",
      "pitch": "F3",
      "midi": 53,
      "start": 181.8,
      "duration": 0.525,
      "velocity": 0.71
    },
    {
      "id": "n-00775",
      "pitch": "A#3",
      "midi": 58,
      "start": 181.8,
      "duration": 0.525,
      "velocity": 0.71
    },
    {
      "id": "n-00776",
      "pitch": "C#4",
      "midi": 61,
      "start": 181.8,
      "duration": 0.525,
      "velocity": 0.71
    },
    {
      "id": "n-00777",
      "pitch": "G#4",
      "midi": 68,
      "start": 182.331,
      "duration": 0.067,
      "velocity": 0.71
    },
    {
      "id": "n-00778",
      "pitch": "F2",
      "midi": 41,
      "start": 182.4,
      "duration": 2.1,
      "velocity": 0.71
    },
    {
      "id": "n-00779",
      "pitch": "G4",
      "midi": 67,
      "start": 182.4,
      "duration": 0.531,
      "velocity": 0.71
    },
    {
      "id": "n-00780",
      "pitch": "G4",
      "midi": 67,
      "start": 182.931,
      "duration": 0.067,
      "velocity": 0.71
    },
    {
      "id": "n-00781",
      "pitch": "G#3",
      "midi": 56,
      "start": 183,
      "duration": 1.05,
      "velocity": 0.71
    },
    {
      "id": "n-00782",
      "pitch": "C4",
      "midi": 60,
      "start": 183,
      "duration": 1.05,
      "velocity": 0.71
    },
    {
      "id": "n-00783",
      "pitch": "F4",
      "midi": 65,
      "start": 183,
      "duration": 1.2,
      "velocity": 0.71
    },
    {
      "id": "n-00784",
      "pitch": "G#3",
      "midi": 56,
      "start": 184.2,
      "duration": 0.525,
      "velocity": 0.71
    },
    {
      "id": "n-00785",
      "pitch": "C4",
      "midi": 60,
      "start": 184.2,
      "duration": 0.525,
      "velocity": 0.71
    },
    {
      "id": "n-00786",
      "pitch": "F4",
      "midi": 65,
      "start": 184.2,
      "duration": 1.2,
      "velocity": 0.71
    },
    {
      "id": "n-00787",
      "pitch": "F2",
      "midi": 41,
      "start": 184.8,
      "duration": 2.1,
      "velocity": 0.71
    },
    {
      "id": "n-00788",
      "pitch": "G#3",
      "midi": 56,
      "start": 185.4,
      "duration": 1.05,
      "velocity": 0.71
    },
    {
      "id": "n-00789",
      "pitch": "C4",
      "midi": 60,
      "start": 185.4,
      "duration": 1.05,
      "velocity": 0.71
    },
    {
      "id": "n-00790",
      "pitch": "F4",
      "midi": 65,
      "start": 185.4,
      "duration": 1.2,
      "velocity": 0.71
    },
    {
      "id": "n-00791",
      "pitch": "G#3",
      "midi": 56,
      "start": 186.6,
      "duration": 0.525,
      "velocity": 0.71
    },
    {
      "id": "n-00792",
      "pitch": "C4",
      "midi": 60,
      "start": 186.6,
      "duration": 0.525,
      "velocity": 0.71
    },
    {
      "id": "n-00793",
      "pitch": "F4",
      "midi": 65,
      "start": 186.6,
      "duration": 0.3,
      "velocity": 0.71
    },
    {
      "id": "n-00794",
      "pitch": "G#4",
      "midi": 68,
      "start": 187.131,
      "duration": 0.058,
      "velocity": 0.71
    },
    {
      "id": "n-00795",
      "pitch": "A#1",
      "midi": 34,
      "start": 187.2,
      "duration": 2.1,
      "velocity": 0.71
    },
    {
      "id": "n-00796",
      "pitch": "A#4",
      "midi": 70,
      "start": 187.2,
      "duration": 1.131,
      "velocity": 0.71
    },
    {
      "id": "n-00797",
      "pitch": "F3",
      "midi": 53,
      "start": 187.8,
      "duration": 1.05,
      "velocity": 0.71
    },
    {
      "id": "n-00798",
      "pitch": "A#3",
      "midi": 58,
      "start": 187.8,
      "duration": 1.05,
      "velocity": 0.71
    },
    {
      "id": "n-00799",
      "pitch": "C#4",
      "midi": 61,
      "start": 187.8,
      "duration": 1.05,
      "velocity": 0.71
    },
    {
      "id": "n-00800",
      "pitch": "G#4",
      "midi": 68,
      "start": 188.331,
      "duration": 0.067,
      "velocity": 0.71
    },
    {
      "id": "n-00801",
      "pitch": "G4",
      "midi": 67,
      "start": 188.4,
      "duration": 1.131,
      "velocity": 0.71
    },
    {
      "id": "n-00802",
      "pitch": "F3",
      "midi": 53,
      "start": 189,
      "duration": 0.525,
      "velocity": 0.71
    },
    {
      "id": "n-00803",
      "pitch": "A#3",
      "midi": 58,
      "start": 189,
      "duration": 0.525,
      "velocity": 0.71
    },
    {
      "id": "n-00804",
      "pitch": "C#4",
      "midi": 61,
      "start": 189,
      "duration": 0.525,
      "velocity": 0.71
    },
    {
      "id": "n-00805",
      "pitch": "G#4",
      "midi": 68,
      "start": 189.531,
      "duration": 0.067,
      "velocity": 0.71
    },
    {
      "id": "n-00806",
      "pitch": "A#1",
      "midi": 34,
      "start": 189.6,
      "duration": 2.1,
      "velocity": 0.71
    },
    {
      "id": "n-00807",
      "pitch": "A#4",
      "midi": 70,
      "start": 189.6,
      "duration": 1.131,
      "velocity": 0.71
    },
    {
      "id": "n-00808",
      "pitch": "F3",
      "midi": 53,
      "start": 190.2,
      "duration": 1.05,
      "velocity": 0.71
    },
    {
      "id": "n-00809",
      "pitch": "A#3",
      "midi": 58,
      "start": 190.2,
      "duration": 1.05,
      "velocity": 0.71
    },
    {
      "id": "n-00810",
      "pitch": "C#4",
      "midi": 61,
      "start": 190.2,
      "duration": 1.05,
      "velocity": 0.71
    },
    {
      "id": "n-00811",
      "pitch": "G#4",
      "midi": 68,
      "start": 190.731,
      "duration": 0.067,
      "velocity": 0.71
    },
    {
      "id": "n-00812",
      "pitch": "G4",
      "midi": 67,
      "start": 190.8,
      "duration": 1.131,
      "velocity": 0.71
    },
    {
      "id": "n-00813",
      "pitch": "F3",
      "midi": 53,
      "start": 191.4,
      "duration": 0.525,
      "velocity": 0.71
    },
    {
      "id": "n-00814",
      "pitch": "A#3",
      "midi": 58,
      "start": 191.4,
      "duration": 0.525,
      "velocity": 0.71
    },
    {
      "id": "n-00815",
      "pitch": "C#4",
      "midi": 61,
      "start": 191.4,
      "duration": 0.525,
      "velocity": 0.71
    },
    {
      "id": "n-00816",
      "pitch": "G#4",
      "midi": 68,
      "start": 191.931,
      "duration": 0.067,
      "velocity": 0.71
    },
    {
      "id": "n-00817",
      "pitch": "F2",
      "midi": 41,
      "start": 192,
      "duration": 2.1,
      "velocity": 0.71
    },
    {
      "id": "n-00818",
      "pitch": "G4",
      "midi": 67,
      "start": 192,
      "duration": 0.531,
      "velocity": 0.71
    },
    {
      "id": "n-00819",
      "pitch": "G4",
      "midi": 67,
      "start": 192.531,
      "duration": 0.067,
      "velocity": 0.71
    },
    {
      "id": "n-00820",
      "pitch": "G#3",
      "midi": 56,
      "start": 192.6,
      "duration": 1.05,
      "velocity": 0.71
    },
    {
      "id": "n-00821",
      "pitch": "C4",
      "midi": 60,
      "start": 192.6,
      "duration": 1.05,
      "velocity": 0.71
    },
    {
      "id": "n-00822",
      "pitch": "F4",
      "midi": 65,
      "start": 192.6,
      "duration": 1.2,
      "velocity": 0.71
    },
    {
      "id": "n-00823",
      "pitch": "G#3",
      "midi": 56,
      "start": 193.8,
      "duration": 0.525,
      "velocity": 0.71
    },
    {
      "id": "n-00824",
      "pitch": "C4",
      "midi": 60,
      "start": 193.8,
      "duration": 0.525,
      "velocity": 0.71
    },
    {
      "id": "n-00825",
      "pitch": "F4",
      "midi": 65,
      "start": 193.8,
      "duration": 1.2,
      "velocity": 0.71
    },
    {
      "id": "n-00826",
      "pitch": "F2",
      "midi": 41,
      "start": 194.4,
      "duration": 2.1,
      "velocity": 0.71
    },
    {
      "id": "n-00827",
      "pitch": "G#3",
      "midi": 56,
      "start": 195,
      "duration": 1.05,
      "velocity": 0.71
    },
    {
      "id": "n-00828",
      "pitch": "C4",
      "midi": 60,
      "start": 195,
      "duration": 1.05,
      "velocity": 0.71
    },
    {
      "id": "n-00829",
      "pitch": "F4",
      "midi": 65,
      "start": 195,
      "duration": 1.2,
      "velocity": 0.71
    },
    {
      "id": "n-00830",
      "pitch": "G#3",
      "midi": 56,
      "start": 196.2,
      "duration": 0.525,
      "velocity": 0.71
    },
    {
      "id": "n-00831",
      "pitch": "C4",
      "midi": 60,
      "start": 196.2,
      "duration": 0.525,
      "velocity": 0.71
    },
    {
      "id": "n-00832",
      "pitch": "F4",
      "midi": 65,
      "start": 196.2,
      "duration": 0.3,
      "velocity": 0.71
    }
  ]
}
